<svg width="12" height="12" viewBox="0 0 12 12" fill="none" xmlns="http://www.w3.org/2000/svg">
<path fill-rule="evenodd" clip-rule="evenodd" d="M6.47532 0.791842C6.43342 0.704714 6.36639 0.630925 6.28215 0.579206C6.19792 0.527486 6.10001 0.5 6 0.5C5.9 0.5 5.80208 0.527486 5.71785 0.579206C5.63361 0.630925 5.56658 0.704714 5.52468 0.791842L4.02229 3.91605L0.462098 4.32139C0.362768 4.33264 0.268876 4.37097 0.191536 4.43182C0.114196 4.49268 0.0566452 4.57352 0.0256942 4.66478C-0.00525681 4.75604 -0.00831199 4.8539 0.0168902 4.94677C0.0420924 5.03965 0.094497 5.12365 0.167902 5.18884L2.80101 7.52446L2.10216 10.8998C2.08275 10.9939 2.09183 11.0914 2.12831 11.1807C2.16479 11.27 2.22716 11.3474 2.30804 11.4037C2.38892 11.4601 2.48493 11.4931 2.58472 11.4987C2.68451 11.5044 2.7839 11.4826 2.87116 11.4357L6 9.7551L9.12884 11.4357C9.21615 11.4828 9.31567 11.5048 9.41562 11.4991C9.51556 11.4935 9.61172 11.4605 9.69272 11.4041C9.77371 11.3476 9.83613 11.2701 9.87258 11.1806C9.90903 11.0911 9.91798 10.9935 9.89836 10.8993L9.19951 7.52496L11.8321 5.18884C11.9055 5.12365 11.9579 5.03965 11.9831 4.94677C12.0083 4.8539 12.0053 4.75604 11.9743 4.66478C11.9434 4.57352 11.8858 4.49268 11.8085 4.43182C11.7311 4.37097 11.6372 4.33264 11.5379 4.32139L7.97719 3.91555L6.47532 0.791842Z" fill="#4F4F4F"/>
</svg>
