<svg width="14" height="19" viewBox="0 0 14 19" fill="none" xmlns="http://www.w3.org/2000/svg">
<path d="M6.28069 18.0207C6.46822 18.2082 6.72253 18.3135 6.98769 18.3135C7.25286 18.3135 7.50717 18.2082 7.69469 18.0207L13.3517 12.3637C13.4472 12.2714 13.5234 12.1611 13.5758 12.0391C13.6282 11.9171 13.6558 11.7859 13.6569 11.6531C13.6581 11.5203 13.6328 11.3886 13.5825 11.2657C13.5322 11.1428 13.458 11.0312 13.3641 10.9373C13.2702 10.8434 13.1585 10.7691 13.0356 10.7189C12.9128 10.6686 12.7811 10.6433 12.6483 10.6444C12.5155 10.6456 12.3843 10.6732 12.2623 10.7256C12.1403 10.778 12.0299 10.8542 11.9377 10.9497L7.98769 14.8997L7.98769 1.65669C7.98769 1.39147 7.88234 1.13712 7.6948 0.949583C7.50726 0.762047 7.25291 0.656691 6.98769 0.656691C6.72248 0.656691 6.46812 0.762047 6.28059 0.949583C6.09305 1.13712 5.98769 1.39147 5.98769 1.65669L5.98769 14.8997L2.03769 10.9497C1.84909 10.7675 1.59649 10.6667 1.33429 10.669C1.0721 10.6713 0.821283 10.7765 0.635876 10.9619C0.450468 11.1473 0.345298 11.3981 0.343019 11.6603C0.340741 11.9225 0.441535 12.1751 0.623693 12.3637L6.28069 18.0207Z" fill="#333333"/>
</svg>
