<svg width="42" height="38" viewBox="0 0 42 38" fill="none" xmlns="http://www.w3.org/2000/svg">
<path opacity="0.3" d="M26.4093 0.00292969C26.127 0.00292969 25.8398 0.0794923 25.5767 0.256543L8.61328 11.3438H0.765625C0.344531 11.3438 0 11.6883 0 12.1094V25.8906C0 26.3117 0.344531 26.6562 0.765625 26.6562H8.61328L25.5767 37.7435C25.8398 37.9157 26.1317 37.9971 26.4093 37.9971C27.2084 37.9971 27.9453 37.3606 27.9453 36.461V1.53897C27.9453 0.639356 27.2084 0.00292969 26.4093 0.00292969ZM24.5 32.9248L10.4986 23.7708L9.6373 23.2109H3.44531V14.7891H9.6373L10.4938 14.2292L24.5 5.0752V32.9248ZM41.1523 17.2773H35.0273C34.6063 17.2773 34.2617 17.6219 34.2617 18.043V19.957C34.2617 20.3781 34.6063 20.7227 35.0273 20.7227H41.1523C41.5734 20.7227 41.918 20.3781 41.918 19.957V18.043C41.918 17.6219 41.5734 17.2773 41.1523 17.2773ZM39.1474 29.8049L33.8693 26.7567C33.7826 26.7071 33.687 26.675 33.5879 26.6623C33.4887 26.6496 33.3881 26.6566 33.2917 26.6828C33.1952 26.709 33.1049 26.754 33.0259 26.8151C32.9468 26.8762 32.8806 26.9523 32.831 27.0391L31.8787 28.6899C31.6682 29.0536 31.7926 29.5226 32.1562 29.7331L37.4343 32.7812C37.521 32.8309 37.6166 32.863 37.7158 32.8757C37.8149 32.8884 37.9155 32.8814 38.0119 32.8552C38.1084 32.829 38.1987 32.784 38.2777 32.7229C38.3568 32.6617 38.423 32.5856 38.4727 32.4989L39.4249 30.848C39.6355 30.4844 39.5062 30.0154 39.1474 29.8049ZM32.8262 10.9609C32.8758 11.0477 32.942 11.1238 33.0211 11.1849C33.1001 11.246 33.1905 11.291 33.2869 11.3172C33.3833 11.3434 33.484 11.3504 33.5831 11.3377C33.6822 11.325 33.7778 11.2929 33.8646 11.2433L39.1426 8.19512C39.5062 7.98457 39.6307 7.51562 39.4201 7.15195L38.4727 5.50586C38.423 5.41914 38.3568 5.34304 38.2777 5.28191C38.1987 5.22079 38.1084 5.17583 38.0119 5.14962C37.9155 5.1234 37.8149 5.11644 37.7158 5.12912C37.6166 5.1418 37.521 5.17388 37.4343 5.22354L32.1562 8.27168C31.9815 8.37356 31.8542 8.54049 31.8022 8.73598C31.7502 8.93146 31.7777 9.13959 31.8787 9.31484L32.8262 10.9609Z" fill="#550000"/>
</svg>
