<svg width="26" height="26" viewBox="0 0 26 26" fill="none" xmlns="http://www.w3.org/2000/svg">
<circle cx="13" cy="13" r="13" fill="#F8F3ED"/>
<path d="M9.82755 20.817L9.8063 20.8336L9.78747 20.8574L9.76386 20.8764L9.72379 20.8857L9.573 20.9027L9.32523 20.9716L9.2893 21L9.88912 20.9099L9.90552 20.9053L9.941 20.886L9.93858 20.8648L9.82755 20.817ZM17.992 17.381L17.9614 17.3501L17.9071 17.2074L17.8246 17.0812L17.737 16.9907L17.6781 16.9693L17.6429 16.9338L17.6332 16.8837L17.631 16.7666L17.6216 16.7384L17.5885 16.6791L17.5815 16.655L17.5837 16.6217L17.6122 16.5672L17.6215 16.5363L17.6049 16.2912L17.6073 16.1722L17.6543 16.0886L17.6143 16.0006L17.6215 15.9339L17.6428 15.8696L17.6498 15.791L17.638 15.7484L17.6049 15.6886L17.5979 15.6651L17.5837 15.579L17.5721 15.5389L17.5415 15.4844L17.4324 15.3676L17.4018 15.3175L17.2816 14.975L17.2561 14.9128L17.2631 14.842V14.823L17.2655 14.8062L17.2725 14.7634L17.2797 14.6541L17.3149 14.5254L17.3738 14.39L17.3832 14.3729L17.3999 14.3233L17.402 14.3114L17.3999 14.2304L17.3692 14.1616V14.0879L17.3884 14.0307L17.3908 13.9876L17.379 13.9094V13.8807L17.4072 13.7713L17.4214 13.7402L17.4378 13.7258L17.473 13.7137L17.516 13.6949L17.5584 13.6692L17.5866 13.6408L17.5396 13.6167L17.5442 13.591L17.5843 13.5742L17.6337 13.5885L17.655 13.5696L17.6738 13.5433L17.6762 13.5103L17.655 13.4742L17.6786 13.4696L17.6998 13.4577L17.7162 13.4363L17.7211 13.41L17.7116 13.3889L17.6998 13.384L17.688 13.3815L17.6667 13.3482L17.6385 13.3314L17.502 13.2745L17.4426 13.229L17.4235 13.1721L17.4729 13.1008L17.4541 13.0672L17.4614 13.0342L17.4753 12.9959L17.4729 12.9554L17.4635 12.9126L17.4353 12.87L17.4022 12.827L17.374 12.7815L17.3485 12.6818L17.3321 12.6414L17.2942 12.594L17.0795 12.3797L17.0888 12.3346L17.0652 12.3132L17.0299 12.2962L17.0108 12.2677L17.0086 12.2108L17.0014 12.1702L16.9662 12.1085L16.9351 12.0012L16.9095 11.9657L16.8811 11.9373L16.8671 11.9089L16.8835 11.8753L16.8671 11.856L16.8058 11.8039L16.787 11.7874L16.7703 11.7658L16.7587 11.7419L16.7515 11.7157L16.7469 11.623L16.6309 11.4043L16.6333 11.3756L16.5949 11.2539L16.5901 11.2346L16.5737 11.1823L16.5477 11.0986L16.5124 10.9848L16.4678 10.8418L16.4156 10.6752L16.3568 10.4874L16.2907 10.2755L16.2176 10.0469L16.1418 9.80202L16.0617 9.54515L15.9792 9.27375L15.8917 8.99527L15.8043 8.70972L15.715 8.41953L15.6228 8.1269L15.5331 7.83427L15.4437 7.54363L15.3562 7.25589L15.2691 6.97741L15.1866 6.70864L15.1084 6.44914L15.0329 6.20662L14.9622 5.9758L14.8988 5.76641L14.8392 5.57574L14.7897 5.40965L14.7451 5.26902L14.712 5.15497L14.6838 5.06909L14.6696 5.01679L14.665 5L14.2541 5.04767L13.8457 5.09534L13.4373 5.143L13.0293 5.19041L12.6209 5.23808L12.2105 5.28311L11.8021 5.32814L11.3934 5.37317L10.9855 5.41621L10.5746 5.45899L10.1662 5.50177L9.7578 5.54435L9.34743 5.58713L8.93872 5.62779L8.52835 5.66838L8.11996 5.70878L8.03063 5.71605L8 5.71823L8.03765 5.79897L8.09891 5.9228L8.16961 6.00868L8.25958 6.05853H8.30661V7.7195L8.30444 8.069V8.44262L8.30202 8.8376V9.24931L8.29959 9.67542V10.1132L8.29717 10.5556L8.29257 11.4502V11.8953L8.28772 12.3333V12.7592L8.2853 13.1732L8.28313 13.5656L8.28071 13.9416L8.27828 14.2913L8.27585 14.6127L8.27369 14.9026L8.27126 15.1575L8.26884 15.3739V15.5476L8.26641 15.6785V15.7857L8.31108 16.0832L8.35575 16.3804L8.40042 16.6781L8.44744 16.9753L8.49211 17.2727L8.53722 17.5699L8.62656 18.1651L8.67123 18.4625L8.71826 18.7596L8.76292 19.0575L8.80804 19.355L8.85271 19.6522L8.89973 19.9496L8.98907 20.5445L9.05562 20.5188L9.1121 20.4806L9.1664 20.4757L9.22287 20.5426H9.23927L9.24412 20.5233L9.24872 20.5117L9.25357 20.4995V20.4757L9.32931 20.5043L9.5016 20.5258L9.58455 20.5472L9.56815 20.616L9.57517 20.6472L9.60338 20.6542H9.65066V20.652L9.70713 20.6471L9.71415 20.659L9.72143 20.678L9.7354 20.685L9.76361 20.6614L9.77541 20.6206L9.77784 20.3854L9.75901 20.2521V20.1956L9.77299 20.0859V20.0338L9.77541 20.0054L9.79666 19.9646L9.80151 19.941L9.79188 19.8816V19.8532L9.79915 19.8289L9.82467 19.7912L9.84178 19.7554L9.84873 19.7127L9.84388 19.6483L9.85326 19.5936L9.87451 19.5576L9.88631 19.5245L9.86507 19.4816L9.89812 19.4508L9.91452 19.4101L9.90992 19.3651L9.88625 19.3223L9.9239 19.3269L9.94272 19.3508L9.95217 19.3912L9.95459 19.4386L9.9664 19.4746L9.98765 19.4817L10.0183 19.4793L10.0513 19.4817L10.1151 19.508L10.1506 19.5435L10.2591 19.7767L10.2803 19.8411L10.2755 19.8885L10.2543 19.9289L10.2308 19.9884L10.2166 20.0528V20.1075L10.226 20.1243L10.2497 20.1479L10.2709 20.1812L10.2849 20.2189L10.2921 20.2575L10.3015 20.2906L10.3204 20.3193L10.344 20.345L10.3678 20.3613L10.3939 20.3761L10.4221 20.3856L10.4528 20.388L10.495 20.3856L10.4974 20.3785L10.4904 20.3637L10.5235 20.3164L10.5305 20.2997L10.5423 20.2975L10.5678 20.3211L10.575 20.3425L10.5584 20.4164L10.5559 20.4519L10.5796 20.4874L10.7239 20.5971L10.7686 20.6995L10.6979 20.7611L10.575 20.8115L10.4783 20.8565L10.3675 20.8468L10.3057 20.7994L10.2845 20.8113L10.2729 20.8351L10.2493 20.8517L10.1479 20.8894L10.0886 20.9231L10.0603 20.9586L10.1479 20.9492L10.384 20.8823L10.7213 20.8446L11.0752 20.7539L11.2429 20.6614L11.2994 20.5328L11.2784 20.5496L11.25 20.5615L11.2217 20.5685H11.1911L11.2029 20.5138L11.1887 20.4805L11.1653 20.4496L11.1558 20.3973L11.1722 20.3949L11.1865 20.4138L11.2383 20.4518L11.2572 20.478L11.2618 20.4968L11.2736 20.5092L11.3182 20.5116L11.3793 20.4897L11.4078 20.4472L11.4269 20.4044L11.4646 20.383L11.5304 20.3565L11.5589 20.3139L11.5728 20.2591L11.5965 20.2044L11.7005 20.0757V20.047L11.7218 20.0424L11.689 20.0305L11.6624 20.014L11.639 19.9925L11.6178 19.9685L11.6153 19.9471L11.6342 19.9563L11.6317 19.9541L11.5659 19.8068L11.5517 19.7569L11.5541 19.7426L11.5611 19.7141L11.599 19.6237L11.6106 19.5381L11.6155 19.4259L11.613 19.3785L11.606 19.3455L11.5942 19.3359L11.5705 19.3192L11.337 19.2073L11.2969 19.1816L11.2523 19.1314L11.184 19.0334L11.1648 19.0101L11.0206 18.8955L10.9853 18.8602L10.9523 18.8196L10.938 18.7939L10.931 18.7698V18.7509L10.9335 18.7294L10.9405 18.6964L10.9829 18.5677L10.9853 18.5512L10.9641 18.4038L10.9759 18.3559L11.0982 18.3418L11.5282 18.2941L11.9603 18.2418L12.3895 18.1917L12.8192 18.1419L13.2486 18.0896L13.6808 18.0373L14.1105 17.9823L14.5397 17.93L14.9694 17.8755L15.3994 17.8205L15.8286 17.7661L16.2583 17.7086L16.6875 17.6517L17.115 17.5945L17.5447 17.5349L17.9739 17.478L17.9812 17.4637L17.9952 17.4396L18 17.4139L17.992 17.381Z" fill="#550000"/>
</svg>
