<svg width="26" height="26" viewBox="0 0 26 26" fill="none" xmlns="http://www.w3.org/2000/svg">
<circle cx="13" cy="13" r="13" fill="#F8F3ED"/>
<g clip-path="url(#clip0_917_635)">
<path d="M12.8031 6.01357C12.8488 6.01677 12.999 6.0203 13.0305 6.02186C13.1847 6.02953 13.5317 6.33964 13.6285 6.45312C13.7959 6.43165 14.0717 6.46515 14.1935 6.58101C14.224 6.66187 14.2356 6.88835 14.275 6.91798C14.3494 6.97394 14.7662 6.96735 14.8634 6.98711C15.1217 7.03967 15.2909 7.20079 15.5071 7.31687C15.7845 7.21649 15.9134 7.41428 16.1428 7.48162C16.2011 7.49874 16.3637 7.39856 16.4486 7.39553C16.7623 7.38432 17.2001 7.62558 17.4455 7.80438C17.512 7.85276 17.5783 7.97611 17.5826 8.05019C17.596 8.27493 17.5885 8.52118 17.5832 8.74618C17.5751 9.1032 17.5701 9.46028 17.5683 9.81738L17.575 13.2247L17.5638 14.636C17.5633 14.8461 17.5612 15.059 17.5657 15.269C17.5667 15.3149 17.5675 15.3241 17.597 15.3493C17.7425 15.3895 18.0288 15.1584 18.2533 15.2819C18.4238 15.3758 18.3282 15.6133 18.4901 15.7139C18.5727 15.7652 19.0155 16.2194 19.0568 16.2339C19.1238 16.193 19.0879 16.0547 19.1753 15.941C19.2736 15.8049 19.5279 15.6698 19.6914 15.6272C19.8542 15.5848 20.1342 15.7872 20.2093 15.9171C20.2474 15.983 20.2532 16.029 20.266 16.101C20.4733 16.2335 20.4021 16.2503 20.5552 16.3857C20.6362 16.4575 20.798 16.4841 20.9089 16.6091C21.0458 16.7633 21.1273 16.948 21.2426 17.1182C21.3771 17.3166 21.5369 17.487 21.6855 17.6736C21.7294 17.7288 21.7701 17.8401 21.8044 17.9073C21.8683 18.0322 22.0288 18.0269 22.1496 18.077C22.323 18.1465 22.7461 18.2448 22.8191 18.4187C22.8999 18.6264 22.9871 18.908 22.9563 19.1312C22.9224 19.3776 22.823 19.6214 22.5834 19.7433C22.2785 19.8983 22.1632 19.4441 22.0758 19.4143C22.0095 19.4885 22.2417 19.8945 21.6827 19.8688C21.6017 19.9189 21.5213 19.9712 21.42 19.9544C21.2222 19.9214 21.0888 19.6377 20.9787 19.4807C20.6315 19.3758 20.6864 19.2236 20.7613 18.9466C20.561 18.9621 20.6079 18.9263 20.4602 18.8717C20.202 18.7926 20.0777 18.622 19.967 18.3987C19.8772 18.2177 19.8091 18.2079 19.6394 18.1266C19.542 18.0799 19.5498 17.8072 19.4989 17.7183C19.3608 17.4766 19.2342 17.4897 19.1856 17.1946C19.0956 17.132 18.9856 17.0606 18.8996 16.9923C18.7953 16.9094 18.6856 16.7714 18.567 16.7016C18.3083 16.5494 17.9745 16.4189 17.751 16.2235C17.7137 16.1909 17.7104 16.1564 17.7148 16.1121L17.716 16.1002C17.6802 16.0831 17.5853 16.1257 17.4963 16.1095C17.2463 16.0639 16.9882 15.9145 16.7592 15.8643C16.5611 15.8209 16.2935 15.892 16.0671 15.8268C15.7804 15.7442 15.6289 15.5774 15.3496 15.4776C15.3044 15.5033 15.0505 15.6551 15.0079 15.6458C14.8637 15.6142 14.8665 15.6245 14.7703 15.73C14.6586 15.8524 14.5451 16.0013 14.3524 15.9506C14.25 15.9236 14.2216 15.8582 14.1631 15.781C14.1092 15.762 14.1112 15.781 14.0524 15.7813C13.9573 15.7817 13.8852 15.7149 13.8218 15.6564C13.515 15.8117 13.3162 16.2135 12.8887 16.1923C12.4939 16.1728 12.3454 16.1824 12.3546 15.754C12.3821 15.7093 12.4263 15.6615 12.4657 15.6257C12.4919 15.5429 12.5155 15.4974 12.5408 15.4041C12.3078 15.7409 12.1735 15.5713 11.8433 15.8299C12.0631 15.9671 12.1088 16.1436 11.9656 16.3568C12.0488 16.2998 12.1786 16.1983 12.2786 16.2163C12.4226 16.2101 12.4406 16.4171 12.4656 16.4339C12.6541 16.5194 12.6303 16.7922 12.4756 16.8733C12.1077 17.066 12.4746 17.1552 12.4271 17.3561C12.4017 17.4639 11.9983 17.6514 11.8653 17.7218C11.2845 18.0849 10.9135 18.0924 10.8114 17.3651C10.8085 17.3446 10.7887 17.1641 10.7917 17.1709C10.6706 17.2 10.3548 17.3911 10.1861 17.4511C9.90618 17.5509 9.68712 17.5549 9.41811 17.6711C9.41883 17.6877 9.41947 17.7219 9.41643 17.7367C9.39529 17.8397 9.19933 18.0555 9.11678 18.1123C8.99475 18.1171 8.89787 18.0849 8.77164 18.0523C8.60495 18.0093 8.6118 18.1079 8.51475 18.2037C8.49417 18.2241 8.43927 18.257 8.41384 18.2721C8.38157 18.5076 8.30723 18.6565 8.01309 18.6598C7.85698 18.6616 7.66876 18.4973 7.56544 18.3975C7.48985 18.3246 7.47131 18.2641 7.47362 18.1634C7.42567 18.1443 7.31778 18.2344 7.2651 18.2571C7.14495 18.3087 6.99996 18.2781 6.88148 18.3162C6.74092 18.3675 6.61862 18.4577 6.46716 18.479C6.22566 18.5129 6.06926 18.2709 5.84964 18.4377C5.82529 18.4561 5.76614 18.4733 5.73323 18.4809L5.7188 18.4843C5.45343 18.4044 5.2873 18.2285 5.44482 17.9527C5.53841 17.7889 5.91722 17.7427 6.08703 17.7718C6.50097 17.8464 6.63029 17.7615 6.94862 17.5487C7.17319 17.3986 7.69822 17.2887 7.94164 17.4424C7.9668 17.4121 7.99509 17.3782 8.02367 17.3512C8.08584 17.2927 8.15799 17.2447 8.23702 17.2092C8.3668 17.152 8.83483 17.0531 8.97437 17.0535C9.10536 16.7774 9.19016 16.7464 9.48699 16.6638C9.57635 16.4968 9.70431 16.2509 9.80776 16.097L9.62141 16.0568C9.51837 16.1915 9.39322 16.2108 9.22551 16.1555C9.10378 16.1154 9.08812 15.9131 9.04793 15.8031L9.0442 15.793C8.86439 15.742 8.82419 15.7111 8.71543 15.5629C8.45944 15.6023 8.30112 15.7512 8.03746 15.6363C7.77198 15.5206 7.97344 15.3479 8.04286 15.201L8.04898 15.1878C8.03743 14.9217 7.91545 14.8874 8.23272 14.7132C8.20396 14.6315 8.19823 14.6102 8.19826 14.5239C7.99722 14.5187 7.75707 14.5724 7.57484 14.5141C7.28627 14.4219 7.32993 14.1092 7.19274 13.8387C7.11588 13.9858 7.09821 14.1355 6.90669 14.1746C6.7858 14.1993 6.56793 14.1745 6.47073 14.1013C6.18767 13.888 5.93928 13.6231 6.16879 13.2799C6.18384 13.2766 6.22435 13.2693 6.23575 13.2663C6.35457 13.235 7.0017 13.4001 7.07015 13.4468C7.13575 13.3955 7.20803 13.344 7.27501 13.293C7.06482 13.0799 7.05406 12.8376 7.13913 12.5684C7.26186 12.1802 7.6063 12.1407 7.87978 11.9091C7.99438 11.7757 8.06559 11.5658 8.25219 11.4962C8.50664 11.4014 8.79758 11.4608 8.92092 11.723C9.12418 11.5455 9.27988 11.4239 9.54246 11.5943C9.60782 11.5573 9.6437 11.5364 9.71497 11.5095C9.77507 11.3331 9.77704 11.1512 9.85455 10.9853C9.42292 11.1535 9.32025 11.0244 8.9361 10.8926C8.802 10.8569 8.66587 10.8867 8.53146 10.8423C8.04875 10.6829 7.90123 10.3335 8.04954 9.88571C7.85277 9.67289 7.80604 9.57307 7.69076 9.31422C7.71443 9.24345 7.77897 9.12647 7.85742 9.10022C8.1376 8.98865 8.59982 9.08159 8.86827 8.99342C9.24409 8.87 10.0976 8.86577 9.72518 9.46518C9.8115 9.493 9.95963 9.56317 10.0387 9.57743C10.0532 9.55929 10.033 9.52908 10.0195 9.50183C9.95609 9.37334 9.92493 9.26802 9.92358 9.12467C9.86896 9.0621 9.79535 9.02417 9.72437 8.97312C9.5591 8.85683 9.64853 8.64101 9.62086 8.47292C9.58081 8.22957 9.37395 8.02178 9.24921 7.81165C9.19196 7.71536 9.0998 7.62267 9.09171 7.50675C9.07958 7.33308 9.27128 7.26542 9.38397 7.19846C9.64501 7.04339 9.80484 7.12039 10.0748 7.17745C10.1412 7.19148 10.2621 7.18564 10.3362 7.18371C10.45 7.08129 10.6076 6.94804 10.657 6.80613C10.7203 6.62428 10.8757 6.53516 11.0463 6.45442C11.2002 6.38164 11.3002 6.40838 11.4499 6.46083C11.5488 6.41006 11.979 6.20309 12.0612 6.22265C12.2121 6.25857 12.2832 6.28297 12.4762 6.28007C12.6315 6.20409 12.6974 6.0482 12.8031 6.01357Z" fill="#550000"/>
<path d="M12.8326 6.14045C12.9081 6.13507 12.9742 6.13778 13.0495 6.13989C13.2047 6.2454 13.4042 6.37361 13.514 6.51904C13.5737 6.59801 13.516 6.58928 13.5491 6.6292L13.5596 6.62505C13.7175 6.5626 13.87 6.55956 14.0388 6.61639C14.1314 6.64761 14.0998 6.86345 14.1421 6.94482C14.194 7.04425 14.2844 7.0528 14.3908 7.06847C14.7595 7.10684 14.894 7.05407 15.2125 7.27934C15.2665 7.31752 15.4529 7.43723 15.5185 7.46105L15.642 7.39686C15.8367 7.45534 15.9873 7.56452 16.153 7.6122C16.2617 7.58539 16.4579 7.48382 16.561 7.51C16.7866 7.56654 17.0053 7.68145 17.2084 7.79032C17.2726 7.82476 17.4021 7.91147 17.4302 7.97911C17.4408 8.00484 17.4516 8.11044 17.4518 8.14089C17.4549 8.53844 17.4526 8.93616 17.4526 9.33378L17.4424 12.0461C17.4416 12.4497 17.4625 12.855 17.4506 13.2583C17.4463 13.4049 17.4348 13.5512 17.4314 13.6979C17.4266 13.9096 17.4115 15.3144 17.4442 15.3997C17.5227 15.6037 18.0281 15.3121 18.1914 15.3904C18.3 15.4425 18.2408 15.6042 18.3004 15.6934C18.4763 15.9567 18.8613 16.0944 18.9578 16.412C19.4503 16.2169 19.0523 16.048 19.4775 15.8585C19.567 15.8186 19.6569 15.7661 19.7383 15.7154C19.8294 15.768 20.0818 15.901 20.1036 15.9809C20.1557 16.1717 20.154 16.1867 20.3325 16.3047C20.3592 16.3224 20.4085 16.4528 20.4663 16.4888C20.5782 16.5586 20.7111 16.5799 20.8012 16.6773C20.8879 16.7704 20.9483 16.8848 21.0142 16.9919C21.0848 17.1132 21.1691 17.2324 21.2486 17.3474C21.3841 17.5436 21.5913 17.6971 21.6698 17.9246C21.6857 17.9706 21.7139 18.0201 21.7397 18.0627C21.8154 18.098 21.8621 18.1054 21.9405 18.1333C22.1725 18.2166 22.4282 18.2852 22.644 18.4007C22.732 18.4594 22.7496 18.6113 22.7762 18.6936C22.8572 18.9562 22.8512 19.1015 22.7589 19.3695C22.7037 19.5298 22.5019 19.78 22.3227 19.5552C22.2618 19.4789 22.2729 19.403 22.1656 19.3191C22.0427 19.2232 21.9522 19.1859 21.8115 19.1227C21.8926 19.2438 22.0839 19.7277 21.787 19.7685C21.7456 19.7742 21.5692 19.6084 21.5234 19.5699C21.5652 19.6328 21.6407 19.7155 21.5813 19.7868C21.3633 20.0437 21.1697 19.4618 21.0777 19.4056C20.8999 19.2972 20.6805 19.3065 20.9331 19.0125C20.8267 18.908 20.8332 18.8889 20.826 18.7464C20.772 18.7186 20.5691 19.0591 20.5091 18.5198C20.4999 18.5973 20.505 18.6899 20.4197 18.7235C20.2397 18.7244 20.0372 18.2262 19.9059 18.1083L19.8963 18.0998C19.8206 18.0828 19.7843 18.0715 19.7117 18.0444C19.6218 17.8171 19.6878 17.6419 19.4273 17.4293C19.317 17.3395 19.3135 17.2428 19.3151 17.1163C19.2108 17.0567 19.0728 16.981 18.9824 16.9053C18.8689 16.8102 18.7806 16.6839 18.6506 16.6085C18.4894 16.5151 17.936 16.2654 17.8499 16.1371C17.8386 16.0642 17.9007 15.9414 17.9309 15.8692C17.8407 15.9096 17.6518 15.9757 17.5577 16.0066C17.278 15.9282 17.0138 15.8109 16.7375 15.7403C16.5491 15.6922 16.2744 15.7648 16.0749 15.7044C15.7544 15.6073 15.6275 15.3744 15.2684 15.3824C15.189 15.4298 15.0837 15.503 14.9945 15.5169C14.9432 15.5081 14.935 15.4801 14.89 15.4556C14.7603 15.5126 14.6315 15.7586 14.4922 15.8233C14.3278 15.8995 14.2698 15.7145 14.2262 15.6059C13.9182 15.7284 13.952 15.565 13.8432 15.5527C13.6419 15.53 13.3631 15.9251 13.157 16.0135C12.9543 16.1003 12.7404 16.0908 12.5251 16.0305C12.4775 15.9166 12.4864 15.8758 12.4906 15.7541C12.554 15.7329 12.753 15.7052 12.8289 15.693C12.7697 15.6733 12.6817 15.6464 12.635 15.6104C12.5703 15.4906 12.82 15.2023 12.8648 15.0795C12.8997 14.984 12.9122 14.89 12.934 14.7916C13.0301 14.7014 13.3236 14.5434 13.4596 14.5845C13.491 14.5941 13.5594 14.7079 13.6294 14.6398L13.6215 14.6125C13.5831 14.5703 13.5588 14.5542 13.4987 14.5493C13.0147 14.5095 12.7018 14.8961 12.4857 15.2553C12.4396 15.3319 12.3782 15.4242 12.3039 15.4833C12.2377 15.5199 12.1472 15.5444 12.0727 15.5719C11.9653 15.6065 11.8622 15.666 11.776 15.7284C11.5608 15.8841 11.7519 15.898 11.8683 16.0054C11.8977 16.0325 11.9151 16.0906 11.928 16.1331C11.8447 16.4822 11.3643 16.7111 11.0645 16.8812C10.7557 17.0565 10.4213 17.2173 10.0946 17.3604C9.95603 17.4212 9.74678 17.4313 9.59843 17.4765C9.4707 17.515 9.34628 17.5689 9.22314 17.6189L9.3174 17.7198C9.24523 17.792 9.13381 17.9305 9.07075 17.996C9.05561 18.0117 8.73301 17.9176 8.66277 17.9276C8.6146 17.9345 8.60153 17.9312 8.52767 17.9526C8.51147 17.9913 8.48534 18.065 8.45269 18.09C8.29019 18.2144 8.24098 18.0959 8.26792 17.9538C8.17025 17.9984 8.03097 18.0388 7.92539 18.0724C7.9618 18.1168 7.98794 18.1438 8.03654 18.1773C8.0831 18.2125 8.25871 18.2401 8.27295 18.2957C8.32435 18.4967 8.04908 18.5822 7.90087 18.5283C7.87127 18.4918 7.89367 18.4862 7.87969 18.426C7.82518 18.3915 7.80896 18.4056 7.75462 18.3915C7.68236 18.3726 7.61113 18.2497 7.57564 18.1907C7.60783 18.166 7.63975 18.1411 7.67142 18.1159C7.63943 18.0957 7.60903 18.0776 7.5736 18.0633C7.5253 18.0438 7.47183 18.0389 7.42058 18.0498C7.3406 18.0661 7.23295 18.1461 7.13562 18.1663C7.03913 18.1861 6.92356 18.1636 6.83826 18.1962C6.70944 18.2454 6.64489 18.3246 6.49752 18.3469C6.29937 18.3857 6.11808 18.2295 5.9292 18.2674C5.83375 18.2865 5.76251 18.3952 5.64339 18.3333C5.53381 18.2764 5.45885 18.1599 5.53286 18.0456C5.62269 17.9068 5.84524 17.8714 6.0021 17.8776C6.10532 17.8834 6.2079 17.9136 6.31186 17.9161C6.42698 17.9202 6.47742 17.9085 6.58324 17.8843C6.79798 17.8352 6.87458 17.7421 7.04809 17.6389C7.14807 17.5795 7.37842 17.5207 7.49666 17.4885C7.7153 17.429 7.80016 17.5032 7.97907 17.6041C8.05018 17.5258 8.10557 17.4194 8.20854 17.3618C8.39864 17.2553 8.86247 17.1499 9.07548 17.1943C9.178 16.7033 9.42293 16.9234 9.59254 16.713C9.6562 16.6341 9.70037 16.539 9.74815 16.4508C9.85687 16.2501 9.95242 16.0843 10.1124 15.9165C9.98708 15.9226 9.83046 15.9692 9.71047 15.9515C9.64634 15.9421 9.64805 15.7745 9.56529 15.746C9.47193 15.7931 9.57512 16.1997 9.28332 16.0556C9.20034 16.0146 9.15257 15.7308 9.12806 15.6271L9.01418 15.6666C8.85392 15.6096 8.87228 15.5027 8.81127 15.4812C8.47177 15.3615 8.36113 15.7067 8.00037 15.4804C8.11819 15.3572 8.20689 15.2442 8.16498 15.0699C8.11744 14.8722 8.18422 14.8855 8.34872 14.7859C8.33268 14.6661 8.32609 14.479 8.34322 14.3596C8.22381 14.407 8.13452 14.4135 8.01238 14.4163C7.75051 14.4224 7.48842 14.4672 7.4311 14.1486C7.41688 14.0696 7.37476 13.9391 7.34314 13.8655C7.30418 13.7748 7.21095 13.6799 7.19381 13.5767C7.16936 13.4482 7.3096 13.4533 7.37242 13.3763C7.45778 13.2289 7.21861 13.1159 7.2123 12.9233C7.19698 12.8205 7.22431 12.7255 7.25074 12.6291C7.34134 12.2983 7.68303 12.2205 7.93411 12.0361C8.01246 11.9785 8.08449 11.8106 8.15653 11.7291C8.33047 11.5321 8.56652 11.5271 8.76807 11.6922C8.78326 11.7503 8.80132 11.8462 8.87803 11.8498C9.00615 11.8559 9.12516 11.6804 9.24225 11.6477C9.36221 11.6142 9.49526 11.6977 9.59153 11.7472C9.61839 11.7109 9.64296 11.6677 9.68276 11.6498C9.7253 11.6452 9.7628 11.6669 9.80384 11.6843C9.86747 11.5113 9.87634 11.3235 9.93139 11.1478C9.95873 11.0605 10.0332 10.9779 10.0501 10.9158C10.0563 10.893 10.0512 10.8747 10.0353 10.8562C9.9837 10.7959 9.59721 10.9499 9.50023 10.9542C9.33396 10.9618 9.18477 10.845 9.03186 10.7969C8.92731 10.764 8.81883 10.7577 8.71022 10.7482C8.52572 10.7321 8.34796 10.6631 8.22807 10.522C8.04406 10.3056 8.15596 10.0659 8.18113 9.82112C8.04979 9.70774 7.62476 9.2571 7.98803 9.19348C8.22618 9.15178 8.55555 9.14882 8.80077 9.16812C8.87253 9.17377 8.88341 9.1015 8.91319 9.09608C9.18596 9.04636 9.52335 8.96429 9.71784 9.20955C9.66564 9.30723 9.61483 9.39262 9.5652 9.49337C9.5753 9.50167 9.58565 9.50968 9.59625 9.51739C9.69372 9.58936 10.1356 9.76705 10.236 9.75435C10.2711 9.73424 10.2595 9.74572 10.2788 9.70964C10.2709 9.6406 10.1041 9.44143 10.0721 9.335C10.0395 9.22637 10.0568 9.10884 10.0008 9.02037C9.96011 8.95609 9.79229 8.90725 9.76524 8.8295C9.7225 8.7066 9.79519 8.52124 9.74148 8.39023C9.6125 8.07561 9.35804 7.78446 9.19343 7.48589C9.31958 7.35218 9.58445 7.18622 9.7764 7.23509C10.0406 7.30235 10.137 7.33845 10.4191 7.27228C10.6115 7.10707 10.7067 7.02484 10.8041 6.79547C10.8557 6.6739 11.102 6.5356 11.2319 6.53161C11.3027 6.52944 11.4181 6.6081 11.4973 6.57123C11.7048 6.50153 11.8359 6.39258 12.0508 6.33558C12.3128 6.41239 12.4896 6.47128 12.7079 6.26269C12.7497 6.22274 12.7777 6.18339 12.8241 6.14702L12.8326 6.14045Z" fill="#550000"/>
<path d="M12.2247 16.3244C12.2731 16.3281 12.2799 16.3297 12.3067 16.3656C12.3175 16.4119 12.2977 16.4626 12.2848 16.5099C12.3451 16.527 12.4971 16.5757 12.476 16.6383C12.3865 16.9025 12.1658 16.7676 12.1752 17.1099C12.1938 17.1345 12.3339 17.3112 12.3042 17.3315C12.0361 17.5145 11.7235 17.6579 11.4375 17.8187C11.4117 17.8333 11.3633 17.8466 11.3336 17.8548C10.935 17.837 10.9685 17.5134 10.9149 17.2102C11.0502 17.0239 11.3418 16.9215 11.5355 16.7922C11.7666 16.638 11.9944 16.4799 12.2247 16.3244Z" fill="#550000"/>
<path d="M6.23963 13.3868C6.35449 13.3859 6.59308 13.428 6.70714 13.4555C6.88538 13.4985 7.00762 13.5092 7.1083 13.6622C7.07563 13.7944 7.03372 13.8807 6.97802 14.0055C6.95217 14.0716 6.82445 14.0678 6.76285 14.0651C6.59995 14.0578 6.51593 13.9938 6.40759 13.8865C6.25012 13.7306 6.14678 13.6096 6.23963 13.3868Z" fill="#550000"/>
<path d="M5.99924 9.94346C6.18596 9.95266 6.23614 10.1423 6.32853 10.2781C6.41231 10.2967 6.55694 10.3214 6.61864 10.3758C6.74402 10.4909 6.80261 10.6636 6.8619 10.8158C6.96854 11.0897 6.88198 11.235 6.57211 11.2397C6.42084 11.2149 6.29328 11.1946 6.22338 11.0428C6.18248 10.954 6.13358 10.8247 6.05476 10.7582C5.99208 10.7053 5.82897 10.7343 5.76544 10.6849C5.5165 10.4915 5.72824 9.98828 5.99924 9.94346Z" fill="#550000"/>
<path d="M6.0116 10.0558C6.08968 10.0816 6.11823 10.1896 6.15615 10.2591C6.28627 10.4977 6.5414 10.3164 6.64049 10.6312C6.67484 10.7403 6.81948 10.9491 6.77266 11.0691C6.72428 11.1142 6.65319 11.1097 6.58589 11.113C6.23724 11.1035 6.34997 10.8279 6.12839 10.6588C6.02305 10.5784 5.90091 10.6441 5.82006 10.5726C5.73041 10.3667 5.8359 10.1794 6.0116 10.0558Z" fill="#550000"/>
<path d="M4.27026 12.026C4.44789 12.0223 4.47944 12.1235 4.5491 12.246C4.68437 12.4841 4.85084 12.6614 4.47464 12.8109C4.28427 12.8447 4.07431 12.5319 4.04602 12.3763C4.0124 12.1914 4.05371 12.055 4.27026 12.026Z" fill="#550000"/>
<path d="M4.24054 12.1404C4.40647 12.137 4.51387 12.4408 4.59339 12.5754C4.55233 12.6237 4.53033 12.6413 4.48022 12.6821C4.4616 12.6952 4.45586 12.6942 4.43317 12.6982C4.27975 12.6445 4.03917 12.2875 4.24054 12.1404Z" fill="#550000"/>
</g>
<defs>
<clipPath id="clip0_917_635">
<rect width="19" height="14" fill="white" transform="translate(4 6)"/>
</clipPath>
</defs>
</svg>
