<svg width="26" height="26" viewBox="0 0 26 26" fill="none" xmlns="http://www.w3.org/2000/svg">
<circle cx="13" cy="13" r="13" fill="#F8F3ED"/>
<path d="M17.8484 9.78627L17.8185 10.1637L17.7871 10.5408L17.7574 10.9182L17.7262 11.2953L17.6966 11.6739L17.665 12.051L17.6353 12.4282L17.6054 12.8071L17.5742 13.1842L17.5429 13.5628L17.5133 13.9402L17.4833 14.3173L17.4521 14.6959L17.4207 15.073L17.3911 15.4521L17.3614 15.8307L17.33 16.2078L17.3004 16.5864L17.2691 16.9638L17.2392 17.3425L17.208 17.7211L17.1783 18.0983L17.1471 18.477L17.1171 18.8556L17.0858 19.2328L17.0561 19.6117L17.0247 19.9904V19.992V19.9935V19.9951V19.9967V19.9984V20L16.984 19.9968L16.9071 19.9904L16.8304 19.9841L16.7537 19.9778L16.6768 19.9714L16.6001 19.9651L16.5224 19.9596L16.4459 19.9533L16.3688 19.9468L16.2923 19.9388L16.2152 19.9323L16.1387 19.9261L16.0618 19.9198L15.9851 19.9133L15.9082 19.9056L15.8315 19.8993L15.7547 19.8913L15.6778 19.885L15.6011 19.8786L15.5244 19.8707L15.4475 19.8643L15.3708 19.858L15.2939 19.8497L15.2173 19.8432L15.1405 19.8353L15.0637 19.829L14.9868 19.821L14.9101 19.8147L14.8334 19.8067L14.7565 19.8004L14.6812 19.7924L14.6029 19.7861L14.5278 19.7781L14.4509 19.7702L14.3742 19.7638L14.2975 19.7557L14.2206 19.7478L14.1439 19.7415L14.067 19.7335L13.9902 19.7256L13.9135 19.7176L13.8366 19.7113L13.7599 19.7033L13.6832 19.6955L13.6063 19.6875L13.503 19.6778L13.3963 19.6524L13.3494 19.6285L13.26 19.5839L13.1708 19.5395L13.083 19.4947L12.9936 19.4487L12.9044 19.4041L12.8166 19.3596L12.7272 19.315L12.6394 19.2689L11.9345 18.9203L11.234 18.5702L10.5336 18.2152L9.8362 17.8603L9.14055 17.5006L8.44778 17.1394L7.75839 16.7765L7.07045 16.4103L7.00784 16.3768L7 16.3722L7.025 16.3516L7.06117 16.2671L7.06884 16.2225L7.05956 16.1765L7.09561 16.124L7.1065 16.1111L7.152 16.0795L7.16772 16.0668L7.19271 16.0333L7.21161 15.9983L7.23194 15.9474L7.24283 15.9204L7.3165 15.8804L7.49527 15.9425L7.57199 15.9362L7.59233 15.906L7.60017 15.8677L7.60322 15.8296L7.61427 15.793L7.64088 15.7675L7.71289 15.731L7.73645 15.7055L7.74734 15.6609L7.73645 15.5208L7.74268 15.4936L7.7489 15.4746L7.75212 15.454L7.7489 15.4254L7.7098 15.3473L7.65325 15.3042L7.49515 15.2709L7.42914 15.2343L7.38678 15.1515L7.4025 15.0783L7.43855 15.002L7.46049 14.9112L7.45888 14.7871L7.45121 14.757L7.40411 14.6854V14.6535L7.4291 14.5961L7.45266 14.5772L7.4621 14.5596L7.45427 14.5357L7.44321 14.5167L7.42766 14.4865L7.42287 14.461L7.44177 14.4514L7.52794 14.4578L7.57326 14.4499L7.60788 14.4307L7.68782 14.3146L7.71137 14.2653L7.7317 14.2461L7.77081 14.2144L7.79898 14.1872L7.80682 14.1729L7.81626 14.1459L7.81304 14.098L7.81783 14.0696L7.83338 14.06L7.84121 14.0504L7.846 14.0266L7.85066 13.9804L7.86477 13.9294L7.88832 13.9023L7.91188 13.8802L7.92742 13.8516L7.91332 13.8101L7.90866 13.7862L7.91954 13.7768L7.92738 13.7656L7.93217 13.7416L7.93378 13.7162L7.92899 13.7036L7.91027 13.678L7.91188 13.6255L7.9181 13.5713V13.5396L7.95416 13.5173L7.9697 13.5001V13.4809L7.94166 13.4347L7.9306 13.4093L7.92738 13.3837L7.94467 13.3377L7.97606 13.3119L8.05117 13.2754L8.08256 13.2501L8.11556 13.2196L8.14055 13.1816L8.16572 13.0924L8.1891 13.0558L8.2205 13.0287L8.28633 13.0176L8.48061 12.9124L8.51505 12.9078L8.57927 12.8426L8.64511 12.7916L8.70471 12.7565L8.72344 12.7294L8.71878 12.6832L8.722 12.6546L8.67171 12.6102L8.65476 12.5847L8.63905 12.5687L8.61083 12.5481L8.48078 12.4223L8.45883 12.3873L8.451 12.3793L8.41977 12.3507L8.41338 12.3426L8.40088 12.3254L8.39461 12.3191L8.38838 12.3158L8.38055 12.3127L8.35699 12.3094L8.34754 12.3047L8.33971 12.2936L8.33348 12.2793L8.33204 12.2521V12.2331L8.33348 12.2315L8.34619 12.1996L8.35869 12.1711L8.34458 12.1472L8.34136 12.1455L8.33831 12.101L8.32259 12.077L8.30226 12.0564L8.28497 12.0182V12.0039L8.29442 11.9546V11.937L8.28819 11.9259L8.28192 11.9162L8.20037 11.6666L8.15487 11.6523L8.12204 11.6253L8.10476 11.5823L8.10955 11.5218L8.10633 11.4947L8.09688 11.4598L8.08116 11.4277L8.05761 11.4119L8.03261 11.3992L8.02317 11.3721L8.03727 11.1207L8.03888 11.1048L8.04049 11.0809L8.03266 11.0091L8.07959 10.9614L8.08904 10.9408L8.08599 10.9122L8.05939 10.8691L8.05299 10.8483L8.06244 10.8197L8.08116 10.8149L8.10472 10.818L8.12971 10.8149L8.15182 10.8086L8.15949 10.8023L8.18627 10.7195L8.1941 10.6748L8.19571 10.589L8.18627 10.4839L8.18932 10.4299L8.19876 10.3725L8.18932 10.32L8.15021 10.2023L8.13132 10.0956L8.11437 10.0081L8.16292 9.90915L8.16453 9.81527L8.18487 9.77224L8.17703 9.73563L8.1378 9.57325L8.13475 9.53022L8.1378 9.47132L8.15509 9.35356L8.16758 9.32344L8.2052 9.274L8.21465 9.25008V9.22616L8.20681 9.2055L8.15043 9.1084L8.13153 9.05586L8.12225 8.99713L8.12691 8.93823L8.15975 8.91108L8.1708 8.88879L8.17385 8.86487L8.17546 8.81573L8.17868 8.79181L8.18334 8.77426L8.18957 8.7663L8.20368 8.75033L8.21151 8.74401L8.21935 8.73751L8.2804 8.7185L8.33996 8.69148L8.44163 8.67878L8.46997 8.67082L8.48391 8.66919L8.49976 8.67246L8.58736 8.71213L8.59359 8.71686L8.60143 8.72319L8.61393 8.73588L8.62964 8.75033L8.65159 8.76156L8.66569 8.76466L8.6784 8.7663H8.68929L8.70018 8.76303L8.74729 8.74237L8.75673 8.73911L8.76762 8.73747H8.79117L8.80206 8.74087L8.81634 8.74883L8.83045 8.75989L8.84599 8.78217L8.86027 8.80446L8.86955 8.82675L8.89772 8.919L8.91043 8.94602L8.92737 8.97644L8.95555 9.00815L8.99321 9.03043L9.03557 9.03839L9.12174 9.03512L9.18435 9.00974L9.22197 8.92059L9.25497 8.84413L9.28158 8.78054L9.31919 8.74229L9.35986 8.69926L9.36609 8.67861L9.37088 8.65796L9.38177 8.56881L9.38499 8.55125L9.39121 8.50195L9.40066 8.42385L9.41316 8.32365L9.42883 8.20425L9.44438 8.07216L9.46327 7.93065L9.482 7.78436L9.50089 7.63777L9.51784 7.49609L9.53512 7.36417L9.5508 7.24477L9.56329 7.14439L9.57274 7.06665L9.57897 7.01721L9.58202 7L9.84374 7.03498L10.1071 7.0685L10.3686 7.10184L10.632 7.13355L10.8937 7.16707L11.1568 7.19895L11.4202 7.23083L11.6819 7.26254L11.9451 7.29266L12.2084 7.32278L12.4716 7.3529L12.7333 7.38332L12.9966 7.41344L13.2598 7.44192L13.5231 7.47057L13.7863 7.49919L14.0496 7.52634L14.3113 7.55512L14.5745 7.58214L14.8378 7.60916L15.1026 7.63618L15.3659 7.66157L15.6291 7.68712L15.8924 7.71251L16.1556 7.73832L16.4189 7.76207L16.6821 7.786L16.9454 7.80975L17.2102 7.83367L17.4735 7.85759L17.7367 7.87988L18 7.90199L17.9703 8.27778L17.9407 8.65486L17.9095 9.03211L17.8781 9.40919L17.8484 9.78627Z" fill="#550000"/>
</svg>
