<svg width="26" height="26" viewBox="0 0 26 26" fill="none" xmlns="http://www.w3.org/2000/svg">
<circle cx="13" cy="13" r="13" fill="#F8F3ED"/>
<path d="M19.8124 7.62785L19.8097 7.65431L19.8721 7.73762L19.9515 7.80798L20 7.90987L19.9847 7.97783L19.9411 7.96988L19.8539 7.91226L19.7915 7.92535L19.7429 7.95673L19.7044 8.00598L19.6836 8.07121L19.7606 8.09992L19.8405 8.14959L19.8715 8.2094L19.7067 8.37623L19.2957 8.6059L19.2594 8.65515L19.265 8.71742L19.3135 8.79609L19.4008 8.89249L19.4032 8.93674L19.3596 8.99655L19.316 9.04109L19.3007 9.07494L19.316 9.11427L19.3645 9.17682L19.4108 9.25739L19.3852 9.3046L19.3236 9.3281L19.2539 9.34365L19.1872 9.36962L19.1562 9.40895L19.1486 9.46876L19.1562 9.55728L19.1459 9.61765L19.1177 9.67774L19.0792 9.73234L18.9405 9.87307L18.9096 9.93041L18.9044 10.014L18.9224 10.1732L18.9405 10.2407L19.0129 10.4103L19.0538 10.5539L19.064 10.6946L19.0129 10.7886H18.9531L18.8761 10.7755L18.8067 10.7834L18.7836 10.8462V10.9165L18.7709 10.9764L18.745 11.0337L18.7065 11.0807L18.6086 11.1514L18.5445 11.1853L18.4906 11.2008L18.4624 11.2295L18.4879 11.2686L18.4982 11.2841L18.5959 11.3833L18.6035 11.5294L18.5189 11.6572L18.3927 11.7563L18.0867 11.9101L18.0589 11.9593L18.0776 12.0169L18.1167 12.0849L18.1347 12.1474L18.0984 12.1971L18.0752 12.2309L18.0163 12.2542L17.9519 12.2569L17.8957 12.2257L17.8597 12.2413L17.8263 12.3145L17.7873 12.442L17.7747 12.5906L17.8468 12.8279L17.8416 13.1253L17.8519 13.248L17.8393 13.3496L17.7539 13.4591L17.6541 13.5271L17.5923 13.5578L17.4739 13.5813H17.4406L17.4174 13.571L17.3789 13.5448L17.3687 13.5659V13.5971L17.384 13.6468L17.4147 13.7093L17.4225 13.7536L17.4147 13.7825L17.3813 13.85L17.3738 13.8866L17.3636 13.9024L17.3353 13.8997L17.2868 13.8814L17.2477 13.8866L17.2297 13.8942L17.2195 13.9154L17.1293 14.1811L17.096 14.2125L17.0524 14.2333L16.9159 14.3349L16.8826 14.3742L16.8928 14.4731L17.1089 14.5594L17.1269 14.6921L17.0936 14.7574L17.0499 14.7888L16.9934 14.8019L16.9261 14.8071L16.862 14.8226L16.7081 14.9193L16.5589 14.9663L16.5358 14.9923L16.5511 15.0415L16.5817 15.0626L16.6202 15.0757L16.6614 15.094L16.7158 15.1877L16.6823 15.2734L16.6331 15.3572L16.6614 15.4769L16.6977 15.529L16.7209 15.5943L16.6902 15.6727L16.6614 15.6855L16.5844 15.6958L16.5535 15.7062L16.5257 15.7297L16.4716 15.7977L16.4539 15.8108L16.4307 15.8368L16.3301 16.0006L16.2789 16.0429L16.2377 16.0716L16.2326 16.1057L16.2942 16.1603L16.4178 16.2095L16.4663 16.2513L16.4843 16.3401L16.4635 16.413L16.4173 16.452L16.3554 16.4703L16.286 16.4755L16.2424 16.5042L16.2605 16.5618L16.309 16.6164L16.3575 16.6371L16.4119 16.653L16.4735 16.6972L16.5788 16.7909L16.5863 16.8537L16.5966 16.9529V17.0569L16.5863 17.1249L16.4889 17.2789L16.4633 17.357L16.5094 17.4223L16.5427 17.4248L16.6328 17.451L16.6744 17.4791L16.6952 17.5209L16.7106 17.6957L16.7515 17.8104L16.7644 17.868L16.7515 17.933L16.7157 17.9593L16.6562 17.9804L16.6023 18.0118L16.5815 18.056L16.5944 18.4211L16.5532 18.4291L16.0367 18.4706L15.5175 18.5124L14.9986 18.5517L14.4818 18.5908L13.9652 18.6295L13.4457 18.6689L12.9265 18.7055L12.4103 18.7418L11.891 18.7753L11.3718 18.8095L10.855 18.8436L10.3358 18.8774L9.81712 18.9085L9.29762 18.9399L8.7811 18.9713L8.26188 19L8.23359 18.5803L8.20773 18.163L8.18214 17.7454L8.15656 17.3284L8.14366 17.099V17.0971L8.11538 17.0868L8.06934 17.0685L7.98399 17.0084L7.93255 17.0398L7.87119 17.045L7.81469 17.0346L7.71402 16.9825L7.67311 17.0008L7.63706 17.0371L7.59615 17.0554L7.45458 16.9904L7.40605 16.9956L7.37776 17.0398L7.35973 17.0947L7.33415 17.1286L7.27251 17.0972L7.21358 17.131L7.15923 17.1233L7.13842 17.0895L7.17177 17.0526V17.0294L7.10015 17.045L7.02826 17.0264L6.97175 16.9799L6.94859 16.9092L6.91795 16.8467L6.86602 16.8363L6.84591 16.0747L6.82546 15.3106L6.80231 14.5489L6.78185 13.7878L6.7587 13.0234L6.73824 12.262L6.71744 11.5006L6.69456 10.7389L6.60707 10.2542L6.51957 9.7716L6.43207 9.2861L6.34756 8.80411L6.25978 8.3186L6.17257 7.83605L6.08777 7.35407L6 6.86856L6.76604 6.82951L7.53237 6.79046L8.29786 6.74592L9.0639 6.70166L9.82995 6.65438L10.593 6.60765L11.3591 6.55552L12.1254 6.50366L12.8909 6.45124L13.6545 6.39361L14.4178 6.33655L15.1833 6.27646L15.9469 6.21418L16.713 6.15135L17.4761 6.08605L18.2397 6.01829L18.4327 6L18.4378 6.00788L18.4429 6.01555L18.4607 6.0418L18.494 6.11744L18.5018 6.12785L18.5147 6.13819L18.53 6.14607L18.5403 6.15402L18.5454 6.16683L18.5506 6.18238L18.5583 6.23726L18.5635 6.25556L18.5686 6.27385L18.5788 6.2894L18.589 6.29975L18.6864 6.349L18.7023 6.35934L18.7152 6.36997L18.7255 6.38277L18.7357 6.39586L18.7435 6.41169L18.7511 6.42999V6.4715L18.7408 6.55784V6.5786L18.7616 6.6802L18.7643 6.69849L18.7616 6.71679L18.7565 6.73508L18.7513 6.75063L18.7411 6.76647L18.7335 6.77955L18.7206 6.78997L18.7053 6.80031L18.6381 6.82895L18.6251 6.83929L18.6148 6.85238L18.6124 6.86793L18.6073 6.93829L18.6021 6.95659L18.5943 6.97488L18.5865 6.98797L18.5739 7.00105L18.4891 7.05868L18.4302 7.08978L18.3939 7.10533L18.381 7.11321L18.3554 7.13432L18.3451 7.14741L18.3347 7.16296L18.3295 7.18126L18.3271 7.19927L18.3244 7.23065V7.24894L18.3193 7.27005L18.3118 7.2856L18.3039 7.30115L18.291 7.3115L18.2784 7.32191L18.2631 7.32986L18.2066 7.34844L18.1937 7.35878L18.1811 7.36913L18.1706 7.38221L18.1553 7.41036L18.1246 7.45215L18.0855 7.53546L18.0624 7.57205L17.9803 7.77554L17.9727 7.81185L17.9752 7.82494L17.9803 7.84049L17.9983 7.84323L18.2015 7.81973L18.5996 7.7728L18.9983 7.72608L19.394 7.67682L19.7921 7.62961H19.7975L19.8026 7.62686H19.8129L19.8124 7.62785Z" fill="#550000"/>
</svg>
