<svg width="26" height="26" viewBox="0 0 26 26" fill="none" xmlns="http://www.w3.org/2000/svg">
<circle cx="13" cy="13" r="13" fill="#F8F3ED"/>
<path d="M12.1449 20.0563L12.1078 19.9854L12.0533 19.9284L12.0314 19.8975L12.0198 19.853L12.014 19.8415L12.0082 19.8256L12.0036 19.8073V19.7925L12.0001 19.7787L11.9862 19.772L11.9688 19.7662L11.9549 19.756L11.9457 19.7913L11.9595 19.8337L11.977 19.8748L11.9895 19.9363L12.0278 20.0118L12.0417 20.07L12.066 20.0983L12.095 20.1224L12.1181 20.1362L12.1309 20.1396L12.1402 20.1373L12.1494 20.1339L12.1588 20.1327L12.1947 20.1396H12.2109L12.2272 20.1339L12.175 20.0779L12.1449 20.0563ZM10.8838 19.2195L10.8456 19.1968L10.841 19.1899L10.8225 19.1726L10.8085 19.1808L10.7923 19.1842L10.776 19.1819L10.7598 19.1715L10.7668 19.2183L10.7923 19.256L10.8305 19.2835L10.877 19.2993L10.9221 19.2926L10.9163 19.2595L10.8838 19.2195ZM12.3431 19.2458L12.2399 19.1853L12.2191 19.1761L12.1426 19.1098L12.1102 19.0961L12.0788 19.0949L12.0649 19.1145L12.0765 19.1361L12.1031 19.1577L12.1345 19.1735L12.1589 19.1817L12.1914 19.1953L12.1994 19.2193L12.1914 19.2832L12.1925 19.3186L12.1994 19.3471L12.2144 19.3677L12.2423 19.378L12.2551 19.3768L12.2898 19.3677L12.3036 19.3667L12.32 19.3734L12.3593 19.4076L12.3836 19.4155L12.4055 19.411L12.4148 19.3906L12.358 19.2671L12.3431 19.2458ZM10.3669 17.9843L10.3577 17.9478L10.3669 17.909L10.3438 17.9216L10.3206 17.9262L10.2429 17.9171L10.2267 17.9205L10.2116 17.9262L10.1908 17.9296L10.1629 17.9238L10.1118 17.9045L10.0853 17.9102L10.1062 17.9364L10.1281 17.9752L10.1466 18.0153L10.1512 18.0449L10.1606 18.0621L10.1837 18.086L10.2127 18.1042H10.2358L10.251 18.0963L10.2635 18.0974L10.2775 18.1032L10.2983 18.1099L10.3122 18.1087L10.3874 18.0757L10.4059 18.0621L10.4198 18.0405L10.4291 18.0051L10.3908 18.0073L10.3669 17.9843ZM10.018 17.8485L10.0076 17.8382L9.99503 17.8291L9.98106 17.821L9.97407 17.8087L9.96837 17.7939L9.95678 17.7802L9.94634 17.8076L9.92773 17.8144L9.8884 17.8099L9.86174 17.8235L9.85475 17.8384L9.86519 17.8441L9.88486 17.8304L9.91852 17.8532L9.95098 17.8658L10.0298 17.8784L10.0251 17.8624L10.018 17.8485ZM10.98 18.0015L10.9707 17.9959L10.9557 17.9912L10.9348 17.9993L10.8782 18.0322L10.8677 18.0345H10.8527L10.7507 17.9648L10.7252 17.9579L10.6707 17.9511L10.6488 17.9431L10.5874 17.8941L10.5526 17.886H10.5421L10.5329 17.8894L10.5178 17.8987L10.5086 17.9066L10.5155 17.9134L10.5363 17.9214L10.5503 17.9362L10.5618 17.9544L10.5712 17.976L10.548 18.0125L10.5736 18.048L10.6233 18.0765L10.6674 18.0901L10.9594 18.0832L10.9919 18.0741L11.0081 18.0583L11.0127 18.0367L11.0093 18.0333L10.98 18.0015ZM17.9969 18.659L17.9992 18.6384L17.9621 18.6066L17.9495 18.5883L17.9379 18.5768L17.9171 18.562L17.8209 18.4718L17.8046 18.4467L17.7988 18.441L17.7757 18.4205L17.771 18.4147L17.7618 18.4023L17.7572 18.3978L17.7526 18.3954L17.7468 18.3932L17.7293 18.3909L17.7223 18.3875L17.7165 18.3796L17.7119 18.3693L17.7109 18.3498V18.3362L17.7119 18.335L17.7213 18.3121L17.7306 18.2917L17.7202 18.2745L17.7178 18.2734L17.7155 18.2414L17.7039 18.2242L17.6888 18.2094L17.6761 18.182V18.1717L17.6831 18.1363V18.1237L17.6784 18.1158L17.6738 18.1088L17.6135 17.9298L17.5799 17.9195L17.5556 17.9001L17.5428 17.8693L17.5463 17.8259L17.544 17.8065L17.537 17.7814L17.5253 17.7584L17.5079 17.7471L17.4894 17.738L17.4824 17.7185L17.4929 17.5382L17.4941 17.5268L17.2866 17.279L17.0814 17.0301L16.8682 16.7709L16.6701 16.5243L16.495 16.3052L16.32 16.085L16.1461 15.8647L15.9734 15.6456L15.8007 15.4252L15.6281 15.2038L15.4561 14.9831L15.2858 14.7628L15.0887 14.5196L14.8941 14.2764L14.6993 14.0333L14.5069 13.7889L14.3133 13.5457L14.1209 13.3015L13.9298 13.0572L13.7397 12.8129L13.494 12.5195L13.2494 12.2261L13.006 11.9316L12.7637 11.637L12.5227 11.3426L12.2827 11.047L12.044 10.7512L11.8064 10.4555L11.8099 10.4351L11.8261 10.3518L11.8771 10.0767L11.927 9.80279L11.978 9.5288L12.0291 9.25472L12.08 8.98073L12.1311 8.70675L12.182 8.43276L12.2319 8.15889L12.2829 7.88608L12.334 7.61326L12.3837 7.33915L12.4348 7.06633L12.4859 6.79352L12.5356 6.52194L12.5867 6.24912L12.6365 5.97735L12.3316 5.92134L12.0268 5.86557L11.7232 5.80944L11.4195 5.75132L11.1147 5.69426L10.811 5.63488L10.5074 5.5756L10.2036 5.51505L9.89993 5.4545L9.59627 5.39277L9.29261 5.33105L8.99014 5.26828L8.68639 5.20433L8.38391 5.13934L8.08132 5.07422L7.77885 5.00923L7.77305 5.00688L7.74059 5L7.74758 5.02975L7.74877 5.04561L7.74758 5.06299L7.71157 5.19751L7.69653 5.22038L7.65602 5.27056L7.61528 5.30371L7.61303 5.31281L7.64894 5.33673L7.69763 5.3904L7.73354 5.4499L7.72774 5.49202L7.72088 5.51489L7.72774 5.55362L7.73354 5.59013L7.74053 5.60624L7.74278 5.61535L7.73354 5.65408L7.73128 5.66902L7.73473 5.68371L7.74172 5.69747L7.75096 5.70892L7.76258 5.71818L7.74065 5.74092L7.7372 5.78876L7.73601 5.88245L7.72323 5.92588L7.68033 6.00581L7.65367 6.08117L7.60497 6.17579L7.57145 6.22258L7.54584 6.27504L7.52156 6.29325L7.51338 6.31612L7.50878 6.34356L7.50997 6.3642L7.5031 6.38476L7.52858 6.45092L7.53319 6.48524L7.52394 6.51826L7.40453 6.72386L7.33381 6.79225L7.31413 6.822L7.33841 6.81512L7.36401 6.79352L7.43699 6.71476L7.44385 6.71136L7.49148 6.72723L7.50533 6.72395L7.51457 6.7354L7.51918 6.73763L7.49264 6.76725L7.46823 6.77519L7.44156 6.77414L7.40791 6.77867L7.38707 6.79349L7.34418 6.84595L7.32795 6.85623L7.31171 6.91446L7.29561 6.9406L7.2712 6.92239L7.25722 6.90419L7.25961 6.89848L7.27239 6.86999L7.27925 6.85971L7.23397 6.89737L7.20496 6.92934L7.17948 6.97159L7.18067 6.97625L7.18293 6.98406L7.18412 6.99106L7.17832 6.99223H7.17372L7.16911 6.99563L7.16451 7.00017L7.15871 7.01615L7.1124 7.06738L7.09842 7.08686L7.07758 7.12466L7.05791 7.16222L7.04973 7.18614L7.03929 7.20678L7.02187 7.22965L7.00934 7.25125L7.00815 7.27178L7.01977 7.30715L7.03375 7.40424V7.44297L7.00473 7.50926L7 7.54462L7.01517 7.56515L7.03021 7.57749L7.15652 7.74772L7.21339 7.80019L7.23081 7.82516L7.26214 7.90064L7.26333 7.91209L7.2586 7.94604L7.26098 7.9598L7.26904 7.96681L7.2958 7.98267L7.30504 7.9906L7.33512 8.03403L7.45106 8.31138L7.45225 8.33764L7.44301 8.40393L7.44761 8.44044L7.45222 8.46097L7.45801 8.47112L7.4708 8.4793L7.47425 8.49294L7.4765 8.50905L7.48004 8.52491L7.4823 8.55L7.45576 8.65397L7.46961 8.74754L7.46262 8.76014L7.44178 8.77041L7.42211 8.80004L7.39309 8.86281L7.35837 8.96317L7.32817 9.01231L7.33979 9.07054L7.33293 9.0968L7.34098 9.1094L7.34559 9.13226L7.34903 9.17451V9.24522L7.35364 9.27954L7.37 9.29669L7.39193 9.4086L7.39074 9.42446L7.37796 9.47464L7.37676 9.48958L7.38137 9.52272V9.53871L7.36752 9.57513L7.35129 9.59241L7.33161 9.60256L7.30968 9.62543L7.30507 9.67117L7.32817 9.72811L7.39202 9.83544L7.44529 9.89939L7.45228 9.91772L7.45808 9.94164L7.47891 9.97012L7.51717 10.0113L7.5461 10.0559L7.69218 10.3651L7.72464 10.4085L7.85449 10.5135L7.88234 10.5592L7.89384 10.654L7.91825 10.6893L7.90083 10.7634L7.91023 10.7897L7.9113 10.7794L7.91948 10.7485L7.97976 10.8102L7.99587 10.8388L7.99825 10.8512V10.8808L8.00051 10.8945L8.02611 10.9413L8.06318 11.0441L8.10024 11.1114L8.11303 11.1468V11.184L8.09786 11.1497L8.07239 11.1164L8.05155 11.08L8.04917 11.0378L8.04112 11.0102L7.99123 10.9339L7.97155 10.9087L7.98898 11.0044L7.98437 11.0457L7.9123 11.1849L7.86599 11.2374L7.8532 11.259L7.88567 11.2682H7.89491L7.90534 11.2636L7.90773 11.2602L7.90879 11.2568L7.9274 11.2396L7.93665 11.2282L7.94943 11.2168L7.96911 11.2077L7.96106 11.2009L7.95752 11.194L7.94946 11.1712L7.96109 11.1699L7.97033 11.1654L7.97973 11.1586L7.98898 11.1484L8.00151 11.1975L8.02937 11.2339L8.0989 11.2876L8.10469 11.2945L8.11748 11.3106L8.12672 11.331L8.13017 11.3732L8.14179 11.3891L8.16846 11.4099L8.18124 11.427L8.20208 11.4749L8.21593 11.4851L8.23097 11.4783L8.24141 11.4589V11.435L8.29709 11.5045L8.32494 11.5501L8.36085 11.5867L8.3747 11.6061L8.39331 11.6266L8.41998 11.6413L8.44784 11.6449L8.46867 11.6312L8.47212 11.6049L8.46288 11.581L8.45827 11.5616L8.47795 11.5467L8.48375 11.5719L8.49772 11.5842L8.51025 11.5785L8.51264 11.5546L8.50324 11.5306L8.4719 11.4917L8.45912 11.469L8.46852 11.4667L8.48105 11.4576L8.48923 11.4542L8.47999 11.436L8.48459 11.4198L8.49963 11.4084L8.5367 11.4039L8.52746 11.3879L8.49963 11.3593L8.49619 11.3298L8.51348 11.2428L8.51586 11.203L8.56337 11.211L8.59583 11.2098L8.62369 11.1928L8.65502 11.1561L8.76851 11.2531L8.78474 11.2828L8.78713 11.2977L8.79756 11.3126L8.81367 11.324L8.85086 11.3389L8.90761 11.3776L8.93189 11.3821H8.94825L8.96435 11.3752L9.01543 11.3444L9.02467 11.3365L9.03285 11.325L9.0467 11.2964L9.0525 11.2885L9.06635 11.2806L9.09076 11.2737L9.11504 11.2691L9.13365 11.2725L9.15107 11.2919L9.14869 11.3114L9.11623 11.3546L9.16837 11.382L9.22869 11.398L9.21484 11.414L9.20785 11.4197L9.19742 11.4243L9.21127 11.4323L9.23095 11.4347L9.25416 11.4335L9.27394 11.4301L9.27854 11.414H9.29358L9.33529 11.4301L9.35152 11.4323H9.39918L9.427 11.4231L9.45947 11.398L9.50816 11.3455L9.51502 11.3478L9.50249 11.3809L9.48626 11.4073L9.46432 11.4267L9.43766 11.4391L9.42368 11.4414H9.40983L9.39479 11.4425L9.38201 11.4505L9.37634 11.4629L9.37515 11.4765L9.37859 11.4868L9.38784 11.4937L9.44352 11.4948L9.47485 11.4902L9.48989 11.4765L9.4945 11.456L9.5003 11.4459L9.52113 11.4287L9.53053 11.4253L9.5374 11.4298L9.54438 11.4356L9.55363 11.4401L9.56061 11.4389L9.57224 11.4275L9.57804 11.4253L9.60696 11.4298L9.62664 11.4401L9.6418 11.4524L9.71136 11.5381L9.73104 11.5494L9.74148 11.5632L9.75771 11.5917L9.76933 11.6202L9.76695 11.6316L9.74846 11.6192L9.72763 11.5953L9.70901 11.5668L9.70215 11.5438H9.68022L9.65462 11.5256L9.61871 11.4845L9.61526 11.4743V11.4617L9.61288 11.4493L9.60138 11.439L9.5886 11.4379L9.57697 11.4424L9.56773 11.4493L9.55955 11.4515L9.53288 11.4447L9.51903 11.447L9.51086 11.4584L9.50741 11.4707L9.50161 11.4855L9.49582 11.4981L9.48883 11.5027L9.47733 11.5015L9.46335 11.5049L9.45173 11.5118L9.44593 11.521L9.45173 11.5256L9.48538 11.5438L9.45872 11.552L9.43324 11.5438L9.38799 11.5152L9.24323 11.4708L9.18874 11.4401L9.04372 11.3932L9.0148 11.3955L8.95107 11.4206L8.92099 11.4228L8.89777 11.4105L8.85951 11.3648L8.83522 11.3524L8.80737 11.3512L8.78653 11.3592L8.717 11.4049L8.70302 11.4083L8.68573 11.4073L8.6741 11.4015L8.66367 11.3935L8.65427 11.3924L8.63685 11.4243L8.61836 11.4449L8.59514 11.4597H8.5743L8.59624 11.518L8.64032 11.5498L8.67517 11.5865L8.67163 11.6605L8.64377 11.7132L8.63572 11.7462L8.65549 11.7644L8.67977 11.7736L8.73771 11.8103L8.75855 11.8285L8.70406 11.8388L8.71105 11.8422L8.72728 11.8547L8.71449 11.8752L8.72389 11.8809L8.75742 11.8821L8.7702 11.8944L8.77484 11.9082L8.78647 11.9711L8.8027 12.1548L8.81194 12.1902L8.82698 12.2153L8.85719 12.221L8.86405 12.2255L8.86866 12.2336L8.87326 12.2472V12.2552L8.86982 12.2643L8.86756 12.2734L8.87101 12.2779L8.88025 12.2816L8.89886 12.2952L8.87803 12.3066L8.85136 12.3077L8.82589 12.3009L8.80395 12.2861L8.79352 12.2643L8.78534 12.2358L8.7749 12.2142L8.75867 12.2118L8.74705 12.1995L8.73661 12.1834L8.72511 12.1731L8.6961 12.1788L8.69149 12.1662L8.6903 12.1479L8.68805 12.1343L8.67169 12.1206L8.65916 12.116L8.65204 12.1069L8.65442 12.0807L8.64744 12.0738L8.60573 12.0716L8.59188 12.0682L8.57791 12.0339L8.57104 12.0246L8.5618 12.0189L8.53987 12.0132L8.53047 12.0063L8.51793 11.9893V11.9778L8.519 11.9655L8.51333 11.945L8.51558 11.93L8.54344 11.8364L8.54923 11.8241L8.55967 11.8172L8.58051 11.8138L8.56083 11.8104L8.5561 11.8012L8.55964 11.7897L8.56083 11.7772L8.55729 11.7133L8.54804 11.695L8.52363 11.6849L8.47149 11.6767H8.44483L8.42399 11.6859L8.39034 11.7406L8.38395 11.8074L8.38739 11.8758L8.3804 11.9342L8.36656 11.9604L8.33647 12.0003L8.32369 12.0346L8.31789 12.1031L8.32952 12.119L8.34456 12.1247L8.3596 12.1281L8.37238 12.1361L8.38492 12.1659V12.2332L8.3931 12.2639L8.40472 12.2914L8.41052 12.3246V12.3588L8.40698 12.3896L8.3873 12.4536L8.36289 12.5095L8.35036 12.5654L8.36659 12.6271L8.39667 12.6636L8.40945 12.6865L8.41064 12.7161L8.4187 12.7366L8.48588 12.812L8.53695 12.9136L8.56703 12.9582L8.64938 13.0345L8.67131 13.0483L8.69798 13.0574H8.72819L8.75711 13.0528L8.78152 13.0552L8.79881 13.078L8.84406 13.0609L8.88113 13.0643L8.91121 13.0895L8.93681 13.1373L8.9809 13.2846L9.00164 13.3315L8.95777 13.4192L8.96702 13.4273L8.97745 13.4318H8.98908L9.00067 13.4273L9.00293 13.4399V13.4502L8.99948 13.4594L8.99249 13.4685L8.96463 13.4549L8.94734 13.4491L8.93455 13.4628L8.91372 13.5334L8.89629 13.5621L8.87662 13.5872L8.85468 13.6077L8.82683 13.6157L8.80834 13.601L8.7933 13.578L8.77008 13.5643L8.74815 13.5723L8.72621 13.5929L8.69268 13.6454L8.71117 13.6557L8.72515 13.6705L8.73768 13.6809L8.74811 13.6945L8.74931 13.7163L8.74113 13.7287L8.71684 13.7264L8.70866 13.7388L8.7076 13.7661L8.72264 13.8439V13.91L8.7122 13.9763V13.9888L8.71907 14.0355V14.0537L8.71788 14.0653L8.71907 14.0744L8.72499 14.0905L8.73649 14.1028L8.74811 14.1119L8.75736 14.1234V14.145L8.75974 14.1608L8.77017 14.1792L8.78402 14.1929L8.81887 14.2111L8.92205 14.3128L8.94978 14.3585L8.99268 14.4749L9.00192 14.5331L9.01132 14.5628L9.02875 14.5787L9.05767 14.5878L9.0796 14.6039L9.09702 14.6233L9.10852 14.646L9.1167 14.6723L9.12131 14.7031L9.1225 14.7363L9.11905 14.7717L9.12012 14.8023L9.13409 14.8287L9.16881 14.8733L9.18965 14.9223L9.20362 14.9452L9.24307 14.9771L9.25113 15.0136V15.0821L9.28121 15.1825L9.30681 15.1928L9.37173 15.2442L9.4145 15.2602L9.44352 15.3058L9.46674 15.3847L9.50026 15.4428L9.52693 15.4966L9.55595 15.5364L9.58728 15.5672L9.66963 15.597L9.69855 15.6165L9.71017 15.6381L9.71362 15.662L9.71716 15.7043L9.72286 15.7237L9.74148 15.7614L9.74727 15.7841L9.72534 15.7932L9.70566 15.7922L9.69987 15.7819L9.7161 15.758L9.70911 15.7465L9.65584 15.8378L9.64331 15.8915L9.64212 15.9177L9.65017 15.9428L9.67683 15.9782L9.74637 16.0227L9.77422 16.0512L9.78121 16.0456L9.8043 16.0421L9.83216 16.0433L9.85077 16.049L9.86001 16.0593L9.8785 16.0879L9.88906 16.0946L9.9099 16.1072L9.91795 16.1163L9.92033 16.1643L9.91679 16.2179L9.90175 16.2762L9.88207 16.3343L9.82533 16.4223L9.8137 16.4565L9.81715 16.4702L9.84848 16.5104L9.85666 16.5227L9.86127 16.5365L9.86472 16.5501V16.5671L9.85547 16.6026L9.82539 16.6586L9.81377 16.6916L9.82539 16.7167L9.83344 16.7464L9.83805 16.7772L9.82642 16.8159L9.81019 16.841L9.79515 16.8605L9.78237 16.8821L9.76043 16.9277L9.7442 16.9505L9.74881 16.9699L9.76159 16.9871L9.79293 17.0031L9.82884 17.0214L9.85785 17.026L9.89837 17.0716L9.92503 17.1298L9.94352 17.1936L9.99801 17.2051L10.1221 17.2017L10.3132 17.2244L10.3735 17.2405L10.4234 17.2714L10.4917 17.2646L10.5613 17.3033L10.6795 17.3913H10.7038L10.734 17.3843L10.7629 17.3821L10.7826 17.3947L10.7964 17.4107L10.822 17.4334L10.851 17.4528L10.8729 17.4597L10.8903 17.4516L10.9031 17.4393L10.9181 17.4302L10.9841 17.4267L11.0097 17.4405L11.0411 17.4439L11.0561 17.4484L11.0689 17.4575L11.0932 17.4873L11.1673 17.5376L11.2114 17.5592L11.3401 17.7201L11.3563 17.7315L11.3864 17.7362L11.4004 17.7407L11.412 17.751L11.4142 17.7646L11.412 17.7807L11.4132 17.7956L11.4281 17.8079L11.4188 17.8239V17.8455L11.427 17.8685L11.4363 17.8901L11.4397 17.9005L11.4409 17.9199L11.4432 17.9278L11.4491 17.9335L11.4606 17.9381L11.4676 17.9438L11.5151 18.0043L11.5453 18.0284L11.5858 18.0375L11.5684 18.0306L11.5579 18.0249H11.5487L11.5452 18.0101L11.5858 18.0261L11.6808 18.1081L11.8026 18.1664L11.865 18.1836L11.9114 18.2132L11.9299 18.2383L11.9566 18.2291L11.9834 18.2223L12.1734 18.2326L12.1908 18.2372L12.2024 18.2452L12.2129 18.2476L12.2279 18.2441L12.2487 18.236L12.2788 18.2486L12.3137 18.2807L12.3472 18.3217L12.3832 18.405L12.4005 18.4805L12.4179 18.5408L12.4214 18.5694L12.4191 18.5922L12.4098 18.6414L12.3958 18.6608L12.3739 18.6779L12.3636 18.7018L12.3833 18.7395L12.3913 18.7464L12.4041 18.7533L12.418 18.7566L12.4319 18.7521L12.4458 18.7509L12.4562 18.7669L12.4667 18.7863L12.4783 18.7967L12.4899 18.8024L12.5038 18.8115L12.5177 18.8183L12.5328 18.8172L12.5408 18.808L12.5443 18.7966L12.5455 18.7817L12.5617 18.7385L12.5709 18.7303H12.5884L12.5988 18.7281L12.6104 18.7236L12.6232 18.7224L12.6511 18.751L12.6719 18.7544L12.6986 18.7554L12.7321 18.7636L12.754 18.7783L12.9013 18.978L12.9396 19.0204L13.0797 19.1232L13.1331 19.1814L13.1748 19.2579L13.1991 19.2761L13.2501 19.3195L13.2687 19.3388L13.3314 19.4291L13.4369 19.5307L13.5829 19.8115L13.6293 19.9656L13.6419 20.0477L13.6407 20.0764L13.6488 20.0967L13.6581 20.2557L13.6535 20.2796L13.6361 20.3081L13.6188 20.3218L13.606 20.3366L13.6025 20.3697L13.6268 20.4233L13.628 20.4462L13.621 20.4771L13.6002 20.5432L13.6014 20.5592L13.6094 20.5878L13.6118 20.6082L13.6199 20.5959L13.6349 20.549L13.6499 20.5341L13.6686 20.5286L13.6778 20.5296L13.6997 20.5377L13.7195 20.5535L13.7474 20.5707L13.7589 20.5856L13.7763 20.6186L13.7891 20.6563V20.6848L13.7774 20.6962L13.7612 20.6893L13.7542 20.6677L13.7404 20.6359L13.731 20.605L13.7171 20.5892L13.7183 20.5685L13.6951 20.5549L13.6765 20.5515L13.6616 20.5663L13.6488 20.5801L13.6858 20.5858L13.7113 20.6109L13.7276 20.6485L13.7426 20.6976L13.7414 20.7364L13.731 20.7719L13.7322 20.8162L13.7403 20.8289L13.8375 20.8346L13.9337 20.8403L14.0311 20.8471L14.1284 20.8529L14.2246 20.8586L14.322 20.8643L14.4192 20.8699L14.5166 20.8767L14.6128 20.8824L14.7101 20.8883L14.8075 20.8928L14.9037 20.8984L15.0011 20.9041L15.0982 20.9099L15.1956 20.9144L15.3892 20.9257L15.4866 20.9304L15.5828 20.9349L15.6802 20.9406L15.7773 20.9452L15.8735 20.9497L15.9709 20.9556L16.0683 20.9601L16.1645 20.9646L16.2619 20.9692L16.359 20.9737L16.4552 20.9783L16.5526 20.9828L16.65 20.9862L16.7462 20.9906L16.8436 20.9954L16.8968 20.9977V21L16.9049 20.9806L16.9594 20.9519L17.0916 20.9965L17.1484 20.9919L17.1634 20.9703L17.1692 20.9428L17.1715 20.9155L17.1796 20.8892L17.1993 20.8709L17.2526 20.8447L17.27 20.8264L17.2781 20.7944L17.27 20.694L17.2746 20.6745L17.2792 20.6608L17.2816 20.646L17.2792 20.6255L17.2503 20.5694L17.2085 20.5386L17.0915 20.5147L17.0427 20.4884L17.0114 20.429L17.023 20.3766L17.0497 20.3218L17.0659 20.2567L17.0647 20.1677L17.059 20.1461L17.0242 20.0947V20.0721L17.0427 20.0309L17.0601 20.0174L17.0671 20.0048L17.0613 19.9876L17.0531 19.974L17.0416 19.9524L17.0381 19.9341L17.052 19.9272L17.1158 19.9318L17.1493 19.9262L17.1749 19.9124L17.234 19.8291L17.2515 19.7937L17.2665 19.78L17.2954 19.7572L17.3163 19.7377L17.322 19.7275L17.329 19.7081L17.3267 19.6738L17.3302 19.6533L17.3417 19.6464L17.3475 19.6396L17.351 19.6225L17.3545 19.5894L17.3649 19.5527L17.3823 19.5334L17.3998 19.5175L17.4113 19.497L17.4008 19.4672L17.3974 19.4501L17.4054 19.4433L17.4112 19.4353L17.4148 19.4181L17.416 19.3999L17.4124 19.3908L17.3986 19.3725L17.3998 19.3348L17.4044 19.2959V19.2732L17.431 19.2572L17.4425 19.2448V19.2311L17.4218 19.1979L17.4136 19.1797L17.4112 19.1614L17.424 19.1284L17.4472 19.1099L17.5028 19.0837L17.526 19.0655L17.5504 19.0437L17.5689 19.0164L17.5875 18.9524L17.6048 18.9262L17.628 18.9067L17.6767 18.8988L17.8204 18.8233L17.8459 18.82L17.8934 18.7732L17.9421 18.7367L17.9862 18.7115L18 18.6921L17.9969 18.659ZM7.77994 11.6944L7.77296 11.7011L7.77415 11.7057L7.77296 11.708L7.77415 11.7057L7.77521 11.7069L7.77296 11.7092L7.78113 11.6954L7.77994 11.6966V11.6944ZM8.52395 11.5825L8.52169 11.5859L8.5159 11.5847L8.51129 11.5904L8.5101 11.6028V11.6039L8.51709 11.6096L8.52752 11.6085L8.53795 11.5914L8.52395 11.5825ZM8.57963 11.6555V11.6749L8.58082 11.676L8.59125 11.6954L8.59364 11.6909V11.6899L8.58652 11.6853L8.59364 11.6601L8.57963 11.6555ZM11.184 18.1098L11.1666 18.1031L11.1562 18.095L11.1423 18.0882L11.1296 18.0859L11.1261 18.0904L11.1285 18.095L11.1482 18.1098H11.1598L11.1771 18.1144L11.1957 18.1133L11.1945 18.1086L11.184 18.1098ZM11.5121 18.9763L11.5027 18.9797L11.4888 18.9809L11.4842 18.9831L11.4866 18.9901L11.4889 19.0038L11.4923 19.0117V19.0128L11.5097 18.9901L11.5121 18.9776H11.5109L11.5121 18.9763Z" fill="#550000"/>
</svg>
