<svg width="26" height="26" viewBox="0 0 26 26" fill="none" xmlns="http://www.w3.org/2000/svg">
<circle cx="13" cy="13" r="13" fill="#F8F3ED"/>
<path d="M19.9551 10.9679L19.9517 11.1851L19.9479 11.4043L19.9444 11.6236L19.9407 11.8429L19.9388 12.0622L19.9352 12.2816L19.9315 12.5007L19.928 12.72L19.9243 12.9393L19.9207 13.1583L19.917 13.3794L19.9134 13.5987L19.9097 13.818L19.9061 14.0374L19.9024 14.2583L19.8989 14.4776L19.897 14.6967L19.8932 14.9177L19.8897 15.1368L19.8859 15.3563L19.8822 15.5774L19.8785 15.7966L19.8749 16.0177L19.8712 16.2368L19.8695 16.4583L19.866 16.6773L19.8622 16.8986L19.8587 17.1177L19.8549 17.339L19.8514 17.5598L19.8476 17.7791L19.8441 18L19.6017 17.9948L19.3576 17.9912L19.1136 17.986L18.8714 17.9807L18.627 17.9757L18.3829 17.9704L18.1407 17.9634L17.8968 17.9582L17.525 17.9476L17.1533 17.9372L16.78 17.9266L16.4083 17.9143L16.0369 17.9019L15.6652 17.8879L15.2917 17.8739L14.9201 17.8597L14.5486 17.8457L14.1751 17.8299L13.8036 17.8141L13.432 17.7965L13.0603 17.7791L12.6887 17.7616L12.3172 17.7426L11.9458 17.7231L11.5723 17.7041L11.2006 17.6831L10.829 17.662L10.4573 17.6408L10.0857 17.6199L9.71423 17.5971L9.34258 17.5727L8.97093 17.5482L8.59928 17.5234L8.22783 17.4989L7.85637 17.4725L7.4864 17.4461L7.11475 17.4181L6.7431 17.392L6.37145 17.3638L6 17.3339L6.02571 17.0411L6.05102 16.7481L6.07465 16.4552L6.10016 16.1622L6.12567 15.8694L6.14931 15.5783L6.17482 15.2853L6.20033 14.9923L6.22416 14.6994L6.24967 14.4082L6.27518 14.1152L6.29862 13.8225L6.32413 13.5313L6.34964 13.2383L6.37347 12.9472L6.39957 12.6551L6.42488 12.3621L6.44872 12.071L6.47423 11.7798L6.49786 11.4888L6.52337 11.1975L6.54868 10.9065L6.57232 10.6152L6.59803 10.3242L6.62166 10.0328L6.64737 9.74181L6.67268 9.45207L6.69632 9.16105L6.72183 8.86989L6.74734 8.58062L6.77097 8.28927L6.79481 8L7.08993 8.02276L7.38486 8.04552L7.68032 8.06829L7.97505 8.08925L8.27052 8.11021L8.56545 8.13155L8.8589 8.15232L9.15402 8.17166L9.44914 8.19281L9.74407 8.21178L10.039 8.23113L10.3345 8.24853L10.6294 8.26788L10.9249 8.28547L11.2198 8.30288L11.5149 8.31881L11.81 8.3364L12.1052 8.35219L12.4003 8.36799L12.6973 8.38378L12.9924 8.398L13.2873 8.4136L13.5828 8.42783L13.8777 8.44182L14.1728 8.45401L14.468 8.468L14.7631 8.48037L15.0582 8.49256L15.355 8.50475L15.6501 8.51551L15.945 8.52609L16.2405 8.53647L16.4645 8.54524L16.6885 8.55222L16.9127 8.55923L17.1367 8.56639L17.3606 8.57336L17.5846 8.58038L17.8088 8.5856L18.0328 8.59262L18.2569 8.59798L18.4809 8.60499L18.7051 8.61021L18.9291 8.61543L19.153 8.61903L19.3771 8.62425L19.601 8.62961L19.8269 8.63302L20 8.63662L19.9963 8.78221L19.9944 8.92779L19.9909 9.07318L19.989 9.21895L19.9853 9.36453L19.9836 9.51011L19.9799 9.65551L19.978 9.80128L19.9744 9.94686L19.9726 10.0926L19.969 10.2379L19.9672 10.3837L19.9634 10.5292L19.9617 10.6748L19.958 10.8202L19.9561 10.9678L19.9551 10.9679Z" fill="#550000"/>
</svg>
