<svg width="26" height="26" viewBox="0 0 26 26" fill="none" xmlns="http://www.w3.org/2000/svg">
<circle cx="13" cy="13" r="13" fill="#F8F3ED"/>
<path d="M18.5512 6.10963L18.6928 6.68998L18.8419 7.27765L18.991 7.86596L19.1408 8.45514L19.2838 9.04281L19.4329 9.62317L19.5827 10.2115L19.7318 10.7991L19.8066 11.1095L19.8876 11.5394L20 12.1759L19.9098 12.232L19.8876 12.3264L19.873 12.4792L19.9327 13.0107L19.9395 13.2257L19.7009 13.3297L19.6855 13.2575L19.798 13.2014L19.7757 13.147L19.6932 13.0982L19.5815 13.0666L19.4768 13.0748L18.9972 13.2253L18.9301 13.2569L18.5215 13.647L18.0873 13.4L18.0122 13.4877L18.0268 13.7347L17.9825 13.8697L17.7958 13.9086L17.5252 13.8697L17.324 13.9086L17.3462 14.1955L17.1144 14.1151L16.7263 14.522L16.4633 14.475L16.396 14.4434L16.2835 14.4191L16.2239 14.3954L16.1865 14.323V14.2523L16.1941 14.1646L16.1788 14.0696L16.1122 13.9737L16.022 13.9021L15.895 13.8542L15.752 13.8778L15.8734 14.0216L16.0301 14.124L16.1426 14.2686L16.1195 14.5302L16.2097 14.57L16.2395 14.5781L16.1347 14.7529L15.9702 14.7845L15.6254 14.7447L15.4838 14.8L15.3348 14.9203L15.2154 15.0708L15.1481 15.2374L15.0961 15.1976L15.0656 15.1903L15.0435 15.174L15.0122 15.1269L14.9525 15.1432L14.8851 15.2292L14.5413 15.1594L14.3623 15.1512L13.9578 15.3649L13.9058 15.4526L13.8684 15.5385L13.8164 15.5946L13.7193 15.6183L13.6366 15.6019L13.5624 15.563L13.4722 15.5388L13.3682 15.5469L13.0899 15.6419L13.0157 15.6899L12.9186 15.8175H12.8589L12.7762 15.7939L12.3341 15.9289L12.2293 15.9119L12.1484 15.8175L12.0736 15.5785L12.0293 15.5388L11.9765 15.6265L11.9399 15.7451L11.9322 15.8021L11.7158 16.1507L11.5944 16.4847L11.5424 16.5806L11.453 16.6358L11.2435 16.7081L11.177 16.7788L11.1163 16.8747L10.9747 16.9933L10.9227 17.0737L10.8776 17.2005L10.8623 17.2639L10.8309 17.3119L10.7415 17.3834L10.6145 17.4468L10.5548 17.4232L10.5028 17.3598L10.4058 17.32L10.353 17.3516L10.1519 17.6141L10.1145 17.6222L10.0771 17.598L10.0474 17.5743L10.032 17.5661L10.0097 17.6141V17.7173L9.98608 17.7327L9.96383 17.7725L9.89648 17.9326L9.85906 17.9879L9.79171 18.0042L9.67238 17.9717H9.60503L9.54435 18.0115L9.48468 18.131L9.43189 18.1708L9.33481 18.2097L9.20092 18.2974L9.07956 18.4087L9.04963 18.5356L8.99765 18.5672L8.72156 18.8857L8.63136 18.9573L8.3927 19.2197L8.31625 19.2434L8.18175 19.227L8.09235 19.514L8.01144 19.4416L7.91436 19.6251L7.8019 19.761L7.66033 19.808L7.47222 19.7221L7.45686 19.7691L7.43461 19.7855L7.3537 19.8571L7.20384 20L7.15954 19.9284L7.09988 19.8487L7.06934 19.8171L7.04708 19.8089L7.00279 19.7934L6.97306 19.7691L6.71842 19.5149L6.47833 19.2597L6.41867 19.2045L6.50807 19.1013L6.78577 18.8079L7.14437 18.4251L7.52664 18.0203L7.84014 17.6863L7.93721 17.5668L7.78815 17.4238L7.64657 17.2734L7.49751 17.115L7.30173 16.8914L7.27199 16.7012L7.1911 16.2161L7.11605 15.7309L7.03516 15.2539L6.95263 14.7688L6.87315 14.2918L6.79062 13.8067L6.71559 13.3304L6.63226 12.8452L6.55135 12.3674L6.47632 11.8831L6.39542 11.4062L6.31269 10.9219L6.23846 10.4441L6.15574 9.95891L6.07483 9.48195L6 9.00498L6.91239 8.79777L7.82557 8.59937L8.73796 8.40097L9.64346 8.19376L10.1527 8.08328L10.6307 7.9801L11.0429 7.90788L11.1102 8.17033L11.4237 8.05168L11.4083 7.81352L12.4332 7.55021L12.6213 7.55837L12.7184 7.55021L12.778 7.53473L12.898 7.42339L13.2711 7.33741L14.3716 7.05797L15.4713 6.78005L16.5701 6.51029L17.6712 6.23086L18.5162 6L18.5537 6.11134L18.5512 6.10963Z" fill="#550000"/>
</svg>
