<svg width="26" height="26" viewBox="0 0 26 26" fill="none" xmlns="http://www.w3.org/2000/svg">
<circle cx="13" cy="13" r="13" fill="#F8F3ED"/>
<path d="M11.0629 4.26723L11.0018 4.4015L10.7381 4.72045L10.6498 4.90331V5.43567L10.5796 5.68645L10.2807 6.34421L10.2455 6.40246L9.94493 6.61483L9.91899 6.7107V6.84705L9.89281 7.00013L9.88378 7.14642L9.9278 7.2509L10.2453 7.46432L10.3507 7.56019L10.483 7.75376L10.536 7.98494L10.527 8.22683L10.4387 8.47865L10.4216 8.76808L10.562 9.0199L10.7635 9.20275L10.913 9.30933L11.0796 9.47338L11.5995 10.1972L11.6348 10.2756L11.6966 10.2944L11.8542 10.256L11.9334 10.2944L12.2801 10.5953L12.57 11.0585L12.7111 11.2996L12.8063 11.5989L12.8855 12.4197L12.9738 12.7013L13.0259 12.8178L13.1314 12.9818L13.1863 13.0973L13.2035 13.3967L13.2565 13.5518L13.5464 13.6563L13.7308 13.8509L14.1439 14.4483L14.251 14.6419L14.3303 14.8838L14.4005 15.1928L14.4976 15.2973L15.077 15.6163L15.6853 16.197L15.9839 16.3699L16.3547 16.3798L16.6103 16.3127L16.7678 16.2928L16.8649 16.4281L17.2616 17.7515L17.2878 18.0519L17.2616 18.2455L17.1121 17.6648L16.9439 17.5106L16.5129 17.6151L16.5036 17.6922L16.7764 18.0981L16.636 18.1091L16.5829 18.0981L16.5308 18.1188L16.5217 18.1475L16.4956 18.1574L16.4687 18.1762L16.5829 18.2546L16.7152 18.3217L16.8556 18.3405L17.0222 18.3021L16.8556 18.5728L16.2671 18.9124L16.1529 19.1631L16.3373 19.1148L16.3194 19.2214L16.2842 19.3084L16.2493 19.3755L16.2052 19.4238L16.3547 19.4139L16.6624 19.0563L16.9003 18.9803L16.9705 19.0375L17.0657 19.142L17.1647 19.2297L17.2361 19.201L17.3675 18.9009L17.4205 18.7272L17.3675 18.6206L17.3856 18.5237L17.4467 18.4949L17.5348 18.6292L17.561 18.7457L17.614 19.287L17.7282 19.596L17.8777 19.8854L17.9919 20.1856L18 20.5045L17.8777 20.5332L17.8246 20.5045L17.7635 20.4847H17.6933L17.605 20.5045L17.64 20.6014L17.4205 20.6487L16.9265 20.7741L16.215 20.9569L15.5104 21.1327L14.7879 21.3046L14.0832 21.4794L13.3715 21.6531L12.6576 21.8271L11.9436 22L11.7854 21.4222L11.636 20.8214L11.4073 19.9128L11.1769 18.9952L10.9492 18.0874L10.7207 17.1697L10.5003 16.2612L10.2729 15.3428L10.0425 14.4342L9.81405 13.5168L9.58559 12.6091L9.36595 11.6914L9.13559 10.7829L8.9069 9.87409L8.67846 8.95564L8.45 8.04789L8.21964 7.13048L8 6.22195L8.0702 6.21203L8.07925 6.18329L8.21155 5.7784L8.33553 5.38134L8.47594 4.93727L8.60825 4.72385L8.77483 4.53133L8.92427 4.40594L9.19604 4.24189L9.39118 4.15491L9.78692 4.0384L10.2279 4L10.5789 4.0384L10.8775 4.14498L11.0539 4.25156L11.062 4.26148L11.0629 4.26723Z" fill="#550000"/>
</svg>
