<svg width="26" height="26" viewBox="0 0 26 26" fill="none" xmlns="http://www.w3.org/2000/svg">
<circle cx="13" cy="13" r="13" fill="#F8F3ED"/>
<path d="M9.93704 10.2755L9.89114 10.3153L9.81015 10.3718L9.79704 10.3935L9.91389 10.3519L9.95944 10.319L9.97448 10.2683L9.9575 10.2664L9.93704 10.2755ZM9.71395 10.4555L9.68019 10.5046L9.65183 10.5173L9.64239 10.5228L9.63683 10.5355L9.62933 10.5481L9.61235 10.5555L9.5898 10.5611L9.58593 10.5718V10.5828L9.58032 10.5938L9.14448 10.872L9.05191 10.9065L9.00294 10.9174L8.93893 10.8901L8.90322 10.8865L8.96356 10.9155L9.01457 10.9246L9.143 10.9065L9.18814 10.8868L9.31096 10.7957L9.35049 10.752L9.55609 10.6321L9.67101 10.5174L9.71808 10.4903L9.71614 10.4812L9.73145 10.463L9.74282 10.454L9.74088 10.4373L9.71395 10.4555ZM8.91439 10.7665L8.90684 10.741L8.90302 10.7392H8.87446L8.84436 10.7336L8.78959 10.7319L8.76143 10.7629L8.71996 10.772L8.62739 10.7702L8.65361 10.7865L8.69951 10.7973L8.72573 10.8064L8.74271 10.8209L8.7597 10.841L8.78051 10.8592L8.79922 10.8664L8.85023 10.8773L8.87471 10.8736L8.88262 10.8479L8.88456 10.8245L8.89399 10.8009L8.90516 10.7808L8.91439 10.7665ZM5.23693 9.39334L5.16348 9.42068L5.1465 9.40617L5.09947 9.43331L4.86918 9.49167L4.77278 9.49894L4.73902 9.50804L4.6825 9.53518L4.66363 9.54634L4.61232 9.56994L4.45803 9.58444L4.33516 9.6426L4.08809 9.71345L3.91243 9.73685L3.8729 9.75543L3.99531 9.7573L5.45191 9.40431L5.4764 9.41158L5.50129 9.41345L5.52388 9.40622L5.54087 9.39339L5.3295 9.39172L5.23693 9.39334ZM21.4133 18.7339L21.4303 18.75L21.4322 18.7484L21.4341 18.75L21.4623 18.7465L21.4698 18.7281L21.4494 18.5954H21.4475V18.5937L21.4324 18.5972L21.4287 18.6155L21.4212 18.6281L21.4118 18.6411L21.3965 18.6556L21.3982 18.6699H21.4V18.6718H21.4094L21.415 18.6735L21.4225 18.6772L21.4301 18.681H21.432L21.4116 18.7064L21.4133 18.7339ZM16.9176 17.5862L16.8721 17.5698L16.8173 17.5514H16.8156L16.8003 17.5824L16.7588 17.5934L16.6811 17.5897L16.6755 17.588L16.636 17.5789L16.5965 17.557L16.5626 17.5244L16.5361 17.477L16.525 17.4514L16.5136 17.4298L16.4983 17.4114L16.4753 17.4006H16.4734L16.4963 17.4733L16.5303 17.546L16.5511 17.5789L16.5773 17.6025L16.6057 17.6189L16.7548 17.6717V17.6734L16.7924 17.6752L16.8281 17.657L16.8771 17.6026L16.9189 17.5862H16.9176ZM21.3493 17.7299L21.3456 17.7117L21.3776 17.6773L21.3851 17.6028L21.3757 17.2389L21.3587 17.1861L21.3645 17.1497L21.3607 17.1079L21.3437 17.0263L21.3417 16.9898L21.3492 16.9136L21.3076 16.5824L21.3417 16.5735V16.5025L21.2773 16.195L21.2491 16.1225L21.2134 16.0896L21.2097 16.0732L21.2379 16.0314L21.2267 15.9659L21.1247 15.7477L21.106 15.7258L21.0816 15.7133L21.0287 15.7078L20.9986 15.7004L20.9949 15.684L21.0194 15.6676L21.0456 15.6604L21.0665 15.6496L21.0776 15.6204L21.0701 15.5931L21.0099 15.5115L20.9401 15.3894L20.8664 15.293L20.8532 15.2603L20.8306 15.2241L20.7627 15.2059L20.7423 15.1767L20.6422 15.1005L20.6252 15.1059L20.5762 15.1295L20.5554 15.1258L20.5178 15.111L20.5009 15.1094L20.4328 15.0549L20.4158 15.0385L20.444 15.0312L20.4649 15.0367L20.4816 15.0476L20.499 15.0566L20.5538 15.0729L20.646 15.0802L20.6761 15.0967L20.7048 15.1421L20.6949 15.104L20.2252 14.3965L20.0784 14.0455L19.0897 12.6506L19.0613 12.5962L18.9743 12.4796L18.9066 12.3469L18.8783 12.3033L18.7838 12.0778L18.7574 11.9814L18.7404 11.9358L18.65 11.8195L18.6633 11.8014L18.6594 11.7832L18.6237 11.7285L18.5479 11.5157L18.5954 11.5267L18.6802 11.5813L18.7799 11.5977L18.795 11.6395L18.7875 11.6905L18.7744 11.7304L18.7555 11.7176L18.746 11.754V11.8032L18.7555 11.8504L18.7705 11.8852L18.8087 11.9142L18.8519 11.9251H18.995L19.0163 11.9196L19.0407 11.9088V11.8997L19.0313 11.865V11.8559L19.0444 11.8521L19.0577 11.8573L19.0708 11.8648L19.0783 11.8666L19.1217 11.8559L19.1537 11.8611L19.1782 11.8813L19.1969 11.9157L19.2312 12.0085L19.2463 12.1031L19.2369 12.4195L19.3083 12.8359L19.348 12.9323L19.4481 13.1123L19.6215 13.3198L19.6575 13.3997L19.7366 13.4633L19.7499 13.478L19.7611 13.4999L19.8325 13.5908L19.8121 13.4871L19.5857 13.2544L19.5197 13.1598L19.5044 13.1235L19.4611 13.0596L19.3685 12.8233L19.3346 12.6925L19.3309 12.6395L19.3101 12.6268L19.3215 12.5924L19.2781 12.3579L19.2838 12.3431L19.3006 12.3322L19.3139 12.3104L19.3215 12.2887L19.3234 12.2739L19.3438 12.2667L19.3739 12.2157L19.3928 12.1611L19.3513 12.1194L19.2684 11.9702L19.095 11.7686L18.9495 11.6303L18.7665 11.4067L18.3895 11.0011L18.3683 10.9576L18.3421 10.9174L18.2987 10.8957L18.2647 10.8738L18.2706 10.8282L18.0027 10.4974L17.7913 10.1388L17.6102 9.87721L17.4818 9.71885L17.461 9.67908L17.4422 9.62962L17.4309 9.58444L17.412 9.53906L17.3253 9.437L17.2703 9.29703L17.2439 9.27879L17.2252 9.25519L17.1931 9.13882L17.1761 9.10613L17.1893 9.08607L17.1648 9.07879L17.1478 9.06803L17.1402 9.05165L17.1461 9.02584L17.1327 9.02397L17.1117 9.01675H17.0984V8.937L16.9742 8.67152L16.9291 8.49138L16.9121 8.44601L16.8495 8.37128L16.8232 8.32963L16.7064 8.07664L16.6873 7.97831L16.6814 7.86735L16.6703 7.84562L16.6533 7.83298L16.6363 7.82202L16.6269 7.80919L16.6213 7.73111L16.6079 7.6999L16.5929 7.68023L16.5817 7.673L16.5704 7.66927L16.5553 7.6583L16.5403 7.64213L16.5199 7.60737L16.5046 7.58913L16.4365 7.5529L16.4326 7.54213L16.3951 7.53471L16.3725 7.50368L16.3611 7.46017L16.3592 7.41833L16.348 7.36386V7.34193L16.3669 7.33117L16.3895 7.33653L16.4082 7.3529L16.4235 7.37468L16.431 7.39808L16.4422 7.45476L16.4555 7.49621L16.4798 7.52743L16.5179 7.54749L16.4991 7.47831L16.4705 7.27271L16.4742 7.20541L16.4722 7.16357L16.4572 7.1472L16.4477 7.14366L16.4441 7.13269L16.4385 7.12193L16.4215 7.12006L16.4045 7.12547L16.3761 7.13997L16.365 7.14557L16.3104 7.13461L16.3046 7.11637L16.2876 7.1147L16.2477 7.11081L16.182 7.14184L16.1611 7.14557L16.069 7.13997L16.0458 7.13461L16.0121 7.12198L15.9971 7.12384L15.9743 7.13107L15.9517 7.13274L15.8422 7.11824L15.8082 7.11081L15.7838 7.10005L15.7687 7.09076L15.7442 7.07812L15.7141 7.07645L15.6933 7.07812L15.6746 7.08368L15.4651 7.03648L15.4331 7.02552L15.4139 7.01475L15.3782 7H15.3593L15.3423 7.00187L15.3292 7.00374L15.2989 7.00747L15.2821 7.01101L15.2651 7.02031L15.2557 7.0294L15.2518 7.04017V7.08904L15.2462 7.10187L15.2387 7.11096L15.2198 7.11839H15.2008L15.178 7.11485L15.1669 7.12026L15.163 7.12935V7.15482L15.1612 7.16932L15.1574 7.18196L15.137 7.21096L15.1312 7.22025L15.1295 7.23122L15.1275 7.24385L15.1295 7.26745L15.1482 7.32561V7.35649L15.1426 7.41283L15.1445 7.42758L15.1501 7.45491L15.1576 7.47296L15.169 7.49469L15.1821 7.51474L15.2334 7.56568L15.2465 7.58205L15.2521 7.59301L15.2579 7.61661L15.2616 7.64395L15.2597 7.80938L15.2427 7.96779V8.01479L15.2597 8.08411L15.2616 8.09861L15.2597 8.11828L15.2541 8.12944L15.2427 8.13667L15.186 8.16194L15.1765 8.16381H15.1652L15.1238 8.1584H15.1084L15.0105 8.18554L14.9895 8.1874L14.9725 8.18386L14.9594 8.17831L14.9499 8.17108L14.9349 8.15304L14.8879 8.06754L14.8784 8.04748L14.8765 8.03485L14.8745 8.0201L14.8765 7.99109L14.8803 7.95466V7.9292L14.8765 7.91823L14.8726 7.90707L14.8573 7.88741L14.8461 7.8729L14.7837 7.81636L14.7683 7.79798L14.7647 7.78923L14.7627 7.78013L14.7647 7.77104L14.7722 7.75285L14.7741 7.73647V7.7292L14.7683 7.7261L14.678 7.7352L14.599 7.74247L14.4969 7.75157L14.3728 7.76233L14.231 7.7733L14.0705 7.7878L13.895 7.80211L13.7045 7.81863L13.5005 7.83514L13.2874 7.85319L13.063 7.87143L12.831 7.89109L12.5932 7.90933L12.3517 7.92939L12.1066 7.94763L11.8613 7.96769L11.6158 7.98573L11.3724 8.00378L11.1327 8.02216L10.8987 8.04035L10.6724 8.05673L10.4535 8.07123L10.246 8.08573L10.0499 8.10024L9.86666 8.11307L9.6987 8.12403L9.55002 8.13499L9.41771 8.14409L9.30662 8.15137L9.21772 8.15677L9.15177 8.16051L9.11051 8.16405H9.09755L9.02757 8.16961L9.00865 8.17501L8.8995 8.08765L8.84263 7.93318L8.82565 7.83131L8.80116 7.77664L8.76357 7.72217L8.74276 7.70742L8.71655 7.63657L8.69956 7.61111L8.68452 7.59995L8.64269 7.57836L8.63326 7.56927L8.62576 7.53839L8.62943 7.53112L8.28637 7.57463L7.9429 7.62015L7.60117 7.66386L7.25811 7.70737L6.91464 7.75122L6.57158 7.79286L6.22791 7.83485L5.88444 7.87649L5.54138 7.91646L5.19791 7.95845L4.8525 7.99842L4.50924 8.03839L4.16577 8.07649L3.82271 8.11479L3.4773 8.15476L3.13363 8.19119L3.03586 8.20196L3.02642 8.23858L3.0434 8.35122L3.04147 8.36385L3.00755 8.46218L3.00194 8.48745L3 8.50382V8.51857L3.00556 8.53696L3.01693 8.55662L3.04335 8.58769L3.07151 8.61464L3.18683 8.7022L3.20188 8.72004L3.25645 8.79497L3.29216 8.83327L3.32419 8.85293L3.51087 8.93848L3.52974 8.95131L3.53917 8.95854L3.54479 8.98381L3.54672 9.02004L3.5429 9.10573L3.53361 9.17117L3.50332 9.24029L3.49776 9.26202L3.49582 9.27299L3.50719 9.31109L3.55983 9.42377L3.56177 9.42545L3.60166 9.44216L3.61864 9.45126L3.63904 9.45848L3.68051 9.44752L3.69943 9.45126L3.72198 9.47299L3.73702 9.50386L3.73896 9.53474L3.72004 9.54949L3.66934 9.56768L3.63154 9.60209L3.57656 9.68405L3.5785 9.70042L3.6091 9.71517L3.61293 9.74083L3.59961 9.7661L3.57666 9.78803L3.55045 9.79693L3.49567 9.80248L3.47118 9.81512L3.51071 9.82234L3.55045 9.83665L3.47118 9.8571L3.4467 9.86787L3.42798 9.88262L3.41661 9.89899L3.4035 9.91349L3.37861 9.92446L3.38228 9.94284L3.40544 9.92982L3.45058 9.91177L3.46945 9.91531L3.50515 9.89171L3.80695 9.79339L3.85245 9.76605L3.83934 9.72235L3.86193 9.71325L3.91457 9.6985L3.93349 9.68587L3.93717 9.66227L3.92406 9.60204L3.926 9.57864L3.96553 9.54944L4.0126 9.54034L4.05443 9.52023L4.0656 9.46227L4.07503 9.46768L4.07697 9.47122L4.08253 9.47495H4.09584L4.13711 9.37495L4.14098 9.34408L4.12568 9.30209L4.07672 9.24595L4.06534 9.21645L4.04662 9.14025L4.05223 9.11291L4.08233 9.10382L4.11069 9.11645L4.12379 9.14025L4.14272 9.15844L4.18031 9.1603L4.17664 9.17294L4.1747 9.20008L4.17276 9.21291H4.21984L4.24279 9.2458L4.2561 9.28931L4.27482 9.32019L4.26538 9.3546L4.26732 9.39457L4.28262 9.42004L4.31654 9.4163L4.33541 9.38543L4.33909 9.30185L4.3599 9.24202L4.38994 9.10372L4.39937 9.08553V9.06006L4.37295 9.01989L4.42192 9.04202L4.45252 9.08921L4.47894 9.11802L4.51847 9.08735L4.53158 9.10185L4.53546 9.10908L4.53739 9.11984L4.46757 9.16021L4.43906 9.19108L4.42962 9.22717L4.43712 9.24929L4.44885 9.26025L4.46583 9.26193L4.48838 9.26025L4.49955 9.2692L4.53347 9.31286L4.55428 9.32181H4.59187L4.64083 9.32722L4.68827 9.34393L4.71836 9.3694L4.7203 9.39654L4.68638 9.39113L4.64282 9.37289L4.61252 9.36566L4.48639 9.493L4.44686 9.50563L4.32787 9.52013L4.20137 9.5693L4.12405 9.61463L4.10706 9.62185L4.09396 9.63267L4.08835 9.66217L4.19546 9.63651L4.40488 9.55293L4.73912 9.46935L4.86153 9.45484L4.92228 9.43847L4.96548 9.40898L5.01445 9.42161L5.18995 9.38184L5.35985 9.37274L5.3826 9.35308L5.37679 9.31478L5.37872 9.30381L5.43136 9.30568L5.45584 9.29472L5.47859 9.25475L5.49767 9.24585L5.52602 9.24025L5.55224 9.22722L5.57672 9.21104L5.59754 9.19285L5.59947 9.17481L5.58055 9.11458L5.57494 9.08558L5.59754 9.1164L5.62202 9.13666H5.64242L5.65379 9.10913L5.66884 9.09462L5.68924 9.08735L5.74055 9.08194L5.70062 9.15273L5.69501 9.19103L5.72913 9.21797H5.76692L5.79508 9.19639L5.81956 9.16906L5.84965 9.15455L5.89112 9.14379L5.98196 9.10903L6.02343 9.09826L6.11753 9.10367L6.16129 9.09457L6.19139 9.06016L6.22709 9.12186L6.25739 9.14211L6.29498 9.12737L6.34802 9.09482L6.3519 9.13499L6.33818 9.14949L6.32701 9.16212L6.34629 9.19654L6.42152 9.25844L6.42346 9.27107L6.44386 9.28744L6.4458 9.32014L6.42693 9.34206L6.38373 9.3164L6.36113 9.30745L6.25336 9.29108L6.18935 9.25298L6.15538 9.23823H6.12477L6.09835 9.25642L6.10585 9.27279L6.13457 9.28376L6.16848 9.28543L6.17965 9.29098L6.17598 9.30735L6.16267 9.32333L6.1515 9.33651L6.04949 9.32333L6.02327 9.30549L6.0044 9.28002L5.99129 9.25455L5.98936 9.25642L5.98548 9.25288L5.97625 9.25642L5.96681 9.28189L5.95926 9.3163L5.94789 9.34732L5.92147 9.36369L5.77605 9.34919L5.59881 9.36369L5.56311 9.35642V9.37117L5.56117 9.3749L5.62324 9.40578L5.88745 9.40204L6.27605 9.45671L6.56321 9.50588L6.83089 9.6042L7.02915 9.66984L7.31763 9.82431L7.37027 9.82952L7.34986 9.80986L7.33482 9.79535L7.3516 9.78813L7.38363 9.8134L7.395 9.77716L7.35354 9.74816L7.31034 9.7277L7.28953 9.70263L7.31595 9.6517L7.28586 9.6277L7.26137 9.6043L7.23495 9.58464L7.19348 9.5809L7.14799 9.5954L7.11963 9.61015L7.09515 9.61369L7.05756 9.59009L7.03715 9.55013L7.05393 9.51571L7.09173 9.48837L7.1257 9.47387L7.19374 9.4575L7.21633 9.43739L7.23526 9.39019L7.26922 9.43739L7.30294 9.47382L7.32742 9.50652L7.33324 9.5485L7.35946 9.55391L7.37277 9.53179L7.38394 9.50465L7.40709 9.48828L7.43525 9.47191L7.46534 9.45017L7.48982 9.44477L7.50512 9.47559L7.53904 9.44477L7.58051 9.35013L7.59943 9.328L7.62238 9.33749L7.64687 9.36463L7.68079 9.4191L7.62978 9.42264L7.55786 9.53179L7.50329 9.51748L7.46932 9.52623L7.39352 9.64855L7.35032 9.6811L7.37072 9.70302L7.38965 9.71777L7.40873 9.72834L7.48972 9.75602L7.51231 9.76866L7.53313 9.79599L7.56705 9.78124L7.62203 9.79221L7.67273 9.81767L7.7067 9.83926L7.70863 9.82495L7.71425 9.81586L7.71613 9.80489L7.71425 9.78685L7.75765 9.79762L7.78968 9.78311L7.81977 9.76138L7.8616 9.75415L7.86354 9.76866L7.83518 9.79766L7.83151 9.83557L7.85022 9.85602L7.88802 9.83203L7.90113 9.86866L7.90674 9.95061L7.93316 9.98871L7.96713 10.0013L7.986 9.97775L8.00472 9.91959L8.02359 9.90509L8.02553 9.91049L8.02726 9.92313L8.03711 9.9339H8.05409L8.0898 9.92682L8.10657 9.93203L8.11989 9.95789L8.0954 9.97239L8.06144 9.98689L8.04613 10.0066L8.01553 10.0302L7.93454 10.0105L7.84966 9.96512L7.80799 9.91959L7.76459 9.88872L7.61764 9.86325L7.61203 9.81954L7.4761 9.81212L7.45912 9.81954L7.48171 9.84501L7.60413 9.93572L7.63651 9.94501L7.94392 10.1304L7.90052 10.1358L7.84594 10.1105L7.79463 10.0705L7.76454 10.0339L7.74755 10.0358L7.75505 10.0579L7.76449 10.0743L7.77392 10.0869L7.78703 10.0995L7.85895 10.1453L8.12295 10.2269L8.16442 10.2525L8.20782 10.2851L8.24582 10.3269L8.26469 10.3689L8.28509 10.4034L8.36609 10.4816L8.39445 10.5308L8.4095 10.7035L8.4151 10.7308L8.42454 10.7399L8.41123 10.7637L8.39083 10.7908L8.37043 10.8037L8.34013 10.8072L8.32141 10.7981L8.25352 10.7217L8.22292 10.6745L8.19844 10.6217L8.18533 10.5654L8.16834 10.3982L8.15891 10.3746L8.13442 10.4326L8.15702 10.5564L8.22664 10.7547L8.25347 10.7874L8.293 10.82L8.34003 10.8328L8.41735 10.7856L8.46672 10.7819L8.51936 10.7837L8.56644 10.7783L8.80983 10.6655L8.89873 10.6489L9.07384 10.6452L9.10067 10.6256L9.13637 10.5547L9.18921 10.54L9.2193 10.4727L9.24572 10.453L9.27776 10.4365L9.30438 10.4092L9.3308 10.393L9.36839 10.4038L9.31769 10.5147L9.31188 10.5364L9.32718 10.5766L9.35146 10.5675L9.37788 10.5346L9.40624 10.5166L9.4477 10.5021L9.47968 10.4766L9.52518 10.4311L9.55721 10.4166L9.61561 10.4018L9.6401 10.3838L9.73655 10.2658L9.79479 10.2111L9.8968 10.1693L9.97841 10.0857L10.0876 10.0021L10.114 10.0239L10.15 10.0148L10.1896 9.99673L10.231 9.98198L10.3215 9.97829L10.4084 9.9928L10.4104 10.0073L10.4028 10.0164L10.3858 10.0474L10.4424 10.0019L10.4611 9.94206L10.4385 9.89289L10.3689 9.87839L10.2311 9.88026L10.2085 9.87116L10.201 9.84383L10.1916 9.8219L10.1559 9.82564L10.1767 9.7838L10.2124 9.78936L10.2577 9.80902L10.3348 9.82166L10.3936 9.83596H10.4237L10.4276 9.82721L10.3766 9.78169L10.3596 9.76202L10.3537 9.77112L10.3403 9.78936L10.3347 9.80012L10.3216 9.78046L10.3141 9.76762L10.3178 9.74796L10.3197 9.74255L10.3178 9.7366L10.3066 9.71876L10.3197 9.69865L10.3292 9.7042L10.3348 9.70774L10.3518 9.71315L10.3443 9.67338L10.356 9.65145L10.4274 9.59865L10.4519 9.59137L10.5215 9.58601L10.5235 9.57505L10.5329 9.54791L10.546 9.51689L10.563 9.49683H10.5746L10.5859 9.4987L10.5954 9.50406L10.5934 9.50961L10.6386 9.50239L10.6499 9.49511L10.6594 9.47151L10.6725 9.46429L10.6858 9.46596L10.6933 9.46969L10.6989 9.47692L10.7045 9.47879L10.7234 9.48955L10.7365 9.51876L10.7515 9.5368L10.7741 9.52584L10.8142 9.49142L10.9685 9.45701L11.0348 9.41851L11.0762 9.40961L11.2556 9.51315L11.48 9.60961L11.5835 9.63655L11.6329 9.61871L11.6875 9.66423L11.7176 9.68228L11.7571 9.68414L11.7855 9.69511L11.8931 9.75145L11.9176 9.77338L11.9401 9.80052L12.0344 9.87156L12.061 9.92229L12.0724 9.93306L12.095 9.94255L12.1195 9.95518L12.1326 9.97878L12.1515 10.0349L12.1571 10.0589L12.1779 10.097L12.2174 10.1385L12.2629 10.1771L12.3025 10.2006L12.3835 10.2225L12.4004 10.2314L12.4288 10.2535L12.4492 10.2643L12.4966 10.2752H12.5418L12.5815 10.2806L12.6116 10.308L12.6286 10.3571L12.6342 10.4134L12.6271 10.4627L12.6082 10.4936L12.6252 10.5155L12.6405 10.548L12.648 10.5828L12.6424 10.6064L12.7029 10.639L12.7332 10.648L12.7558 10.6425L12.8858 10.7518L12.9538 10.7901L13.0067 10.7737L13.0574 10.8045L13.1033 10.839L13.1823 10.9172L13.2313 10.9827L13.2389 10.9864L13.25 11.0353L13.2595 11.061L13.2689 11.0755L13.2934 11.0937L13.3314 11.1101L13.3748 11.1209H13.4087L13.4425 11.13L13.467 11.1592L13.4878 11.1902L13.5067 11.2083L13.4839 11.2356L13.4878 11.2573L13.5067 11.2721L13.5389 11.274L13.5542 11.2847L13.5597 11.3121L13.5748 11.3392L13.6124 11.3464L13.6407 11.3411L13.6558 11.3357L13.6934 11.3156L13.7237 11.3065L13.7861 11.2957L13.8106 11.2831L13.8521 11.3011L13.9047 11.314L13.956 11.3084L13.9936 11.2703L14.0067 11.2831L14.0351 11.3028L14.0463 11.3154L14.0633 11.3009L14.1028 11.2738L14.1103 11.321L14.1217 11.3572L14.1443 11.3846L14.1861 11.3974L14.1423 11.4318L14.1747 11.4701L14.2651 11.5211V11.5301L14.2765 11.6047V11.6283L14.2671 11.6552L14.2841 11.6719L14.3103 11.681L14.3386 11.6792L14.3311 11.7283L14.35 11.7685L14.4596 11.8664L14.4784 11.8776L14.4952 11.8811L14.5386 11.8795L14.5556 11.883L14.5842 11.9103L14.5955 11.9447L14.5975 12.0648L14.605 12.0903L14.6315 12.1591L14.567 12.1011L14.5273 12.0866L14.503 12.1282L14.5142 12.1483L14.5652 12.1974L14.5825 12.2266L14.59 12.2357L14.6051 12.232L14.6221 12.2339L14.6316 12.2535L14.6469 12.3355L14.6544 12.3591L14.6638 12.3753L14.6655 12.3918L14.6502 12.4173L14.6465 12.4369L14.6502 12.457L14.6597 12.4766L14.6711 12.4914L14.6558 12.5386L14.6822 12.7461L14.671 12.8225V12.8515L14.6898 12.9823L14.6558 13.0716L14.6616 13.0878L14.6635 13.1025L14.6427 13.1369L14.5956 13.3514L14.6107 13.3442L14.6163 13.3388L14.6239 13.3297L14.6333 13.3606L14.6202 13.397L14.5845 13.4734L14.5785 13.5442L14.571 13.5771L14.5465 13.6136L14.5239 13.6045L14.5183 13.637L14.5239 13.6862L14.5294 13.7172L14.552 13.7771L14.5709 13.8118L14.5977 13.8427L14.5807 13.8682L14.5784 13.8972L14.5863 13.9626L14.5747 14.1918L14.5313 14.3956L14.5143 14.3629L14.5124 14.3192L14.5218 14.2773L14.5369 14.2411L14.5182 14.2664L14.4992 14.3045L14.4861 14.3483L14.4842 14.3938L14.4973 14.4411L14.5293 14.5063L14.5388 14.5373L14.5784 14.5901L14.7369 14.6992L14.7803 14.7738L14.7938 14.8119L14.8202 14.8628L14.8523 14.903L14.8806 14.9046L14.8767 14.8738L14.8541 14.8228L14.8071 14.7446L14.7747 14.7046L14.6203 14.5845L14.5958 14.5555L14.5977 14.5193L14.6484 14.5537L14.7438 14.609L14.7915 14.6455L14.8403 14.7001L14.8706 14.7109L14.9195 14.709L14.9251 14.7202L14.9307 14.7728L14.9402 14.7928L14.9533 14.8017L14.9686 14.8036L15.0103 14.7965L15.0442 14.7765L15.0631 14.7382V14.6926L15.0422 14.6562L15.0573 14.5779V14.5615L15.0612 14.5468L15.0857 14.5048L15.0913 14.4795L15.0857 14.4522L15.0667 14.403L15.0573 14.3738L15.1215 14.3231L15.1402 14.3047L15.0461 14.3304L14.9553 14.3107L14.8648 14.2759L14.7742 14.2578L14.8048 14.2107L14.9009 14.1669L14.9235 14.1325L14.8425 14.1451L14.8199 14.1432L14.818 14.1325L14.8294 14.1124L14.8274 14.1015L14.8349 14.0741V14.0545L14.8274 14.0381L14.8029 14.0033L14.7935 13.9837L14.897 14.0525L14.8914 14.0289V14.0198L14.9047 14.0179L14.9273 14.0415L14.9593 14.0597L15.0256 14.0814L15.0294 14.0996L14.9857 14.1234L14.9896 14.1415L15.0596 14.1326L15.118 14.1361L15.1632 14.1616L15.1877 14.2198L15.1935 14.3399L15.2066 14.3979L15.2426 14.4418L15.2615 14.4435L15.3425 14.4346L15.3481 14.4089L15.3406 14.3835L15.3202 14.3508L15.3088 14.2636L15.3108 14.2236L15.3258 14.1909L15.3692 14.1599L15.4088 14.158L15.4394 14.1816L15.477 14.2781L15.5373 14.3727L15.5523 14.4274L15.541 14.4655L15.4808 14.5545L15.4694 14.5818L15.4144 14.6346L15.405 14.6527L15.3814 14.7254L15.3683 14.7381L15.3475 14.7472L15.3324 14.7617L15.3305 14.7912L15.3268 14.8108L15.2722 14.8692L15.2514 14.922L15.2439 14.9746L15.2286 15.022L15.185 15.0601L15.1981 15.0818L15.2056 15.0891L15.1852 15.1239L15.2114 15.1075L15.2458 15.0965L15.2363 15.1274L15.2095 15.1547L15.1475 15.1819L15.1154 15.2057H15.1494L15.1775 15.2109L15.2039 15.2219L15.2308 15.2384L15.1833 15.2475L15.1212 15.2274L15.0647 15.22L15.0327 15.2674L15.0494 15.2819L15.0664 15.2892H15.0834L15.0967 15.2765L15.1098 15.2747L15.1154 15.2984V15.32L15.1079 15.342L15.0948 15.362L15.0664 15.342L15.0024 15.3219L14.9775 15.3095L14.9625 15.2929L14.9154 15.2182L14.9003 15.22L14.9135 15.2583L14.9758 15.3602L15.0064 15.3911L15.044 15.4004L15.1288 15.4022L15.227 15.4511L15.2723 15.4675L15.308 15.4929L15.3514 15.606L15.4136 15.6913L15.4271 15.7515L15.4118 15.7532L15.4006 15.7406L15.3931 15.7352L15.3837 15.7314L15.3742 15.724L15.3818 15.7768L15.4194 15.8187L15.4631 15.8606L15.4988 15.9098L15.5139 15.9063L15.5101 15.8734L15.5345 15.886L15.5554 15.9098L15.5685 15.9425L15.5741 15.9825L15.561 15.9734L15.5515 15.9624L15.5364 15.9371L15.5568 15.9897L15.6267 16.0806L15.6627 16.1642L15.9306 16.5226L15.9531 16.568L15.9645 16.5752L15.9776 16.5825L16.0058 16.5934L15.989 16.5572L15.9512 16.5061L15.9381 16.468L16.0077 16.5244L16.1097 16.7191L16.1832 16.7518L16.204 16.7499L16.2191 16.7518L16.2531 16.7572L16.2741 16.7644L16.2986 16.7826H16.3139L16.327 16.7789L16.3327 16.7716L16.3364 16.7662L16.3422 16.7625L16.3533 16.7662L16.3798 16.7859L16.3873 16.7896L16.3986 16.7787L16.4139 16.759L16.4234 16.7387L16.4251 16.7317L16.4476 16.7534L16.4684 16.8209L16.4858 16.8062L16.4952 16.7736L16.4875 16.737L16.4495 16.6334L16.3988 16.5499L16.3835 16.5351L16.3667 16.5208L16.3233 16.4516L16.2949 16.4278L16.2818 16.4498L16.2533 16.4316L16.174 16.3627L16.142 16.3228L16.1308 16.3044L16.1818 16.3191L16.21 16.3427L16.2684 16.4084L16.3027 16.4119L16.3365 16.3864L16.3573 16.3773L16.3554 16.4192L16.4043 16.4592L16.4325 16.4755L16.4419 16.4664L16.4514 16.441L16.4795 16.4337L16.5044 16.4192L16.5083 16.3809L16.5629 16.3865L16.6005 16.372L16.6362 16.3501L16.7251 16.3175L16.7665 16.2645L16.8004 16.2483L16.7851 16.3264L16.7759 16.3447L16.757 16.3594L16.71 16.3776L16.608 16.4594L16.5704 16.4994L16.5723 16.5302L16.625 16.5594L16.657 16.5704L16.6778 16.5901L16.6931 16.6484L16.6987 16.7029L16.6908 16.9903L16.6987 17.0447L16.7157 17.0812L16.7703 17.1594L16.7873 17.2013L16.7928 17.2576L16.7892 17.2957V17.3267L16.8156 17.3649L16.8571 17.3976L16.8852 17.3922L16.912 17.3686L16.9552 17.3429L16.961 17.3758L16.9797 17.3632L17.0307 17.3396L17.0457 17.3267L17.0532 17.3139L17.0908 17.1159L17.1078 17.0739L17.1685 16.9865L17.2061 16.9447L17.2401 16.923L17.2815 16.912L17.3309 16.872L17.361 16.8538L17.3571 16.8847L17.3477 16.9083L17.3346 16.9286L17.3136 16.9482L17.2891 16.9391L17.2665 16.9522L17.2495 16.9774L17.2457 17.001L17.1627 17.1102L17.1423 17.1446L17.1612 17.2046L17.1309 17.2775L17.0799 17.3427L17.0253 17.3919L17.0178 17.4045L17.0101 17.4155L16.9933 17.4229L16.9763 17.4175L16.9555 17.3937H16.9461L16.9368 17.4192V17.4536L16.9443 17.49L16.9518 17.5118L16.963 17.4921L16.9783 17.503L16.986 17.5047L17.0122 17.4851L17.1465 17.5325L17.1935 17.5234L17.2047 17.5288L17.2161 17.5379L17.2331 17.5433L17.2425 17.5344L17.2481 17.5122L17.2292 17.4522L17.2217 17.4178L17.2443 17.4522L17.3027 17.5215L17.3257 17.5559L17.3446 17.6015L17.3747 17.7505L17.3594 17.7522L17.3555 17.736L17.3402 17.7379L17.3555 17.7779L17.4422 17.8852L17.4459 17.8924L17.4478 17.9087V17.9923L17.5004 18.1778L17.5706 18.3435L17.5876 18.3416L17.5818 18.3143L17.5782 18.2907L17.5801 18.265L17.5857 18.2415L17.6534 18.407L17.6987 18.4633L17.7726 18.5016L17.7573 18.5268L17.7687 18.5544L17.7932 18.5798L17.8215 18.5943H17.8441L17.8948 18.5815L17.9288 18.5759L17.9251 18.6051L17.9137 18.6417L17.8967 18.6705L17.8778 18.6853L17.8497 18.6779L17.8196 18.6563L17.7912 18.6454L17.7611 18.6615L17.7893 18.7307L17.8007 18.7472L17.8271 18.7688L17.8365 18.7726H17.8535L17.8666 18.7707L17.8627 18.7545L17.8722 18.7419L17.8778 18.7347L17.8835 18.7163L17.8872 18.7018L17.9061 18.7181L17.9326 18.7289L17.9592 18.7272L17.9856 18.7181L18.006 18.6999L18.0174 18.6655L18.0363 18.6437L18.0533 18.669L18.0795 18.6855L18.1059 18.6909L18.1229 18.6818L18.1304 18.6966L18.136 18.702L18.1379 18.7074L18.1324 18.7275L18.1493 18.7184L18.1723 18.6929L18.1817 18.6856L18.2021 18.6892L18.2361 18.7055L18.2871 18.7165L18.3172 18.7384L18.3417 18.7438L18.3661 18.7074L18.3947 18.7257L18.4304 18.7601L18.4605 18.7762L18.4906 18.7818L18.5585 18.7837L18.5885 18.7892L18.651 18.8182L18.7131 18.8565L18.766 18.9129L18.7864 18.9274L18.7357 18.9818L18.7187 19.0111L18.7488 19.0183L18.7619 19.031L18.7997 19.0912L18.8188 19.1092H18.8396L18.9167 19.1001L18.9262 19.144L18.9393 19.1693L18.9619 19.1854L18.9658 19.2183L19.0282 19.2947L19.0716 19.3985L19.0848 19.4202L19.1131 19.4256L19.1621 19.4059L19.1866 19.4113L19.1922 19.4277L19.1866 19.4496L19.1752 19.466L19.1376 19.5004L19.1714 19.5441L19.2603 19.6112L19.3092 19.6967L19.3167 19.7203L19.3356 19.7677L19.3431 19.793L19.3657 19.8149L19.4847 19.8788L19.5751 19.8805L19.5884 19.884L19.6316 19.9005H19.7149L19.7601 19.9132L19.9131 20.0241L19.9356 20.0643L19.9225 20.1206L19.8885 20.155L19.8411 20.1768L19.7901 20.1824L19.7469 20.1733L19.745 20.1588L19.7581 20.1516L19.7769 20.1385L19.7883 20.1331L19.7844 20.1167L19.5995 20.0751L19.5656 20.0604H19.5587L19.5061 19.9929L19.4871 19.9767L19.4607 19.9587L19.4301 19.9458L19.402 19.9438L19.4095 19.9076L19.3738 19.9458L19.3493 20.033L19.3418 20.1293L19.3531 20.2059L19.3927 20.275L19.442 20.3438L19.5682 20.4238L19.6039 20.4256L19.7059 20.384L19.7964 20.3604L19.8683 20.3329L19.955 20.3165L19.9965 20.3017L20.0379 20.2382L20.0472 20.2328L20.1041 20.182L20.1436 20.2073L20.2134 20.2092L20.2096 20.2309L20.2115 20.2493L20.2341 20.2512H20.2454L20.251 20.2437L20.2549 20.222L20.2702 20.2346L20.2837 20.24L20.2968 20.2438L20.3082 20.2493L20.3102 20.2382L20.3121 20.2293L20.3158 20.222L20.3196 20.211L20.3459 20.2328L20.3854 20.24L20.4232 20.2346L20.4494 20.2255L20.4872 20.1763L20.5158 20.1583L20.5536 20.1728L20.5667 20.1691L20.5761 20.1473L20.5723 20.1325L20.5628 20.118L20.5536 20.0961L20.5648 20.087L20.6458 20.0545L20.6421 20.0671L20.6402 20.069H20.6363L20.6307 20.0745L20.6683 20.0799L20.6834 20.0416L20.6892 19.9869L20.7045 19.9433L20.7365 19.9271L20.8287 19.9107L20.857 19.8998L20.8682 19.9143L20.872 19.9216L20.8776 19.9307L20.8572 19.9379L20.8478 19.9453L20.8439 19.9563L20.8383 19.9726L20.8553 19.978L20.8684 19.987L20.8817 19.9978L20.8912 20.0125L20.9272 19.9816L20.9724 19.9798L21.0138 20.005L21.0308 20.0562L21.0461 20.0543L21.0308 20.0051L20.9968 19.9743L20.9517 19.9581L20.9004 19.9616L20.9233 19.9272L20.9648 19.8981L20.9987 19.889L21.0062 19.9254L21.0383 19.9308L21.0948 19.9853L21.1347 20.0072L21.1328 19.9834L21.0967 19.9618L21.0628 19.9308L21.0608 19.8834L21.0591 19.8565L21.0892 19.8073L21.0929 19.7835V19.762L21.1004 19.7419L21.182 19.6127L21.2534 19.5291L21.2497 19.5001L21.2308 19.4836L21.1988 19.4728L21.1763 19.4564L21.1838 19.4073L21.1969 19.3708L21.1858 19.3601L21.1688 19.3528L21.1557 19.3419L21.1387 19.2909L21.1349 19.2473L21.1443 19.1999L21.1726 19.1419L21.1802 19.0999L21.1593 18.9819V18.9348L21.2139 18.8601L21.2423 18.751L21.2341 18.6896L21.2378 18.6658L21.2586 18.6407L21.279 18.6333L21.3016 18.6298L21.3244 18.615L21.3491 18.5639L21.33 18.4622L21.3473 18.395L21.3454 18.3059L21.4075 18.1896L21.4264 18.1858L21.4395 18.2167L21.4528 18.2786L21.4565 18.3896L21.4754 18.4896L21.4907 18.486L21.3946 17.7767L21.3493 17.7299ZM19.1643 12.0394V11.9611L19.1136 11.8957L19.0833 11.9029L19.0588 11.9193L19.0175 11.9611L18.9738 11.9955L18.9643 12.0156L18.9587 12.0574L18.9117 12.0647L18.9061 12.132L18.9265 12.2102L18.9529 12.2446L19.0075 12.4357L19.0266 12.4793L19.068 12.5248L19.1868 12.743L19.2343 12.803L19.2225 12.7666L19.1999 12.7304L19.1698 12.6867L19.1604 12.6594L19.1585 12.6377L19.1623 12.5921L19.1209 12.294L19.1245 12.2012L19.1643 12.0394ZM19.2626 12.8486L19.274 12.8742L19.2834 12.9032V12.9051L19.3002 12.9016L19.2909 12.8794L19.2381 12.8088L19.2494 12.825L19.2381 12.8088L19.2626 12.8486ZM19.9718 13.8397L20.0264 13.9014L20.0358 13.9217L20.0453 13.9507L20.0759 13.996L20.0984 14.0652L20.121 14.0979L20.1474 14.1235L20.1739 14.1616L20.3324 14.5089L20.3758 14.5799L20.385 14.6089L20.3945 14.6217L20.4284 14.6399L20.4378 14.6509L20.4529 14.6853L20.6416 14.9472L20.6828 15.0364L20.738 15.0817L20.7832 15.1456L20.7812 15.1402L20.7851 15.1456L20.7643 15.091L20.2001 14.1725L20.187 14.1362L20.1739 14.0871L20.1549 14.0379L20.106 13.9543L19.9887 13.8179L19.9247 13.727L19.8907 13.6323L19.8813 13.6251L19.8738 13.6197L19.8701 13.6143L19.8681 13.6015L19.8662 13.6034V13.6015L19.8509 13.6087L19.8453 13.616L19.8378 13.6251L19.8758 13.6723L19.9718 13.8397ZM21.5337 23L21.547 22.9855L21.5511 22.9745L21.5414 22.9836L21.5337 23ZM21.7451 22.8745L21.7604 22.8671L21.7525 22.8618L21.7451 22.8745ZM21.7794 22.8634L21.7925 22.8526L21.7813 22.8507L21.7794 22.8634ZM21.9075 22.7798H21.9245L21.9225 22.767L21.9075 22.7798ZM21.9925 22.7469L21.9908 22.7651L22 22.7597L21.9925 22.7469ZM14.6082 12.5322L14.6233 12.5431L14.6327 12.5467L14.6385 12.5485L14.6402 12.5431V12.534L14.6347 12.5249L14.6007 12.5268L14.597 12.5303L14.6082 12.5322ZM14.5496 11.9648L14.5513 11.9776L14.5571 11.9903L14.5759 11.9975L14.5801 11.9903L14.5778 11.983L14.5722 11.9776L14.5666 11.9447L14.5552 11.9284L14.5327 11.923L14.5213 11.9321L14.5438 11.9429V11.9557L14.5496 11.9648ZM14.5777 12.2431L14.5624 12.2538L14.5681 12.2629L14.608 12.2484L14.5968 12.2447L14.5777 12.2431ZM14.5457 12.2922L14.5326 12.2904L14.5212 12.2978L14.5232 12.3067L14.5307 12.3104L14.5251 12.3123L14.5176 12.314L14.5081 12.3158L14.5101 12.3231L14.5421 12.3303L14.5438 12.3394L14.5533 12.3448L14.5627 12.3432L14.5665 12.3413L14.5741 12.3212L14.5721 12.2922L14.5551 12.2887L14.5457 12.2922ZM14.58 12.3775L14.5702 12.3703V12.3815L14.5777 12.3831L14.58 12.3775ZM14.5212 12.176L14.5025 12.1704L14.4872 12.1741L14.4835 12.187L14.491 12.2015L14.5005 12.2069V12.216L14.493 12.2305V12.2377L14.5041 12.2396L14.5267 12.2342L14.542 12.216L14.5381 12.1924L14.5212 12.176ZM14.5608 12.465L14.5702 12.476L14.5646 12.4596L14.5608 12.465ZM14.4045 11.9796L14.3987 11.9832V11.9942L14.4063 11.9851L14.414 11.9886L14.4157 11.9942L14.429 11.9759L14.4176 11.9685L14.4082 11.9724L14.4158 11.9778L14.414 11.9797L14.4045 11.9796ZM14.4232 12.096L14.4063 12.1014L14.397 12.1122L14.4045 12.1178L14.4215 12.1049L14.4291 12.1032L14.4366 12.1049L14.446 12.1068L14.4516 12.1014L14.4441 12.0976L14.4232 12.096ZM14.382 12.0087L14.38 12.0213L14.3912 12.025L14.3895 12.0195L14.382 12.0087ZM14.5117 11.9724L14.5212 11.9704V11.9649L14.51 11.9594L14.4986 11.9559L14.4873 11.9575L14.4742 11.9631L14.461 11.974L14.4647 11.9831L14.4911 11.974L14.5117 11.9724ZM14.374 12.1923L14.3817 12.1888V12.1797L14.3759 12.1851L14.374 12.1923ZM14.1135 11.4412L14.1041 11.443L14.0927 11.4503L14.091 11.4687L14.1022 11.4759L14.1155 11.4704L14.1267 11.4573L14.1247 11.4466L14.1135 11.4412ZM13.5932 11.4229L13.5799 11.4103L13.5629 11.4012L13.5479 11.4176L13.5518 11.452L13.5722 11.4574L13.5986 11.4412L13.6136 11.434L13.6061 11.4304L13.5932 11.4229ZM14.4705 11.9105L14.4873 11.9178L14.5026 11.9195L14.5102 11.9122L14.5063 11.9087L14.4987 11.9068L14.4912 11.9031L14.4799 11.8996L14.4668 11.9031L14.4593 11.9087L14.4649 11.9122L14.4705 11.9105ZM14.4967 12.3342V12.3288L14.4856 12.3269L14.4761 12.3377L14.4798 12.3432L14.4873 12.3395L14.4967 12.3342ZM18.3512 21.9926L18.3398 21.9854L18.3267 21.9798H18.3248L18.3115 21.9817L18.2702 22.0287L18.2549 22.0399L18.2304 22.0416L18.204 22.038L18.1851 22.0452L18.1815 22.0854L18.1832 22.0835V22.0854L18.2511 22.0653L18.2831 22.0506L18.3035 22.0326L18.311 22.016L18.3149 21.9979L18.3243 22.0089H18.328V21.9961L18.3355 22.0052L18.343 22.0141L18.3525 22.0195H18.3544L18.3675 22.0213L18.36 22.0033L18.3512 21.9926ZM18.1909 18.7809V18.7699L18.1817 18.7662L18.1742 18.7718L18.1722 18.7937L18.1798 18.8009L18.1892 18.7918L18.1909 18.7809ZM17.4607 22.0709L17.4306 22.0671L17.4061 22.0762L17.4024 22.0853L17.4155 22.0816L17.4269 22.0799L17.4437 22.0872L17.4645 22.0944L17.489 22.1251L17.4926 22.1379L17.4965 22.1122L17.4871 22.0872L17.4607 22.0709ZM17.457 22.1727V22.1799L17.4795 22.169L17.489 22.1578L17.4795 22.1616L17.457 22.1727ZM17.4117 22.1872L17.41 22.1854L17.4061 22.1872L17.41 22.1908L17.4117 22.1926L17.4136 22.1908L17.4117 22.1854V22.1872ZM18.5229 21.8943L18.5209 21.8961V21.8943L18.4627 21.9195L18.4363 21.9251L18.4118 21.9123H18.4099L18.3967 21.9141L18.3873 21.9306L18.3854 21.9451L18.3912 21.9561L18.4065 21.9671L18.4082 21.9816L18.3895 22.0106L18.382 22.0195L18.3839 22.0179V22.0195L18.5476 21.9433L18.5306 21.9052L18.5229 21.8943ZM18.5987 18.9318L18.6062 18.9339L18.6042 18.9264L18.6098 18.9192L18.6173 18.9064L18.6287 18.8956L18.6513 18.8901L18.6646 18.8791L18.6569 18.8663L18.6382 18.8575L18.6212 18.852L18.5756 18.8282L18.5567 18.8155L18.5133 18.8029L18.4929 18.8282L18.4949 18.852L18.5024 18.8663L18.5119 18.9193L18.525 18.9155L18.54 18.8959L18.5589 18.8994L18.589 18.9249L18.5987 18.9318ZM18.6494 18.8956L18.6268 18.9152L18.6307 18.9279L18.6928 18.9409L18.7098 18.9337L18.7229 18.9153L18.7117 18.8989H18.6853L18.6722 18.9045L18.6646 18.9117L18.6569 18.9007L18.6494 18.8956ZM17.3891 22.1398L17.393 22.138L17.3891 22.1344V22.1398ZM18.2475 18.7374L18.2288 18.7226L18.2004 18.7245L18.1987 18.7464L18.2062 18.759L18.2193 18.768L18.2343 18.7717L18.2399 18.7936L18.2418 18.8319L18.2494 18.8392L18.2644 18.7955L18.2663 18.7753L18.2588 18.761L18.2457 18.75L18.2382 18.7446L18.2419 18.7427L18.2475 18.7374ZM18.3588 18.8264L18.3663 18.8319L18.4024 18.8299L18.4193 18.8446L18.4268 18.8556L18.4382 18.868L18.4569 18.8809L18.4702 18.8736L18.4739 18.8556L18.4645 18.8411L18.457 18.8355L18.4494 18.8154L18.4269 18.781L18.4043 18.7682L18.37 18.781L18.3606 18.7866L18.3419 18.7957L18.3135 18.8137L18.3098 18.8429L18.3249 18.8539L18.3324 18.8593V18.8682H18.3361V18.8283L18.3455 18.8193L18.3588 18.8264ZM17.9341 18.7717L17.906 18.7827L17.8834 18.7846L17.8625 18.79L17.8608 18.8136L17.8683 18.8264L17.8739 18.8319L17.8871 18.8392L17.8946 18.8501L17.904 18.8661L17.9193 18.8698L17.9477 18.8679L17.9593 18.8536L17.9782 18.8027L17.9668 18.7789L17.9341 18.7717ZM15.7158 22.2673L15.7175 22.2635L15.7138 22.2544L15.7158 22.2673ZM15.7269 22.2544H15.7308L15.7288 22.2472L15.7269 22.2544ZM15.74 22.2635L15.742 22.2563H15.7384L15.74 22.2635ZM15.5985 22.2691L15.606 22.2617L15.5985 22.2544V22.2691ZM15.2896 15.633L15.1893 15.551L15.1216 15.462L15.0952 15.4475L15.0913 15.4456L15.0537 15.4346L15.0688 15.4638L15.1027 15.5021L15.1216 15.5183L15.1459 15.5527L15.2575 15.6455L15.3027 15.6691V15.6672L15.3046 15.6691L15.2896 15.633ZM16.6063 17.0695L16.5553 17.0314L16.5063 17.0225V17.0241L16.5044 17.0225L16.4738 17.0278L16.5156 17.0931L16.5702 17.1641L16.6136 17.2316V17.2949L16.6512 17.337L16.7062 17.4494L16.744 17.4933H16.7457L16.776 17.4987L16.7721 17.4566L16.7345 17.3351L16.7119 17.304L16.6681 17.2568L16.6324 17.2077L16.6382 17.1186L16.6063 17.0695ZM17.3743 22.1907L17.3817 22.1962L17.3856 22.1907L17.3781 22.1853L17.3743 22.1907ZM15.7554 22.1998V22.1979L15.7516 22.2016L15.7535 22.2052H15.7554L15.7572 22.2035V22.1999L15.7554 22.1998ZM17.3706 22.1671L17.3743 22.1708L17.3706 22.1578V22.1671ZM16.3873 17.2094L16.3382 17.1241L16.3251 17.0678L16.3081 17.0587L16.3043 17.0568L16.2987 17.055L16.2892 17.0568L16.3362 17.1659L16.3627 17.2113L16.4041 17.2605L16.4022 17.2586L16.4041 17.2623L16.3873 17.2094ZM18.7587 21.6652L18.7379 21.6414L18.7304 21.6394L18.7286 21.6413V21.6394L18.7229 21.6413L18.7192 21.6394L18.7172 21.6268L18.7022 21.6287L18.6947 21.6833L18.6966 21.6814V21.6833L18.7211 21.6814L18.7361 21.685L18.7398 21.6924L18.7304 21.7084L18.7342 21.7268H18.7362L18.7757 21.7175L18.8002 21.7247L18.8137 21.7485L18.8081 21.7814L18.7944 21.7851L18.7774 21.7576H18.7757L18.7437 21.7431L18.6852 21.7377L18.6739 21.7359V21.7378L18.6721 21.7359L18.6891 21.7504L18.7044 21.7614L18.742 21.7761L18.7289 21.7997L18.7231 21.8051L18.7175 21.814L18.7061 21.8248L18.6591 21.8558L18.6365 21.8469H18.6346L18.6101 21.8616L18.5721 21.9051L18.574 21.9213L18.5759 21.9194V21.9213L18.7325 21.8505L18.8044 21.8051L18.8554 21.7577L18.8516 21.7395L18.7587 21.6652ZM16.2532 16.8676L16.2192 16.8169L16.2061 16.8021H16.2042L16.1967 16.804L16.1873 16.8206L16.2154 16.8603L16.2418 16.9783L16.2683 17.0257V17.0238L16.2704 17.0257L16.2781 16.9692L16.2723 16.9185L16.2532 16.8676ZM19.4665 19.9485L19.4869 19.9593L19.5114 19.9684L19.5133 19.9448L19.517 19.9319L19.5133 19.9228L19.5039 19.9046H19.485L19.4606 19.9156H19.4516L19.4572 19.9102L19.4421 19.9083L19.4304 19.9228L19.4665 19.9485ZM19.7945 20.0756L19.8059 20.063L19.821 20.0593L19.8059 20.0431L19.7906 20.0448V20.0485L19.7944 20.052L19.7964 20.0539L19.7888 20.0684L19.7945 20.0756ZM19.8491 20.1373L19.8721 20.1392H19.874L19.8684 20.121L19.8854 20.1103L19.8946 20.103L19.889 20.0991V20.09L19.872 20.0865L19.8585 20.0884L19.8664 20.0956L19.8626 20.1066L19.8491 20.1373ZM19.6057 19.9485L19.6227 19.9301L19.6171 19.921L19.5757 19.9175L19.5626 19.9229L19.5606 19.9374L19.5701 19.9502L19.5812 19.9593L19.6057 19.9485ZM19.5456 19.9899L19.5587 20.0194L19.5812 20.0449L19.602 20.0487L19.6152 20.0356L19.621 20.0194L19.6341 19.9884L19.6227 19.9632L19.6115 19.9594H19.5832L19.555 19.9685L19.5456 19.9899ZM19.5362 19.8899L19.5381 19.8827H19.5005L19.4552 19.8756L19.442 19.8827L19.4382 19.8975L19.4552 19.8993L19.5362 19.8899ZM15.1627 15.122H15.161L15.1516 15.1199L15.1477 15.1292L15.1401 15.1509L15.1421 15.149V15.1509L15.1797 15.1273L15.1816 15.1292H15.1835L15.1872 15.1238L15.1835 15.1254L15.1854 15.1238L15.1777 15.1273L15.1627 15.122ZM19.8947 20.0558L19.9041 20.0684L19.9135 20.1028L19.9191 20.101L19.925 20.0844V20.0629L19.908 20.0337L19.891 20.0209L19.8796 20.0372V20.0575L19.8854 20.0592L19.8947 20.0558ZM18.8854 21.625L18.8759 21.6176L18.8573 21.6067L18.8383 21.6032H18.8233L18.8119 21.5997L18.8044 21.6013L18.8003 21.6287L18.8021 21.6616L18.8158 21.6796L18.8233 21.685L18.8289 21.6888H18.8402L18.8497 21.6815L18.8589 21.6761L18.8742 21.6778L18.8895 21.6888L18.9026 21.7051L18.9065 21.6925L18.8971 21.6486L18.8854 21.625ZM14.6686 12.7432L14.6705 12.7486L14.6723 12.7504L14.6798 12.745V12.7395L14.6686 12.725L14.6477 12.7287L14.661 12.7341L14.6686 12.7432ZM20.8322 20.0448L20.8228 20.0486V20.0576L20.8114 20.0631L20.8078 20.074H20.8097L20.8265 20.0666L20.8322 20.0448ZM20.5364 20.2831L20.5306 20.2703L20.5214 20.2667L20.5231 20.2901L20.5289 20.2865L20.5364 20.2831ZM20.5796 20.7923L20.5835 20.8047L20.5929 20.8011L20.5796 20.7923ZM20.6097 20.2901L20.5966 20.2846L20.5854 20.2901L20.5872 20.2955L20.5985 20.3048L20.6041 20.3175L20.6116 20.3193L20.6174 20.3266L20.6211 20.3139L20.6174 20.2974L20.6097 20.2901ZM20.4662 20.241L20.4493 20.2445L20.4662 20.261V20.241ZM20.5478 20.8955L20.5309 20.9083L20.5196 20.9231L20.5177 20.9413L20.5271 20.9394L20.5592 20.9119L20.5742 20.8974L20.5946 20.8649L20.589 20.8541L20.5478 20.8955ZM20.7497 20.6777L20.7366 20.692L20.6797 20.7884L20.7023 20.7758L20.7403 20.7211L20.7554 20.6903L20.7536 20.6849L20.7497 20.6777ZM20.6232 20.2756L20.6327 20.2739V20.2503L20.6174 20.2228L20.6135 20.2174L20.6079 20.2265L20.6097 20.2521L20.6232 20.2756ZM21.3536 19.5573L21.3192 19.5861L21.2741 19.6826L21.2477 19.7064L21.1781 19.7372L21.1667 19.7538L21.18 19.7791L21.1988 19.788L21.2196 19.8028L21.2308 19.8353L21.2196 19.8898L21.1517 19.9917L21.1273 20.1028L21.0196 20.0989L21.0158 20.1445L21.0458 20.1281H21.0553L21.0723 20.1318L21.0893 20.1519L21.0854 20.1811L21.0684 20.1755H21.0667L21.0592 20.1774L21.0609 20.1864L21.0743 20.2009L21.059 20.2338L21.0381 20.2503L20.9911 20.2666L21.0042 20.2955L20.9931 20.3246L20.9477 20.3917L20.9252 20.4484L20.9099 20.4629L20.8742 20.4739L20.8647 20.49L20.8514 20.5793L20.8288 20.5936L20.7949 20.6064L20.7762 20.6247L20.7932 20.6483H20.7949L20.8402 20.641L20.8817 20.5811L20.9461 20.4631L21.0063 20.392L21.0196 20.3631L21.0289 20.305L21.0402 20.2758L21.0667 20.2777L21.0892 20.2613L21.2422 20.054L21.2383 20.0393L21.2214 20.0048L21.2403 19.9413L21.2949 19.8249L21.3462 19.7321L21.3537 19.7048V19.6866L21.3592 19.6559L21.3706 19.6264L21.3818 19.6083L21.3912 19.6011L21.3987 19.5918L21.4045 19.5827L21.4082 19.5684L21.3556 19.5575L21.3536 19.5573ZM20.7216 20.1209L20.7063 20.1155L20.6872 20.112L20.6797 20.1246L20.6892 20.1337L20.7177 20.1391L20.7216 20.1209ZM20.6213 20.352L20.6308 20.3646L20.6383 20.3574L20.6308 20.3446L20.6213 20.352ZM20.4683 20.5918L20.4797 20.5773L20.4664 20.5756L20.4683 20.5918ZM20.5647 20.3118L20.5402 20.3137L20.5759 20.3245L20.5647 20.3118ZM19.3891 21.5721L19.3666 21.6082L19.3704 21.6138L19.3908 21.5976L19.4041 21.5775L19.4003 21.5686L19.3891 21.5721ZM19.0856 21.4831L19.01 21.4429H18.9911L18.9855 21.4411L18.9761 21.4338L18.9836 21.4411L18.9741 21.4338L19.1666 21.6338L19.1816 21.703H19.1836V21.7048L19.229 21.6595L19.178 21.5703L19.0856 21.4831ZM18.9646 21.6173L18.9477 21.6192L18.9459 21.6285L18.9535 21.6266L18.9515 21.632L18.9384 21.6465L18.944 21.6613L18.9741 21.6793L18.9796 21.6903L18.9925 21.6886L18.9943 21.6631L18.9812 21.6377L18.9646 21.6173ZM19.0309 21.6703L19.0384 21.6775L19.0554 21.6848L19.061 21.6652L19.0441 21.6577L19.0309 21.6703ZM19.2273 21.5192L19.2099 21.5211L19.2024 21.5301L19.2117 21.5465L19.2211 21.5538L19.244 21.5631L19.2668 21.5832L19.2685 21.5704L19.2517 21.5377L19.2273 21.5192ZM20.3646 20.7447L20.3759 20.754V20.7501L20.3646 20.7447ZM20.4135 21.0082L20.3982 21.0101L20.3869 21.0248L20.3813 21.023L20.3794 21.0065V20.9812L20.3774 20.9831V20.9812L20.2889 21.0686L20.2699 21.0992H20.2718L20.3549 21.0796L20.3889 21.0632L20.4058 21.0429L20.4153 21.0268L20.417 21.0193L20.4153 21.0084L20.4135 21.0082ZM20.1493 20.5578L20.1513 20.556L20.1418 20.5506L20.1493 20.5578ZM19.8778 21.3362V21.3343L19.8284 21.3507L19.7117 21.4084L19.6685 21.4375L19.6722 21.4359L19.6703 21.4375L19.7437 21.4249L19.7626 21.4321L19.7701 21.4359L19.789 21.4686V21.4669L19.7908 21.4686L19.7966 21.4359L19.806 21.4102L19.8247 21.3905L19.8741 21.3613L19.8797 21.352V21.3359L19.8778 21.3362ZM20.1249 21.1941V21.1921L20.0548 21.2194L19.8984 21.365L19.9041 21.3612L19.9004 21.365L20.0566 21.2685L20.0853 21.234L20.1135 21.2231L20.121 21.2175L20.1285 21.2065L20.1268 21.1922L20.1249 21.1941ZM20.4039 20.5102L20.3925 20.4902L20.385 20.501L20.4058 20.5212L20.4039 20.5102ZM21.4812 19.1754V19.1735L21.4623 19.1864L21.4586 19.199L21.4491 19.3429L21.436 19.3845L21.4096 19.4156L21.4171 19.4172H21.4191L21.4246 19.4156L21.4266 19.4172L21.4285 19.4191L21.4547 19.3847L21.4756 19.3284L21.4867 19.27V19.2174L21.4887 19.2048V19.1866L21.4831 19.1737L21.4812 19.1754ZM20.9983 20.2156L20.9852 20.1829L20.9794 20.2065L20.9663 20.2229L20.9643 20.2338L20.9587 20.2374L20.9551 20.2467L20.9607 20.2539L20.9852 20.2195L20.9983 20.2156Z" fill="#550000"/>
</svg>
