<svg width="26" height="26" viewBox="0 0 26 26" fill="none" xmlns="http://www.w3.org/2000/svg">
<circle cx="13" cy="13" r="13" fill="#F8F3ED"/>
<path d="M18.1373 18.2656L18.1291 18.2152L18.1535 18.1155L18.1595 17.993L18.1535 17.8928L18.1595 17.7802L18.1535 17.6977L18.1434 17.63L18.1291 17.6326L18.1231 17.7426L18.0238 17.8801L18.0157 17.9852L18.0217 18.0029L18.0524 18.0627L18.0625 18.0926L18.0667 18.1205L18.0768 18.2053L18.1332 18.4556L18.1535 18.4632L18.1655 18.4282V18.363L18.1373 18.2656ZM18.9635 13.8605L18.9225 13.8554L18.8903 13.8605L18.8639 13.8529L18.8619 13.848H18.86L18.8134 13.8529L18.769 13.843L18.7307 13.8159L18.7079 13.7757L18.6897 13.7532L18.5908 13.7208L18.5382 13.7156L18.4086 13.7581L18.3867 13.7479L18.3079 13.6604L18.2936 13.6505L18.2673 13.638L18.2549 13.6257L18.2448 13.603L18.2427 13.5856L18.2469 13.5708L18.2448 13.5608L18.1901 13.4629L18.1801 13.4407V13.4056L18.1942 13.343L18.1963 13.3203L18.1801 13.2354L18.1781 13.1981L18.182 13.1656L18.1942 13.1183L18.1922 13.0756L18.1781 13.0084L18.1518 12.9531L18.1196 12.9207L18.0831 12.9132L17.9756 12.6555L17.9636 12.553L17.9454 12.498L17.911 12.4804L17.8787 12.4729L17.8623 12.443L17.8524 12.4077L17.8402 12.3807L17.8261 12.3707L17.7732 12.348L17.7631 12.3503L17.7509 12.3431L17.7105 12.3007L17.6902 12.2833L17.6684 12.2679L17.6465 12.2605L17.5774 12.2579L17.5267 12.2406L17.4804 12.2129L17.4481 12.183L17.4177 12.1332L17.4137 12.083L17.4198 12.0304L17.4177 11.9654L17.4096 11.9429L17.3956 11.9204L17.3794 11.9005L17.3672 11.8953L17.3592 11.8805L17.3631 11.8426V11.8027L17.3733 11.7751L17.3714 11.7304L17.3486 11.68L17.3203 11.6401L17.3002 11.5903L17.2922 11.5424L17.2779 11.4926L17.2435 11.4047L17.0938 11.1797L17.0634 11.157L17.0553 11.0921L17.0574 10.9747L17.0434 10.9197L17.0129 10.8571L16.9766 10.8067L16.9443 10.7896H16.8934L16.857 10.7696L16.7823 10.707L16.6813 10.6597L16.4708 10.5996L16.3796 10.532L16.3613 10.4898L16.3288 10.3596L16.3108 10.3348L16.2601 10.3422L16.2173 10.3323L16.177 10.297L16.1325 10.2297L16.1609 10.1973L16.163 10.162L16.1427 10.127L16.0982 10.0971L16.1265 10.07L16.1224 10.0472L16.1062 10.0396L16.0781 10.0321L16.0537 10.0347L16.0438 10.0524L16.0376 10.07L16.0157 10.0524L15.9021 9.92989L15.8802 9.88465L15.9083 9.8576L15.8721 9.7801L15.874 9.75481L15.9083 9.74L15.8821 9.69476L15.868 9.67995L15.8761 9.60475L15.8358 9.55234L15.7342 9.49479L15.6819 9.44981L15.5654 9.31794L15.5125 9.28061L15.4641 9.26033L15.353 9.24295L15.3021 9.22556L15.2434 9.19283L15.1908 9.14042L15.1445 9.05014L15.1161 8.98035L15.0713 8.92003L15.0249 8.77761L14.9521 8.70011L14.8266 8.59759L14.7194 8.51995L14.624 8.46727L14.5474 8.43968L14.4708 8.39721L14.4077 8.33202L14.3614 8.26967L14.319 8.23207L14.2745 8.23971L14.2362 8.23207L14.2039 8.19961L14.1751 8.11724L14.1408 8.0421L14.1064 7.95419L14.0822 7.92173L14.0258 7.89664L14.0014 7.85417L13.9652 7.76673L13.9424 7.7363L13.9122 7.70411L13.8799 7.67652L13.8252 7.66143L13.7807 7.60673L13.7625 7.59421L13.7443 7.55175L13.6672 7.27407L13.6388 7.20144L13.481 6.98389L13.4568 6.9588L13.4123 6.856L13.3899 6.76856L13.3556 6.68626L13.2517 6.63108L13.0983 6.65867L12.9948 6.68369L12.916 6.64866L12.8757 6.60342L12.8292 6.53336L12.7783 6.50347L12.7197 6.43584L12.6308 6.39317L12.6089 6.35584L12.6009 6.3106L12.5845 6.30803L12.5319 6.33846L12.4531 6.30573L12.2305 6.18069L12.1457 6.0733L12.1497 5.92804L12.18 5.86312L12.1861 5.83295V5.8059L12.184 5.77831L12.1861 5.75322L12.1921 5.73293L12.2043 5.68309L12.2305 5.64319L12.2607 5.61073L12.2851 5.57313L12.3015 5.52045L12.3216 5.41049L12.3359 5.35808L12.356 5.31791L12.4352 5.22046L12.4615 5.19517L12.5181 5.16271L12.54 5.12768L12.5541 5.08778L12.5621 5.04531L12.5603 5.00514L12.5582 5L12.3905 5.0353L12.2245 5.07033L12.0584 5.10279L11.8902 5.13755L11.7227 5.17258L11.5566 5.20504L11.3886 5.24034L11.2225 5.2728L11.0548 5.30553L10.7207 5.37276L10.5527 5.40522L10.387 5.43768L10.2189 5.47014L10.0509 5.50287L9.88518 5.53533L9.68888 5.55785L9.4783 5.58064L9.32046 5.59802L9.30405 5.59315L9.22746 5.60539L8.948 5.6555L8.67084 5.70284L8.39182 5.75018L8.1128 5.79752L7.8352 5.84249L7.55618 5.88773L7.27716 5.93507L7 5.98004L7.00388 5.99769L7.01609 6.05267L7.04027 6.14295L7.06861 6.26285L7.1069 6.41062L7.1493 6.58523L7.2004 6.78567L7.25484 7.0058L7.31546 7.24844L7.38018 7.50339L7.4472 7.7762L7.51794 8.05874L7.59262 8.35149L7.66768 8.65399L7.74427 8.95952L7.8212 9.26716L7.90025 9.57472L7.97684 9.87978L8.05174 10.18L8.1268 10.4727L8.19754 10.758L8.2662 11.0281L8.33114 11.2855L8.39384 11.5259L8.45052 11.7486L8.50102 11.946L8.54572 12.1211L8.58401 12.2715L8.61421 12.3911L8.63654 12.479L8.65059 12.534L8.65475 12.5543L8.68703 12.6816L8.68495 12.7118L8.78447 12.9417L8.78841 13.0392L8.79459 13.0667L8.80455 13.0918L8.81883 13.1146L8.83497 13.1319L8.88754 13.1866L8.9016 13.2069L8.88754 13.2422L8.89952 13.2721L8.92393 13.302L8.94581 13.3393L8.97251 13.4521L9.00271 13.517L9.00889 13.5597L9.01075 13.6195L9.02716 13.6494L9.05736 13.6673L9.07766 13.6899L9.06962 13.7372L9.25372 13.9625L9.28622 14.0123L9.30027 14.0548L9.32216 14.1596L9.3464 14.2074L9.37474 14.2526L9.39892 14.2974L9.40701 14.3424V14.3299L9.40909 14.3552L9.40701 14.3424L9.40909 14.3851L9.39711 14.4252L9.39087 14.4599L9.40729 14.4952L9.36489 14.5701L9.3813 14.63L9.43218 14.6778L9.54926 14.7377L9.5735 14.7553L9.59166 14.7903L9.60178 14.7929L9.6119 14.798L9.62 14.8203L9.61584 14.8479L9.60178 14.8704L9.58356 14.8829L9.56332 14.8878L9.58154 14.9257L9.57946 14.9604L9.56305 14.988L9.54483 15.008L9.50243 14.9929L9.46807 15.0105L9.46413 15.0376L9.50445 15.0629L9.48027 15.0928L9.44389 15.1198L9.40707 15.1395L9.37687 15.1523L9.36281 15.1674L9.35061 15.2001L9.32643 15.3151V15.3452L9.33655 15.4275L9.33447 15.4728L9.31806 15.5329V15.6104L9.34432 15.6827L9.34618 15.7679L9.34432 15.7804L9.33004 15.8325L9.322 15.8504L9.2715 15.9929L9.2413 16.1281L9.23506 16.2431L9.22904 16.2881L9.22696 16.3057V16.3257L9.22094 16.4L9.24283 16.4655L9.34585 16.8256L9.37211 16.8782L9.46561 17.001L9.49187 17.0583L9.50177 17.1005L9.51397 17.191L9.51999 17.2158L9.54833 17.2787L9.55845 17.3235L9.55243 17.4061L9.53421 17.4737L9.52803 17.5437L9.56239 17.6363L9.52207 17.7242L9.51999 17.8493L9.53427 18.107L9.52623 18.1395L9.50183 18.1967L9.49997 18.2318L9.50598 18.2571L9.53432 18.3195L9.54242 18.3491L9.54428 18.4721L9.55254 18.5248L9.58274 18.5621L9.63318 18.5846L9.7083 18.6797L9.77904 18.8124L9.8256 18.9625L9.85191 18.995L9.85996 19.0298L9.8558 19.0568L9.84382 19.0821L9.83758 19.0972L9.83364 19.1071L9.84174 19.1496L9.85186 19.1621L9.89672 19.1918L9.91286 19.2071L9.93108 19.2422L9.9592 19.3396L9.98152 19.3598L10.0218 19.4348L10.0481 19.51L10.0663 19.6501L10.1273 19.8626L10.2444 19.9828L10.2646 19.9753L10.3397 19.9677H10.354L10.3982 19.9628L10.469 19.9577L10.5643 19.9502L10.6835 19.9402L10.8254 19.9277L10.9849 19.9126L11.1651 19.8975L11.3616 19.8799L11.5719 19.8596L11.7945 19.8397L12.0293 19.8197L12.2722 19.7972L12.5231 19.7722L12.7802 19.7469L13.0412 19.7221L13.3045 19.6972L13.5676 19.6696L13.8306 19.6446L14.0896 19.617L14.3446 19.5919L14.5935 19.5648L14.8342 19.5397L15.0628 19.5149L15.2816 19.4921L15.486 19.4694L15.6742 19.4497L15.8464 19.4298L15.9984 19.4147L16.1316 19.3999L16.241 19.3874L16.3258 19.3774L16.4226 19.3649L16.4289 19.3697V19.3797L16.4268 19.4023L16.4187 19.4273L16.4167 19.4398L16.4187 19.4523L16.4227 19.4643L16.4391 19.4896L16.5061 19.5673L16.5181 19.5873L16.5342 19.6143L16.5384 19.6297L16.5425 19.6448V19.6798L16.5384 19.7299L16.5363 19.7698L16.5384 19.7901L16.5405 19.8075L16.5506 19.8351L16.6011 19.9527L16.6172 19.9775L16.6273 19.9875L16.6414 19.9951L16.6596 20L16.6822 19.9974L16.7873 19.9601H16.8034L16.8479 19.9675H16.8601L16.8702 19.965L16.931 19.9302L16.9432 19.9203L16.9493 19.9049L16.9513 19.8779L16.9493 19.8579L16.931 19.7626V19.6978L16.9493 19.48L16.9513 19.2525L16.9474 19.2149L16.9412 19.1824L16.9351 19.1673L16.9211 19.1448L16.866 19.0747L16.852 19.0471L16.8398 19.0173L16.8317 18.9924L16.8258 18.9548L16.8237 18.9345L16.8297 18.857V18.8146L16.8096 18.7346L16.8076 18.7021L16.8096 18.6847L16.8115 18.6697L16.8177 18.6569L16.8396 18.617L16.8437 18.5996L16.8456 18.5796V18.5446L16.8497 18.5321L16.8617 18.5247L16.8861 18.5295H16.9066L16.9268 18.5193L16.9349 18.5068L16.9409 18.4892V18.4219L16.945 18.4071L16.9551 18.3946L16.9733 18.3818L16.9913 18.3769L17.0238 18.3718L17.0378 18.3692L17.0561 18.3666H17.0763L17.1146 18.3869L17.1353 18.4017L17.1696 18.4168L17.3943 18.4817L17.4143 18.4741L17.4367 18.4718L17.469 18.4741L17.4953 18.4915L17.5114 18.5042L17.5377 18.5191L17.5741 18.5293L17.6916 18.5492L17.7157 18.5469L17.7401 18.537L17.7563 18.5344L17.7925 18.5518L17.8173 18.5592L17.9162 18.5669L17.9385 18.5617L18.009 18.5191L18.0519 18.5244L18.0701 18.5267L18.0621 18.4861L18.0662 18.3989L18.0607 18.3258L18.0467 18.2884L18.0119 18.2511L17.9979 18.2233L17.9878 18.1783L17.9818 18.1358L17.9675 18.1057L17.9332 18.0957L17.9292 18.0729L17.9555 18.0658L17.9797 18.0632L18.0039 18.0681L18.0281 18.0755L18.02 18.0359L18.0081 18.0133L17.9916 17.9983L17.9797 17.9684V17.953L17.9836 17.9032V17.8858L17.9937 17.8385L18.0508 17.7235L18.0709 17.6682L18.0366 17.658L17.9573 17.676L17.905 17.658L17.9029 17.6335L18.0079 17.5861L18.0408 17.546L18.0447 17.4759L18.0162 17.4235L17.9067 17.3236L17.8664 17.2683L17.9291 17.2811L17.9937 17.3309L18.0526 17.3958L18.089 17.456L18.1052 17.4511L18.1153 17.2108L18.1072 17.1228L18.0648 17.188L18.0568 17.2282L18.0669 17.2931L18.0407 17.2728L17.9775 17.213L17.9068 17.1905L17.8927 17.1506L17.9089 17.1204L17.9978 17.1606L18.0038 17.1105L17.9898 17.0455L17.9534 16.9179L17.9513 16.8655L17.9695 16.8249L18.018 16.8047L18.0407 16.8423L18.0548 17L18.0608 17.0374L18.0852 17.0499L18.1377 17.045L18.176 16.9977L18.2184 16.8951L18.2794 16.7125L18.3278 16.7353L18.3522 16.6799L18.3562 16.6001L18.3442 16.5474L18.3037 16.5126L18.1922 16.4426L18.1518 16.4324L18.065 16.44L17.9574 16.4298L17.8585 16.3996L17.7915 16.3475L17.8182 16.3205H17.8383L17.8888 16.3475L17.9435 16.3652L18.1924 16.38L18.2817 16.3626L18.302 16.3301L18.2837 16.2649L18.249 16.22L18.1661 16.1473L18.146 16.0975L18.1379 16.055L18.1419 16.0474L18.158 16.0226L18.1762 16.0072L18.1903 16.0226L18.2025 16.0496L18.2085 16.0821L18.2186 16.1143L18.2369 16.1444L18.2587 16.1671L18.2773 16.1746L18.3057 16.1595L18.3078 16.137L18.3036 16.1071V16.0746L18.4248 15.7471L18.449 15.6218L18.3704 15.6443L18.3056 15.7016L18.19 15.8392L18.2022 15.7844L18.2204 15.7418L18.2265 15.7067L18.2023 15.6743L18.1983 15.6819L18.1295 15.6894L18.1154 15.6868L18.0972 15.672L18.081 15.6543L18.0646 15.6344L18.1011 15.6119L18.1375 15.5791L18.1778 15.564L18.2283 15.5868L18.2711 15.5916L18.3094 15.5492L18.3638 15.4515L18.3294 15.4165L18.2649 15.3618L18.2302 15.3191L18.2831 15.3115L18.3274 15.3265L18.3599 15.3593L18.3862 15.3992L18.4286 15.5168L18.4447 15.5293L18.4567 15.5142L18.465 15.4817L18.4896 15.2568V15.1716L18.4732 15.1016L18.4368 15.0642L18.4004 15.0842L18.3882 15.1266L18.4186 15.1617L18.4225 15.1839L18.2833 15.2366L18.2364 15.2442L18.3115 15.1041L18.3096 15.0415L18.2325 14.9891L18.1597 14.9814L18.1274 14.964L18.1112 14.9215L18.1233 14.8939H18.1556L18.192 14.9116L18.2183 14.9341L18.2793 14.9666H18.358L18.4772 14.939L18.506 14.9142L18.5322 14.8689L18.5867 14.7413L18.6009 14.6513L18.615 14.604H18.603L18.5687 14.6139L18.512 14.5666L18.4979 14.5591L18.3682 14.5617L18.3924 14.5144L18.4772 14.467L18.4712 14.4369L18.4187 14.4021L18.4004 14.3745L18.4187 14.3395L18.4489 14.3343L18.4712 14.3596L18.4916 14.3921L18.508 14.4169L18.5505 14.4294L18.6553 14.432L18.6998 14.457L18.7345 14.4468L18.779 14.3895L18.8417 14.2745L18.7811 14.272L18.7428 14.2221L18.7308 14.1613L18.7509 14.129L18.7631 14.1142L18.7691 14.0843L18.7813 14.0565L18.8115 14.0465L18.8136 14.059L18.8258 14.0866L18.8459 14.1142L18.8703 14.1267L18.9675 13.9965L19 13.9188L18.9635 13.8605Z" fill="#550000"/>
</svg>
