<svg width="26" height="26" viewBox="0 0 26 26" fill="none" xmlns="http://www.w3.org/2000/svg">
<circle cx="13" cy="13" r="13" fill="#F8F3ED"/>
<g clip-path="url(#clip0_917_592)">
<path d="M18.1656 14.5968C18.261 14.6016 18.5316 14.7163 18.6109 14.774C18.7547 14.8789 18.8678 14.9993 19.0352 15.0786C19.1807 15.1477 19.3246 15.1302 19.4738 15.1853C20.0608 15.4013 20.5735 15.6597 20.9695 16.1549C20.977 16.2491 20.971 16.3481 20.9731 16.4427C20.9741 16.4864 20.9541 16.502 20.9588 16.5319C20.9944 16.5487 21.0455 16.5317 21.0844 16.5241C21.3032 16.4812 21.3449 16.7718 21.3634 16.9411C21.5157 17.096 21.5909 17.1853 21.7969 17.268C22.1605 17.4139 21.8066 17.7825 21.6214 17.912C21.5224 17.9831 21.4061 18.1168 21.3021 18.174C21.0346 18.3209 20.7807 18.4629 20.4907 18.5591C20.4182 18.5366 20.3463 18.5121 20.2751 18.4858C20.0832 18.6149 20.0755 18.703 19.8555 18.7873C19.6184 18.956 19.4688 18.9778 19.3701 19.2653C19.303 19.4607 19.1277 19.7032 18.9508 19.8098C18.7829 19.9109 18.7368 19.717 18.6311 19.6358C18.466 19.5269 18.2888 19.4562 18.1012 19.3999C18.0547 19.3525 18.0292 19.2972 17.9943 19.2466C17.7753 18.9289 17.9762 18.5603 17.9817 18.2184C17.9794 17.9962 17.8084 17.747 17.7526 17.5452C17.6812 17.2869 17.7419 17.2483 17.5199 17.0758C17.4983 17.059 17.3826 16.7774 17.3591 16.7244C17.3711 16.6813 17.3838 16.6384 17.3973 16.5957C17.4696 16.3729 17.6675 16.2201 17.8666 16.118C18.0056 15.9007 17.9707 15.8806 18.1858 15.6809C18.1183 15.5871 17.9949 15.4335 17.9585 15.3294C17.8522 15.026 17.8314 14.7396 18.1656 14.5968Z" fill="#550000"/>
<path d="M18.1159 14.733C18.3416 14.7044 18.509 14.8358 18.6694 14.9696C18.727 15.0176 19.089 15.2603 19.1292 15.263C19.1577 15.243 19.1638 15.2385 19.1964 15.227C19.5174 15.2661 20.2895 15.6479 20.5422 15.8721C20.6794 15.9938 20.7558 16.0974 20.88 16.2175C20.8561 16.2969 20.8118 16.5893 20.8606 16.6517C20.9172 16.6901 21.0482 16.6336 21.1783 16.6407C21.2394 16.7992 21.2415 16.8354 21.2435 17.0058C21.3447 17.058 21.4278 17.1847 21.5512 17.2648C21.6309 17.3166 21.809 17.3832 21.8421 17.4237C21.851 17.468 21.8433 17.5139 21.818 17.5551C21.6894 17.764 21.4056 17.9518 21.2122 18.1044C21.1746 18.134 21.0183 18.2005 20.968 18.2284C20.7863 18.3292 20.6871 18.3912 20.4866 18.4532C20.4815 18.4514 20.4763 18.4497 20.4712 18.448C20.3619 18.4122 20.2404 18.3662 20.1409 18.4528C20.0764 18.509 19.9885 18.6131 19.9135 18.6465C19.7664 18.7107 19.34 18.9618 19.2811 19.1247C19.2725 19.1481 19.2885 19.1679 19.3002 19.1926C19.2517 19.327 18.9995 19.6756 18.8557 19.7465C18.827 19.7055 18.8184 19.6451 18.784 19.615C18.605 19.4594 18.3721 19.3952 18.1633 19.2957C18.1347 19.2821 18.0819 19.2098 18.0656 19.1794C17.9014 18.8725 18.0996 18.4936 18.0904 18.1662C18.0859 18.0487 17.9037 17.6602 17.8591 17.5292C17.8056 17.3726 17.7971 17.2203 17.7117 17.0794C17.6945 17.0717 17.6283 17.0425 17.6218 17.0314C17.5704 16.9439 17.5163 16.8109 17.4728 16.7187C17.5166 16.5179 17.6976 16.2768 17.9111 16.2485C18.0644 16.0318 18.0279 15.9673 18.2608 15.7762C18.2665 15.7383 18.2792 15.6869 18.2875 15.6483C18.2559 15.5792 18.1988 15.5152 18.1518 15.4549C18.0147 15.2787 17.8961 14.8901 18.1159 14.733Z" fill="#550000"/>
<path d="M15.5164 11.8032C15.5825 11.791 15.6125 11.8004 15.6725 11.8294C15.9207 11.9493 15.9628 12.0713 16.0515 12.3033C16.0888 12.2803 16.3681 12.1708 16.4261 12.1529C16.8023 12.0204 16.9654 12.2496 17.236 12.4535C17.4231 12.5945 17.8 12.6239 17.837 12.9058C17.8643 13.114 17.6938 13.3049 17.5295 13.4064C17.5079 13.4198 17.3836 13.4522 17.35 13.462L17.1991 13.5402C17.1334 13.5325 17.0677 13.5254 17.002 13.5187C16.6947 13.6777 16.3235 13.8199 16.0347 13.553C15.9615 13.3606 16.0127 13.1738 15.9545 12.9413C15.9177 12.9398 15.8484 12.9741 15.8107 12.9898C15.7039 12.9362 15.5282 12.8769 15.4401 12.8211C15.3158 12.7326 15.1789 12.5631 15.1556 12.4116C15.1162 12.1556 15.2421 11.8505 15.5164 11.8032Z" fill="#550000"/>
<path d="M15.5542 11.9277L15.5786 11.9231C15.8071 11.9915 15.895 12.2131 16.013 12.4162C16.2381 12.3472 16.5018 12.201 16.7146 12.2325C16.9241 12.2773 17.0883 12.5444 17.2774 12.6337C17.5652 12.7697 17.7819 12.6874 17.7099 13.0903C17.5792 13.2491 17.4766 13.3118 17.2913 13.376C17.1324 13.459 17.1125 13.4005 16.9455 13.4363C16.8565 13.4554 16.7766 13.5083 16.694 13.5429C16.5788 13.5912 16.4016 13.591 16.2743 13.5949C16.2313 13.5723 16.1869 13.5438 16.1453 13.5183C16.0755 13.3398 16.1564 12.5597 15.817 12.8838C15.7852 12.8616 15.7425 12.8392 15.7058 12.8259C15.3627 12.7023 15.104 12.4071 15.3419 12.0475C15.3933 11.9698 15.4632 11.9417 15.5542 11.9277Z" fill="#550000"/>
<path d="M10.801 9.27785C11.0277 9.26014 11.1399 9.49099 11.2105 9.67358C11.2773 9.84631 11.4237 9.90964 11.5154 10.0619C11.5418 10.1057 11.5164 10.1621 11.5033 10.2113C11.6014 10.3211 12.0056 10.1393 11.859 10.4889C11.847 10.5175 11.9551 10.6184 11.952 10.6558C11.9494 10.688 11.9456 10.7167 11.9458 10.7498C11.9937 10.7561 12.0759 10.7613 12.1107 10.7986C12.2114 10.9066 12.1419 11.0432 12.0488 11.129C11.9882 11.185 11.8993 11.2724 11.8102 11.269C11.7673 11.2674 11.7196 11.2054 11.691 11.1739C11.4758 11.3361 11.4664 11.3068 11.2693 11.1512C11.2618 11.147 11.2491 11.1416 11.2425 11.1367C11.1896 11.0967 11.1292 11.1031 11.0652 11.0955C10.9818 11.0855 10.8915 11.0695 10.8072 11.0693C10.6853 11.0727 10.4408 11.1409 10.3284 11.108C10.2346 11.031 10.2334 10.8924 10.1793 10.7917C10.0698 10.5855 9.82286 10.4096 9.82989 10.1604C9.83274 10.0594 9.55089 9.97205 9.66502 9.85974C9.77933 9.74725 10.0973 9.78071 10.2495 9.78433C10.4546 9.60406 10.5275 9.353 10.801 9.27785Z" fill="#550000"/>
<path d="M10.8306 9.3752C11.0239 9.40516 11.1056 9.80489 11.2329 9.94285C11.2974 10.0128 11.4257 10.058 11.3948 10.1525C11.3638 10.1718 11.342 10.18 11.3282 10.2128C11.3572 10.3559 11.3386 10.3197 11.4544 10.4161C11.4992 10.4534 11.5374 10.5299 11.6028 10.5457C11.6239 10.4877 11.5668 10.4159 11.597 10.3632C11.6443 10.3603 11.714 10.353 11.7588 10.3613L11.7696 10.3832C11.762 10.4391 11.7266 10.5014 11.7012 10.5533C11.8294 10.6367 11.8347 10.6503 11.8407 10.7991C11.9235 10.8932 11.9678 10.9107 12.0772 10.9666C11.9944 11.0246 11.8971 11.1317 11.8381 11.1641C11.7932 11.1397 11.839 11.1134 11.7998 11.0558C11.7117 11.0509 11.5459 11.1434 11.463 11.1861L11.4026 11.1108C11.3428 11.0661 11.275 11.0337 11.2127 10.9914C11.1586 10.9548 11.1769 10.941 11.1398 10.8956L11.1202 10.9038C11.1167 10.9298 11.1127 10.9558 11.1084 10.9817C11.0287 11.0373 10.915 10.915 10.8986 10.9175C10.7723 10.9369 10.5156 11.0383 10.3931 11.0113C10.3112 10.9625 10.3228 10.8263 10.2848 10.7632C10.1926 10.6101 10.0013 10.3863 9.91988 10.2369L9.94628 10.0925C9.8847 10.015 9.79285 9.96745 9.76332 9.92307L9.77689 9.90473C9.8707 9.86315 10.1951 9.8819 10.3254 9.87645C10.5046 9.68499 10.5964 9.46921 10.8306 9.3752Z" fill="#550000"/>
<path d="M5.45119 7.3718C5.72371 7.44204 6.00205 7.27948 6.26186 7.46734C6.60393 7.71467 6.51703 7.96492 6.33314 8.26167C6.46344 8.53815 6.17436 8.74761 5.96439 8.87457C5.87933 8.92599 5.82181 8.91847 5.7326 8.88736C5.63647 8.84827 5.35284 8.84682 5.23315 8.7965C5.12514 8.75109 5.07845 8.64777 4.99055 8.59193C4.92394 8.54963 4.76965 8.49585 4.69078 8.46594C4.57031 8.30267 4.48686 8.19449 4.61558 8.00275C4.76892 7.77433 4.79914 7.65579 5.07133 7.55523C5.20109 7.50729 5.28825 7.41035 5.45119 7.3718Z" fill="#550000"/>
<path d="M5.69937 7.46059C5.85719 7.51215 5.89935 7.48422 6.05323 7.50249C6.15713 7.51482 6.27619 7.59024 6.3323 7.67715C6.47125 7.89238 6.30107 8.02256 6.24467 8.21799C6.23433 8.25381 6.26474 8.39292 6.25174 8.43331C6.20772 8.57009 5.96835 8.75644 5.85417 8.82347C5.66067 8.74727 5.60252 8.75917 5.40237 8.72832C5.15531 8.67935 5.25304 8.64131 5.04912 8.50541C5.00368 8.47512 4.80655 8.39907 4.74458 8.37424C4.72448 8.34312 4.69654 8.30098 4.68351 8.26666C4.62481 8.11211 4.74234 8.01759 4.81976 7.9027C4.84535 7.86473 4.87651 7.79711 4.896 7.75376C4.96008 7.7242 5.02437 7.69952 5.089 7.66973C5.19823 7.61936 5.35426 7.50764 5.46625 7.48176C5.53254 7.50184 5.60673 7.54583 5.66525 7.54171C5.69915 7.51534 5.68926 7.51567 5.69937 7.46059Z" fill="#550000"/>
<path d="M13.2487 11.0987C13.4973 11.1025 13.84 11.2522 14.1076 11.2401C14.2123 11.2353 14.2188 11.1329 14.3158 11.1344C14.3884 11.1356 14.4477 11.2612 14.502 11.2992C14.7292 11.3679 15.1102 11.1885 15.2868 11.3936C15.4726 11.6093 15.1628 11.7497 15.0227 11.857C14.5417 12.1831 14.2596 11.7638 13.7882 11.8108C13.5789 11.8317 13.2812 11.8789 13.0894 11.7921C12.8889 11.7014 13.1532 11.4449 13.1975 11.33C13.2234 11.2377 13.1648 11.2194 13.2487 11.0987Z" fill="#550000"/>
<path d="M13.2933 11.2152C13.4313 11.2271 13.5054 11.2726 13.6343 11.2958C13.8318 11.3312 14.0396 11.3434 14.237 11.373C14.2531 11.3225 14.2565 11.2759 14.3083 11.259C14.3479 11.2777 14.3969 11.3724 14.4243 11.415C14.6752 11.4443 14.7944 11.4207 15.0485 11.3951C15.1085 11.4219 15.1803 11.4628 15.2393 11.4944C15.1698 11.5905 15.1035 11.6721 15.0042 11.7382C14.4796 12.0962 14.2056 11.5828 13.6601 11.7187C13.491 11.7608 13.2779 11.7412 13.1078 11.7091C13.1682 11.566 13.241 11.4923 13.3169 11.3623C13.3421 11.319 13.3109 11.2588 13.2933 11.2152Z" fill="#550000"/>
<path d="M14.2222 12.2009C14.2239 12.2003 14.2256 12.1998 14.2274 12.1993C14.5984 12.1733 14.9391 12.4172 15.024 12.7406C14.9446 12.9635 14.8695 13.0188 14.6712 13.1145C14.6602 13.1196 14.6455 13.1255 14.6352 13.1264C14.2004 13.1625 14.1946 13.1552 14.1272 12.7393C14.1202 12.696 13.6574 12.4229 13.9705 12.267C14.0817 12.2116 14.1014 12.2131 14.2222 12.2009Z" fill="#550000"/>
<path d="M14.2054 12.3111C14.5555 12.2404 15.2633 12.7101 14.6475 13.0046C14.5967 13.0406 14.3968 13.0378 14.3166 13.0446C14.2339 12.8806 14.2337 12.8542 14.2412 12.6732C14.163 12.5871 13.9532 12.5155 14.0063 12.3766C14.0697 12.315 14.1197 12.3175 14.2054 12.3111Z" fill="#550000"/>
<path d="M15.6226 13.3967C15.9045 13.3524 15.9051 13.5803 15.9586 13.779C15.9236 13.8468 15.9122 13.872 15.8578 13.9282C15.699 13.9654 15.6349 13.9674 15.4685 13.9723C15.4113 13.9867 15.3471 13.9984 15.293 13.9728C14.8497 13.7628 15.4472 13.4679 15.6226 13.3967Z" fill="#550000"/>
<path d="M15.6896 13.486C15.9177 13.5918 15.7084 13.6056 15.8339 13.7884L15.8257 13.8121C15.7597 13.8614 15.5246 13.8643 15.4357 13.8699C15.4193 13.8733 15.357 13.8866 15.3457 13.8819C15.1089 13.7841 15.3788 13.6512 15.479 13.5974C15.5535 13.5575 15.6193 13.521 15.6896 13.486Z" fill="#550000"/>
<path d="M3 8.79623C3.04463 8.73702 2.9966 8.66951 3.05182 8.60919C3.11295 8.54242 3.20432 8.50082 3.28476 8.46002C3.40631 8.39838 3.45462 8.37117 3.47927 8.22437C3.53936 7.86656 3.99359 8.25444 3.84606 8.46306C3.8248 8.49286 3.80295 8.51809 3.78067 8.54403C3.89902 8.86547 3.61101 8.77287 3.45105 8.9416C3.37615 9.02062 3.35707 9.18023 3.24522 9.22195C3.1682 9.25161 3.03847 9.12398 3 9.0646V8.79623Z" fill="#550000"/>
<path d="M3.60042 8.26752C3.6275 8.32034 3.90876 8.22627 3.69601 8.47934C3.69108 8.48521 3.69149 8.65596 3.69147 8.68666C3.66238 8.73085 3.48898 8.77796 3.43115 8.79638C3.35071 8.88435 3.29362 8.97817 3.24744 9.08769C3.24173 9.10641 3.24664 9.0976 3.22615 9.11057C2.98574 9.02489 3.11018 8.84135 3.17092 8.67547L3.16181 8.67895C3.31339 8.55649 3.32233 8.55127 3.50128 8.46815C3.53308 8.3967 3.55901 8.33425 3.60042 8.26752Z" fill="#550000"/>
</g>
<defs>
<clipPath id="clip0_917_592">
<rect width="19" height="13" fill="white" transform="translate(3 7)"/>
</clipPath>
</defs>
</svg>
