<svg width="26" height="26" viewBox="0 0 26 26" fill="none" xmlns="http://www.w3.org/2000/svg">
<circle cx="13" cy="13" r="13" fill="#F8F3ED"/>
<path d="M19 15.6368L18.9625 15.9696L18.923 16.3042L18.8853 16.637L18.8476 16.9714L18.8079 17.3059L18.7704 17.6406L18.7329 17.9749L18.6932 18.311L18.6555 18.6457L18.6159 18.9816L18.5783 19.3178L18.5408 19.654L18.5012 19.9902L18.4615 20.3262L18.424 20.6625L18.3863 21L18.0267 20.9673L17.6689 20.9363L17.3111 20.9035L16.9533 20.8706L16.5957 20.8361L16.2379 20.8017L15.88 20.7674L15.5242 20.733L15.1663 20.6968L14.8085 20.6608L14.4507 20.6229L14.0931 20.5871L13.7372 20.5493L13.3794 20.51L13.0216 20.4704L12.6657 20.4312L12.3098 20.392L11.9559 20.3524L11.6019 20.3116L11.246 20.2705L10.8921 20.2295L10.5379 20.1869L10.184 20.1442L9.83005 20.0999L9.4761 20.0573L9.12195 20.0133L8.76801 19.9672L8.41406 19.9228L8.06011 19.8769L7.70616 19.8312L7.35201 19.7836L7 19.7358L7.03752 19.5145L7.07717 19.295L7.11683 19.0734L7.15435 18.8521L7.1938 18.6322L7.23345 18.411L7.27118 18.1898L7.31063 17.9699L7.35008 17.7501L7.3878 17.5289L7.42746 17.3092L7.46518 17.0894L7.50463 16.8697L7.54408 16.6483L7.5818 16.4286L7.62125 16.209L7.6382 16.1137L7.67206 15.922L7.67012 15.8943L7.67206 15.8777L7.66646 15.8269L7.70209 15.7959L7.74735 15.7746L7.77372 15.7498L7.80375 15.7041L7.81877 15.6549L7.8544 15.5893L7.88271 15.504L7.89599 15.4812L7.90714 15.4664L7.91656 15.45L7.92231 15.427L7.91656 15.3792L7.87884 15.3008L7.88459 15.2665L7.90709 15.2499H7.93346L7.9581 15.2549L7.9806 15.2499L7.99948 15.2303L8.01063 15.2075L8.01832 15.1827L8.02198 15.1581L8.0314 15.1467L8.04667 15.1368L8.05594 15.122L8.05034 15.1007L8.0201 15.0662L7.992 15.0417L7.95428 15.0169L7.9468 15.0055L7.93738 14.9745V14.9517L7.94298 14.9271L7.93931 14.9075L7.91854 14.8976H7.87522L7.83959 14.9058L7.80762 14.9092L7.7699 14.8928L7.75855 14.8747L7.75106 14.8536L7.73991 14.8336L7.71721 14.8254L7.69084 14.8303L7.67007 14.8436L7.65139 14.8599L7.63062 14.8746L7.56653 14.8217L7.54209 14.789L7.5365 14.7481L7.54209 14.7268L7.55538 14.7005L7.56286 14.6792L7.56093 14.6512L7.54398 14.6036L7.54031 14.5791L7.55558 14.53L7.58389 14.4906L7.60425 14.4544L7.59672 14.3954L7.61 14.3823L7.63037 14.3725L7.63978 14.3611L7.65113 14.3347L7.66982 14.3265L7.69059 14.3248L7.71329 14.3183L7.74159 14.2972L7.77356 14.2642L7.79993 14.2265L7.82997 14.1462L7.85827 14.1035L7.91849 14.0365L7.98844 13.9351L8.01287 13.907L8.05253 13.8775L8.1747 13.8317L8.21415 13.8121L8.24419 13.789L8.36682 13.6677L8.42129 13.5988L8.44379 13.5612L8.48151 13.466L8.49093 13.4217L8.48899 13.4151L8.48151 13.4036L8.47591 13.3858V13.3609L8.48533 13.3396L8.50401 13.3183L8.74133 13.1005L8.79407 13.0234L8.84874 12.8989L8.87878 12.8658L8.90342 12.8332L8.92378 12.7462L8.93905 12.7021L8.96908 12.6676L9.04259 12.615L9.08204 12.548L9.18559 12.4675L9.195 12.4478L9.21195 12.4052L9.25721 12.338L9.27029 12.3251L9.33245 12.2824L9.36457 12.2527L9.38493 12.215L9.39053 12.1693L9.38493 12.1249L9.33779 12.0135L9.31911 11.9233L9.30201 11.879L9.28332 11.8527L9.26082 11.8299L9.18732 11.8069L9.09126 11.7397L9.05929 11.6985L9.04427 11.6822L8.91803 11.6413L8.90301 11.6119L8.89359 11.5773L8.8012 11.4709L8.76734 11.3462L8.76368 11.2792L8.76174 11.2693L8.73538 11.1691L8.6582 11.056L8.65072 11.0315L8.71461 10.9905L8.74098 10.9643L8.76734 10.9233L8.77483 10.879L8.74479 10.8169L8.74286 10.712L8.72591 10.6644L8.68065 10.5725L8.61096 10.4706L8.60348 10.4377L8.61656 10.4L8.65622 10.338L8.66563 10.2773L8.72458 9.94416L8.78307 9.61282L8.83948 9.27998L8.89782 8.94864L8.95442 8.61765L9.01276 8.288L9.06937 7.95666L9.12771 7.62718L9.18411 7.2977L9.24072 6.96822L9.29905 6.63839L9.35546 6.31038L9.41201 5.98236L9.4705 5.65435L9.52691 5.32633L9.58331 5L9.75639 5.02278L10.1406 5.07371L10.5267 5.12451L10.9107 5.17531L11.2949 5.2246L11.3156 5.22629L11.2742 5.4688L11.2346 5.71148L11.1932 5.95435L11.1518 6.19854L11.1104 6.44105L11.0688 6.68542L11.0294 6.92811L10.9878 7.1723L10.9708 7.27589L10.9747 7.28897L10.9861 7.31193L11.0199 7.34646L11.0632 7.40528L11.0802 7.43981L11.1158 7.49225L11.1252 7.5169L11.1308 7.52846L11.1403 7.53968L11.161 7.55776L11.178 7.57585L11.193 7.59863L11.208 7.61357L11.2457 7.6399L11.2588 7.65129L11.2682 7.66902L11.2721 7.6821L11.2891 7.7872L11.2947 7.8005L11.306 7.81357L11.3493 7.84141L11.3643 7.85448L11.3718 7.87576L11.3738 7.89065L11.3776 7.90524L11.3852 7.91663L11.4322 7.95116L11.4435 7.96255L11.451 7.98232L11.4549 7.99708L11.4529 8.01184L11.4396 8.06264L11.4454 8.08073L11.4848 8.1481L11.4923 8.17089L11.4943 8.18897L11.4887 8.20036L11.4736 8.21996L11.464 8.22816L11.4548 8.23467L11.4453 8.24119L11.3982 8.25613L11.3871 8.26113L11.3776 8.26752V8.27891L11.3852 8.29048L11.4285 8.32151L11.4416 8.33645L11.4529 8.36091L11.4549 8.40524L11.4566 8.40692L11.4719 8.41832L11.4982 8.43321L11.5132 8.4446L11.5188 8.45918L11.5132 8.46925L11.5038 8.47762L11.4925 8.48082L11.4794 8.48418L11.4661 8.48569L11.3889 8.48082L11.3778 8.4825L11.3684 8.48738L11.3628 8.49057L11.3551 8.49708L11.3512 8.50679L11.3531 8.51854L11.3645 8.53161L11.3928 8.54637L11.4586 8.57253L11.5808 8.66118L11.5958 8.67408L11.6449 8.7364L11.6674 8.77412L11.6787 8.80546L11.6918 8.83481L11.6995 8.84655L11.7126 8.85626L11.737 8.86916L11.8256 8.8923L11.978 8.96437L11.9913 8.97576L12.0043 8.98906L12.0196 9.0169L12.0327 9.04974L12.0383 9.06131L12.0477 9.07439L12.0535 9.08578L12.0571 9.09567L12.0591 9.11863L12.0647 9.13002L12.0741 9.13991L12.091 9.14961L12.1043 9.1595L12.1137 9.17107L12.1287 9.19234L12.1418 9.20892L12.1871 9.24159L12.204 9.25968L12.2437 9.32173L12.2626 9.37404L12.4 9.53663L12.4018 9.54784L12.4056 9.58587V9.59057L12.4076 9.59545L12.415 9.60551L12.4283 9.61539L12.4528 9.62679L12.4866 9.63818L12.4978 9.64638L12.5072 9.65795L12.5488 9.71863L12.5599 9.72984L12.5732 9.74159L12.6146 9.76956L12.624 9.77909V9.79066L12.6201 9.80055L12.6127 9.81194L12.609 9.82524L12.6051 9.83831L12.6032 9.87435L12.6051 9.89731L12.609 9.92009L12.6201 9.95143L12.6298 9.96282L12.6448 9.97612L12.6957 10.0122L12.7126 10.0284L12.7351 10.0563L12.7521 10.0727L12.7785 10.086L12.8294 10.104L12.8407 10.1121L12.8483 10.122L12.854 10.1384L12.8521 10.1533L12.8501 10.1664L12.8294 10.2155L12.8274 10.2269L12.8313 10.2368L12.8388 10.2465L12.8557 10.2516H12.8708L12.884 10.2465L12.9292 10.2105L12.9612 10.1942L12.9745 10.1892H13.0009L13.0139 10.1926L13.027 10.1991L13.0686 10.2318L13.078 10.2449L13.0911 10.2663V10.2826L13.0873 10.2942L13.0592 10.3173L13.0517 10.327L13.0478 10.3386L13.0497 10.35L13.0517 10.3599L13.063 10.3746L13.0798 10.3911L13.1194 10.4189L13.1439 10.4303L13.1666 10.4385L13.1966 10.4402L13.2193 10.4368L13.2626 10.4286H13.2757L13.2871 10.432L13.3154 10.4453L13.3284 10.4485H13.3435L13.3565 10.447L13.3812 10.4386L13.4132 10.4238L13.4245 10.4221L13.5505 10.4091L13.5656 10.4107L13.5808 10.4139L13.5939 10.4204L13.6033 10.4303L13.6089 10.4453L13.6109 10.4583L13.6089 10.4714L13.6033 10.5107L13.5939 10.5355L13.5789 10.5551L13.5731 10.5665L13.5695 10.578L13.5675 10.5894L13.5695 10.5993V10.6124L13.5656 10.6221L13.56 10.6338L13.5431 10.6501L13.5375 10.66L13.5355 10.6714L13.5375 10.6831L13.5411 10.6927L13.5431 10.7028L13.545 10.7126L13.5394 10.724L13.5319 10.7306L13.5223 10.7371L13.5111 10.7419L13.4998 10.747L13.4471 10.7567L13.4359 10.76L13.4282 10.7649L13.4226 10.7748V10.7797L13.4282 10.7896L13.4509 10.8175L13.4565 10.8304L13.4621 10.842L13.4641 10.8534V10.8667L13.4602 10.8798L13.4546 10.8913L13.449 10.9044L13.3963 10.9731L13.3849 10.9962L13.3757 11.0207L13.3718 11.0473L13.3699 11.0735L13.3679 11.0865L13.3623 11.0979L13.3549 11.1061L13.3115 11.147L13.3039 11.1569L13.3002 11.1683L13.2946 11.1931L13.2888 11.2045L13.2814 11.2144L13.2627 11.2308L13.2569 11.2389L13.2513 11.249V11.2603L13.255 11.2734L13.2607 11.2882L13.2683 11.3111L13.2702 11.3225V11.3341L13.2683 11.3718L13.2702 11.3948L13.2683 11.4081L13.2644 11.4195L13.2569 11.4277L13.2475 11.4342L13.2362 11.4392L13.2231 11.4408L13.1609 11.4392L13.1496 11.4424L13.1401 11.4473L13.1365 11.4507L13.1309 11.4589L13.127 11.4703V11.4817L13.1345 11.495L13.1966 11.567L13.2022 11.5769L13.2061 11.5883L13.2042 11.6001L13.2003 11.6131L13.1947 11.6228L13.1872 11.6327L13.1439 11.6736L13.1364 11.6835L13.1308 11.6949L13.1289 11.708L13.1326 11.7244L13.1439 11.7474V11.7622L13.14 11.7755L13.1344 11.7869L13.1383 11.8002L13.1536 11.8149L13.193 11.8362L13.2402 11.8525L13.2533 11.8607L13.2571 11.8737V11.8885L13.2515 11.9001L13.2288 11.928L13.2233 11.9394L13.2177 11.9508L13.2138 11.9641V11.9757L13.2157 11.9854L13.2213 11.997L13.2516 12.0526V12.0674L13.2477 12.0804L13.2383 12.0886L13.1894 12.1197L13.1781 12.1245L13.165 12.1279H13.1517L13.0876 12.123L13.0745 12.1245L13.0634 12.1279L13.0426 12.1378L13.0351 12.1445L13.0294 12.1494L13.0182 12.1671L12.9936 12.1917L12.9786 12.2095L12.9711 12.2193L12.9636 12.2291L12.9523 12.2356L12.9315 12.2489L12.9222 12.2554L12.9183 12.2651L12.9203 12.2817L12.9314 12.3029L12.9372 12.3326L12.9391 12.344L12.9485 12.3571L12.9899 12.4014L12.9993 12.4177V12.4324L12.9899 12.452L12.988 12.4621L12.9917 12.485L12.9899 12.4964L12.9842 12.508L12.9786 12.5179L12.9749 12.5244L12.9692 12.5293L12.9408 12.5474L12.8995 12.5704L12.89 12.5769L12.8864 12.5883L12.8881 12.6014L12.8958 12.6209L12.9014 12.634V12.6473L12.8977 12.6589L12.89 12.6686L12.8656 12.6934L12.8637 12.7016L12.8694 12.7098L12.8958 12.7163L12.9314 12.7195L13.0144 12.7442L13.0314 12.7507L13.0878 12.795L13.0954 12.8079L13.0972 12.8212L13.0991 12.8328L13.1085 12.8459L13.1255 12.8589L13.184 12.8935L13.1915 12.9099L13.1971 12.9181L13.2104 12.9278L13.2291 12.936L13.2668 12.9426L13.2876 12.9409L13.3043 12.9377L13.3159 12.9328L13.3609 12.9197L13.3703 12.9147L13.3723 12.9131L13.3817 12.9033L13.4081 12.8606L13.4155 12.8507L13.425 12.8427L13.4344 12.8361L13.4455 12.8311L13.4569 12.8279H13.4722L13.5022 12.8345H13.5172L13.5286 12.8311L13.5736 12.813L13.651 12.7953L13.6621 12.7903L13.6696 12.7838L13.6754 12.7739L13.6828 12.7642L13.6903 12.7543L13.7017 12.7478L13.7355 12.7347L13.745 12.7298L13.7544 12.7199L13.7619 12.7102L13.7675 12.6986L13.7827 12.6789L13.7923 12.6707L13.8016 12.6641L13.8129 12.6592L13.826 12.656L13.8751 12.6477L13.8845 12.6445L13.8901 12.641L13.894 12.633V12.6119L13.8901 12.597L13.8882 12.5871L13.8901 12.5757L13.892 12.5626L13.8959 12.5527L13.9015 12.5478L13.909 12.543L13.9203 12.5413L13.9428 12.551L13.9767 12.5691L14.035 12.6148L14.0783 12.6547L14.0822 12.6643L14.0841 12.6756L14.0822 12.6988L14.0936 12.7119L14.1143 12.7249L14.2046 12.7627L14.2196 12.7692L14.231 12.7806L14.246 12.797L14.2516 12.8101L14.2535 12.8217L14.2498 12.8332L14.2424 12.8431L14.2254 12.8594L14.2197 12.8693L14.2066 12.8922L14.1989 12.9186L14.1952 12.9316L14.2008 12.9447L14.2141 12.9578L14.2688 12.9839L14.2857 13.0004L14.2894 13.017L14.2875 13.0185L14.2857 13.0318V13.0678L14.2838 13.0794L14.2782 13.0908L14.263 13.1104L14.2574 13.1219L14.2535 13.135L14.2516 13.1464L14.2535 13.1578L14.2554 13.1677V13.1923L14.261 13.2088L14.3082 13.2498L14.3195 13.2646L14.3251 13.2793L14.3215 13.3055L14.3101 13.3579L14.3026 13.3826L14.3007 13.3956L14.2988 13.4203L14.3026 13.4302L14.3082 13.44L14.3176 13.4514L14.3552 13.4809L14.3684 13.494L14.3742 13.5056L14.3759 13.5186L14.3742 13.5416L14.3759 13.553L14.3834 13.5646L14.4117 13.5892L14.4437 13.6286L14.4701 13.6515L14.4928 13.6794L14.5022 13.6971L14.5058 13.7088L14.5097 13.7299V13.743L14.5114 13.7548L14.5134 13.7645L14.5267 13.7841L14.5323 13.7924L14.5342 13.8038L14.5305 13.83L14.5323 13.8416L14.5417 13.8496L14.5567 13.8561L14.6169 13.8611L14.6302 13.8693L14.6416 13.8856L14.6472 13.925L14.651 13.935L14.6999 14.0104L14.7074 14.0317L14.7278 14.0937L14.7297 14.1053L14.7336 14.1398V14.143L14.7297 14.1546L14.711 14.2053L14.7053 14.2169L14.6978 14.2266L14.6884 14.2348L14.679 14.2413L14.6415 14.2514L14.632 14.2563L14.6226 14.2627L14.6188 14.2725L14.6207 14.2823L14.6263 14.2921L14.6416 14.3102L14.6527 14.3283L14.6602 14.3481L14.6771 14.4136L14.6868 14.4334L14.6998 14.4528L14.7202 14.4692L14.8012 14.5119L14.8257 14.5284L14.839 14.5415L14.8409 14.553V14.5889L14.8503 14.5988L14.8673 14.6037L14.9011 14.6053L14.92 14.6022L14.935 14.5971L14.9764 14.5727L14.9858 14.5678L14.9989 14.5644L15.0122 14.5611L15.0442 14.5661L15.0856 14.5791L15.1308 14.6053L15.1704 14.6397L15.2005 14.6727L15.206 14.6824L15.2268 14.7203L15.2343 14.73L15.257 14.7546L15.2626 14.7643L15.2665 14.7742L15.2684 14.7841L15.2701 14.7955L15.2721 14.8071L15.2759 14.8168L15.2815 14.8265L15.2946 14.8449L15.3004 14.8545L15.304 14.8644L15.3135 14.8972L15.3171 14.9071L15.3342 14.9366L15.3436 14.9562L15.3454 14.9659V14.9775L15.3436 14.989L15.3361 14.9971L15.3267 15.0053L15.3059 15.0166L15.2965 15.0235L15.289 15.0317L15.2871 15.0429V15.0528L15.2928 15.0627L15.3362 15.1135L15.3398 15.1234L15.3418 15.1348L15.3379 15.1594L15.3473 15.171L15.3606 15.1824L15.3889 15.197L15.4001 15.2103L15.4039 15.2217L15.4001 15.2331L15.3776 15.2644L15.3681 15.284L15.3662 15.2889L15.3681 15.2987L15.3814 15.3282L15.3832 15.3379L15.3814 15.3626L15.387 15.3756L15.402 15.3854L15.4323 15.3987L15.4475 15.4084L15.457 15.4198L15.4814 15.456L15.4908 15.4642L15.502 15.4724L15.583 15.5034L15.5924 15.5101L15.5999 15.5182L15.6376 15.5741L15.647 15.5807L15.664 15.584L15.696 15.5741L15.7054 15.5624L15.7093 15.551L15.6827 15.5019L15.679 15.492L15.6809 15.4789L15.6865 15.469L15.6942 15.4593L15.7017 15.4511L15.711 15.4429L15.8297 15.364L15.8409 15.3591L15.8956 15.3544L15.9069 15.351L15.9426 15.3361L15.9576 15.3346L15.9765 15.3361L16.0386 15.3561L16.2626 15.4035L16.2739 15.41L16.2834 15.4166L16.2984 15.4313L16.3095 15.4347L16.3604 15.433L16.3887 15.4364L16.4228 15.4478L16.4378 15.4593L16.449 15.469L16.4564 15.4772L16.4659 15.4854L16.483 15.4903H16.5033L16.5336 15.4854L16.5505 15.4772L16.5617 15.4675L16.6033 15.4003L16.6236 15.351L16.6313 15.3412L16.6388 15.333L16.6499 15.3281L16.6724 15.3199L16.7027 15.3117L16.7518 15.3068L16.7668 15.3034L16.7762 15.2986L16.7931 15.2855L16.8062 15.2821L16.8232 15.2838L16.8495 15.2969L16.874 15.3165L16.8873 15.323L16.9076 15.3264L16.9511 15.3295L16.9848 15.3346L17.0357 15.351L17.079 15.3706L17.096 15.3738L17.2767 15.3639L17.3067 15.3706L17.3424 15.3689L17.3612 15.3655L17.3765 15.3607L17.3858 15.3543L17.4011 15.3526L17.4178 15.3509L17.4952 15.3606L17.5271 15.3737L17.5441 15.3851L17.5552 15.3953L17.5685 15.4131L17.5722 15.4229L17.5779 15.4328L17.5874 15.4395L17.6007 15.4444L17.6176 15.4461L17.6573 15.4345L17.6742 15.4311L17.7117 15.4328L17.7437 15.4295L17.7568 15.4246L17.8453 15.3869L17.8738 15.385L18.0753 15.4049L18.0978 15.4115L18.1523 15.4394L18.1727 15.4557L18.184 15.4591L18.201 15.4623H18.2331L18.2518 15.4591L18.2651 15.4542V15.4443L18.2613 15.4361L18.2518 15.4277L18.2105 15.4115L18.1991 15.4065L18.1916 15.3984L18.1877 15.3919L18.1841 15.3869L18.1821 15.377L18.1785 15.3542V15.3311L18.1821 15.318L18.1877 15.3066L18.2047 15.2836L18.2086 15.2737L18.2143 15.2508L18.2199 15.2426L18.2293 15.2361L18.2802 15.2245L18.2916 15.2196L18.2991 15.2116L18.3047 15.1983L18.3066 15.1869L18.3047 15.174L18.3027 15.1641L18.2971 15.1541L18.2897 15.146L18.2858 15.1362L18.2821 15.1263L18.2858 15.1166L18.2933 15.1067L18.3122 15.0936L18.3366 15.0839L18.3497 15.0805H18.4024L18.4174 15.0773L18.4288 15.069L18.4532 15.0411L18.4626 15.0347L18.4777 15.0361L18.5004 15.0426L18.5642 15.0805L18.5812 15.0936L18.5945 15.133L18.6586 15.2379L18.6697 15.2659L18.6772 15.2756L18.6944 15.2838L18.7076 15.2936L18.7169 15.3034L18.7226 15.3198L18.7207 15.3329L18.7187 15.3478V15.3737L18.7207 15.3851L18.7246 15.3954L18.7282 15.4051L18.7376 15.4148L18.7507 15.4247L18.7771 15.4396L18.7959 15.4543L18.8184 15.4805L18.8448 15.5298L18.8919 15.5886L18.9202 15.6099L18.9991 15.6362L19 15.6368Z" fill="#550000"/>
</svg>
