<svg width="26" height="26" viewBox="0 0 26 26" fill="none" xmlns="http://www.w3.org/2000/svg">
<circle cx="13" cy="13" r="13" fill="#F8F3ED"/>
<path d="M17.8893 14.9262L17.8505 14.8167L17.8551 14.7803L17.8824 14.73L17.887 14.6936L17.8733 14.5702L17.8528 14.5338L17.7749 14.4812L17.743 14.4493L17.7244 14.4013L17.6903 14.2897L17.6606 14.2396L17.5786 14.1733L17.5394 14.1548L17.5209 14.1434L17.5049 14.1184L17.5004 14.0023L17.6376 13.8358L17.6262 13.7058L17.5596 13.6099L17.5411 13.5598L17.5596 13.496L17.5988 13.4457L17.7356 13.3612L17.7424 13.3476L17.7311 13.2314L17.6832 12.7936L17.6331 12.3578L17.5875 11.92L17.4913 11.0443L17.4434 10.6065L17.3955 10.1708L17.3477 9.733L17.2993 9.29738L17.2514 8.86158L17.2036 8.42597L17.1558 7.99017L17.1101 7.55436L17.0623 7.11881L17.014 6.68319L16.9661 6.24739L16.9616 6.21779L16.8111 6.04907L16.7605 5.95774L16.6808 5.74555L16.5943 5.59983L16.5346 5.33731L16.5142 5.28267L16.4868 5.22779L16.4731 5.20732L16.4549 5.18882L16.3705 5.1615L16.3546 5.14781L16.3432 5.12931L16.3204 5.10884L16.2953 5.08355L16.2812 5.05167L16.2721 5.01954L16.2562 4.99222L16.1627 4.8531L16.1149 4.75499L16.0784 4.64115L16.0465 4.41527L16.0442 4.3811L16.0511 4.35607L16.0602 4.33991L16.0671 4.31944L16.0556 4.02504L16.0511 4L15.649 4.03891L15.2402 4.07992L14.8294 4.12118L14.4205 4.1599L14.0121 4.19863L13.6032 4.23507L13.192 4.27399L12.7836 4.31043L12.3747 4.3446L11.9662 4.38123L11.5551 4.41539L11.1439 4.44955L10.7355 4.48144L10.3266 4.51585L9.9159 4.54773L9.50474 4.57757H9.50245L9.50017 4.57986H9.4956L9.47054 4.64812L9.50245 4.68685L9.5777 4.71873L9.61412 4.74833L9.65331 4.78952L9.73306 4.84416L9.94294 4.9514L10.0204 5.01516L10.0705 5.11352L10.0682 5.09305L10.0887 5.2638L10.1161 5.33232L10.194 5.36895L10.251 5.43499L10.2829 5.44868L10.3148 5.45325L10.5247 5.55136L10.5498 5.57183L10.6136 5.6335L10.6364 5.64719L10.6734 5.64947L10.6919 5.66994L10.6988 5.70639L10.7011 5.7519L10.7124 5.79315L10.7831 5.92315L10.7763 5.95959V6.08737L10.7449 6.19652L10.7426 6.38368L10.7221 6.52027L10.6993 6.58656L10.6601 6.61869L10.6236 6.63719L10.5324 6.72143L10.5028 6.75584L10.4755 6.80345L10.4481 6.86739L10.4321 6.93591L10.4276 7.00195L10.3997 7.06596L10.4043 7.07731L10.4161 7.091L10.4206 7.10691L10.4275 7.17998L10.4252 7.21187L10.4161 7.24375L10.3838 7.28248L10.2858 7.34877L10.2673 7.37152L10.2513 7.415L10.2103 7.44916L10.1164 7.49467L9.888 7.55634L9.84016 7.58187L9.76041 7.69342L9.7172 7.73893L9.61844 7.77994L8.95178 7.88718L8.86289 7.95526L8.81505 8.05319L8.77635 8.17652L8.75123 8.3109L8.74209 8.44114L8.74666 8.5049L8.76518 8.57773L8.79709 8.6394L8.84721 8.6624L8.88184 8.67381L9.00721 8.75348L9.08246 8.83981L9.13307 8.96093L9.16042 9.09777L9.1627 9.24145L9.13036 9.35325L8.91838 9.63606L8.8819 9.69773L8.86098 9.7478L8.85413 9.79565L8.85641 9.93046L8.84727 9.9965L8.81079 10.1219L8.7561 10.2155L8.68086 10.2793L8.58925 10.3182L8.4958 10.3362L8.42283 10.3613L8.3221 10.4161L8.23092 10.4801L8.19444 10.537L8.18987 10.5575L8.17136 10.5917L8.16679 10.6215L8.17821 10.6465L8.24654 10.6991L8.27166 10.747L8.27851 10.8016L8.26938 10.8952L8.27395 10.9478L8.29247 11.0252L8.29932 11.0707L8.2808 11.1026L8.14407 11.1552L8.07525 11.2237L8.02963 11.3649L8.00685 11.5225L8 11.6479L8.00914 11.7871L8.10988 12.2821L8.12586 12.3276L8.16234 12.3754L8.2079 12.4211L8.22154 12.4416L8.23518 12.4623L8.24432 12.4851L8.24889 12.5124L8.25345 12.5853L8.2421 12.6766L8.24666 12.711L8.25808 12.7314L8.29222 12.7633L8.31271 12.802L8.3816 12.859L8.40012 12.8886L8.40697 12.9206L8.41839 12.9915L8.45487 13.0916L8.50956 13.1625L9.15153 13.6527L9.19258 13.6962L9.22449 13.7511L9.24301 13.8149L9.25893 13.8559L9.2977 13.8878L9.88664 14.2439L9.94405 14.2917L10.0058 14.36L10.0765 14.4672L10.1107 14.5289L10.1311 14.5881L10.138 14.6291L10.1403 14.7136L10.1449 14.7525L10.1613 14.789L10.2114 14.8527L10.2228 14.8846L10.216 14.9188L10.2 14.9554L10.1932 14.9943L10.2117 15.033L10.2345 15.0672L10.2504 15.1173L10.2573 15.1674L10.2504 15.2063L10.3781 15.4228L10.4595 15.5082L10.5621 15.5378L10.6624 15.4807L10.7973 15.271L10.9158 15.2343L10.9642 15.2482L11.0506 15.296L11.0962 15.3028H11.1532L11.279 15.3279L11.5279 15.4397L11.6328 15.5105L11.6784 15.5879L11.6648 15.6426L11.6306 15.7227L11.5918 15.7958L11.5599 15.8277L11.5303 15.8641L11.5325 15.9395L11.5553 16.0604L11.5645 16.1857L11.5303 16.284L11.4272 16.4892L11.3338 16.8383L11.2335 17.0368L11.2039 17.137V17.2511L11.238 17.3879L11.2565 17.4357L11.275 17.4701L11.2935 17.4997L11.3164 17.5273L11.4605 17.6297L11.479 17.657L11.5542 17.721L11.5727 17.7461L11.5932 17.7918L11.6387 17.8237L11.7349 17.8692L11.8033 17.9261L11.8694 17.9969L11.9401 18.0541L12.0294 18.0746L12.173 18.1771L12.2145 18.1956L12.3033 18.1864L12.3353 18.1933L12.415 18.2093L12.5044 18.2641L12.6571 18.3964L12.7188 18.4283L12.8738 18.4786L12.9377 18.515L13.0042 18.5952L13.0906 18.7548L13.1499 18.812L13.3968 18.9008L13.4674 18.9509L13.4515 18.9898L13.4651 19.0377L13.4884 19.0926L13.502 19.1472V19.1973L13.4952 19.2499L13.4929 19.3071L13.5066 19.3687L13.5683 19.4689L13.6458 19.5604L13.7119 19.6607L13.7489 19.784L13.7165 19.8981L13.6391 19.9892L13.5752 20.0829L13.5867 20.2014L13.6003 20.2105L13.6504 20.2264L13.6732 20.2355L13.7143 20.2631V20.3041L13.7279 20.3544L13.7512 20.3999L13.8173 20.4956L13.9289 20.6235L13.9721 20.7055L13.9631 20.7968L14.0091 20.838L14.1413 20.9268L14.2467 20.9587L14.274 20.9564L14.2831 20.9245L14.2717 20.879L14.2512 20.854L14.2279 20.8381L14.2029 20.8151L14.171 20.7488L14.1823 20.7169L14.2279 20.7055L14.2877 20.701L14.3036 20.7146L14.3221 20.7877L14.3313 20.8127L14.3563 20.8312L14.411 20.8585L14.4315 20.877L14.4475 20.9089L14.4566 20.9408L14.4681 20.9727L14.4931 20.9954L14.5232 21L14.5528 20.9909L14.5802 20.975L14.603 20.9659L14.6531 20.9844L14.5597 20.8956L14.5073 20.825L14.4931 20.7472L14.5369 20.647L14.6121 20.5443L14.6788 20.3799L14.7016 20.3435L14.7795 20.2659L14.8776 20.211L14.9892 20.1859L15.1105 20.1973L15.8161 20.4483L16.003 20.5464L16.1038 20.5649L16.195 20.5398L16.2588 20.4597L16.298 20.3321L16.2861 20.2361L16.2337 20.1473L16.1494 20.0492L16.0856 19.9533L16.0514 19.8463V19.7252L16.0833 19.5931L16.1061 19.5474L16.1335 19.5132L16.1722 19.4885L16.2224 19.4744L16.3322 19.4653L16.3732 19.4494L16.5077 19.3537L16.9485 19.2235L17.0215 19.1643L17.0306 19.078L16.9645 18.9523L16.8825 18.884L16.8688 18.868L16.8187 18.7878L16.7954 18.7332L16.805 18.6578L16.83 18.5873L16.8528 18.5441L16.9782 18.4116L17.0101 18.3684L17.0286 18.2978L17.024 18.2361L17.0286 18.195L16.9693 18.179H16.9214L16.9055 18.1745L16.8941 18.1608V18.1449L16.9009 18.138L16.9716 18.1358L17.0103 18.1289L17.0332 18.1129L17.0146 18.0811L16.8824 17.9807L16.8369 17.9349L16.9485 17.9417L16.9713 17.9395L17.0078 17.9167L17.0124 17.894L17.0032 17.8644L16.9918 17.8234L16.9713 17.764L16.969 17.7252L16.9895 17.7067L16.9987 17.6863L16.9918 17.6385L16.9781 17.5906L16.9645 17.561L16.9895 17.522L16.9485 17.4512L16.9758 17.4353L17.0168 17.4239L17.0583 17.3989L17.0948 17.3693L17.1267 17.3351L17.0856 17.3055L17.0122 17.324L16.9712 17.3081L17.0213 17.2623L17.0696 17.2054L17.0901 17.1847L17.1425 17.1662L17.163 17.1502L17.1835 17.0933L17.1493 17.0637L17.0992 17.0409L17.0741 17.0156L17.0627 16.9971L17.0442 16.9786L17.0237 16.9582L17.0146 16.926L17.0169 16.8873L17.0328 16.8645L17.0514 16.846L17.0699 16.8164L17.0813 16.7664L17.0904 16.7138L17.109 16.6748L17.1546 16.6588L17.1591 16.6773L17.1865 16.7094L17.2138 16.7231L17.2275 16.6637L17.2389 16.6387L17.2574 16.6136L17.2733 16.6022L17.2848 16.6136L17.2939 16.6432L17.3076 16.6705L17.3309 16.6819L17.3468 16.6635L17.3491 16.6293L17.3468 16.5906L17.3514 16.5632L17.365 16.5268L17.3787 16.456L17.3946 16.4194L17.4132 16.4034L17.4587 16.3806L17.4746 16.3692L17.5066 16.3192L17.5362 16.2507L17.5408 16.189L17.502 16.1571L17.4975 16.1343L17.5686 16.1025L17.6416 16.057L17.6601 16.0365L17.6829 16.0021L17.6988 15.9863L17.7216 15.9838L17.7375 15.9952H17.749L17.7627 15.9611L17.7581 15.9244L17.7102 15.8652L17.6966 15.8197L17.7035 15.7718L17.724 15.7352L17.7536 15.7056L17.7809 15.6851H17.7673L17.7764 15.6781L17.7832 15.6689L17.7901 15.6553L17.7946 15.6393L17.7761 15.5801L17.7898 15.5164L17.8194 15.4615L17.8564 15.4249L17.8792 15.418L17.9134 15.4135L17.9407 15.4044L17.9499 15.3816L18 15.1512L17.9568 15.0351L17.8893 14.9262Z" fill="#550000"/>
</svg>
