<svg width="26" height="26" viewBox="0 0 26 26" fill="none" xmlns="http://www.w3.org/2000/svg">
<circle cx="13" cy="13" r="13" fill="#F8F3ED"/>
<path d="M16.9706 15.4645L17 15.3896L16.9973 15.3294L16.9325 15.3144L16.8093 15.3264L16.7612 15.3084L16.721 15.2631L16.7428 15.2212L16.8284 15.0983L16.8471 15.023L16.8231 14.9568L16.775 14.9028L16.6867 14.8249L16.6649 14.6988L16.7374 14.5816L16.7856 14.5367L16.7481 14.212L16.7107 13.8877L16.6732 13.5664L16.6352 13.2421L16.5978 12.9175L16.5603 12.5962L16.5228 12.2719L16.4853 11.9506L16.4479 11.6267L16.4131 11.3054L16.3756 10.9845L16.3376 10.6598L16.3002 10.3385L16.2627 10.0142L16.2252 9.69294L16.1878 9.37166L16.1503 9.04771L16.1127 8.72643L16.0753 8.40516L16.0373 8.08388L16.0025 7.76261L15.965 7.44133L15.9276 7.11665L15.8901 6.79537L15.8526 6.4741L15.8152 6.15282L15.7777 5.83155L15.7397 5.51027L15.6648 4.87064L15.63 4.54937L15.5925 4.22809L15.5631 4L15.3512 4.03028L15.1392 4.06323L14.9305 4.09619L14.7186 4.12614L14.5067 4.1591L14.2953 4.18905L14.0833 4.222L13.874 4.25496L13.6626 4.28524L13.4507 4.31519L13.2388 4.34514L13.0268 4.37842L12.8181 4.40837L12.3941 4.46828L12.1827 4.49823L11.9708 4.52818L11.7589 4.55813L11.547 4.58808L11.1236 4.64539L10.9143 4.67534L10.7002 4.70229L10.4909 4.73257L10.279 4.75952L10.0676 4.78947L9.98678 4.79848L9.50989 5.17674L9.05924 5.42025L8.81521 5.48016L8.55241 5.46522L8.49088 5.4502L8.44536 5.42325L8.4213 5.37504V5.29111L8.33832 5.33908L8.23613 5.27617L8.14785 5.16797L8.15321 5.20693L8.20938 5.78057L8.26613 6.35396L8.3223 6.92728L8.37586 7.50091L8.43203 8.07455L8.4882 8.64794L8.54444 9.22158L8.60119 9.79497L8.65736 10.3713L8.7136 10.9447L8.76977 11.521L8.88268 12.6736L8.93625 13.2499L8.99509 13.8236L9.05126 14.3999L9.06467 14.5527L9.05663 14.5708L8.89609 14.682L8.85007 14.7482L8.82833 14.8321L8.85007 14.898L8.9282 15.0243L8.94161 15.1954L8.78049 15.4145L8.78586 15.5674L8.80456 15.6003L8.8263 15.6153L8.87232 15.6396L8.96864 15.7269L9.00343 15.7929L9.04358 15.9397L9.06532 16.0029L9.10279 16.0449L9.19426 16.1141L9.21832 16.1621L9.23441 16.3245L9.22905 16.3724L9.19694 16.4387L9.19158 16.4866L9.23709 16.6308L9.31471 16.775L9.36545 16.9278L9.3066 17.2311L9.29587 17.2611L9.26376 17.273L9.22369 17.279L9.19687 17.288L9.15338 17.3363L9.11859 17.4085L9.10258 17.4924L9.12432 17.5704L9.11896 17.5913L9.11091 17.6093L9.10294 17.6213L9.09221 17.6306H9.10823L9.07612 17.6575L9.04133 17.6965L9.01727 17.7447L9.00923 17.8076L9.02525 17.8675L9.08141 17.9454L9.08678 17.9937L9.07069 18.0386H9.05728L9.03858 18.0237L9.01184 18.027L8.99314 18.0476L8.96639 18.0929L8.94465 18.1199L8.85899 18.1798L8.77549 18.2218L8.78086 18.2517L8.82637 18.2937L8.82101 18.3748L8.78629 18.465L8.74875 18.5309L8.73005 18.546L8.67656 18.5759L8.65482 18.5969L8.63612 18.6451L8.6201 18.7383L8.60401 18.7863L8.59865 18.8223L8.60133 18.8732L8.59865 18.9182L8.57988 18.9426L8.55263 18.9275L8.53654 18.8916L8.52581 18.8526L8.5124 18.8376L8.49371 18.8526L8.47196 18.8856L8.45863 18.9186L8.44254 18.9968L8.41043 18.9788L8.37832 18.9365L8.37296 18.9122L8.31947 18.9331L8.29773 18.9844L8.287 19.0537L8.27367 19.1196L8.25193 19.1586L8.23018 19.1829L8.21141 19.2129L8.20873 19.2638L8.21946 19.3061L8.24359 19.3331L8.26533 19.3574L8.27867 19.3818L8.30809 19.4151L8.36702 19.445L8.4071 19.484L8.38303 19.5589L8.35897 19.5798L8.29744 19.6042L8.27338 19.6315L8.21663 19.7064L8.15778 19.7666L8.20598 19.7876L8.29215 19.7633L8.34035 19.8022L8.30288 19.8472L8.26004 19.8862L8.21134 19.9191L8.16321 19.9341L8.13111 19.9551L8.17931 20.0483L8.14988 20.0995L8.1659 20.1384L8.18199 20.2014L8.19003 20.2643L8.17931 20.2912L8.15524 20.3156L8.15792 20.3665L8.18199 20.4448L8.19532 20.4987L8.20605 20.5376L8.20068 20.5676L8.15792 20.5976L8.13111 20.6006L8 20.5915L8.05349 20.6518L8.20866 20.7839L8.2304 20.8259L8.20358 20.8469L8.15814 20.8559L8.07516 20.8589L8.06711 20.8679V20.8889L8.08052 20.9069L8.09922 20.9129H8.15546L8.22504 20.9338L8.28983 20.9158L8.34332 20.9308L8.45305 20.991L8.50653 21L8.51719 20.9731L8.63315 20.7929L8.52559 20.5646L8.5069 20.5136L8.52023 20.4267L8.56625 20.3877L8.63047 20.3937L8.68939 20.4387L8.73759 20.4897L8.78578 20.5316L8.84195 20.556L8.90675 20.562L8.96292 20.5471L9.07264 20.4902L9.09939 20.4842L9.12345 20.4513L9.16411 20.4183L9.21231 20.4093L9.25246 20.4363L9.26311 20.4902L9.24702 20.6251L9.25775 20.6853L9.32733 20.7246L9.41031 20.6764L9.47503 20.5772L9.49373 20.4635L9.46967 20.3853L9.40763 20.2741L9.38589 20.1872L9.39125 20.1362L9.40727 20.1092L9.43401 20.1002L9.45575 20.1092L9.47503 20.1362L9.4804 20.2022L9.49112 20.2411L9.60085 20.3344L9.71058 20.2921L9.82052 20.2083L9.9383 20.1574L9.99983 20.1664L10.07 20.1933L10.1396 20.2323L10.1957 20.2742L10.2519 20.3075L10.4532 20.3674L10.5629 20.4307L10.595 20.4427L10.6352 20.4487L10.6892 20.4457L10.724 20.4576L10.7401 20.4906L10.7535 20.5355L10.7723 20.5775L10.8204 20.6348L10.8499 20.6558L10.882 20.6737L10.9655 20.5954L11.0003 20.4936L11.0538 20.2322L11.0806 20.1633L11.11 20.1153L11.1448 20.0794L11.193 20.0491L11.3568 20.0071L11.3943 19.9802L11.4504 19.9019L11.5494 19.794L11.649 19.7372L11.7025 19.8031L11.7373 19.905L11.8098 20.0042L11.9067 20.0704L12.0081 20.0794L12.1313 20.0341L12.1881 20.0432L12.164 20.1274L12.1474 20.1993L12.1961 20.2323L12.263 20.2263L12.3192 20.1753L12.3326 20.0914L12.3246 20.0131L12.3353 19.9499L12.483 19.8931L12.5151 19.8481L12.5178 19.7882L12.4803 19.5268L12.4857 19.4399L12.5178 19.3979L12.5793 19.3857L12.6409 19.3527L12.6837 19.2955L12.6863 19.2086L12.6646 19.1666L12.6084 19.1126L12.5923 19.0706L12.603 19.0314L12.6351 19.0284L12.6699 19.0434L12.6887 19.0586L12.7075 19.0946L12.7422 19.1006L12.8097 19.0857L12.9221 19.0104L12.965 18.9412L12.9382 18.9142L12.8766 18.9023L12.8178 18.8723L12.7749 18.8034L12.8018 18.7735L12.8633 18.7705L12.9195 18.7914L13.0806 18.8993L13.11 18.9413L13.1207 19.1127L13.1314 19.1727L13.1636 19.2267L13.2143 19.2626L13.3321 19.3138L13.3834 19.3498L13.445 19.3767L13.5895 19.3677L13.6537 19.3767L13.7774 19.4909L13.8442 19.5358L13.8683 19.5029L13.8901 19.431L13.9516 19.395L14.0886 19.3468L14.118 19.3198L14.1421 19.2866L14.1608 19.2506L14.1742 19.2146L14.1929 19.1068L14.1742 18.7225L14.1795 18.6382L14.1956 18.5451L14.225 18.4701L14.2711 18.4342L14.2928 18.3952L14.3356 18.2208L14.3677 18.1668L14.3972 18.1638L14.4373 18.1698L14.4748 18.1788L14.4909 18.1908L14.5069 18.2238L14.5417 18.2208L14.6439 18.1698L14.6974 18.1249L14.7885 18.0257L14.834 17.8786L14.858 17.5183L14.9305 17.3924L14.9868 17.3652L15.1045 17.3322L15.1446 17.2899L15.1799 17.215L15.212 17.161L15.3485 17.0138L15.3806 16.9506L15.386 16.8727L15.3083 16.7259L15.2548 16.4855L15.228 16.4345L15.1959 16.3534L15.1879 16.2781L15.2361 16.2361L15.5577 16.155L15.737 16.137L15.7884 16.158L15.9008 16.2659L15.9597 16.2961L16.0727 16.2508L16.4479 15.9055L16.6191 15.7947L16.7134 15.7647L16.9462 15.7587L16.9815 15.7287L16.9275 15.6023L16.9382 15.5211L16.9706 15.4645Z" fill="#550000"/>
</svg>
