<svg width="26" height="26" viewBox="0 0 26 26" fill="none" xmlns="http://www.w3.org/2000/svg">
<circle cx="13" cy="13" r="13" fill="#F8F3ED"/>
<path d="M19.6435 11.022L19.617 11.0945L19.6507 11.1356L19.7298 11.1695L19.7682 11.2009L19.8094 11.2447L19.8935 11.3026L20.115 11.4164L20.1966 11.4842L20.2492 11.5884L20.247 11.5669L20.2687 11.748L20.2974 11.8208L20.3795 11.8597L20.4395 11.9297L20.4732 11.9443L20.5066 11.949L20.7281 12.0532L20.7541 12.075L20.8215 12.1404L20.8453 12.1547L20.8843 12.1572L20.9038 12.179L20.9112 12.2176L20.9137 12.2661L20.9255 12.3096L21 12.4477L20.9928 12.4863V12.6219L20.9592 12.7382L20.9567 12.9369L20.935 13.0819L20.9112 13.1522L20.8699 13.1861L20.8315 13.2057L20.7354 13.295L20.7042 13.3314L20.6755 13.3819L20.6467 13.4499L20.6297 13.5227L20.625 13.5927L20.5958 13.6605L20.6005 13.6726L20.613 13.6872L20.6177 13.704L20.6251 13.7817L20.6226 13.8154L20.6131 13.8493L20.5789 13.8903L20.4756 13.9606L20.4564 13.9849L20.4397 14.0307L20.3965 14.0671L20.2977 14.1153L20.0571 14.1808L20.0067 14.2077L19.9226 14.3262L19.8771 14.3745L19.7731 14.418L19.0709 14.5318L18.9769 14.6046L18.9265 14.7085L18.8857 14.8394L18.8591 14.9819L18.8495 15.1202L18.8544 15.1877L18.8736 15.2651L18.907 15.3306L18.9599 15.355L18.9965 15.3671L19.1286 15.4518L19.2077 15.5434L19.261 15.6718L19.2898 15.817L19.2923 15.9694L19.2581 16.0882L19.0349 16.3883L18.9965 16.4537L18.9744 16.5069L18.9672 16.5576L18.9695 16.7009L18.9598 16.7709L18.9215 16.904L18.8639 17.0032L18.7845 17.071L18.6882 17.1124L18.5896 17.1314L18.5129 17.1576L18.4067 17.216L18.3108 17.2838L18.2722 17.3442L18.2675 17.3659L18.2483 17.4021L18.2434 17.4337L18.2554 17.4604L18.3275 17.5161L18.3535 17.5669L18.3608 17.625L18.3513 17.7242L18.3559 17.7801L18.3751 17.8622L18.3825 17.9104L18.363 17.9443L18.2191 18L18.1901 17.976L18.1154 17.9539L18.0842 17.9321L17.9857 17.85L17.9618 17.8211L17.9665 17.7993L17.964 17.7775L17.9544 17.7554L17.9377 17.7337L17.9161 17.7196L17.8652 17.7022L17.8411 17.6877L17.834 17.6706L17.8268 17.654L17.8197 17.6392L17.8027 17.6345L17.7767 17.6369L17.7647 17.6345L17.7526 17.6273L17.7406 17.6076L17.7264 17.5643L17.719 17.5522L17.659 17.5183L17.6034 17.5087L17.5794 17.4963L17.5577 17.4745L17.5457 17.4508L17.5385 17.4213L17.5336 17.3778L17.5218 17.3607L17.4736 17.3318L17.4616 17.3175L17.4377 17.2716L17.3364 17.2788L17.0982 17.2985L16.4922 17.3467L15.8863 17.3949L15.2803 17.4412L14.674 17.4845L14.0681 17.5283L13.4621 17.5718L12.8561 17.6129L12.2496 17.6518L11.6414 17.6904L11.0355 17.7268L10.4295 17.7607L9.82057 17.7946L9.21486 17.8285L8.60888 17.8599L8.00043 17.8888L7.39172 17.9177H7.37722L7.38438 17.8648V17.7945L7.35837 17.7242L7.31045 17.6926L7.17599 17.6443L7.14725 17.5911L7.13938 17.5622L7.12267 17.5404L7.11065 17.5161L7.10597 17.4703L7.11312 17.4364L7.12267 17.4193L7.15681 17.381L7.20473 17.3008L7.19979 17.2747L7.17378 17.2336L7.16663 17.1947L7.17378 17.1194L7.19049 17.059L7.20252 16.9962L7.19049 16.9163L7.15707 16.8389L7.15213 16.7976L7.15928 16.7301L7.15707 16.6987L7.13964 16.6645L7.09413 16.6306L7.07248 16.6063L7.05798 16.5702L7.06286 16.541L7.0771 16.5242L7.08444 16.5071L7.06994 16.4831L7.06039 16.466L7.05545 16.4539L7.04829 16.4443L7.03626 16.4371V16.4175L7.05076 16.3957L7.08197 16.304L7.06526 16.2603L7.05545 16.1563L7.04121 16.1079L7.09875 16.0787L7.06533 16.0545L6.95245 16.023L6.9163 15.9844L6.91383 15.9312L6.92833 15.7932L6.95434 15.7786L7.00473 15.7182L7.03841 15.6527L7.01435 15.6265L6.97131 15.6216L6.85798 15.5877L6.81715 15.5659L6.86754 15.3603V15.3236L6.88705 15.1905L6.86982 15.1591L6.85285 15.1519L6.83119 15.1544L6.73042 15.1348L6.69674 15.1155L6.68002 15.0793L6.68497 15.0477L6.69459 15.0064L6.70636 14.9678L6.71839 14.9534L6.72086 14.9435L6.70168 14.9218L6.67047 14.9L6.63926 14.8928L6.61761 14.9L6.56917 14.9339L6.54043 14.9363L6.4851 14.9L6.48042 14.8349L6.49225 14.7695V14.7433L6.45636 14.7188L6.43718 14.6631L6.42762 14.5906L6.42268 14.4548L6.42983 14.4308L6.44433 14.4041L6.46845 14.3704L6.47561 14.3533L6.47092 14.3365L6.46598 14.293L6.47554 14.2324L6.49472 14.1742L6.50187 14.1114L6.47587 14.0389L6.32418 13.8934L6.31455 13.8744L6.27132 13.792L6.26176 13.7631V13.7267L6.28588 13.6612L6.29303 13.6321L6.25935 13.5041L6.16833 13.4361L6.06508 13.3804L5.99258 13.2908L5.98055 13.2183L5.97834 13.1528L5.9734 13.0922L5.94466 13.039L5.89915 13.0004L5.81534 12.9494L5.77873 12.901L5.75272 12.8235L5.75988 12.7654L5.77906 12.7099L5.78862 12.6495L5.78146 12.5743L5.76696 12.5209L5.73823 12.4798L5.70234 12.4536L5.69739 12.4029L5.61332 12.3059L5.62067 12.1703L5.64941 12.0297L5.61105 11.8989L5.56781 11.8675L5.50929 11.8504L5.40136 11.836L5.39642 11.7222L5.37971 11.6834L5.36547 11.6762L5.35344 11.6594L5.35097 11.6397V11.6135L5.3485 11.5942L5.34135 11.5772L5.32438 11.548L5.31482 11.5336L5.30526 11.524L5.29103 11.5166L5.24974 11.4926L5.2448 11.4827V11.4753L5.25221 11.4635L5.25442 11.4585L5.28147 11.4367L5.28862 11.4224L5.28615 11.4078L5.27659 11.3957L5.25741 11.3739L5.2353 11.3546L5.10331 11.265L5.08166 11.2457L5.06001 11.2212L5.01918 11.1633L5.00494 11.1319L5 11.1052L5.00494 11.0619L5.0145 11.0305L5.03368 10.9842L5.06957 10.9307L5.07451 10.9164L5.08166 10.8993L5.08413 10.8825L5.09129 10.8657L5.0987 10.8511L5.10826 10.839L5.11541 10.8294L5.12497 10.8247L5.16086 10.8076L5.17067 10.8004L5.17783 10.7883L5.1803 10.7712V10.7301L5.18498 10.7108L5.18992 10.6962L5.19954 10.6841L5.2091 10.6767L5.21378 10.6599L5.21872 10.6356L5.2212 10.5485L5.22341 10.5267L5.22588 10.5195L5.26963 10.4685L5.27679 10.4492L5.28634 10.4104L5.28166 10.35L5.27919 10.3379L5.28166 10.3307V10.3257L5.29122 10.3089L5.30546 10.2653L5.3104 10.2435L5.30793 10.2286L5.30325 10.2192L5.2959 10.2068L5.28387 10.19V10.1732L5.28881 10.1561L5.3658 10.0786L5.37536 10.0618L5.38498 10.0375L5.40663 9.90916V9.88298L5.40169 9.86335L5.39453 9.83907L5.38498 9.80766L5.36092 9.67023L5.3513 9.63607L5.34415 9.62122L5.33459 9.60937L5.32009 9.60218H5.30559L5.28173 9.60466H5.2617L5.20832 9.59727L5.16996 9.60224L5.14831 9.59975L5.13134 9.59478L5.11463 9.57796L5.10969 9.56088L5.11216 9.54406L5.11931 9.52947L5.14096 9.50545L5.14831 9.49335L5.14337 9.48124L5.13134 9.46913L5.11216 9.45703L5.09051 9.42313L5.0883 9.4016L5.09545 9.38675L5.10969 9.38203L5.14584 9.38675L5.16255 9.38203L5.17458 9.37464L5.18413 9.36253L5.18907 9.35043L5.19623 9.27301L5.19128 9.10849L5.18413 9.0746L5.17458 9.06275L5.13134 9.01897L5.11216 8.99227L5.06664 8.94646L5.05462 8.92938L5.04259 8.89797L5.04012 8.87369V8.84477L5.04506 8.80812L5.04259 8.78633L5.03544 8.76454L5.02809 8.74772L5.021 8.72842L5.03056 8.7188L5.37204 8.7042L6.15604 8.67803L6.94023 8.6491L7.72417 8.61743L8.51089 8.58628L9.29463 8.54944L10.0786 8.51083L10.8628 8.46973L11.6467 8.42863L12.4309 8.38283L13.2149 8.33407L13.9991 8.28584L14.7806 8.23238L15.5648 8.17918L16.3487 8.12126L17.1305 8.06308L17.9144 8V8.04627L17.9193 8.08461L17.9289 8.12126L17.9434 8.15516L17.9818 8.21779L17.996 8.24697L18.0056 8.28061L18.0251 8.36823L18.0465 8.39964L18.0755 8.41895L18.2896 8.48439L18.3542 8.55192L18.3687 8.67096L18.3304 8.76991L18.2176 8.9515L18.1981 9.0653L18.2293 9.2878L18.2553 9.39421L18.2648 9.51049L18.272 9.54688L18.2865 9.583L18.301 9.72847L18.3202 9.7985L18.3514 9.84921L18.4256 9.92689L18.4552 9.97021L18.4743 10.0261L18.491 10.1614L18.5055 10.2198L18.599 10.3722L18.6327 10.4108L18.6926 10.4472L18.8013 10.4839L19.2239 10.5297L19.3372 10.5611L19.3949 10.5636L19.455 10.5782L19.4958 10.6215L19.5538 10.7474L19.5779 10.784L19.6475 10.8684L19.6715 10.9142L19.6691 10.9503L19.6431 11.0233L19.6435 11.022Z" fill="#550000"/>
</svg>
