<svg width="26" height="26" viewBox="0 0 26 26" fill="none" xmlns="http://www.w3.org/2000/svg">
<circle cx="13" cy="13" r="13" fill="#F8F3ED"/>
<path d="M20 16.7242L19.5314 16.7474L19.0644 16.7688L18.5953 16.7899L18.1266 16.8109L17.6578 16.8306L17.1891 16.8481L16.7204 16.8656L16.2512 16.8813L15.7825 16.8949L15.3138 16.9106L14.845 16.9224L14.3759 16.9341L13.9092 16.9456L13.4384 16.9553L12.9716 16.965L12.5028 16.9728L12.0339 16.9805L11.5653 16.9843L11.0945 16.9902L10.6276 16.994L10.1568 16.996L9.68811 16.998L9.21926 17H8.75042L8.28157 16.998L7.81272 16.996L7.34388 16.9922L6.87503 16.9882L6.40619 16.9824L5.93754 16.9765L5.46885 16.9688L5 16.961L5.00365 16.7162L5.0075 16.4731L5.01115 16.2282L5.01501 15.9829L5.01866 15.74L5.02251 15.4947L5.02616 15.2518L5.02809 15.0068L5.03194 14.7639L5.03559 14.5188L5.03944 14.2757L5.0433 14.0306L5.04715 13.7873L5.0508 13.5444L5.05465 13.2993L5.05658 13.0565L5.06023 12.8134L5.06408 12.5685L5.06773 12.3252L5.07158 12.0821L5.07523 11.839L5.07909 11.5939L5.08274 11.351L5.08659 11.108L5.09024 10.8649L5.09409 10.622L5.09774 10.3787L5.09967 10.1356L5.10347 9.8925L5.10712 9.64941L5.11098 9.40632L5.11463 9.16544L5.52527 9.17122L5.93592 9.17895L6.34657 9.18474L6.75909 9.18868L7.16973 9.19246L7.58038 9.19646L7.99103 9.19846L8.40167 9.20024L8.81419 9.20224H9.63549L10.0461 9.20024L10.4587 9.19846L10.8693 9.19446L11.2797 9.19068L11.6903 9.18668L12.101 9.1809L12.5116 9.17317L12.9223 9.16723L13.3329 9.1595L13.7454 9.14978L14.1561 9.14026L14.5667 9.13053L14.9774 9.11881L15.388 9.1073L15.7987 9.09358L16.2093 9.07986L16.6221 9.06634L17.0327 9.05057L17.4433 9.0348L17.8522 9.0173L18.2647 9L18.379 9.1012L18.4073 9.14016L18.4298 9.14394L18.4541 9.14794L18.471 9.15566L18.4859 9.17669L18.4934 9.19814L18.5047 9.21544L18.5216 9.23121L18.5385 9.23499L18.5797 9.23899L18.6021 9.24672L18.6249 9.26249L18.6811 9.32289L18.7223 9.34219L18.7672 9.32642L18.8065 9.29719L18.8649 9.24051L18.8929 9.22322L18.9266 9.21349L18.9717 9.2095L18.9978 9.22322L19.0127 9.25245V9.28741L18.9978 9.31464L19.0279 9.3496L19.1162 9.39812L19.1365 9.42536L19.1346 9.45059L19.129 9.50316L19.1271 9.53239L19.1365 9.56341L19.1514 9.58091L19.1627 9.59842L19.1608 9.62765L19.1309 9.66066H19.0858L18.99 9.63543L18.9751 9.64516L18.9657 9.66618L18.9601 9.69363L18.9582 9.75782L18.9471 9.77332L18.9302 9.78305L18.9095 9.79856L18.8497 9.86653L18.8215 9.91127L18.8081 9.95601L18.8136 10.0125L18.8119 10.0417L18.8062 10.0627L18.7859 10.0782L18.7334 10.0842L18.7184 10.0919V10.1464L18.7447 10.1971L18.7802 10.2358L18.8157 10.2495L18.8274 10.2688L18.876 10.3582L18.8963 10.3874L18.9113 10.3973L18.9486 10.4129L19.0353 10.4691L19.0428 10.4846L19.0558 10.5254L19.0652 10.5391L19.1532 10.5549L19.1363 10.6014L19.1566 10.7045L19.2052 10.8055L19.2731 10.8505L19.2934 10.8737L19.2991 10.9282L19.3102 10.9826L19.3476 11.0059L19.3888 11.0156L19.4791 11.072L19.524 11.0876L19.5839 11.0818L19.6138 11.0838L19.6345 11.0798L19.6437 11.0818L19.6551 11.0896L19.6591 11.111L19.6666 11.1148L19.7135 11.1168L19.7471 11.1283L19.7509 11.1497L19.7247 11.1828L19.7285 11.1865V11.1943L19.7304 11.2023L19.7396 11.2063L19.7415 11.2238L19.749 11.4144L19.7659 11.745L19.7809 12.0755L19.7958 12.4081L19.8108 12.7387L19.8277 13.0712L19.8426 13.4018L19.8578 13.7343L19.8731 14.065L19.8899 14.3974L19.9049 14.7301L19.9198 15.0623L19.9367 15.395L19.9517 15.7254L19.9666 16.0581L19.9835 16.3906L19.9987 16.7232L20 16.7242Z" fill="#550000"/>
</svg>
