<svg width="26" height="26" viewBox="0 0 26 26" fill="none" xmlns="http://www.w3.org/2000/svg">
<circle cx="13" cy="13" r="13" fill="#F8F3ED"/>
<path d="M22.9457 11.475L22.9158 11.4778L22.8382 11.5097L22.8083 11.5124L22.5855 11.4778L22.5453 11.4644L22.525 11.4458L22.5224 11.4267V11.4054L22.515 11.3896L22.5075 11.3735L22.495 11.3601L22.47 11.3388L22.3771 11.2722H22.3545L22.342 11.2801L22.3321 11.2883L22.3246 11.2828L22.2647 11.2159L22.2346 11.1919L22.2123 11.1812L22.1898 11.1733L22.0793 11.1492L22.0542 11.1383L22.0394 11.1195L22.0194 11.0689L21.9618 10.9597L21.9567 10.9408L21.9544 10.922L21.9293 10.8873L21.8893 10.8445L21.6939 10.6924L21.6864 10.679L21.6765 10.6632L21.6639 10.6282L21.634 10.5184L21.6263 10.4944L21.6114 10.4731L21.5864 10.4384L21.569 10.4226L21.5511 10.4092L21.4311 10.3453L21.416 10.3289L21.4112 10.3103L21.4135 10.2996L21.4386 10.2379L21.4438 10.2218V10.2087L21.4361 10.1926L21.4235 10.1659L21.4061 10.1473L21.3962 10.1367L21.2309 10.0244L21.2084 10.0027L21.1907 9.97326L21.1682 9.92494L21.1508 9.89604L20.908 9.63137L20.888 9.60248L20.8829 9.58637V9.55748L20.888 9.54953L20.8955 9.53862L20.9354 9.49326L20.953 9.46675L20.9579 9.45064L20.9605 9.43699V9.41842L20.948 9.35941V9.34084L20.9505 9.32474L20.9554 9.31412L20.9679 9.30617L21.0004 9.29555L21.0109 9.28493L21.016 9.27157L21.0134 9.25301L21.0108 9.23415L21.006 9.21559L20.9978 9.17817L20.9929 9.09784V9.05226L20.9855 9.01759L20.9704 8.97772L20.9053 8.87659L20.8928 8.84957L20.8905 8.84163L20.888 8.82826L20.8854 8.73436L20.8803 8.69449L20.878 8.67282L20.8455 8.6354L20.7854 8.52835L20.7507 8.48298L20.5301 8.312L20.4198 8.26144L20.2924 8.23717L20.1673 8.18913L20.0696 8.06633L19.9721 7.84182L19.9544 7.77494L19.9445 7.70588L19.9297 7.65481L19.8946 7.63624L19.8266 7.6603L19.6792 7.77255L19.6142 7.79386L19.5638 7.82037L19.5288 7.86841L19.4988 7.92468L19.4664 7.96802L19.4014 8.00789L19.3811 8.0292L19.3712 8.05875L19.3538 8.13604L19.3387 8.17591L19.2957 8.21362L19.2407 8.22727L19.1184 8.22156L19.0583 8.23767L19.0205 8.26989L18.9928 8.30456L18.903 8.34198L18.8805 8.33649L18.8431 8.30456L18.7631 8.20567L18.7428 8.184L18.7051 8.16233L18.6253 8.13857L18.588 8.13582L18.4929 8.15164L18.4676 8.14369L18.4174 8.10382L18.3627 8.07702L18.3051 8.06091L18.2475 8.0664L18.0697 8.1598L18.0426 8.18653L18.04 8.2532L18.0175 8.31764L17.975 8.36574L17.9251 8.39226L17.8072 8.38431L17.6922 8.32558L17.4892 8.16226L17.439 8.11169L17.3965 8.05571L17.3487 8.01035L17.2312 7.99424L17.1187 7.95653H17.0558L16.8286 8.04228L16.7677 8.04502L16.4573 7.97279L16.395 7.93508L16.3625 7.87881L16.3477 7.79357L16.33 7.72423L16.3052 7.66247L16.2701 7.60923L16.2397 7.57976L16.1997 7.55029L16.1621 7.51561L16.1422 7.46758L16.1296 7.40639L16.1045 7.34471L16.0698 7.28843L16.0248 7.25102L15.9042 7.20565L15.837 7.18983L15.7843 7.18709L15.752 7.16303L15.7144 7.10431L15.6688 7.04284L15.609 7.01878L15.4989 7.05865L15.2886 7.20038L15.1763 7.20558L15.0233 7.08278L14.9808 7.06393L14.9657 7.05598L14.9258 7.00795L14.9007 7L14.8682 7.01062L14.8483 7.03438L14.8129 7.09094L14.6776 7.20811L14.6326 7.24827L14.5653 7.35258L14.5856 7.46483L14.668 7.53418L14.713 7.582L14.7355 7.64101L14.7181 7.7079L14.6381 7.81741L14.6178 7.85454L14.6551 7.89499L14.7001 7.91081L14.8152 7.90019L14.8761 7.91355L14.8784 7.96737L14.8513 8.03404L14.8209 8.08461L14.8109 8.15684L14.8613 8.26938L14.8283 8.29618L14.6111 8.30138L14.5231 8.32818L14.3632 8.42678L14.013 8.73407L13.9076 8.77452L13.8526 8.74751L13.7477 8.65136L13.6996 8.6328L13.5322 8.64891L13.2319 8.72078L13.1868 8.7582L13.1942 8.82509L13.2244 8.89732L13.2492 8.94268L13.2994 9.15657L13.3718 9.28739L13.3666 9.35652L13.3367 9.41279L13.2093 9.5439L13.1794 9.59193L13.1464 9.6586L13.1088 9.69631L12.999 9.72521L12.9466 9.74955L12.8785 9.86151L12.856 10.1822L12.8135 10.313L12.7286 10.4015L12.6787 10.4413L12.5833 10.4867L12.5508 10.4894L12.5357 10.46L12.5209 10.4494L12.4858 10.4414L12.4482 10.4362L12.4212 10.4387L12.3912 10.4867L12.3513 10.6419L12.331 10.6765L12.2883 10.7088L12.2607 10.7754L12.2456 10.8582L12.2407 10.9333L12.2581 11.2753L12.2407 11.3711L12.2282 11.4034L12.2108 11.4353L12.1883 11.4648L12.1606 11.4888L12.0327 11.5317L11.9754 11.5637L11.9554 11.6279L11.9329 11.6568L11.8704 11.6169L11.7554 11.5153L11.6952 11.5071L11.5604 11.5153L11.5029 11.4912L11.455 11.4593L11.345 11.4137L11.2976 11.3815L11.2677 11.3337L11.2577 11.2801L11.2478 11.1277L11.2207 11.0903L11.0703 10.9942L11.0178 10.9756L10.9603 10.9783L10.9352 11.0051L10.9754 11.0663L11.0304 11.093L11.0877 11.1037L11.1128 11.1278L11.0729 11.1893L10.9678 11.2562L10.9048 11.2695L10.8724 11.2643L10.855 11.2324L10.8376 11.2187L10.8051 11.2054L10.7752 11.2081L10.765 11.2431L10.7801 11.2802L10.8325 11.3282L10.8525 11.3657L10.8502 11.443L10.81 11.494L10.7527 11.5229L10.6951 11.5338L10.6652 11.5712L10.66 11.6485L10.6951 11.8812L10.6925 11.9344L10.6626 11.9743L10.5247 12.0249L10.5147 12.0811L10.5222 12.1508L10.5087 12.2263L10.4563 12.2716L10.3938 12.2771L10.3483 12.2476L10.3639 12.1837L10.3864 12.1089L10.3334 12.1007L10.2184 12.1412L10.1236 12.133L10.0331 12.0743L9.96544 11.9858L9.93295 11.8951L9.88308 11.8367L9.79025 11.8873L9.69788 11.9834L9.64517 12.053L9.61039 12.0768L9.4574 12.1142L9.4124 12.1412L9.37992 12.1732L9.35286 12.2158L9.32775 12.2773L9.27788 12.5097L9.2454 12.6004L9.16739 12.67L9.13748 12.6542L9.11041 12.6353L9.06541 12.5848L9.04802 12.5474L9.0355 12.5075L9.02042 12.478L8.98793 12.4673L8.93752 12.4701L8.8999 12.4646L8.86999 12.454L8.76768 12.3977L8.57964 12.3444L8.5272 12.315L8.47476 12.2776L8.4098 12.2429L8.34457 12.2188L8.28706 12.2109L8.17703 12.2562L8.07418 12.3308L7.97187 12.3685L7.86929 12.2855L7.85934 12.2508L7.85447 12.1921L7.83633 12.168L7.81604 12.1602L7.791 12.168L7.77618 12.1921L7.77104 12.2375L7.791 12.315L7.84905 12.4139L7.87159 12.4836L7.8542 12.5847L7.7933 12.6729L7.71576 12.7157L7.651 12.6808L7.64078 12.6272L7.65587 12.5073L7.64592 12.4592L7.60857 12.4352L7.56357 12.4431L7.52548 12.4726L7.50295 12.5015L7.47811 12.507L7.37553 12.5575L7.32309 12.5709L7.26273 12.5654L7.21029 12.5441L7.16523 12.507L7.12023 12.4616L7.06522 12.4214L7.00533 12.4162L6.96237 12.4509L6.94985 12.5282L6.96751 12.5736L7.06779 12.7768L6.95952 12.9371L6.94951 12.9611L6.89964 12.9529L6.79733 12.8994L6.74719 12.8861L6.68683 12.9022L6.68169 12.9505L6.68683 13.0227L6.66687 13.1055L6.63182 13.1561L6.49446 13.3112L6.46942 13.3618L6.44236 13.4446L6.43187 13.5328L6.45744 13.597L6.51219 13.6909L6.52727 13.7095L6.61734 13.7895L6.68974 13.9367L6.67979 14.0378L6.59968 14.1072L6.11661 14.2599L5.96897 14.3719L5.92417 14.3904L5.80366 14.401L5.74865 14.4177L5.70615 14.4466L5.67624 14.4868L5.65114 14.5403L5.61609 14.6949V14.8369L5.65371 14.9623L5.72354 15.0746L5.81618 15.1896L5.87349 15.2936L5.88655 15.4062L5.84358 15.5556L5.77375 15.649L5.67374 15.6784L5.56317 15.6571L5.35849 15.5421L4.5848 15.2483L4.45204 15.2349L4.3295 15.2638L4.22204 15.3282L4.13658 15.4192L4.11175 15.4618L4.03677 15.6514L3.95415 15.7718L3.90631 15.8889L3.92167 15.9802L3.97926 16.063L4.08157 16.167L4.10187 16.2287L4.09673 16.3863L4.11181 16.4986V16.5333L4.0993 16.5598L4.07676 16.5923L4.05423 16.6322L4.04679 16.6748L4.06418 16.7496L4.11662 16.87L4.12914 16.9501L4.11662 17.0462L4.0317 17.3054L3.98433 17.5165L3.93419 17.6206L3.86653 17.6687L3.77903 17.6446L3.70156 17.5831L3.62861 17.5086L3.55621 17.4523L3.5286 17.474L3.51379 17.4953L3.49349 17.5595L3.46588 17.6958L3.46331 17.7518L3.43624 17.9228L3.42372 17.9654L3.89143 17.9174L4.36218 17.8693L4.82785 17.8188L5.29813 17.7682L5.76401 17.7176L6.23218 17.6666L6.69989 17.6133L7.16807 17.5601V17.4746L7.15812 17.346L7.14818 17.29L7.09316 17.1111L7.0282 16.9481L7.01819 16.9134L7.01562 16.8949L7.02076 16.8897L7.03328 16.8869L7.18065 16.8842L7.42601 16.8814L7.57643 16.8787L7.59869 16.8842L7.61378 16.9028L7.63625 16.9508L7.65134 16.9694L7.66615 16.9803L7.68125 16.9748L7.791 16.9614L7.82862 16.9562L7.93147 16.9428L8.0888 16.9215L8.2968 16.8947L8.54216 16.8598L8.81282 16.8251L9.10547 16.7849L9.40584 16.742L9.70878 16.7022L9.99886 16.662L10.2718 16.6221L10.5172 16.5874L10.7223 16.5604L10.8822 16.5367L10.9854 16.5233L11.0204 16.5178L11.1379 16.4992L11.2307 16.4643L11.2555 16.4589L11.373 16.4483L11.4531 16.4403L11.6859 16.419L12.0441 16.3843L12.5095 16.339L13.0601 16.2857L13.6734 16.224L14.3319 16.1571L15.0099 16.0849L15.6887 16.0104L16.3441 15.9381L16.9574 15.8685L17.508 15.8073L17.9736 15.7513L18.3315 15.7084L18.5615 15.6819L18.6439 15.6735L18.7744 15.6549L18.8668 15.6123L18.9344 15.564L19.037 15.4386L19.0874 15.4039L19.1048 15.3987L19.3277 15.2673L19.5825 15.1979L19.6107 15.1846L19.6281 15.1688L19.6581 15.1313L19.7556 15.051L20.0183 14.9095L20.2861 14.8186L20.3064 14.8027L20.3215 14.7863L20.3241 14.7705L20.3215 14.7517L20.3116 14.7197V14.7061L20.3167 14.693L20.3438 14.6501L20.3563 14.6154L20.3911 14.4926L20.4361 14.4233L20.4491 14.4124L20.4665 14.4044L20.5816 14.3828L20.7372 14.2866L20.8896 14.1927L20.927 14.1638L20.9369 14.1477L20.9447 14.1319L20.947 14.113L20.9521 14.0942V14.0756L20.9495 14.0221L20.9421 13.9822L20.9369 13.9637L20.9295 13.9077L20.9395 13.8752L20.962 13.8405L21.0201 13.779L21.2373 13.6163L21.2624 13.592L21.2699 13.5762L21.2773 13.5601L21.2824 13.5388V13.4959L21.2674 13.4186L21.25 13.365L21.2475 13.341L21.2651 13.3036L21.3081 13.2449L21.4231 13.1271L21.6833 12.9321L21.8787 12.7851L22.056 12.6516L22.1136 12.5953L22.3139 12.3497L22.5341 12.0772L22.6741 11.901L22.8721 11.6576L23 11.4973L22.9457 11.475ZM3.09798 17.7515L3.01252 17.7995L3 17.9276L3.02998 17.9702L3.05704 18L3.23257 17.9757L3.24251 17.9277L3.19515 17.7889L3.09798 17.7515Z" fill="#550000"/>
</svg>
