<svg width="26" height="26" viewBox="0 0 26 26" fill="none" xmlns="http://www.w3.org/2000/svg">
<circle cx="13" cy="13" r="13" fill="#F8F3ED"/>
<path d="M12.4671 18.2878H12.3933L12.3021 18.2722L12.2995 18.2671L12.206 18.2328L12.1247 18.1614L12.0767 18.1323L11.91 18.1058L11.8714 18.111L11.8613 18.1242L11.8339 18.1719L11.8186 18.1878L11.7479 18.2164L11.6922 18.2269L11.6365 18.2479L11.5702 18.3167V18.3667L11.6238 18.4088L11.9354 18.5252L11.9656 18.5537L11.9985 18.5642L12.1762 18.67L12.2899 18.6382L12.3306 18.633L12.3508 18.6225L12.3557 18.5958L12.3531 18.5482L12.3658 18.4878L12.4013 18.4478L12.5054 18.3768L12.5282 18.3215L12.508 18.2948L12.4671 18.2878ZM14.9445 19.9517H14.9523L14.9142 19.9412L14.9445 19.9517ZM14.9523 19.9517L15.0413 19.9779L15.1452 19.97L15.0742 19.9544L14.9523 19.9517ZM15.2845 19.9595L15.2613 19.9544L15.2512 19.9673L15.2561 19.9832L15.2767 19.9937L15.2998 19.9991L15.305 19.9911L15.2974 19.9754L15.2845 19.9595ZM15.8159 19.8537L15.8035 19.8565H15.7525L15.745 19.8669L15.7248 19.8856L15.6867 19.8961L15.6616 19.888L15.6514 19.875L15.6335 19.8774L15.5729 19.9093L15.5597 19.9276L15.4812 19.9567L15.4889 19.9778L15.5345 19.9727L15.7575 19.896L15.8055 19.8695L15.8409 19.841L15.8466 19.8329L15.8261 19.8461L15.8159 19.8537ZM16.5206 19.8327L16.4851 19.8171L16.4114 19.7933L16.2345 19.7719L16.2319 19.7905L16.3784 19.838L16.5131 19.8594L16.5333 19.8567L16.5307 19.8435L16.5206 19.8327ZM20.6276 17.3536L20.64 17.3376L20.625 17.3509L20.5996 17.3773L20.6022 17.3798L20.6276 17.3536ZM19.7282 16.4084L19.7434 16.3979L19.7331 16.3817L19.7308 16.3661L19.7409 16.3396L19.665 16.3661L19.6145 16.3926L19.5689 16.4401L19.5764 16.456L19.6018 16.4428L19.6321 16.4296L19.6852 16.4136L19.7282 16.4084ZM20.0524 18.0029L20.098 17.9659L20.111 17.9106L20.1061 17.9L20.1035 17.8923L20.098 17.8868L20.0854 17.8923L20.0753 17.9422L20.0349 17.9792L19.9362 18.027L19.9919 18.0242L20.0524 18.0029ZM16.3785 19.1806L16.3938 19.1596L16.4114 19.131L16.4064 19.0995L16.3736 19.1178L16.3583 19.1972L16.366 19.2472L16.3684 19.2078L16.3785 19.1806ZM20.3262 17.7762L20.4049 17.6601L20.415 17.6387L20.4 17.6468L20.3948 17.6519L20.2852 17.8103L20.3054 17.7971L20.3262 17.7762ZM19.4216 16.0125L19.4799 15.9942L19.4825 15.9861L19.49 15.9677L19.5053 15.9494L19.5258 15.9408L19.5364 15.9438L19.5465 15.9518L19.5592 15.9599L19.582 15.9626L19.5843 15.9545L19.5921 15.9356L19.6045 15.9149L19.6251 15.9068L19.6476 15.9122L19.6603 15.933L19.673 15.9573L19.6831 15.9732L19.7286 16.0285L19.7489 16.0336L19.7641 15.9915L19.8095 15.9994L19.8354 15.9708L19.8429 15.9179L19.8354 15.8623H19.8148L19.8097 15.8861L19.7973 15.9071L19.782 15.9258L19.7615 15.9441L19.7563 15.9285L19.7387 15.8942L19.7439 15.8443L19.6882 15.8259L19.6452 15.8021L19.683 15.7308L19.7563 15.6303L19.7918 15.5961L19.8304 15.5699L19.8252 15.5461L19.7817 15.5617L19.7462 15.6014L19.6957 15.6808L19.6272 15.7467L19.5868 15.7729L19.5438 15.7939L19.5712 15.8522L19.5486 15.876L19.5101 15.8787L19.4899 15.884L19.4797 15.9102L19.4495 15.931L19.4114 15.9472L19.3762 15.9553L19.3987 16.0027L19.4216 16.0125ZM19.541 16.4165L19.5638 16.379L19.5993 16.2923L19.6169 16.2313H19.602L19.5609 16.308L19.5358 16.3685L19.5251 16.403L19.5023 16.4427L19.4769 16.4821L19.4922 16.477L19.541 16.4165ZM19.6599 16.8337L19.6423 16.8391L19.6149 16.8575L19.5843 16.8653L19.4903 16.8496L19.4854 16.8707L19.6351 16.9816L19.6599 16.8337ZM15.3983 19.9493L15.3857 19.9625V19.9757L15.3833 19.9887H15.3909L15.4183 19.9652L15.4261 19.9387H15.4159L15.3983 19.9493ZM20.5417 19.017L20.544 19.0435L20.5668 19.0408L20.5769 19.0038L20.5971 18.9933L20.6629 19.0066L20.6378 18.9723L20.6251 18.9669L20.5971 18.9644L20.5948 18.938L20.6554 18.9326L20.6199 18.8851L20.5847 18.8641L20.5391 18.8614L20.4886 18.8746L20.5037 18.9091L20.5112 18.9248H20.4734L20.4255 18.9169L20.382 18.8928L20.3614 18.8532L20.235 18.8297L20.2324 18.8059L20.2653 18.7927L20.2933 18.7768L20.3138 18.753L20.3288 18.7212L20.2959 18.7106L20.2835 18.6821L20.2683 18.6451L20.238 18.6081L20.2279 18.6186L20.2 18.6397L20.1872 18.5973L20.167 18.5735L20.1468 18.5552L20.1263 18.5236L20.1162 18.5342L20.088 18.5498L20.0854 18.5104L20.0802 18.4761L20.0726 18.4551H20.06L20.055 18.447L20.0524 18.4365L20.0473 18.4311L20.0349 18.4338L20.0143 18.4999L19.9713 18.5499L19.9208 18.579L19.883 18.5712L19.8678 18.5474L19.8525 18.4816L19.8323 18.4552L19.7989 18.4417L19.7737 18.4471L19.7483 18.4579L19.6878 18.4735L19.6447 18.4946L19.6219 18.5L19.589 18.4973L19.5411 18.4687L19.5155 18.4633L19.5002 18.4525L19.5028 18.4287L19.5178 18.4002L19.5489 18.387L19.5818 18.3843L19.6069 18.3764L19.6248 18.3605L19.6222 18.3422L19.5841 18.3394L19.5489 18.3367L19.5178 18.3475L19.4953 18.3659L19.4774 18.3686L19.4569 18.3554H19.4314L19.404 18.3632L19.3939 18.3554L19.3308 18.3262L19.265 18.3317L19.0925 18.3897H19.0521L19.0192 18.3765L19.0014 18.3422L19.0166 18.3344L19.0469 18.3263L19.0749 18.2998V18.2391L19.0319 18.2682L19.014 18.2444L19.0216 18.1945L19.0469 18.1445L19.0443 18.1181L18.9912 18.1208L18.9047 18.0784L18.8542 18.0654L18.8592 18.0522L18.8618 18.0495L18.8744 18.0363L18.8288 18.0207L18.7555 18.0363L18.6822 17.9963L18.5983 17.9756L18.5678 17.9569L18.5472 17.9227L18.5244 17.846L18.5042 17.8066L18.4107 17.7087L18.3902 17.6693L18.4008 17.6666L18.4282 17.6638L18.4054 17.6323L18.3745 17.6191L18.3013 17.6059L18.403 17.5743L18.6535 17.6192L18.7094 17.5906L18.6254 17.5164L18.6205 17.5007V17.4929L18.6179 17.477L18.5547 17.4559L18.5821 17.4376L18.5922 17.4322L18.5491 17.4003L18.4683 17.3582L18.4378 17.3212L18.5289 17.3423L18.6812 17.4243L18.7672 17.4348L18.848 17.4321L18.9418 17.4453L18.9775 17.4663L19.0156 17.5006L19.0586 17.527H19.1117L19.1091 17.5006L19.0029 17.4186L18.9545 17.3948L18.9701 17.3924L18.9827 17.3897L18.9954 17.387L19.0156 17.3897L18.9775 17.35L18.9164 17.3527L18.8506 17.3659L18.79 17.3632L18.7519 17.3289L18.7268 17.2706L18.7291 17.2047L18.7698 17.1443L18.7972 17.1338L18.8629 17.1362L18.8903 17.1311L18.9232 17.1097L18.9385 17.091L18.9644 17.0252L19.0022 16.9752L19.0426 16.9304L19.0654 16.8829L19.0478 16.8216L19.0856 16.8192L19.1237 16.8273L19.1566 16.8459L19.1817 16.8697L19.2198 16.9277L19.2452 16.9488L19.281 16.9461L19.2784 16.9698L19.276 17.0203L19.2734 17.0441L19.2988 17.0176L19.3194 16.9462L19.3421 16.9177H19.3649L19.4356 16.9281H19.4659L19.4229 16.9071L19.3975 16.8701L19.3773 16.8277L19.3499 16.7907L19.3625 16.767L19.3831 16.7408L19.4084 16.7194L19.4462 16.7115L19.4336 16.6956L19.4286 16.6848L19.4186 16.674L19.4007 16.6665L19.4186 16.656L19.4766 16.6112L19.3906 16.5847L19.3704 16.5718L19.3528 16.5979L19.3375 16.6112L19.2945 16.6295L19.2919 16.6033L19.345 16.5558L19.3655 16.5236L19.3529 16.487L19.3275 16.4818L19.2921 16.5002L19.2618 16.5287L19.2462 16.5584L19.2283 16.5608V16.5425L19.2234 16.5398L19.2257 16.5371L19.2055 16.5236L19.1576 16.4685L19.155 16.4475L19.2309 16.3919L19.2568 16.4475L19.3122 16.4289L19.3401 16.3733L19.2871 16.3101L19.2436 16.302L19.1625 16.3258H19.1247L19.0843 16.3074L19.0892 16.2942L19.1172 16.281L19.1375 16.2548L19.1349 16.223L19.1196 16.1965L19.112 16.1674L19.1273 16.1307L19.1625 16.1042L19.2462 16.1015L19.2844 16.088L19.3173 16.054L19.3199 16.0249L19.2994 16.0066L19.2564 15.996L19.2358 16.0066L19.1775 16.0565L19.1622 16.0776L19.1446 16.0803L19.1371 16.0671L19.1345 16.0647H19.1293L19.1192 16.0593L19.1168 16.0328L19.1394 16.0303L19.137 16.0093L19.1142 15.9961L19.0433 15.9723L19.013 15.9696L18.9928 15.9513L18.9775 15.9483L18.957 15.9645L18.952 15.9856L18.957 16.0304L18.9546 16.0488L18.942 16.0803L18.9319 16.1044L18.9218 16.1281L18.9039 16.1519L18.8736 16.1757L18.8153 16.1967L18.7879 16.2124L18.7501 16.2524L18.7374 16.2972L18.7476 16.4265L18.7424 16.5032L18.7172 16.5825L18.6761 16.6535L18.6282 16.6958L18.565 16.7196L18.4965 16.7249L18.4308 16.7066L18.3697 16.6588L18.2938 16.5797L18.3013 16.5373L18.3368 16.4739L18.3417 16.4528L18.3166 16.4396L18.2207 16.4977L18.1752 16.516L18.0936 16.5211L18.0431 16.5136L18.0076 16.4793L17.9724 16.4159L17.947 16.3498L17.9369 16.2945L17.947 16.2389L17.9825 16.1836L18.0405 16.1415L18.1221 16.1361L18.2006 16.1625L18.2612 16.2151L18.2886 16.1836L18.2863 16.1493L18.2736 16.1178L18.2785 16.0805L18.3013 16.0595L18.3847 16.0201L18.3899 15.9302L18.4158 15.8827L18.4536 15.8457L18.4865 15.7796L18.4536 15.7612L18.3979 15.7059L18.3544 15.6927L18.2785 15.7243L18.2684 15.7507L18.2863 15.7637L18.3114 15.7717L18.3215 15.769V15.7507L18.3367 15.7402L18.3517 15.7453L18.3621 15.7664L18.3569 15.7949L18.3442 15.8111L18.3064 15.8454L18.2911 15.8533L18.2455 15.8508L18.2279 15.8533V15.8665L18.195 15.9536L18.1849 15.9347L18.1723 15.9244L18.1596 15.9166L18.1495 15.9085L18.1673 15.8718L18.1899 15.7765L18.2178 15.7317L18.1924 15.6842L18.1696 15.6869L18.1647 15.7345L18.152 15.7819L18.1292 15.8297L18.073 15.9244L18.0655 15.9535L18.0603 15.9695H18.0351L17.9921 15.959L17.9442 15.9376L17.9012 15.909L17.881 15.875L17.8683 15.8221L17.8432 15.8038L17.7742 15.7982L17.7287 15.9171L17.6554 16.0202L17.4653 16.1943L17.4096 16.2259L17.3487 16.2473L17.1511 16.2842L17.0347 16.3342L16.9658 16.3393L16.7785 16.3024L16.6669 16.2389H16.4525L16.328 16.1995L16.2192 16.1151L16.1534 15.9909V15.8274L16.2117 15.7111L16.4114 15.4919L16.4803 15.381L16.5738 15.2037L16.6346 15.1252L16.6983 15.0699L16.7942 15.0485L16.9307 15.0563L17.0729 15.0833L17.1894 15.1203L17.3342 15.2285L17.3593 15.239L17.3746 15.2705L17.4479 15.4001L17.4782 15.4343L17.6129 15.4475L17.6457 15.4395L17.6988 15.4184L17.7317 15.4106L17.7975 15.429L17.9093 15.511H17.9749L18.0712 15.466L18.1272 15.4687L18.1578 15.5294L18.1552 15.5637L18.1499 15.5874V15.6112L18.1678 15.6374L18.1904 15.6506L18.2513 15.6641L18.2741 15.6773L18.3196 15.6506L18.365 15.6479L18.4667 15.659L18.5147 15.6398L18.5602 15.6139L18.6007 15.6034L18.6335 15.6425L18.6032 15.664L18.5856 15.672L18.5576 15.6745L18.611 15.7141L18.6972 15.6772L18.7783 15.6111L18.8057 15.5611L18.7832 15.54L18.7451 15.5322L18.7096 15.5481L18.6894 15.5875L18.6157 15.5108L18.5095 15.3019L18.4437 15.2039L18.4363 15.0587L18.4161 15.001L18.3218 14.8717L18.2967 14.8161L18.2915 14.7876L18.2889 14.7241L18.2839 14.695L18.2739 14.6712L18.2182 14.5814L18.1296 14.5288L18.0812 14.423L18.0304 14.3914L17.9318 14.3629L17.8838 14.3175L17.7922 14.154L17.8227 14.0776L17.7922 14.0191L17.7442 13.9691L17.7114 13.9192L17.7088 13.8557L17.724 13.7766L17.7671 13.6447L17.7442 13.5783L17.7645 13.5151L17.8276 13.4174L17.8558 13.2087L17.9115 13.0716L17.9395 12.9421L17.947 12.8152L17.9343 12.7626L17.8247 12.7758L17.6984 12.7863L17.6401 12.7918L17.4757 12.8074L17.2172 12.8312L16.8852 12.863L16.4903 12.9L16.0492 12.9394L15.5784 12.9839L15.0921 13.0267L14.6058 13.0688L14.1342 13.1082L13.6937 13.1449L13.2987 13.1771L12.9638 13.2062L12.7079 13.2245L12.5409 13.2377L12.4826 13.2429L12.3482 13.2534L12.3306 13.2561L12.5435 13.0397L12.5181 12.9498L12.4215 12.844L12.3811 12.7469V12.7123L12.4064 12.6489L12.4113 12.6095L12.4189 12.5963L12.4289 12.5563L12.4316 12.5169L12.4139 12.4986L12.3735 12.4748L12.3228 12.4192L12.2875 12.3478V12.2925L12.3305 12.2634L12.3961 12.2523L12.5359 12.2472L12.5966 12.2291L12.6294 12.1867L12.6444 12.1284L12.665 11.8963L12.6901 11.862L12.6953 11.8302V11.7617L12.6876 11.7406L12.6446 11.6688L12.6143 11.6297L12.5993 11.6059L12.5739 11.4529L12.6345 11.3417L12.8275 11.1727V11.1493L12.8399 11.1096L12.8346 11.0246L12.8675 10.7129L12.8649 10.6415L12.8723 10.5808L12.9482 10.404L12.9762 10.2693L12.999 10.2038L13.0373 10.1403L13.0853 10.1009L13.2041 10.0637L13.2595 10.037L13.3108 9.987L13.4321 9.81569L13.4473 9.78414L13.4702 9.70748L13.4907 9.67593L13.5181 9.65452L13.6046 9.61754L13.7033 9.52796L13.7564 9.40112L13.7489 9.27186L13.653 9.17385L13.6504 9.1498L13.6478 9.11582L13.6556 9.07913L13.6807 9.04701L13.835 9.04187L13.9215 8.85429L13.9948 8.61981L14.1137 8.47434L14.1113 8.44786L14.1339 8.43466L14.1391 8.38469L14.1163 8.33209L14.0478 8.31067L13.9468 8.30282L13.8989 8.2869L13.8761 8.26313L13.8403 8.12552L13.7693 8.06534L13.6785 8.03379L13.5772 7.98033L13.5389 7.93336L13.5262 7.87533L13.5184 7.73015L13.5236 7.6956L13.5332 7.65556L13.5384 7.61073L13.5284 7.57105L13.5056 7.54456L13.432 7.50516L13.4017 7.48139L13.3639 7.43364L13.336 7.37832L13.3158 7.31244L13.3031 7.23549L13.331 7.18289L13.4017 7.16183L13.4802 7.15134L13.5306 7.13271L13.5713 7.05362L13.5534 6.99259L13.5004 6.95319L13.3561 6.9397L13.3183 6.9135L13.3082 6.86354L13.3183 6.72078L13.3512 6.54648L13.3766 6.5065L13.4095 6.48302L13.4499 6.43041L13.4851 6.36432L13.5079 6.30115L13.4473 6.23505L13.4095 6.2005L13.3714 6.19022L13.3258 6.18751L13.2774 6.17431L13.237 6.15054L13.2164 6.11899L13.2141 6L13.1734 6.00814L12.6643 6.05025L12.1523 6.09236L11.6408 6.13234L11.1316 6.17174L10.6222 6.21114L10.1102 6.25083L9.59848 6.28809L9.08956 6.32506L8.57755 6.35903L8.06581 6.3933L7.55641 6.42785L7.0444 6.46211L6.53315 6.49394L6.02114 6.52549L5.51173 6.55733L5 6.58588L5.02021 7.00309L5.06062 7.83429L5.08391 8.25179L5.10411 8.66899L5.12432 9.0862L5.14713 9.50077L5.16768 9.91776L5.18035 10.1819L5.18295 10.1894L5.19049 10.2002L5.20576 10.2186L5.24617 10.248L5.26638 10.2558L5.30446 10.2844L5.31686 10.3003L5.38317 10.4112L5.39324 10.4244L5.40591 10.4349L5.42118 10.4428L5.51708 10.4873L5.54447 10.5087L5.60276 10.567L5.64626 10.617L5.67366 10.6647L5.68893 10.6963L5.7016 10.7306L5.72674 10.7751L5.80524 10.8836L5.81531 10.9151L5.84325 11.0525L5.85572 11.0947L5.86839 11.1213L5.87846 11.1292L5.88627 11.1424L5.89374 11.1556L5.89867 11.1712V11.1927L5.88853 11.2507L5.8836 11.2825L5.8862 11.3825L5.8836 11.4116L5.87839 11.4326L5.86832 11.459L5.85819 11.496V11.5195L5.86339 11.5462L5.87346 11.5805L5.88353 11.6015L5.90113 11.6331L5.93456 11.6727L6.01566 11.7573L6.0408 11.7783L6.05607 11.7864L6.07368 11.7942L6.14464 11.8123L6.16224 11.8206L6.17751 11.8285L6.18758 11.842L6.18991 11.863L6.18238 11.8814L6.17484 11.8919L6.17224 11.8946V11.8973L6.14197 11.9184L6.13443 11.9343L6.13183 11.9499L6.13936 11.979L6.1469 11.995L6.15724 12.0109L6.16731 12.0187L6.18231 12.0266L6.21834 12.0346L6.23334 12.0398L6.24601 12.0503L6.25868 12.0713L6.26615 12.0999L6.27882 12.1558L6.28656 12.1843L6.29896 12.2081L6.32951 12.2475L6.37746 12.2952L6.41787 12.3217L6.42561 12.3322L6.42301 12.3428L6.39013 12.3954L6.38259 12.4086L6.37252 12.4407L6.36732 12.4618L6.36471 12.488L6.37246 12.5249L6.38252 12.5457L6.39752 12.5619L6.47602 12.6227L6.50945 12.6569L6.51959 12.6701L6.52712 12.6882L6.53719 12.7071L6.54239 12.7362L6.55246 12.76L6.56253 12.7783L6.57781 12.8021L6.58274 12.8207L6.60034 12.9157L6.60808 12.9344L6.61562 12.9449L6.62575 12.9554L6.63322 12.9606L6.64103 12.9633H6.66124L6.71692 12.9449L6.77056 12.9554L6.78816 13.0137V13.1719L6.78556 13.2062L6.75994 13.2561L6.75473 13.2955L6.84124 13.4224L6.88426 13.4596L6.89693 13.4834L6.88686 13.5201L6.86665 13.5387L6.78816 13.5673L6.75994 13.5751L6.71925 13.6151L6.7498 13.6942L6.80083 13.7656L6.82364 13.7918L6.84878 13.8366L6.84645 13.8525L6.82857 13.8898L6.78816 13.9346L6.76227 13.9661L6.75473 14.0031L6.75994 14.0428L6.77809 14.1086L6.78302 14.1483L6.78562 14.1907L6.78302 14.2223L6.76802 14.283L6.67404 14.4943L6.65877 14.6657L6.63336 14.7183L6.53986 14.8054L6.51705 14.8634L6.48417 15.0426L6.48109 15.0802L6.42307 15.1012L6.38266 15.1487L6.35985 15.2121L6.36218 15.2834L6.37252 15.2991L6.39506 15.3123L6.4054 15.3306L6.41033 15.3994V15.4021L6.45075 15.5079L6.45595 15.5341L6.45075 15.6L6.43314 15.6505L6.36465 15.7479L6.32944 15.8299L6.3217 15.8984L6.3419 16.0542L6.36471 16.1071L6.41266 16.1468L6.45821 16.1967L6.47582 16.2761L6.47061 16.3104L6.44547 16.3817L6.44287 16.4241L6.4504 16.4584L6.48383 16.5084L6.49136 16.5321L6.50171 16.5982L6.5141 16.6482L6.51931 16.7038L6.50404 16.7856L6.47061 16.8596L6.46828 16.8914L6.49129 16.9335L6.32917 17.1502L6.27581 17.2636L6.29862 17.266L6.34937 17.2849L6.36698 17.3349L6.36437 17.5645L6.2556 17.8233L6.21026 17.8389L6.02532 17.863L5.99991 17.9027L6.01004 17.9842L6.04813 18.1297L6.12635 18.2325L6.18717 18.2749L6.24827 18.2539L6.29382 18.2115L6.38239 18.1589L6.4228 18.119L6.51678 18.0558L6.65322 18.0242L6.90159 18.0056L7.20297 17.9951L7.27626 17.9581L7.32935 17.9686L7.46141 17.9449L7.52456 17.9686L7.58518 17.9289L7.75272 17.8868L7.90731 17.8712L8.07171 17.8895L8.39857 17.9527L8.60406 18.0374L8.96873 18.1374L9.13113 18.2561L9.24251 18.3118L9.55896 18.4278L10.0608 18.5098L10.1619 18.4756L10.1953 18.4912L10.2232 18.4729L10.2939 18.5071L10.7502 18.5571L10.8388 18.5463L10.9222 18.5177L11.1302 18.3831L11.2162 18.3545L11.4011 18.3596L11.4821 18.3518L11.5176 18.304L11.4544 18.2881L11.4694 18.2514L11.5049 18.2277L11.5939 18.2012L11.5553 18.1696L11.4872 18.1751L11.4162 18.2036L11.3732 18.243H11.3504L11.3276 18.1853L11.231 18.008L11.2691 17.992L11.3504 17.9264L11.323 17.9105L11.2997 17.916L11.2718 17.9264L11.2037 17.9448L11.1633 17.9818L11.1405 17.992L11.1125 17.9635L11.0773 17.8976L11.0494 17.8156L11.0344 17.7551L11.0999 17.7945L11.1178 17.7973L11.1328 17.7816L11.153 17.7317L11.1633 17.7212L11.2138 17.7317L11.2392 17.7659L11.234 17.808L11.1986 17.8423L11.2416 17.8396L11.2744 17.811L11.3381 17.7319L11.3762 17.7052L11.6246 17.5895L11.6497 17.5628L11.665 17.5153L11.6575 17.4838L11.6624 17.4678L11.7132 17.46L11.7484 17.4705L11.7812 17.4943L11.8167 17.5021L11.8906 17.4312L11.9287 17.4284L12.0678 17.439L12.103 17.4573L12.1258 17.4916L12.1359 17.5391L12.1309 17.6025L12.1081 17.592L12.0807 17.555L12.0553 17.5312L12.025 17.5655L12.0023 17.6343L11.9948 17.6999L12.0199 17.7293L12.03 17.7558L12.0352 17.8057L12.0626 17.84L12.1359 17.819L12.2428 17.7426L12.2933 17.7162L12.5668 17.6792L12.6353 17.6816L12.7086 17.7081L12.7345 17.7531L12.7371 17.9089L12.7293 17.9907L12.7164 18.0516L12.7319 18.0859L12.8104 18.0832L12.8433 18.0727L12.9065 18.0357L12.9368 18.0279L12.9622 18.0435L12.9723 18.0805L12.9749 18.1253L12.9876 18.1569L13.0234 18.2178L13.0412 18.2969L13.0335 18.3709L12.9951 18.4105L13.069 18.421L13.1904 18.3895L13.3072 18.3395L13.373 18.2839L13.4186 18.3106L13.4134 18.3422L13.3958 18.3788L13.3831 18.4158L13.4007 18.4396L13.4362 18.445L13.5095 18.4423L13.581 18.4558L13.7123 18.5006L13.7808 18.5427L13.7909 18.503L13.8211 18.4317L13.8312 18.392L13.8237 18.3841L13.8085 18.3556L13.8009 18.3186L13.8111 18.2841L13.8926 18.2023L13.905 18.1523L13.8672 18.0732L13.9177 18.0705L13.9558 18.0837L13.9832 18.1152L13.9959 18.1603L13.9909 18.2183L13.9681 18.2553L13.9352 18.2815L13.9072 18.3133L13.8744 18.3978L13.8694 18.4928L13.8922 18.5851L13.9442 18.6657L13.9644 18.6789L14.0048 18.6868L14.0201 18.6973L14.0276 18.721V18.7794L14.0377 18.8058L14.0732 18.8344L14.1724 18.8819L14.3469 19.0139L14.3873 19.0881L14.3415 19.1832L14.3441 19.2073L14.3591 19.2127L14.3744 19.2362L14.3896 19.2521L14.3642 19.2806L14.3368 19.3044L14.276 19.3335L14.2734 19.2939L14.2584 19.2653L14.2356 19.2494L14.2027 19.2442L14.2281 19.1943L14.2356 19.1414L14.2281 19.0226L14.1416 19.0569L14.0681 19.0199L14.0276 18.9514L14.0355 18.8931L13.9645 18.9038L13.9316 18.946L13.914 19.0067L13.8837 19.0728L13.8426 19.1098L13.7872 19.1281L13.7339 19.1175L13.6987 19.0649L13.7466 19.2207L13.8836 19.3286L14.0579 19.3947L14.372 19.4238L14.4075 19.4343L14.4814 19.4951L14.5116 19.5083H14.5596L14.5974 19.4977L14.6227 19.4692L14.6279 19.4136L14.6456 19.3949H14.6935L14.7419 19.4108L14.7722 19.4394L14.7419 19.45L14.7217 19.4714L14.7142 19.5005L14.7191 19.5399L14.8002 19.5005L14.8836 19.5137L14.9621 19.5585L15.1091 19.6799L15.1395 19.672L15.147 19.6561V19.64L15.1574 19.6268L15.2205 19.5844L15.2306 19.5529L15.2078 19.4976L15.2609 19.5135L15.3145 19.545L15.365 19.561L15.4158 19.5318L15.4432 19.595L15.4129 19.6214L15.3673 19.6376L15.3445 19.6824H15.38L15.4887 19.7086L15.5115 19.7062L15.5265 19.6533L15.5778 19.6509L15.6232 19.6692L15.6434 19.6824L15.6662 19.6744L15.6763 19.656L15.684 19.6377L15.7244 19.6139V19.5821L15.7192 19.5502L15.7218 19.5292L15.7547 19.5136L15.7876 19.5187L15.8081 19.5478L15.8309 19.5926L15.8259 19.5319L15.8361 19.3946L15.8283 19.3894L15.8133 19.3735L15.8309 19.289L15.8436 19.252L15.8618 19.2235L15.8921 19.2577L15.9201 19.2917L15.9429 19.3049L15.968 19.2628L15.9276 19.2128L15.9429 19.1756L15.9703 19.1308V19.0649L15.9018 19.0622L15.8868 19.0517L15.8816 19.0118L15.8942 18.9904L15.917 18.9853L15.9473 18.9958L15.9499 18.9615L15.9652 18.9429L15.9903 18.935L16.0232 18.9405L16.0258 18.9666L15.988 18.9904L16.0183 19.0036L16.1218 19.0301L16.1579 19.009L16.1807 18.9772L16.211 18.9667L16.254 19.0167L16.3172 18.9298L16.3374 18.8821L16.34 18.8267L16.3501 18.7714H16.3803L16.4057 18.7925L16.4106 18.8057L16.429 18.8267L16.4971 18.9218L16.5176 18.9666L16.5355 19.1647L16.5961 19.0592L16.6036 19.0222V18.9747L16.6163 18.9405L16.6416 18.9194L16.6771 18.9062V18.93L16.6846 18.9694L16.8066 19.0857L16.8395 19.1462L16.8519 19.1621L16.8724 19.1173L16.89 19.0592V19.0301L16.9203 19.0325L16.9431 19.0647L16.9558 19.1095L16.9607 19.1462V19.1886L16.9506 19.2415L16.9533 19.2836L16.9457 19.3205L16.9304 19.3602L16.9203 19.3972L16.9356 19.4288L17.0041 19.4868L17.0246 19.5135L17.0373 19.5583L17.0424 19.6031V19.6377L17.0246 19.6587L17.0701 19.6719L17.1587 19.6215L17.3009 19.5081L17.3488 19.4841L17.3944 19.4369L17.4325 19.384L17.4703 19.3446L17.4855 19.3206L17.5412 19.1754L17.5568 19.1174L17.4602 19.1412L17.4019 19.0462L17.4096 18.938L17.4982 18.9275L17.4601 18.8691L17.4829 18.8375L17.5309 18.8427L17.5768 18.8983L17.635 18.864L17.6324 18.8402L17.5819 18.8188L17.5358 18.7794L17.5055 18.7238L17.4929 18.6579L17.5183 18.6631L17.5359 18.679L17.5517 18.7001L17.5618 18.7265L17.5592 18.6315L17.5517 18.603L17.5411 18.5816L17.5258 18.5629L17.5056 18.5473L17.503 18.4893L17.5082 18.455L17.531 18.431L17.5745 18.4046L17.5031 18.3469L17.4298 18.307L17.3539 18.2883H17.2683L17.2375 18.2859L17.2072 18.2676L17.0702 18.1564L17.0399 18.138L17.0246 18.1594L17.0122 18.1651L16.9969 18.1516L16.9793 18.12L17.0067 18.1173L17.032 18.1095L17.075 18.0857L17.0724 18.0619L17.0548 18.0646L16.9939 18.0698L17.0066 18.0172L17.047 17.9538L17.0623 17.9168L17.1078 17.9538L17.1887 18.0541L17.2394 18.0963L17.2596 18.0671L17.2166 18.0457L17.2267 18.0247L17.265 18.0112L17.3155 18.0168L17.3738 18.0382L17.7157 18.2336L17.8069 18.2574L17.9034 18.2018L18.0047 18.294L18.0551 18.3073L18.0704 18.2255L18.0678 18.1755L18.0805 18.1649L18.103 18.1755L18.1745 18.186L18.1846 18.207L18.1745 18.2519L18.1693 18.2492L18.1569 18.2651L18.1442 18.2861L18.139 18.3045L18.1416 18.3259L18.1491 18.3391L18.1569 18.3445L18.1619 18.3497L18.1694 18.3656L18.1821 18.3893L18.2023 18.4104L18.2202 18.4182L18.2808 18.3734L18.3137 18.3629L18.3313 18.3945L18.3238 18.421L18.3085 18.442L18.3036 18.4687L18.3212 18.5081L18.3289 18.4898L18.3339 18.4819L18.344 18.4739L18.3593 18.4555L18.3798 18.503L18.3948 18.5424L18.3925 18.5821L18.3746 18.6244L18.3417 18.6559L18.2964 18.6902L18.1977 18.7377H18.6128L18.6457 18.7217L18.7196 18.6375L18.7602 18.6111L18.7954 18.6397L18.798 18.6715L18.755 18.7587L18.8081 18.7981L18.8309 18.8534L18.8611 18.8984L18.9422 18.9092H19.0209L19.2033 18.9592L19.1652 18.8878L19.1955 18.8535L19.2571 18.8484L19.3177 18.8721L19.2647 18.904L19.2388 18.9067L19.4314 19.2022L19.4949 19.2208L19.52 19.2392L19.5073 19.2813V19.3078L19.5508 19.4006L19.5837 19.4268L19.6495 19.4057L19.7153 19.3584L19.7482 19.2975L19.7432 19.2554L19.7204 19.1811L19.7127 19.139L19.7179 19.0996L19.7355 19.0759H19.7557L19.7684 19.1101L19.7736 19.1973L19.7837 19.2421L19.8065 19.2659L19.8297 19.2527L19.8347 19.2106L19.8321 19.1655L19.8347 19.1391H19.8803V19.2105L19.8601 19.292L19.8422 19.3344L19.8011 19.4609L19.776 19.4769L19.7102 19.4983L19.6874 19.522V19.5431L19.6949 19.5774L19.7001 19.6195L19.6874 19.6567L19.6317 19.7436L19.6141 19.7806L19.5662 19.831L19.5509 19.8521L19.546 19.8864V20L19.6091 19.9735L19.6571 19.9206L19.7759 19.6909L19.7909 19.641L19.7935 19.5959L19.8137 19.5382L19.8749 19.5091L19.9434 19.4934L19.989 19.4697L20.0017 19.4378L19.9965 19.4164L19.9864 19.3929L19.9789 19.3587L19.9813 19.3214L19.9939 19.319L20.0294 19.3397L20.0522 19.3664L20.1413 19.4933L20.1618 19.5354L20.1846 19.5697L20.2833 19.6779L20.3185 19.6993L20.3566 19.6755L20.2857 19.5622L20.2883 19.4961L20.3616 19.4038L20.395 19.3509L20.405 19.3009L20.4203 19.3271L20.4379 19.3433L20.4734 19.3698L20.4708 19.3298L20.4581 19.2904L20.4405 19.2589L20.4177 19.2298L20.4683 19.227L20.5037 19.2457L20.524 19.2851L20.5317 19.3377L20.5669 19.2929L20.6327 19.1083L20.4379 19.1239L20.4105 19.1293V19.0872L20.4483 19.034L20.4963 18.9868L20.5367 18.9709V18.9919L20.5417 19.017ZM19.2061 17.0204L19.1859 16.978L19.1429 16.957L19.1302 16.9465L19.1152 16.936L19.0771 16.9149L19.0367 16.9624L19.0318 17.0153L19.0569 17.1632L19.095 17.1341L19.1152 17.0496L19.138 17.031L19.1582 17.0442L19.1758 17.0758L19.2012 17.1076L19.2416 17.1182L19.2214 17.0707L19.2061 17.0204ZM20.7418 17.1815L20.833 17.0232L20.8708 16.9387L20.7064 17.2213L20.7418 17.1815ZM18.0508 18.7155L18.0458 18.7366L18.0256 18.7312L18.0051 18.7101H17.9973L17.9898 18.7312L17.967 18.7552L17.9644 18.7711L18.0175 18.7763L18.0556 18.8027L18.0455 18.7843L18.0429 18.7684L18.0504 18.7607L18.071 18.7525V18.7445L18.0632 18.7288L18.0508 18.7155ZM20.9573 16.0855L20.9089 16.0278L20.876 15.9458L20.8379 15.8744L20.7694 15.8377L20.8174 15.872L20.8503 15.9219L20.8907 16.046L20.9135 16.0698L20.9034 16.1095L20.921 16.1648L20.9723 16.2576L20.9571 16.2814L20.9645 16.3394L20.9798 16.524L20.9697 16.585L20.8982 16.7777L20.9135 16.796L20.9187 16.8171L20.9236 16.836L20.921 16.8574L20.9798 16.7044L20.9974 16.6224L21 16.3266L20.9573 16.0855ZM16.7287 19.5524L16.7058 19.5419L16.6877 19.5473L16.6825 19.5657V19.584L16.675 19.5921L16.6167 19.6263L16.5713 19.6371L16.556 19.6476L16.5636 19.6581L16.7158 19.592L16.7334 19.5709L16.7287 19.5524ZM17.8277 18.9425L17.8049 18.9452L17.7671 18.9981L17.6962 19.0347L17.6329 19.0771L17.6203 19.1589L17.6405 19.1562L17.676 19.1063L17.7746 19.0402L17.8308 18.9927L17.8075 18.9689L17.8277 18.9425ZM17.9041 18.8766L17.8865 18.8895L17.8738 18.9162H17.9041L17.9445 18.8816L17.9471 18.8633L17.9197 18.8684L17.9041 18.8766ZM16.8778 19.6924L16.8524 19.6976L16.8298 19.7081L16.807 19.7241L16.7285 19.8061L16.9106 19.7162L16.908 19.6897L16.8778 19.6924ZM17.4478 18.2586L17.4631 18.2823L17.4757 18.2902L17.4884 18.2956H17.5034L17.5187 18.2824L17.5415 18.2851L17.5645 18.3062L17.5772 18.3353L17.5951 18.3485L17.6381 18.3379L17.6531 18.3407L17.6658 18.3247L17.6632 18.301L17.6557 18.2902L17.6531 18.2983L17.6505 18.2875L17.6481 18.2691L17.6429 18.2667L17.6403 18.2823L17.6303 18.2902L17.6101 18.2983L17.5827 18.2875L17.5498 18.2535L17.5472 18.2403L17.5801 18.243L17.5876 18.2271L17.5674 18.1985L17.5392 18.188L17.5037 18.1826L17.4809 18.172L17.4659 18.1585L17.4431 18.1479L17.3772 18.1296L17.3368 18.1374L17.3114 18.1347L17.286 18.1402L17.2684 18.1616L17.2733 18.1931L17.329 18.2512L17.3593 18.2671L17.3973 18.2512L17.4403 18.2406H17.4579L17.4505 18.2433L17.4478 18.2586ZM20.8452 16.5346L20.8657 16.5875L20.8554 16.5532L20.8452 16.5346ZM20.7341 16.5132L20.7214 16.5053L20.7061 16.5132L20.6788 16.556L20.6888 16.5584L20.7368 16.5239L20.7341 16.5132ZM20.7771 16.4578L20.7873 16.4527L20.7948 16.4184L20.7847 16.4157L20.7316 16.4871L20.7342 16.4976L20.7548 16.4844L20.7771 16.4578ZM20.8045 16.4422L20.797 16.4368L20.8019 16.4948L20.8045 16.4683V16.4422ZM18.9655 17.332L19.0134 17.3344L19.0261 17.3266L19.0185 17.3134L19.0085 17.3055L18.9906 17.3001L18.9779 17.2923L18.973 17.274L18.9655 17.234L18.9471 17.2262L18.937 17.2289L18.9548 17.2553L18.9447 17.274L18.9421 17.2923L18.947 17.3055L18.9522 17.311L18.9548 17.3161L18.9522 17.3266L18.9655 17.332ZM20.5409 16.772L20.5383 16.751L20.5409 16.7299L20.5383 16.7167L20.5282 16.7458V16.809L20.5308 16.8169L20.5409 16.772ZM19.7577 16.2679L19.7502 16.2496L19.7375 16.2523L19.7222 16.276L19.6489 16.3497L19.644 16.3656L19.6714 16.3551L19.6841 16.3471L19.7095 16.3128L19.7447 16.2812L19.7577 16.2679Z" fill="#550000"/>
</svg>
