<svg width="26" height="26" viewBox="0 0 26 26" fill="none" xmlns="http://www.w3.org/2000/svg">
<circle cx="13" cy="13" r="13" fill="#F8F3ED"/>
<path d="M14.7381 16.2602L14.6083 16.2788L14.5434 16.2756L14.4228 16.2347L14.3721 16.2476L14.3691 16.3293L14.4409 16.3326L14.5055 16.3574L14.5411 16.4051L14.535 16.4808L14.6467 16.5027L14.7026 16.4998L14.72 16.4714L14.7291 16.4273L14.765 16.3926L14.7886 16.3452L14.7708 16.2631L14.7381 16.2602ZM15.0244 15.7432L14.9978 15.7277L14.9712 15.6962L15.0007 15.6707L15.0656 15.6301L15.0927 15.6014L15.0656 15.5605L15.0451 15.5099L15.0126 15.4661L14.9477 15.4439L14.8653 15.4252L14.8328 15.4378L14.8123 15.4848L14.8065 15.5289L14.8153 15.573L14.8328 15.6139L14.8536 15.6487L14.8301 15.6516L14.7827 15.6738L14.7587 15.6771L14.8088 15.7398L14.8297 15.7778L14.8266 15.8187L14.8236 15.8596L14.8384 15.8754L14.9501 15.9037L15.0031 15.8722L15.0979 15.7778L15.0922 15.7523L15.0244 15.7432ZM15.9159 14.5174L15.8866 14.442L15.7892 14.4104L15.6739 14.4545L15.5795 14.5428L15.5411 14.6404L15.5824 14.663V14.7004L15.5585 14.7384L15.5229 14.7635L15.5054 14.7886L15.4907 14.8421L15.4759 14.9967V15.0534L15.4877 15.104L15.5143 15.1165H15.5587L15.5852 15.1352V15.1668L15.5469 15.1951L15.591 15.2486L15.6999 15.268L15.7478 15.3114L15.7595 15.2989L15.7888 15.2741L15.7978 15.2647L15.8332 15.3244L15.8745 15.2988L15.9098 15.236L15.9333 15.1794L15.9216 15.1353L15.8715 15.1072L15.8271 15.0631L15.8183 14.9616L15.8388 14.9555L15.9215 15L16.0392 14.9523L16.1429 14.8611L16.1842 14.7635L16.1284 14.6566L15.9159 14.5174ZM18.9885 11.7479L18.9266 11.6627L18.9205 11.647L18.9175 11.6283L18.9148 11.6125H18.903L18.8647 11.6283H18.8557L18.7672 11.5397L18.7262 11.5113H18.6784L18.7764 11.666L18.7939 11.7481L18.7438 11.8138L18.7172 11.7254L18.6638 11.631L18.608 11.5746L18.5609 11.6123L18.5814 11.6281L18.608 11.6621L18.6198 11.6779L18.5879 11.712L18.6198 11.7342L18.5815 11.7598L18.5166 11.7028L18.4873 11.7185L18.49 11.7504L18.5166 11.8728L18.5227 11.914L18.4255 11.7247L18.3872 11.6934L18.3187 11.6557L18.2686 11.6116L18.2716 11.5514L18.307 11.5485L18.4256 11.6022L18.4666 11.6084L18.5079 11.58L18.5227 11.5326L18.5079 11.4889L18.4548 11.4633L18.4608 11.3625H18.4928L18.5401 11.4038L18.578 11.4227L18.6311 11.3815L18.6341 11.3187L18.6254 11.2527L18.6459 11.1957L18.6018 11.1674L18.5134 11.0637L18.4895 11.0414L18.4485 11.035L18.3926 11.0002L18.3567 10.9438L18.3684 10.8713L18.3126 10.8143L18.2534 10.7641L18.2124 10.7418L18.1916 10.7322H18.1711L18.165 10.7261L18.1358 10.6787L18.1062 10.6446L18.0913 10.6195L18.0738 10.6005L18.0499 10.5976L17.994 10.6195H17.9822L17.9557 10.5786L17.9025 10.5721L17.8259 10.5535L17.7876 10.5567L17.7583 10.5754L17.7375 10.613L17.7405 10.6478L17.7492 10.6791L17.7465 10.7203L17.6662 10.8147L17.5513 10.7993L17.4276 10.7233L17.2737 10.588L17.1205 10.5094L17.0912 10.4497L17.0881 10.3676L17.0968 10.2949L17.1295 10.1467L17.1029 9.99567L16.8784 9.77504L16.8076 9.63976L16.8607 9.55457L16.9138 9.47918L16.9457 9.41895L16.9191 9.27719L16.8603 9.17028L16.7955 9.13868L16.7213 9.15444L16.6389 9.19209L16.5151 9.22974L16.3495 9.24227L16.1845 9.22037L16.0813 9.18272L16.0306 9.15435L16.001 9.1167L15.9718 9.0816L15.9365 9.06618L15.9157 9.0787L15.9099 9.11031L15.8952 9.14191L15.8569 9.14515L15.7771 9.12292L15.7263 9.10102L15.6944 9.05366L15.6235 8.84921L15.6207 8.78319L15.6355 8.7043L15.656 8.62831L15.6618 8.57482L15.6382 8.52455L15.5733 8.47106L15.5381 8.41142L15.5528 8.34506L15.5881 8.27257L15.6029 8.20331L15.5881 8.16923L15.5588 8.147L15.5263 8.12834L15.4998 8.10279L15.4852 8.06513L15.3284 7.54208L15.1751 7.01902L15.0212 6.49596L14.8653 5.97291L14.7116 5.4484L14.5583 4.9256L14.4044 4.40544L14.2515 3.88272L14.1983 3.73134L14.1778 3.70911L14.0475 3.68432L13.9944 3.66174L13.8827 3.56446L13.7349 3.50133L13.7083 3.4762L13.6818 3.4256L13.6464 3.38795L13.5347 3.31511L13.3866 3.27098L13.174 3.16399L13.13 3.15146L13.038 3.14209L13.0027 3.13272L12.8965 3.05384L12.8525 3.03161L12.6986 3L12.5484 3.01542L12.4271 3.09464L12.3652 3.24279L12.371 3.28981L12.3857 3.32389V3.34612L12.3209 3.38411L12.2943 3.41282L12.2624 3.42824L12.1622 3.39987L12.088 3.41598L12.0201 3.4469L11.9671 3.48489L11.8642 3.5918L11.8141 3.65817L11.7816 3.73066L11.7426 3.78416L11.6777 3.81253L11.5421 3.84728L11.4295 3.91654L11.132 4.20678L11.0871 4.2222L10.6593 4.10234L10.5917 4.03921L10.5534 3.96382L10.5416 3.93869L10.5064 3.81312L10.4739 3.57059L10.4441 3.45721L10.3882 3.41666L9.94558 3.43506L9.90457 3.45082L9.87496 3.48557L9.84241 3.5487L9.68888 3.97387L9.538 4.39922L9.38415 4.82516L9.22784 5.25068L9.07423 5.67585L8.92095 6.10137L8.76407 6.52655L8.60816 6.95206L8.57855 7.03418V7.21649L8.60513 7.42486L8.65819 7.82524L8.69354 8.09648L8.68444 8.20663L8.51688 8.45564L8.48152 8.48401L8.43086 8.54065V8.63181L8.44562 8.72006L8.44833 8.7584L8.39248 8.79605L8.37173 8.85568L8.35992 9.01354L8.32465 9.19294L8.33646 9.27472L8.40437 9.29082L8.46317 9.35974L8.49908 9.44186L8.50514 9.52705L8.47857 9.59307L8.39551 9.68942L8.37157 9.73738L8.3833 9.7683L8.40724 9.78406L8.42176 9.79983L8.43955 9.80945L8.45129 9.82197L8.46006 9.84421L8.45735 9.85963L8.43955 9.89123L8.43652 9.90699L8.44259 10.058L8.46006 10.1212L8.50794 10.1685L8.5843 10.1843L8.63441 10.181L8.66098 10.2066L8.67008 10.3135L8.64614 10.4583L8.58701 10.5717L8.41585 10.8054L8.37452 10.8782L8.36574 10.9063L8.37149 10.9504L8.38625 10.9726L8.40708 10.9913L8.43102 11.0289L8.45759 11.1141L8.46333 11.1898L8.44283 11.2562L8.39846 11.3158L8.37189 11.3316L8.30734 11.3503L8.27781 11.3758L8.21294 11.4734L8.07083 11.5964L8.03556 11.6499L7.84406 12.0439L7.78764 12.3335L7.79937 12.3995L7.84725 12.4755L7.9031 12.5193L8.02982 12.5573L8.09165 12.5886L8.1357 12.6549L8.11519 12.7177L8.05934 12.7618L8.00053 12.7776L7.93263 12.7618L7.81134 12.6897L7.7495 12.6771L7.68463 12.6926L7.64058 12.7367L7.61664 12.7963L7.61393 12.8721L7.62869 12.9538L7.68144 13.1271L7.69325 13.2025L7.68144 13.2441L7.63436 13.3037L7.62255 13.3385L7.62558 13.3732L7.64912 13.4486V13.4895L7.60779 13.5462L7.55767 13.5121L7.34503 13.2093L7.28622 13.1719L7.21257 13.1813L7.15344 13.2154L7.1295 13.2598L7.11466 13.3101L7.07939 13.3761L7.05586 13.3984L7 13.4235L7.06455 13.6345L7.12943 13.8425L7.19182 14.0538L7.25669 14.2612L7.32157 14.4696L7.45131 14.8886L7.51379 15.0999L7.57866 15.3077L7.64321 15.5189L7.70809 15.727L7.77288 15.938L7.83536 16.1493L7.90023 16.3567L7.9651 16.5683L8.02997 16.7764L8.09453 16.9871L8.15996 17.1987L8.22483 17.4065L8.28667 17.6175L8.35457 17.8291L8.41945 18.0398L8.48185 18.2479L8.54672 18.4591L8.61127 18.6701L8.67614 18.8813L8.74101 19.0891L8.80652 19.3004L8.8714 19.5114L8.93627 19.7227L9.00083 19.9339L9.0657 20.1446L9.104 20.2612L9.12179 20.3907L9.13719 20.4503L9.14293 20.51V20.5286L9.14597 20.5572L9.15474 20.592L9.17829 20.6458L9.19911 20.7118L9.20182 20.7588L9.19911 20.8657V20.8908L9.20789 20.9198L9.21659 20.9478L9.24052 20.9891L9.26446 21.0206L9.29407 21.0457L9.40577 21.1275L9.53608 21.2405L9.65673 21.3513L9.78639 21.3954L9.81033 21.4112L9.83084 21.4363L9.85741 21.4898L9.86642 21.5239L9.87217 21.5586V21.6878L9.87823 21.7323L9.88996 21.7541L9.96656 21.8393L10.096 21.9272L10.1997 22V21.9821L10.2058 21.8655L10.1937 21.8436L10.2442 21.8214L10.3 21.8655L10.3559 21.919L10.4059 21.9316L10.4298 21.8878L10.4597 21.6514L10.4893 21.5315L10.5159 21.4842L10.5572 21.4465L10.5098 21.4308L10.5276 21.3461L10.5542 21.2733L10.4923 21.1976L10.4715 21.1L10.4805 20.9963L10.501 20.9016L10.5598 20.7534L10.5838 20.7125L10.61 20.6968L10.6957 20.6652L10.7576 20.6146L10.7935 20.5518L10.8227 20.4822L10.8641 20.4162L10.8849 20.3972L10.9202 20.3814L10.932 20.3628L10.935 20.3409V20.2842L10.9377 20.2587L10.9733 20.1701L10.9996 20.1292L11.0322 20.0951L11.0261 20.0729L10.9969 20.0857L10.9704 20.1076L10.9233 20.1611L10.885 20.0759L10.8584 20.0005L10.8493 19.9248L10.8575 19.8268L10.878 19.7672L10.9224 19.7106L10.9634 19.7044L10.993 19.7862L11.0313 19.7453L11.0667 19.6384L11.1168 19.6033L11.1138 19.6352L11.111 19.6667L11.147 19.6445L11.2115 19.5848L11.2528 19.5655V19.5372L11.2354 19.4081L11.2236 19.3639L11.1615 19.276L11.0933 19.2666L11.0226 19.2918L10.9342 19.3075L10.9282 19.2759L11.0136 19.2537L11.049 19.2257L11.0698 19.1746L11.055 19.1433L11.0285 19.0895L11.0137 19.0388L11.0846 18.9542L11.1138 18.7648L11.1675 18.7081L11.2737 18.5037L11.3 18.4818L11.3295 18.4693L11.3621 18.4441L11.4239 18.3872L11.4475 18.3531L11.4773 18.2713L11.4981 18.2272L11.5274 18.1953L11.5657 18.1769L11.56 18.2304L11.5452 18.2774L11.5247 18.3151L11.5039 18.3435L11.5422 18.3373L11.6188 18.2304L11.6776 18.2018L11.6749 18.3248L11.5982 18.5804L11.5746 18.7031L11.6248 18.6809L11.6567 18.6274L11.6714 18.5549L11.6654 18.4856V18.4193L11.6862 18.3185L11.7128 18.2273L11.7363 18.1865L11.7682 18.2651L11.6884 18.7315L11.7093 18.7219L11.724 18.7032L11.7298 18.6777L11.724 18.6087L11.7358 18.593L11.7533 18.5805L11.7681 18.5579L11.8423 18.3595L11.8719 18.4097L11.8984 18.3943L11.922 18.3377L11.9277 18.278L11.9103 18.2055L11.8807 18.1646L11.8424 18.1424L11.804 18.133L11.8158 18.099L11.8366 18.0734L11.8601 18.0576L11.8894 18.0512L11.9277 18.0576L11.9338 18.0702L11.9277 18.0988L11.9308 18.1426L11.9515 18.1777L12.0016 18.2025L12.0221 18.2343L12.0279 18.2781L12.0191 18.2971L12.0104 18.3129L12.0074 18.3412L12.0221 18.436L12.0399 18.502L12.0662 18.5275L12.1018 18.5462L12.1407 18.6655L12.1847 18.7002L12.1878 18.65L12.1996 18.5965L12.2231 18.5552L12.255 18.5304L12.2581 18.5079L12.2523 18.4006L12.2345 18.363L12.1905 18.3002L12.1283 18.171L12.0867 18.0322L11.9687 17.7262L11.889 17.5814L11.8536 17.6666L11.8331 17.7042L11.8035 17.7232L11.7737 17.7167L11.7471 17.6916L11.7353 17.6575L11.7411 17.6102L11.8597 17.3611L11.895 17.317L11.9186 17.2951L11.9363 17.2288L11.9683 17.2069L11.9891 17.2226L11.9743 17.2761L11.936 17.3613L11.9329 17.456L11.9477 17.5443L11.9796 17.6229L12.0031 17.6954L12.0297 17.7367L12.0445 17.7804L12.0532 17.8282L12.071 17.8784L12.0915 17.9193L12.1274 17.9667L12.1481 18.0043L12.2157 18.1937H12.2248L12.2396 18.1905L12.2541 18.1937L12.2658 18.2188V18.2313L12.2601 18.2439L12.257 18.2625L12.2631 18.2909L12.319 18.3978L12.3542 18.3884L12.3782 18.3098L12.39 18.0863L12.3839 18.0228L12.3543 18.0009L12.3304 18.0293L12.3178 18.1316L12.2973 18.1663L12.306 18.0462L12.3003 17.9866L12.2798 17.9363L12.2503 17.9206L12.2089 17.9141L12.1854 17.8922L12.1971 17.8262L12.3443 17.3151L12.3709 17.2554L12.4035 17.2214L12.4481 17.212L12.4451 17.2496L12.4212 17.2967L12.4094 17.3189L12.3976 17.4767L12.4036 17.5302L12.4329 17.5899L12.4661 17.6056L12.5014 17.6121L12.5397 17.653L12.5189 17.6498L12.4809 17.653L12.457 17.6465L12.4543 17.6813V17.7064L12.4631 17.7287L12.4836 17.7538L12.4517 17.8675L12.4634 17.8926L12.5047 17.9242L12.5693 17.9554L12.6167 17.9679L12.6577 17.9493L12.6902 17.8987L12.7222 18.034L12.74 18.0623L12.7574 17.9963L12.7547 17.9242L12.7312 17.8578L12.6956 17.8043L12.6546 17.7631L12.6633 17.735L12.6603 17.7032L12.6456 17.6716L12.625 17.6529L12.6337 17.6246L12.6398 17.5869L12.6368 17.5492L12.622 17.5237L12.6103 17.4953L12.6164 17.4573L12.6369 17.3852L12.6486 17.2683L12.6603 17.2087L12.6811 17.1645L12.7131 17.2242L12.669 17.4097V17.5076L12.6835 17.536L12.7161 17.555L12.7309 17.5801L12.7336 17.5991L12.7309 17.6493L12.7336 17.6777V17.7218L12.7278 17.7627L12.7426 17.8007L12.799 17.8355L12.7842 17.8702L12.8401 17.9173L12.8047 17.7849L12.793 17.7218V17.6586L12.8105 17.6557L12.8371 17.7092L12.8754 17.7534L12.9106 17.804L12.9372 17.8857L12.9725 17.804L12.9843 17.6745L12.9816 17.3028L12.9873 17.2432L13.0051 17.1868H13.0226L13.0669 17.1612L13.0935 17.1174L13.0492 17.0288L13.0757 16.9972L13.1116 16.9656L13.1234 16.928L13.1207 16.8619L13.15 16.8523L13.1796 16.8838V16.9405L13.1443 17.0223L13.153 17.0445L13.2062 17.0384L13.2237 17.0568L13.2209 17.1141L13.2001 17.2146L13.2445 17.2021L13.3033 17.1361L13.3416 17.1142L13.3769 17.1236L13.3739 17.2402L13.3979 17.2872L13.4214 17.2431L13.5339 16.9658L13.5867 16.9439L13.5779 17.0193L13.5278 17.1897L13.5457 17.2937L13.5632 17.2966L13.6132 17.2653L13.6428 17.2402L13.7252 17.1423L13.6872 17.1204L13.6724 17.0824L13.6694 17.0322L13.6812 16.9815L13.7108 16.9848L13.7252 16.9752L13.7313 16.9468L13.7252 16.9059L13.8143 16.9155L13.8351 16.8524L13.8261 16.7738L13.8382 16.7264L13.9088 16.6917L13.9471 16.6443L13.9589 16.575L13.9677 16.4774L13.8762 16.5183L13.8587 16.4745V16.4023L13.8262 16.3456L13.8204 16.3237L13.8409 16.2793L13.8557 16.2165L13.8674 16.0998L13.8644 15.8954L13.891 15.8229L13.9027 15.6184L13.9383 15.5805L13.9883 15.5367L14.0293 15.4832L14.0384 15.4168L14.0001 15.3572L13.8821 15.2403L13.8643 15.2023L13.8616 15.1553L13.8233 15.1334L13.8025 15.105L13.8525 15.0448L13.9704 14.9659L14.0001 14.9285L14.0529 14.8245L14.0948 14.7836L14.1392 14.7804L14.1302 14.8558L14.1655 14.8529L14.2156 14.8087L14.2539 14.7459L14.2068 14.7363L14.1893 14.7396L14.1863 14.5032L14.1745 14.393L14.1892 14.3836L14.2363 14.3708L14.3365 14.3679L14.3661 14.4339L14.3334 14.661L14.3365 14.689L14.3482 14.7487V14.777L14.3365 14.8007L14.31 14.8323L14.3012 14.8449L14.2951 14.8984L14.2921 14.968L14.3039 15.0307L14.3395 15.0687L14.3714 15.053L14.3919 15.0027L14.4221 14.8984L14.4427 14.8667L14.531 14.7756L14.5489 14.8291L14.6255 14.9016L14.6167 14.9271L14.5841 14.9304L14.5166 14.911L14.4988 14.9207L14.4783 14.9645L14.4487 15.0092L14.4753 15.034L14.5046 15.0752L14.5166 15.1129L14.4961 15.1415L14.4696 15.1382L14.4343 15.1099H14.4041L14.3748 15.1508L14.3688 15.2294L14.3835 15.384L14.4638 15.3493L14.5462 15.2485L14.6198 15.2517L14.723 15.3181L14.7942 15.3432L14.8356 15.3145L14.9328 15.2929L15.2546 15.444L15.3253 15.3844L15.2899 15.3753L15.258 15.3625L15.2285 15.3402L15.2019 15.3022L15.249 15.3216L15.2725 15.3022L15.2668 15.2581L15.2372 15.2046L15.2079 15.1888L15.1723 15.1921L15.1404 15.1859L15.1168 15.1418L15.1139 15.0916L15.1256 14.9717L15.1105 14.937L15.0746 14.899L15.0188 14.8173L14.9744 14.7857H15.0511L15.1165 14.7638L15.1696 14.7168L15.2049 14.625L15.2285 14.6601L15.2463 14.7006L15.2725 14.7954L15.2873 14.8111L15.308 14.7731L15.3198 14.7196L15.3256 14.6784L15.3168 14.6471L15.308 14.6346L15.2933 14.6281L15.2755 14.6188L15.258 14.5965V14.5779L15.2637 14.5585V14.5334L15.2432 14.4831L15.1548 14.3762L15.2341 14.3507L15.2933 14.3603L15.3346 14.417L15.3847 14.6311L15.4087 14.6756L15.4476 14.666L15.5152 14.6186L15.4886 14.5683L15.5359 14.4611L15.5329 14.3759L15.5917 14.4043L15.6566 14.401L15.7809 14.3601L15.766 14.3473L15.7573 14.3347L15.7419 14.3225L15.7244 14.316L15.7513 14.2213L15.7006 14.1771L15.6005 14.1646L15.5947 14.086L15.6361 14.0764L15.6949 14.0889L15.7455 14.0735L15.7603 14.1395L15.7869 14.1771L15.9046 14.2558L15.9076 14.231L15.8898 14.1772L15.881 14.1176L15.8988 14.0069L15.9281 14.0201L15.9607 14.1047L15.9927 14.2155L16.0074 14.2406L16.0279 14.2496L16.0693 14.2374L16.0903 14.2216L16.0816 14.1994L16.0635 14.1742L16.0575 14.1553V14.124L16.0514 14.1018V14.0799L16.0722 14.0547H16.0876L16.0963 14.0737L16.1021 14.0956L16.1168 14.105H16.1995L16.2288 14.1646L16.2405 14.259L16.2818 14.3566L16.3437 14.4639L16.388 14.5205L16.3998 14.5048L16.4414 14.4735L16.4357 14.5363L16.4414 14.5901L16.4654 14.6309L16.5124 14.6597L16.5272 14.6023L16.5712 14.4325L16.5773 14.3917L16.5683 14.3727L16.5656 14.3601L16.5891 14.3379H16.6066L16.6183 14.3635L16.6361 14.3824L16.6627 14.3728L16.6745 14.3506L16.6774 14.3165V14.2811L16.6715 14.2524L16.6597 14.243L16.6009 14.1454L16.5949 14.1267L16.4917 14.1012L16.4476 14.076L16.4772 14.0477L16.533 14.0573L16.5596 14.0477V14.0064L16.5508 13.9659L16.5478 13.9343L16.5538 13.9087L16.5801 13.893L16.6628 14.1516L16.6775 14.1829L16.6923 14.1954L16.7128 14.205L16.7333 14.2179L16.7692 14.2304V14.1985L16.7399 14.1264L16.7276 14.06V13.9875L16.7457 13.9247L16.7809 13.8896L16.7665 13.9844L16.7753 14.1042L16.8105 14.205L16.8784 14.2459L16.8607 14.1451L16.852 13.9531L16.8194 13.8806L16.855 13.8867H16.896L16.9256 13.8616L16.9226 13.802L16.896 13.7611L16.8194 13.6918L16.7955 13.6474L16.8102 13.6316L16.8397 13.6164L16.8663 13.5846L16.8633 13.4738L16.8808 13.4398L16.9104 13.4301L16.9487 13.4557L16.9547 13.3961L16.9692 13.3458L16.987 13.3333L17.0165 13.3897L17.0135 13.456L17.0017 13.5285L17.0048 13.5852L17.0458 13.6138L17.0605 13.6261L17.0576 13.5852L17.0458 13.5694L17.079 13.3552L17.1025 13.3212L17.12 13.3463L17.1439 13.5537L17.1732 13.6143L17.2085 13.6549L17.2498 13.671L17.2911 13.6677L17.3265 13.4532L17.3531 13.3872L17.3736 13.3588L17.4007 13.3431L17.4185 13.3556L17.439 13.3872L17.4477 13.4156L17.4625 13.4468V13.4658L17.4685 13.4783L17.5038 13.4845L17.5243 13.4816L17.5482 13.4751L17.5722 13.4593L17.5867 13.4436L17.6045 13.4282L17.6364 13.4092L17.6572 13.3873L17.6455 13.365L17.6247 13.3338L17.6189 13.2987V13.2613L17.6159 13.2265L17.5863 13.1035L17.557 13.0813L17.5012 13.1035L17.581 12.9587L17.6223 12.9365L17.6633 13.0186L17.6811 13.0125L17.6959 12.9618L17.7287 12.9554L17.7583 12.9901L17.7553 13.0498L17.8053 13.0559L17.8554 13.0465L17.9056 13.0246L17.9496 12.9899L17.8996 12.9615L17.8821 12.9112L17.8673 12.851L17.829 12.7879L17.8996 12.7911L17.944 12.8604L17.9823 12.9551L18.0411 13.0182V12.9741L18.0529 12.9457L18.0861 12.8826L18.0979 12.8894L18.1184 12.8797L18.1244 12.8542L18.0713 12.8294L18.077 12.7411L18.0472 12.6938L17.9999 12.6597L17.9645 12.5995L17.9999 12.622L18.0412 12.6314L18.0771 12.622L18.1067 12.5808L18.0627 12.5683L18.1302 12.4987L18.1891 12.518L18.2187 12.5869L18.1947 12.6721L18.2035 12.7005L18.2626 12.713L18.3127 12.7414L18.3598 12.76L18.4252 12.7475L18.3774 12.6911L18.3656 12.6595L18.3834 12.6405L18.4136 12.6311L18.4223 12.6376L18.4781 12.6563L18.5047 12.6595L18.5813 12.6344L18.5574 12.6025L18.5457 12.59L18.5634 12.5587L18.6075 12.524L18.628 12.5046L18.7317 12.2753L18.7435 12.2151L18.7495 12.1362L18.7788 12.1581L18.7849 12.1301L18.7879 12.0512L18.7849 12.0387L18.8114 12.0229L18.8733 12.0135L18.8999 12.001L18.9264 11.9569L18.9913 11.8084L19 11.7585L18.9885 11.7479Z" fill="#550000"/>
</svg>
