<svg width="26" height="26" viewBox="0 0 26 26" fill="none" xmlns="http://www.w3.org/2000/svg">
<circle cx="13" cy="13" r="13" fill="#F8F3ED"/>
<path d="M19.1943 17.5707L19.1426 17.5324L19.0875 17.5155L19.0492 17.5407L19.0449 17.6211L19.0831 17.6763L19.2112 17.7103L19.2707 17.7529L19.2155 17.7825L19.0788 17.8037L19.0618 17.8382L19.1 17.8804L19.2324 17.9104L19.2784 17.9526L19.2996 17.8465L19.3165 17.7186L19.2909 17.6126L19.1943 17.5707ZM18.9815 16.7112L18.9345 16.6685L18.8541 16.6263L18.7608 16.6723L18.7047 16.7658L18.752 16.8676L18.799 16.8763L18.9726 16.855L19.0109 16.8042V16.7573L18.9815 16.7112ZM22.8551 15.3199L22.7747 15.762L22.7108 16.0046L22.6938 16.1581L22.7108 16.3234L22.7026 16.3829L22.6092 16.6046L22.5584 16.8085L22.588 16.7955L22.6306 16.7786L22.6431 16.7234L22.7534 16.5152L22.8298 16.0218L22.8254 15.6862L22.9144 15.3454L22.9231 15.1715L22.8974 15.1802L22.8551 15.3199ZM22.9784 14.4439L22.944 14.2865L22.8849 14.2992V14.3035L22.9144 14.4735V14.8008L22.94 14.9708L22.9917 14.8558L23 14.6603L22.9784 14.4439ZM22.7278 15.579L22.779 15.303L22.8168 15.2226L22.8551 15.1076L22.872 14.9926L22.8637 14.9035L22.8129 14.8527L22.7622 14.8609L22.7027 14.8866L22.6388 14.8778L22.6518 14.8652L22.6727 14.8439L22.69 14.8227L22.6813 14.7887L22.6474 14.7975L22.6387 14.7548L22.6643 14.6701L22.588 14.6356L22.3878 14.6187L22.4555 14.5548H22.5328L22.6132 14.5804L22.6936 14.5843L22.7657 14.5548L22.7618 14.5161L22.6515 14.3975L22.7192 14.4057L22.7651 14.3975L22.7781 14.3592L22.7695 14.3296L22.6635 14.3504L22.4251 14.4056L22.0817 14.4861L21.7426 14.5636L21.3939 14.6393L21.0539 14.7162L20.7105 14.7926L20.366 14.8691L20.0215 14.9452L19.9451 14.6909L19.873 14.4264L19.7626 14.0264L19.6515 13.6226L19.5416 13.2231L19.4313 12.8191L19.3249 12.4191L19.2151 12.0149L18.9937 11.211L18.8834 10.8115L18.7774 10.4076L18.6663 10.0077L18.5559 9.60765L18.4456 9.20338L18.3354 8.80382L18.2242 8.40001L18.1182 8L17.6172 8.11084L17.1119 8.22122L16.6108 8.3316L16.1093 8.44198L15.6083 8.55282L15.103 8.65929L14.6019 8.76933L14.0966 8.87626L13.5951 8.98273L13.0941 9.09311L12.5888 9.19487L12.0877 9.30099L11.5824 9.40747L11.0805 9.51394L10.5752 9.61615L10.0699 9.72228L9.5688 9.8245L9.0635 9.92706L8.55821 10.0288L8.0567 10.1306L7.5514 10.2284L7.0461 10.3306L6.54493 10.4332L6.03963 10.5306L5.53434 10.6284L5.02904 10.7258L4.52373 10.8241L4.01844 10.9224L3.51314 11.0198L3.0068 11.1133L2.50529 11.2111L2 11.3046L2.48417 14.1669L2.49714 14.1843L2.51839 14.1804L2.55697 14.1499L2.60394 14.1039L3.01519 13.5762L3.04964 13.5593L3.22374 13.4914L3.25762 13.4702L3.27025 13.4445L3.29977 13.3171L3.32101 13.2619L3.36787 13.1936L3.47386 13.0745L3.65761 12.9258L3.67851 12.9089L3.69149 12.8833L3.72972 12.8028L3.80185 12.7259L3.81448 12.7046L3.82711 12.6833L3.83584 12.6582L3.84411 12.6413L3.86972 12.4878L3.87799 12.4626L3.89097 12.4326L3.91232 12.4113L4.06162 12.297L4.0955 12.2836L4.13374 12.2797L4.21413 12.297L4.29451 12.3222L4.39225 12.3861L4.44301 12.403H4.47746L4.5157 12.3943L4.5583 12.3647L4.58345 12.3391L4.59643 12.3139L4.63089 12.237L4.8384 11.9184L4.88089 11.8379L4.9065 11.7527L4.91914 11.7314L4.93257 11.7102L4.94945 11.6933L4.96645 11.6759L4.98769 11.6632L5.05981 11.6332L5.08543 11.6163L5.09369 11.5998L5.08543 11.5868L5.06418 11.5572L5.05545 11.536L5.05154 11.506L5.05545 11.472L5.06418 11.4469L5.11011 11.336L5.12309 11.2852L5.13572 11.2392L5.14008 11.2175L5.1526 11.1962L5.16523 11.1875H5.18649L5.22472 11.2087L5.24161 11.2305L5.28754 11.2644L5.34267 11.2896L5.35564 11.3065V11.3195L5.3344 11.3321L5.29995 11.3621L5.29558 11.3752L5.28685 11.3921V11.4134L5.29122 11.4342L5.29558 11.4511V11.4592L5.30419 11.4635L5.33382 11.4931L5.34634 11.5018L5.36323 11.5101L5.53387 11.5528L5.61851 11.591L5.63988 11.604L5.66548 11.6162L5.77964 11.6331L6.14517 11.6205L6.1539 11.5997L6.29366 11.5227L6.61671 11.5019L6.73155 11.3784L6.74418 11.3145L6.71466 11.2932L6.6213 11.2806V11.1993L6.68906 11.161L6.7737 11.1441L6.82538 11.1146L6.67206 10.9703L6.71031 10.932L6.74855 10.9193H6.83846L6.87671 10.9067L6.97834 10.8254L7.06298 10.7915H7.24535L7.33137 10.7746L7.36088 10.7401L7.42036 10.6251L7.46251 10.5743L7.56024 10.3912L7.58976 10.3617L7.62799 10.3317L7.67496 10.3065L7.90464 10.2765L8.12916 10.3656L8.52869 10.6338L8.62642 10.6717L8.72886 10.689L8.82659 10.6717L8.88608 10.6208L8.92822 10.5957L9.05983 10.6039L9.08107 10.5827L9.09359 10.5367L9.14435 10.5154H9.20912L9.25506 10.5241L9.33545 10.5964L9.33108 10.6855L9.26333 10.7711L9.15997 10.8216L9.19821 10.8772L9.30502 11.0727L9.33063 11.0644V11.0092L9.34326 10.9453L9.36886 10.9031L9.41101 10.9114L9.44925 10.9666L9.44535 11.0135L9.4241 11.0474L9.42847 11.0857L9.49622 11.1409L9.55961 11.1282L9.63162 11.0895L9.70891 11.0687L9.71764 11.107L9.66159 11.1326L9.64035 11.1831L9.65298 11.2436L9.69639 11.3066L9.61474 11.3966L9.68364 11.4388L9.89989 11.4857L9.95938 11.5705L9.95501 11.6766L9.94238 11.7874L9.96799 11.8896L10.0526 11.9831H10.0614L10.1552 12.0088L10.3758 11.9618H10.4609L10.665 11.9958L10.8729 12.0045L10.9281 12.0384L11.0423 12.1615L11.1366 12.2002L11.2425 12.2089L11.3359 12.2302L11.4036 12.3067L11.408 12.4217L11.362 12.5195L11.2431 12.6769L11.2304 12.7791L11.273 12.8596L11.3452 12.9187L11.4255 12.9656L11.6114 13.0919L11.7299 13.1264L12.125 13.0834L12.2735 13.0964L12.4138 13.1394L12.5332 13.2198L12.5758 13.2924L12.6136 13.3771L12.6561 13.445L12.7238 13.4619H12.7877L12.9485 13.4831L13.0891 13.4788L13.1443 13.5088L13.212 13.5683L13.4709 13.1345L14.1043 13.7175L13.8065 14.2535L13.8278 14.347L13.9299 14.4744L13.9168 14.5257L13.9042 14.5643L13.8872 14.5934L13.8616 14.6147L13.9298 14.7169L13.8915 14.7933L13.7262 14.8824L13.671 14.9294L13.6415 14.9633L13.6159 15.0059L13.599 15.0611L13.6034 15.1594L13.5821 15.2568L13.5734 15.3547L13.5565 15.393L13.5144 15.4181L13.4157 15.4311L13.3906 15.448L13.3606 15.4825L13.3355 15.4994L13.3142 15.5207L13.3012 15.5667V15.6267L13.3142 15.665H13.3394L13.3819 15.6311L13.4201 15.6606L13.3099 15.7411L13.2716 15.775L13.1782 15.8259L13.1531 15.945L13.1487 16.0641L13.1192 16.1236L13.1019 16.2001L13.1363 16.3531L13.1954 16.5149L13.238 16.6171L13.3101 16.7063L13.4117 16.8041L13.5229 16.8501L13.6119 16.7949L13.6501 16.7489L13.7392 16.685L13.7817 16.6215L13.8325 16.4085L13.773 16.3489L13.7479 16.3276L13.7179 16.315L13.7647 16.2598L13.8155 16.2138L13.8281 16.2221L13.8325 16.2308L13.8411 16.2347L13.8581 16.2435L13.8664 16.2861L13.8495 16.3321L13.8707 16.3917L13.9167 16.4429L13.9688 16.4647L14.0235 16.4429L14.0704 16.3873L14.1212 16.2682L14.1338 16.2222L14.1426 16.1714V16.1205L14.1338 16.0649L14.2272 16.1332L14.3162 16.2606L14.5293 16.6436L14.614 16.7371L14.9835 16.9961L15.1194 17.0474L15.2084 17.0222L15.1997 16.8814L15.1319 16.7283L15.0599 16.6053L14.8979 16.3836L15.0599 16.4436L15.1789 16.5327L15.2635 16.6688L15.323 16.8726L15.3482 16.9239L15.3959 16.9922L15.4976 17.0987L15.578 17.1447L15.6457 17.1534L16.0578 17.013L16.2185 16.9957L16.3592 17.0513L16.4313 17.0982L16.4994 17.1278L16.5672 17.1704L16.6393 17.2509L16.6819 17.3187L16.741 17.4509L16.7578 17.4982L16.8267 17.5234L16.8475 17.4721L16.8436 17.3186L16.9665 17.4087L17.0343 17.4382L17.0511 17.353L17.068 17.3185L17.0807 17.2677L17.0767 17.2125L17.0638 17.1742L17.0216 17.0981L17.0086 17.0468L17.1276 17.119L17.1997 17.2933L17.2549 17.4676L17.3238 17.5402L17.451 17.5572L17.8391 17.783L17.8178 17.7025L17.7796 17.6604L17.7362 17.6264L17.6979 17.5795L17.6898 17.4904L17.7023 17.3754V17.2605L17.6563 17.167L17.474 16.9883L17.3297 16.9078L17.2915 16.8733L17.2398 16.7716L17.2481 16.6825L17.2693 16.5973L17.2737 16.4952L17.2098 16.4186L17.1082 16.4356L16.9934 16.4908L16.8961 16.5164L16.7927 16.4781L16.6955 16.4012L16.6151 16.3038L16.5729 16.206L16.5217 16.1803L16.203 16.1042L16.025 16.0017L15.8809 15.8738L15.7654 15.6999L15.6976 15.4956L15.6806 15.457L15.6467 15.4318L15.6719 15.381L15.621 15.3045L15.5789 15.1854L15.4686 14.7854L15.4599 14.7219L15.4473 14.6794V14.6367L15.5236 14.7646L15.8289 15.585L15.8633 15.6237L15.9185 15.6494L16.2958 15.9637L16.3814 16.0064H16.5299L16.5806 16.019L16.6653 16.0447L16.7035 16.0792L16.7165 16.1087L16.7291 16.1426L16.763 16.1895L16.8486 16.2617L16.9207 16.2786L17.0735 16.2404L17.1625 16.1725L17.1582 16.0617L17.0991 15.943L17.0353 15.8448L16.8699 15.6839L16.4874 15.3943L16.3562 15.1989L16.3218 15.0749L16.2835 14.7185L16.2453 14.6206L16.1944 14.5224L16.1562 14.4163L16.1601 14.2846L16.0077 14.1781L15.9356 14.0938L15.9056 13.983L15.9356 13.8934L16.0797 13.7574L16.1223 13.6595V13.5356L16.0753 13.5443L15.9605 13.6508L15.9096 13.6217L15.9309 13.4257L15.8757 13.3912L15.8453 13.3616L15.8366 13.3447L15.8283 13.3234L15.9308 13.2983H15.9767L16.0149 13.3191L16.0701 13.2295L16.0109 13.1743L15.8446 13.1152L15.7851 13.0639L15.7343 12.9914L15.7255 12.9235L15.7936 12.8896L15.8918 12.9235L16.0829 13.0639L16.1676 13.0849L16.1889 13.0218L16.1038 12.8984L15.8667 12.6558L15.7425 12.5618L15.6916 12.5323L15.59 12.5154L15.5393 12.4897L15.4966 12.4389L15.4841 12.3837L15.4966 12.3329L15.5474 12.3072L15.5943 12.3243L15.6494 12.3712L15.7384 12.4647L16.0444 12.669L16.0783 12.6472L16.0952 12.6046L16.1208 12.5789L16.2224 12.5499L16.2946 12.5069L16.2989 12.4478L16.2185 12.3626L16.1252 12.3166L15.8707 12.2565H15.7682L15.7338 12.2439L15.6956 12.21L15.6743 12.1587L15.6912 12.116H15.7294L15.9001 12.1934L15.946 12.1412H16.0055L16.0606 12.1757L16.0945 12.2309L16.129 12.2222L16.1246 12.0943L16.0525 11.9839L15.9635 11.8822L15.8576 11.6905L15.8016 11.7074L15.7169 11.7926L15.6662 11.7713L15.5858 11.6818L15.5519 11.6691L15.5306 11.6391L15.5011 11.5795L15.446 11.5244L15.3053 11.5075L15.2709 11.4779L15.2414 11.4319L15.1905 11.3894H15.1566L15.0762 11.3767L15.0128 11.3636L15.0423 11.3423L15.1526 11.3078L15.1908 11.2783L15.2203 11.2275L15.2798 11.2614L15.5226 11.3166L15.5904 11.3635L15.6581 11.4187L15.7051 11.4526L15.7346 11.4274L15.7728 11.4657L15.798 11.4231L15.8362 11.4148L15.884 11.4317L15.9299 11.4656L16.0867 11.3121L16.0784 11.2782L15.9217 11.2908L15.7849 11.2103L15.6664 11.0873L15.5644 10.9469L15.7173 10.9638L15.7594 10.9851L15.8628 11.0955L15.9135 11.1424L15.99 11.1719L16.0239 11.1124L16.0195 11.0741L15.8358 10.9171L15.785 10.8571L15.8063 10.8188L16.0616 10.8232L16.0698 10.798L16.0239 10.7336L16.0621 10.6828L16.1081 10.6702L16.1507 10.6494L16.1758 10.5811L16.1507 10.585L16.138 10.4832L16.0361 10.4576H15.9088L15.8276 10.4154L16.1419 10.2572L16.2058 10.275L16.3508 10.5089L16.4355 10.7597L16.5332 10.5643L16.5627 10.5386L16.5584 10.5047L16.5162 10.4452L16.4311 10.3647L16.4016 9.93511L16.423 9.9051L16.4398 9.84991L16.4651 9.80392L16.5076 9.79046L16.5458 9.82496L16.5546 9.87187L16.5502 9.98271L16.5714 10.2242L16.6097 10.3306L16.6987 10.3858L16.7877 10.2623L17.0261 10.0458L17.1869 9.79023L17.2077 9.73504L17.1994 9.66283L17.1612 9.64593L16.9914 9.62466L16.9324 9.58246L16.9832 9.24603L17.017 9.19521L17.0596 9.16129L17.1187 9.14002L17.4166 9.08046L17.4592 9.04654L17.5013 8.89788L17.5396 8.82889L17.6073 8.79497L17.6034 9.02493L17.5903 9.12669L17.5608 9.22062L17.4844 9.40321L17.4674 9.51819L17.5057 9.61604L17.5608 9.50566L17.8161 9.18222L17.8795 9.08L17.9265 8.96502L17.9855 8.86764L18.0788 8.80762L18.0769 8.93651L18.0556 9.0769L18.0005 9.20039L17.9028 9.28513L17.9666 9.36642L18.047 9.41241L18.1955 9.45932L18.1999 9.49324L18.0809 9.50198L17.8603 9.48071L17.7674 9.51072L17.7027 9.57419L17.6263 9.68031L17.4951 9.91027L17.5034 10.0172L17.6182 10.0298L18.1149 9.92372L18.239 9.932L18.3112 9.99156L18.2 10.0211H18.1661L17.975 10.0724L17.4783 10.1659L17.1084 10.2976L17.0958 10.3233L17.0914 10.4511L17.0746 10.502L17.0363 10.5315L16.9473 10.5698L16.9091 10.6206L16.9047 10.6675L16.9216 10.7825L16.9133 10.8377L16.7853 11.2803L16.7558 11.4885L16.7428 11.5268L16.7302 11.5951L16.7428 11.6585L16.8582 11.6842L16.9008 11.7268L16.9353 11.7777L16.9521 11.8207L16.9943 12.0672L17.0199 12.165L17.0707 12.211L17.1345 12.1214L17.1258 11.9093L17.1427 11.6837L17.2743 11.5687L17.2825 11.6074L17.2318 11.6621L17.3472 11.6747L17.4318 11.6113L17.5082 11.5217L17.5972 11.4582L17.5677 11.5686L17.4148 11.8069L17.3597 11.9516L17.4023 11.9855L17.3553 12.0107L17.2529 12.049L17.2785 12.1003L17.309 12.1381L17.3428 12.1686L17.3811 12.1812L17.3898 12.3008L17.3303 12.3856L17.2361 12.4451L17.1428 12.4747L17.0155 12.4829L16.9309 12.4534L16.7859 12.3555L16.7351 12.3347L16.68 12.326L16.6417 12.3429V12.4789L16.6073 12.6102L16.6029 12.6532L16.6199 12.7936L16.6286 13.2271L16.6581 13.321L16.7259 13.3041L16.8063 13.2272L16.8367 13.1594L16.8063 13.1298L16.7554 13.0911L16.7172 13.0402V12.9851L16.7516 12.9381L16.7855 12.9212L16.9179 12.883L16.9474 12.866L16.9857 12.8321V12.8159L17.0069 12.7607L17.0364 12.7138H17.0533L17.066 12.6113L17.1423 12.6282L17.3086 12.7182L17.3042 12.7909L17.313 12.88L17.3469 12.9561L17.4102 12.9773L17.4315 12.9434L17.4359 12.8034L17.4441 12.7695L17.5036 12.7651L17.5166 12.8111L17.5122 12.9346L17.5467 12.9472L17.7459 12.9855L17.6655 13.0703L17.5553 13.1433L17.4706 13.2367L17.4876 13.3977L17.5766 13.5127L17.67 13.5083L17.7504 13.4319L17.7891 13.3301L17.8272 13.4148L17.8064 13.5127L17.7587 13.5892L17.7127 13.6274L17.6276 13.6362L17.543 13.6232L17.4626 13.5893L17.3905 13.538L17.331 13.4193L17.314 13.3981L17.2662 13.4024L17.2318 13.3855L17.1728 13.326L17.0964 13.3047L17.0369 13.3555L16.9392 13.4829V13.5298L16.9309 13.5894L16.914 13.9338L16.8971 14.0402V14.1207L16.914 14.2572L16.9479 14.2824L17.003 14.2611L17.0581 14.2103L17.0877 14.1634L17.0532 14.0872L17.0363 13.959V13.823L17.0532 13.73L17.104 13.6487L17.121 13.6956L17.1297 13.9334L17.1756 13.9808L17.2395 13.8826L17.3419 13.6656L17.4353 13.6869L17.4435 13.7808L17.3927 13.9722L17.4565 13.9973L17.5243 14.1165L17.5669 14.1377L17.6128 14.0994L17.6254 14.0311L17.6298 13.9507L17.6511 13.8784L17.6806 13.9297L17.6936 13.9849L17.6848 14.0309L17.6636 14.0739L17.7187 14.133L17.796 14.1161L17.885 14.0739L17.9784 14.0478L17.9866 14.0869L17.9315 14.1204L17.8299 14.2017L17.796 14.2438L17.8047 14.2821L17.8976 14.299L17.9615 14.2739L18.0074 14.2269L18.0713 14.1844V14.3035L18.1729 14.38L18.3136 14.4222L18.4239 14.4266L18.5173 14.3714L18.5642 14.2823L18.6149 14.0653L18.6401 14.0609L18.6571 14.0739L18.6827 14.0869L18.6571 14.1804L18.6702 14.3586L18.6357 14.4604L18.5931 14.5073L18.5293 14.5459L18.3937 14.5919L17.9096 14.5193L17.8331 14.5538L17.778 14.5326L17.7219 14.4981L17.7475 14.4768L17.7992 14.4046L17.7389 14.4302L17.6373 14.5024L17.5734 14.5324L17.5013 14.5494L17.2938 14.5537L17.3528 14.6133L17.3784 14.6346L17.4123 14.6472L17.421 14.6859L17.3489 14.8216L17.332 14.9068L17.3954 14.9281L17.5314 14.8981L17.5822 14.8685L17.6204 14.8216L17.6373 14.7756L17.6329 14.7461L17.6412 14.7248L17.688 14.7079L17.7263 14.6992H17.7558L17.7823 14.7035L17.8036 14.7204L17.8331 14.7756L17.778 14.8647L17.8162 14.9156L17.7389 14.9795L17.6456 15.0308L17.5734 15.0942L17.5608 15.1924L17.5734 15.3367L17.5483 15.4258L17.5014 15.4215L17.4555 15.2984L17.4047 15.2558L17.3243 15.2602L17.264 15.3153L17.2948 15.4303L17.3243 15.4555L17.3752 15.4772L17.4221 15.5112L17.4772 15.6261L17.5193 15.6857L17.5619 15.7365L17.5958 15.7617L17.7704 15.9408L17.8852 16.0595L17.9403 16.2043L17.966 16.1999L17.953 16.0769L17.8387 15.8382L17.877 15.783L17.9616 15.8169L18.2972 16.0895L18.361 16.183L18.3993 16.213L18.5221 16.2213L18.5729 16.2552L18.7731 16.4722L18.8325 16.5022L18.8621 16.4382L18.8791 16.2852L18.8621 16.2086L18.8365 16.1364L18.7943 16.0895L18.7392 16.0726L18.7899 15.9148L18.8833 15.7366L18.981 15.6475L19.0488 15.7618L19.0401 15.8509L18.9298 15.9361L18.9172 16.013L18.9467 16.059L18.9935 16.0978L19.0443 16.1273L19.0788 16.1573L19.0956 16.2082L19.1044 16.2633L19.1126 16.3142L19.1426 16.3394L19.1635 16.2803L19.1987 15.9268L19.2196 15.876L19.3893 15.5655L19.3974 15.5103L19.3937 15.4421L19.3974 15.3869L19.4231 15.3612L19.4825 15.3529L19.4952 15.3742L19.4908 15.4038V15.5316L19.47 15.6256L19.3806 15.8973L19.3553 16.0294L19.3636 16.1572L19.4317 16.259L19.5207 16.2885L19.7208 16.259L19.8012 16.2803L19.6519 16.3945L19.4825 16.4841L19.3636 16.6081L19.3509 16.8328L19.3805 16.9437L19.4061 16.9863L19.4356 16.9946L19.47 16.9694V16.9225L19.4613 16.8712L19.4783 16.8286L19.5629 16.7826L19.7718 16.7613L19.8652 16.6979H19.9242L20.0006 16.6722L20.0683 16.6766L20.094 16.7318L20.0683 16.7701L19.9411 16.8209L19.899 16.8548L19.9328 16.8844L19.9241 16.9405L19.8946 16.9913L19.8563 17.0382L19.8137 17.0677L19.8268 17.1104L19.8437 17.1148L19.852 17.1187V17.1274L19.8651 17.1401L19.911 17.0979L19.9749 17.0722L20.0846 17.051L20.1451 17.0083L20.1795 16.9405L20.2178 16.8892H20.2855L20.2477 17.0042L20.0897 17.238L20.0602 17.3145L20.0346 17.3397L19.9161 17.387L19.8992 17.433L19.8905 17.4974L19.827 17.6681L19.8013 17.7107L19.814 17.7151H19.8271L19.8352 17.719L19.8396 17.749L19.8691 17.7403L19.8821 17.702L19.9033 17.6724L19.9372 17.6512L19.9754 17.6385L19.9711 17.7151L19.9411 17.7659L19.9116 17.8081L19.8946 17.8555L19.899 17.9063L19.9158 17.9276L19.9327 17.9445L19.9496 17.9831L19.9955 18L20.0719 17.9231L20.1787 17.77L20.2591 17.6809L20.3607 17.6464L20.7689 17.5912H20.8579L20.913 17.6044L20.93 17.5152L20.9469 17.4257L20.9681 17.3912L21.0741 17.3529L21.2612 17.2846L21.4053 17.2294L21.6224 17.1533L21.8135 17.0811L21.9363 17.0384L22.021 17.0039V16.957L22.0554 16.6553L22.025 16.617L22.0472 16.5875L22.0931 16.4766L22.1276 16.4383L22.1697 16.4301L22.2587 16.4427L22.2887 16.434L22.3095 16.3744L22.3182 16.1875L22.3308 16.1449L22.3647 16.0858L22.3521 15.745L22.3816 15.6689L22.4286 15.605L22.5524 15.4941L22.5228 15.6262L22.548 15.6689L22.6921 15.6262L22.7278 15.579Z" fill="#550000"/>
</svg>
