<svg width="26" height="26" viewBox="0 0 26 26" fill="none" xmlns="http://www.w3.org/2000/svg">
<circle cx="13" cy="13" r="13" fill="#F8F3ED"/>
<path d="M21.894 16.0924L21.6739 15.8933L21.5123 15.6616L21.4774 15.6202L21.442 15.6022L21.4019 15.5975L21.3521 15.6155L21.4573 15.7613L21.4619 15.8931L21.3767 16.1656L21.4418 16.115L21.5424 15.9474L21.6238 15.8931L21.6187 15.9836L21.5878 16.0741L21.5325 16.1471L21.4175 16.2148L21.3821 16.2836L21.3472 16.3063L21.302 16.3156L21.2517 16.2976H21.1974L21.0472 16.3286L20.63 16.4832L20.6403 16.5194L21.2324 16.5515L21.5234 16.5241L21.7948 16.447L22 16.2697L21.894 16.0924ZM19.3546 16.0293L19.2732 15.9475L19.2178 16.02L19.168 16.1428L19.1125 16.2152L19.1628 16.2746L19.2532 16.3289L19.3492 16.3651L19.4143 16.3563L19.4296 16.3024L19.4143 16.2151L19.3546 16.0293ZM18.8322 16.1513L18.7563 16.1472L18.6762 16.1103L18.7614 16.0332L18.7972 15.9743L18.7823 15.92L18.7059 15.8471L18.6258 15.8336L18.5961 15.893L18.5709 15.9701L18.5057 16.0244L18.5155 15.8745H18.4504L18.2092 16.0426L18.104 16.2145L18.0487 16.2646L17.9984 16.3235L17.9287 16.5598L17.8887 16.6458L17.8036 16.7052L17.4864 16.7823L17.4967 16.8279L17.5716 16.8501L17.6984 16.9411L17.763 16.9731L17.8687 17L17.923 16.9865L17.9933 16.882L18.0883 16.7822L18.2088 16.6962L18.3551 16.628L19.0524 16.4418L19.1324 16.401L18.9975 16.1186L18.8322 16.1513ZM21.3115 14.6667L21.3366 14.2944L21.3818 14.1579L21.3669 14.1078L21.347 14.0762L21.3219 14.0535L21.2767 14.0489L21.287 14.2123L21.2218 14.7072L21.3115 14.6667ZM21.4121 13.89L21.3217 13.4949L21.2217 13.1946L21.1617 13.1273L21.0863 13.1361L20.9903 13.2266L20.9852 13.1453L20.9549 12.9768V12.8908L21.0411 12.9399L21.1313 12.9761L21.1513 12.9673L21.1662 12.958L21.1817 12.9445L21.1914 12.9217L21.0811 12.8214L20.6542 12.1953L20.4838 12.0639L20.1272 11.8596L20.0117 11.8182L19.7706 11.7773L19.6756 11.7416L19.5853 11.7281L19.38 11.8047L19.2886 11.7912L19.2486 11.8L19.2086 11.8456L19.1835 11.9097V11.9686L19.2035 11.9908L19.2384 12.0048L19.2791 12.0137L19.3089 12.023L19.4653 12.1414L19.5454 12.1637L19.6255 12.1146L19.6105 12.0733L19.5905 12.0827L19.5155 12.0962L19.5698 11.9286L19.7402 11.883L19.9367 11.9513L20.0619 12.1101L20.0968 12.1732L20.2671 12.4234L20.3025 12.5093L20.3774 12.7818L20.4129 12.7043L20.3878 12.5182L20.442 12.4639L20.4985 12.4732L20.5585 12.5095L20.6334 12.5318L20.7334 12.5183L20.7489 12.5638L20.6734 12.6139L20.6386 12.632L20.5882 12.6459L20.7288 12.7637L20.8238 12.9452L20.8541 13.1407L20.7939 13.3176L20.7288 13.3631L20.5585 13.4361L20.442 13.5581L20.031 13.7815L19.8098 13.9811L19.6692 14.0716L19.4691 14.1171L19.364 14.1213L19.3326 14.0898L19.3839 14.0406L19.5692 13.9951L19.6343 13.9497L18.9918 14.0541L18.7815 14.0361L18.3997 13.9182L18.213 13.7999L18.1723 13.6503L18.1685 13.4854L18.0735 13.2724L17.9378 13.0946L17.8074 13.0357L17.616 13.0993L17.521 13.1086L17.4158 13.0677L17.0494 12.8774L17.0894 12.8406L17.1254 12.8221H17.1654L17.221 12.8359L17.1855 12.55L17.206 12.4999L17.266 12.5226L17.3409 12.595L17.4461 12.7413L17.4164 12.7548L17.3763 12.7858L17.3563 12.7997L17.4164 12.8178H17.4662L17.5165 12.7997L17.5566 12.7506L17.5765 12.7047L17.5667 12.6908L17.5313 12.682L17.321 12.5101L17.2507 12.4241L17.2461 12.3196L17.1104 12.2519L16.9242 12.0787L16.8035 11.9836L16.7234 11.952L16.7034 11.9562L16.693 11.9382L16.6432 11.7654L16.6181 11.7343L16.4519 11.6248L16.3312 11.5701L16.2014 11.5385H15.9495L15.8043 11.4842L15.5339 11.3338L15.5487 11.4026L15.6139 11.4885L15.6939 11.5521L15.7694 11.5749L15.7792 11.6069L15.7592 11.6747L15.7094 11.7156L15.6288 11.652L15.5836 11.7011L15.5185 11.7605L15.4487 11.806L15.4184 11.8107L15.4133 11.8334L15.3825 11.8376L15.3471 11.8288L15.3173 11.8153L15.3122 11.7879L15.3471 11.7294L15.3572 11.6969L15.2818 11.6338L15.1818 11.6607L15.0965 11.656L15.0765 11.4926L14.9764 11.5836L14.9313 11.5924L14.861 11.5609L14.7947 11.4926L14.7999 11.4295L14.8512 11.3794L14.9261 11.3567L14.8854 11.3111L14.8341 11.2837L14.7798 11.2791L14.7198 11.2749L14.7547 11.1881L14.8398 11.2016L14.9363 11.2384L15.0261 11.2016L14.9661 11.1928L14.9163 11.1607L14.8964 11.1203L14.941 11.0929L15.0113 11.0976L15.1216 11.1701L15.1966 11.1607L15.1423 11.1161L15.112 11.0656L15.0577 10.9389L14.9926 10.8572L14.9828 10.8071L15.0075 10.7166L15.0927 10.643L15.2682 10.7525L15.3785 10.6884L15.3083 10.6703L15.2282 10.6383L15.1682 10.584L15.163 10.5116L15.1883 10.48L15.2735 10.4662L15.3084 10.4526L15.3335 10.4253L15.4089 10.3161L15.4248 10.2887L15.4449 10.2572L15.4849 10.2391L15.5198 10.2169L15.4999 10.1844L15.4347 10.1435L15.3988 10.0944L15.3587 10.1343L15.3085 10.2122L15.2484 10.2573L15.2432 10.1979L15.2536 10.1528L15.2735 10.1078L15.3038 10.0709L15.2587 10.0389L15.3239 9.96644L15.5501 9.81186L16.0822 9.56213L16.1125 9.51657L16.1222 9.45764L16.1525 9.39453L16.1977 9.34444H16.2276L16.2429 9.35831L16.2527 9.36715L16.3477 9.35831L16.3676 9.34026L16.4076 9.28968L16.4375 9.23541L16.4478 9.18065L16.4729 9.13976L16.5442 9.12159L16.5329 9.09004L16.4929 9.04915V8.99439L16.4826 8.94933L16.4327 8.94467L16.3624 8.95351L16.3173 8.94467L16.2824 8.90378L16.267 8.81784L16.1521 8.91299L16.1018 8.96726L16.0818 9.03086L16.1372 9.18028L16.1269 9.23971L16.0268 9.21282L15.9966 9.13915L15.72 9.18458L15.5999 9.10747L15.6497 9.09397L15.6851 9.08046L15.7503 9.0257L15.4393 8.97561L15.3036 8.90317L15.2282 8.73054L15.2985 8.76209L15.5048 8.91667L15.5248 8.86756L15.2734 8.53102L15.1979 8.47209L15.1579 8.42703L15.1379 8.41315H15.1179L15.083 8.42703L15.068 8.4312L14.9527 8.41315L14.8984 8.3951L14.8322 8.35422L15.0584 8.31383L15.0984 8.29062L15.0933 8.23635L14.9933 8.04088L14.9881 8L14.8219 8.08214H14.7115L14.5314 8.05893L14.4715 8.06777L14.4263 8.07747L14.0039 8.37693L13.9588 8.42703L13.9388 8.45392L13.889 8.5449L13.8639 8.58578L13.8135 8.64422L13.7683 8.66694L13.7124 8.68081L13.6523 8.68548L13.5722 8.70402L13.522 8.7217L13.4872 8.74441L13.4667 8.76713L13.4467 8.78984L13.4169 8.84927L13.4019 8.88082L13.3814 8.95326L13.3717 9.07113L13.3614 9.11668L13.3265 9.17562L13.2763 9.21736L13.1864 9.26242L13.1401 9.29397L13.1099 9.32602L13.0647 9.417L13.0104 9.49411L12.9549 9.56188L12.92 9.58509L12.8697 9.60326L12.7599 9.63015L12.4028 9.70381L12.0523 9.77576L11.7003 9.84869L11.3488 9.92113L10.9978 9.99407L10.6458 10.0665L10.2891 10.1389L9.93873 10.2126L9.5867 10.2851L8.88426 10.4258L8.53223 10.4987L8.17667 10.5711L7.82464 10.6389L7.47315 10.7126L7.12206 10.7799H7.11691V10.7845H7.1123L6.86544 10.8301L6.62021 10.8802L6.37851 10.9257L6.13328 10.9748L5.88751 11.0204L5.64119 11.0654L5.40058 11.116L5.15372 11.1606L4.90849 11.2061L4.66679 11.2562L4.42156 11.3018L4.1758 11.3473L3.92948 11.3929L3.19664 11.5336L3.14114 11.6469L3.13652 11.7927L3.12118 12.2425L3.1064 12.6914L3.09146 13.1371L3.07613 13.5865L3.05604 14.0363L3.02524 14.9356L3.01031 15.385L3 15.6166V15.73L3.1714 15.8437L3.78359 15.7253L4.39618 15.612L5.00837 15.4986L5.61595 15.3803L5.95767 15.3172L6.27835 15.2582L6.55493 15.217L6.60012 15.3669L6.81047 15.2991L6.80016 15.1631L7.4878 15.0127L7.61401 15.0174L7.67915 15.0127L7.71987 15.0038L7.80034 14.9402L8.05073 14.8911L8.78913 14.7315L9.52699 14.5728L10.2643 14.4187L11.0032 14.2591L11.5702 14.1272L11.5954 14.1908L12.0361 14.0776L12.4882 13.9597L12.9305 13.846L13.3774 13.7323L13.6381 13.6734L13.6628 13.7509L13.729 13.9323L13.8543 14.2917L13.8696 14.3275L13.8947 14.3543H13.9347L14.0297 14.3275H14.0698L14.0949 14.3455L14.1251 14.4049L14.1349 14.45L14.1401 14.4868V14.5359L14.1504 14.5675L14.1751 14.6218L14.2053 14.8264L14.2203 14.8533L14.2356 14.8902L14.2803 14.9264L14.3567 14.9806L14.4517 15.0169L14.5168 15.0304L14.5722 15.035L14.6825 15.0759L14.9036 15.2764L14.9236 15.1985L14.9288 15.1669L14.9436 15.1255H15.0139L15.1392 15.1394L15.1746 15.1032L15.1991 15.0531L15.2746 14.7439L15.3146 14.658L15.3798 14.6121L15.3294 14.885L15.1744 15.3567L15.159 15.6023L15.1789 15.7243L15.2196 15.8654L15.3095 16.1151L15.4316 16.3203L15.4414 16.3649L15.4316 16.4336L15.4665 16.4926L15.5717 16.6104L15.8123 16.2789L15.9175 16.1879L15.8872 16.1656L15.8174 16.0834L16.0088 16.0699L16.0586 16.0244L16.0237 15.9065L16.1089 15.9608L16.1592 16.0424L16.154 16.1284L16.0636 16.1873L16.2289 16.2095L16.3444 16.1506L16.525 15.9515L16.5199 15.965V15.9923L16.5907 15.9738L16.6409 15.9287L16.7262 15.8192L16.6461 15.6563L16.666 15.5379L16.7061 15.4246L16.6712 15.2752L16.8164 15.3156L16.8564 15.3378L16.8913 15.374L16.9565 15.4743L16.9965 15.4971L17.052 15.479L17.0417 15.4112L16.9668 15.2702L17.012 15.2608L17.1028 15.2014L17.1679 15.1383L17.1581 15.1202L17.1478 15.0929L17.1781 15.0386L17.2284 15.0112L17.3135 15.0795L17.3735 14.9616L17.3787 14.8566L17.4084 14.7847L17.549 14.7661L17.4787 14.6932L17.4484 14.6249L17.4084 14.4346L17.4536 14.4119L17.5691 14.4346L17.7604 14.5029L17.7901 14.4936V14.4165L17.8152 14.3664L17.8656 14.3617L17.9199 14.4165L17.8998 14.43L17.8597 14.4755L17.91 14.5298L17.8849 14.5934L17.8397 14.6575L17.8247 14.7201L17.8545 14.7981L17.9098 14.884L18.0351 15.3287L18.0402 15.5015L17.955 15.6422L18.11 15.5921L18.362 15.4064L18.5021 15.3377L18.6674 15.2931L18.7987 15.2285L18.9039 15.1426L18.9742 15.0112L19.0543 14.7429L19.095 14.6798H19.1601L19.2607 14.7713L19.3105 14.7345L19.3669 14.662L19.4321 14.63L19.5974 14.6026L19.6774 14.571L19.7929 14.4806L19.8627 14.4532L19.8581 14.6119L19.8679 14.676L19.9027 14.6301L19.9443 14.4987L19.974 14.4445L20.0192 14.4124L20.0792 14.3855L20.2149 14.2764L20.4555 14.2165L21.2041 13.8948L21.4121 13.89Z" fill="#550000"/>
</svg>
