<svg width="26" height="26" viewBox="0 0 26 26" fill="none" xmlns="http://www.w3.org/2000/svg">
<circle cx="13" cy="13" r="13" fill="#F8F3ED"/>
<path d="M17.1372 9.17753L17.1506 9.18111H17.1582L17.1619 9.15177L17.1809 9.15739L17.2036 9.17564L17.2168 9.19031L17.232 9.2014L17.2817 9.22339L17.2951 9.24746L17.2969 9.25293L17.3083 9.24935L17.3254 9.23443L17.333 9.23065L17.4014 9.22145L17.4203 9.22523L17.443 9.23801L17.4663 9.24363L17.4795 9.23443L17.5173 9.1921L17.5571 9.18852L17.6387 9.22145L17.6849 9.22876L17.7399 9.22707L17.7893 9.21239L17.8196 9.18663L17.8442 9.10746L17.8648 9.04863V9.02098L17.825 8.999L17.7795 8.99711L17.7358 8.98243L17.7074 8.92191L17.6884 8.87755L17.6502 8.84821L17.5629 8.81867L17.4467 8.82956L17.3953 8.84627L17.4011 8.88312L17.4258 8.89421L17.4522 8.8961L17.4753 8.9051L17.4773 8.92539L17.4812 8.94568L17.4736 8.96936L17.4542 8.98427L17.4143 9.00626L17.3726 9.0356L17.352 9.045L17.3235 9.05231L17.3122 9.0634L17.2913 9.11313L17.2724 9.12611L17.2339 9.10935L17.1904 9.0817L17.1506 9.07439L17.124 9.1278V9.16261L17.1372 9.17753ZM16.5064 8.42519L16.459 8.43066L16.4476 8.45264L16.4495 8.48591L16.4458 8.53012L16.4876 8.56866L16.5274 8.61999L16.5709 8.64575L16.6187 8.61268L16.6206 8.56135L16.5861 8.50063L16.5406 8.44911L16.5064 8.42519ZM19.9188 18.011L19.9075 18.0276L19.898 18.1677L19.9037 18.2412L19.9303 18.2615L19.9493 18.2208L19.9454 18.1492L19.9188 18.011ZM16.2918 8.12337L16.3123 8.14555L16.3218 8.17678L16.356 8.26495L16.3712 8.2926L16.4058 8.31478L16.4436 8.32945L16.4683 8.35333L16.4644 8.3864V8.3956H16.5081L16.5308 8.39918L16.5726 8.41947L16.5782 8.40291L16.5763 8.38262V8.37904L16.5687 8.36626L16.5498 8.35517L16.4531 8.23914L16.4397 8.21925L16.4341 8.19349L16.4265 8.14574L16.4322 8.11809L16.4663 8.02425L16.4873 7.98551L16.491 7.97631L16.493 7.969L16.5025 7.96353L16.4665 7.95075L16.3922 7.95244L16.358 7.93254L16.3467 7.94174L16.2766 8.02092L16.2537 8.05384L16.2366 8.10357L16.2576 8.11824L16.2918 8.12337ZM13.1775 9.73503L13.2991 9.75701L13.4148 9.80475L13.3997 9.74965L13.4092 9.713L13.4418 9.68893L13.6333 9.63919L13.8712 9.61343L13.8996 9.59518L13.9205 9.55475L13.9469 9.47369L14.0476 9.31952L14.0821 9.29356L14.2299 9.28809L14.2835 9.25143L14.3006 9.24577L14.3212 9.25497L14.3458 9.27342L14.3685 9.28431L14.3876 9.27526L14.4218 9.24388L14.4616 9.25308L14.5377 9.29913L14.5775 9.30664L14.7013 9.29346L14.745 9.29908L14.8493 9.3414L15.0336 9.36716L15.0677 9.38705L15.1438 9.4517L15.1685 9.4628L15.1875 9.47558L15.2369 9.53819L15.2574 9.55097H15.2934L15.3392 9.56017L15.379 9.58215L15.4 9.62258L15.4418 9.66133L15.5291 9.69256L15.6147 9.69445L15.6604 9.64472L15.6262 9.63193L15.6052 9.58961L15.6035 9.53829L15.6281 9.50164L15.6052 9.48846L15.592 9.46648L15.5901 9.43882L15.6015 9.40575L15.6242 9.38377L15.6432 9.37815L15.6545 9.36726L15.6564 9.24015L15.6906 9.20533H15.7442L15.8073 9.23109L15.8413 9.20533L15.8794 9.21284L15.9134 9.24407L15.9305 9.2864L15.9363 9.31778L15.9439 9.32887L15.961 9.32325L15.9685 9.31778L15.9936 9.29182L16.0068 9.28451L16.0656 9.32514L16.0693 9.27362L16.0769 9.25516L16.1811 9.25327L16.2328 9.27715L16.2631 9.28277V9.27715L16.2746 9.26436L16.2878 9.25158L16.3012 9.24407L16.3276 9.24596L16.3674 9.26233L16.3884 9.26441L16.5062 9.24412L16.8864 9.26238L16.9018 9.268L16.9227 9.26989L16.9379 9.25899L16.953 9.24407L16.9736 9.23487L17.0707 9.20722L17.0992 9.21642L17.0973 9.18897L17.0992 9.1651L17.1105 9.11537L17.0765 9.11144L17.0499 9.09697L17.0248 9.07852L16.9982 9.06554L16.9603 9.06196H16.93L16.9015 9.05803L16.8674 9.03416L16.7892 8.96453L16.776 8.94628L16.7721 8.91147L16.7818 8.88327L16.7972 8.85751L16.8106 8.82613L16.784 8.82971L16.7613 8.82424L16.7176 8.80768H16.7044L16.6798 8.81499H16.6663L16.657 8.80579L16.6341 8.76913L16.5997 8.76366H16.5428L16.4935 8.77286L16.4744 8.79843L16.4554 8.81688L16.4081 8.78206L16.3661 8.73616L16.3642 8.70871L16.4044 8.69026L16.4554 8.63143L16.4991 8.62203L16.4725 8.58348L16.4176 8.52649L16.4001 8.48059L16.3774 8.39013L16.362 8.348L16.3468 8.32955L16.2709 8.2192L16.2406 8.15848L16.1567 8.08308L16.1227 8.0609L16.0771 8.05001L16.0336 8.0519L15.9938 8.06488L15.9649 8.09233L15.9099 8.19349L15.8625 8.24123L15.7961 8.29096L15.7237 8.31692L15.6592 8.29096L15.6687 8.24123L15.6155 8.18424L15.5394 8.153L15.4824 8.17499L15.4407 8.22293L15.3818 8.25774L15.3169 8.2835L15.2581 8.29842L15.2278 8.29653L15.1443 8.26172L15.0738 8.25625L15.0606 8.25063L15.0303 8.22129L15.0113 8.21378L14.9866 8.2194L14.9316 8.25421L14.9027 8.26152L14.8668 8.25605L14.8402 8.23745L14.8196 8.2098L14.8025 8.17688L14.8443 8.11615L14.8575 8.07214L14.8215 7.99655L14.8159 7.71527L14.8198 7.6801L14.8425 7.64703L14.8708 7.62296L14.8955 7.5974L14.905 7.55508L14.8632 7.56617L14.7913 7.5974L14.7535 7.60849L14.5975 7.61038L14.4588 7.63972L14.2976 7.70964L13.9859 7.90653L13.9043 7.9304L13.2791 7.94886L13.2242 7.96711L13.2088 7.95244L13.1631 7.98725L12.8709 8.0792L12.8195 8.07751L12.7659 8.05533L12.5361 8.24864L12.3403 8.35885L12.2739 8.4235L12.2095 8.44006L12.1831 8.45473L12.1087 8.52843L12.0877 8.55588L12.0158 8.68678L11.9648 8.74357L11.9055 8.76575L11.9075 8.75466L11.9092 8.7289L11.9112 8.71801L11.8598 8.72348L11.82 8.7197L11.784 8.70314L11.7462 8.66271L11.7021 8.63695L11.6662 8.6554L11.6188 8.7197L11.5848 8.74357L11.5372 8.76013H11.4914L11.4687 8.72706L11.4573 8.70881L11.4367 8.70692L11.414 8.7107L11.3949 8.70319L11.3305 8.637L11.319 8.61482L11.3153 8.60015L11.3077 8.58905L11.2846 8.57438L11.26 8.56707L11.2333 8.56518L11.2106 8.57438L11.1916 8.59428L11.1764 8.60726L11.1537 8.61084L11.1044 8.61273L11.0968 8.62382L11.0698 8.66803L11.0566 8.68479L11.0129 8.6921L10.9256 8.68663L10.8492 8.73064L10.6232 8.72144L10.5739 8.70488L10.5416 8.65883L10.5189 8.54111L10.5094 8.52455L10.4906 8.51719L10.3896 8.48785L10.3691 8.46756L10.3671 8.43275L10.3329 8.41415L10.2912 8.38481L10.2572 8.34626L10.2401 8.30772L10.2187 8.28743L10.1259 8.21373L10.0973 8.18439L10.0558 8.08492L10.0234 8.0428L9.98704 8.05747L9.96798 8.06876L9.95283 8.04827L9.93012 7.99854L9.91692 7.99685L9.87321 8.0153L9.85266 8.01361L9.83165 8.00043L9.80854 7.9583L9.79143 7.93985L9.77433 7.93607L9.75378 7.93985H9.73667L9.72717 7.92145L9.70056 7.9032L9.50111 7.87724L9.20493 7.8846L9.10589 7.9032L8.96546 7.95642L8.93864 7.98949L8.92719 8.03922L8.89298 8.09452L8.84752 8.13873L8.80576 8.15698V8.14231L8.83606 8.09079L8.86072 8.02271L8.89103 7.96199L8.98811 7.9033L9.03567 7.84969L9.04888 7.80757L8.99586 7.80946L8.96926 7.82413L8.89097 7.88654L8.81906 7.96741L8.7641 7.99506L8.71633 8.05578L8.68972 8.0707L8.62911 8.08517L8.6101 8.10193L8.63866 8.12769L8.55319 8.26381L8.49781 8.33373L8.47121 8.32075L8.47701 8.30608L8.49216 8.29499L8.50927 8.28579L8.52247 8.2749L8.52442 8.26192L8.51687 8.24725L8.47316 8.1826L8.46365 8.15872L8.46951 8.13485L8.47886 8.11287L8.48076 8.0888L8.47706 8.06697L8.46365 8.04648L8.48271 8.00227L8.49787 7.94716L8.50547 7.88848V7.83676L8.49006 7.79071L8.45975 7.74839L8.42169 7.71546L8.38943 7.69328L8.37623 7.69517L8.36673 7.70626L8.35353 7.71173L8.34032 7.69706L8.33837 7.68597L8.34597 7.66041L8.35353 7.59576V7.56642L8.34207 7.54255L8.2982 7.51489L8.20148 7.51301L8.15407 7.50395L8.11036 7.47257L8.10239 7.43214L8.11036 7.3842V7.32179L8.08724 7.27006L8.04548 7.27195L8.00177 7.2998L7.72269 7.56458L7.67297 7.59203L7.66151 7.60143L7.63316 7.67304L7.62756 7.68602L7.61806 7.7082L7.56484 7.81105L7.53649 7.84412L7.51938 7.85143L7.46211 7.86635L7.39199 7.90116L7.37293 7.90663L7.28186 7.89574L7.24359 7.90305L7.20574 7.93787L7.0861 8.08323L6.94921 8.19906L6.79151 8.2836L6.07721 8.42912L6.0053 8.47124L5.6971 8.78037L5.62518 8.82628L5.30959 8.94961L5.21851 9.01203L5.19576 9.01934L5.13515 9.02854L5.08737 9.04525L5.04366 9.06912L5.0058 9.09677L5 9.10955L5.01341 9.15376L5.02276 9.17763L5.03226 9.18683L5.04567 9.1923L5.06621 9.19419L5.08136 9.1923L5.09282 9.18683L5.12508 9.16485L5.13674 9.16296L5.15015 9.16843L5.17285 9.2015L5.1843 9.2107L5.21831 9.21429L5.23731 9.21806L5.25637 9.23274L5.27152 9.24194L5.29423 9.24756H5.31133L5.33019 9.25134L5.3496 9.26034L5.37621 9.28421L5.40086 9.31017L5.42357 9.34871L5.45953 9.41301L5.51839 9.51059L5.55435 9.573L5.57356 9.61905L5.58116 9.63183L5.59067 9.64103L5.64388 9.65023L5.66443 9.65382L5.71939 9.66133L5.80718 9.676L5.91905 9.69256L6.05209 9.71474L6.20049 9.73692L6.35973 9.76248L6.52328 9.78824L6.68873 9.81211L6.84838 9.83598L6.99637 9.85985L7.1294 9.88015L7.24323 9.89671L7.32891 9.90969L7.38408 9.91889L7.40463 9.92078L7.47141 9.93187L7.51317 9.94654L7.62699 9.99244L7.74098 10.0383L7.85671 10.0844L7.97285 10.1304L8.01831 10.1489H8.04296L8.05637 10.147L8.08277 10.1397L8.09618 10.1378L8.10979 10.1416L8.12494 10.1527L8.14395 10.1544L8.15936 10.1527L8.19532 10.1341L8.20872 10.1322H8.22757L8.24663 10.1361L8.27694 10.147L8.3187 10.1543L8.38547 10.1782L8.40602 10.1801L8.42117 10.1763L8.45924 10.1451L8.47049 10.1396H8.48389L8.49905 10.1415H8.51225L8.52565 10.1377L8.54682 10.123L8.56002 10.1195L8.57342 10.1155H8.58858L8.60743 10.1212L8.62839 10.1287L8.66065 10.147L8.67965 10.1507L8.6948 10.1488L8.70605 10.1434L8.71946 10.1415L8.73461 10.1451L8.80139 10.1708H8.83555L8.87151 10.1562L8.88861 10.158L8.90572 10.1635L8.95677 10.1948L8.96864 10.1966L8.99895 10.1985L9.06341 10.1929H9.07857L9.09397 10.1967L9.12813 10.2114L9.16229 10.2187H9.1777L9.19286 10.2168L9.21946 10.2095L9.23487 10.2076L9.25028 10.2114L9.2996 10.2426L9.3128 10.2464L9.34331 10.2537L9.36021 10.2627L9.37731 10.2777L9.43654 10.3677L9.44409 10.3843L9.44604 10.4063L9.44039 10.4209L9.43459 10.432L9.39863 10.4854L9.39473 10.4982L9.39103 10.5112V10.5278L9.39858 10.5443L9.41913 10.5646L9.43454 10.5757L9.4631 10.5866L9.4934 10.5939L9.52371 10.5977H9.53912L9.56963 10.5921L9.60595 10.5757H9.61545L9.62495 10.5774L9.63055 10.5812L9.65521 10.605L9.66471 10.6123L9.67596 10.6197L9.68741 10.6232L9.71967 10.6289L9.80124 10.627L9.81665 10.6289L9.82811 10.6343L9.83936 10.6398L9.84696 10.649L9.87357 10.6748L9.88307 10.6842L9.93048 10.708L9.95103 10.7208L9.97568 10.7449L10.0042 10.7688L10.0174 10.7796L10.0213 10.7872V10.7945L10.0174 10.8092L10.0118 10.8165L9.99279 10.8348L9.99104 10.8477L9.99279 10.866L10.0099 10.8901L10.0464 10.9343L10.054 10.9472L10.0596 10.9638L10.0635 10.9969L10.0615 11.0151L10.0559 11.03L10.0464 11.039L10.0369 11.0447L10.0235 11.0501L10.0155 11.0612L10.0174 11.0832L10.0406 11.1293L10.0635 11.2011L10.0652 11.2176V11.2249L10.0635 11.2377L10.0559 11.2637L10.0445 11.2874L10.0369 11.2983L10.0293 11.3079L9.97394 11.3556L9.96639 11.3667L9.96248 11.3814L9.96444 11.3996L9.97204 11.4291V11.449L9.97008 11.4657L9.95493 11.5173L9.95298 11.5317L9.96053 11.5467L9.97394 11.5616L10.0042 11.5744L10.0213 11.5763L10.0368 11.5725L10.0573 11.5578L10.0688 11.554L10.0839 11.5521L10.1276 11.5596H10.1428L10.156 11.5578L10.1692 11.5521L10.2985 11.4711L10.31 11.4677H10.3214L10.3346 11.473L10.3478 11.4857L10.3649 11.5062L10.3801 11.5245L10.384 11.5375V11.5502L10.3764 11.5652L10.3517 11.5964L10.3403 11.6184L10.3043 11.7197L10.2797 11.8209L10.2758 11.8502V11.9277L10.2797 11.9441L10.2948 11.964L10.3271 11.9953L10.3744 12.0302L10.3971 12.0521L10.4086 12.0668L10.4143 12.0781L10.4488 12.098L10.5531 12.1242L10.555 12.1164L10.5265 12.0136V11.9619L10.6024 11.9121L10.9371 11.3163L10.9446 11.2884L10.9483 11.2297L10.9559 11.2059L10.9881 11.1654L11.0015 11.1432L11.0204 11.0255L11.0358 10.987L11.0894 10.8894L11.1292 10.8434L11.1842 10.6946L11.2145 10.6648L11.2924 10.6317L11.3211 10.6042L11.3382 10.5251L11.3439 10.5196L11.3421 10.4128L11.3573 10.3154L11.3761 10.2656L11.4047 10.2417L11.416 10.2124L11.437 10.0874L11.4541 10.0522L11.4844 10.0486L11.4995 10.0727L11.5015 10.1056L11.4995 10.1297L11.4883 10.1645L11.4578 10.2232L11.4503 10.2508L11.4559 10.2932L11.473 10.3264L11.4901 10.3522L11.5055 10.378L11.5135 10.4165L11.5113 10.5325L11.525 10.5692L11.5455 10.5949L11.5646 10.6004L11.5685 10.5765L11.5817 10.5583L11.65 10.5288L11.6955 10.5158L11.7263 10.5011L11.751 10.4808L11.7585 10.455L11.768 10.4182L11.8078 10.343L11.8041 10.3082L11.8247 10.2916L11.8398 10.2732L11.8513 10.2491L11.8569 10.2198L11.8342 10.172L11.8548 10.1463L11.8946 10.1333L11.9287 10.1297L12.0012 10.1666L12.0486 10.1793L12.0866 10.1536L12.1072 10.1188L12.1319 10.0909L12.1606 10.0689L12.1948 10.0486L12.2307 10.0357L12.2554 10.0375L12.2742 10.0541L12.3008 10.0855L12.2591 10.2491L12.2666 10.2731L12.2742 10.2769L12.2781 10.2878L12.2761 10.2989L12.2705 10.3044H12.2571L12.2307 10.2952H12.2173L12.1738 10.3006L12.1547 10.3044V10.3117L12.1567 10.323L12.151 10.345L12.1467 10.3743L12.1448 10.3854L12.1392 10.3909L12.1297 10.3928L12.1184 10.3964L12.1107 10.4056L12.0994 10.4774L12.0899 10.4994L12.0355 10.5592L12.0316 10.5867L12.0602 10.6271L12.0829 10.651L12.1435 10.6843L12.178 10.7081L12.1986 10.719L12.2196 10.7228L12.2367 10.7098L12.2328 10.6843L12.2233 10.6602L12.2157 10.6491L12.212 10.6382L12.2005 10.6179L12.1968 10.6032L12.2005 10.5848L12.212 10.5793H12.2252L12.2327 10.5739L12.2593 10.4855L12.2821 10.4486L12.339 10.4229L12.3466 10.4044L12.3485 10.3805L12.3446 10.3531L12.3522 10.3365L12.3736 10.3292L12.4171 10.3217L12.4893 10.2794L12.4987 10.2664L12.5101 10.2388L12.5216 10.2241L12.548 10.2132L12.6167 10.1985L12.6431 10.1782L12.6546 10.1617L12.6394 10.147L12.6717 10.0071L12.7191 9.89676L12.7958 9.81947L13.1051 9.73692L13.1775 9.73503ZM11.8095 8.57225L11.8188 8.58881L11.8322 8.60348L11.8474 8.62546L11.8586 8.6553V8.67186L11.8625 8.68106L11.8816 8.68837L11.8928 8.68668L11.8948 8.66072L11.9024 8.65341L11.9139 8.65699L11.9234 8.66619L11.9309 8.67728V8.6829L11.9711 8.68101L11.9939 8.66992L12.0034 8.64058L11.9919 8.61462L11.9673 8.61273L11.9407 8.62004L11.9215 8.61646L11.9195 8.59806L11.9271 8.57419L11.9522 8.53186L11.9252 8.48596L11.912 8.46925L11.891 8.45836L11.8475 8.45105L11.8133 8.46572L11.7979 8.49879L11.7999 8.54852L11.8095 8.57225ZM8.14061 7.26071L8.12916 7.30115L8.12741 7.35814L8.13671 7.46496L8.16331 7.49261L8.32877 7.48714L8.34762 7.49993L8.38357 7.53658L8.39678 7.54389L8.47639 7.52022L8.49735 7.49446L8.49345 7.45024L8.46879 7.42617L8.42528 7.46133L8.43849 7.42055L8.46509 7.37465L8.49925 7.33611L8.52391 7.31955L8.5181 7.35809L8.52005 7.44263L8.51615 7.48327L8.50295 7.52917L8.48754 7.55135L8.43823 7.58989L8.41357 7.61923L8.40407 7.64519L8.41357 7.67075L8.53125 7.80896L8.55632 7.79225L8.57687 7.76102L8.60717 7.69482L8.65089 7.56055L8.66409 7.53668L8.72855 7.49813L8.74196 7.46859L8.74602 7.43194L8.76872 7.41349L8.79903 7.40618L8.83498 7.4026L8.83303 7.38584L8.80838 7.35819L8.81033 7.31229L8.82933 7.26623L8.85204 7.23689L8.87479 7.22769L8.89945 7.2258L8.92215 7.22033L8.94311 7.20188L9.00799 7.11351L9.02509 7.09884L9.0686 7.07894L9.08571 7.06596L9.11036 7.00693L9.12182 6.99604L9.15967 6.98515L9.19599 6.95919L9.29872 6.86346L9.26646 6.8362L9.20005 6.81944L9.14468 6.81213L9.16353 6.78279L9.20005 6.7715L9.27967 6.76792L9.37444 6.72918L9.41291 6.72018L9.45272 6.72187L9.52849 6.73679H9.5683L9.60482 6.72381L9.66543 6.68169L9.70719 6.67438L9.70524 6.65762L9.67884 6.63936L9.63708 6.59142L9.60677 6.56924L9.53609 6.54159L9.49823 6.53612L9.07836 6.58033L8.92822 6.62076L8.80293 6.68169L8.77828 6.70158L8.75362 6.73281L8.73615 6.74559L8.71561 6.74201L8.6929 6.7347L8.67195 6.73281L8.6607 6.74201L8.61698 6.78806L8.47619 6.86913L8.42123 6.91314L8.27108 7.14121L8.24252 7.17428L8.1685 7.2258L8.14061 7.26071ZM6.9225 5.79273L6.98332 5.7615L6.98527 5.77786L6.91885 5.8168L6.9037 5.83316L6.88464 5.89199L6.88855 5.91228L6.8942 5.91397L6.90175 5.91039L6.91125 5.91586L6.94911 5.95271L6.99087 5.96022L7.03068 5.95083L7.32547 5.79079L7.42024 5.76692L7.41829 5.75225L7.25906 5.76692L7.27811 5.73738L7.34258 5.69336L7.34823 5.6768L7.79841 5.45604L7.88573 5.39552L7.95251 5.32898L7.95815 5.31809L7.95446 5.29964L7.9393 5.25731L7.93735 5.24642L7.97331 5.19321L8.09659 5.11011L8.14066 5.0642L8.16121 5.03655L8.16876 5.02357L8.17266 5.01079L8.15556 5.03655L8.1309 5.05147L8.08118 5.06972L8.08698 5.04983L8.09823 5.03138L8.13475 5L8.00716 5.08106L7.97316 5.11413L7.9409 5.10493L7.88537 5.13448L7.86261 5.12508L7.73754 5.23563L7.73363 5.20236L7.68257 5.2595L7.60234 5.32191L7.52467 5.36782L7.47726 5.37344L7.44644 5.40671L7.40468 5.43625L7.36097 5.4545L7.32501 5.45261L7.26614 5.49866L7.02472 5.64587L6.87108 5.77259L6.89163 5.79666L6.9225 5.79273ZM13.3639 11.9332L13.3485 11.926L13.3316 11.9147L13.2991 11.9296L13.2764 11.9645L13.2689 12.0051L13.2823 12.0382L13.3258 12.0547L13.3561 12.0252L13.377 11.9758L13.3998 11.937H13.3808L13.3639 11.9332ZM13.5272 11.8559L13.5765 11.8174L13.5482 11.7975L13.5501 11.7679L13.5614 11.7365V11.7052L13.5443 11.6777L13.5196 11.663L13.4893 11.6501L13.4627 11.6337L13.4344 11.6392L13.4149 11.6574L13.3944 11.7071L13.4744 11.8232L13.5272 11.8559ZM16.2103 9.27511L16.1567 9.26402L16.1362 9.29147L16.1247 9.30087L16.1267 9.31743H16.1418L16.1494 9.32121L16.157 9.32479L16.1685 9.32857L16.1457 9.34846L16.1893 9.36313L16.2258 9.36875L16.3017 9.36124L16.2863 9.33568L16.2674 9.31912L16.2447 9.3135L16.2181 9.32101L16.2257 9.28774L16.2103 9.27511ZM13.6529 10.9048L13.6434 10.9014L13.6354 10.9031L13.6259 10.9159L13.723 11.0317L13.7401 11.0447L13.7458 11.0005L13.7269 10.9639L13.6947 10.9325L13.6529 10.9048ZM20.9829 15.9895L21 15.9086L20.9829 15.8277L20.9658 15.8148L20.9468 15.7799L20.8786 15.6825L20.8555 15.6641L20.8384 15.6419L20.6733 15.2408L20.5667 14.8305L20.4758 14.6541L20.2573 13.9935L20.1658 13.8666L20.1507 13.8337L20.1372 13.7857L20.1145 13.7489L19.9927 13.6203L19.9226 13.5706L19.8467 13.5335L19.6189 13.46L19.5726 13.4619L19.5348 13.473L19.4456 13.5153L19.4209 13.5336L19.3656 13.6148L19.3353 13.6403L19.2745 13.6569L19.2518 13.668L19.2139 13.7065L19.191 13.7176L19.056 13.7413L19.0389 13.7505L19.0257 13.7618L19.0103 13.78L18.9665 13.8611L18.9609 13.8795L18.9358 13.9015L18.7727 13.9474L18.8105 13.9547L18.8486 13.9493L18.8826 13.9512L18.9092 13.979L18.857 14.0544L18.8285 14.1038L18.819 14.1497L18.8153 14.205L18.7434 14.3359L18.7183 14.4461L18.6936 14.4939L18.6558 14.4922L18.6443 14.4737L18.6311 14.448L18.616 14.4333L18.5969 14.4499L18.4979 14.6488L18.441 14.724L18.3745 14.7717L18.2965 14.7698L18.2112 14.7332L18.1106 14.7204L18.0664 14.6982L17.9697 14.6762L17.9223 14.6564L17.8765 14.6157L17.8328 14.5567L17.81 14.4907L17.8291 14.426L17.831 14.4022L17.8139 14.323V14.2863L17.831 14.257L17.8479 14.2331V14.211L17.8101 14.1873L17.8499 13.9919L17.8877 13.9092L17.9604 13.8652L17.9831 13.8633L18.0266 13.8706L18.0512 13.8687L18.0683 13.8595L18.0987 13.8339L18.1181 13.8247H18.1371L18.175 13.832L18.1977 13.8302L18.2053 13.8152L18.2112 13.7524L18.2148 13.7288L18.2471 13.7028L18.3386 13.6862L18.3708 13.6625V13.6386L18.3632 13.6091L18.3613 13.5833L18.3803 13.5706L18.3916 13.5576L18.3936 13.528L18.3764 13.3589L18.3803 13.2521L18.4068 13.1619L18.4732 13.1051L18.4902 13.0994L18.5495 13.0938L18.5456 13.1087L18.538 13.1475L18.5343 13.162L18.5571 13.1362L18.6252 13.0223L18.6386 12.989L18.6481 12.9799L18.7011 12.9707L18.7182 12.9615L18.7409 12.919L18.747 12.8972L18.7509 12.8639L18.7489 12.7665L18.6803 12.2496V12.1999L18.703 12.1077L18.7011 12.0545L18.6879 12.0048L18.6556 11.9108L18.631 11.7987L18.612 11.7527L18.5914 11.7122L18.5648 11.6754L18.5572 11.6626L18.5516 11.6387L18.5438 11.6276L18.5284 11.6203L18.4962 11.6094L18.4564 11.5781L18.3995 11.5541L18.3731 11.5356L18.3501 11.5157L18.335 11.5005L18.3274 11.4785L18.3198 11.4364L18.3099 11.4217L18.2948 11.4125L18.2796 11.4069L18.272 11.4014L18.2701 11.3794L18.2777 11.3683L18.2872 11.3591L18.2891 11.3407L18.2852 11.28L18.2947 11.2339L18.3273 11.2027L18.3899 11.1863L18.409 11.1936L18.4563 11.2357L18.4849 11.2523L18.5152 11.2598H18.5478L18.6142 11.2523L18.5896 11.2119L18.5152 11.1899L18.4924 11.1365H18.4975L18.5089 11.1346L18.5221 11.1273L18.526 11.1145L18.5221 11.0979L18.5165 11.0885L18.5106 11.0812L18.5069 11.0757L18.5013 11.0535L18.4784 10.993L18.4652 10.9747L18.4461 10.9691L18.4197 10.9672L18.397 10.9618L18.3836 10.9452L18.3211 10.8788L18.277 10.8183L18.2694 10.7961L18.2677 10.7687L18.277 10.7502L18.3075 10.7134L18.2239 10.6472L18.1366 10.5937L18.0451 10.5589L17.9599 10.5516L17.8971 10.5644H17.8708L17.7929 10.5441H17.7646L17.7324 10.5368L17.6751 10.4815L17.637 10.4631H17.6165L17.5481 10.4758L17.5236 10.4739L17.4684 10.4593L17.3999 10.4519L17.3601 10.4264L17.2861 10.3656L17.1966 10.3363L16.9136 10.3675L16.8738 10.3564L16.8396 10.3252L16.8164 10.2829L16.8032 10.2422L16.7878 10.2074L16.7595 10.1726L16.6945 10.1156L16.6281 10.0752L16.5385 10.0421L16.4438 10.0237L16.3598 10.0291L16.187 10.0679L16.1091 10.0512L15.9514 9.95584L15.6931 9.87293L15.6286 9.83061L15.5964 9.8233L15.5622 9.83966L15.5448 9.86373L15.5353 9.89139L15.5181 9.91735L15.484 9.93371L15.2371 9.95589L15.1652 9.94291L15.1672 9.95947L15.1955 9.97603L15.2674 10.0311L15.275 10.0422L15.2544 10.0605L15.1956 10.171L15.0965 10.2611L15.0511 10.3145L15.0227 10.3918V10.4819L15.0454 10.5666L15.0852 10.64L15.1292 10.6917L15.1956 10.7415L15.2278 10.7561L15.4009 10.758L15.4368 10.7691L15.4009 10.837L15.3133 10.8812L15.2106 10.9033L15.0453 10.9142L14.9656 10.94L14.6899 11.124L14.6347 11.1847L14.6007 11.2581L14.5987 11.35L14.6784 11.6442L14.6823 11.865L14.65 12.0619L14.5892 12.2441L14.4945 12.4592L14.4807 12.4776L14.4579 12.487L14.4374 12.4795L14.4279 12.4629L14.4298 12.4391L14.4504 12.3932L14.4523 12.3672L14.4467 12.3138L14.4523 12.2972L14.4906 12.2495L14.5077 12.2017L14.5153 12.1502L14.5172 12.0949L14.5134 12.0398V12.0122L14.5288 11.9809V11.955L14.5173 11.9258L14.4946 11.9109L14.4676 11.909L14.447 11.9239L14.4395 11.9476L14.4356 11.9847L14.4375 12.0488L14.4336 12.0786L14.4204 12.1023L14.3863 12.1483H14.4014L14.4395 12.1592L14.4261 12.1833L14.3901 12.2181L14.3843 12.238V12.3097L14.3806 12.3465L14.3596 12.3836L14.3579 12.4221L14.3503 12.446L14.3143 12.4294L14.2953 12.4091L14.2533 12.3448L14.2362 12.2969L14.2533 12.2215L14.303 12.0595L14.3067 12.0247L14.3011 11.9918L14.284 11.9679L14.2686 11.964L14.2212 11.9862L14.2305 11.942L14.2495 11.8848L14.2765 11.8316L14.3088 11.8078L14.32 11.7858L14.3012 11.7433L14.2571 11.666L14.2476 11.5964L14.2723 11.5671L14.3031 11.5558L14.3163 11.5338L14.3258 11.495L14.3429 11.4491V11.4161L14.2992 11.4142L14.2551 11.4678L14.2287 11.475H14.204L14.1831 11.4823L14.1625 11.5042L14.0906 11.6865L14.0679 11.7235L13.9954 11.8044L13.98 11.8264L13.9763 11.8685L13.9044 12.071L13.8854 12.1003L13.857 12.115L13.8244 12.1095L13.7617 12.0691L13.7333 12.0636L13.7201 12.0617L13.6955 12.0544H13.68L13.661 12.0617L13.6571 12.0745L13.659 12.0892L13.6553 12.1057L13.6017 12.2109L13.5812 12.2329L13.5658 12.2348L13.5523 12.2291L13.5391 12.2237L13.5296 12.2218L13.4708 12.2291L13.4405 12.2456L13.4368 12.2787L13.4556 12.3541L13.4576 12.5694L13.4747 12.6081L13.4632 12.6394L13.4444 12.6559L13.4211 12.6651L13.3907 12.6706H13.3719L13.3396 12.6595H13.3262L13.313 12.6687L13.2864 12.6947L13.22 12.7238L13.1722 12.7718L13.1517 12.8344L13.182 12.9025L13.2203 12.9561L13.2432 13.0129L13.2507 13.0717L13.2373 13.2355L13.2278 13.263L13.2222 13.2925L13.2317 13.3698L13.2278 13.4029L13.2637 13.4783L13.2523 13.5832L13.2183 13.6827L13.1515 13.8353L13.0926 14.0305L13.0452 14.1244L12.9178 14.2586L12.8705 14.3361L12.8761 14.4281L12.9008 14.4647L12.9653 14.5309L12.9936 14.5789L13.0167 14.5992L13.0322 14.621L13.0227 14.6781L13.0283 14.7056L13.0454 14.7426L13.1042 14.9448L13.106 15.0332L13.0681 15.1213L12.9805 15.2577L12.9559 15.3385L12.9615 15.4341L12.9825 15.4838L13.0359 15.5649L13.0606 15.6365L13.4294 16.2787L13.4692 16.3099L13.4897 16.2803L13.615 16.225L13.6092 16.2599L13.5846 16.295L13.5505 16.3244L13.52 16.339L13.4936 16.3575L13.5049 16.3943L13.6339 16.6317L13.6628 16.7255L13.6911 16.7806L13.7253 16.8321L13.752 16.8596L13.7537 16.8707L13.752 16.8761L13.75 16.878H13.7537L13.7481 16.8801L13.7424 16.882L13.7405 16.8856L13.7424 16.8948L13.7747 16.9535L13.8583 17.5661L13.8296 18.1512L13.7973 18.3389L13.693 18.6976L13.5143 19.0267L13.3584 19.5086L13.2751 19.6762L13.1665 19.8159L13.0583 19.8913L13.0431 19.9208L13.026 19.9485L12.9499 20L13.0072 19.9944L13.1569 19.9761L13.3073 19.9596L13.4555 19.941L13.6072 19.9244L13.7555 19.9062L14.0556 19.871L14.2059 19.8525L14.356 19.8343L14.5062 19.8159L14.6561 19.7974L14.9566 19.7608L15.1043 19.7425L15.2547 19.722L15.4048 19.7036L15.5552 19.6854L15.7049 19.6668L15.8533 19.6469L16.0034 19.6266L16.1533 19.6084L16.3035 19.5881L16.4538 19.5698L16.6016 19.5495L16.752 19.5296L16.9021 19.511L16.9231 19.6507L17.0827 19.6233L17.242 19.5956L17.4018 19.5682L17.5615 19.5405L17.7211 19.5129L17.8803 19.4852L18.0402 19.4576L18.1998 19.4282L18.3595 19.4006L18.5187 19.3731L18.6784 19.3436L18.838 19.3161L18.9977 19.2866L19.1569 19.2587L19.3166 19.2294L19.4743 19.2001L19.4686 19.1817L19.4725 19.1486L19.4857 19.1264L19.5085 19.1191L19.5275 19.1304L19.5426 19.1285L19.5351 19.0638L19.5331 19.0141L19.5426 18.9699L19.6036 18.8392L19.6302 18.8044L19.6681 18.8063L19.6758 18.7367L19.6986 18.6832L19.7403 18.6575L19.7953 18.6703L19.8009 18.6389L19.799 18.6077L19.7858 18.5783L19.763 18.5563L19.8204 18.5417L19.8468 18.5159L19.8734 18.4035L19.8848 18.42L19.8961 18.4311L19.9207 18.4497L19.9095 18.433L19.9056 18.42L19.8961 18.3852L19.8885 18.3705L19.868 18.3484L19.8623 18.3393V18.3042L19.8699 18.2822L19.8736 18.2638L19.8624 18.2399L19.868 18.2269L19.8793 18.1865L19.9002 17.9199L19.9268 17.8298L19.995 17.7194L20.0258 17.6697L20.0563 17.6328L20.1699 17.5682L20.2307 17.5497L20.2461 17.5407L20.2707 17.5168L20.2993 17.4798L20.3238 17.4375L20.3316 17.4006L20.3296 17.3694L20.3409 17.3218V17.2922L20.3333 17.2667L20.3106 17.2353L20.3011 17.2114L20.2974 17.1651L20.3031 17.1083L20.3145 17.0606L20.3334 17.0384L20.413 16.9924L20.4359 16.9832L20.4551 16.9794L20.4666 16.9666L20.4703 16.9335L20.4207 16.9136L20.3807 16.8676L20.3714 16.8196L20.413 16.792L20.4571 16.7735L20.4893 16.7423L20.5196 16.7057L20.5613 16.6688L20.586 16.6799L20.6716 16.7021L20.7097 16.6965L20.7134 16.726L20.7039 16.7626L20.7002 16.7975L20.7134 16.8121L20.7343 16.8271L20.7456 16.8511L20.7302 16.8932L20.7758 16.9281L20.791 16.9335L20.7417 16.9683L20.7302 16.9866L20.7322 16.9958L20.7986 16.9773L20.8555 16.9425L20.8994 16.8874L20.9316 16.8118L20.9487 16.7438L20.9734 16.5615L20.9697 16.4587L20.9734 16.4126L20.9697 16.3871L20.9602 16.3685L20.9316 16.3245L20.9299 16.284L20.945 16.2101V16.1624L20.9526 16.0744L20.9829 15.9895ZM14.3159 10.009L14.3235 9.99791L14.3254 9.98702L14.3215 9.97046H14.3103L14.2969 9.97593L14.2837 9.97404L14.2528 9.95415L14.2148 9.93386L14.2072 9.93217H14.2016L14.194 9.93008L14.1884 9.92108L14.1864 9.97081L14.2148 10.0039L14.2565 10.0221L14.2968 10.024L14.3063 10.0186L14.3159 10.009ZM15.9994 9.72583L15.9496 9.72961L15.9098 9.76084L15.9382 9.78451L16.037 9.8431L16.1071 9.90024L16.1357 9.91322L16.1699 9.917L16.2101 9.91511L16.248 9.9076L16.2765 9.89462L16.2954 9.86906L16.32 9.79724L16.3352 9.76959L16.2746 9.76059L16.248 9.74567L16.2365 9.71444L16.2043 9.68868L16.1967 9.70146L16.1987 9.73289L16.1911 9.75487H16.1719L16.1243 9.73662L15.9994 9.72583ZM14.1333 10.1784L14.124 10.2096L14.1105 10.2375L14.0973 10.2611L14.0878 10.2869L14.0802 10.3918L14.0591 10.4432L14.0552 10.4819L14.101 10.5188L14.1599 10.5261L14.2263 10.5004L14.2797 10.4562L14.3026 10.4011L14.2987 10.3663L14.27 10.3037L14.2605 10.2668V10.2136L14.2585 10.1878L14.2453 10.164L14.2339 10.1455V10.1292L14.2434 10.1106L14.2605 10.094L14.23 10.0867H14.1638L14.1313 10.0768L14.1369 10.121V10.1524L14.1333 10.1784Z" fill="#550000"/>
</svg>
