<svg width="26" height="26" viewBox="0 0 26 26" fill="none" xmlns="http://www.w3.org/2000/svg">
<circle cx="13" cy="13" r="13" fill="#F8F3ED"/>
<path d="M19.9767 8.53891L19.8598 8.52225L19.8196 8.52409L19.7578 8.54258L19.7368 8.53891L19.6946 8.52404L19.6639 8.51853L19.6313 8.5222L19.5911 8.53336L19.4163 8.61393H19.3837L19.2702 8.57L19.2415 8.5517L19.2146 8.5277L19.105 8.39383L19.0801 8.37187L18.9918 8.34623L18.886 8.35174L18.3622 8.45794L18.3488 8.45631L18.3372 8.44902L18.3238 8.44718L18.3046 8.45269L18.2527 8.48016L18.2336 8.48382L18.1952 8.4745L18.1722 8.45467L18.1473 8.44183L18.1032 8.44733L17.9438 8.50594L17.8537 8.51328L17.7862 8.4803L17.7632 8.44371L17.746 8.37395L17.7249 8.34281L17.7038 8.32794L17.6846 8.3204L17.6673 8.30939L17.6518 8.28009V8.25976L17.669 8.23046L17.6632 8.20849L17.5996 8.17919L17.5114 8.20299L17.3634 8.29303L17.3289 8.31663L17.2542 8.35526L17.0258 8.52205L16.9679 8.58651L16.9008 8.63227L16.7413 8.66158L16.6302 8.72033L16.5976 8.71304L16.5612 8.6949L16.5206 8.68741L16.3615 8.71121L16.3381 8.70407L16.34 8.68374L16.3481 8.65994L16.3443 8.63594L16.3266 8.61948L16.3132 8.61581L16.2749 8.62132L16.1388 8.61031L16.0925 8.58101L16.125 8.51858L16.0617 8.45085L16.0292 8.42685L15.989 8.41039L15.8295 8.4031L15.6336 8.34083L15.5992 8.32233L15.5666 8.29873L15.5359 8.26541L15.5071 8.20864L15.4861 8.15004L15.4589 8.10229L15.407 8.07665L15.2533 8.08052L15.0654 8.11697L15.0267 8.13913L14.9903 8.18871L14.998 8.23651L15.0172 8.28431L15.0229 8.3319L15.0018 8.35754L14.9597 8.38317L14.9137 8.40147L14.8811 8.40514L14.8562 8.38317L14.7867 8.27112L14.7216 8.20339L14.6986 8.16496L14.6871 8.10982L14.6794 8.01443L14.6639 7.97784L14.6294 7.92657L14.5619 7.90074L14.4833 7.90441L14.3276 7.93391L14.2912 7.9284L14.2414 7.9229L14.2126 7.88993L14.2242 7.83479L14.2567 7.8163L14.3373 7.79433L14.3717 7.77946L14.3621 7.74103L14.3276 7.70241L14.1854 7.68257L13.8936 7.62927L13.7594 7.56149L13.7153 7.55049H13.2105L12.9801 7.60007L12.9245 7.62952L12.8648 7.64767L12.8628 7.67365L12.8667 7.70642L12.8551 7.74321L12.7996 7.78164L12.665 7.7981L12.6056 7.82939L12.5749 7.82007L12.3234 7.86786L12.2832 7.86216L12.2234 7.80906L12.1658 7.64048L12.0932 7.60022L11.803 7.59838L11.4442 7.5962L11.4097 7.58519L11.4058 7.57235L11.3978 7.52475L11.392 7.50809L11.3786 7.49163L11.3614 7.47716L11.3441 7.46798L11.3269 7.46045L11.2924 7.45861L10.9913 7.50438L10.918 7.49887L10.7839 7.45291L10.6033 7.33937L10.5784 7.31373L10.5591 7.27347L10.5534 7.23648V7.19255L10.5515 7.14495V7.14312L10.5476 7.02373L10.4571 6.76704L10.3766 6.53782L10.3536 6.49205L10.3381 6.44446L10.3419 6.34157L10.3323 6.29764L10.3127 6.24806L10.2936 6.15252L10.2706 6.11587L10.2399 6.09574L10.1115 6.03714L10.0077 6.01661L9.7926 6.03148L9.68717 6L9.69486 6.13219L9.70446 6.33944L9.71785 6.60545L9.72745 6.83268L9.72553 6.85683L9.71401 6.87131L9.69844 6.87865L9.30091 6.89511L8.90531 6.90998L8.50971 6.92486L8.11219 6.93973L7.71659 6.95257L7.31948 6.96358L6.92388 6.97637L6.52636 6.98738L6.13076 6.99655L6.00384 7.00022L6 7.05734L6.01557 7.09562L6.03514 7.13058L6.04277 7.16171L6.05238 7.20768L6.0639 7.22944L6.07542 7.24957L6.08498 7.27005L6.10055 7.35062L6.15806 7.47547L6.17364 7.56521L6.19087 7.60364L6.23494 7.68297L6.25254 7.79463L6.21766 7.88472L6.17166 7.97075L6.15827 8.06991L6.20426 8.20378L6.21574 8.27721L6.22726 8.31564V8.34147L6.21958 8.36711L6.1985 8.40925L6.19082 8.4387L6.22716 8.59082L6.24096 8.6238L6.25051 8.66058L6.2271 8.82371L6.23094 8.92089L6.24652 9.00895L6.27912 9.0915L6.36347 9.26395L6.38647 9.35018L6.41714 9.42891L6.48271 9.49297L6.45779 9.55009L6.46547 9.60319L6.5153 9.71689V9.73176L6.5057 9.74807L6.50954 9.75923L6.5153 9.7629L6.52299 9.76473L6.52683 9.7684L6.53067 9.77391L6.53643 9.78303L6.58242 9.82879L6.59582 9.8581L6.62073 9.94065L6.64757 9.98845L6.67285 10.0232L6.69392 10.0635L6.70737 10.1478L6.73036 10.2122L6.76099 10.2323L6.76867 10.2434L6.77059 10.2598L6.76675 10.2727L6.75912 10.2838L6.7572 10.2929L6.76104 10.3497L6.75912 10.3957L6.76296 10.4378L6.78212 10.4762L6.78404 10.5109L6.7572 10.6321V10.6797L6.76872 10.6927L6.7843 10.7075L6.80153 10.7277L6.80921 10.7517L6.80537 11.0523L6.813 11.1056L6.84368 11.2193L6.85131 11.2689L6.84939 11.2872L6.84363 11.3075L6.83787 11.3313L6.83979 11.359L6.86855 11.456L6.87239 11.5017L6.86279 11.6577L6.86855 11.6889L6.87815 11.7108L6.90348 11.7458L6.91111 11.7771V11.7954H6.90348L6.91495 11.8009L6.93608 11.8064L6.95524 11.8174L6.97631 11.8229L6.98783 11.8321L6.99552 11.8469L6.9936 11.8579L6.98783 11.869L6.97823 11.9074L6.95331 11.9404L6.94755 11.9644L6.95331 12.0451L6.95139 12.0707L6.94563 12.0872L6.93006 12.1256L6.92622 12.1496L6.9339 12.1882L6.96266 12.2687L6.97034 12.3218L6.96458 12.3751L6.94543 12.4577L6.95119 12.509L6.97034 12.5421L7.0317 12.6137L7.04509 12.6594L7.05854 12.7475L7.06238 12.7971L7.0509 12.8467L7.06238 12.8631L7.09306 12.8924L7.10494 12.9107L7.10878 12.929V12.9494L7.11262 12.9732L7.12602 12.999L7.23887 13.1494L7.30401 13.2118L7.33314 13.2521L7.34653 13.3017V13.4558L7.35229 13.5034L7.35997 13.5291L7.36766 13.5492L7.41365 13.6118V13.6283L7.40981 13.6466V13.674L7.41744 13.6868L7.43301 13.7751V13.8042L7.42341 13.8721L7.40233 13.9252L7.40425 13.9823L7.4464 14.1581L7.4368 14.1841L7.42912 14.1931L7.42335 14.2059L7.41951 14.2169L7.40799 14.3635L7.39652 14.404L7.36018 14.4685L7.30827 14.5875L7.30059 14.5985L7.2872 14.6168L7.26991 14.6351L7.22008 14.6737L7.08553 14.7471L7.06637 14.7634L7.02614 14.8094L6.95518 14.8572L6.93961 14.87L6.92617 14.8849L6.90317 14.9362L6.89741 14.9874L6.94932 15.0464L7.04514 15.1397L7.08345 15.1929L7.1567 15.336L7.20077 15.406L7.24105 15.4351L7.39091 15.4461L7.47142 15.4664L7.52702 15.5011L7.54851 15.5212L7.5945 15.5542L7.61365 15.5709L7.66733 15.6587L7.68077 15.6827L7.69038 15.6901V15.6919L7.69422 15.7834L7.71145 16.3082L7.72868 16.8345L7.74826 17.3608L7.76549 17.8872L7.78272 18.4153L7.79996 18.9436L7.81719 19.4717L7.83635 20L8.46232 19.9799L9.0883 19.9579L9.71427 19.9339L10.3424 19.9103L10.968 19.8825L11.594 19.8532L12.22 19.822L12.846 19.7909L13.4719 19.7562L14.0979 19.7194L14.7239 19.6828L15.3479 19.6424L15.974 19.6021L16.5999 19.5582L17.224 19.514L17.85 19.4662L17.8557 19.4095L17.8576 19.3783L17.8519 19.3472L17.8342 19.2866L17.8304 19.2536L17.8323 19.1784L17.8304 19.1527L17.8093 19.0905L17.8074 19.0682L17.8208 18.9364L17.817 18.8906L17.8055 18.8446L17.7979 18.8225L17.7844 18.806L17.7556 18.7785L17.7441 18.7621L17.7346 18.7438L17.7288 18.7237L17.7269 18.7015L17.725 18.6321L17.7192 18.5769L17.7058 18.5183L17.6942 18.4925L17.6808 18.4705L17.6598 18.452L17.6326 18.4394L17.5482 18.4172L17.531 18.3861L17.4831 18.3385L17.4675 18.3054L17.4617 18.2871L17.456 18.2726L17.4464 18.2596L17.4329 18.2485L17.4096 18.2393H17.3387L17.3214 18.2356L17.308 18.2303L17.1926 18.1569L17.1811 18.1532L16.9971 18.166L16.9718 18.1623L16.9488 18.1513L16.7127 17.9844L16.636 17.9587L16.5958 17.9148L16.4325 17.6691L16.352 17.5608L16.0426 17.3389L15.9391 17.3114L15.7145 17.2911L15.6873 17.2819L15.6662 17.2637L15.649 17.238L15.5915 17.1371L15.5321 17.0784L15.4646 17.0344L15.3956 17.0159L15.0981 16.9905L15.0115 16.9482L15.0019 16.9354L14.9923 16.9135L14.9789 16.8933L14.9425 16.8748L14.8024 16.7593L14.6797 16.6989L14.6261 16.6603L14.6951 16.5063L14.7027 16.4404L14.6989 16.4107L14.6833 16.3357L14.6871 16.31L14.7101 16.2677L14.7159 16.2513L14.7003 16.1504L14.6754 16.0495L14.6235 15.945L14.6063 15.8937L14.6315 15.8681L14.6679 15.8532L14.6909 15.8185L14.6986 15.7708L14.6928 15.7175L14.6545 15.6404L14.6449 15.6276L14.6468 15.5999L14.6565 15.5487L14.6507 15.4423L14.6545 15.3982L14.668 15.3581L14.6929 15.3268L14.7197 15.303L14.7427 15.2737L14.7504 15.2295L14.758 15.1745L14.8079 15.0884L14.8117 15.0463L14.8002 15.0005L14.7714 14.9654L14.7351 14.9342L14.7006 14.8976L14.6833 14.8647L14.6488 14.7746L14.6258 14.7399L14.5526 14.7198L14.4568 14.7271L14.3759 14.7143L14.3338 14.6336L14.3357 14.4521L14.3395 14.4117L14.3551 14.3824L14.5069 14.2303L14.5548 14.1567L14.5414 14.089L14.6066 13.9551L14.6568 13.8929L14.7124 13.8636L14.745 13.8544L14.8432 13.7899L14.8911 13.7807L14.9045 13.7716L14.9141 13.7605L14.9332 13.7258L14.9352 13.7203L14.9409 13.7148L14.9524 13.7019L14.9658 13.6909L14.9831 13.6836L15.0601 13.6781L15.0869 13.6632L15.1233 13.5988L15.1501 13.575H15.1827L15.2306 13.5805H15.2731L15.2904 13.5584L15.2961 13.5254L15.3134 13.4924L15.3364 13.465L15.3594 13.4467L15.3939 13.4375L15.39 13.3604L15.3862 13.3255L15.3766 13.1752L15.3651 13.0249L15.3535 12.8744L15.344 12.7239L15.3325 12.5736L15.3229 12.4251L15.3114 12.2746L15.3018 12.1241L15.2979 12.0728L15.3018 12.0637L15.3095 12.0655L15.3363 12.0728H15.3708L15.4015 12.0692L15.4283 12.06L15.4378 12.0545L15.4436 12.0453L15.4474 12.0398L15.4512 12.0289L15.4551 11.9683L15.457 11.9534L15.4627 11.9406L15.4704 11.9295L15.4781 11.9222L15.49 11.9165L15.5187 11.9074L15.5283 11.9L15.534 11.8909L15.5474 11.8506L15.559 11.8268L15.5877 11.8048L15.6126 11.7938L15.6049 11.7827L15.6356 11.7056L15.7164 11.6287L15.8774 11.5205L15.9812 11.427L16.0482 11.4013L16.156 11.3241L16.246 11.2161L16.3055 11.1868L16.4055 11.1079L16.4151 11.093L16.4307 11.0564L16.4403 11.0436L16.4575 11.0327L16.4824 11.0216L16.5035 11.0068L16.5112 10.9793L16.5284 10.95L16.6553 10.8801L17.4982 9.93743L17.6094 9.88254L17.8765 9.61653L18.3297 9.35439L18.5736 9.26266L18.6637 9.24417L18.6944 9.23316L18.7657 9.18556L19.1245 9.05169L19.7217 8.71775L19.7524 8.69028L19.8043 8.62583L19.8522 8.59836L19.8791 8.55259L19.9001 8.53975L19.9557 8.55259H19.9844L20 8.53772L19.9767 8.53891Z" fill="#550000"/>
</svg>
