<svg width="26" height="26" viewBox="0 0 26 26" fill="none" xmlns="http://www.w3.org/2000/svg">
<circle cx="13" cy="13" r="13" fill="#F8F3ED"/>
<path d="M15.2478 19.5316L15.2225 19.5857L15.1565 19.6106L15.0142 19.6172L15.0163 19.6375L15.1029 19.6262L15.1426 19.6352L15.1679 19.6642L15.1844 19.6418L15.2076 19.6618L15.1959 19.6759L15.182 19.6942L15.1727 19.7054L15.1844 19.7144L15.1914 19.7211L15.2007 19.7234H15.2124L15.2503 19.6288L15.2549 19.5949L15.2503 19.5636L15.2549 19.5546L15.2714 19.5454L15.2666 19.5295L15.2478 19.5316ZM14.2838 19.9641L14.2697 19.9933L14.2931 20L14.3072 19.9708L14.3001 19.9528L14.2838 19.9641ZM15.5262 19.6373L15.5216 19.6486L15.5917 19.6327L15.6315 19.617L15.5963 19.6193L15.5262 19.6373ZM16.7849 19.5065L16.8765 19.5157L16.9722 19.5088L16.9885 19.4864L16.7802 19.4841L16.7849 19.5065ZM17 18.9613L16.9114 18.3981L16.8648 18.1164L16.8206 17.835L16.7758 17.5534L16.7316 17.2713L16.6849 16.9901L16.6407 16.7085L16.5521 16.1449L16.5074 15.8636L16.4631 15.5819L16.4165 15.3005L16.3722 15.0186L16.3279 14.7372L16.2837 14.4555V14.354L16.2861 14.2301V14.0657L16.2885 13.8607L16.2909 13.6194L16.293 13.3449L16.2954 13.0406L16.2978 12.7095L16.3002 12.3535L16.3024 11.9819L16.3048 11.59V11.1868L16.3096 10.772V10.3506L16.3141 9.5036L16.3165 9.08468V8.67014L16.3189 8.26668V7.87687L16.3214 7.50289V7.14908L16.3235 6.81817V5.24552H16.2769L16.1877 5.19832L16.1157 5.11719L16.055 5L16.0316 5.00232L15.9379 5.01127L15.6056 5.04513L15.2713 5.079L14.936 5.11286L14.5993 5.14673L14.2649 5.17828L13.9303 5.20959L13.5955 5.24114L13.2609 5.27269L12.9265 5.30192L12.5917 5.33372L12.2572 5.36295L11.9204 5.39219L11.5861 5.42142L11.2508 5.45066L10.9165 5.47989L10.5798 5.50682L10.5891 5.5204L10.6776 5.6061L10.6846 5.7323L10.6076 5.8426L10.4925 5.92848L10.2142 6.06138L10.1889 6.10402L10.2051 6.15354L10.2408 6.21225L10.2571 6.26616L10.2239 6.30922L10.2028 6.33845L10.1492 6.35874L10.0908 6.36081L10.0394 6.33389L10.0066 6.34747L9.97629 6.41057L9.94086 6.52087L9.92916 6.64915L9.99495 6.85434L9.99039 7.11113L9.99975 7.21705L9.98812 7.30476L9.91063 7.39917L9.81948 7.45788L9.76325 7.4848L9.65572 7.50509H9.62529L9.60429 7.49607L9.56938 7.47372L9.56008 7.49169V7.51861L9.57419 7.56124L9.60214 7.61539L9.6091 7.65364L9.60214 7.67849L9.57178 7.73702L9.56463 7.76857L9.55534 7.78216L9.53003 7.78009L9.48576 7.76394L9.45033 7.76857L9.43408 7.77527L9.42472 7.79355L9.34293 8.02317L9.31257 8.05034L9.27291 8.06861L9.14855 8.15613L9.11819 8.19018L9.12749 8.27545L9.32434 8.34982L9.34059 8.46451L9.31023 8.52091L9.27051 8.54808L9.21908 8.55934L9.15785 8.56397L9.09947 8.57731L8.9593 8.66088L8.82343 8.70138L8.80237 8.72373L8.81647 8.76637L8.84443 8.78464L8.87935 8.79591L8.91692 8.81156L8.96645 8.89263L8.93609 8.96676L8.89111 9.03906L8.91692 9.1426L8.94994 9.18773L8.97094 9.24389L8.94298 9.31162L8.91692 9.32289L8.84684 9.33184L8.81862 9.34079L8.79332 9.36108L8.7443 9.41979L8.72805 9.43088L8.70698 9.45341L8.61539 9.59502L8.56852 9.63157L8.5312 9.65593L8.52665 9.68541L8.58256 9.73261L8.69522 9.77525L8.7395 9.81143L8.756 9.88787L8.73734 9.95097L8.69528 9.98483L8.63835 10.0005L8.57541 10.0051L8.53569 10.0295L8.55195 10.0792L8.59623 10.1264L8.6405 10.1444L8.69003 10.1582L8.7462 10.1965L8.8419 10.2773L8.8488 10.3316L8.85816 10.4173V10.5071L8.8488 10.5658L8.76024 10.6987L8.73703 10.7662L8.7789 10.8226L8.80926 10.8249L8.89105 10.8475L8.929 10.8719L8.94798 10.9078L8.96208 11.0591L8.9994 11.1579L9.0111 11.2077L8.9994 11.2638L8.96689 11.2866L8.91262 11.3046L8.8636 11.3315L8.84462 11.3698L8.85632 11.6853L8.85847 11.7868L8.87745 11.8137L8.91477 11.834L8.95949 11.8453L9.00155 11.8476L9.03672 11.8564L9.07164 11.8858L9.12762 11.9422L9.10655 11.9961L9.07404 12.0525L9.03672 12.0974L9.00636 12.1175L8.98289 12.1516L8.95253 12.3003L8.94317 12.4221L8.95253 12.4648L8.98745 12.4871L9.12066 12.4986L9.16968 12.5323L9.18619 12.5843L9.14862 12.6518L9.102 12.6677L9.02951 12.6767L8.96423 12.6946L8.93843 12.7395L8.95013 12.8051L8.96879 12.8613L8.9946 12.9085L9.02951 12.9493L9.05747 12.9696L9.1254 13.0032L9.14647 13.0258L9.15577 13.0597L9.15102 13.0979L9.14166 13.1318L9.13692 13.1612L9.14406 13.2851L9.15577 13.3347L9.19119 13.3747L9.28474 13.4204L9.36868 13.4473L9.43421 13.4986L9.46723 13.616L9.48829 13.6363L9.53257 13.6499L9.6258 13.6566L9.68905 13.6749L9.71012 13.7198L9.70531 13.7624L9.6845 13.7737L9.68665 13.7963L9.57691 13.9204L9.50922 14.1205L9.42933 14.2806L9.28683 14.285L9.26361 14.3124L9.25646 14.3437L9.25887 14.3727L9.26127 14.3932L9.34983 14.4768L9.35678 14.5871L9.30776 14.6953L9.21668 14.7718L9.13679 14.8033L9.11149 14.8216L9.09251 14.8485L9.07145 14.9139L9.05734 14.9409L8.94545 15.087L8.89807 15.1297L8.8469 15.1525L8.73715 15.1842L8.69288 15.2179L8.65746 15.272L8.63639 15.3284L8.61058 15.4433L8.5405 15.5942L8.53354 15.646L8.53594 15.7069L8.50558 15.9729L8.51014 16.045L8.49863 16.0789V16.0989L8.32044 16.2431L8.26446 16.338L8.28793 16.4686L8.30178 16.4888L8.32974 16.5222L8.36946 16.5835L8.37661 16.6018V16.6602L8.3718 16.6874L8.34859 16.7166L8.32961 16.9147L8.31576 16.9645L8.2854 17.0006L8.22942 17.0161L8.10026 17.0204L8.03972 17.0299L8 17.0547V17.1019L8.03251 17.1628L8.07938 17.2103L8.1167 17.2306L8.13296 17.2462L8.13055 17.2798L8.12126 17.314L8.1143 17.3252L8.10974 17.3588L8.08628 17.413V17.4425L8.1236 17.5254L8.21279 17.6156L8.23625 17.6923L8.03966 17.877L8.05592 17.8747L8.18002 17.8657L8.23385 17.8613L8.38812 17.8501L8.62444 17.8344L8.93362 17.8096L9.29834 17.7822L9.70518 17.7508L10.1407 17.7172L10.5898 17.6813L11.0389 17.6447L11.4737 17.6067L11.881 17.5731L12.2456 17.5424L12.5522 17.5153L12.7909 17.495L12.9427 17.4816L12.9965 17.477L13.1132 17.4681L13.2144 17.4568L13.2261 17.5017L13.2192 17.6099L13.1933 17.7205L13.1419 17.8375L13.1159 18.0155L13.0575 18.0989L13.0386 18.1528L13.0596 18.2094L13.0199 18.322L13.0058 18.3895L13.0082 18.4437L13.0386 18.4863L13.0828 18.5289L13.1111 18.5789L13.0828 18.6441L13.1675 18.7836L13.2118 18.8223L13.3029 18.8466L13.3498 18.8736L13.3945 18.9638L13.4763 19.0087L13.5277 19.0854L13.537 19.1057L13.5416 19.1305L13.544 19.1846L13.5488 19.209L13.572 19.2564L13.659 19.3667L13.6777 19.416L13.6846 19.5399L13.7454 19.6235L13.8434 19.8017L13.9116 19.8645L13.9303 19.8309L13.963 19.8173L13.9982 19.824L14.019 19.842L14.0237 19.8331H14.0427L14.0731 19.8489L14.1128 19.8466L14.1501 19.8287L14.1716 19.7971L14.1974 19.8151L14.2044 19.822L14.1927 19.8399L14.2138 19.8602L14.2441 19.831L14.2534 19.8084V19.7838L14.258 19.75L14.2977 19.6915L14.3072 19.6597L14.2814 19.6215L14.5155 19.4616L14.5387 19.4324L14.5411 19.3962L14.5341 19.3377L14.52 19.3287L14.4568 19.3333L14.4315 19.3264V19.3021L14.4549 19.2679L14.4875 19.2387L14.5157 19.2254L14.574 19.2321L14.6673 19.288L14.7192 19.3111L14.6813 19.3354L14.6602 19.3647L14.6696 19.3872L14.7191 19.3939L14.7543 19.3872L14.9176 19.3197L15.0841 19.2588L15.2713 19.178L15.3156 19.1685L15.3507 19.1573L15.4301 19.108L15.465 19.0923L15.6337 19.0834L15.7155 19.0675L15.758 19.0249L15.4208 19.0136L15.4184 18.9933L15.4627 18.9887L15.5006 18.9753L15.5635 18.9394L15.7883 18.9777L16.0923 19.1552L16.1765 19.1598L16.3078 19.1329L16.4245 19.0746L16.4666 18.9933L16.4877 18.991L16.4994 19.0249L16.5396 19.0497L16.5649 19.1106L16.5902 19.124L16.6254 19.1263L16.6581 19.1219L16.7328 19.1329L16.787 19.1598L16.836 19.1737L16.8944 19.1419L16.9107 19.1195L16.92 19.0969L16.9341 19.0789L16.969 19.0677L16.9948 19.0497V19.0158L16.9876 18.982L16.9972 18.964L17 18.9613ZM16.4598 19.4931L16.3965 19.4728L16.3332 19.4412L16.2417 19.4345L16.1531 19.4458L16.0878 19.4727V19.4907L16.6398 19.5199L16.6656 19.5063L16.6867 19.493L16.626 19.4773L16.4598 19.4931ZM15.732 19.5378L15.7179 19.5518L15.6992 19.5811L15.7226 19.5721L15.7649 19.5356L15.7625 19.5247L15.732 19.5378Z" fill="#550000"/>
</svg>
