<svg width="26" height="26" viewBox="0 0 26 26" fill="none" xmlns="http://www.w3.org/2000/svg">
<circle cx="13" cy="13" r="13" fill="#F8F3ED"/>
<path d="M14.169 7.59523L14.1078 7.65474L14.0671 7.77735L14.0469 7.91414L14.0407 8.02299L14.0488 8.14357L14.1385 8.57316L14.1526 8.61282L14.1853 8.65429L14.2257 8.69395L14.238 8.71177L14.25 8.72981L14.2582 8.74966L14.2623 8.77332L14.2663 8.83647L14.2561 8.91578L14.2603 8.94554L14.2705 8.96336L14.3008 8.99108L14.3191 9.02469L14.3804 9.07409L14.3966 9.09978L14.4028 9.12771L14.4127 9.18904L14.4454 9.27606L14.494 9.33756L15.0654 9.76292L15.102 9.80075L15.1302 9.84833L15.1467 9.90377L15.1608 9.9392L15.1953 9.96693L15.7194 10.2761L15.7708 10.3176L15.8254 10.3769L15.8883 10.4699L15.9187 10.5235L15.937 10.5748L15.9432 10.6104L15.945 10.6837L15.9492 10.7175L15.9638 10.749L16.0084 10.8045L16.0186 10.8322L16.0126 10.8617L15.9982 10.8935L15.9922 10.9273L16.0084 10.9609L16.0288 10.9907L16.0429 11.0342L16.0489 11.0775L16.0429 11.1112L16.1565 11.2993L16.2299 11.3727L16.3213 11.3984L16.4106 11.3488L16.5307 11.1669L16.6363 11.1351L16.6793 11.147L16.7562 11.1885L16.7967 11.1945H16.8474L16.9594 11.2159L17.181 11.3128L17.2744 11.3743L17.3149 11.4415L17.3029 11.4891L17.2724 11.5583L17.2378 11.6218L17.2094 11.6495L17.183 11.6811L17.1851 11.7465L17.2054 11.8515L17.2136 11.9601L17.183 12.0457L17.0914 12.2236L17.0083 12.5267L16.9189 12.6989L16.8926 12.7859V12.8849L16.9229 13.0036L16.9394 13.0451L16.9556 13.0751L16.9718 13.1006L16.992 13.1246L17.1204 13.2135L17.1366 13.2371L17.2034 13.2928L17.2197 13.3142L17.238 13.3539L17.2785 13.3816L17.3641 13.421L17.4249 13.4706L17.4839 13.5319L17.5467 13.5815L17.6263 13.5993L17.754 13.6883L17.791 13.7041L17.8702 13.6963L17.8986 13.7022L17.9694 13.7159L18.049 13.7636L18.185 13.8784L18.24 13.9061L18.3779 13.9503L18.4348 13.9818L18.494 14.0514L18.5709 14.1898L18.6237 14.2394L18.8435 14.3165L18.9063 14.36L18.8921 14.3938L18.9042 14.4352L18.9249 14.483L18.9372 14.5303V14.5739L18.9309 14.6194L18.9291 14.669L18.9411 14.7225L18.996 14.8095L19.065 14.8888L19.1238 14.9758L19.1568 15.0829L19.1279 15.1812L19.059 15.2601L19.002 15.3417L19.0122 15.4443L19.0244 15.4524L19.0689 15.4662L19.0892 15.474L19.1258 15.4979V15.5335L19.1378 15.5772L19.1586 15.6167L19.2174 15.6996L19.3169 15.8107L19.3553 15.8819L19.3473 15.961L19.3883 15.9968L19.5059 16.0739L19.5996 16.1016L19.6239 16.0996L19.632 16.0719L19.622 16.0324L19.6037 16.0106L19.583 15.9968L19.561 15.9768L19.5325 15.9193L19.5427 15.8916L19.5832 15.8819L19.6364 15.8779L19.6505 15.8898L19.6667 15.9531L19.6748 15.975L19.6973 15.9911L19.7459 16.0147L19.7642 16.0305L19.7785 16.0582L19.7866 16.0857L19.7966 16.1135L19.819 16.1333L19.8458 16.1372L19.8722 16.1293L19.8965 16.1155L19.9169 16.1077L19.9614 16.1235L19.9779 16.1692L19.9737 16.286L19.9859 16.3692V16.3949L19.9758 16.4145L19.9575 16.4386L19.9392 16.4681L19.9331 16.4997L19.9473 16.5551L19.9898 16.6444L20 16.7037L19.9898 16.7749L19.9209 16.9669L19.8824 17.1233L19.8417 17.2004L19.7868 17.2361L19.7157 17.2182L19.6528 17.1727L19.5936 17.1175L19.5348 17.0758L19.5123 17.0918L19.5003 17.1076L19.4838 17.1552L19.4614 17.2562L19.4593 17.2976L19.4373 17.4243L19.4271 17.4559L19.4232 17.472L19.3806 17.5355L19.3476 17.5729L19.3194 17.5908L19.2604 17.5809L19.2543 17.5414L19.2685 17.4879L19.2726 17.464L19.2807 17.4284L19.2422 17.3256L19.1633 17.2979L19.0939 17.3335L19.0837 17.4284L19.108 17.46L19.13 17.482L19.1402 17.4899L19.1609 17.5273L19.1507 17.5787L19.1528 17.6202L19.2116 17.7252L19.2238 17.7827L19.2055 17.844L19.169 17.8736L19.1158 17.8855L19.0591 17.8896L19.0184 17.9152L19.0286 17.963L19.067 18.0144L19.1117 18.048L19.1688 18.0617L19.1931 18.0775L19.1871 18.1073L19.1668 18.1252L19.1399 18.1349L18.9351 18.1606L18.896 18.1784L19.0326 18.3387L19.1015 18.4399L19.0872 18.4913L19.0527 18.5012L19.0122 18.5269L18.9798 18.5564L18.9654 18.5823L18.9615 18.6281L18.9042 18.7426L18.8942 18.8356H18.8861L18.882 18.8377H18.8779L18.5629 18.8735L18.25 18.9109L17.9347 18.9465L17.62 18.9822L17.4592 19L17.4451 18.998L17.4411 18.986L17.4391 18.9763L17.4451 18.9486L17.5101 18.7942L17.5282 18.7663L17.5591 18.7031L17.5835 18.6716L17.5957 18.6497L17.6038 18.6398L17.614 18.632L17.6239 18.6241L17.6686 18.6101L17.6809 18.6042L17.691 18.5964L17.701 18.5885L17.7072 18.5766L17.7133 18.5646L17.7175 18.5486V18.5348L17.7193 18.5112L17.7214 18.4972L17.7256 18.4834L17.7337 18.4715L17.7418 18.4618L17.762 18.446L17.7721 18.44L17.801 18.4283L17.8478 18.4044L17.9147 18.3609L17.9249 18.351L17.9309 18.3409L17.937 18.3271L17.9411 18.3132L17.9451 18.26L17.9472 18.248L17.9553 18.2381L17.9654 18.2303L18.0186 18.2088L18.0307 18.201L18.0408 18.1931L18.0471 18.1832L18.0552 18.1711L18.0591 18.1593L18.0632 18.1454L18.0651 18.1316L18.0632 18.1177L18.047 18.0405V18.0247L18.0551 17.9592V17.9276L18.0489 17.9139L18.0429 17.9017L18.0348 17.8918L18.0267 17.8819L18.0165 17.874L18.0041 17.8662L17.9268 17.8287L17.9187 17.8208L17.9106 17.8089L17.9066 17.7952L17.9025 17.7812L17.8964 17.7395L17.8922 17.7278L17.8883 17.7179L17.8802 17.712L17.868 17.7059L17.8578 17.698L17.8517 17.6902L17.8254 17.6327L17.8113 17.6129L17.8071 17.607L17.8031 17.6011L17.6504 17.6149L17.0467 17.6662L16.4434 17.7158L15.8377 17.7635L15.2339 17.8109L14.6283 17.8562L14.0246 17.8997L13.4209 17.9435L12.8155 17.9831L12.2098 18.0228L11.604 18.0622L11.0007 18.0978L10.3949 18.1336L9.78908 18.1672L9.18348 18.201L8.57771 18.2305L7.97193 18.2603L7.95573 17.9296L7.93952 17.597L7.92331 17.2663L7.9071 16.9339L7.89089 16.5953L7.87259 16.2568L7.85639 15.9181L7.8399 15.5818L7.82161 15.2431L7.8054 14.905L7.78919 14.5663L7.77089 14.2279L7.75441 13.8912L7.73792 13.5526L7.72171 13.2161L7.70342 12.8776L7.68721 12.541L7.671 12.2025L7.65479 11.866L7.63649 11.5294L7.62842 11.3354L7.62633 11.3176L7.61633 11.3135L7.61424 11.3054V11.2975L7.61007 11.2937L7.63853 11.2601L7.63435 11.2382L7.59798 11.2265L7.5471 11.2245L7.53902 11.2206L7.53468 11.1988L7.52243 11.1909L7.51243 11.1889L7.49001 11.193L7.45759 11.1909L7.39254 11.1968L7.34391 11.181L7.24605 11.1236L7.20138 11.1137L7.16089 11.09L7.14885 11.0346L7.14265 10.9791L7.12067 10.9555L7.0471 10.9097L6.99435 10.8069L6.97237 10.7019L6.99067 10.6545L6.89528 10.6385L6.88512 10.6245L6.871 10.583L6.86292 10.5672L6.76902 10.51L6.72852 10.4942L6.71231 10.4841L6.69034 10.4543L6.63759 10.3633L6.6249 10.3437L6.58644 10.3297L6.54797 10.2903L6.51951 10.2387V10.1826L6.53572 10.1747L6.59264 10.1687L6.61462 10.1529L6.62088 10.1315L6.62275 10.1017L6.61671 10.0443L6.63127 9.99872L6.66182 9.95317L6.72666 9.88397L6.74907 9.86819L6.76737 9.85828L6.77946 9.8425L6.78155 9.77715L6.78759 9.74922L6.79776 9.72781L6.81396 9.71791L6.91781 9.7436H6.96666L6.99907 9.70999L7.00116 9.68023L6.98891 9.66241L6.9727 9.64459L6.96254 9.61301L6.96462 9.58326L6.97067 9.52974L6.97276 9.50405L6.95078 9.47633L6.85501 9.42693L6.82237 9.39134L6.83858 9.36362V9.32803L6.82237 9.29827L6.79413 9.28431L6.74534 9.28837L6.7088 9.29827L6.67847 9.31588L6.61512 9.37357L6.57253 9.40333L6.52391 9.41912L6.47924 9.39948L6.41836 9.33798L6.39363 9.32193L6.36935 9.31406L6.32468 9.30999L6.30638 9.30614L6.28808 9.29009L6.27583 9.27248L6.26775 9.25064L6.25154 9.22923L6.23325 9.22137L6.20687 9.2173L6.18259 9.21345L6.15182 9.17379L6.02803 9.07077L5.96715 9.02319L5.93017 9.00537L5.83088 8.99162L5.80451 8.96186L5.79847 8.91632L5.80451 8.8568L5.82484 8.80741L5.83088 8.77765L5.82484 8.76593L5.75588 8.70642L5.74154 8.66896L5.71083 8.62523L5.64995 8.55807L5.68028 8.49069L5.68237 8.45708L5.65808 8.42936L5.62149 8.41742L5.54456 8.41539L5.51215 8.40163L5.48533 8.36802L5.46495 8.33244L5.44297 8.30086L5.40451 8.27699H5.36605L5.32346 8.28486L5.28896 8.28079L5.27247 8.24718L5.29885 8.22754L5.31918 8.20752L5.32934 8.18767L5.32335 8.17777L5.29489 8.10086L5.25791 8.05109L5.24775 8.03145L5.24588 8.01363L5.24775 7.97397L5.24588 7.95792L5.22758 7.91644L5.18912 7.87314L5.16874 7.83531L5.16478 7.79784L5.17083 7.76809L5.16874 7.73855L5.13423 7.71082L5.08352 7.69504L5.04094 7.68899L5.01225 7.66533L5 7.59796L5.00808 7.52838H5.02033L5.53473 7.50473L6.04891 7.48107L6.56099 7.45538L7.07287 7.42766L7.58743 7.39994L8.09952 7.37222L8.61161 7.34246L9.12557 7.31089L9.63804 7.2791L10.1501 7.24549L10.6622 7.2099L11.1743 7.17409L11.6866 7.13867L12.1987 7.10083L12.7108 7.06139L13.2229 7.02194L13.4242 7.00589L13.5098 7L13.53 7.03746L13.5401 7.04918L13.5809 7.07284L13.5908 7.08681L13.595 7.1224L13.601 7.14648L13.6112 7.16591L13.6295 7.18373L13.6499 7.19384L13.6968 7.20171L13.7475 7.22943L13.7538 7.23933L13.7658 7.27476L13.776 7.29082L13.7861 7.2967L13.7963 7.29874L13.8183 7.2967L13.8326 7.30056L13.8387 7.31271L13.8447 7.32624L13.8507 7.34021L13.8711 7.35215L13.9141 7.36633L13.9324 7.37784L13.9465 7.39566L13.9546 7.41369L13.9567 7.43152L13.9527 7.44934L13.9729 7.47299L14.0562 7.54016L14.0826 7.55798L14.1457 7.57601L14.1702 7.59565L14.169 7.59523Z" fill="#550000"/>
</svg>
