<svg width="26" height="26" viewBox="0 0 26 26" fill="none" xmlns="http://www.w3.org/2000/svg">
<circle cx="13" cy="13" r="13" fill="#F8F3ED"/>
<path d="M20.8197 15.0066L20.8123 15.2065L20.8063 15.4064L20.799 15.6062L20.793 15.8062L20.787 16.006L20.7798 16.206L20.7737 16.4072L20.7664 16.607L20.7632 16.7205L20.7617 16.7446L20.714 16.7417L20.5549 16.736L20.3956 16.7304L20.2362 16.7248L20.0769 16.7191L19.9163 16.712L19.757 16.7064L19.5976 16.6993L19.4385 16.6922L19.2792 16.6866L19.1199 16.6796L18.9592 16.6725L18.7999 16.6653L18.6406 16.6567L18.4813 16.6497L18.322 16.6427L18.1627 16.6343L18.002 16.6255L17.8427 16.6185L17.6834 16.61L17.5241 16.6016L17.3648 16.5932L17.2055 16.5845L17.0448 16.5747L16.887 16.5661L16.7279 16.5563L16.5669 16.5477L16.4076 16.5379L16.2483 16.528L16.089 16.518L15.9298 16.508L15.7707 16.4982L15.6114 16.4882L15.4521 16.4785L15.2928 16.467L15.1334 16.457L14.9741 16.4457L14.8148 16.4345L14.6557 16.4245L14.4964 16.4132L14.3371 16.4019L14.1778 16.3891L14.0184 16.3778L13.8591 16.3663L13.6998 16.3537L13.5405 16.3422L13.3814 16.3296L13.2221 16.317L13.0629 16.304L12.9036 16.2912L12.7443 16.2786L12.585 16.2657L12.4272 16.2515L12.2681 16.2389L12.1087 16.2247L11.9494 16.2119L11.7901 16.1977L11.631 16.1835L11.4717 16.1693L11.3139 16.1552L11.1546 16.1409L10.9953 16.1268L10.836 16.1112L10.6767 16.0969L10.5189 16.0816L10.4446 16.0745L10.4416 16.1042L10.4357 16.161L10.4296 16.2162L10.4237 16.2729L10.4178 16.3282L10.4118 16.3849L10.4059 16.4402L10.4 16.4968L10.394 16.5522L10.3879 16.6087L10.382 16.664L10.3761 16.7194L10.37 16.776L10.3641 16.8313L10.3582 16.888L10.3522 16.9449L10.3463 17L10.2839 16.9772L10.2615 16.9588L10.2243 16.908L10.2034 16.8654L10.1856 16.8428L10.1707 16.83L10.1499 16.8171L10.1395 16.8086L10.1321 16.8002L10.1292 16.7918L10.1266 16.7826L10.1251 16.7728V16.7503L10.1266 16.7374L10.1281 16.7261L10.1236 16.7119L10.1163 16.7035L10.1058 16.6949L10.0923 16.6878L10.0863 16.6794L10.0775 16.6553L10.0269 16.5645L10.0164 16.5305L10.003 16.5192L9.95246 16.4864L9.93452 16.4808L9.92265 16.4797L9.9152 16.4852L9.89589 16.5092L9.88691 16.5165L9.87504 16.5192H9.83335L9.82301 16.5222L9.8037 16.5306L9.78877 16.5419L9.78285 16.5504L9.77996 16.5588L9.78285 16.5673L9.78591 16.5759L9.79183 16.5828L9.79625 16.5915L9.79778 16.6001L9.79931 16.6112L9.79778 16.6211L9.79335 16.6326L9.78744 16.6395L9.77847 16.6437L9.73823 16.6537L9.73078 16.6594L9.72636 16.6664L9.72181 16.6863L9.71875 16.6948L9.70535 16.7147L9.70092 16.7245L9.69803 16.7358V16.7559L9.70092 16.7755L9.70245 16.7841L9.70535 16.7884L9.70841 16.7941L9.71432 16.801L9.7233 16.8054L9.75601 16.8194L9.76346 16.8267L9.76651 16.8338V16.8423L9.75601 16.8465L9.74124 16.8493H9.71585L9.70245 16.8465L9.69348 16.8436L9.67738 16.8295L9.63433 16.8054L9.61654 16.7997L9.45723 16.7824L9.4347 16.7841L9.36472 16.8167L9.35438 16.8209L9.32911 16.8238L9.29945 16.8223L9.28605 16.8253L9.25471 16.8353L9.24131 16.8338L9.2308 16.8296L9.22336 16.8238L9.21881 16.8152L9.21592 16.8067L9.20541 16.7914L9.1966 16.7825L9.1832 16.7727L9.15793 16.7614L9.09677 16.753L9.08353 16.7544L9.07145 16.7559L9.06417 16.7614L9.0521 16.7656L9.03717 16.7685L9.009 16.77L8.98526 16.7642L8.84241 16.7728L8.82901 16.77L8.79477 16.7531L8.75453 16.7388L8.72789 16.7345L8.69348 16.7317L8.67739 16.7288L8.66688 16.7232L8.64757 16.7063L8.62672 16.695L8.61332 16.6935L8.60298 16.6964L8.58958 16.7077L8.58214 16.7119L8.57027 16.7148L8.53148 16.7191L8.50758 16.7262L8.48979 16.7332L8.48098 16.7375L8.47502 16.7445L8.46894 16.7531L8.45285 16.7957L8.41997 16.8538L8.41116 16.8622L8.39776 16.8693L8.37386 16.8735H8.35776L8.3442 16.8693L8.33676 16.8622L8.33084 16.8551L8.32203 16.8467L8.30996 16.8367L8.28304 16.8269L8.26066 16.8239L8.22042 16.8254L8.21161 16.8225L8.19954 16.8097L8.19209 16.8041L8.18312 16.7984L8.00607 16.7574L7.95693 16.7402L7.942 16.7389L7.93013 16.7402L7.90197 16.7531L7.89299 16.756L7.84978 16.7601L7.84096 16.7643L7.74708 16.8325L7.73976 16.8396L7.73384 16.8467L7.72777 16.8551L7.72334 16.8636L7.72181 16.875L7.72471 16.8835L7.74572 16.926L7.74266 16.9358L7.73521 16.946L7.70994 16.9545L7.69654 16.9516L7.6891 16.946L7.65928 16.8976L7.65337 16.8906L7.64592 16.8848L7.58186 16.858L7.57305 16.8509L7.5656 16.8438L7.54629 16.8125L7.53884 16.8026L7.52677 16.7942L7.50287 16.7828L7.491 16.7744L7.48657 16.7631L7.48794 16.7417L7.48657 16.7334L7.47607 16.7079L7.47454 16.6993L7.47607 16.6951L7.48351 16.6782L7.5013 16.6511L7.50436 16.6412L7.5013 16.6314L7.49249 16.6199L7.47011 16.6073L7.45961 16.5974L7.45217 16.5874L7.45523 16.5661L7.4537 16.5563L7.4508 16.5477L7.41656 16.5038L7.41201 16.4953V16.4867L7.41354 16.477L7.41945 16.4699L7.4269 16.464L7.44331 16.4541L7.45076 16.4471L7.45667 16.4401L7.45804 16.4301V16.4197L7.45667 16.4113L7.44923 16.3944L7.43567 16.3689L7.43277 16.3603L7.42533 16.3319L7.42243 16.3234L7.41788 16.3151L7.40754 16.2992L7.40311 16.2908L7.40006 16.2824L7.39853 16.2724L7.39716 16.2625L7.39563 16.254L7.39257 16.2454L7.38815 16.237L7.3702 16.2157L7.36424 16.2073L7.34783 16.1746L7.3434 16.1662L7.31966 16.1377L7.28831 16.108L7.25258 16.0854L7.21986 16.0741L7.19459 16.0697L7.18409 16.0726L7.17375 16.0756L7.1663 16.0798L7.13359 16.1009L7.12172 16.1053L7.10679 16.108L7.08003 16.1066L7.06663 16.1023L7.05919 16.0938V16.0628L7.05766 16.0528L7.04715 16.0415L7.02784 16.0273L6.96378 15.9905L6.94768 15.9763L6.93734 15.9595L6.92973 15.9424L6.91633 15.8857L6.91042 15.8687L6.90161 15.853L6.88953 15.8374L6.88511 15.8288L6.88358 15.8204L6.88664 15.8119L6.89408 15.8064L6.90153 15.8022L6.93118 15.7935L6.93863 15.7878L6.94607 15.7807L6.95199 15.7723L6.95653 15.7623L6.9713 15.7184L6.97436 15.7084V15.7056L6.9713 15.6758L6.96977 15.6658L6.95368 15.6121L6.94772 15.5937L6.90909 15.5286L6.90603 15.5199L6.90161 15.4859L6.89263 15.4718L6.88213 15.4647L6.83453 15.4604L6.82266 15.4547L6.81521 15.4478L6.81384 15.4378L6.81674 15.4152L6.81521 15.4053L6.81079 15.3981L6.80028 15.3811L6.79875 15.3727L6.79739 15.3626V15.3513L6.79433 15.333L6.79143 15.3229L6.78399 15.3075L6.76604 15.2835L6.74519 15.2636L6.71992 15.2296L6.69755 15.2083L6.69164 15.1983L6.69027 15.1884L6.69164 15.1686L6.69027 15.1573L6.68572 15.1473L6.67522 15.136L6.64556 15.1105L6.63812 15.1006L6.63369 15.0921L6.63063 15.0836L6.63216 15.0622L6.63369 15.0509L6.63961 15.0296L6.64858 14.9843L6.65148 14.9617L6.64705 14.9489L6.63808 14.9362L6.60082 14.9007L6.59639 14.8865V14.8652L6.59486 14.8567L6.59333 14.8468L6.59486 14.837L6.59792 14.8256L6.60234 14.8156L6.61442 14.7987L6.61884 14.7889L6.62037 14.7789V14.7477L6.62174 14.7362L6.62327 14.7349L6.62037 14.7206L6.60697 14.7064L6.56375 14.6837L6.55325 14.6724L6.54883 14.6611L6.55172 14.6498L6.5578 14.6271L6.56814 14.6072L6.57269 14.5987L6.58609 14.5846L6.592 14.5761L6.5949 14.5661L6.59337 14.5561L6.58894 14.5447L6.57707 14.5305L6.5681 14.5207L6.55623 14.515L6.48488 14.4824L6.46847 14.4711L6.45949 14.4598L6.46102 14.4398L6.45949 14.43L6.45644 14.4217L6.42219 14.3872L6.37608 14.3477L6.34932 14.3321L6.33153 14.3237L6.32256 14.3251L6.31664 14.3293L6.31222 14.3336L6.30916 14.3421L6.30763 14.3534L6.3061 14.3633L6.30763 14.3718L6.31069 14.3847V14.403L6.30763 14.4099L6.3032 14.4129L6.29576 14.4157L6.25697 14.4229L6.24662 14.4257L6.23765 14.4299L6.23037 14.4355L6.22276 14.4426L6.21089 14.4597L6.20647 14.4697L6.20055 14.4781L6.19311 14.4867L6.18566 14.4909L6.1589 14.5022L6.14993 14.5078L6.14401 14.5164L6.13806 14.5247L6.13351 14.5333L6.1276 14.5389L6.11878 14.5433L6.05762 14.5586L6.02201 14.5742L6.01303 14.5771H6.00116L5.97742 14.5715H5.96535L5.95638 14.5743L5.94756 14.5786L5.94012 14.5843L5.93267 14.5912L5.92676 14.5998L5.90591 14.6367L5.89847 14.6451L5.89694 14.6466L5.8895 14.6509L5.85388 14.6622L5.84475 14.6664L5.83151 14.6692L5.81509 14.6706L5.78528 14.665L5.77051 14.6579L5.76001 14.6495L5.75558 14.6424L5.74966 14.6282L5.70343 14.5984L5.69003 14.5871L5.68258 14.5757L5.68106 14.5657L5.67969 14.5543L5.67361 14.5431L5.62903 14.5048L5.61563 14.4991L5.55003 14.4778L5.52187 14.4751L5.50102 14.4694L5.49648 14.4624L5.498 14.4553L5.51732 14.4338L5.5234 14.4254L5.52629 14.4154V14.4039L5.52187 14.3926L5.51579 14.3757L5.51442 14.3644L5.51732 14.3545L5.52476 14.3489L5.55748 14.329L5.57985 14.3134L5.5844 14.3092L5.5873 14.3035L5.59172 14.295L5.59627 14.285L5.59764 14.2752L5.59474 14.2553L5.59627 14.2466L5.60371 14.2297V14.2169L5.59627 14.2028L5.56356 14.1645L5.55611 14.1532L5.55458 14.1434L5.55003 14.1177L5.54122 14.0993L5.53929 14.0851L5.54235 14.0767L5.54963 14.0711L5.56605 14.0596L5.57502 14.054L5.58094 14.0456L5.58685 14.037L5.59873 14.0217L5.6182 14.0004L5.62701 13.9851L5.63156 13.9808L5.63748 13.9751L5.65389 13.9665L5.66271 13.9636L5.67305 13.9623L5.72371 13.9665H5.73421L5.74455 13.9636L5.75353 13.9594L5.79216 13.9326L5.7996 13.9255L5.80266 13.9142V13.9014L5.77876 13.8533L5.77433 13.8433L5.7728 13.8349V13.8249L5.77582 13.8134L5.78025 13.8036L5.78467 13.7937L5.80262 13.7695L5.80705 13.7595V13.7468L5.80399 13.7355L5.79365 13.7284L5.75638 13.7143L5.7252 13.6959L5.71333 13.6832L5.71027 13.6717L5.7147 13.6618L5.71775 13.6503V13.6376L5.70878 13.6177L5.70588 13.6035L5.70741 13.5922L5.71184 13.5823L5.71775 13.5738L5.752 13.5384L5.75791 13.5299L5.76234 13.5215L5.7654 13.5102L5.76693 13.5L5.76387 13.4902L5.75944 13.4816L5.71031 13.4193L5.70439 13.4078V13.398L5.70745 13.3881L5.71188 13.381L5.71478 13.3781L5.72222 13.3739L5.73119 13.3711L5.78033 13.3724L5.79067 13.3711L5.79964 13.3668L5.80709 13.3612L5.813 13.3541L5.81606 13.3442L5.81759 13.3327L5.81606 13.3129L5.81759 13.2803V13.2703L5.81606 13.2604L5.81014 13.2406L5.8056 13.2278L5.8027 13.2165V13.2067L5.80713 13.198L5.81167 13.191L5.82644 13.1768L5.8324 13.1683L5.83694 13.1584L5.84137 13.1369L5.84427 13.1271L5.85034 13.1186L5.88459 13.0832L5.8905 13.0761L5.89493 13.0662L5.89646 13.0549L5.89799 13.0323L5.90105 13.0093L5.90833 12.9882L5.9173 12.9682L5.95899 12.9088L5.96342 12.8975L5.96784 12.8875L5.9709 12.8762V12.8647L5.96937 12.8548L5.96495 12.8448L5.96052 12.8337L5.94257 12.8095L5.93815 12.8009V12.7967L5.94257 12.7882L5.94865 12.784L5.95746 12.7811L5.99915 12.7727L6.00812 12.7683L6.01694 12.7641L6.02454 12.7585L6.03046 12.7528L6.03488 12.743L6.03335 12.7344L6.03183 12.7257L6.02893 12.7174L6.0274 12.7073L6.02893 12.6974L6.03335 12.6889L6.04675 12.6748L6.05118 12.6647L6.05424 12.6563V12.645L6.05271 12.6364L6.05424 12.6266L6.05714 12.6166L6.06168 12.6067L6.07355 12.5898L6.081 12.5683L6.08542 12.5344L6.08695 12.5231L6.08542 12.5118L6.081 12.4989L6.07355 12.4903L6.06321 12.4847L6.05114 12.482L6.03927 12.4805L5.93964 12.4918L5.93066 12.4933L5.90539 12.506L5.88592 12.5133L5.87557 12.5146H5.8637L5.85336 12.5118L5.83099 12.5003L5.82202 12.4974H5.81167L5.77743 12.5045L5.75948 12.5074L5.73574 12.5059L5.71779 12.4988L5.69848 12.489L5.66713 12.4649L5.65389 12.4507L5.64492 12.438L5.64339 12.4294L5.64186 12.4196L5.64492 12.4096L5.65084 12.4012L5.67305 12.3812L5.67611 12.3712V12.3571L5.66576 12.3385L5.65832 12.3272L5.62544 12.299L5.6151 12.2934L5.60476 12.2905H5.58392L5.57341 12.2948L5.54814 12.3088L5.51237 12.34L5.50187 12.3444H5.49L5.4766 12.34L5.47068 12.3316L5.46762 12.3231L5.46915 12.3132L5.48557 12.2708L5.4871 12.2595L5.48863 12.2465L5.48408 12.2324L5.47817 12.2238L5.46919 12.2168L5.42895 12.2012L5.40811 12.1897L5.39471 12.1755L5.37692 12.1514L5.36352 12.1374L5.32328 12.1062L5.31141 12.0947L5.30381 12.0849L5.295 12.0578L5.29194 12.0381L5.29041 12.0182L5.29194 11.9871L5.295 11.9758L5.29789 11.9643L5.30381 11.9544L5.30687 11.9459V11.936L5.29942 11.9277L5.26671 11.9036L5.2562 11.8934L5.24739 11.8837L5.21452 11.8312L5.20707 11.8212L5.19826 11.8142L5.1715 11.8043L5.15218 11.7945L5.14168 11.7859L5.13573 11.7772L5.1342 11.773V11.7689L5.13114 11.7361L5.12977 11.7264L5.02112 11.5858L5.00619 11.5406L4.97485 11.4869L4.96145 11.4713L4.92568 11.443L4.91533 11.4287L4.90346 11.4103L4.89602 11.4003L4.88552 11.3918L4.87212 11.3834L4.86467 11.3748L4.86025 11.365L4.85872 11.3451L4.85582 11.3366L4.85127 11.3267L4.84383 11.3154L4.8394 11.3054L4.82906 11.277L4.81699 11.253L4.80665 11.2415L4.79614 11.2316L4.67563 11.1693L4.60565 11.1493L4.58633 11.1382L4.57599 11.1298L4.56992 11.1196L4.55957 11.0942L4.5506 11.0671L4.53281 11.0345L4.49402 10.9806L4.48215 10.9695L4.38558 10.8928L4.33355 10.8702L4.31117 10.8574L4.3022 10.8461L4.30067 10.836L4.30373 10.8276L4.30981 10.822L4.31423 10.8192L4.32168 10.815L4.33049 10.8135L4.39149 10.8177L4.402 10.8164L4.41234 10.8135L4.42131 10.8108L4.42875 10.8035L4.43318 10.7948L4.42875 10.7822L4.41688 10.7724L4.39604 10.7595L4.38397 10.7496L4.3826 10.7481L4.38107 10.7098L4.3721 10.6887L4.36176 10.6758L4.32751 10.6489L4.3216 10.6389V10.6292L4.32904 10.6237L4.33785 10.6194L4.37512 10.6065L4.38256 10.6008L4.38988 10.5952L4.39749 10.5881L4.40936 10.5712L4.41379 10.5613L4.41226 10.5457L4.40634 10.526L4.37516 10.4677L4.37061 10.4521L4.38111 10.4082L4.38264 10.3954L4.37958 10.3827L4.37363 10.3656L4.36465 10.3557L4.32751 10.3259L4.3216 10.316L4.31854 10.3034L4.31701 10.2905L4.31109 10.2722L4.29922 10.2608L4.26498 10.2368L4.25601 10.2255L4.25158 10.214L4.23818 10.1231L4.23512 10.1118L4.22768 10.0965L4.21733 10.0866L4.18752 10.0639L4.17565 10.051L4.16378 10.0313L4.15038 10.0157L4.13396 10L4.12651 9.99033L4.12209 9.98033L4.11464 9.95902L4.08648 9.91369L4.07308 9.88383L4.03883 9.83298L4.01203 9.80313L4.00306 9.78328L4 9.77197L4.0134 9.68241L4.04628 9.4713L4.07746 9.26148L4.11034 9.05021L4.14305 8.84055L4.17577 8.62944L4.20848 8.41947L4.23983 8.20966L4.27254 8L4.55982 8.0397L4.86487 8.08216L5.17009 8.12347L5.47362 8.16302L5.77884 8.20272L6.08253 8.24242L6.38758 8.28075L6.6928 8.31884L6.99802 8.35563L7.02176 8.35854L7.30308 8.39246L7.6083 8.42924L7.91335 8.46473L8.21841 8.50022L8.52363 8.53429L8.82885 8.56835L9.13407 8.60108L9.43912 8.635L9.74571 8.66615L10.0508 8.69861L10.356 8.72977L10.6626 8.75977L10.9678 8.78947L11.2745 8.81917L11.5796 8.84757L11.886 8.87596L12.1927 8.90405L12.4979 8.93115L12.6735 8.94548L12.8047 8.95679L13.1112 8.98361L13.4163 9.0091L13.7229 9.03328L14.0295 9.05719L14.3362 9.08137L14.6429 9.10413L14.9495 9.1269L15.2561 9.14805L15.5628 9.1692L15.8692 9.19066L16.176 9.21036L16.4825 9.22906L16.7893 9.24861L17.0959 9.26716L17.4024 9.28409L17.7106 9.30119L18.0171 9.31812L18.3239 9.33345L18.6306 9.34924L18.9386 9.36457L19.2452 9.37879L19.5516 9.39312L19.8598 9.40573L20.1664 9.41849L20.4731 9.42999L20.7812 9.44129L21 9.44984L20.9881 9.79282L20.9776 10.1374L20.9658 10.4817L20.9554 10.8277L20.9435 11.1735L20.933 11.5194L20.921 11.8667L20.9091 12.2138L20.8988 12.5615L20.8867 12.9102L20.8762 13.2574L20.8641 13.6074L20.8522 13.9562L20.8419 14.3064L20.8304 14.6566L20.8199 15.0066H20.8197Z" fill="#550000"/>
</svg>
