<svg width="26" height="26" viewBox="0 0 26 26" fill="none" xmlns="http://www.w3.org/2000/svg">
<circle cx="13" cy="13" r="13" fill="#F8F3ED"/>
<path d="M19.3683 10.29L19.4575 10.3017L19.5059 10.3157L19.5417 10.3413L19.5734 10.4481L19.5496 10.5629L19.5436 10.6736L19.6131 10.7527L19.6172 10.7941L19.6468 10.8155L19.6706 10.8491L19.6826 10.8927L19.6885 10.9541L19.6805 11.0034L19.6647 11.0486L19.6588 11.0961L19.6803 11.1593L19.7105 11.1989L19.7798 11.2405L19.8174 11.272L19.8412 11.3155L19.8453 11.3649L19.8471 11.4184L19.8571 11.4775L19.917 11.5507L20.0024 11.5961L20.0776 11.6517L20.1055 11.7561L20.0996 11.78L20.0796 11.8334V11.8631L20.0875 11.8867L20.1233 11.9539L20.1313 11.9695L20.2567 12.0882L20.2782 12.1474L20.2723 12.1987L20.2564 12.2462L20.2485 12.2957L20.2526 12.3312L20.2564 12.3449L20.2505 12.3589L20.2306 12.3863L20.2186 12.4081L20.2127 12.4277L20.2168 12.5386L20.2247 12.5978L20.2405 12.6433L20.2702 12.6632V12.6846L20.2605 12.738L20.2643 12.7911L20.3101 12.8208L20.3338 12.8188L20.3739 12.7911L20.3918 12.7853L20.4176 12.7911L20.4434 12.8089L20.4593 12.8267L20.4572 12.8348L20.4473 12.8465L20.4375 12.878L20.4296 12.9117L20.4255 12.9376L20.4393 12.967L20.4672 12.9828L20.5505 12.9988L20.5684 12.9968L20.5824 13.0027L20.5967 13.0283L20.5805 13.137V13.1669L20.5389 13.3347L20.5726 13.3525L20.6663 13.3802L20.7019 13.3842L20.7219 13.4056L20.694 13.459L20.6524 13.5083L20.6309 13.5203L20.6189 13.633L20.6209 13.6764L20.6508 13.7079L20.7441 13.7336L20.7718 13.7534L20.7243 13.7775L20.7361 13.8171L20.7442 13.9019L20.758 13.9377L20.7322 14.0125L20.7202 14.0302V14.0463L20.7301 14.0522L20.7361 14.06L20.7401 14.0699L20.7481 14.0838L20.7601 14.1034L20.754 14.1174L20.7422 14.1311L20.7382 14.1549L20.7502 14.1844L20.7681 14.2042L20.8057 14.2319L20.8201 14.2598L20.822 14.2854L20.816 14.3406L20.8201 14.3743L20.8478 14.4375L20.8577 14.5027L20.8478 14.554L20.8339 14.6033L20.828 14.6647L20.8339 14.6964L20.8555 14.7299L20.8595 14.7513L20.8199 14.8167L20.7916 14.848L20.7837 14.862L20.7778 14.8897L20.7817 14.9271L20.7916 14.9469L20.8055 14.9647L20.812 14.9883L20.8357 15.0317L20.9469 15.0711L20.9865 15.0969L21.008 15.1543V15.2117L21.0021 15.2549L20.9942 15.3243L21.0062 15.3916L21.0342 15.4152L21.0759 15.4213L21.1255 15.4371L21.1592 15.4647L21.1613 15.4942L21.1554 15.5239L21.1592 15.5613L21.1792 15.5991L21.2168 15.6423L21.2347 15.6837L21.2365 15.6997L21.2347 15.7393L21.2365 15.7571L21.2465 15.7767L21.2827 15.8264L21.3105 15.9031L21.3164 15.913L21.3065 15.9328L21.2866 15.9528L21.2608 15.9724L21.2769 16.006L21.3107 16.01L21.3523 16.0022H21.39L21.4276 16.026L21.4491 16.0575L21.469 16.093L21.4953 16.1266L21.527 16.1403L21.6022 16.1423L21.638 16.1543L21.6618 16.1819L21.6598 16.2155L21.6301 16.2827L21.6897 16.3498L21.7197 16.3934L21.7337 16.4308L21.8012 16.4902L21.8071 16.5019L21.8012 16.5316L21.7813 16.5809L21.7754 16.6403L21.7813 16.6858L21.8071 16.7155L21.9043 16.7292L21.9404 16.747L22 16.7945L21.5626 16.8121L21.129 16.8299L20.6936 16.8459L20.2582 16.8619L19.8205 16.8756L19.3851 16.8896L18.9496 16.9035L18.5142 16.9152L18.0788 16.9271L17.6433 16.937L17.2079 16.9467L16.7705 16.9566L16.3351 16.9644L15.8996 16.9705L15.4642 16.9783L15.0287 16.9842L14.5933 16.9882L14.1581 16.9921L13.7227 16.9962L13.2853 16.998L12.8499 17H11.979L11.5416 16.998L11.1061 16.9962L10.6707 16.9941L10.2353 16.9901L9.79983 16.9862L9.3624 16.9822L8.92697 16.9763L8.49153 16.9684L8.0561 16.9626L8.05814 16.7963L8.06223 16.6325L8.06405 16.4685L8.06814 16.3045L8.07018 16.1403L8.07405 15.9767L8.0761 15.8125L8.07997 15.6485L8.08201 15.4843L8.0861 15.3205L8.08792 15.1565L8.09201 14.9925L8.09405 14.8283L8.09792 14.6645L8.09996 14.5005L8.10405 14.3365L7.91504 14.3324L7.66851 14.3286L7.42397 14.3226L7.17948 14.3167L6.93494 14.3126L6.69045 14.3067L6.44574 14.3009L6.2012 14.293L5.9565 14.287L5.71201 14.2791L5.46731 14.2733L5.22276 14.2653L4.97828 14.2575L4.73373 14.2494L4.48903 14.2415L4.24454 14.2337L4 14.2238L4.01199 13.8979L4.02376 13.5699L4.0337 13.2419L4.04569 12.9139L4.05564 12.5878L4.06741 12.2598L4.07736 11.9339L4.08934 11.608L4.09907 11.2801L4.11106 10.9542L4.12101 10.6278L4.133 10.3019L4.14498 9.97608L4.15493 9.65022L4.1667 9.32586L4.17665 9L4.5187 9.0117L4.86076 9.02361L5.20266 9.03552L5.54493 9.04519L5.88661 9.05508L6.22889 9.06496L6.57078 9.07281L6.91284 9.08269L7.2549 9.0906L7.5968 9.09648L7.93885 9.10433L8.28091 9.11036L8.62281 9.11624L8.96487 9.12212L9.30692 9.12618L9.64882 9.13024L9.99109 9.1343L10.3328 9.13814L10.675 9.14017L11.0169 9.14199L11.359 9.14402L11.7011 9.14584H12.7271L13.0711 9.14402H13.413L13.7551 9.14199L14.0969 9.13814L14.4392 9.13633L14.7811 9.13227L15.1231 9.12842L15.2961 9.12618H15.3081L15.314 9.13024L15.3557 9.17767L15.3697 9.19162L15.5826 9.32191L15.5964 9.32372L15.6202 9.32575L15.6301 9.32778L15.7161 9.3812L15.7995 9.45065L16.0798 9.56112L16.0997 9.58313L16.1096 9.61261L16.1334 9.62864L16.2786 9.6741L16.3323 9.67795L16.3861 9.67207L16.4098 9.66016L16.4497 9.62479L16.4614 9.61673L16.4694 9.60482L16.4934 9.53537L16.4993 9.49985L16.5172 9.47848L16.5387 9.46272L16.5624 9.45284L16.6124 9.43911L16.7494 9.4686L16.8313 9.44723L16.8571 9.45107L16.8988 9.47469L16.9226 9.48254L16.9701 9.47869L17.048 9.43729L17.0917 9.42517L17.2384 9.45722H17.2925L17.6923 9.37602L17.7419 9.3819L17.7836 9.40171L17.8193 9.43163L17.8809 9.50642L17.9567 9.56961L18.0005 9.59931L18.048 9.62068L18.0956 9.63078H18.2013L18.221 9.63644L18.2668 9.65845L18.3205 9.66812L18.3403 9.68003L18.3543 9.69782L18.3764 9.71561L18.4141 9.72731L18.595 9.73516L18.6326 9.75498L18.6604 9.78265L18.6819 9.81438L18.6958 9.83799L18.7037 9.85578L18.7156 9.86972L18.7394 9.88367L18.7652 9.88751L18.849 9.87966L18.8709 9.88169L18.8985 9.8896L18.9225 9.90332L18.9343 9.92314L18.9284 9.94675L18.9164 9.96454L18.9064 9.98634L18.9085 10.0201L18.9343 10.0516L19.0176 10.111L19.0379 10.1524L19.0479 10.2017L19.0694 10.2355L19.1052 10.2569L19.3676 10.2906L19.3683 10.29Z" fill="#550000"/>
</svg>
