<svg width="26" height="26" viewBox="0 0 26 26" fill="none" xmlns="http://www.w3.org/2000/svg">
<circle cx="13" cy="13" r="13" fill="#F8F3ED"/>
<path d="M17.2032 18.5058L17.1603 18.5462L17.1301 18.6133L17.0925 18.694L17.0497 18.7882L16.9785 18.815L16.8805 18.8184L16.8323 18.81L16.7894 18.7865L16.7574 18.753L16.7381 18.7209L16.7237 18.6924L16.6916 18.595L16.6811 18.5714L16.6648 18.5479L16.6471 18.5244L16.6311 18.5127L16.6148 18.5043L16.6025 18.5007H16.5755L16.5631 18.5024L16.5523 18.5059L16.4988 18.5277L16.4864 18.5311H16.4743L16.4598 18.5294L16.4438 18.5262L16.4188 18.5143L16.4009 18.499L16.3867 18.4856L16.3778 18.479L16.3707 18.474L16.271 18.432L16.253 18.4286L16.2372 18.4303L16.2049 18.4387L16.0893 18.4521L16.0215 18.4806L15.952 18.5007L15.9431 18.5076L15.9342 18.5142L15.9181 18.5311L15.9111 18.5395L15.9058 18.558L15.9021 18.5833L15.9003 18.6352L15.8968 18.6604L15.8842 18.684L15.8469 18.7126L15.8416 18.7748L15.8521 18.8368L15.8736 18.8923L15.9378 18.9948L15.9467 19.0166V19.0419L15.9359 19.0671L15.8931 19.1193L15.8789 19.1511L15.8592 19.2755L15.8557 19.3377L15.8592 19.3831L15.9038 19.5545L15.9128 19.5931L15.8896 19.6386L15.8878 19.7377L15.8326 19.8422L15.8518 19.9346L15.8733 20.0472L15.9178 20.1714L15.9286 20.2268L15.9178 20.2875L15.9143 20.3445L15.9251 20.4554L15.9233 20.546L15.9143 20.5932L15.8839 20.6806L15.8752 20.6873L15.85 20.694L15.8216 20.6973L15.7948 20.694L15.7735 20.699L15.7627 20.7293L15.77 20.7512L15.8003 20.7967L15.8037 20.8269L15.793 20.8487L15.7396 20.899L15.7485 20.9747L15.7467 21L15.4277 20.6354L15.1121 20.269L14.7841 19.8874L14.4794 19.5245L14.2101 19.202L13.941 18.8778L13.6735 18.5535L13.408 18.231L13.1424 17.9066L12.8769 17.5807L12.6128 17.2565L12.3508 16.9322L12.0479 16.5738L11.7486 16.2158L11.449 15.8579L11.1531 15.4982L10.8554 15.1403L10.5595 14.7808L10.2656 14.4212L9.97328 14.0617L9.59537 13.6297L9.21909 13.1979L8.84484 12.7644L8.47223 12.3307L8.10164 11.8974L7.7325 11.4623L7.36533 11.0269L7 10.5917L7.0053 10.5616L7.03026 10.439L7.10862 10.034L7.18534 9.63087L7.2637 9.22757L7.34225 8.82409L7.42061 8.42079L7.49916 8.01749L7.57752 7.6142L7.65424 7.21108L7.7326 6.80951L7.81115 6.40793L7.88768 6.0045L7.96623 5.60293L8.04478 5.20136L8.1213 4.8016L8.19986 4.40003L8.27638 4L8.61145 4.05719L8.94672 4.11438L9.28179 4.16967L9.61503 4.22513L9.95029 4.28046L10.2835 4.33439L10.6186 4.38985L10.9537 4.44359L11.2889 4.49547L11.624 4.54766L11.9591 4.59991L12.2941 4.65178L12.6292 4.7023L12.9645 4.75281L13.2996 4.80314L13.6365 4.85175L13.9697 4.90072L14.305 4.94951L14.64 4.99639L14.9751 5.04345L15.3102 5.08888L15.6452 5.13612L15.9805 5.18128L16.3156 5.22489L16.6506 5.27031L16.9857 5.3141L17.321 5.35771L17.6561 5.39964L17.993 5.44171L18.328 5.48364L18.6631 5.52416L19 5.56436L18.9537 5.90892L18.9072 6.2528L18.8609 6.59891L18.8147 6.94329L18.7665 7.28767L18.72 7.63409L18.6737 7.97847L18.6275 8.32458L18.581 8.67082L18.5328 9.01675L18.4866 9.36299L18.4401 9.70909L18.3939 10.0552L18.3476 10.4032L18.2994 10.7493L18.2531 11.0972L18.2069 11.4432L18.1587 11.7911L18.1124 12.1388L18.0662 12.485L18.0199 12.8328L17.9717 13.1808L17.9252 13.5286L17.8771 13.878L17.8308 14.2259L17.7843 14.5736L17.7381 14.9214L17.6899 15.2709L17.6434 15.6189L17.5952 15.9684L17.549 16.3162L17.5025 16.6657L17.499 16.6839L17.492 16.7361L17.4812 16.8182L17.467 16.9241L17.4491 17.0502L17.4295 17.1895L17.4102 17.3391L17.3887 17.4938L17.3674 17.6483L17.3459 17.7977L17.3282 17.9371L17.3104 18.0632L17.2962 18.169L17.2854 18.2515L17.2783 18.3035L17.2747 18.322L17.2623 18.4162L17.2568 18.438L17.2498 18.4598L17.2035 18.5052L17.2032 18.5058Z" fill="#550000"/>
</svg>
