<svg width="26" height="26" viewBox="0 0 26 26" fill="none" xmlns="http://www.w3.org/2000/svg">
<circle cx="13" cy="13" r="13" fill="#F8F3ED"/>
<path d="M15.9117 17.2912L15.9932 17.4093L15.9386 17.4988L15.9062 17.7395L15.8459 17.8071L15.7587 17.7911L15.6933 17.7113L15.6268 17.6608L15.5396 17.7278L15.7095 17.8855L15.9006 17.874L16.0643 17.7394L16.1844 17.5209L16.2117 17.302L16.2335 17.2853L16.2714 17.2406L16.2837 17.201L15.9932 17.229L15.9117 17.2912ZM16.8781 14.8744L16.8508 14.9639L16.8064 15.1547L16.8121 15.3285L16.4575 16.3655L16.4468 16.5564L16.4301 16.6291V16.6629L16.4414 16.7196L16.5285 16.511L16.6593 15.8943L16.8397 15.6088L16.9006 15.3227L16.9335 15.0086V14.8074L16.8781 14.8744ZM16.9173 13.6964L16.9341 13.4387L16.8898 13.4049L16.9071 13.2759L16.8568 12.9399L16.9127 12.6367L16.8731 12.4629L16.7859 12.3335L16.6714 12.3007L16.7305 12.0754L16.7853 11.4305L16.7262 11.2402L16.753 11.0557L16.8078 10.8751L16.819 10.7072L16.5235 9.74292L16.4363 9.56297L16.3329 9.48504L16.2714 9.55205L16.3273 9.6982L16.4257 9.84329L16.5129 9.91667L16.4202 9.96715L16.1733 9.88347L15.6488 9.83252L15.4957 9.8492L15.2288 9.9673L15.1741 9.96215L15.0707 9.92258L14.8672 9.9059L14.7857 9.81069L14.7744 9.67591L14.8236 9.54068L14.7744 9.50748L14.7258 9.27764L14.7146 9.24959L14.7475 9.18258L14.8235 9.07645L14.862 9.00307L14.8894 8.85753V8.55432L14.9219 8.41392L14.9604 8.35783L15.0476 8.26778L15.0812 8.21789L15.0978 8.15028L15.1085 8.0105L15.1358 7.94348L15.2286 7.84767L15.2616 7.90831L15.2397 8.23397L15.3269 8.21729L15.386 8.17772L15.4295 8.12208L15.5005 7.96441L15.6039 7.83599L15.6925 7.68984L15.7199 7.6336V7.56659L15.7036 7.46577L15.6924 7.38208L15.7141 7.24108L15.7197 7.03929L15.8616 6.61343L15.9375 6.0361L15.9269 5.72712L15.8995 5.59234L15.2766 5.39055L14.6587 5.19346L14.0358 4.99743L13.4192 4.7967L12.7959 4.59961L12.1786 4.39782L11.5613 4.20179L10.9434 4L10.949 4.01152L10.8562 4.10673L10.735 4.1457L10.6858 4.18011L10.6267 4.2638L10.5665 4.28048L10.5447 4.30852L10.5341 4.34233L10.5229 4.42086L10.5173 4.44315L10.2826 4.79185L10.2608 4.89798L10.272 4.94786L10.2608 5.16632L10.2065 5.51502L10.0032 5.96894L9.94413 6.04232L9.91118 6.0693L9.86257 6.11479L9.81825 6.17043L9.80199 6.21L9.82372 6.29944L9.82932 6.31612L9.80761 6.3328L9.64951 6.66982L9.5619 6.77595L9.44621 6.83659L9.37529 6.89284L9.26639 7.01034L9.168 7.15072L9.13563 7.27974L9.15736 7.33023L9.20094 7.38117L9.28812 7.45333L9.2992 7.48138V7.51519L9.30481 7.54324L9.32653 7.549L9.35903 7.54324H9.3976L9.41932 7.55992L9.44119 7.60464L9.49541 7.65513L9.60607 7.73366L9.71497 7.83979L9.76417 7.97456L9.73684 8.10935L9.67153 8.18212L9.62233 8.2658L9.62794 8.45152L9.62233 8.59146L9.54476 8.68712L9.44133 8.72609L9.32668 8.69804L9.30496 8.83282L9.27762 8.89983L9.24468 8.93364L9.22295 8.96684L9.24468 9.0293L9.27762 9.07403H9.29388L9.26655 9.2981V9.40423L9.30511 9.48792L9.34308 9.55493L9.33746 9.61679L9.34869 9.6844L9.41962 9.90909L9.40838 9.98701L9.43572 10.0655L9.47369 10.1326L9.56234 10.3234L9.63887 10.3407L9.79697 10.2679L10.0969 10.2955L10.2399 10.4635L10.4036 11.019L10.4913 11.1429L10.6276 11.2661L10.7695 11.3218L10.9667 11.1876L11.065 11.2937L11.2068 11.5574L11.5515 11.7482L11.6226 11.8039L11.6499 11.8435L11.8952 12.0671L12.1204 12.2413L12.4695 12.4264L12.6449 12.5496L12.7431 12.6896L12.7046 12.8524L12.5672 12.9876L12.3984 13.0938L12.2616 13.1443L12.218 13.189L12.0599 13.4079L12.0107 13.4469L11.8135 13.5656L11.7426 13.6435L11.5788 13.9404L11.5186 14.0075L11.3432 14.1479L11.2779 14.2718L11.136 14.6753L11.0925 14.6299L11.0376 14.748L10.9342 14.7313L10.9286 14.827L10.994 14.9502L11.1029 15.0454L11.027 15.1349L10.9667 15.2524L10.9014 15.3367L10.803 15.3315L10.7813 15.3762H10.7745L10.7628 15.3814L10.6371 15.4548L10.4573 15.5952L10.3701 15.6341L10.2444 15.6731L10.0198 15.7854L9.73595 15.9986L9.55613 16.2004L9.40203 16.4354L9.33111 16.671L9.36406 16.8847V16.9179L9.30496 16.9575L9.28265 17.0194L9.26639 17.08L9.2073 17.1591L9.20168 17.2544L9.21232 17.3558V17.4343L9.18557 17.4733L9.09279 17.5627L9 17.7198L9.00502 17.7754L9.08718 17.8546L9.3218 18.0116L9.35977 18.1069L9.371 18.4555L9.38725 18.6017L9.33806 18.5846L9.30008 18.5565L9.26713 18.5227L9.37056 18.7303L9.53427 18.8535L9.73137 18.9321L10.4471 19.4428L10.4746 19.476L10.513 19.5041L10.5622 19.5327L10.5891 19.5212L10.6164 19.4874L10.655 19.4536L10.7092 19.4478L10.7869 19.5097L10.8522 19.6158L10.9344 19.7115L11.0322 19.7338L11.2451 19.689L11.2943 19.7057L11.3708 19.8409L11.4261 19.8576L11.5137 19.8743L11.7483 19.9918L11.8136 20.0373L11.8299 20.0762V20.1715L11.8572 20.2277L11.912 20.2839L12.0053 20.3178V20.351L12.1037 20.3235L12.1583 20.2724L12.2075 20.2054L12.2728 20.1326L12.442 20.0483L12.5565 20.0151L12.6393 20.0203L12.6722 20.0764L12.6829 20.1326L12.6995 20.1716L12.7538 20.1774L12.803 20.1555L12.8958 20.1044L12.9343 20.0878L13.1633 20.0373L13.2622 20.0424L13.3656 20.0879L13.5293 20.3017L13.551 20.5981L13.4092 21.2711L13.4036 21.4227L13.4203 21.5743L13.4476 21.7259L13.442 21.8211L13.4147 21.8939L13.4203 21.9501L13.5075 22H13.5729L13.6276 21.9726L13.9287 21.765L14.1141 21.5741L14.2619 21.3501L14.3272 21.126L14.3053 21.0755L14.2667 21.0192L14.2617 20.9574L14.3869 20.884L14.4361 20.8393L14.4751 20.7888L14.4969 20.6604L14.5952 20.4753L14.612 20.4242L14.5847 20.3463L14.5411 20.3073L14.4919 20.3124L14.4361 20.3572L14.4254 20.3349V20.324L14.4142 20.3124L14.3869 20.3182L14.4254 20.2391L14.4751 20.1943L14.541 20.1834L14.6119 20.2166L14.7481 19.5941L14.7861 19.488L14.895 19.3928L15.0597 19.011L15.1911 18.8594L15.18 18.809L14.9006 18.9885L14.819 18.9827L14.7481 18.9546L14.666 18.938L14.5676 18.9603L14.6385 18.8086L14.7862 18.7301L15.147 18.6573L15.1364 18.6184L15.0928 18.5283L15.1308 18.3767L15.262 18.1079L15.442 18.1698L15.3275 18.36L15.2783 18.4724L15.2509 18.5905L15.2621 18.6301L15.4034 18.5391L15.6828 18.2478L15.8359 18.1355L15.7593 18.0122L15.6599 17.889L15.551 17.8271L15.4582 17.8999L15.442 17.8047L15.4526 17.6924L15.4694 17.5915L15.4913 17.5245L15.5622 17.4402L15.6277 17.4351L15.6942 17.4518L15.7813 17.4575L15.8143 17.2666L15.8087 17.1372L15.7432 17.0982L15.6655 17.0586L15.6064 16.9354L15.5411 16.6717L15.6064 16.7061L15.6785 16.7342L15.7494 16.7227L15.8254 16.655L16.0656 16.7509L16.0929 16.7847L16.1203 16.8574L16.1639 16.9079L16.2348 16.8741L16.251 16.7566L16.1476 16.6443L16.0442 16.5039L16.0878 16.3858L16.1151 16.2631L16.1643 16.1955L16.2296 16.1456L16.2905 16.0671L16.3291 15.988L16.3509 15.8923L16.3889 15.8138L16.5201 15.7077L16.5637 15.5902L16.6129 15.3597L16.6396 15.3098L16.684 15.186L16.6946 15.0736L16.6018 15.0462L16.4928 14.9734L16.471 14.7487L16.5034 14.491L16.542 14.323L16.6129 14.1714V14.1158L16.5743 13.9748L16.5687 13.8573L16.596 13.7621L16.6995 13.6056L16.6342 13.5776L16.4375 13.5609L16.5247 13.4147L16.5464 13.2461L16.5028 13.1453L16.3939 13.2016V13.0841L16.453 13.0278L16.5408 12.9946L16.6167 12.9384L16.6659 12.8483L16.6878 12.7354L16.6553 12.6684L16.557 12.685L16.5458 12.6403L16.6223 12.5286L16.6933 12.5675L16.7524 12.6966L16.8016 12.8651L16.8233 13.028L16.8183 13.1512L16.7691 13.4316L16.9557 14.6428L17 14.4634L16.9173 13.6964Z" fill="#550000"/>
</svg>
