<svg width="26" height="26" viewBox="0 0 26 26" fill="none" xmlns="http://www.w3.org/2000/svg">
<circle cx="13" cy="13" r="13" fill="#F8F3ED"/>
<path d="M17.1693 19.4793L17.1394 19.4956L17.1119 19.5215L17.0797 19.5426L17.0246 19.5522L16.9879 19.5498L16.962 19.5639L16.946 19.6203L16.9484 19.6694L16.9644 19.7653L16.9599 19.8147L16.946 19.8312L16.9253 19.8451L16.9046 19.8662L16.891 19.8969L16.8931 19.918L16.9162 20L17.1578 19.7866L17.2478 19.6438L17.2175 19.4841L17.1693 19.4793ZM19.0911 18.9915L19.0866 18.9821L19.0888 18.9773L19.1003 18.9749L19.0958 18.9562L19.0544 18.9845L18.9093 19.0243L18.8839 19.036L18.8703 19.0454L18.8404 19.0852L18.7898 19.1183L18.7754 19.1346L18.7456 19.1581L18.4214 19.3012L18.4833 19.3223L18.8013 19.1722L18.9185 19.0644L19.0911 19.001V18.9915ZM20.0899 18.3607L19.9838 18.4473L19.869 18.5107L19.846 18.536L19.8211 18.5619L19.7311 18.6159L19.6988 18.6276L19.6713 18.6487L19.6184 18.7283L19.5885 18.7635L19.4504 18.8599L19.2361 18.9606L19.1671 19.0145L19.0914 19.0404H19.0244L19.0479 19.0735L19.1281 19.0474L19.3425 18.9464L19.5702 18.7988L19.637 18.7403L19.6713 18.7237L19.8023 18.5926L20.0026 18.4679L20.0348 18.454L20.0579 18.4236L20.1317 18.3627L20.1272 18.344L20.0899 18.3607ZM21.9586 16.8854L21.8941 16.8947L21.8478 16.9161L21.8638 16.9441L21.8685 16.9628L21.8226 16.9676L21.7834 16.9605L21.7585 16.9724L21.7561 17.0403L21.7079 17.0357L21.6689 17.0707L21.5995 17.1668L21.5214 17.2277L21.4755 17.2512L21.4506 17.2398L21.432 17.2115L21.3283 17.1175L21.2939 17.1154L21.2777 17.1573V17.2185L21.2892 17.2726L21.1813 17.2021L21.1446 17.1925L21.1283 17.2162L21.1262 17.2512L21.1307 17.2675L21.1058 17.2843L21.0524 17.3335L21.0226 17.3428L21.0039 17.3241L20.9855 17.2912L20.9607 17.2749L20.9284 17.3003L20.9675 17.3519L20.94 17.3962L20.887 17.4387L20.7855 17.5749L20.7556 17.6261L20.758 17.6614L20.7718 17.6991L20.742 17.7365L20.6938 17.7693L20.6477 17.793L20.595 17.7976L20.5415 17.788L20.4957 17.793L20.4567 17.8422L20.4336 17.8304L20.4087 17.828L20.3833 17.8329L20.3584 17.8422L20.3723 17.7978L20.4043 17.7484L20.4433 17.704L20.4963 17.6685L20.5102 17.6474L20.5306 17.6007L20.5353 17.5865L20.54 17.5467L20.5492 17.5302L20.5584 17.5256L20.5859 17.5232L20.5979 17.5184L20.6483 17.4457L20.6689 17.4342L20.6781 17.4526L20.7058 17.4833L20.7333 17.5023L20.7357 17.4716L20.7218 17.4342L20.7058 17.4059L20.7035 17.3755L20.7194 17.3357L20.7378 17.3191L20.7884 17.3074L20.8091 17.2887L20.7884 17.2841L20.7677 17.277L20.7493 17.2628L20.731 17.242L20.8509 17.0518L20.929 16.9746L20.9773 17.0237L21.0048 17.0024L21.0346 16.9698L21.0577 16.9296L21.0622 16.8922L21.0415 16.8686L21.0071 16.8617L20.9704 16.8665L20.9406 16.878L20.8321 16.9722L20.8046 17.0093L20.7655 17.0918L20.7378 17.1292L20.639 17.1855L20.5955 17.2207L20.5719 17.3099L20.4503 17.4037L20.34 17.5844L20.2937 17.617L20.0128 17.7534L19.6449 17.8282L19.2511 17.9289L19.2718 17.9572L19.2694 17.9805L19.2511 17.9949L19.2212 18.0018L19.2188 17.9359L19.1821 17.9313L19.1339 17.9596L19.0972 17.9876L19.12 18.0368L19.1064 18.0909L19.0697 18.1353L18.9725 18.1938L18.9477 18.2008L18.9269 18.1984L18.874 18.1845H18.8512L18.8029 18.1891L18.5842 18.1637L18.536 18.1776L18.5195 18.2056L18.575 18.2529L18.5957 18.2035L18.6348 18.213L18.667 18.2529L18.6691 18.295L18.6393 18.3044L18.5957 18.2972H18.5499L18.5263 18.3327L18.4918 18.3162L18.4669 18.2996L18.474 18.2386L18.4257 18.2106L18.366 18.225L18.3453 18.2858L18.3592 18.3163L18.4097 18.3561L18.4189 18.3796L18.4027 18.3959L18.3361 18.382L18.3039 18.3866L18.3062 18.3703L18.3133 18.361L18.1819 18.3585L18.0623 18.4264L18.0045 18.5417L18.0716 18.6846L18.0393 18.6961L17.9907 18.6635L17.9333 18.612L17.8782 18.5767L17.8533 18.6072L17.8371 18.6493L17.8417 18.6822L17.9219 18.6939L17.9406 18.7289L17.9335 18.7666L17.9128 18.7901L17.89 18.776L17.8625 18.741L17.8326 18.7151L17.798 18.729L17.7888 18.7618L17.8137 18.8419L17.816 18.8793L17.7513 18.8539L17.6709 18.8515L17.6087 18.882L17.5995 18.9546H17.4819L17.4292 19.011L17.3739 19.2289L17.367 19.2452L17.3463 19.2666L17.3372 19.2805L17.3348 19.29L17.3327 19.3154V19.3274L17.2842 19.4235L17.2774 19.4515L17.3028 19.5194L17.3877 19.5805L17.3901 19.6439L17.4291 19.6367L17.5443 19.5828L17.5559 19.5711L17.5788 19.5404L17.5974 19.5265L17.6273 19.5193L17.6501 19.5243L17.6708 19.5193L17.6868 19.4819L17.6501 19.4491L17.6317 19.4397L17.6086 19.4349L17.6041 19.4141L17.6592 19.3529L17.6914 19.3297L17.742 19.3131L17.7907 19.3083L17.8573 19.3131L17.9079 19.3297L17.9123 19.3601L17.9286 19.3764L17.9331 19.3857L17.9378 19.3975L17.8942 19.4116L17.6089 19.606L17.5722 19.644L17.655 19.6392L17.9608 19.4585L18.3824 19.3551L18.3776 19.3345L18.3111 19.3366L18.1405 19.4001L18.0856 19.3838L18.0879 19.3346L18.1474 19.3039L18.2789 19.2711L18.5108 19.1234L18.7456 19.0457L18.7922 19.0153L18.8656 18.9402L19.0058 18.8676L19.0288 18.8489L19.0545 18.8067L19.0728 18.7877L19.1143 18.776L19.2246 18.7831L19.2796 18.7783L19.31 18.757L19.3031 18.7266L19.2865 18.694L19.2936 18.6635L19.3216 18.6494L19.3514 18.6518L19.3834 18.6588H19.4111L19.4387 18.6495L19.5328 18.5979L19.5559 18.5627L19.5791 18.5512L19.7261 18.5063L19.7722 18.4783L19.8209 18.4289L19.8484 18.4172L19.9106 18.4359H19.9405L19.9863 18.415L20.0138 18.3798V18.3376L19.9795 18.2932L20.062 18.2767L20.3109 18.1736L20.3664 18.1619L20.3528 18.1923L20.3133 18.223L20.2052 18.2817L20.1914 18.2887L20.1866 18.3002L20.1958 18.3167L20.212 18.3239L20.2212 18.3167L20.228 18.3026L20.2395 18.2932L20.2625 18.2841L20.4766 18.1245L20.6149 18.0588L20.6907 17.9787L20.7114 17.9483L20.7046 17.9202L20.6815 17.8949L20.6676 17.8668L20.67 17.8386L20.6954 17.8223L20.7573 17.8129L20.7872 17.8246L20.794 17.8572L20.7781 17.9135L20.8216 17.8948L20.891 17.827L20.9644 17.7889L21.0792 17.7024L21.2589 17.5007L21.3925 17.4231L21.5396 17.2943L21.6871 17.2145L21.9265 16.9755L21.9632 16.9494L21.9908 16.9213L22 16.8882L21.9586 16.8854ZM21.482 16.4304L21.5119 16.4211L21.5417 16.3976L21.5899 16.3342L21.625 16.2989L21.6318 16.2968L21.6387 16.2896L21.6434 16.2757L21.466 16.346L21.4338 16.374L21.4293 16.4138L21.45 16.4304H21.482ZM9.99168 9.67101L10.01 9.67798L10.0611 9.65471L10.1321 9.57006L10.1782 9.53024L10.1758 9.51851L10.1688 9.50919L10.1528 9.49531H10.1392L10.1253 9.50919L10.1046 9.52092L10.0771 9.5116L10.0564 9.53963L10.003 9.57006L9.98254 9.59543L9.97781 9.61895L9.98018 9.64748L9.99168 9.67101ZM10.2173 9.42696L10.2264 9.45524L10.2309 9.49049L10.254 9.51401L10.2723 9.50469L10.3257 9.43418L10.3624 9.40831L10.4039 9.36133L10.4382 9.30281L10.4589 9.24194L10.4633 9.23496V9.22564L10.4612 9.20909L10.4313 9.21841L10.413 9.23712L10.3831 9.29108L10.3624 9.24891L10.3393 9.27478L10.3049 9.37332L10.2863 9.35892L10.291 9.35195L10.2934 9.34954L10.2957 9.34713L10.2978 9.33324L10.2698 9.34022L10.2491 9.34954L10.2355 9.36824L10.2285 9.39196L10.2216 9.38955L10.2124 9.39196L10.1985 9.39437L10.1826 9.40134L10.1872 9.42486L10.2173 9.42696ZM9.99853 10.4825L10.0122 10.4097V10.3744L9.98726 10.3768L9.95056 10.4027L9.923 10.4312L9.89077 10.4756L9.88393 10.5111L9.91143 10.607L9.978 10.5274L9.99853 10.4825ZM17.3374 18.356L17.3214 18.2761L17.2266 18.0256L17.2038 17.8916L17.1876 17.8376L17.1556 17.7906L17.112 17.758L17.0662 17.7322L17.0295 17.6993L16.988 17.6008L16.9714 17.5797L16.9577 17.5543L16.9554 17.5095L16.9622 17.4815L16.9809 17.4532L17.0157 17.4088L17.0344 17.4675L17.0275 17.5215L17.032 17.5757L17.0849 17.6318L17.1769 17.6809L17.2112 17.7068L17.246 17.7466L17.2945 17.8454L17.3312 17.9578L17.3886 18.2062L17.3955 18.2696L17.391 18.401L17.4025 18.5323L17.3747 18.6683L17.3794 18.7364L17.3747 18.7834L17.2966 19.0507L17.2921 19.1118L17.299 19.1772L17.3129 19.2429L17.3588 19.189L17.391 18.9919L17.4209 18.9099L17.4759 18.8608L17.5568 18.8231L17.6417 18.7996L17.713 18.795L17.6968 18.7692L17.6509 18.7174L17.6373 18.6941L17.6441 18.6637L17.669 18.6519L17.6965 18.6471L17.7059 18.6308V18.5746L17.7242 18.5181L17.8004 18.3821L17.8188 18.3587L17.8437 18.3448L17.8942 18.3331L17.899 18.3189L17.9312 18.2365L17.9357 18.2039L17.9265 18.1922L17.899 18.178L17.9173 18.1527L17.9242 18.1457L17.9105 18.1246L17.8922 18.1011L17.8828 18.0917L17.876 18.0893L17.8623 18.0848L17.8531 18.0775L17.7748 18.0025L17.7009 17.9273L17.6826 17.911L17.7101 17.8805L17.7954 17.794L17.9058 17.6811L18.0233 17.5617L18.1198 17.4631L18.1496 17.4279L18.1038 17.3857L18.0602 17.3413L18.0144 17.2946L17.9542 17.2287L17.945 17.1725L17.9201 17.0294L17.897 16.8863L17.8722 16.7456L17.8468 16.6025L17.8239 16.4618L17.7986 16.3187L17.7755 16.1782L17.7498 16.0351L17.725 15.8942L17.7019 15.7513L17.677 15.6106L17.6515 15.4678L17.6288 15.3268L17.6033 15.1837L17.5784 15.043L17.5554 14.9023L17.4768 14.8436V14.7851L17.4816 14.6654L17.4884 14.4334L17.5025 13.969L17.5117 13.7366L17.5188 13.5046L17.5256 13.2744L17.5325 13.0426L17.5395 12.8103L17.5416 12.735L17.5671 12.6765L17.5188 12.6017L17.461 12.5099V12.3975L17.454 12.3459L17.4495 12.3131L17.4426 12.2919L17.4288 12.2285L17.408 12.1303L17.3805 12.0035L17.3483 11.8555L17.3116 11.6865L17.2725 11.5084L17.1917 11.1402L17.1526 10.9621L17.1159 10.7954L17.0813 10.6475L17.0537 10.5212L17.033 10.4226L17.0194 10.3615L17.0147 10.338L17.001 10.2725L16.9775 10.2538L16.9526 10.2373L16.9388 10.2327L16.9139 10.2113L16.8563 10.1128L16.8426 10.0987L16.8264 10.0869L16.8077 10.0848H16.771L16.755 10.0894L16.7388 10.0942L16.7247 10.1035L16.7132 10.1128L16.704 10.1245L16.6972 10.1408L16.6948 10.1574L16.6972 10.2138L16.6948 10.2328L16.688 10.2467L16.681 10.2608L16.6603 10.2862L16.6375 10.3027L16.6304 10.3073H16.6235L16.6167 10.3003L16.5936 10.2749L16.5752 10.2445L16.5614 10.209L16.5454 10.1433L16.5409 10.1083V10.08L16.5868 9.75426V9.72953L16.5775 9.74582L16.5568 9.65211L16.5477 9.62599L16.5247 9.60272L16.4624 9.5629L16.4438 9.53246L16.4417 9.49721L16.4485 9.43634L16.4461 9.39868L16.4325 9.36558L16.4118 9.33755L16.3727 9.29774L16.3405 9.2486L16.3175 9.19705L16.2784 9.0398L16.2763 8.97893L16.2693 8.94393L16.2672 8.93911L16.2464 8.92282L16.2302 8.92954L16.2091 8.96023L16.2022 8.99307L16.1608 8.87101L16.1655 8.54955L16.1196 8.45127L16.17 8.40213L16.2854 8.19333L16.2532 8.15808L16.2301 8.12764L16.2142 8.08764L16.1862 8.00324L16.1447 7.90496L16.1287 7.88366L16.1149 7.86977L16.1056 7.8602L16.0711 7.69623L16.0598 7.66339L16.0344 7.67036L16.0252 7.72432L16.0276 7.79216L16.0391 7.84397L16.016 7.80871L16.0045 7.7687L16.0024 7.72673L16.0092 7.68691V7.64475L15.9885 7.60734L15.933 7.54621L15.9631 7.50139L15.9678 7.44984L15.9443 7.41002L15.8916 7.40304L15.8686 7.38193L15.8387 7.33013L15.8159 7.269L15.8088 7.22918L15.7951 7.23159V7.20807L15.788 7.18005L15.7744 7.15678L15.7537 7.13325L15.7812 7.09584L15.7788 7.05101L15.749 6.9736L15.7469 6.91019L15.7655 6.87976H15.793L15.8253 6.92414L15.8389 6.93587H15.8551L15.862 6.91235L15.8551 6.88191L15.8412 6.86321L15.8253 6.85148L15.7883 6.81863L15.7723 6.81147L15.7655 6.80215L15.7631 6.76474L15.7722 6.73405L15.7861 6.72707L15.7997 6.72466L15.8136 6.70812L15.8272 6.64744L15.8205 6.60977L15.7929 6.5839L15.7538 6.56063L15.7355 6.52779L15.724 6.47364L15.7192 6.41753L15.7263 6.33072L15.7056 6.22262L15.7008 6.17589L15.7079 6.16872L15.7192 6.16657L15.7307 6.15484L15.7378 6.12199L15.7331 6.09397L15.7215 6.06569L15.6967 6.02352L15.7011 6L15.6157 6.02352L15.397 6.07983L15.1761 6.1362L14.9578 6.1899L14.7369 6.24646L14.5182 6.30276L14.2973 6.35672L14.0785 6.41283L13.8574 6.46679L13.6397 6.52316L13.4186 6.57712L13.1998 6.63108L12.979 6.68504L12.7581 6.73874L12.7211 6.74356L12.6569 6.76011L12.3693 6.79295L12.3298 6.80468L12.2954 6.82605L12.2265 6.8963L12.107 6.97353L12.0742 7.00156L11.994 7.09768L11.9595 7.1238L11.8491 7.18233L11.5777 7.43792L11.4509 7.61412L11.246 7.89774L11.0273 8.20031L10.809 8.50047L10.7236 8.69069L10.6614 8.8007L10.7005 8.83811L10.7259 8.88991L10.7419 8.94171L10.7282 8.98844L10.6038 9.11284V9.12483L10.6062 9.14328V9.16198L10.6017 9.17853L10.5947 9.18551L10.4862 9.25817L10.4794 9.28169L10.4634 9.31454L10.2244 9.62618L9.96207 9.81868L9.63296 10.1801L9.62145 10.2271L9.64683 10.2905L9.68117 10.3046L9.72472 10.3068L9.77107 10.3348L9.78942 10.3652V10.3911L9.78495 10.4122L9.79409 10.4357L9.81481 10.4475H9.83553L9.84915 10.429V10.3935L9.86066 10.3491L9.99168 10.246L10.0192 10.2813L10.1069 10.246L10.146 10.2719L10.1321 10.2906L10.1276 10.3023V10.3422L10.1391 10.321L10.1551 10.3023L10.1738 10.2906L10.1945 10.2836L10.1898 10.3256L10.1738 10.3704L10.1489 10.41L10.096 10.4524L10.0661 10.4946L10.0501 10.5368L10.0661 10.5485L10.2063 10.5181L10.2453 10.4946L10.294 10.4265L10.3284 10.4051H10.3674L10.3881 10.4265L10.3905 10.4617L10.3718 10.5042L10.342 10.5295L10.2702 10.5575L10.2473 10.595L10.2403 10.6419L10.245 10.6793V10.7194L10.2196 10.7736L10.1394 10.8764L10.1232 10.9234L10.0519 10.8953L10.0613 10.874L10.0681 10.8086L9.9686 10.8858L9.94372 10.9186L9.92748 10.9729L9.94583 10.9916L9.98279 10.9985L10.024 11.0244L10.0406 11.0361L10.075 11.0503L10.0889 11.062L10.1004 11.0831L10.1049 11.1064L10.114 11.1275L10.1554 11.179L10.1945 11.2565L10.2175 11.292L10.2083 11.355L10.2196 11.4231L10.245 11.4934L10.2749 11.5617L10.2845 11.5145L10.3005 11.4821L10.3236 11.4677L10.3556 11.4773L10.289 11.6341L10.2914 11.7044L10.3626 11.7353L10.328 11.7842L10.2609 11.9086L10.2196 11.9417L10.0749 12.0051L10.0147 12.0073L9.91329 11.9931L9.87422 12.007L9.78221 12.1501L9.74488 12.1923L9.53335 12.3565L9.45944 12.4361L9.39723 12.5303L9.33502 12.741L9.27311 12.7177L9.23808 12.7153L9.23124 12.7525L9.22203 12.7666L9.08889 12.8654L8.86542 12.9637L8.85628 12.9757L8.84943 13.0035L8.8518 13.0269L8.85858 13.0438V13.06L8.8541 13.0812L8.85621 13.0905L8.8541 13.0975L8.83338 13.1094L8.81266 13.1164L8.78964 13.114L8.76893 13.1023L8.74827 13.0833L8.75064 13.0715L8.75748 13.0392L7.87889 13.1844L7.7801 13.2265L7.5155 13.3886L7.41179 13.4097L7.31063 13.3862L7.11963 13.2757L7.10576 13.2733L7.05281 13.2711L7.04597 13.2385L6.98376 13.2241L6.14349 13.2409L5.87883 13.3392L5.52247 13.3603L4.83862 13.6065L4.70548 13.7075L4.46838 13.7962L4.19694 13.9674L4.04706 14.0237L4.06778 14.0753L4.13037 14.345L4.13485 14.3779L4.13721 14.4179L4.13255 14.4459L4.12334 14.4713L4.11886 14.5041L4.12801 14.5489H4.13037L4.23128 14.5907L4.49146 14.5695L4.56487 14.6355L4.56724 14.7036L4.50303 14.8019L4.496 14.875L4.51218 14.9003L4.56039 14.9286L4.57402 14.9452L4.61539 15.0765L4.63654 15.1067L4.70075 15.1891L4.72147 15.2244L4.73067 15.2498L4.74455 15.32L4.75139 15.3955L4.73988 15.4541L4.71002 15.4984L4.67095 15.5406L4.50745 15.6533L4.43167 15.7238L4.38345 15.8126L4.35546 15.9346L4.32771 15.9933L4.28416 16.0262L4.27502 16.0401L4.252 16.1293L4.23333 16.1811L4.22419 16.1952L4.19669 16.2161L4.0536 16.2911L4.01925 16.3661L3.91131 16.4668L3.80736 16.5351L3.78452 16.5538L3.77301 16.5771L3.75914 16.6099L3.74079 16.6406L3.67888 16.6874L3.59607 16.8516L3.48079 16.9456L3.45093 16.9968L3.4187 17.0393L3.27119 17.128L3.12418 17.2971L3.06396 17.3392L3.02489 17.386L3 17.4001L3.00237 17.4071L3.01836 17.4943L3.03434 17.5831L3.05058 17.6719L3.06657 17.7613L3.083 17.85L3.09923 17.9388L3.11522 18.028L3.13121 18.1148L3.14987 18.2205L3.2348 18.2036L3.54767 18.143L3.86335 18.0843L4.17859 18.0236L4.49146 17.9646L4.80664 17.9037L5.11951 17.8403L5.43494 17.7792L5.748 17.7158L6.06299 17.6549L6.37586 17.5919L6.68917 17.5285L7.00435 17.4651L7.31722 17.4017L7.63004 17.336L7.94316 17.273L8.25859 17.207L8.57146 17.1413L8.88452 17.0757L9.1974 17.0076L9.51027 16.9421L9.82358 16.874L10.1365 16.8059L10.4493 16.7378L10.7622 16.6697L11.0755 16.6019L11.3884 16.5316L11.6989 16.4635L12.0117 16.3933L12.3248 16.3228L12.6383 16.2546L12.9488 16.182L13.2616 16.1113L13.3122 16.0995L13.3397 16.0926L13.3489 16.135L13.4136 16.163L13.4917 16.1793L13.547 16.2028L13.5745 16.2546L13.5952 16.3294L13.6227 16.3928L13.669 16.4137L13.7909 16.3622L13.8208 16.367L13.883 16.3974L13.9501 16.4044L13.9959 16.454L14.019 16.4608L14.051 16.4656L14.0488 16.4963L14.0098 16.5734L14.0648 16.5897L14.1062 16.5945L14.1406 16.6157L14.1664 16.6787V16.7096L14.1406 16.7422L14.1382 16.7729L14.1963 16.8782L14.2099 16.9416L14.2306 17.101L14.2445 17.1314L14.2812 17.1525L14.4539 17.373L14.4929 17.4129L14.5412 17.4387L14.6491 17.4411L14.6864 17.4622L14.7163 17.4905L14.7554 17.5114H14.8128L14.9233 17.4761L14.9763 17.4929L15.0106 17.5138L15.036 17.509L15.0567 17.4929L15.0796 17.4785L15.1003 17.4857L15.1165 17.5066L15.1464 17.5514L15.1739 17.5749L15.2249 17.631L15.2498 17.6897L15.51 17.7741L15.7699 17.8561L16.0299 17.9405L16.2924 18.0229L16.5523 18.1071L16.8146 18.1891L17.0748 18.2715L17.3374 18.356ZM4.28454 14.8194L4.30942 14.8331L4.34849 14.8686L4.39503 14.8966H4.4341L4.51902 14.6902V14.6498L4.49364 14.6265L4.4318 14.6174L4.39273 14.6081L4.3554 14.6196L4.31844 14.6383L4.27726 14.6498L4.28858 14.6922L4.27726 14.8L4.28454 14.8194Z" fill="#550000"/>
</svg>
