<svg width="26" height="26" viewBox="0 0 26 26" fill="none" xmlns="http://www.w3.org/2000/svg">
<circle cx="13" cy="13" r="13" fill="#F8F3ED"/>
<path d="M17.7617 17.3017L17.7515 17.4805L17.8511 17.4226L17.9603 17.3753L17.9949 17.4123L18 17.5069L17.9847 17.6064L17.975 17.6434L17.9602 17.7638L17.8113 18.2526L17.7665 18.5158L17.7563 18.6683L17.7761 18.7784L17.6114 18.8735H17.5022L17.3238 18.8466L17.2643 18.8568L17.2195 18.8681L16.8013 19.2145L16.7565 19.2725L16.7368 19.3036L16.6874 19.4089L16.6626 19.4562L16.6128 19.5238L16.5681 19.55L16.5127 19.5661L16.4533 19.5715L16.374 19.5929L16.3243 19.6134L16.2897 19.6397L16.2695 19.666L16.2497 19.6922L16.2203 19.761L16.2055 19.7975L16.1852 19.8813L16.1755 20.0177L16.1653 20.0704L16.1306 20.1386L16.0809 20.1869L15.9919 20.239L15.9462 20.2755L15.9162 20.3126L15.8715 20.4178L15.8177 20.507L15.7629 20.5855L15.7284 20.6123L15.6785 20.6333L15.5698 20.6644L15.2162 20.7497L14.8691 20.8329L14.5205 20.9173L14.1724 21.0011L13.8248 21.0855L13.4762 21.1693L13.123 21.2531L12.776 21.3383L12.4273 21.4221L12.0798 21.5065L11.7317 21.5849L11.3831 21.6693L11.0309 21.7531L10.6823 21.8315L10.3342 21.9168L9.9865 21.9946H9.98085V22H9.97628V21.9946L9.89645 21.8109L9.76689 21.6949L9.50359 21.5327L9.44405 21.4693L9.40441 21.4113L9.36409 21.3383L9.32901 21.2379L9.30415 21.117L9.30925 21.0278L9.32403 20.9494L9.33923 20.8441L9.30415 20.5444L9.30925 20.4187L9.38398 20.3451L9.48814 20.271L9.50803 20.1447L9.45306 19.8353L9.44849 19.4351L9.42363 19.2777L9.35401 19.1097L9.33425 19.0313L9.29393 18.7472L9.31879 18.6999L9.33358 18.6634V18.6215L9.32336 18.5796L9.30361 18.5634L9.28788 18.5531L9.2782 18.5371L9.26813 18.4479L9.27323 18.3737L9.29407 18.3001L9.3286 18.2266L9.35858 18.0854L9.33371 17.9328L9.25308 17.6804L9.01464 16.5298L9 16.3461L9.02486 16.2354L9.15348 16.0303L9.1938 15.8939L9.20348 15.7519L9.17862 15.463L9.13897 15.2266L9.15375 15.1476L9.25845 15.0056L9.29877 14.9009L9.4919 14.5963L9.52188 14.475L9.52698 14.333L9.52188 14.1804L9.49701 14.0338L9.4919 13.8866L9.52698 13.7287L9.7302 13.1879V13.1352L9.69055 13.1083L9.63679 13.0772L9.60171 13.0245L9.60668 12.9144L9.72106 12.4832L9.73584 12.2522L9.7013 11.989L9.55695 11.4057L9.51274 11.0544L9.55695 10.7864L9.7013 10.5967L9.93045 10.4818L10.1687 10.4291L10.2775 10.376L10.3522 10.2868L10.4624 10.0398L10.5162 9.95054L10.8683 9.56701L10.9836 9.4832L11.0085 9.40961L11.0583 9.24739L11.1868 9.06273L11.2468 8.92067L11.2219 8.80036L11.1823 8.68487V8.54751L11.2219 8.50021L11.2813 8.48415L11.3351 8.4583L11.3599 8.37875L11.3452 8.31597L11.2954 8.25318L11.211 8.1796L10.9731 7.83868L10.9274 7.74364L10.8629 7.63355L10.7734 7.56537L10.7038 7.47034L10.6789 7.29689L10.7389 7.02941L10.8827 6.64587L11.0171 6.28336L11.0222 6.11049L10.9515 6.01545L10.8625 5.93704L10.7929 5.78988L10.7629 5.61103L10.7929 5.53262L10.8671 5.48532L10.8178 5.33276L10.8031 5.22267L10.8128 5.12224L10.9317 4.77578L10.942 4.6968L10.9317 4.56568L10.9368 4.4921L11.0125 4.21823V4.08711L10.917 4.03029L10.7782 3.99862L10.8128 3.94066L11.0074 3.83057L11.0573 3.75159L11.1513 3.53084L11.2159 3.43624L11.3149 3.37288L11.4043 3.36266L11.8622 3.49959L11.9862 3.50442L12.1112 3.4888L12.1854 3.42061L12.2749 3.15256L12.3247 3.03651L12.3643 3.0054L12.3694 3L12.4781 3.35186L12.5874 3.69889L12.6927 4.05118L12.8019 4.39707L12.9112 4.74453L13.0205 5.09639L13.1297 5.44341L13.235 5.7957L13.3442 6.14216L13.453 6.49445L13.5622 6.84148L13.6715 7.19334L13.7767 7.54562L13.886 7.89152L13.9953 8.24437L14.1045 8.5914L14.2133 8.94269L14.3235 9.29555L14.4327 9.64201L14.5369 9.99387L14.6513 10.3467L14.7605 10.698L14.8658 11.045L14.975 11.3973L15.0838 11.7492L15.193 12.1015L15.3023 12.4479L15.4126 12.8002L15.5219 13.1521L15.6312 13.5044L15.7399 13.8567L15.8492 14.2079L15.9137 14.4024L15.9437 14.6183L15.9696 14.7178L15.9793 14.8172V14.8483L15.9844 14.8962L15.9992 14.9541L16.0388 15.0438L16.0739 15.1539L16.0785 15.2323L16.0739 15.4105V15.4525L16.0887 15.5008L16.1035 15.5475L16.1431 15.6162L16.1828 15.6688L16.2325 15.7107L16.4207 15.8471L16.6401 16.0356L16.8433 16.2202L17.0619 16.2938L17.1022 16.3201L17.1367 16.362L17.1815 16.4512L17.1967 16.508L17.2064 16.566V16.7813L17.2164 16.8555L17.2363 16.892L17.3654 17.034L17.5834 17.1806L17.7581 17.302L17.7617 17.3017Z" fill="#550000"/>
</svg>
