<svg width="26" height="26" viewBox="0 0 26 26" fill="none" xmlns="http://www.w3.org/2000/svg">
<circle cx="13" cy="13" r="13" fill="#F8F3ED"/>
<path d="M11.8677 18.1127L11.975 18.2395L11.9497 18.2125L11.9296 18.2041L11.8492 18.1991L11.8005 18.1956L11.75 18.1923L11.6998 18.1888L11.6513 18.1873L11.6008 18.1838L11.5521 18.1805L11.5019 18.177L11.4534 18.1737L11.403 18.1702L11.3526 18.1668L11.3041 18.1635L11.2536 18.16L11.2051 18.1584L11.1547 18.1548L11.1045 18.1515L11.0558 18.148L11.0054 18.1447L10.9567 18.1411L10.9064 18.1376L10.8577 18.1343L10.8073 18.131L10.7588 18.1277L10.7085 18.1243L10.6582 18.121L10.6095 18.1175L10.5592 18.1142L10.5107 18.1108L10.4603 18.1075L10.4101 18.1044L10.3615 18.1011L10.3111 18.0976L10.2624 18.0943L10.2122 18.0908L10.1635 18.0874L10.113 18.0823L10.0643 18.079L10.0141 18.0756L9.96386 18.0723L9.91516 18.0688L9.86473 18.0655L9.81621 18.0618L9.76597 18.0583L9.71554 18.0533L9.66684 18.05L9.6166 18.0463L9.56808 18.043L9.51766 18.0396L9.46728 18.0365L9.41876 18.033L9.37005 18.0279L9.31963 18.0245L9.26939 18.0212L9.22068 18.0177L9.17026 18.0144L9.12156 18.011L9.07131 18.0059L9.02107 18.0024L8.97237 17.9991L8.92367 17.9957L8.87342 17.9906L8.82318 17.9872L8.77448 17.9839L8.72405 17.9788L8.67553 17.9753L8.67381 17.9923L8.67209 18.0076V18.0226L8.67037 18.0394L8.66882 18.0549V18.072L8.6671 18.087L8.66538 18.104L8.66365 18.1192V18.136L8.66211 18.1514L8.66039 18.1684V18.1836L8.65867 18.1989L8.65694 18.2158L8.6554 18.2309V18.2478L8.65368 18.2632L8.65195 18.2802V18.2954L8.65023 18.3123L8.64851 18.3273V18.3427L8.64697 18.3598L8.64524 18.3751V18.3919L8.64352 18.4071L8.6418 18.4239L8.64026 18.4393V18.4563L8.63853 18.4715L8.63681 18.4868V18.5037L8.63509 18.5203L8.63354 18.5359V18.5511L8.63182 18.5681L8.6301 18.5833L8.62838 18.6001V18.6154L8.62683 18.6325L8.62493 18.6478V18.663L8.62321 18.6798L8.62148 18.6951V18.7121L8.61976 18.7275L8.61822 18.7443V18.7595L8.61649 18.7764L8.61477 18.7917L8.61305 18.8085V18.8239L8.61151 18.8391L8.60978 18.8561V18.8713L8.60806 18.8881L8.60634 18.9034L8.60479 18.9205V18.9357L8.60307 18.951L8.60135 18.9678V18.983L8.59963 19L8.5175 18.9931L8.4352 18.988L8.35308 18.9815L8.27096 18.9745L8.18865 18.9695L8.10653 18.9628L8.02486 18.9559L7.94256 18.9491L7.86044 18.9424L7.77814 18.9374L7.6962 18.9306L7.6138 18.9239L7.53186 18.9171L7.44956 18.9104L7.36744 18.9035L7.28514 18.8966L7.20301 18.89L7.12071 18.8833L7.03859 18.8765L7 18.8732V18.8714V18.8697V18.868V18.8662V18.8647V18.8629L7.0336 18.46L7.06534 18.0569L7.09895 17.6555L7.131 17.2526L7.16442 16.8497L7.19617 16.4483L7.22959 16.0454L7.26165 15.6425L7.29507 15.2409L7.32681 14.838L7.36041 14.4367L7.39215 14.0339L7.42389 13.6305L7.4575 13.2293L7.49092 12.8264L7.52298 12.4251L7.55472 12.0235L7.58814 11.6207L7.62156 11.2194L7.65362 10.8162L7.68536 10.4148L7.71914 10.0136L7.75088 9.6107L7.7843 9.20946L7.81605 8.80785L7.84965 8.40661L7.88171 8.00501L7.91345 7.60377L7.94705 7.20253L7.98047 6.80111L8.01221 6.39987L8.04396 6L8.386 6.02889L8.72823 6.05608L9.07045 6.08136L9.41268 6.10837L9.75336 6.13382L10.0954 6.15928L10.4375 6.18299L10.7797 6.20689L11.1219 6.23061L11.4641 6.25414L11.8062 6.27612L12.1484 6.29635L12.4906 6.31677L12.8329 6.33719L13.1762 6.35651L13.5201 6.37482L13.8622 6.39369L14.2042 6.412L14.5464 6.42894L14.8887 6.44574L15.2309 6.46273L15.5729 6.47797L15.9169 6.49322L16.2589 6.50672L16.6012 6.52046L16.9451 6.53396L17.2873 6.54747L17.6294 6.55942L17.9716 6.57137L18.3154 6.58158L18.6576 6.5916L19 6.60181L18.9932 6.88448L18.9865 7.16906L18.9782 7.45172L18.9716 7.73649L18.8941 7.73475V7.77527L18.8925 7.84642L18.8824 8.163L18.8723 8.47822L18.8624 8.79481L18.8523 9.11139L18.8423 9.42647L18.8322 9.74306L18.8221 10.0596L18.8122 10.3749L18.8021 10.6914L18.7921 11.0082L18.782 11.3248L18.7736 11.6414L18.7635 11.9564L18.7534 12.273L18.7418 12.5898L18.7316 12.9066L18.7217 13.2231L18.7114 13.5398L18.7013 13.8565L18.6914 14.1731L18.6813 14.4899L18.6713 14.8065L18.6612 15.1231L18.6511 15.4398L18.6412 15.7566L18.6311 16.0732L18.6211 16.39L18.611 16.7066L18.6009 17.0249L18.591 17.3399L18.5809 17.6565L18.5708 17.975L18.1462 17.9631L17.7203 17.9493L17.2941 17.9358L16.8678 17.9208L16.4433 17.9055L16.0174 17.8886L15.5915 17.8715L15.167 17.8528L14.7407 17.8345L14.3164 17.8142L13.8905 17.794L13.466 17.7718L13.0397 17.7499L12.6154 17.7263L12.1891 17.7026L11.7646 17.677L11.7144 17.6737L11.6826 17.6719V17.711L11.7178 17.7957L11.7244 17.8447L11.7277 17.8973L11.7378 17.9378L11.7815 18.0107L11.7662 18.026L11.7781 18.053L11.7949 18.0734L11.8167 18.0886L11.8419 18.0938L11.8671 18.1121L11.8677 18.1127Z" fill="#550000"/>
</svg>
