<svg width="26" height="26" viewBox="0 0 26 26" fill="none" xmlns="http://www.w3.org/2000/svg">
<circle cx="13" cy="13" r="13" fill="#F8F3ED"/>
<path d="M17.4385 16.7005L17.4126 16.6811L17.3788 16.6851L17.3488 16.7102L17.3408 16.7545L17.3588 16.7796L17.3947 16.7893L17.4324 16.795L17.4602 16.8067L17.4722 16.7796L17.484 16.6175L17.4501 16.6855L17.4385 16.7005ZM17.5664 15.9381L17.5523 16.0061L17.5505 16.0836L17.5421 16.1512L17.5664 16.1146L17.5862 16.049L17.6042 15.9213L17.6083 15.9173H17.6142L17.6183 15.9133L17.6142 15.8999L17.5664 15.9381ZM18.3981 14.826L18.3226 14.8918L18.2848 14.9112L18.2489 14.9306L18.0056 15.1647L17.9434 15.2574L17.9192 15.3483L17.9471 15.3036L18.1288 15.064L18.1565 15.0466L18.2247 15.0137L18.3821 14.886L18.4278 14.8278L18.4339 14.824L18.4422 14.8221L18.4441 14.8181L18.4402 14.8066L18.3981 14.826ZM20.096 14.1047L20.0701 14.0913L19.9083 14.0697L19.8645 14.0794L19.8686 14.097L19.8965 14.1067L20.0144 14.1221L20.108 14.1646L20.1178 14.1723L20.1457 14.151L20.1298 14.1259L20.096 14.1047ZM19.679 14.0485L19.3341 14.1703L19.0066 14.3L18.953 14.3366L18.923 14.3829L19.4834 14.1277L19.5373 14.1103L19.8031 14.0736L19.799 14.0562L19.679 14.0485ZM20.6385 13.2786L20.6107 13.3095L20.6008 13.3346L20.5908 13.354L20.5131 13.4333L20.3413 13.7061L20.1757 14.1569L20.1617 14.238L20.1916 14.2844L20.1996 14.2109L20.3713 13.7178L20.4612 13.563L20.4951 13.5282L20.5369 13.4934L20.6205 13.358L20.6707 13.3095L20.6986 13.2305L20.6727 13.2479L20.6385 13.2786ZM20.9042 12.8415L20.8942 12.8511L20.8918 12.8762L20.8799 12.8976L20.8659 12.9148L20.862 12.9305L20.856 12.9692L20.8061 13.0505L20.7902 13.0833L20.8043 13.0813L20.8258 13.0254L20.9617 12.8821L20.9696 12.8783L20.9757 12.8743L20.9817 12.8686L20.9876 12.8589L20.9337 12.8435L20.9042 12.8415ZM21.257 12.5455L21.1596 12.6461L21.1053 12.6827L21.0535 12.6787L21.0496 12.7503L21.0416 12.7832L21.0216 12.8145L21.2231 12.6093L21.4028 12.499L21.4348 12.4507L21.4646 12.4256L21.4746 12.4102L21.4826 12.3888L21.4286 12.4371L21.257 12.5455ZM21.9453 11.4701L21.9414 11.2651L21.9096 11.1625L21.8399 11.0407L21.8219 10.9903L21.8039 10.9363L21.7716 10.8724L21.7298 10.8183L21.6839 10.793L21.668 10.8106L21.6918 10.8549L21.7477 10.9324L21.7636 10.9806L21.8615 11.1548L21.8992 11.2574L21.9152 11.3174V11.3464L21.8992 11.4081L21.8972 11.4392L21.9051 11.4683L21.9272 11.5148L21.9351 11.5418L21.9449 11.5998V11.6947L21.9569 11.7934L21.961 11.9229L21.9549 11.9579L21.9729 12.035L21.9272 12.0932L21.7898 12.1764L21.6699 12.2729L21.6619 12.2769L21.6578 12.2711L21.6539 12.2634L21.6459 12.2594L21.6359 12.2671L21.6339 12.2788L21.6359 12.2922L21.6339 12.2999L21.6259 12.3138L21.6239 12.3272L21.616 12.3369L21.596 12.3446L21.5798 12.3603L21.5639 12.3816V12.399L21.5859 12.401L21.6039 12.3933L21.6255 12.3643L21.6375 12.3544L21.6693 12.3389L21.7429 12.2848L21.7872 12.2674L21.859 12.2134L21.9266 12.2017L21.9482 12.194L21.98 12.1593L21.9921 12.1128L22 11.9077L21.9453 11.4701ZM21.3367 10.553L21.3009 10.5164L21.2929 10.4951L21.277 10.4854L21.2611 10.4777L21.2272 10.472L21.2093 10.4662L21.1893 10.4603L21.1695 10.4623L21.1515 10.4701L21.1374 10.4894L21.1456 10.5009L21.1615 10.5086L21.1774 10.5203L21.2012 10.5454L21.2768 10.5976L21.3026 10.6343L21.3242 10.6809L21.3487 10.7175L21.3844 10.7292L21.4244 10.7175L21.4283 10.7041L21.4223 10.679L21.4323 10.6286L21.3367 10.553ZM21.5707 10.7252L21.5804 10.7409L21.5984 10.7468L21.6422 10.7545L21.6622 10.7622L21.5622 10.6248L21.5164 10.5243L21.0596 10.0002L20.908 9.75819L20.8181 9.64587L20.8002 9.60733L20.7822 9.54724L20.7606 9.49683L20.7048 9.40035L20.5233 9.00178L20.5212 9L20.4914 9.00575L20.4635 9.0115L20.4655 9.01548L20.4674 9.02892L20.5153 9.11217L20.5512 9.19542L20.5948 9.24938L20.6128 9.2919L20.6566 9.34806L20.6709 9.37944L20.7227 9.54154L20.7527 9.60952H20.7486L20.7427 9.61528L20.7406 9.62495L20.7506 9.6364L20.7865 9.6615L20.8742 9.76211L20.9144 9.84139L20.962 9.909L21.0018 9.98075L21.0059 10.0466L21.01 10.0638L21.0357 10.1025L21.0577 10.1451L21.0815 10.1838L21.1199 10.2032L21.1396 10.1798L21.1635 10.1895L21.1876 10.2188L21.2073 10.2573L21.1596 10.2824H21.1416L21.1177 10.2593V10.3056L21.1457 10.3307L21.1814 10.3364L21.2055 10.3133L21.2193 10.3113L21.409 10.4721L21.4567 10.532L21.4826 10.6209L21.5042 10.6636L21.5581 10.6828L21.5665 10.7022L21.5707 10.7252ZM20.2677 9.11008L20.2795 9.14506L20.2957 9.17983L20.3434 9.18559L20.4311 9.16817L20.4513 9.15672L20.4474 9.13931L20.4329 9.11776L20.4211 9.09465L20.4031 9.02667V9.02489L20.3654 9.03258L20.3315 9.04032L20.3197 9.05773L20.2938 9.06547L20.2797 9.04978L20.1818 9.06897L20.1998 9.08853L20.2677 9.11008ZM21.0098 11.381L21.0455 11.4233L21.0873 11.437L21.1359 11.4042L21.1418 11.4118L21.1477 11.4176L21.1518 11.4253L21.1557 11.435L21.1419 11.4427L21.1155 11.4623L21.12 11.4797L21.1857 11.464L21.2136 11.4525L21.2334 11.4349L21.2354 11.4195L21.2255 11.3964L21.2234 11.375L21.2414 11.3636L21.2593 11.3559L21.2693 11.3442L21.2772 11.3308L21.2951 11.2707L21.2872 11.2456L21.2216 11.1837L21.1895 11.143L21.1857 11.1238L21.2354 11.1084L21.2894 11.0987L21.2933 11.0793L21.2794 11.0251L21.2614 10.9921L21.2217 10.9534L21.2097 10.9303L21.2117 10.8898L21.2214 10.8511L21.2294 10.8106L21.2194 10.7639L21.2056 10.7485L21.1577 10.7042L21.1497 10.6714L21.0118 10.5338L20.9363 10.4759L20.8523 10.443L20.8564 10.4681L20.8543 10.4914L20.8503 10.5146L20.8423 10.5377L20.8682 10.5319H20.892L20.9165 10.5396L20.9403 10.553L20.9026 10.5821L20.8544 10.5839L20.8047 10.5744L20.7588 10.5724L20.7768 10.6035L20.8047 10.6323L20.8345 10.6539L20.8824 10.6635L20.8922 10.6809V10.6982L20.8744 10.7098H20.86L20.8023 10.6924L20.7467 10.6441L20.7089 10.6188L20.6969 10.6305L20.6851 10.6538L20.6249 10.7155L20.6128 10.7406L20.6851 11.054L20.693 11.1412L20.6626 11.3577L20.6487 11.3616L20.6348 11.3442L20.6249 11.3308L20.6208 11.3211V11.3134L20.5631 11.3385L20.5074 11.354L20.4515 11.3443L20.3993 11.2883L20.4495 11.2765L20.5254 11.2861H20.593L20.6208 11.2399L20.6069 11.2339L20.5769 11.2086L20.5592 11.1798L20.579 11.1604L20.587 11.143L20.5708 11.1161L20.5428 11.089L20.5213 11.0774L20.5374 11.0756L20.5056 11.0794H20.4679L20.4318 11.0715L20.4018 11.06L20.3802 11.0367L20.4061 11.0309L20.4681 11.0386L20.526 11.0076L20.5219 10.94L20.4801 10.8743L20.4241 10.8453L20.42 10.8278L20.4642 10.8084L20.494 10.762L20.5099 10.7021L20.516 10.6441L20.4881 10.6558L20.42 10.6981L20.4179 10.6072L20.4359 10.5781L20.4881 10.5938L20.4842 10.5511L20.4338 10.5222L20.3682 10.5068L20.3142 10.5048L20.1147 10.5627L19.9371 10.6558L19.8973 10.7041L19.9232 10.7272L19.973 10.7427L20.0072 10.7697L19.953 10.7774L19.8535 10.7561L19.8056 10.7581L19.784 10.7717L19.7697 10.7926L19.7556 10.8025L19.7377 10.7887L19.7338 10.7752V10.7521L19.7317 10.725L19.7179 10.7019L19.6423 10.6962L19.5345 10.7424L19.4309 10.8104L19.3731 10.8666L19.357 10.8706L19.2968 10.8647L19.0017 10.9246L18.9977 10.9072L19.0495 10.7889L19.0536 10.7504L19.0217 10.7524L19.0097 10.733L19.0038 10.7022L18.9918 10.6733L18.9702 10.6559L18.9482 10.642L18.9267 10.6229L18.8967 10.553L18.8544 10.5028L18.8426 10.4758L18.8067 10.3075L18.8046 10.2533L18.8146 10.2031L18.8385 10.1487L18.8664 10.1082L18.8744 10.0851L18.8723 10.0503L18.8585 10.0294L18.8107 9.9944L18.7907 9.96731L18.8426 9.975L18.8887 9.99241L18.9166 10.0351L18.9127 10.1083L18.9028 10.1354L18.8785 10.1762L18.8744 10.205L18.8685 10.325L18.8967 10.3889L18.9705 10.4935L19.0321 10.6249L19.0839 10.6619L19.1341 10.6503L19.1561 10.5842L19.182 10.5999L19.2616 10.6814L19.2895 10.6871L19.3293 10.6814L19.4015 10.662L19.4512 10.6367L19.5131 10.5922L19.5712 10.534L19.6051 10.4743L19.5835 10.4781L19.5774 10.48L19.5715 10.4607L19.6033 10.4356L19.8109 10.3561L19.805 10.3367H19.7628L19.6989 10.3233L19.6371 10.3023L19.6094 10.281L19.5932 10.2618L19.5073 10.2367L19.4873 10.221L19.4658 10.1997L19.4237 10.1455L19.4676 10.1629L19.5134 10.188L19.5552 10.2017L19.5876 10.1863L19.6356 10.2327L19.7032 10.2578L19.9486 10.3061H20.0025L20.0523 10.2852L20.0505 10.2698L20.0025 10.2447L19.9046 10.1574L19.8767 10.1418L19.8551 10.138L19.8312 10.1263L19.8092 10.107L19.7954 10.0861L19.7854 10.0513H19.7993L19.8392 10.0764L19.9108 10.1092L19.9308 10.1132L19.9488 10.1247L19.9965 10.1751L20.0726 10.2002L20.0964 10.2041L20.1185 10.2022L20.1841 10.1847L20.18 10.1693L20.1662 10.1731L20.1623 10.1537L20.2384 10.1306L20.2599 10.117L20.2997 10.0784L20.3097 10.0571L20.2838 10.0553L20.256 10.0476L20.2218 9.99121L20.1639 9.97578L20.1341 9.95068L20.0882 9.89651L20.0504 9.87339L20.0003 9.84829L19.9463 9.83088L19.8966 9.82889L19.8866 9.81744L19.8905 9.7846L19.9025 9.74962L19.9204 9.7322L19.9484 9.73419L19.9523 9.7516L19.9423 9.77252L19.9245 9.78617L20.0443 9.79386L20.082 9.80552L20.1339 9.8326L20.1796 9.86722L20.1995 9.8769L20.2418 9.87888L20.2617 9.88856L20.3295 9.95439L20.3751 9.98326L20.423 9.98917L20.4692 9.98519L20.6286 9.99884L20.6245 9.98143L20.5907 9.97552L20.5548 9.96208L20.4891 9.92135L20.5129 9.89823L20.5011 9.85948L20.4752 9.81519L20.4348 9.72405L20.411 9.7047L20.3833 9.69324L20.3553 9.65842L20.3971 9.65251L20.433 9.66417L20.5011 9.70077L20.4832 9.75307L20.4991 9.77247L20.533 9.78016L20.5689 9.7938L20.5786 9.80923L20.5886 9.84583L20.5966 9.86126L20.6127 9.87093L20.6684 9.8998L20.7047 9.93458L20.7227 9.96187L20.7345 9.98499L20.7324 10.0065L20.7285 10.0296L20.7306 10.0528L20.7465 10.0737L20.8181 10.1375L20.8619 10.1686L20.9021 10.1783L20.938 10.1547L20.9182 10.1124L20.876 10.0622L20.8481 10.0158L20.8302 9.97918L20.6484 9.71008L20.6325 9.67923L20.6086 9.64263L20.5169 9.55347L20.489 9.51885L20.4731 9.40082L20.4531 9.33284L20.4268 9.34053L20.4229 9.39491L20.4149 9.42775H20.407L20.417 9.45286L20.4309 9.47027L20.4492 9.48747L20.4731 9.50489L20.4209 9.48397L20.3532 9.42979L20.3134 9.37384L20.3473 9.34853L20.2934 9.32934L20.2377 9.29634L20.1892 9.25383L20.1614 9.20739L20.1535 9.16509V9.11468L20.1474 9.08383L20.1435 9.07771L20.0876 9.08958L19.7741 9.15541L19.4034 9.22862L19.032 9.30215L18.6609 9.37572L18.288 9.44893L17.9151 9.52026L17.5441 9.59201L17.1729 9.66339L16.7997 9.73497L16.429 9.80478L16.0576 9.87418L15.6844 9.94399L15.3116 10.012L14.9405 10.0796L14.5673 10.147L14.1963 10.2128L13.8231 10.2787L13.4499 10.3443L13.0771 10.4101L12.7039 10.4742L12.3307 10.5378L11.9575 10.6017L11.5848 10.6637L11.2115 10.7254L10.8383 10.7874L10.4653 10.8492L10.0921 10.9093L9.71686 10.9673L9.34405 11.0274L8.97086 11.0873L8.59561 11.1433L8.22286 11.2012L8.17512 11.2089L8.15894 11.2071L8.14896 11.2012L8.131 11.1743L8.05737 11.3521L8.0474 11.408L8.05333 11.4197L8.09513 11.4759L8.09923 11.499L8.08127 11.5996L8.04535 11.7157L8.04146 11.741V11.7584L8.0474 11.7681L8.07717 11.8086L8.11309 11.8432L8.12108 11.8549L8.129 11.8665L8.12517 11.8762L8.1152 11.8802L8.0475 11.8822L7.9276 11.8626L7.91762 11.8646L7.90764 11.8703L7.75835 12.006L7.70818 12.0619L7.70026 12.0736L7.55279 12.5028L7.53893 12.5281L7.52097 12.5495L7.50096 12.5629L7.47075 12.5979L7.45279 12.6153L7.43483 12.625L7.42097 12.6287H7.40301L7.36914 12.625L7.35322 12.621L7.3412 12.6153L7.32933 12.6093L7.31935 12.5999L7.31326 12.5902L7.30937 12.5785L7.30527 12.5649L7.29939 12.5532L7.29346 12.5436L7.28553 12.5359L7.27555 12.5301L7.2631 12.5264H7.24923L7.21924 12.5301H7.20333L7.19152 12.5264L7.16951 12.5145L7.1577 12.5125L7.14977 12.5145L7.13774 12.5185L7.11617 12.5321L7.05641 12.5903L7.046 12.598L7.0001 12.6037L6.98213 12.6077L6.93235 12.6423L6.86078 12.6734L6.84082 12.6848L6.80846 12.7081L6.77459 12.7429L6.71277 12.8301L6.69481 12.8629L6.67685 12.9285L6.67092 12.946L6.63909 13.0021L6.62502 13.0215L6.61321 13.0351L6.60522 13.0428L6.59686 13.0486L6.50711 13.1239L6.48915 13.1356L6.47529 13.1413L6.46142 13.1433L6.44735 13.1413L6.43348 13.1374L6.42146 13.1316L6.40959 13.122L6.40166 13.1143L6.39368 13.1046L6.37534 13.0718L6.37124 13.0583L6.36919 13.0429L6.37124 13.0235L6.37755 12.9885L6.3796 12.9771L6.37755 12.9694L6.37329 12.9636L6.32944 12.919L6.31946 12.9132L6.30355 12.9112L6.28375 12.9189L6.19017 12.9848L6.1398 13.0121L6.00442 13.1123L6.00258 13.1163L5.99848 13.124V13.1336L6.00442 13.1702L6.00258 13.1839L5.99848 13.1953L5.97691 13.2267L5.97081 13.2498L5.96898 13.2653L5.959 13.2862L5.94697 13.2958L5.93311 13.3016L5.92065 13.2998L5.89476 13.2844L5.86294 13.267L5.83316 13.2593L5.81315 13.2573L5.79158 13.2611L5.75954 13.2727L5.74363 13.2844L5.73182 13.2958L5.72772 13.3075L5.72383 13.319L5.71973 13.3344V13.3501L5.72178 13.3635L5.72567 13.377L5.73176 13.3888L5.75765 13.4274L5.75949 13.4412L5.7556 13.4566L5.73559 13.4913L5.73171 13.5029V13.53L5.72966 13.5435L5.72173 13.5686L5.67955 13.6539L5.6357 13.7253L5.61979 13.7388L5.60776 13.7447L5.57389 13.7407L5.48192 13.7464L5.45555 13.7429L5.44352 13.7467L5.43376 13.7526L5.32815 13.8261L5.25593 13.859L5.24002 13.8689L5.2282 13.8783L5.18435 13.9383L5.16439 13.9537L5.11256 13.9828L5.09638 13.9924L5.0864 14.0039L5.08047 14.0156L5.04066 14.066L5.00641 14.1318L4.99233 14.1395L4.97642 14.1432L4.96024 14.1415L4.94045 14.1432L4.91844 14.151L4.90048 14.1626L4.87276 14.1974L4.85274 14.2263L4.82885 14.2516L4.71893 14.3174L4.70097 14.3329L4.68894 14.3465L4.67098 14.3774L4.62918 14.4297L4.61531 14.4431L4.60328 14.4508L4.46542 14.4992L4.44924 14.5012L4.43333 14.4992L4.42152 14.4935L4.40949 14.4858L4.39746 14.4781L4.38155 14.4761L4.36138 14.4781L4.31958 14.4973L4.29552 14.5032L4.27572 14.5069L4.2637 14.505H4.24983L4.23576 14.5089L4.22189 14.5129L4.20189 14.5246L4.19395 14.5266L4.18603 14.5285L4.10793 14.5323L4.09406 14.5343L4.05226 14.5517L4.01251 14.5726L3.96456 14.6112L3.93479 14.6422L3.9144 14.6557L3.89822 14.6653L3.83053 14.6907L3.79665 14.7081L3.77869 14.7215L3.76871 14.7334L3.74282 14.8087L3.73484 14.8222L3.72098 14.8431L3.70712 14.8547L3.62082 14.8975L3.60286 14.9109L3.58899 14.9263L3.54698 14.9845L3.5431 14.9981L3.53899 15.0076V15.027L3.55518 15.0598L3.55701 15.0715V15.0869L3.55518 15.1006L3.55108 15.114L3.52109 15.1721L3.5172 15.1875L3.51127 15.2126V15.2283L3.51925 15.3112L3.51311 15.3347L3.49719 15.3598L3.46111 15.4063L3.44315 15.4272L3.42907 15.4389L3.42114 15.4408L3.36548 15.4485L3.24984 15.4774L3.21747 15.4814H3.20361L3.19159 15.4774L3.17977 15.4716L3.15976 15.4562L3.1459 15.4542L3.12794 15.4562L3.09612 15.4716L3.07993 15.4833L3.06812 15.4948L3.03425 15.5355L3.01386 15.5703L3.00388 15.5956L3 15.6072V15.6282L3.00388 15.7171L3.00998 15.8139L3.01791 15.9591L3.02384 16.0828L3.0322 16.2046L3.19552 16.1795L3.36111 16.1542L3.52691 16.1291L3.69024 16.104L3.85582 16.0789L4.18517 16.0269L4.35054 16.0016L4.51429 15.9765L4.67988 15.9492L4.84363 15.9241L5.00884 15.897L5.17464 15.8702L5.3384 15.8451L5.50199 15.818L5.66736 15.7907L5.70754 15.7849L6.31164 15.4832L6.37976 15.4581L6.39179 15.4773L6.40161 15.485L6.41957 15.489L6.42955 15.485L6.44751 15.4715L6.46909 15.4521L6.51703 15.4175L6.53705 15.3982L6.55091 15.3788L6.55479 15.3497L6.55889 15.3343L6.57092 15.3206L6.59071 15.3169L6.61498 15.3149L6.63294 15.309L6.65091 15.2973L6.7186 15.251L6.82464 15.1987L6.8385 15.193L6.91822 15.1793L6.93413 15.1736L6.94411 15.1659L6.95204 15.154L6.9659 15.1368L6.97976 15.1291L7.05786 15.1175L7.07378 15.1078L7.08375 15.0961L7.08963 15.0554L7.09778 15.04L7.10959 15.0245L7.13753 14.9994L7.15344 14.9918L7.1673 14.9898L7.17728 14.9957L7.18321 15.0034L7.19729 15.0168L7.20322 15.0226L7.21115 15.0265L7.22113 15.0285L7.38294 14.988L7.5406 14.9726L7.56056 14.9686L7.62032 14.9628L7.71433 14.9532L7.83769 14.9395L7.98553 14.9238L8.15274 14.9066L8.3344 14.8853L8.52997 14.8657L8.72954 14.8426L8.92911 14.8195L9.12868 14.7986L9.31832 14.7772L9.49551 14.7563L9.65732 14.7389L9.79518 14.7232L9.90877 14.7096L10.0446 14.6942H10.0723L10.0903 14.6981L10.1023 14.7059L10.1123 14.7136L10.1202 14.7212L10.1261 14.7311L10.1321 14.7426L10.1341 14.7562L10.1362 14.7717L10.1321 14.7851L10.1182 14.8374L10.1162 14.849V14.87L10.1203 14.8796L10.1262 14.8913L10.1362 14.903L10.1462 14.9126L10.1621 14.9223L10.1743 14.9203L10.1863 14.9146L10.3438 14.7597L10.3556 14.7503H10.3656L10.3735 14.752L10.3815 14.758L10.4814 14.8468L10.6252 14.9785L10.7409 15.0847L10.7527 15.0983L10.7568 15.1138L10.7965 15.3809L10.8006 15.3983L10.8086 15.4137L10.8225 15.4254L10.8404 15.4271L10.9285 15.4137L10.9524 15.4097L11.0219 15.4006L11.1298 15.3851L11.2692 15.3636L11.433 15.3385L11.6186 15.3112L11.8142 15.2804L12.0177 15.2495L12.2212 15.2186L12.4168 15.1896L12.6002 15.1607L12.766 15.1354L12.9036 15.1141L13.0115 15.0966L13.0816 15.085L13.1055 15.081L13.187 15.0696H13.2547L13.301 15.0753L13.3846 15.1315L13.5542 15.2475L13.7235 15.3636L13.8932 15.4777L14.2346 15.7098L14.5756 15.9399L14.7473 16.0541L14.9188 16.17L15.0905 16.2863L15.2598 16.4004L15.4315 16.5145L15.6032 16.6287L15.7768 16.7428L15.9481 16.8569L16.1198 16.9729L16.1775 16.9421L16.1816 16.9575L16.1737 16.9689L16.1578 17L16.3372 16.8936L16.4672 16.8317L16.5131 16.791L16.521 16.7137L16.5369 16.7117L16.5585 16.7562L16.5605 16.7775L16.5546 16.7985L16.6301 16.8005L16.7998 16.7289H16.8595L16.8897 16.7365L17.0113 16.7097L17.0531 16.7057L17.2625 16.7231L17.3003 16.7193L17.3305 16.7019L17.3446 16.6768L17.4002 16.5392L17.4222 16.4368V16.402L17.4027 16.3157L17.3988 16.2712L17.4047 16.2346L17.3708 16.1767L17.3086 15.9985L17.2948 15.9269L17.3086 15.9249L17.3647 16.0295L17.4285 16.1203L17.4265 16.1978L17.4863 16.3951L17.4703 16.4763L17.4724 16.4918L17.4842 16.5092L17.4863 16.5323L17.4783 16.5825L17.5301 16.4995L17.5421 16.3543L17.5242 16.0663L17.5301 16.02L17.5603 15.9172L17.5703 15.8321L17.5962 15.7857L17.6521 15.7101L17.7336 15.5091L17.8376 15.3291L18.0749 15.0371L18.2308 14.9076L18.3361 14.8532L18.368 14.8338L18.3842 14.8184L18.376 14.8107L18.3642 14.805L18.3601 14.7875L18.3801 14.7567L18.3562 14.7316L18.3124 14.7159L18.2726 14.7139L18.2526 14.7062L18.2247 14.6853L18.1983 14.66L18.1865 14.6406L18.1925 14.6175L18.2104 14.6001L18.2308 14.5943L18.2406 14.6038L18.2606 14.6058L18.2945 14.5904L18.3203 14.5537L18.3104 14.4897L18.2906 14.4588L18.2606 14.4278L18.2308 14.4141L18.2063 14.4355L18.1825 14.3969L18.1386 14.2672L18.1686 14.2965H18.1945L18.2167 14.2866L18.2347 14.2827L18.2665 14.2965L18.2865 14.3157L18.2824 14.3314L18.2467 14.3391L18.2506 14.3545L18.2925 14.3754L18.3961 14.4607L18.416 14.4858L18.4061 14.5381L18.3263 14.627L18.3025 14.6715L18.3843 14.6734L18.3961 14.6811H18.4061L18.4583 14.714L18.496 14.6966L18.5419 14.6501L18.5678 14.6364L18.6196 14.5921L18.7016 14.4256L18.7613 14.3811L18.7672 14.3697L18.7395 14.3272L18.7374 14.3098L18.7554 14.304L18.7713 14.3154L18.7872 14.3311L18.8034 14.3349L18.8254 14.3175L18.8393 14.2845L18.8434 14.244L18.8373 14.1993L18.8255 14.1898L18.7996 14.1493L18.7935 14.1105H18.8334L18.8353 14.1202L18.8612 14.1761L18.9234 14.2361L18.8936 14.2711L18.8995 14.3001L18.9234 14.3118L18.9434 14.2964L18.9613 14.2787L19.2544 14.1241L19.3162 14.066L19.7432 14.0137L19.7232 13.9848L19.6594 13.9229L19.6476 13.9404L19.6314 13.9538L19.6134 13.9655L19.5796 13.9731L19.6011 13.9229L19.6389 13.8747L19.6866 13.8359L19.7364 13.8146L19.7723 13.834L19.7947 13.8902L19.8145 13.9558L19.8404 14.004L19.9022 14.0234L19.9122 13.9635L19.8783 13.745L19.8963 13.7468L19.9381 13.7834L19.9938 13.8145L19.9658 13.859L19.9838 13.8956L20.03 13.9189L20.0798 13.9266L20.1276 13.9169L20.1475 13.9053L20.1634 13.8879L20.1694 13.8645L20.1614 13.8471L20.1516 13.8337L20.1475 13.82L20.1575 13.7967L20.1714 13.7813L20.1834 13.7698L20.1973 13.7562L20.2495 13.652L20.2774 13.615L20.2874 13.5976L20.2954 13.5705V13.5434L20.2874 13.5009L20.2913 13.48L20.3033 13.478L20.3092 13.4914L20.3251 13.5128L20.331 13.5262L20.4065 13.4702L20.4227 13.4528L20.4366 13.4063L20.4266 13.385L20.4107 13.3733L20.3987 13.3482L20.4027 13.3057L20.4207 13.298L20.447 13.3018L20.4829 13.2941L20.5027 13.2749L20.5247 13.2285L20.5406 13.2091L20.5365 13.1897L20.4788 13.1703L20.4405 13.1296L20.3968 13.095L20.3271 13.0891L20.3509 13.1239L20.4007 13.1703L20.4148 13.2069L20.3968 13.2186L20.3509 13.2303L20.3091 13.2574L20.2971 13.3056H20.2775L20.1894 13.3539L20.1556 13.3636L20.1417 13.3596L20.1276 13.3519L20.1197 13.3385L20.1158 13.3175L20.1197 13.2885L20.1338 13.2827L20.1497 13.2807L20.1995 13.2402L20.2074 13.2228L20.1894 13.2015L20.1397 13.1568L20.1377 13.1337L20.1397 13.0912L20.1356 13.0661L20.1297 13.0584L20.1018 13.0313L20.0959 13.0198L20.0838 13.0179L20.0661 13.0584L20.052 13.1107L20.0461 13.1492L20.052 13.1783L20.06 13.2131L20.0679 13.25L20.064 13.2906L20.0243 13.254L19.988 13.2405L19.9521 13.2425L19.9203 13.2483L19.8803 13.2734L19.8923 13.3081L19.9562 13.3679L19.9777 13.4165L19.94 13.4106L19.8843 13.3875L19.8405 13.3738L19.8366 13.3661L19.8204 13.3448L19.7966 13.3256L19.7723 13.3139L19.7484 13.3179L19.7269 13.3314L19.6909 13.368L19.661 13.4089L19.6351 13.4573L19.6032 13.4996L19.551 13.5325L19.5351 13.5615L19.5213 13.5692L19.5092 13.5655L19.4974 13.5558L19.4833 13.5404L19.3977 13.5038L19.2857 13.4921L19.1842 13.4961L19.0863 13.4752L18.9867 13.388L18.9129 13.2913L18.8668 13.2508L18.8209 13.2391L18.811 13.2118L18.6876 13.0843L18.7732 13.1017L18.9049 13.2237L18.9906 13.2411L19.0244 13.2508L19.1443 13.3356L19.2141 13.3704L19.2977 13.3977L19.3678 13.3957L19.4614 13.3723L19.5369 13.3261L19.5612 13.2604L19.5989 13.2157L19.6825 13.1422L19.7462 13.0726L19.7264 13.032L19.7884 12.9954L19.8242 12.9373L19.8222 12.8697L19.77 12.806L19.7422 12.8311L19.7461 12.8465L19.7582 12.8503L19.77 12.8562L19.7824 12.86L19.752 12.8851L19.7263 12.8831L19.7023 12.8697L19.6725 12.862L19.5808 12.8754L19.5504 12.8716L19.5688 12.8408L19.5988 12.8175L19.6326 12.802L19.6645 12.7922L19.6783 12.7807L19.6945 12.7576L19.7165 12.7341L19.7504 12.7206L19.8165 12.7323L19.8462 12.7303L19.8542 12.7072L19.8382 12.6859L19.8085 12.6744L19.7522 12.6627L19.7483 12.6473H19.8623L19.91 12.6376L19.9239 12.601V12.5737L19.9359 12.5255L19.928 12.5078L19.8862 12.4788L19.8662 12.4579L19.8542 12.4328L19.8026 12.4404L19.5929 12.4173L19.4073 12.4134L19.2556 12.3651L19.1202 12.3612L19.0818 12.3475L19.0063 12.3109L18.9068 12.2779L18.8128 12.2739L18.7551 12.3244L18.7192 12.2488L18.6912 12.222L18.6452 12.218L18.6193 12.2103L18.5893 12.1832L18.5375 12.1136L18.6331 12.164L18.6833 12.1814L18.7849 12.1852L18.9009 12.2218L18.9645 12.2276L19.0781 12.2179L19.1242 12.2315L19.1801 12.2644L19.234 12.2778L19.3439 12.2236L19.4096 12.2256L19.4155 12.2082L19.4275 12.1968L19.4414 12.1871L19.4613 12.1794L19.4673 12.2373L19.5212 12.2662H19.5871L19.6269 12.2354L19.6151 12.2179L19.5989 12.2065L19.5809 12.1986L19.5569 12.1948L19.561 12.1832L19.563 12.1736L19.5669 12.164L19.5789 12.1543L19.5749 12.1386L19.559 12.1327L19.5428 12.1232L19.503 12.0961L19.509 12.0805L19.519 12.0225L19.499 12.0012L19.4774 11.982L19.4495 11.9703L19.4156 11.9683L19.4911 11.8948L19.5329 11.8677L19.5911 11.86L19.6967 11.8638L19.7444 11.8561L19.7987 11.8352L19.7827 11.9105L19.7504 11.9358L19.6388 11.9417L19.5849 11.9648L19.5829 11.9957L19.6129 12.0248L19.6606 12.0457L19.6647 12.0611L19.6388 12.0941L19.6747 12.1154L19.7721 12.1326L19.7682 12.1483L19.7641 12.1598L19.7542 12.1675L19.7362 12.1752L19.7721 12.2118L19.8063 12.2312L19.892 12.2521L19.8799 12.2347L19.8681 12.2213L19.8522 12.2136L19.8363 12.2077L19.8461 12.1808L19.8661 12.1651L19.892 12.1633L19.9199 12.173L19.9477 12.076L19.9199 12.0317L19.9379 12.0086L19.9756 12.0143L20.004 12.0568L20.024 12.1381L20.0417 12.1788L20.0658 12.1942L20.0696 12.2136L19.9816 12.2328L19.9977 12.2579L20.012 12.2599L20.0279 12.2542L20.048 12.256L20.0837 12.2734L20.1037 12.2967L20.1337 12.2734L20.1355 12.2348L20.1216 12.2001L20.1016 12.1886L20.0957 12.1693L20.0898 12.1343L20.1016 12.1092L20.1556 12.1228L20.1794 12.1459L20.2237 12.206L20.2992 12.2349H20.3251L20.3292 12.206L20.331 12.1769L20.343 12.1653H20.359L20.3928 12.2078L20.4326 12.2118L20.5804 12.1847L20.5943 12.1693L20.6122 12.1285L20.6343 12.1054L20.7104 12.0627L20.7422 12.053L20.7381 12.0376L20.7063 12.0047L20.7042 11.9448L20.7283 11.9021L20.774 11.9195L20.7621 11.941L20.788 11.9525L20.7998 11.9467L20.8039 11.9254L20.7978 11.8888L20.8039 11.8655L20.8219 11.8441L20.8278 11.8193L20.8039 11.7864L20.8537 11.7573L20.8655 11.7457L20.8737 11.7248L20.8716 11.7111L20.8616 11.6995L20.8576 11.686L20.8477 11.6706V11.6549L20.8855 11.6377L20.8959 11.63L20.9895 11.4811V11.456L20.9775 11.4153L20.9695 11.3708L20.9795 11.3283L21.0098 11.381Z" fill="#550000"/>
</svg>
