<svg width="26" height="26" viewBox="0 0 26 26" fill="none" xmlns="http://www.w3.org/2000/svg">
<circle cx="13" cy="13" r="13" fill="#F8F3ED"/>
<path d="M21 16.8824L20.5004 16.8981L20.0005 16.9122L19.5005 16.9255L19.0009 16.9366L18.501 16.9479L18.001 16.9592L17.5014 16.9684L16.9996 16.9751L16.502 16.982L15.9999 16.9887L15.5 16.9933L15.0004 16.9954L14.5005 16.9977L14.0005 17H13.0001L12.5001 16.9977L12.0002 16.9954L11.5002 16.991L11.0003 16.9843L10.4984 16.9796L9.99845 16.9707L9.49885 16.9638L8.9989 16.9548L8.49895 16.9435L7.999 16.9322L7.4994 16.9186L6.99945 16.9053L6.4995 16.8914L5.9999 16.8758L5.49995 16.858L5 16.8397L5.01554 16.2828L5.03309 15.7259L5.04839 15.1688L5.06624 14.614L5.0838 14.0571L5.09934 13.5048L5.11719 12.9501L5.13249 12.3971L5.15005 11.8448L5.1679 11.2923L5.18343 10.7421L5.20099 10.1919L5.21629 9.64145L5.23385 9.09375L5.24938 8.54562L5.26694 8L5.39681 8.00463L5.85045 8.0203L6.30595 8.03597L6.75959 8.04956L7.21526 8.06291L7.66891 8.07651L8.12458 8.08803L8.57805 8.09699L9.03354 8.10827L9.48724 8.11705L9.94292 8.12376L10.3966 8.13046L10.7861 8.13735H10.8523L11.3058 8.14198L11.7615 8.1468L12.2172 8.15119L12.6706 8.15351H13.1265L13.58 8.15582L14.0359 8.15351H14.4894L14.9451 8.15119L15.3994 8.14662L15.8551 8.14406L16.3086 8.13717L16.7645 8.13254L17.2201 8.12583L17.6736 8.11687L18.1268 8.10809L18.5825 8.09913L19.0361 8.08785L19.3465 8.08096L19.3419 8.15101L19.3595 8.19801L19.382 8.24111L19.3908 8.2794L19.4018 8.33585L19.415 8.36261L19.4281 8.38749L19.4391 8.4126L19.4566 8.51173L19.5226 8.66524L19.5401 8.7754L19.56 8.82264L19.6106 8.92019L19.6307 9.05754L19.5909 9.16819L19.538 9.27396L19.5227 9.39588L19.5754 9.56049L19.5887 9.65059L19.6019 9.69784V9.72966L19.5931 9.76124L19.5688 9.81288L19.5601 9.84909L19.6017 10.0362L19.6175 10.0768L19.6285 10.122L19.6017 10.3225L19.606 10.4421L19.6239 10.5502L19.6613 10.6518L19.758 10.8639L19.7843 10.9699L19.8195 11.0667L19.8946 11.1453L19.8661 11.2156L19.8748 11.2808L19.932 11.421V11.4393L19.9212 11.4594L19.9255 11.473L19.932 11.4776L19.9408 11.4799L19.9453 11.4843L19.9496 11.4912L19.9564 11.5023L20.009 11.5586L20.0243 11.5948L20.0529 11.6962L20.0837 11.755L20.1128 11.7977L20.1366 11.847L20.1521 11.9509L20.1784 12.0298L20.2135 12.0546L20.2223 12.068L20.2245 12.0883L20.2203 12.1042L20.2115 12.1178L20.2092 12.1291L20.2135 12.1989L20.2115 12.2554L20.2158 12.3073L20.2379 12.3545L20.2399 12.3972L20.2093 12.5463V12.6048L20.2223 12.6207L20.2402 12.6387L20.26 12.6631L20.2688 12.6926L20.2645 13.0624L20.2732 13.1278L20.3083 13.2675L20.3171 13.3285L20.3151 13.3511L20.3083 13.376L20.3018 13.4052L20.3041 13.4394L20.3369 13.5585L20.3414 13.6148L20.3304 13.8066L20.337 13.8449L20.348 13.8721L20.377 13.9148L20.3858 13.9532V13.9758H20.377L20.3901 13.9825L20.4143 13.9893L20.4364 14.0028L20.4602 14.0096L20.4734 14.0208L20.4822 14.0388L20.4799 14.0524L20.4734 14.0658L20.4624 14.113L20.4339 14.1535L20.4273 14.1831L20.4339 14.2824L20.4316 14.314L20.4251 14.3341L20.4075 14.3816L20.403 14.4108L20.4117 14.4585L20.4448 14.5574L20.4536 14.6227L20.4468 14.6884L20.425 14.7898L20.4315 14.8527L20.4536 14.8935L20.5239 14.9816L20.5394 15.0378L20.5547 15.1462L20.559 15.2071L20.5459 15.2677L20.559 15.288L20.5943 15.324L20.6078 15.3466L20.6124 15.3692V15.3941L20.6166 15.4234L20.6322 15.4552L20.7618 15.6421L20.8365 15.7188L20.8698 15.7684L20.8853 15.8294V16.0189L20.8919 16.0774L20.9007 16.109L20.9094 16.1333L20.9621 16.2103V16.2306L20.9578 16.2533V16.2869L20.9666 16.3026L20.9841 16.4112V16.4469L20.9731 16.5305L20.9493 16.5958L20.9516 16.666L20.9997 16.882L21 16.8824Z" fill="#550000"/>
</svg>
