<svg width="26" height="26" viewBox="0 0 26 26" fill="none" xmlns="http://www.w3.org/2000/svg">
<circle cx="13" cy="13" r="13" fill="#F8F3ED"/>
<path d="M18.645 11.0062L18.7159 10.9702L18.7897 10.9536L18.8434 10.973L18.9574 10.862L19 10.8426L18.9319 10.4624L18.8605 10.0825L18.7924 9.70012L18.7215 9.32271L18.6535 8.94253L18.5854 8.56265L18.5139 8.18277L18.4458 7.80289L18.3068 7.04553L18.1701 6.28547L18.1163 6L17.4145 6.36323L17.3351 6.44077L17.2267 6.47676L17.1785 6.49926L17.1554 6.52175L17.1299 6.57192L17.1158 6.58827L17.0164 6.62456L16.9506 6.68267L16.7577 6.74911L15.9079 7.32336L15.1069 8.22762L15.007 8.27748L14.9191 8.35247L14.851 8.36911L14.7483 8.33867H14.7228L14.6944 8.35809L14.6462 8.41651L14.6093 8.43285L14.5355 8.44118L14.1745 8.41928L14.0515 8.44118L13.685 8.6048L13.4802 8.75762L13.3611 8.81011L13.1648 8.84888L13.1222 8.88487L13.0854 8.92919L12.9719 9.02667L12.9181 9.05711L12.7814 9.07121L12.6508 9.03222L12.4233 8.90729L12.3949 8.89627L12.3382 8.87962L12.3184 8.8713L12.2843 8.84085L12.2617 8.81318L12.2362 8.79376L12.2043 8.78821L12.2531 8.8602L12.3921 8.94328L12.463 8.99892L12.307 8.92664L12.2247 8.90174L12.1504 8.89619L12.1164 8.90452L12.0738 8.92941L12.0455 8.93773L12.0058 8.94051L11.9827 8.93219L11.9175 8.90452L11.8006 8.94328L11.673 9.05156L11.5448 9.12385L11.4342 9.05711L11.4112 9.08786L11.3828 9.1072L11.3545 9.10166L11.3375 9.06011L11.3091 9.05704L11.1355 9.07668L11.1781 9.04624L11.2807 9.02374L11.3261 8.9933L11.3687 9.0158L11.3857 8.99915L11.397 8.96316L11.4141 8.93241L11.4396 8.91576L11.4679 8.90467L11.5417 8.89079L11.6699 8.84093L11.7352 8.82713L11.8061 8.84963L11.8628 8.79151L11.957 8.75552L12.1499 8.71645L12.1215 8.65834L12.0985 8.62759L12.0673 8.61379L11.9567 8.61657L11.9255 8.62489L11.8824 8.65841L11.8569 8.64709L11.8371 8.62459L11.82 8.61349L11.7774 8.55808L11.735 8.52209L11.6839 8.51106L11.6896 8.53041V8.5775L11.6867 8.62999L11.6753 8.66351L11.6442 8.70228L11.6016 8.72747L11.5074 8.76347L11.4507 8.76902L11.3458 8.74937L11.2947 8.7466L11.2062 8.7241L11.0319 8.57075L10.9462 8.51826L10.8694 8.52659L10.7707 8.51826L10.5772 8.47395L10.495 8.43488L10.339 8.31835L10.2647 8.2879L10.2335 8.29068L10.1682 8.32112L10.1228 8.335L10.0746 8.338L9.84144 8.3017L9.82154 8.27681L9.81586 8.24359L9.57986 8.2879L9.34102 8.33222L9.10286 8.37406L8.86402 8.41861L8.62518 8.46015L8.38634 8.50446L8.14819 8.54593L7.90935 8.58747L7.67051 8.63179L7.43167 8.67356L7.19351 8.7151L6.95467 8.75694L6.71583 8.79849L6.47699 8.84003L6.23884 8.88157L6 8.92311L6.03972 9.21991L6.07659 9.5167L6.15603 10.1076L6.19636 10.4044L6.23608 10.7012L6.27579 10.998L6.31551 11.2948L6.35523 11.5916L6.39494 11.8915L6.43466 12.1883L6.47146 12.4851L6.51179 12.7819L6.55151 13.0787L6.5913 13.3755L6.63102 13.6748L6.67074 13.9716L6.71045 14.2684L6.75017 14.5683L6.78989 14.8651L6.83015 15.165L6.86986 15.4615L6.90674 15.7583L6.94646 16.0576L6.98617 16.3544L7.02589 16.654L7.06561 16.9508L7.10532 17.2507L7.14558 17.5503L7.1853 17.8471L7.22501 18.147L7.26473 18.447L7.41792 18.3251L7.45817 18.2667L7.48122 18.2418L7.51809 18.2308L7.54644 18.2391L7.59184 18.2889L7.60882 18.2972L7.65706 18.3169L7.83068 18.4443L7.95829 18.4388L8.19713 18.2917L8.32196 18.2502L8.39003 18.2751L8.44165 18.3391L8.48421 18.3999L8.52109 18.4248L8.5807 18.4276L8.65752 18.4443L8.79427 18.4914L8.84536 18.5301L8.88508 18.5885L8.91342 18.6525L8.92763 18.7162L8.95068 18.766L8.99324 18.802L9.03864 18.8325L9.07329 18.8632L9.11301 18.9185L9.14136 18.9825L9.16125 19.0545L9.1783 19.1431L9.21518 19.2015L9.28609 19.2405L9.6384 19.3155L9.707 19.3128L9.96512 19.2239H10.0366L10.1642 19.263L10.2975 19.2796L10.352 19.3267L10.4002 19.3849L10.4569 19.4374L10.6874 19.6068L10.818 19.6677L10.9519 19.6761L11.0086 19.6484L11.0568 19.5985L11.0824 19.5318L11.0852 19.4626L11.1164 19.4346L11.3184 19.3377L11.3836 19.3322L11.4488 19.3488L11.5112 19.3765L11.5679 19.418L11.5969 19.4264L11.7045 19.4097L11.747 19.4125L11.8378 19.4374L11.8804 19.4599L11.9034 19.4824L11.9942 19.5851L12.0368 19.6183L12.0623 19.6239L12.1644 19.5851L12.1957 19.5491L12.2388 19.5156L12.3068 19.4989L12.4458 19.5048L12.5082 19.4907L12.557 19.4516L12.574 19.4101L12.5938 19.3298L12.6051 19.2993L12.6282 19.2768L12.7019 19.2353L12.7388 19.1907L12.7728 19.1323L12.8126 19.0824L12.8699 19.0547L12.9436 19.0322L13.1109 18.9157L13.1878 18.8908L13.2275 18.9102L13.2445 18.9631L13.2559 19.0351L13.2757 19.1043L13.3863 19.3374L13.4975 19.4649L13.6393 19.5148L13.784 19.54L13.9094 19.5925L14.1596 19.7699L14.1993 19.817L14.2673 19.928L14.3042 19.9668L14.3071 19.9696L14.4205 20L14.5516 19.9668L14.7904 19.8393L15.0088 19.7868L15.0599 19.7588L15.0916 19.6869L15.103 19.6204L15.1144 19.2876L15.1371 19.2015L15.1711 19.1628L15.3186 19.16L15.381 19.1375L15.4185 19.0711L15.4156 19.0323L15.398 18.9852L15.3782 18.9409L15.3413 18.8797L15.3385 18.8409L15.3498 18.7853L15.3243 18.6967L15.2902 18.6385L15.2562 18.5939L15.225 18.533L15.2193 18.447L15.2619 18.3945L15.313 18.3502L15.3329 18.2585L15.3612 18.189L15.3697 18.153L15.3641 18.0007L15.3924 17.8783L15.4554 17.726L15.5322 17.5815L15.6145 17.4985L15.6854 17.4874L15.7484 17.515L15.7995 17.5483L15.8988 17.5707L15.947 17.6098L15.9839 17.6623L16.0069 17.7179L16.0211 17.7346L16.0324 17.7539L16.0415 17.7788L16.0353 17.7983L16.0239 17.8121L16.0097 17.8205L16.004 17.8315V17.8814L15.9927 17.9063L15.9899 17.9232L16.0182 17.962L16.0784 17.9786L16.1379 17.9371L16.1861 17.8675L16.2116 17.8094L16.2202 17.718L16.2287 17.6735L16.2571 17.6486L16.2968 17.6569L16.3563 17.7015L16.3937 17.7098L16.4475 17.6819L16.439 17.6403L16.4021 17.5875L16.3709 17.5294L16.3652 17.3965L16.3476 17.3325L16.3051 17.31L16.2852 17.3045L16.2597 17.2904L16.2342 17.2679L16.22 17.2454L16.197 17.2011V17.1872L16.214 17.1844L16.353 17.1013L16.3706 17.0623L16.3649 16.979L16.3303 16.8461L16.3274 16.799L16.3416 16.7378L16.4556 16.5548L16.4811 16.4244L16.5378 16.3967L16.6087 16.3828L16.6712 16.3494L16.6942 16.3719L16.7173 16.3494L16.7315 16.341L16.7514 16.3438L16.7797 16.3577L16.8053 16.3078L16.7996 16.1639L16.8138 16.0946L17.0015 15.8532L17.0441 15.8224L17.1689 15.803L17.203 15.8279L17.2398 15.8863L17.2909 15.9472L17.3566 15.9804L17.4247 15.9579L17.5126 15.85L17.5694 15.8164L17.6296 15.7998L17.6892 15.7721L17.7459 15.7358L17.7856 15.6998L17.8537 15.5974L17.899 15.5475L18.0074 15.4864L18.0414 15.4224L18.0896 15.2895L18.1664 15.173L18.4506 14.8679L18.6327 14.7209L18.6299 14.6849L18.6469 14.5794V14.56L18.6356 14.5209V14.5043L18.6441 14.4876L18.6866 14.4405L18.6895 14.3685L18.6697 14.3214L18.6328 14.2852L18.5755 14.2436L18.5524 14.2018L18.5695 14.1658L18.6268 14.1159L18.6353 14.0771V14.0022L18.6382 13.9631L18.6495 13.9188L18.6637 13.8825L18.7063 13.8075L18.7091 13.777L18.6893 13.7411L18.6662 13.6995L18.652 13.6632L18.6548 13.6051H18.686L18.7286 13.6189L18.7655 13.6078L18.7768 13.5687L18.7683 13.5358L18.7512 13.5078L18.7427 13.483L18.7512 13.4165L18.7711 13.3691L18.7853 13.3138L18.7796 13.2308L18.7484 13.0808L18.7456 13.0086L18.7626 12.9144L18.8023 12.7757L18.8165 12.7062L18.8137 12.573L18.8251 12.4844L18.8619 12.3315L18.885 12.2985L18.9508 12.2236L18.965 12.1987L18.9735 12.0794L18.982 12.0569L18.9678 12.0095L18.9338 11.9292L18.9309 11.9125L18.9281 11.8737L18.9224 11.8572L18.9054 11.8461L18.8849 11.8405H18.8566L18.8452 11.7574L18.8792 11.6046V11.5188L18.8594 11.4687L18.8225 11.4075L18.7346 11.2967L18.6183 11.1884L18.5842 11.1303L18.6013 11.0525L18.645 11.0062Z" fill="#550000"/>
</svg>
