<svg width="26" height="26" viewBox="0 0 26 26" fill="none" xmlns="http://www.w3.org/2000/svg">
<circle cx="13" cy="13" r="13" fill="#F8F3ED"/>
<path d="M21.3224 9.33792L21.391 9.70959L21.4574 10.0788L21.5256 10.4487L21.5942 10.8203L21.6603 11.1898L21.7285 11.5615L21.7971 11.9313L21.8653 12.3026L21.8834 12.8863L21.8994 13.4696L21.9155 14.053L21.9336 14.6387L21.9496 15.2218L21.9677 15.8054L21.9837 16.3909L22 16.9743L21.9881 16.9722L21.9318 16.9743L21.8897 16.9545V16.9743L21.781 16.9422L21.7469 16.9263L21.7549 16.9122L21.7609 16.9003L21.7128 16.8981L21.6547 16.9122L21.6366 16.8883L21.6105 16.8744L21.5784 16.8665L21.5458 16.8624H21.5298L21.5057 16.8765L21.4897 16.8804L21.4776 16.8765L21.4577 16.8527L21.4174 16.8347L21.3774 16.7726L21.3453 16.7606H21.3167L21.2586 16.7446L21.1119 16.7248L21.0235 16.6468L20.9876 16.5888L20.9755 16.5726L20.9514 16.5585L20.9313 16.5507L20.9173 16.5348L20.9093 16.4948L20.9032 16.4827L20.8869 16.4688L20.869 16.4568L20.8527 16.4527H20.7746L20.7405 16.4447L20.7044 16.4209L20.6278 16.3506L20.5875 16.3268L20.5175 16.3129L20.5033 16.297L20.4933 16.279L20.4814 16.2628L20.4553 16.2468L20.3043 16.205L20.2683 16.2109L20.2281 16.2468L20.2157 16.2889L20.2137 16.3344L20.2036 16.3647L20.1757 16.3506L20.1636 16.3726L20.1475 16.3845L20.1274 16.3947L20.1034 16.4088L20.0773 16.3947H20.0613L20.0553 16.4206V16.4406L20.0512 16.4525L20.0411 16.4606L20.0271 16.4686L20.0091 16.4704L19.8201 16.4724L19.796 16.4784L19.78 16.4586L19.7654 16.4484L19.7476 16.4426H19.7254L19.7173 16.4484L19.7034 16.4586L19.6933 16.4645L19.6874 16.4545L19.6773 16.4406L19.6712 16.4306V16.4267L19.6011 16.4285L19.5709 16.4147L19.5911 16.3746L19.573 16.3344L19.5469 16.3148L19.5165 16.3007L19.4863 16.2791L19.4563 16.2689L19.4321 16.293L19.4042 16.3448H19.3881L19.3501 16.3328L19.3442 16.3387L19.2916 16.3687L19.2676 16.3748L19.2434 16.391L19.2216 16.409L19.2077 16.427H19.1855L19.1514 16.4309L19.0789 16.433L19.0629 16.4507L19.0748 16.5249L19.0507 16.5449L19.0347 16.5388L19.0226 16.527L19.0107 16.509L18.9926 16.515L18.9805 16.5291L18.9665 16.5468L18.9043 16.5607L18.8782 16.5548L18.7462 16.4786L18.7221 16.4547L18.6981 16.4486L18.67 16.4667L18.6483 16.4926L18.6398 16.5127H18.6238L18.5897 16.5327L18.5494 16.5625L18.4734 16.5985L18.4434 16.6025L18.3267 16.6064L18.3045 16.6127L18.2603 16.6405L18.2363 16.6466L18.2146 16.6664L18.178 16.7603L18.1578 16.7963L18.1157 16.8242L18.0757 16.8302L17.9794 16.8222L17.9208 16.8322L17.9068 16.8583L17.9087 16.8979L17.8988 16.9542L17.8366 17L17.7684 16.9379L17.6998 16.8403L17.6454 16.7783L17.6033 16.7703L17.4526 16.7842L17.4345 16.7763L17.4264 16.7547L17.4203 16.7308L17.4123 16.7106L17.3983 16.7006L17.3482 16.6767L17.2556 16.6508L17.2275 16.623L17.2174 16.613L17.2114 16.6008L17.2073 16.5869V16.5728L17.2094 16.5587L17.2334 16.5091L17.2274 16.4929L17.2073 16.4749L17.1512 16.4528L17.121 16.4467H17.097L17.0851 16.4548L17.077 16.4628L17.0625 16.4867L17.0364 16.5708L17.0304 16.5847L17.0244 16.5967L17.0164 16.6065L17.0063 16.6147L16.9882 16.6228L16.9661 16.6308L16.924 16.6367H16.9L16.88 16.6347L16.8679 16.6287L16.8073 16.5846L16.7833 16.5746L16.7652 16.5725L16.6869 16.5846H16.6652L16.6471 16.5786L16.637 16.5725L16.6085 16.5448L16.5945 16.5227L16.5824 16.4966L16.5664 16.421L16.5563 16.395L16.5465 16.3809L16.5284 16.371L16.4982 16.3571L16.4764 16.355H16.4571L16.3805 16.371L16.3664 16.3769L16.3565 16.3831L16.3402 16.4051L16.3423 16.441L16.3384 16.5049L16.3061 16.5789L16.272 16.6248L16.2239 16.6408L16.1434 16.6209L16.1473 16.6628L16.1633 16.6808L16.1818 16.6927L16.1918 16.7186L16.1818 16.7388L16.1392 16.7647L16.1312 16.7945L16.1271 16.8725L16.109 16.9424L16.0689 16.9865L15.9968 16.9924L15.9422 16.9606L15.8983 16.8999L15.8662 16.8296L15.8541 16.7639L15.8621 16.7177L15.9024 16.6499L15.9103 16.6058L15.9042 16.5719L15.8863 16.5421L15.8603 16.5182L15.8321 16.498L15.8181 16.5062L15.79 16.5182L15.7779 16.5282L15.7699 16.54L15.7619 16.5598L15.7239 16.6301L15.7113 16.6478L15.6491 16.596L15.623 16.588L15.587 16.614L15.5829 16.6221L15.5708 16.6499L15.5648 16.6599L15.5529 16.6735L15.5287 16.6879L15.5206 16.6978L15.5025 16.7117L15.4781 16.7197L15.3314 16.7338L15.2954 16.7117L15.2791 16.6498L15.2731 16.5939L15.2547 16.5598L15.2205 16.542L15.1684 16.5341L15.0256 16.5459L14.9915 16.5281L14.9697 16.4779V16.378L14.9476 16.3321L14.8634 16.2923L14.7746 16.3241L14.6966 16.388L14.5076 16.5859L14.4213 16.6419L14.3225 16.6599L14.2262 16.6319L14.1742 16.6058L14.152 16.5798L14.158 16.54L14.16 16.522L14.1642 16.4959L14.1781 16.4401V16.4142L14.1621 16.384L14.1761 16.3542L14.1701 16.3262L14.1541 16.3046L14.1317 16.3105L14.0514 16.2846L13.9411 16.2645L13.8541 16.2223L13.8482 16.1346L13.8361 16.0768L13.844 15.9968V15.9266L13.8079 15.8968L13.7518 15.9048L13.6471 15.9446L13.5789 15.9548L13.2777 15.9207L13.2212 15.9387L13.1851 15.9787L13.159 16.0265L13.1288 16.0726L13.1148 16.0965L13.0605 16.1065L12.9477 16.1086L12.9157 16.0906L12.8396 16.0041L12.8094 15.9843L12.7952 15.9704L12.7572 15.9065L12.7329 15.8903L12.6588 15.8767H12.6327L12.5824 15.8865L12.4318 15.9506L12.4058 15.9365L12.1243 15.8787L12.0779 15.8627L11.9072 15.7547L11.8569 15.7429L11.8208 15.7529L11.7866 15.7668L11.7386 15.7765L11.6942 15.7708L11.6077 15.7449L11.5614 15.7388L11.4571 15.7449L11.4065 15.7349L11.3685 15.7028L11.3605 15.6607L11.3525 15.5149L11.3605 15.4825L11.3685 15.4609L11.3305 15.4149L11.2604 15.353L11.2401 15.3111L11.2262 15.263L11.204 15.2229L11.1596 15.2052L11.1154 15.2031L11.0937 15.1972L11.0736 15.1892L11.0555 15.1712L11.0457 15.151L11.0395 15.133L11.0276 15.1171L10.9853 15.0873H10.9527L10.931 15.1171L10.9189 15.251L10.901 15.2911L10.8669 15.309L10.8147 15.3029L10.7662 15.2852L10.6818 15.237L10.573 15.2236L10.5527 15.2298L10.5327 15.2418L10.5083 15.2716L10.492 15.2859L10.4519 15.2978L10.3153 15.2859L10.273 15.2716L10.2449 15.2418L10.2007 15.1758L9.8227 14.8162L9.80097 14.8021L9.75289 14.7923L9.73273 14.7802L9.6966 14.77L9.59592 14.7844L9.5618 14.7882V14.6367L9.55974 14.3307V13.11L9.55767 12.8043V11.5836L9.55582 11.2799V10.0592L9.55376 9.75572V9.62155H8.82027L8.41001 9.6195L7.92358 9.61561L7.38286 9.6115L6.80211 9.60556L6.20532 9.59962L5.60626 9.58963L5.02778 9.57963L4.48691 9.56964L4.00069 9.55781L3.59064 9.54782L3.27508 9.53988L3.0721 9.53578L3 9.53394L3.00799 9.19797L3.01782 8.86449L3.02581 8.52874L3.03401 8.19526L3.30312 8.2012L3.57038 8.20914L3.8397 8.21525L4.10924 8.22119L4.3765 8.22713L4.64561 8.23302L4.91494 8.23712L5.18241 8.24306L5.68488 8.25106L6.18712 8.259L6.68942 8.2651L7.19189 8.27104L7.69435 8.27515L8.19681 8.27904L8.69928 8.28109L9.20174 8.28314H9.7042L10.2067 8.28109L10.7089 8.27904L11.2134 8.27698L11.7138 8.27309L12.2184 8.26699L12.7206 8.2631L13.2231 8.25516L13.7255 8.24722L14.2258 8.23723L14.7303 8.22724L15.2305 8.21541L15.7332 8.20336L16.2357 8.19132L16.7379 8.17538L17.2402 8.1615L17.7431 8.1453L18.2454 8.12731L18.7476 8.10932L19.2501 8.08912L19.7523 8.06752L20.255 8.04591L20.7554 8.02387L21.2577 8L21.2737 8.33553L21.2898 8.66923L21.3058 9.00498L21.3218 9.33868L21.3224 9.33792Z" fill="#550000"/>
</svg>
