<svg width="26" height="26" viewBox="0 0 26 26" fill="none" xmlns="http://www.w3.org/2000/svg">
<circle cx="13" cy="13" r="13" fill="#F8F3ED"/>
<path d="M9.28126 6.43688L9.398 6.44064L9.42948 6.45807L9.44993 6.48517L9.50186 6.54513L9.52401 6.56449L9.57594 6.58604L9.62787 6.62267L9.67619 6.66719L9.71503 6.71151L9.73909 6.75818L9.75914 6.81416L9.77223 6.87428V6.97301L9.79077 7.00586L9.81483 7.03474L9.83343 7.07174L9.83533 7.11427L9.82796 7.22859L9.84275 7.3212L9.83157 7.36573L9.81298 7.41402L9.802 7.47021L9.82987 7.54775L9.83157 7.57286L9.8242 7.59996L9.80751 7.64643L9.80015 7.67353L9.78897 7.77027V7.82845L9.79824 7.87318L9.8223 7.91373L9.85739 7.95606L9.89643 7.99085L10.0299 8.04704L10.1059 8.04526L10.1318 8.05102L10.1837 8.09377L10.2709 8.1363L10.3172 8.17685L10.4675 8.21149L10.601 8.29478L10.6361 8.293L10.6712 8.27935L10.8122 8.26789L11.153 8.21557L11.2328 8.18669L11.3738 8.11114L11.4553 8.08602L11.5072 8.0878L11.6351 8.14222L11.9058 8.14991L12.4268 8.30875L12.5064 8.35506L12.5362 8.39168L12.5472 8.43223L12.5545 8.47874L12.5676 8.53493L12.5955 8.56402L12.6362 8.56779L12.8066 8.52923H12.8159L12.8548 8.5387L12.8733 8.54838L12.8826 8.55037L12.9419 8.56005L12.9605 8.5658L12.9845 8.58323L13.0588 8.60656L13.1384 8.6006L13.1625 8.60457L13.1737 8.60258L13.2627 8.55628L13.2775 8.55429H13.4101L13.499 8.53687L13.5101 8.51924L13.5249 8.50778L13.5769 8.48643H13.5969L13.8565 8.58909L13.877 8.59086L13.9234 8.57941H13.9399L14.029 8.61226L14.0494 8.61425L14.0938 8.60656L14.1717 8.57946L14.1903 8.57747L14.2181 8.58323L14.2683 8.60457L14.2961 8.60656L14.35 8.59489L14.4019 8.56978L14.4648 8.52724L14.5019 8.51359L14.5872 8.51558L14.8671 8.4574L15.3659 8.46509L15.4511 8.42056L15.5121 8.36657L15.5438 8.35689L15.5919 8.35888L15.7144 8.38776H15.9683L16.4114 8.46101L16.5041 8.43788L16.5931 8.36646L16.6098 8.36824L16.6915 8.38394L16.9214 8.42448L17.1513 8.46503L17.3811 8.50579L17.6091 8.54435L17.839 8.58511L18.069 8.62367L18.2988 8.66443L18.5286 8.70299L18.7587 8.74197L18.9886 8.78053L19.2184 8.8193L19.4483 8.85592L19.6782 8.89469L19.908 8.93132L20.1379 8.96831L20.3809 9.00687L20.3828 9.01853L20.3864 9.09764L20.4197 9.24482L20.5107 9.37039L20.52 9.41115L20.5347 9.44594L20.6591 9.49423L20.6738 9.51343L20.7053 9.56209L20.7999 9.64141L20.8723 9.66851L20.8944 9.69541L20.9128 9.72648L20.9297 9.7788L20.9481 9.88522L20.9945 10.0168L21 10.0691L20.9945 10.1231L20.9744 10.1676L20.9428 10.2026L20.8816 10.253L20.8687 10.2683L20.8242 10.3476L20.8075 10.3978L20.7982 10.4211L20.6962 10.5161L20.6574 10.5952L20.585 10.6573L20.5554 10.6981L20.5404 10.7501L20.5204 10.8527L20.4961 10.8913L20.4665 10.9303L20.4127 11.0772L20.3608 11.1682L20.1271 11.4254L20.1087 11.4505L20.0994 11.4756V11.5051L20.1049 11.526L20.1124 11.5397L20.1143 11.5473L20.105 11.5997L20.0678 11.7121L20.0457 11.7564L19.9921 11.8377L19.8713 11.9809L19.8417 12.0082L19.8029 12.0313L19.6826 12.0853L19.6435 12.1201L19.6195 12.1533L19.5509 12.2732L19.4915 12.3523L19.4636 12.4027L19.4341 12.4975L19.4081 12.542L19.3766 12.581L19.3488 12.6059L19.3264 12.6136L19.306 12.6156L19.2876 12.6253L19.2764 12.6563L19.2671 12.6698L19.2471 12.6814L19.234 12.6969L19.2414 12.7665L19.2213 12.8093L19.1935 12.8558L19.1787 12.9138L19.1823 12.9426L19.199 12.9988L19.2009 13.0318L19.1935 13.057L19.1804 13.088L19.1749 13.1131L19.1804 13.1614L19.2045 13.1999L19.2676 13.2621L19.2881 13.2446L19.3065 13.2254L19.3269 13.2097L19.3529 13.204L19.3752 13.2137L19.3862 13.2372L19.3936 13.2621L19.4047 13.2834L19.4419 13.3029L19.4734 13.2989L19.5085 13.2892H19.5511L19.5716 13.3009L19.5752 13.324L19.5697 13.3531V13.38L19.5789 13.4166L19.5863 13.4301L19.6234 13.4594L19.6511 13.4882L19.6809 13.529L19.6864 13.5541L19.6773 13.5715L19.6623 13.5832L19.653 13.5966L19.6494 13.6257L19.6418 13.655L19.6309 13.6819L19.6123 13.705L19.5901 13.711L19.5658 13.705H19.5399L19.5177 13.7246L19.5121 13.7652L19.5492 13.8577L19.5549 13.9141L19.5492 13.9412L19.5399 13.9606L19.529 13.9781L19.5159 14.005L19.488 14.1057L19.4529 14.1832L19.4381 14.2412L19.4086 14.2952L19.3826 14.3245L19.338 14.3496L19.3029 14.3862L19.3085 14.4462L19.3066 14.4657L19.3085 14.4984L19.2751 14.7247L19.2584 14.8372L19.2196 15.0964L19.1824 15.3557L19.1436 15.6171L19.1048 15.8764L19.0676 16.1358L19.0286 16.3951L18.9914 16.6562L18.9526 16.9156L18.9137 17.1752L18.8766 17.4363L18.8375 17.6974L18.7987 17.957L18.7618 18.2181L18.7227 18.4797L18.6837 18.7389L18.6467 19L18.2963 18.944L17.9478 18.886L17.5991 18.8279L17.2506 18.7697L16.902 18.7099L16.5535 18.6498L16.205 18.5897L15.8563 18.53L15.5078 18.4681L15.1593 18.4042L14.8127 18.3421L14.464 18.2784L14.1168 18.2152L13.7683 18.1516L13.4196 18.0857L13.0711 18.0198L12.5835 17.9249L12.0959 17.8303L11.6101 17.7351L11.1244 17.6366L10.6368 17.5399L10.151 17.4392L9.66526 17.3387L9.17911 17.2361L8.69335 17.1335L8.2076 17.0288L7.72185 16.9242L7.238 16.8178L6.75209 16.7094L6.26824 16.5992L5.78419 16.4888L5.30034 16.3786L5.29107 16.3746L5.23914 16.3629L5.22436 16.3032L5.13148 16.1968L5.07047 16.0727L5.04832 16.0514L5.04075 16.0245L5.05383 15.7495L5.04266 15.6895L5.01479 15.6586L5.02406 15.6333L5.02957 15.5771L5.03148 15.4806L5.02406 15.4727L5.00927 15.4518L5 15.4308L5.02215 15.417L5.03524 15.3996L5.05739 15.3629L5.06857 15.3341L5.07784 15.2953L5.09073 15.21V15.1346L5.09453 15.1055L5.10952 15.07L5.17072 14.985L5.18551 14.9541L5.21884 14.8726L5.22075 14.749L5.23192 14.6694V14.6253L5.21714 14.5984L5.19288 14.5751L5.17283 14.548L5.15804 14.5033L5.14686 14.4222L5.13569 14.3855L5.10611 14.403L5.09494 14.3683L5.09303 14.2229L5.08752 14.1901L5.07273 14.1612L5.04677 14.1339L5.08752 14.1129L5.22471 13.9096L5.31739 13.7743L5.34696 13.7414L5.37859 13.7123L5.40836 13.6773L5.42841 13.6271L5.44129 13.5769L5.47638 13.4704L5.61928 13.149L5.64505 13.0426L5.64886 13.0059L5.65623 12.9885L5.67482 12.9636L5.69698 12.9423L5.73602 12.9286L5.75607 12.9172L5.77652 12.9209L5.75607 13.0584L5.77843 13.0932L5.79131 13.0972L5.80439 13.0333L5.808 13.004L5.80439 12.9731L5.82484 12.9789L5.83773 12.9769L5.847 12.9676L5.86179 12.95L5.84319 12.9189L5.87482 12.8669L5.93036 12.8164L5.97868 12.8012L6.00274 12.8144V12.8376L5.99537 12.869L6.00088 12.9133L6.01948 12.9404L6.05281 12.9657L6.0879 12.9789L6.11747 12.9752L6.07105 12.869L6.06935 12.8051L6.06008 12.7835L6.0508 12.7661L6.0489 12.7529L6.05632 12.7313L6.08795 12.683L6.02103 12.7081L5.93953 12.7621L5.86544 12.8262L5.80971 12.8881L5.80043 12.8672L5.84499 12.811L6.03045 12.5012L6.03953 12.4741L6.0693 12.4258L6.10815 12.3115L6.1286 12.2786L6.15647 12.2498L6.2101 12.2169L6.23626 12.1933L6.25631 12.1605L6.273 12.1294L6.2916 12.1102L6.31927 12.1082V12.1159L6.31376 12.1333V12.1511L6.32684 12.1604L6.40834 12.1798L6.41215 12.1644L6.39355 12.1353L6.35847 12.0966L6.31772 12.0677L6.28057 12.0714L6.25461 12.1102L6.22484 12.1664L6.20098 12.1933L6.1917 12.1492L6.20268 12.0946L6.25651 11.998L6.35847 11.7074L6.39751 11.6071L6.4104 11.5666L6.43255 11.4637L6.44182 11.4444L6.46779 11.4349L6.48257 11.4115V11.3971L6.47706 11.3236L6.47897 11.2909L6.48448 11.2711L6.48999 11.2537L6.51977 11.1785L6.592 10.9714L6.61986 10.8126L6.65149 10.7236L6.6534 10.7082L6.64773 10.6829L6.64964 10.6672L6.65701 10.6537L6.67746 10.6363L6.68483 10.6246L6.74999 10.4856L6.76477 10.4369L6.78522 10.4021L6.81856 10.4098L6.87785 10.4543L6.86858 10.3847L6.84071 10.375L6.80562 10.3788L6.77776 10.3519L6.77605 10.3054L6.78893 10.2454L6.90758 9.9376L6.92803 9.93959L6.96136 9.97244L6.99469 9.99185L7.00758 9.95308L7.00021 9.91829H6.98181L6.95946 9.92598L6.9373 9.91651L6.92612 9.88543L6.92993 9.86032L6.9373 9.835L6.93164 9.80036L6.93354 9.7675L6.96863 9.65711L6.9779 9.60688L6.97981 9.56235L7.00747 9.40942L7.02793 9.3728L7.0594 9.33403L7.09103 9.2895L7.10391 9.24498L7.10943 9.22557L7.12627 9.21788L7.14106 9.20244L7.15223 9.16168L7.15033 9.14625L7.14466 9.1328L7.17253 9.07839L7.19489 9.00514L7.22998 8.89474L7.21689 8.86366L7.22426 8.84054L7.25213 8.79999L7.29855 8.7517L7.32451 8.69551L7.34857 8.63733L7.35218 8.6007L7.35955 8.54252L7.36145 8.51563L7.37073 8.48083L7.39669 8.38985L7.40406 8.38409L7.41143 8.38211L7.4226 8.37619L7.43002 8.36473V8.35129L7.4431 8.28144L7.45238 8.22132L7.43929 8.2004L7.41333 8.18104L7.38927 8.17335L7.39308 8.15592L7.43193 8.15216L7.45238 8.12505L7.46716 8.0843L7.47834 8.05343L7.48932 8.0281L7.49859 8.01267L7.50786 7.99901L7.51338 8.00493L7.50786 8.01445L7.4819 8.08806L7.51699 8.06886L7.54847 8.03386L7.57824 8.00875L7.5225 7.95642L7.50245 7.9041L7.52651 7.79946L7.55799 7.75117L7.58225 7.67384L7.59704 7.65448L7.58586 7.73202L7.58395 7.79946L7.60255 7.83645L7.63022 7.8499L7.65809 7.8792L7.67117 7.87344L7.68596 7.85189L7.72104 7.83645L7.72295 7.81689L7.6839 7.80145L7.66721 7.76666L7.67287 7.72035L7.69147 7.66803L7.63764 7.67002L7.60425 7.62529L7.58947 7.60436L7.59854 7.57328L7.63187 7.49789L7.65613 7.4419L7.7024 7.41051L7.72094 7.38958L7.74139 7.37792L7.76355 7.37394L7.7857 7.36426L7.80806 7.33915L7.79518 7.34113H7.78761L7.77834 7.34312L7.76736 7.34888L7.745 7.32575L7.72285 7.32774L7.7024 7.34867L7.68761 7.36232L7.67092 7.38545L7.68946 7.31006L7.68756 7.23681L7.66541 7.1747L7.62826 7.13991L7.68946 7.06059L7.71162 7.01429L7.74671 6.8748L7.75222 6.81468L7.74671 6.75671L7.71884 6.70251L7.73929 6.67917L7.75788 6.67342L7.77793 6.66766L7.82986 6.63481L7.84104 6.62115L7.85773 6.59227L7.87818 6.54183L7.89106 6.48564L7.90034 6.42767L7.90415 6.37169L7.90034 6.2728L7.85578 6.05797L7.85768 6.00199L7.89277 6L7.8854 6.00769L7.88159 6.01538L7.87422 6.03281L7.91878 6.04824L7.96334 6.08879L8.00049 6.13724L8.02434 6.17977L8.05221 6.20709L8.11342 6.21478L8.13387 6.2322L8.13938 6.27275L8.13011 6.30754L8.12459 6.3404L8.14299 6.3754L8.1468 6.34239L8.15607 6.31549L8.17276 6.2998L8.19682 6.29802L8.20063 6.28436L8.18755 6.26516L8.16179 6.21284L8.14675 6.19939L8.1282 6.19348L8.11151 6.1838L8.09863 6.16811L8.08745 6.14911L8.12254 6.1432L8.18925 6.15288L8.22259 6.13923L8.25045 6.13347L8.26715 6.1568L8.29121 6.21478L8.31717 6.2357L8.34504 6.23968L8.5099 6.24345L8.53967 6.23576L8.51962 6.20489L8.50844 6.19521L8.53441 6.19144L8.58995 6.20489L8.62157 6.2029L8.67541 6.17956L8.70308 6.17381L8.74022 6.17559L8.76027 6.18746L8.77711 6.20839L8.84192 6.36148L8.84929 6.38445L8.87335 6.41553L9.05319 6.49092L9.15705 6.51405L9.18302 6.50636L9.24612 6.45236L9.27946 6.43693L9.28126 6.43688Z" fill="#550000"/>
</svg>
