<svg width="26" height="26" viewBox="0 0 26 26" fill="none" xmlns="http://www.w3.org/2000/svg">
<circle cx="13" cy="13" r="13" fill="#F8F3ED"/>
<path d="M21.859 13.5138L21.6777 13.4153L21.5611 13.3226L21.4336 13.2035L21.4195 13.1826L21.3827 13.1529L21.2037 13.0514L21.1301 12.9112L21.0791 12.8548L20.9766 12.9262L20.903 12.8965L20.8322 12.8309L20.7869 12.7651L20.7019 12.4699L20.6276 12.3806L20.4719 12.3656L20.3897 12.4043L20.3501 12.3954L20.3041 12.2939L20.2843 12.2582L20.2701 12.2165L20.2758 12.1748L20.239 12.0555L20.2333 12.0194L20.2362 11.9867L20.2164 11.951L20.1966 11.9063V11.8499L20.2107 11.7305H20.2022L20.1852 11.7063L20.1739 11.6733L20.1852 11.6554L20.2022 11.6375L20.2164 11.6018L20.2277 11.5304L20.2872 11.5452L20.3409 11.5244L20.3811 11.4735L20.384 11.3991L20.3811 11.3006L20.4067 11.256L20.4406 11.2173L20.4548 11.1456L20.4293 11.0741L20.3726 11.0173L20.3155 10.9756L20.2872 10.9489L20.2758 10.9247L20.2645 10.9157H20.2446L20.2276 10.9187L20.2162 10.9157L20.2134 10.9009V10.883L20.2077 10.8681L20.1624 10.8294L20.1394 10.8023L20.128 10.7756L20.145 10.7071L20.1961 10.6324L20.2527 10.5699L20.2895 10.5402L20.3495 10.5074L20.3949 10.4509L20.477 10.2718L20.4883 10.2628L20.4855 10.2539L20.4742 10.2062L20.4827 10.1853L20.5057 10.1556L20.5312 10.1314L20.5483 10.1168L20.5794 10.0779L20.6848 9.83646L20.7131 9.65106L20.7188 9.53499L20.7131 9.50823L20.7244 9.4518L20.8461 9.2664L20.849 9.25455L20.8546 9.21287L20.8603 9.19506L20.8715 9.18015L20.9028 9.1712L20.9339 9.12654L20.9594 9.1084L21.0222 9.08753L21.0704 9.03691L21.0676 9.03094L21.0364 8.95622L20.9735 8.8848L20.9396 8.85505L20.9028 8.79822L20.8829 8.77146L20.8574 8.76251L20.829 8.78065L20.8036 8.80121L20.7724 8.80717L20.73 8.78065L20.6648 8.75953L20.5283 8.80419H20.4575L20.4094 8.77767L20.3725 8.74164L20.3265 8.71487L20.1934 8.71189L20.134 8.67884L20.0858 8.62822L19.8729 8.34786L19.8276 8.3211L19.8106 8.28241L19.7851 8.07976L19.7681 7.99915L19.6967 7.86525L19.6996 7.82624L19.7313 7.78489V7.74563L19.6996 7.66502L19.6571 7.63826L19.6061 7.6323L19.5381 7.61142L19.5863 7.51324L19.5891 7.47422L19.5495 7.46826L19.5212 7.45963L19.4646 7.39651L19.3819 7.38757L19.3052 7.34888L19.2684 7.34291L19.1183 7.40836L19.0611 7.38184L19.0271 7.30124L19.0015 7.20596L18.9676 7.14018L18.8996 7.11043L18.8034 7.08956L18.7235 7.05385L18.7122 7L18.6782 7.00895L18.6159 7.02386L18.2302 7.11374L17.8473 7.20604L17.461 7.29527L17.0753 7.38491L16.6895 7.47414L16.3067 7.5608L15.921 7.65011L15.5347 7.73644L15.149 7.8231L14.7633 7.90975L14.3775 7.99608L13.9912 8.08266L13.6055 8.16601L13.2198 8.25266L12.8341 8.33601L12.4483 8.4196L12.0593 8.50319L11.6735 8.5838L11.2878 8.66715L10.9021 8.74776L10.5135 8.82837L10.1273 8.90898L9.74158 8.98959L9.35302 9.06697L8.96731 9.14758L8.57822 9.22529L8.1925 9.3059L7.80394 9.3836L7.41823 9.45833L7.02967 9.53571L6.64058 9.61012L6.25486 9.6875L6.15009 9.70862L6.12708 9.5744L6.1073 9.46397L6.08743 9.35055L6.06764 9.2377L6.04724 9.12485L6.02745 9.01111L6.00758 8.89826L5.9878 8.78541L5.96793 8.67473L5.9651 8.66578L5.63322 8.88665L5.52584 9.00273L5.41486 9.0652L5.30748 9.19974L5.1942 9.26817L5.06902 9.38723L5.00391 9.42326L4.99831 9.3932L5.01242 9.37264L5.0408 9.31581L5.05208 9.3009L5.12348 9.28599L5.14895 9.26519L5.17196 9.2265L5.10392 9.21159L5.05522 9.25326L5.0184 9.31275L4.95329 9.37256L4.93342 9.46784L4.90504 9.49493L4.88242 9.50677L4.81163 9.59311L4.38572 9.95085L4.21299 10.0223L4.17334 10.058L4.13599 10.1059L4 10.1807L4.05369 10.4875L4.19022 11.3046L4.32896 12.1187L4.39699 12.5271L4.46832 12.9355L4.53636 13.3438L4.60431 13.7525L4.6751 14.1582L4.74305 14.5693L4.81446 14.9777L4.88242 15.3864V15.3894V15.3983H4.88525V15.4043L4.99003 16.0305L5.04372 16.3434L5.09741 16.6565L5.15178 16.9696L5.20547 17.283L5.2564 17.5958L5.31009 17.9119L5.35534 18.1834L5.40351 18.4548L5.44953 18.7288L5.49485 19L5.87773 18.9286L6.25778 18.8572L6.64066 18.7828L7.02131 18.711L7.40419 18.6363L7.78423 18.5619L8.16435 18.4875L8.54723 18.4128L8.8847 18.347L9.21942 18.2785L9.55758 18.2131L9.89505 18.1447L10.2325 18.0759L10.57 18.0071L10.9075 17.9386L11.2449 17.8702L11.5824 17.8017L11.9171 17.73L12.2546 17.6583L12.5921 17.5898L12.9269 17.5184L13.2643 17.447L13.6018 17.3752L13.9365 17.3035L14.274 17.2291L14.6115 17.1577L14.9468 17.083L15.2843 17.0082L15.619 16.9338L15.9565 16.8624L16.2912 16.785L16.6259 16.7103L16.9634 16.6356L17.2981 16.5582L17.6355 16.4838L17.9703 16.4061L18.305 16.3284L18.6398 16.251L18.9772 16.1736L19.3119 16.096L19.335 16.093L19.3378 16.0841L19.3803 15.959L19.4205 15.8367L19.4658 15.6997L19.5083 15.6339L19.562 15.5744L19.6102 15.5358L19.698 15.4851L19.7608 15.4584L19.8883 15.4223L20.0305 15.4104L20.1437 15.4223L20.2401 15.4554L20.2967 15.4881L20.2995 15.4911L20.3539 15.3691L20.3936 15.3357L20.4446 15.3115L20.6032 15.1776L20.6774 15.1924L20.7454 15.1627L20.8502 15.0642L21.0094 14.9567L21.0433 14.9061L21.0094 14.8287L21.0065 14.7392L21.0295 14.6586L21.0749 14.6199L21.1343 14.5842L21.211 14.4741L21.2733 14.4291L21.3645 14.3543L21.3956 14.3186L21.4806 14.1609L21.5174 14.1192L21.6199 14.0564L21.6454 14.0356L21.7276 13.9192L21.7502 13.895L21.821 13.8683L21.9088 13.8119L21.9801 13.7401L22 13.6535L21.949 13.5791L21.859 13.5138Z" fill="#550000"/>
</svg>
