<svg width="26" height="26" viewBox="0 0 26 26" fill="none" xmlns="http://www.w3.org/2000/svg">
<circle cx="13" cy="13" r="13" fill="#F8F3ED"/>
<path d="M14.8061 20.8083L14.6548 20.6398L14.6254 20.3534L14.5648 20.1571L14.4892 20.0364L14.3824 19.9763L14.2323 20.0213L14.3374 20.2782L14.353 20.504L14.2618 20.6709L14.036 20.7776L13.9604 20.9277L13.9759 21.2325L14.1121 21.4894L14.3534 21.565L14.7755 21.3671L14.9579 21.2325L15.0474 21.0946L14.9718 20.9277L14.8061 20.8083ZM16.0478 13.1664L15.9271 12.7443L15.8654 12.5897L15.7909 12.4845L15.6842 12.4395H15.5341L15.4879 13.182L15.5341 13.499L15.7443 13.6352L15.7149 13.7403V13.816L15.6842 13.8917L15.6086 13.9673L15.7153 14.1931L15.7447 14.648L15.8204 14.7707L15.8961 14.7245L15.9872 14.5609L16.0768 14.394L16.1218 14.2713L16.1373 13.9849L16.1218 13.6061L16.0478 13.1664ZM18.0285 13.3938L17.9974 13.213L17.9835 13.0151L17.9369 12.7737L17.5749 11.32V10.6103L17.4698 10.2159L17.3336 10.4123L17.0167 10.7448L16.9099 10.9428L16.8805 11.1842L16.9254 11.7593L16.8944 12.0006L16.8343 12.0918L16.6502 12.2726L16.6208 12.3655L16.7103 12.6363L16.7259 12.7893L16.7103 12.8928L16.6052 13.1382L16.6208 13.3484L16.7414 13.5603L16.9868 13.7567L16.8662 13.9375L16.4408 14.27L16.3791 14.4075L16.5017 14.6644L16.6379 14.6954L16.788 14.5727L16.9275 14.3314L17.2289 14.3003L17.4113 13.9367L17.6526 13.5746H18.1508L18.0285 13.3938ZM16.7418 10.2912L17.0015 9.92796L17.0616 9.89851L17.0461 9.82284L16.9856 9.56431L16.9561 9.38515L16.97 9.34016L16.3034 8.67217L15.9709 8.53596L15.804 8.52042L15.6077 8.47542L15.3214 8.35475L15.0912 8.17395L14.9566 8.05328L14.91 7.93056L14.865 7.84099L14.7738 7.1591L14.6998 6.9783L14.6687 6.87317V6.70955L14.6532 6.58684L14.6237 6.43671L14.5325 6.23874L14.4569 6.17861H14.3362L14.0499 6.26818H13.9293L13.8536 6.17861L13.8074 6.05957L13.4299 4.86269L13.2304 4.25811L13.1559 4L12.3703 4.19634L11.0235 4.57513L9.69065 4.95391L8.32835 5.3466L7 5.72415L7.28629 6.82858L7.5877 7.94693L7.88912 9.0665L8.19216 10.1877L8.48581 11.3032L8.78723 12.4076L9.09029 13.5272L9.3921 14.6455L9.54342 15.2362L9.70702 16.0543L9.9344 17.2655L9.752 17.3723L9.70702 17.5518L9.67757 17.8427L9.79821 18.8543L9.81211 19.2633L11.1294 18.7189L13.3825 17.1461L14.0798 16.9342L14.2606 16.9497L14.6536 17.0238H14.8049L14.9255 16.8875L14.9566 16.6928L14.9411 16.5104L14.9705 16.4036L15.3664 14.7396L15.3214 14.3915L15.0307 13.3783L14.8806 13.1063L14.5775 12.7598L14.593 12.5447L14.7599 12.305L14.8344 11.8959L14.7599 11.5032L14.6086 11.1257L14.3812 10.8659L13.9902 10.7902L14.0352 10.6401L14.1714 10.4577L14.3215 10.337L14.5039 10.3076L14.654 10.3526L14.7902 10.4577L14.9415 10.5939L14.957 10.3976L15.0466 9.95987V9.79625L14.9415 9.56718L14.7746 9.4776L14.6246 9.41747L14.4884 9.3107L14.3522 8.99369L14.2008 8.53883L14.1113 8.10114L14.0957 7.82748L14.3526 8.05656L14.5489 8.26681L14.6851 8.52369L14.8057 8.85625L15.002 9.09759L15.3517 9.26612L15.6842 9.35734L15.8355 9.37288L15.8511 9.20435L15.7754 8.78057L15.8049 8.67545H15.9562L16.0768 8.75113L16.1525 8.88734L16.0613 9.35734L16.0474 9.72099V10.0985L16.092 10.3706L16.2555 10.5514L16.4985 10.4912L16.7418 10.2912Z" fill="#550000"/>
</svg>
