<svg width="26" height="26" viewBox="0 0 26 26" fill="none" xmlns="http://www.w3.org/2000/svg">
<circle cx="13" cy="13" r="13" fill="#F8F3ED"/>
<path d="M20.517 8.04196L20.5061 8.07357L20.4973 8.08451L20.4905 8.09996L20.4862 8.11336L20.4728 8.2911L20.4596 8.34021L20.4175 8.41793L20.357 8.56219L20.3481 8.5756L20.3326 8.59766L20.3126 8.61996L20.2549 8.66678L20.0991 8.75586L20.0769 8.77563L20.0302 8.83129L19.9482 8.88924L19.9301 8.90469L19.9147 8.92242L19.8881 8.98469L19.8815 9.04672L19.9412 9.11807L20.0524 9.23149L20.0968 9.29581L20.1816 9.46922L20.2327 9.55397L20.2793 9.58944L20.4528 9.6026L20.5461 9.62737L20.6107 9.66944L20.6354 9.69397L20.6887 9.73376L20.7109 9.75401L20.773 9.86059L20.7887 9.88968L20.7998 9.89851V9.9008L20.8041 10.0117L20.8242 10.6478L20.8442 11.286L20.8669 11.9239L20.8867 12.5621L20.9067 13.2023L20.9267 13.843L20.9466 14.4829L20.9688 15.1233L20.653 15.1368L20.6442 15.1456L20.6508 15.1633L20.6576 15.1788L20.6642 15.1988L20.6665 15.2188L20.6619 15.2525V15.279L20.6642 15.3013L20.6753 15.3302L20.6864 15.3459L20.7285 15.3879L20.7463 15.4125L20.7863 15.4527L20.7951 15.4636L20.8017 15.4948L20.8062 15.6459L20.7996 15.717L20.795 15.7282L20.7862 15.7393L20.7751 15.7461L20.7596 15.7504L20.7262 15.7461L20.713 15.7504L20.7064 15.764L20.7084 15.7838L20.7285 15.815L20.7462 15.8261L20.7573 15.8372L20.7619 15.8483L20.7551 15.8594L20.7351 15.8815L20.7285 15.8949L20.7262 15.9103L20.7308 15.926L20.7462 15.9415L20.7619 15.946L20.7819 15.9483L20.8174 15.9438L20.8667 15.9506H20.8845L20.9065 15.9483H20.92L20.9334 15.9549L20.9422 15.9658L20.9488 15.9794L20.9577 16.0108L20.98 16.137L20.9888 16.1659L20.9954 16.1882L21 16.2062V16.2302L20.98 16.3482L20.9711 16.3705L20.9622 16.3859L20.8911 16.457L20.8865 16.4727V16.4882L20.8976 16.5036L20.9044 16.515L20.9088 16.5236L20.9111 16.5373L20.9065 16.5573L20.8933 16.5973L20.8845 16.6127V16.6173L20.8822 16.6239L20.8845 16.635L20.8888 16.6905L20.88 16.7262L20.8733 16.7439L20.8329 16.7907L20.8306 16.7974L20.8285 16.8174L20.8263 16.8974L20.8217 16.9197L20.8174 16.9351L20.8085 16.9419L20.7996 16.953L20.795 16.9664L20.7907 16.9842V17.0219L20.7884 17.0376L20.7818 17.0487L20.7727 17.0553L20.7395 17.071L20.7306 17.0754L20.724 17.0842L20.7152 17.0953L20.7083 17.1087L20.7017 17.1242L20.6994 17.1396L20.6928 17.1553L20.6882 17.1685L20.655 17.2176L20.6373 17.2601L20.6284 17.2889L20.6238 17.3287L20.6284 17.3532L20.6416 17.3821L20.6793 17.4353L20.6994 17.4578L20.7194 17.4755L20.8415 17.5578L20.8619 17.5755L20.88 17.5955L20.8888 17.6067L20.8911 17.6201L20.8845 17.6332L20.8595 17.6532L20.8574 17.6578L20.8506 17.6687V17.6755L20.8551 17.6846L20.8933 17.7066L20.9065 17.7134L20.9153 17.7222L20.9242 17.7354L20.9399 17.7622L20.9465 17.7779L20.9488 17.7956V17.8197L20.951 17.8377L20.9622 17.8532L20.9753 17.8598L20.9908 17.8955L20.9954 18L20.7018 17.9621L20.6618 17.938L20.6378 17.9L20.6267 17.8446L20.6039 17.798L20.5107 17.7311L20.4818 17.6957L20.4795 17.6577L20.4907 17.6332L20.5041 17.6132L20.5107 17.5866L20.4975 17.5643L20.4707 17.5489L20.4398 17.5401L20.4153 17.5378L20.3216 17.5466L20.2927 17.5423L20.2661 17.5266L20.2527 17.5109L20.2439 17.4909L20.2284 17.4643L20.2043 17.4286L20.1732 17.3975L20.1311 17.3752L19.9287 17.3663L19.8866 17.3532L19.8619 17.3332L19.8462 17.3131L19.8241 17.2997L19.7639 17.2889L19.7128 17.2641L19.6907 17.2577H19.5716L19.5184 17.2464L19.4652 17.2223L19.4163 17.1889L19.3315 17.1178L19.2626 17.0336L19.2225 17L19.1759 16.9777L19.1204 16.9711L18.6731 17.0624H18.6126L18.4485 17.0264L18.3996 17.04L18.3125 17.0866L18.2592 17.0909L18.2327 17.0821L18.1861 17.0555L18.1572 17.0512L18.0655 17.0752L17.9123 17.0421L17.8564 17.0575L17.8298 17.0686L17.8057 17.0864L17.7857 17.1104L17.7791 17.1504L17.7523 17.2285L17.7434 17.2419L17.7302 17.251L17.6856 17.2908L17.6591 17.3042L17.5989 17.3108L17.5388 17.3065L17.3764 17.2553L17.3498 17.2373L17.3387 17.2041L17.3164 17.1793L17.0028 17.055L16.9096 16.9769L16.8134 16.9168L16.8022 16.9145L16.7756 16.9122L16.7601 16.9102L16.5221 16.7636L16.5064 16.7479L16.4597 16.6945L16.4531 16.6899H16.4395L16.246 16.6924L15.8633 16.6967L15.4809 16.7013L15.098 16.7033L14.7155 16.7077L14.3328 16.71H13.9504L13.5655 16.712H12.4178L12.0351 16.71L11.6524 16.7088L11.2699 16.7069L10.887 16.7046L10.5048 16.7003L10.1219 16.6957L9.73937 16.6911L9.35671 16.6866L8.97404 16.68L8.59161 16.6734L8.20894 16.6666L7.82627 16.6577L7.44378 16.6511L7.06111 16.6422L6.67844 16.6311L6.29595 16.6223L5.91304 16.6111L5.5308 16.6L5.14789 16.5891L4.7654 16.5757L4.38267 16.5623L4 16.5492L4.01341 16.1822L4.02478 15.8176L4.03795 15.453L4.04907 15.086L4.06249 14.7215L4.07361 14.3567L4.08678 13.992L4.09791 13.6274L4.10903 13.2652L4.1222 12.9004L4.13333 12.5361L4.14674 12.1734L4.15787 11.8109L4.16875 11.4464L4.18216 11.0838L4.19329 10.7213L4.26443 10.7259L4.26672 10.6882L4.27147 10.5102L4.28235 10.1968L4.29144 9.88114L4.30238 9.5675L4.31122 9.25409L4.3203 8.94045L4.33119 8.62705L4.34003 8.3134L4.35116 8L4.85633 8.01803L5.3615 8.03552L5.86632 8.05097L6.37149 8.06462L6.87666 8.07778L7.38148 8.09118L7.88665 8.1023L8.39182 8.11342L8.897 8.12226L9.40181 8.12905L9.90698 8.13789L10.4141 8.14246L10.9193 8.14907L11.4244 8.1534L11.9296 8.15568L12.4348 8.15796H13.4469L13.952 8.15568L14.4572 8.1534L14.962 8.15135L15.4672 8.14678L15.9745 8.14017L16.4772 8.13338L16.9843 8.12677L17.4892 8.11769L17.9943 8.10657L18.4995 8.09545L19.0043 8.08457L19.5095 8.07141L20.0147 8.05752L20.5195 8.04208L20.517 8.04196Z" fill="#550000"/>
</svg>
