<svg width="26" height="26" viewBox="0 0 26 26" fill="none" xmlns="http://www.w3.org/2000/svg">
<circle cx="13" cy="13" r="13" fill="#F8F3ED"/>
<path d="M19.8702 14.0709L19.8209 14.1148L19.7945 14.1761L19.7911 14.2493L19.8077 14.3252L19.8344 14.3192L19.8739 14.1558L19.8641 14.0945L19.8773 14.0885L19.8807 14.0825L19.8773 14.0768L19.8702 14.0709ZM21.9807 10.5429L21.9539 10.522L21.9213 10.5104H21.8848L21.8814 10.4844L21.9707 10.4435L21.6864 10.2681L21.4029 10.0957L21.1156 9.92327L20.8314 9.75061L20.5472 9.57818L20.267 9.40575L19.9827 9.23009L19.6988 9.05497L19.4146 8.88231L18.8501 8.53461L18.285 8.18383L18.0042 8.01148L17.724 7.83613L17.4431 7.66079L17.3046 7.57591L17.228 7.56722H17.116L16.9814 7.58453L16.942 7.59053L16.8259 7.60816L16.6473 7.63447L16.4195 7.66671L16.145 7.70496L15.8415 7.74858L15.5177 7.79251L15.1808 7.83914L14.8439 7.88576L14.5202 7.93238L14.2129 7.97363L13.9419 8.01156L13.711 8.04412L13.5324 8.06743L13.4204 8.08181L13.3809 8.08774L13.2351 8.10805L13.2054 8.10536L13.1824 8.08774L13.1692 8.06443L13.1625 8.03812L13.0967 7.63447L13.09 7.61076L13.0704 7.59014L12.879 7.42972L12.6409 7.23074L12.4756 7.09641L12.4624 7.08748L12.4493 7.08479H12.4327L12.4132 7.09909L12.1526 7.33308L12.1327 7.34177L12.1124 7.34477L12.0861 7.33015L12.0695 7.31554L12.053 7.29791L12.0433 7.28029L12.0365 7.26567V7.23406L12.0399 7.21644L12.0628 7.13742L12.0696 7.11711L12.0662 7.0938L12.0628 7.07318L12.053 7.05587L12.0433 7.04093L12.0301 7.02932L12.0136 7.0177L11.9936 7.00601L11.9639 7H11.918L11.6932 7.02331L11.5052 7.04394L11.277 7.06764L11.0091 7.09396L10.7157 7.12557L10.4018 7.15781L10.0715 7.18942L9.74114 7.22434L9.41079 7.25927L9.08705 7.28883L8.78626 7.32107L8.50949 7.34707L8.26476 7.37077L8.06057 7.3914L7.90495 7.40602L7.80603 7.41471L7.77299 7.42071L7.51211 7.44403L7.24426 7.50527L7.22774 7.50227L7.21462 7.49626L7.2048 7.48757L7.18149 7.46726L7.17167 7.45564L7.15516 7.44671L7.13221 7.44972L7.10587 7.46133L7.05962 7.49926L7.04007 7.52257L7.02659 7.54589L7.01677 7.60744L7.00025 7.62506L6.97391 7.63968L6.84463 7.65731L6.82168 7.66892L6.79874 7.69492L6.78561 7.71286L6.7691 7.72448L6.74276 7.73317L6.6108 7.75379L6.58786 7.76241L6.41233 7.84143L6.30028 7.91136L6.27054 7.92899L6.24081 7.93792L6.20063 7.94092L6.16796 7.94661L6.14805 7.96723L6.14126 7.99054L6.13483 8.03448L6.11189 8.0638L6.07876 8.09303L5.99966 8.14558L5.96395 8.1749L5.93422 8.19521L5.9177 8.20122L5.88797 8.19521L5.87181 8.1836L5.85189 8.15459L5.73913 8.19252L4.73917 8.64848L4.67265 8.65717L4.67604 8.66318L4.67908 8.71012L4.66596 8.75975L4.64301 8.80637L4.6073 8.8473L4.5148 8.88523L4.47194 8.91479L4.34266 9.02866L4.30999 9.0756L4.28669 9.13684L4.25392 9.26533L4.22758 9.32689L4.18776 9.37082L4.13847 9.40876L4.09562 9.45538L4.07562 9.51362L4.06589 9.53732L4.06249 9.56656L4.06589 9.59888V9.63049L4.05607 9.66574L4.00642 9.7416L4 9.91134L4.13847 10.0368L4.50168 10.1829L4.63024 10.2212L4.71596 10.1856L4.74274 10.1886L4.75586 10.2415L4.79158 10.2851L4.93675 10.335L5.03228 10.414L5.11531 10.4489L5.19129 10.5308L5.2571 10.5837L5.38576 10.6246L5.5545 10.5954L5.80502 10.5631L5.97386 10.6277L6.02993 10.7238L6.06636 10.826L6.13885 10.9461L6.17841 10.9755L6.43599 11.2297L6.48179 11.3144L6.60767 11.6388L6.63741 11.6885L6.66705 11.7031L6.73964 11.767L6.82892 11.7846L6.88159 11.8169L6.93088 11.8545L6.96802 11.8901L7.02712 11.9922L7.06694 12.0419L7.15909 12.0712L7.19864 12.1091L7.25471 12.2118L7.31069 12.2997L7.35765 12.396L7.41032 12.4339L7.47282 12.4428L7.54541 12.4339L7.61461 12.4778L7.69023 12.5507L7.79317 12.6269L7.91816 12.6765L8.04316 12.7087L8.19878 12.7703L8.37369 12.8608L8.57859 12.9806L8.69742 13.0712L8.77305 13.2376L8.84634 13.3081L8.89259 13.3897L8.96822 13.4952L9.05402 13.5564L9.14991 13.5946L9.23294 13.615L9.41419 13.6353L9.4932 13.659L9.57962 13.7026L9.76765 13.8547L9.8531 13.9073L10.0188 13.9746L10.0846 14.0358L10.0714 14.1237L10.0943 14.141L10.1372 14.1939L10.0811 14.2112L10.0781 14.2407L10.1372 14.3313L10.0913 14.3629L10.127 14.4158L10.3124 14.5589L10.3481 14.5795L10.3583 14.5589L10.3744 14.5382L10.4142 14.5352L10.4602 14.5439L10.4866 14.5529L10.4933 14.5795L10.447 14.6111L10.5196 14.646L10.5527 14.687L10.5493 14.7282L10.5031 14.7661L10.5757 14.8447L10.6415 14.8859L10.7113 14.8976L10.794 14.8889L10.8234 14.9179L10.8765 15.07L10.9062 15.1193L11.055 15.1983L11.3987 15.2686L11.5634 15.3239L11.6853 15.3971L11.7447 15.4204H11.8278L11.8804 15.4404L11.9399 15.4992L11.9895 15.5724L12.0125 15.6367L12.0091 15.7738L12.0222 15.8496L12.0719 15.8763L12.3163 16.1392L12.3724 16.2419L12.3957 16.3001L12.4088 16.356L12.4416 16.4142L12.4878 16.4609L12.525 16.5197L12.528 16.572L12.5115 16.6043V16.6509L12.5051 16.6952L12.5182 16.7125L12.5381 16.7185L12.5644 16.7418L12.5874 16.7681L12.6005 16.7944L12.6039 16.8703L12.5942 16.9318L12.6006 16.9904L12.6502 17.0486L12.7029 17.0836L12.7785 17.1158L12.8612 17.1361L12.974 17.1391L13.0097 17.1478L13.0454 17.1657L13.0785 17.186L13.1443 17.2357L13.1642 17.244L13.1808 17.2414L13.2672 17.2679L13.2901 17.2796L13.31 17.3112L13.3263 17.3525L13.3531 17.3874L13.4057 17.3961L13.4618 17.4167L13.4915 17.481L13.5111 17.6008L13.6866 17.9019L13.746 17.9106L13.7987 17.9485L13.8415 18.0131L13.8645 18.0916L13.8679 18.1415L13.848 18.1968L13.8415 18.2347L13.8449 18.2784L13.8713 18.3775L13.8679 18.4041L13.8449 18.4773V18.5182L13.8612 18.5442L13.9505 18.6586L13.9539 18.6702L13.9471 18.6875L13.9504 18.7079L13.9669 18.7345L13.9872 18.7489L14.0301 18.7635L14.0534 18.7751L14.1821 18.8773L14.2178 18.8892L14.4295 18.8396L14.5152 18.8456L14.6766 18.8835L14.7063 18.9098L14.7435 18.9568L14.806 18.9884L14.8786 19L14.9545 18.9943H14.9576L14.9249 18.9418L14.9215 18.8948L14.938 18.8482L15.073 18.6435L15.0969 18.5645L15.0902 18.4683L15.1034 18.4388L15.1726 18.3455L15.1925 18.3016L15.1891 18.243L15.1826 18.1934V18.1468L15.2056 18.1055L15.2413 18.2517L15.1624 18.5124L15.1579 18.6634L15.4347 18.4438L15.5275 18.2744L15.6066 18.1662L15.6001 18.1253L15.5342 18.0578L15.4944 18.0262L15.4445 17.9999L15.385 17.9969L15.3225 18.0348L15.174 17.8711L15.1383 17.8448L15.0781 17.8302L15.0684 17.7748L15.092 17.6757L15.0385 17.5849L14.9395 17.4534L14.8635 17.3219L14.8737 17.2284L14.8703 17.2021L14.8339 17.1642L14.7583 17.0614L14.7047 17.0324L14.7013 17.0087L14.7712 16.9971L14.8107 17.0264L14.8375 17.0727L14.8803 17.117L14.9428 17.1373L14.9921 17.1343L15.0052 17.1519L14.9658 17.2281L14.9857 17.3096L15.0579 17.4471L15.194 17.649L15.4813 17.8071L15.5374 17.8247L15.5738 17.8101L15.5772 17.7369L15.5607 17.699L15.5144 17.6407L15.4979 17.6112L15.4479 17.3483L15.455 17.2954L15.4783 17.2429L15.455 17.2342L15.4479 17.2225L15.4246 17.2314L15.4148 17.2371L15.4084 17.2314L15.3918 17.2021L15.4915 17.1934L15.5272 17.2573L15.5141 17.5469L15.537 17.5642L15.6592 17.4915V17.7398L15.6758 17.8426L15.7183 17.9417L15.7611 17.9504L15.8938 17.8659L15.9206 17.8599H15.9799L16.0194 17.8452L16.2906 17.629L16.3203 17.5644L16.2443 17.5384L16.254 17.5324L16.2672 17.5297L16.2706 17.5237L16.2672 17.5034L16.2906 17.5004L16.3398 17.512L16.3662 17.4418L16.3764 17.3453L16.373 17.2663L16.3466 17.2719L16.3369 17.3069L16.3136 17.3394L16.2673 17.3947L16.2316 17.4417L16.1486 17.5062L16.0565 17.5586L15.9903 17.5792L15.9805 17.5382L16.0298 17.4651L16.1057 17.3922L16.2546 17.307L16.258 17.2314L16.2019 17.1642L16.1023 17.1462L15.7557 17.1758L15.8387 17.1288L15.9376 17.0909L16.0464 17.0676L16.1487 17.0587L16.142 17.0297L16.0893 17.0207L15.9904 16.9855L15.9377 16.9828L15.8982 16.9947L15.8321 17.0207L15.7889 17.0327L15.452 17.0267L15.3895 17.0676L15.3861 17.0413L15.3797 17.018L15.4026 16.9737L15.4324 16.9504L15.5484 16.9331L15.8185 16.9271L15.9083 16.9038L15.8786 16.8715L15.8523 16.8366L15.8324 16.7957L15.8259 16.7514L15.8527 16.7457L15.8884 16.7927L15.9216 16.816L16.0798 16.9039L16.1291 16.9069L16.1754 16.9009L16.2521 16.9039L16.3146 16.9272L16.354 16.9565L16.3939 16.9798H16.4597L16.5089 16.9476L16.5289 16.8863L16.5255 16.8131L16.5025 16.7516L16.5586 16.7695L16.5822 16.8074L16.5954 16.8514L16.6251 16.8863L16.6812 16.9123L16.708 16.8979L16.7313 16.8716L16.7741 16.8513L17.0054 16.6379L17.0418 16.6146L17.0712 16.5881L17.0911 16.5505L17.0978 16.5155L17.0911 16.5068L17.0681 16.5036L16.8696 16.393L16.8136 16.352L16.8662 16.3344L16.9459 16.3637L17.0846 16.4572L17.1866 16.5101L17.2362 16.4891L17.2791 16.4366L17.3587 16.3987L17.4377 16.3754L17.596 16.2963L17.7848 16.2351L17.8145 16.1998L17.778 16.1646L17.6859 16.1267L17.6791 16.103L17.7088 16.077L17.7484 16.0743L17.8442 16.077L17.9364 16.0597L17.9694 16.039L18.1578 15.8666L18.2007 15.7817L18.1875 15.6619L18.1646 15.6676V15.6913L18.1545 15.6943L18.0954 15.6737L18.0657 15.6415L18.0285 15.6178L17.8935 15.6144L17.8342 15.5858L17.7849 15.5391L17.7585 15.4863L17.8176 15.5179L17.8736 15.5358L17.9101 15.5266L17.9134 15.4743L17.8935 15.413L17.8375 15.3222L17.8176 15.2696L17.8375 15.255L17.9826 15.3103L17.9725 15.2987V15.2694L17.9826 15.24L18.0056 15.2257L18.0822 15.2664L18.0187 15.3775L17.9988 15.4444L18.0285 15.4681L18.0984 15.4767L18.1481 15.5176L18.1909 15.5589L18.2338 15.5735L18.3128 15.5443L18.4157 15.4857L18.5937 15.3483L18.6399 15.2693L18.6794 15.1728L18.7321 15.0852L18.8253 15.0354L18.8418 15.0208L18.8482 14.9914L18.8581 14.9624L18.8848 14.9448L18.9142 14.9331L19.0725 14.8133L19.0958 14.7784L19.109 14.7168L19.0726 14.7315L19.0398 14.7548L19.0165 14.7811L19.0033 14.8163L18.9472 14.761L18.9176 14.7201L18.9142 14.6732L18.9703 14.4836L19.0067 14.4253L19.0561 14.3961L19.159 14.3079L19.2215 14.2792L19.261 14.3198L19.2775 14.3491L19.3434 14.4166L19.3663 14.4546L19.4126 14.4136L19.4784 14.3754L19.5587 14.3438L19.6411 14.3262L19.7299 14.2912L19.7464 14.2387L19.7366 14.1741L19.7498 14.1012L19.8092 14.031L19.9547 13.9404L20.001 13.8789L19.9945 13.797L19.9219 13.7767L19.8355 13.7737L19.786 13.7268L19.8619 13.7211L19.9517 13.7268L20.0243 13.7533L20.0637 13.8142L20.0867 13.8029L20.0999 13.7912L20.1164 13.7736L20.1262 13.7503L20.0803 13.721L20.0439 13.6801L20.0405 13.6421L20.0868 13.6188L20.1198 13.6275L20.1627 13.6888L20.1985 13.7121L20.215 13.6451L20.2507 13.6012L20.2976 13.563L20.337 13.5223L20.2844 13.5163L20.2576 13.4987L20.2182 13.4348L20.1983 13.3905L20.1949 13.3469L20.1787 13.3147L20.0468 13.306L19.9512 13.2767L19.8648 13.2268L19.8186 13.1565L19.8121 13.0747L19.8253 12.9878L19.8482 12.9026L19.9708 12.6689L20.0302 12.5957L20.1061 12.5491L20.1092 12.5724L20.0764 12.6137L19.9741 12.7717L19.9147 12.9674L19.9049 13.0608L19.9248 13.0991L20.0766 13.0754L20.1293 13.09L20.1789 13.1374L20.2117 13.2044L20.2448 13.3448L20.2884 13.3944L20.3113 13.3914L20.2917 13.3008V12.8316L20.3113 12.7853L20.2783 12.7644L20.3279 12.589L20.6014 12.0748L20.8529 11.5985L21.0527 11.3144L21.37 10.9636L21.7093 10.6887L21.8514 10.6097L22 10.5747L21.9807 10.5429Z" fill="#550000"/>
</svg>
