<svg width="26" height="26" viewBox="0 0 26 26" fill="none" xmlns="http://www.w3.org/2000/svg">
<circle cx="13" cy="13" r="13" fill="#F8F3ED"/>
<path d="M18.8123 9.83363L19.082 9.79542L19.3517 9.75721L19.6212 9.71874L19.8909 9.67807L20.1606 9.6396L20.43 9.59867L20.6997 9.558L20.9694 9.51733L21.2389 9.47666L21.5086 9.43599L21.7783 9.39512L22.048 9.35445L22.3148 9.31112L22.5845 9.27045L22.8542 9.22738L23.1239 9.18671L23.2491 9.16515L23.2683 9.15342L23.3166 9.09566L23.3382 9.08614L23.3599 9.08147L23.5381 9.05971L23.7569 9.03109L24 9L23.9112 9.2202L23.8991 9.28949L23.9063 9.30393L23.9567 9.37349L23.9617 9.40211L23.94 9.52672L23.8966 9.67049L23.892 9.70184V9.72341L23.8991 9.73539L23.935 9.78558L23.9783 9.82845L23.9879 9.84289L23.9975 9.85734L23.9928 9.86932L23.981 9.87456L23.8993 9.87702L23.7546 9.8528L23.7426 9.85526L23.7306 9.86239L23.5504 10.0304L23.4899 10.0997L23.4803 10.1141L23.3024 10.6457L23.2857 10.677L23.264 10.7035L23.2399 10.7201L23.2035 10.7634L23.1818 10.785L23.1601 10.797L23.1434 10.8016H23.1219L23.081 10.797L23.0615 10.7921L23.047 10.7849L23.0327 10.7776L23.0207 10.7659L23.0133 10.7539L23.0087 10.7395L23.0037 10.7226L22.9966 10.7081L22.9895 10.6961L22.9799 10.6866L22.9679 10.6795L22.9528 10.6748H22.9361L22.9 10.6795H22.8804L22.8662 10.6748L22.8396 10.6601L22.8254 10.6577L22.8158 10.6601L22.8013 10.6651L22.7753 10.682L22.7032 10.754L22.6906 10.7635L22.6353 10.7706L22.6136 10.7755L22.5535 10.8184L22.4672 10.8569L22.4431 10.8711L22.404 10.9L22.3632 10.943L22.2888 11.0509L22.2672 11.0916L22.2455 11.1729L22.2384 11.1944L22.2 11.264L22.183 11.288L22.1688 11.3049L22.1592 11.3144L22.1491 11.3215L22.0408 11.4148L22.0191 11.4292L22.0024 11.4363L21.9857 11.4387L21.9687 11.4363L21.952 11.4313L21.9375 11.4242L21.9232 11.4122L21.9136 11.4027L21.904 11.3907L21.8819 11.3501L21.8769 11.3334L21.8745 11.3143L21.8769 11.2903L21.8846 11.247L21.887 11.2328L21.8846 11.2233L21.8794 11.2161L21.8265 11.1608L21.8145 11.1537L21.7953 11.1512L21.7714 11.1608L21.6585 11.2423L21.5977 11.2761L21.4342 11.4003L21.432 11.4052L21.4271 11.4147V11.4267L21.4342 11.472L21.432 11.4889L21.4271 11.5031L21.4011 11.542L21.3937 11.5706L21.3915 11.5897L21.3794 11.6156L21.3649 11.6276L21.3482 11.6346L21.3332 11.6324L21.3019 11.6133L21.2635 11.5918L21.2276 11.5822L21.2035 11.5798L21.1774 11.5844L21.1388 11.5989L21.1192 11.6133L21.105 11.6275L21.1 11.642L21.0954 11.6561L21.0905 11.6752V11.6947L21.0929 11.7113L21.0976 11.728L21.105 11.7427L21.1362 11.7904L21.1384 11.8075L21.1338 11.8267L21.1096 11.8695L21.1049 11.884V11.9175L21.1025 11.9342L21.0929 11.9652L21.0419 12.071L20.989 12.1594L20.9698 12.1761L20.9553 12.1834L20.9144 12.1784L20.8035 12.1856L20.7722 12.1809L20.7577 12.1856L20.7459 12.1929L20.6184 12.284L20.5313 12.3246L20.5118 12.3369L20.4976 12.3486L20.4447 12.4229L20.4206 12.442L20.3581 12.478L20.3389 12.49L20.3269 12.5041L20.3197 12.5186L20.2713 12.5817L20.2299 12.6632L20.213 12.6727L20.1934 12.6774L20.1742 12.6752L20.1504 12.6774L20.1238 12.687L20.1021 12.7014L20.0687 12.7445L20.0445 12.7803L20.0157 12.8116L19.8831 12.8932L19.8615 12.9123L19.8469 12.9292L19.8253 12.9674L19.7748 13.0322L19.7581 13.0488L19.7436 13.0583L19.5772 13.1183L19.5577 13.1208L19.5385 13.1183L19.5243 13.1112L19.5097 13.1017L19.4952 13.0922L19.476 13.0897L19.4517 13.0922L19.4013 13.116L19.3722 13.1233L19.3483 13.1279L19.3338 13.1255H19.3171L19.3001 13.1304L19.2834 13.1353L19.2592 13.1498L19.2497 13.1522L19.24 13.1547L19.1458 13.1594L19.1291 13.1618L19.0786 13.1834L19.0306 13.2093L18.9728 13.257L18.9369 13.2955L18.9123 13.3121L18.8931 13.3241L18.8114 13.3555L18.7705 13.377L18.7489 13.3937L18.7369 13.4084L18.7056 13.5017L18.696 13.5183L18.6793 13.5442L18.6626 13.5587L18.5584 13.6116L18.5368 13.6282L18.52 13.6473L18.4693 13.7194L18.4646 13.7363L18.4597 13.748V13.7721L18.4792 13.8127L18.4814 13.8272V13.8463L18.4792 13.8632L18.4743 13.8798L18.4381 13.9519L18.4334 13.9713L18.4262 14.0024V14.0218L18.4358 14.1244L18.4284 14.1535L18.4092 14.1846L18.3657 14.2422L18.344 14.2681L18.327 14.2825L18.3188 14.2849L18.2516 14.2945L18.1121 14.3302L18.073 14.3351H18.0563L18.0418 14.3302L18.0276 14.3231L18.0034 14.3037L17.9867 14.3013L17.965 14.3037L17.9266 14.3231L17.9071 14.3376L17.8928 14.3518L17.852 14.4022L17.8274 14.4453L17.8153 14.4766L17.8106 14.4911V14.517L17.8153 14.6271L17.8227 14.7471L17.8323 14.9268L17.8395 15.0801L17.8495 15.2309L17.616 15.2525L17.3655 15.2743L17.1778 15.2909L17.1582 15.2862L17.0671 15.298L16.7347 15.346L16.4049 15.3913L16.073 15.4366L15.7411 15.482L15.4108 15.525L15.0789 15.5683L14.747 15.6137L14.4172 15.6567L13.9981 15.7047L13.5816 15.7527L13.1651 15.8007L12.749 15.8484L12.3322 15.8964L11.9135 15.9418L11.497 15.9871L11.0805 16.0324L10.6643 16.0758L10.2453 16.1188L9.82874 16.1619L9.41222 16.2048L8.9936 16.2478L8.57675 16.2888L8.1582 16.3296L7.74167 16.3703L7.65055 16.3776L7.61931 16.3798L7.65771 16.4611L7.63363 16.4636L7.53718 16.4731L7.19537 16.5091L6.85134 16.5451L6.5064 16.5811L6.15996 16.6171L5.81594 16.6507L5.47171 16.684L5.12723 16.7175L4.78294 16.7511L4.43891 16.7821L4.09437 16.8159L3.75008 16.847L3.40358 16.8781L3.05955 16.9092L2.71461 16.9403L2.37058 16.9714L2.02415 17L2 16.9643L2.02603 16.9383L2.07647 16.9239L2.13674 16.8928L2.22851 16.8281L2.26443 16.785L2.28858 16.7323L2.30062 16.6772V16.6128L2.32203 16.5551L2.38711 16.548L2.45922 16.5599H2.51507L2.56303 16.4735L2.55347 16.3444L2.51507 16.2124L2.44712 16.057L2.43039 15.9948L2.41367 15.8486L2.41835 15.772L2.44712 15.719L2.57729 15.59L2.61321 15.5399L2.63924 15.4845L2.64907 15.4294L2.64172 15.3479L2.64907 15.293L2.6779 15.2568L2.74038 15.233L2.80547 15.2186L2.86332 15.197L2.88721 15.1539L2.84386 15.0797L2.79831 15.0221L2.78379 14.9861L2.79831 14.955L2.83918 14.9142L2.88005 14.8591L2.87758 14.8184L2.7959 14.73L2.75034 14.6578L2.74494 14.6005L2.77917 14.5551L3.16401 14.3443L3.31832 14.191L3.28949 14.1359L3.21445 14.0906L3.14233 14.0642L3.16186 14.0044L3.19779 13.9591L3.24334 13.93L3.30146 13.9182L3.38314 13.9708L3.42401 13.9782L3.43853 13.9157L3.39297 13.8222L3.31838 13.7574L3.26033 13.681L3.2628 13.6568L3.27458 13.5442L3.34253 13.4056L3.34721 13.3502L3.3642 13.3189L3.4026 13.2831L3.45057 13.252L3.49144 13.24L3.50842 13.1779L3.42675 13.0555L3.26508 12.8615L3.31135 12.8399L3.55398 12.8089L3.58574 12.7971L3.60982 12.7754L3.61698 12.7394L3.58822 12.7203L3.52053 12.7036L3.46762 12.6629L3.42206 12.6008L3.41002 12.543L3.45825 12.5119L3.52541 12.507L3.58841 12.4925L3.63169 12.4568L3.6533 12.3826L3.63879 12.313L3.56915 12.186L3.56667 12.1358L3.57871 12.0736L3.55411 12.0283L3.54207 12.0187L3.7109 11.997L3.70595 12.0259L3.68922 12.0906L3.69638 12.1384L3.76628 12.1503L3.79974 12.1288L3.83879 12.0834L3.88922 12.0066L3.89391 11.9871L4.34376 11.9441L4.79654 11.901L5.24438 11.8557L5.6967 11.8103L6.1448 11.765L6.59511 11.7192L7.04496 11.6715L7.49527 11.6238V11.5467L7.4857 11.4314L7.47613 11.3812L7.42322 11.2209L7.36074 11.0747L7.35111 11.0436L7.34863 11.027L7.35358 11.0223L7.36562 11.0198L7.50737 11.0174L7.74336 11.0149L7.88804 11.0125L7.90945 11.0174L7.92397 11.034L7.94564 11.0771L7.96015 11.0937L7.9744 11.1035L7.98892 11.0986L8.09448 11.0866L8.13067 11.0819L8.2296 11.07L8.38091 11.0509L8.58098 11.0268L8.81697 10.9955L9.0773 10.9644L9.35878 10.9284L9.64768 10.8899L9.93906 10.8542L10.2181 10.8182L10.4807 10.7824L10.7167 10.7513L10.914 10.7271L11.0678 10.7058L11.167 10.6938L11.2007 10.6889L11.3136 10.6722L11.4029 10.6409L11.4268 10.636L11.5397 10.6265L11.6168 10.6193L11.8407 10.6002L12.1853 10.5691L12.6329 10.5285L13.1624 10.4807L13.7523 10.4254L14.3856 10.3654L15.0377 10.3006L15.6906 10.2338L16.321 10.169L16.9109 10.1066L17.4404 10.0518L17.8883 10.0016L18.2326 9.96309L18.4538 9.93933L18.533 9.93175L18.6585 9.9151L18.7474 9.87689L18.8124 9.83357L18.8123 9.83363Z" fill="#550000"/>
</svg>
