<svg width="26" height="26" viewBox="0 0 26 26" fill="none" xmlns="http://www.w3.org/2000/svg">
<circle cx="13" cy="13" r="13" fill="#F8F3ED"/>
<path d="M16.175 19.7236L16.1929 19.7883L16.2051 19.8197L16.2209 19.8441L16.2277 19.8586L16.2456 19.9424L16.2591 19.9736L16.2931 20.0305L16.3044 20.0641L16.3223 20.1791L16.337 20.2181L16.3606 20.2561L16.3717 20.2806L16.4068 20.5874L16.417 20.6133L16.4304 20.6211L16.4406 20.5943L16.4394 20.5686L16.4226 20.4895L16.401 20.4436L16.3977 20.4134L16.3965 20.3497L16.3912 20.3152L16.3698 20.2561L16.3564 20.1668L16.3462 20.1333L16.3338 20.1152L16.3361 20.0963L16.183 19.6353L16.1311 19.3741L16.1108 18.9901L16.1198 18.961L16.1007 18.9835L16.095 19.0537L16.0849 19.0849L16.0962 19.1118V19.1398L16.0872 19.1967L16.0905 19.2267L16.104 19.2802L16.1198 19.4209L16.1176 19.4734L16.1052 19.5247L16.1478 19.5838L16.1537 19.5962L16.156 19.6017L16.1627 19.6129L16.1638 19.6219L16.1615 19.6264L16.1478 19.6308L16.1456 19.6364L16.1466 19.6485L16.1503 19.6596L16.156 19.6685L16.166 19.6774L16.156 19.6887L16.175 19.7236ZM16.5126 18.0011L16.5025 18.0414L16.4947 18.0569L16.4395 18.1106L16.4047 18.1563L16.3347 18.3182H16.3269L16.3167 18.3014L16.301 18.2914L16.2681 18.2791L16.2749 18.3037L16.2841 18.3194L16.2817 18.3338L16.2624 18.3506L16.2669 18.3796L16.2433 18.4198L16.2141 18.4609L16.2006 18.49L16.1984 18.5081L16.175 18.5583L16.1693 18.5785L16.1592 18.641L16.1196 18.7391L16.1005 18.9042L16.0915 18.93L16.1037 18.9367L16.1128 18.9322L16.1274 18.9088L16.1487 18.8575L16.1737 18.7324L16.248 18.5191L16.3664 18.2756L16.5299 18.0245L16.5445 18.0089L16.5333 17.9955L16.5126 18.0011ZM16.7866 17.5591L16.7683 17.5525L16.7525 17.5614L16.7424 17.577L16.7357 17.5925L16.7266 17.6038L16.7074 17.6083L16.633 17.7444V17.7521L16.6591 17.7577L16.6601 17.7668L16.6521 17.7847L16.6464 17.7948L16.607 17.8381L16.561 17.9108L16.5442 17.9567L16.5563 17.9834L16.5631 17.9544L16.5811 17.9242L16.6272 17.8684L16.6802 17.7835L16.7951 17.6485L16.7985 17.6339L16.7997 17.6005L16.8031 17.586L16.7985 17.5737L16.7866 17.5591ZM17.3722 17.1429L17.3654 17.1417L17.3575 17.145L17.3454 17.1484L17.3409 17.155L17.3431 17.1863V17.1984L17.3273 17.2264L17.3116 17.2353L17.2608 17.232L17.2315 17.2364L17.2147 17.2476L17.1877 17.2755L17.1268 17.3055L17.1166 17.3146L17.1044 17.3291L17.0493 17.3615L17.0371 17.3882L17.0267 17.3972L16.9762 17.4295L16.9604 17.4362L16.9391 17.4407L16.8962 17.4553L16.8692 17.4597L16.8468 17.4718L16.8423 17.4987L16.8468 17.5266L16.8579 17.5423V17.5524L16.8423 17.5679L16.8287 17.5924L16.8186 17.6215L16.8141 17.6473H16.8242L16.8343 17.6215L16.8501 17.5981L16.8845 17.5624L16.9555 17.5078L16.987 17.4709L17.1108 17.4017L17.1829 17.336L17.2235 17.308L17.2673 17.2947L17.3631 17.2443L17.3653 17.2377L17.3755 17.2208L17.3789 17.2088L17.38 17.1963L17.3778 17.1562L17.3722 17.1429ZM17.5446 17.0133L17.4949 17.0457L17.4218 17.1138V17.1248L17.4488 17.1215L17.4691 17.1059L17.5028 17.0702L17.5342 17.0601L17.5446 17.0457L17.5727 17.0245L17.5828 17.0178L17.5816 17.0133L17.5851 17.0099L17.5906 17.0065L17.6019 17.0055L17.6007 16.9954L17.5446 17.0133ZM19.4154 15.6236L19.4132 15.6158L19.4086 15.6147L19.4064 15.6169L19.4052 15.6258V15.6158L19.4041 15.6203V15.6247L19.4031 15.627H19.3963V15.6369L19.4199 15.6403L19.4244 15.6581L19.4165 15.6783L19.4041 15.6884L19.4008 15.6894L19.3727 15.6995L19.3659 15.7073L19.3567 15.7308L19.3028 15.7777L19.2981 15.7842L19.2779 15.7865L19.2632 15.7911L19.2531 15.8031L19.2508 15.8232L19.2362 15.8456L19.1404 15.9103L19.0886 15.9605L19.065 15.9885L19.0504 16.023L19.0594 16.0219L19.0807 15.9919L19.2653 15.8467L19.324 15.8221L19.5153 15.6503L19.4322 15.6246L19.4154 15.6236ZM20.9936 12.9915L20.9745 12.9758L20.936 12.9221L20.9383 12.9055L20.9497 12.8844L20.9509 12.8699V12.803L20.9431 12.7783L20.9192 12.7739L20.8945 12.7817H20.8855L20.882 12.7805L20.8786 12.7783L20.8742 12.7739L20.8708 12.7694L20.8674 12.7616L20.8596 12.7214L20.8574 12.7135L20.8506 12.7035L20.8461 12.6957L20.8416 12.6857L20.8393 12.6734L20.8348 12.6654L20.8314 12.6577L20.8269 12.6521L20.8121 12.6376L20.7772 12.612L20.7705 12.6051L20.766 12.5963L20.7626 12.5807L20.7638 12.5696L20.7661 12.5606L20.7705 12.547L20.7739 12.5414L20.7885 12.5192L20.7897 12.5147L20.7862 12.5103L20.7683 12.4991L20.7469 12.4789L20.7334 12.4622L20.7278 12.4522L20.7244 12.4401L20.7187 12.4165L20.7154 12.4044L20.7098 12.3955L20.7042 12.3911L20.6975 12.3889L20.6815 12.3855L20.6748 12.3822L20.6703 12.3789L20.6657 12.3721L20.6624 12.3654L20.659 12.3531L20.6602 12.3465L20.6635 12.3398L20.677 12.3307V12.3296L20.6781 12.3284L20.6815 12.324L20.6848 12.3162L20.6838 12.3072L20.6793 12.3015L20.6725 12.2982L20.6647 12.2946L20.6331 12.287L20.6253 12.2837L20.6185 12.2803L20.6073 12.2714L20.5713 12.2356L20.5564 12.2189L20.5486 12.2055L20.5441 12.1965L20.5397 12.182L20.5373 12.1707V12.1608L20.5418 12.1451L20.5463 12.134L20.5486 12.1251L20.5498 12.1128L20.5486 12.0705L20.5508 12.0571L20.5553 12.0325V12.0235L20.5531 12.0169L20.5498 12.0113L20.5463 12.0057L20.5418 12.0024L20.5362 11.9911L20.5307 11.9733L20.5182 11.9152L20.5138 11.9019L20.4789 11.856L20.4677 11.8372L20.4621 11.8227L20.4553 11.8094L20.4431 11.7892L20.4238 11.768L20.3978 11.7434L20.3857 11.7343L20.343 11.7155L20.3362 11.7122L20.3306 11.7077L20.3261 11.7022L20.2966 11.6553L20.2911 11.6485L20.2741 11.6365L20.2652 11.6332L20.2472 11.6207L20.2404 11.613L20.237 11.6084L20.2359 11.6052L20.2303 11.4936L20.2211 11.3173L20.211 11.142L20.202 10.9656L20.193 10.7892L20.1827 10.6127L20.1647 10.2613L20.1557 10.0849L20.1433 9.9052L20.1321 9.72664L20.1208 9.54784L20.1094 9.36931L20.1039 9.27105V9.27003L20.0915 9.26559L20.0712 9.25759L20.0339 9.23203L20.0114 9.24537L19.9844 9.24754L19.9597 9.24311L19.9157 9.22087L19.8977 9.22862L19.8819 9.24425L19.8639 9.25201L19.8018 9.22407L19.7805 9.22636L19.7683 9.24531L19.7604 9.26882L19.7492 9.2833L19.7221 9.26997L19.6963 9.28445L19.6725 9.28104L19.6634 9.26656L19.678 9.25092V9.24088L19.6465 9.24748L19.6151 9.23961L19.5904 9.21963L19.5803 9.18945L19.5668 9.16263L19.544 9.15819L19.5373 9.15704L19.5058 9.15819L19.4822 9.14711V9.15819L19.4213 9.14026L19.4021 9.13136L19.4066 9.12349L19.41 9.11688L19.383 9.11561L19.3504 9.12349L19.3403 9.11015L19.3257 9.10239L19.3077 9.09796L19.2894 9.09566H19.2804L19.267 9.10354L19.258 9.10571L19.2512 9.10354L19.24 9.0902L19.2174 9.08015L19.195 9.04548L19.177 9.03875H19.161L19.1284 9.02985L19.0462 9.01877L18.9967 8.97519L18.9765 8.94278L18.9697 8.93373L18.9563 8.92585L18.945 8.92151L18.9372 8.91261L18.9327 8.89025L18.9292 8.88352L18.9201 8.87576L18.9101 8.86903L18.9009 8.86674H18.8572L18.838 8.8623L18.8178 8.84896L18.7749 8.80973L18.7523 8.79639L18.713 8.78864L18.7051 8.77974L18.6994 8.76969L18.6928 8.76063L18.6782 8.75173L18.5935 8.72834L18.5734 8.73166L18.5508 8.75173L18.5439 8.77524L18.5427 8.80068L18.5371 8.81758L18.5215 8.8097L18.5147 8.82202L18.5057 8.82862L18.4944 8.83433L18.4809 8.8422L18.4663 8.83433H18.4572L18.4538 8.84881V8.86001L18.4515 8.86662L18.4459 8.87117L18.438 8.87561L18.4279 8.87664L18.322 8.87778L18.3085 8.8811L18.2995 8.87003L18.2914 8.86432L18.2813 8.86112H18.2689L18.2644 8.86432L18.2566 8.87003L18.2509 8.87335L18.2476 8.86776L18.242 8.86001L18.2385 8.85442V8.85225L18.1993 8.85328L18.1823 8.84552L18.1936 8.82316L18.1835 8.80068L18.1689 8.78973L18.1518 8.78185L18.1349 8.76978L18.1181 8.76407L18.1045 8.77753L18.0889 8.8065H18.0799L18.0586 8.79977L18.0552 8.80309L18.0258 8.81987L18.0123 8.82328L17.9987 8.83233L17.9865 8.84238L17.9787 8.85243H17.9663L17.9472 8.85461L17.9065 8.85575L17.8975 8.86568L17.9042 8.90711L17.8907 8.91831L17.8817 8.9149L17.875 8.90829L17.8683 8.89824L17.8581 8.90156L17.8514 8.90944L17.8435 8.91937L17.8086 8.92712L17.794 8.9238L17.7207 8.88137L17.7072 8.86804L17.6937 8.86462L17.6779 8.87476L17.6657 8.88925L17.661 8.90045H17.652L17.6329 8.91164L17.6104 8.9283L17.5677 8.9484L17.5509 8.95066L17.4855 8.95283L17.473 8.95636L17.4483 8.97187L17.4348 8.97528L17.4226 8.98636L17.4022 9.03884L17.3909 9.05891L17.3673 9.07454L17.3448 9.07786L17.2908 9.07342L17.258 9.079L17.2502 9.09361L17.2512 9.11573L17.2457 9.14724L17.2108 9.1728L17.1726 9.13809L17.1341 9.08356L17.1037 9.04889L17.0801 9.04445L16.9956 9.05221L16.9854 9.04777L16.9809 9.0357L16.9775 9.02236L16.973 9.01108L16.9652 9.00549L16.9371 8.99215L16.8851 8.97767L16.8694 8.96216L16.8637 8.95658L16.8604 8.94973L16.8581 8.94197V8.93409L16.8592 8.92622L16.8727 8.89848L16.8693 8.88943L16.8581 8.87938L16.8266 8.86707L16.8097 8.86366H16.7962L16.7896 8.86822L16.7851 8.87265L16.7769 8.88599L16.7623 8.93301L16.7589 8.94076L16.7556 8.94749L16.7511 8.95295L16.7454 8.95751L16.7353 8.96207L16.7229 8.9665L16.6993 8.96982H16.6858L16.6746 8.96868L16.6679 8.96539L16.6339 8.94073L16.6204 8.93515L16.6103 8.934L16.5664 8.94073H16.5543L16.5441 8.93741L16.5385 8.934L16.5225 8.91849L16.5146 8.90618L16.5079 8.89157L16.4987 8.84933L16.4931 8.83484L16.4875 8.82696L16.4774 8.82138L16.4605 8.81363L16.4483 8.81248H16.4382L16.3952 8.82138L16.3873 8.8247L16.3818 8.82811L16.3726 8.84042L16.3738 8.86049L16.3716 8.89619L16.3535 8.9375L16.3344 8.96318L16.3074 8.97209L16.2623 8.96101L16.2645 8.9844L16.2735 8.99445L16.2838 9.00106L16.2895 9.01554L16.2838 9.02686L16.26 9.04134L16.2555 9.058L16.2532 9.10158L16.243 9.1406L16.2206 9.16525L16.1802 9.16854L16.1495 9.15074L16.1248 9.11721L16.1068 9.07798L16.1 9.04125L16.1045 9.01545L16.1271 8.97758L16.1316 8.95292L16.1281 8.93397L16.1181 8.91731L16.1035 8.90398L16.0877 8.89269L16.0799 8.89725L16.0641 8.90398L16.0573 8.90956L16.0528 8.91617L16.0484 8.92724L16.027 8.96647L16.02 8.9764L15.9851 8.94743L15.9705 8.94299L15.9504 8.95748L15.9481 8.96204L15.9413 8.97755L15.9379 8.98313L15.9312 8.99077L15.9177 8.99876L15.9132 9.00435L15.903 9.0121L15.8893 9.01654L15.8071 9.02441L15.787 9.0121L15.7778 8.97752L15.7745 8.94625L15.7641 8.92718L15.745 8.91725L15.7158 8.91282L15.6357 8.91943L15.6166 8.9095L15.6045 8.88143V8.82552L15.592 8.79983L15.5448 8.77759L15.4951 8.7954L15.4513 8.83113L15.3454 8.9417L15.297 8.97296L15.2417 8.98301L15.1877 8.96738L15.1585 8.95277L15.1461 8.93829L15.1494 8.91605L15.1506 8.906L15.1529 8.89139L15.1607 8.86025V8.84576L15.1518 8.82887L15.1596 8.81221L15.1562 8.79658L15.1472 8.7845L15.1347 8.78782L15.0897 8.77334L15.0278 8.76214L14.9791 8.73851L14.9758 8.68957L14.969 8.65728L14.9735 8.61255V8.57332L14.9532 8.55667L14.9218 8.5611L14.8631 8.58334L14.8249 8.58905L14.6554 8.56991L14.6237 8.57996L14.6035 8.60232L14.5888 8.62903L14.5719 8.6548L14.5641 8.66814L14.5336 8.67372L14.4704 8.67487L14.4524 8.66482L14.4098 8.61654L14.3929 8.60546L14.3849 8.59771L14.3636 8.56201L14.35 8.55295L14.3085 8.54532H14.2939L14.2657 8.55078L14.1813 8.5866L14.1667 8.57873L14.0089 8.54644L13.9829 8.53753L13.8872 8.47718L13.859 8.47057L13.8387 8.47615L13.8196 8.48391L13.7927 8.4894L13.7678 8.4862L13.7193 8.47172L13.6934 8.46831L13.6349 8.47172L13.6066 8.46613L13.5853 8.44824L13.5808 8.42473L13.5763 8.34325L13.5808 8.32515L13.5853 8.31307L13.5639 8.28739L13.5247 8.25281L13.5133 8.22942L13.5055 8.2025L13.493 8.18014L13.4682 8.17022L13.4434 8.16907L13.4312 8.16575L13.42 8.16131L13.4098 8.15126L13.4043 8.13998L13.4008 8.12993L13.3942 8.12088L13.3704 8.10422H13.3522L13.34 8.12088L13.3332 8.19571L13.3232 8.21808L13.3041 8.22812L13.2748 8.22472L13.2477 8.21479L13.2003 8.18787L13.1397 8.17999L13.1283 8.1834L13.1171 8.19013L13.1034 8.20679L13.0944 8.21479L13.072 8.22143L12.9954 8.21479L12.9717 8.20679L12.9559 8.19013L12.9311 8.15329L12.7193 7.95236L12.7071 7.94449L12.6802 7.939L12.6689 7.93227L12.6486 7.92656L12.5922 7.93456L12.5731 7.93673V7.85197L12.5719 7.68104V6.99903L12.5707 6.82823V6.14622L12.5697 5.97657V5.29456L12.5685 5.12502V5.05006H12.1574L11.9275 5.04892L11.6549 5.04674L11.3518 5.04445L11.0263 5.04113L10.6918 5.03784L10.356 5.03226L10.0318 5.02668L9.72866 5.02109L9.45614 5.01448L9.22632 5.0089L9.04945 5.00447L8.93568 5.00217L8.89527 5.00115L8.84323 5V5.02671L8.84219 5.0736L8.8354 5.28228L8.82861 5.49005L8.82194 5.69872L8.81515 5.9074L8.80848 6.11505L8.80169 6.32373L8.7949 6.5324L8.78823 6.74017L8.78113 6.94909L8.77446 7.15789L8.76767 7.36656L8.76204 7.57524L8.75525 7.78289L8.74846 7.99157L8.74063 8.20036L8.73384 8.40916L8.72717 8.61783L8.72026 8.82651L8.71347 9.03531L8.70677 9.24398L8.69998 9.45278L8.69331 9.66146L8.68652 9.87016L8.67973 10.079L8.67306 10.2878L8.66627 10.4964L8.6596 10.7052L8.65281 10.9139L8.64602 11.1237L8.63935 11.3314L8.63256 11.5401L8.62577 11.75L8.34067 11.7421L8.05466 11.7331L7.76841 11.724L7.48216 11.7141L7.19707 11.704L6.91106 11.6929L6.62505 11.6816L6.33996 11.6693L6.0537 11.6572L5.76873 11.6439L5.48272 11.6305L5.19763 11.6159L4.91138 11.6014L4.6264 11.5859L4.34015 11.5703L4.05506 11.5534L4.02132 11.5512L4 11.5501V11.5758L4.0236 11.6316L4.02808 11.6639L4.03027 11.6986L4.03706 11.7253L4.06642 11.7734L4.05615 11.7834L4.0641 11.8012L4.0754 11.8147L4.09002 11.8247L4.10695 11.8282L4.12388 11.8402L4.19596 11.9239L4.22084 11.9318L4.27818 11.9295L4.32435 11.9518L4.365 11.9965L4.39643 12.0512L4.41887 12.1036L4.44604 12.2075L4.45949 12.2353L4.51017 12.3023L4.52143 12.3258L4.52594 12.3414L4.5271 12.3503L4.52929 12.3569L4.53724 12.3683L4.58009 12.3961L4.59227 12.4149L4.62162 12.4296L4.67446 12.4486L4.7173 12.4775L4.74103 12.4888L4.77361 12.4944L4.79386 12.5033L4.84925 12.5444L4.86387 12.5603L4.87285 12.5747L4.88068 12.6004L4.88747 12.6138L4.91223 12.6295L4.92685 12.6415V12.6471L4.94816 12.6562L4.97061 12.6763L5.06409 12.7968L5.07204 12.8248L5.08331 12.8449L5.17899 12.9128L5.20031 12.9229L5.20826 12.9297L5.23871 12.9676L5.26462 12.9887L5.28594 13.0022L5.30506 13.0189L5.31865 13.049L5.33326 13.1023L5.34444 13.1249L5.37727 13.1427L5.41768 13.1974L5.52027 13.2845L5.56747 13.3513L5.58337 13.3661L5.62171 13.3772L5.69367 13.4171L5.70161 13.4252L5.7084 13.4352L5.71507 13.443L5.72853 13.4496H5.73545L5.74108 13.4463L5.75122 13.4363L5.7557 13.4341L5.76916 13.4397L5.77698 13.4419L5.78712 13.4474L5.79839 13.4697L5.81057 13.4752L5.82415 13.4775L5.83429 13.4821L5.83993 13.491L5.84108 13.5077L5.84556 13.5055L5.8512 13.51L5.86697 13.5289L5.87611 13.5189L5.93345 13.5936L5.9582 13.6047L5.98193 13.6115L6.009 13.626L6.03376 13.6471L6.04941 13.6706L6.05285 13.6863V13.7041L6.05504 13.7197L6.06299 13.7332L6.07657 13.7376L6.11711 13.7453L6.12609 13.7509L6.13288 13.7676L6.16994 13.8156L6.18456 13.8425L6.18687 13.8571L6.18803 13.8894L6.19022 13.9038L6.21175 13.9184L6.21626 13.9262L6.2151 13.9351L6.20727 13.9519L6.20496 13.9619L6.20727 13.9786L6.21946 13.9988L6.22165 14.0144L6.2183 14.0355L6.21611 14.0458L6.2183 14.0536L6.22844 14.0715L6.23757 14.0826L6.25451 14.0926L6.26233 14.1026L6.26465 14.1161V14.1339L6.26684 14.1484L6.27363 14.1551L6.29839 14.1719L6.3152 14.2088L6.32994 14.2512L6.34455 14.2812L6.35354 14.2891L6.3761 14.3014L6.38853 14.3137L6.41097 14.3684L6.42894 14.3929L6.43125 14.4265L6.42677 14.4811L6.41998 14.5157L6.39973 14.5682L6.39419 14.5983L6.39523 14.634L6.41654 14.7178V14.7312L6.41204 14.7535L6.41423 14.7691L6.4187 14.7769L6.43564 14.7982L6.43899 14.806L6.44346 14.8216L6.46719 14.8529L6.48296 14.9231L6.48756 14.9366L6.51 14.9644L6.53257 14.9846L6.54938 15.0069L6.55836 15.0716L6.57989 15.1151L6.58771 15.1374L6.58887 15.1585V15.1742L6.59335 15.1887L6.61132 15.2099L6.67222 15.2556L6.69019 15.2746L6.69354 15.2846L6.69801 15.2982L6.70365 15.3115L6.7116 15.3171L6.72073 15.3215L6.82552 15.394L6.8391 15.4142L6.8627 15.403L6.89988 15.4041L6.93362 15.4142L6.95387 15.442L6.98433 15.4666L6.99447 15.4721L7.0036 15.48L7.02492 15.5346L7.06649 15.5848L7.09365 15.6095L7.13866 15.634L7.19956 15.7065L7.2492 15.7366L7.36964 15.782L7.4529 15.8022L7.54535 15.8111L7.55997 15.8167L7.57215 15.8277L7.57778 15.8422L7.5656 15.8758L7.57458 15.8837L7.58932 15.8891L7.6015 15.8947L7.66241 15.9505L7.70063 15.9729L7.81668 16.0053L7.85283 16.0041L7.86297 16.0064L7.87426 16.0153L7.87874 16.0255L7.88105 16.0364L7.88888 16.0489L7.95417 16.118L8.0106 16.1516L8.02637 16.1571L8.03755 16.1661L8.0736 16.2018L8.09282 16.2109L8.10847 16.2018L8.1209 16.1874L8.13332 16.1851L8.14794 16.2119L8.15589 16.2073L8.17605 16.2018L8.16591 16.2331L8.18503 16.2452L8.26518 16.2463L8.33714 16.2674L8.38906 16.2765L8.4228 16.2607L8.44193 16.2206L8.44975 16.1693L8.46218 16.166L8.46665 16.1693L8.47579 16.1436L8.48246 16.1291L8.49372 16.1202L8.54784 16.0933L8.55798 16.0844L8.57016 16.0689L8.6085 15.9952L8.62427 15.9795L8.63341 15.9716L8.66264 15.9884L8.67047 15.9764L8.73137 15.9328L8.7674 15.9272L8.78202 15.9206L8.77075 15.9038L8.7392 15.8815L8.72906 15.8681L8.73022 15.849L8.75047 15.7911L8.7515 15.7643L8.75494 15.7486L8.76289 15.7375L8.7797 15.7252L8.78649 15.7229H8.80342L8.81561 15.7163V15.7096L8.80546 15.6884L8.80778 15.6795L8.81996 15.6593L8.82112 15.6426L8.81664 15.6248L8.81317 15.6081L8.81664 15.5868L8.82447 15.5734L8.83345 15.5601L8.87742 15.4506L8.88985 15.4417V15.4406L8.8978 15.4294L8.89216 15.4092L8.90434 15.4037L8.90778 15.3982L8.90099 15.3781L8.91677 15.3714L8.92459 15.3625L8.93805 15.3378L8.93921 15.3345L8.96053 15.2944L8.96616 15.2921L8.97283 15.272L9.01242 15.205L9.0169 15.1883L9.01909 15.176L9.02253 15.1649L9.03267 15.1537H9.04281L9.0922 15.156L9.11489 15.1504L9.16325 15.1258L9.18801 15.1169L9.19248 15.1191L9.19812 15.1347L9.20491 15.1392L9.21404 15.137L9.21852 15.1347L9.22071 15.1314V15.1302L9.23442 15.1201V15.119L9.24559 15.1011L9.25573 15.0977L9.39886 15.1124H9.40002L9.4023 15.1068L9.43488 15.061L9.43936 15.0465L9.44387 15.0062L9.44834 14.9929L9.45848 14.9829L9.47529 14.9795L9.49003 14.9738L9.50361 14.9471L9.51607 14.9393L9.53967 14.9471L9.55648 14.9638L9.57341 14.9771L9.59701 14.9715L9.60265 14.9995L9.62073 15.0085L9.66806 15.014L9.72896 15.0476L9.7437 15.061L9.79102 15.0833L9.91606 15.0721L9.95084 15.081L9.97215 15.062L9.99253 15.0687L10.0105 15.0844L10.0274 15.0934H10.041L10.0522 15.0911L10.0635 15.0856L10.0726 15.0778L10.0839 15.0734L10.0973 15.0757L10.1232 15.0846H10.1672L10.183 15.0745L10.1908 15.0757L10.1942 15.0912L10.2054 15.1001L10.4196 15.1336L10.4882 15.1259L10.5085 15.1181L10.5232 15.1036V15.1025L10.5289 15.0745L10.5334 15.0678L10.5423 15.0711L10.5525 15.0823L10.5558 15.0968L10.5536 15.1037L10.5412 15.1292L10.5367 15.1415L10.5648 15.1493L10.5861 15.1381L10.6064 15.1215L10.6323 15.1126L10.6424 15.117L10.6516 15.1359L10.664 15.1437L10.6786 15.1449L10.6932 15.1437L10.7067 15.1393L10.7179 15.1337L10.7123 15.1516L10.7157 15.1717L10.7247 15.1896L10.7462 15.2241L10.7552 15.251L10.7698 15.2866L10.7789 15.3012L10.7901 15.3113L10.807 15.3202L10.8419 15.3213L10.8531 15.3279L10.8509 15.3514L10.8396 15.3839L10.8374 15.4062L10.8519 15.4117L10.8758 15.3916L10.9085 15.3727L10.9411 15.3693L10.9613 15.3883L10.9623 15.4275L10.9502 15.472L10.9547 15.4933L10.9681 15.5067L10.9827 15.5088L10.9963 15.5123L11.0076 15.5212L11.0325 15.5536L11.0707 15.5736L11.1587 15.6027L11.198 15.6172L11.2081 15.6428L11.2126 15.6852L11.217 15.7064L11.2262 15.722L11.2362 15.7366L11.2487 15.7487L11.2634 15.7577L11.359 15.8024L11.3906 15.8314L11.4155 15.8638L11.4268 15.8727L11.4886 15.9029L11.5156 15.9229L11.5327 15.9452L11.5596 15.9965L11.5495 16.029L11.5596 16.049L11.6284 16.1071L11.6328 16.116L11.6385 16.1249L11.6541 16.1293L11.67 16.1315L11.6822 16.1359L11.6935 16.1571L11.7036 16.2442L11.7295 16.3033L11.734 16.3347L11.7227 16.367L11.7317 16.3759L11.7373 16.388L11.7395 16.4048V16.4238L11.7475 16.435L11.7634 16.446L11.779 16.4629L11.7859 16.4863L11.7893 16.4919L11.8096 16.5018L11.8162 16.5064L11.8208 16.5185L11.8117 16.5375L11.8162 16.5476L11.8253 16.552L11.8444 16.5531L11.8534 16.5586L11.859 16.5665L11.8657 16.5822L11.8714 16.5899L11.8793 16.6045L11.9121 16.7495L11.929 16.7829L11.9773 16.8466L11.975 16.8734L11.9896 16.8835L12.0213 16.8992L12.0349 16.9091L12.0405 16.9237L12.0382 16.9594L12.0393 16.9762L12.0573 17.0074L12.0844 17.0253L12.1397 17.0477H12.1385L12.1 17.0676L12.0934 17.0789L12.0956 17.0956L12.1047 17.1079L12.116 17.1168L12.1205 17.1257L12.1273 17.1805L12.1385 17.233L12.1767 17.2831L12.197 17.3166L12.1982 17.3412L12.1892 17.3691L12.2014 17.3982L12.2251 17.4227L12.2476 17.4394L12.2848 17.4461L12.2938 17.4494L12.2983 17.4619L12.3006 17.483L12.3051 17.5031L12.3163 17.512L12.3376 17.5154L12.4693 17.5824L12.4942 17.6069L12.5043 17.6405L12.5055 17.6606L12.5089 17.6706L12.528 17.6917L12.546 17.7075L12.5562 17.7108L12.555 17.7185L12.5516 17.7286L12.5505 17.7386L12.5596 17.7633L12.5686 17.7833L12.5821 17.8023L12.6013 17.8258L12.6204 17.8325L12.6498 17.8391L12.6666 17.8503L12.6508 17.8726L12.6633 17.8939L12.6846 17.9218L12.7083 17.9452L12.7296 17.9542L12.733 17.9608L12.7274 17.9764L12.7161 17.9998L12.7205 18.0167L12.7308 18.0255L12.743 18.0322L12.7531 18.0457L12.7554 18.0602L12.752 18.0925L12.7531 18.1071L12.76 18.1082L12.778 18.1237L12.7938 18.1406L12.7948 18.1484L12.8275 18.155L12.8443 18.1707L12.8569 18.1908L12.8725 18.2098L12.8861 18.2164L12.9097 18.2243L12.9188 18.2299L12.9244 18.2432L12.9278 18.2612L12.9323 18.2755L12.9424 18.2823L12.966 18.3181L12.9727 18.3248H13.0214L13.0294 18.3326L13.0428 18.3582L13.0485 18.3638H13.0631L13.0912 18.3482L13.1081 18.3436L13.1216 18.3493L13.1386 18.3783L13.1464 18.385L13.1689 18.3929L13.1959 18.405L13.2228 18.4297L13.2342 18.452V18.5124L13.2309 18.5468V18.5625L13.2399 18.5693L13.26 18.5703L13.2703 18.5759L13.2759 18.588L13.2804 18.6091V18.6158L13.2816 18.6716L13.2771 18.6894L13.2658 18.7241L13.2612 18.7543L13.2545 18.7731L13.2534 18.7899L13.2489 18.8032L13.2263 18.8279L13.2252 18.829L13.216 18.8447L13.2544 18.8592L13.2633 18.8658L13.2657 18.8691L13.268 18.8815L13.2725 18.8871L13.2871 18.8937L13.2916 18.897L13.3107 18.9194L13.3253 18.9441L13.3355 18.9708L13.3377 18.9997L13.3331 19.0287L13.314 19.0935L13.3107 19.1237L13.314 19.1305L13.3197 19.1395L13.3264 19.1504L13.3286 19.1639L13.3253 19.1762L13.2982 19.2254L13.323 19.2589L13.3286 19.2678L13.3489 19.2833L13.3613 19.2889H13.3726L13.3839 19.2912L13.393 19.3033L13.3963 19.3201V19.3501L13.402 19.3669L13.4141 19.3792L13.4693 19.4227L13.484 19.4429L13.528 19.4953L13.5471 19.5198L13.5707 19.5433L13.5899 19.5679L13.6101 19.6338L13.6282 19.7041L13.6833 19.8625L13.6879 19.8871L13.698 19.9619L13.7071 19.9966L13.7398 20.0099L13.7748 20.0178L13.7918 20.0389L13.8074 20.0802L13.8109 20.0993L13.8052 20.1172L13.7928 20.1361L13.785 20.1551L13.7883 20.1718L13.8164 20.1942L13.8435 20.1987L13.8683 20.1954L13.8954 20.1964L13.9022 20.2008L13.9112 20.2129L13.919 20.2163L13.928 20.214L13.9516 20.204L13.9843 20.205L13.9956 20.2129L14.008 20.2364L14.0293 20.2151L14.08 20.2521L14.1114 20.2454L14.1238 20.2532L14.1374 20.2566L14.1487 20.2543L14.1567 20.2442H14.1577L14.1723 20.2533L14.1836 20.25L14.1926 20.2432L14.2048 20.2444L14.2127 20.25L14.233 20.2744L14.2804 20.3036L14.295 20.3214L14.2894 20.3459L14.3085 20.3448L14.3253 20.3459L14.3422 20.3515L14.3557 20.365L14.3389 20.3851L14.3411 20.3927L14.3535 20.3939L14.3647 20.3972L14.3929 20.424L14.4088 20.433L14.4268 20.4364L14.5068 20.4051L14.5462 20.4251L14.5888 20.4364L14.6284 20.4509L14.6566 20.4843L14.6747 20.4618L14.6781 20.4574L14.7163 20.4687L14.7603 20.4934L14.7974 20.5034L14.7873 20.5334V20.549L14.8031 20.5536H14.8411L14.849 20.5636L14.8816 20.6104L14.8953 20.625L15.0021 20.6775L15.054 20.692L15.1012 20.6931L15.1656 20.6753L15.1926 20.6808L15.205 20.7177L15.2185 20.7232L15.2466 20.7131L15.2895 20.6909L15.3086 20.6887L15.3874 20.6987L15.4742 20.6864L15.5777 20.6853L15.6047 20.692L15.6081 20.7142L15.6261 20.7199L15.7466 20.7243L15.7738 20.7299L15.7986 20.7422L15.8255 20.7612L15.8391 20.7812L15.8503 20.8048L15.8649 20.8249L15.9057 20.8405L15.9686 20.9017L15.9933 20.9185L16.0158 20.9265L16.0385 20.931H16.0678L16.0779 20.942L16.0857 20.9644L16.1003 20.9855L16.1296 20.99L16.1352 20.9844V20.9753L16.1374 20.9687H16.1487L16.1578 20.9765L16.1623 20.9866L16.1691 20.9967L16.1826 21L16.2095 20.9879V20.9587L16.1994 20.9243L16.1949 20.8973L16.1994 20.8885L16.231 20.8662L16.2546 20.8818L16.2862 20.8717L16.2942 20.864L16.311 20.8471L16.3143 20.8227L16.3324 20.8181L16.3987 20.8204L16.4889 20.8115L16.4912 20.7982L16.4856 20.7311L16.4811 20.6888L16.4687 20.6485L16.4507 20.6451L16.4361 20.6553L16.4304 20.6777L16.4293 20.7043L16.4237 20.7279L16.4148 20.7446L16.4023 20.7547L16.3695 20.7702L16.3617 20.7781L16.3605 20.7848L16.356 20.787L16.3414 20.7802L16.3335 20.7747L16.329 20.7659L16.3223 20.7414V20.72L16.3369 20.6844L16.3381 20.6575L16.3582 20.6664L16.3717 20.6619L16.3808 20.6485L16.3853 20.6263L16.3684 20.6196L16.3516 20.6163H16.3144L16.2976 20.614L16.2841 20.6072L16.2738 20.6005L16.2659 20.5983L16.249 20.5815L16.2412 20.5414L16.2422 20.4968L16.249 20.4656L16.2288 20.4354L16.2221 20.4219L16.2187 20.4041L16.2243 20.3918L16.2322 20.3818L16.2367 20.3697L16.2277 20.3528L16.2165 20.345L16.2075 20.3462L16.1985 20.3506L16.1861 20.3539L16.1749 20.3405L16.1738 20.3086L16.1804 20.2771L16.1929 20.2627L16.2007 20.2561L16.1951 20.2449L16.1849 20.2381L16.1794 20.246L16.1759 20.2516L16.1693 20.2594L16.1603 20.2638H16.1511L16.1476 20.2538L16.1602 20.2236L16.1591 20.2112L16.1501 20.2078L16.1206 20.2056L16.1105 20.2024L16.1027 20.1846L16.1003 20.1644L16.0936 20.1486L16.0689 20.1421H16.0508L16.0475 20.1365L16.0508 20.1221L16.0543 20.0796L16.0599 20.0574L16.0609 20.0438L16.0147 20.0294L16.0508 20.0182L16.0632 20.007L16.0699 19.9869L16.0733 19.9959L16.0835 20.008L16.088 20.018L16.0778 19.9688L16.0453 19.8707L16.0295 19.7724L15.9944 19.6774L15.9843 19.6116L15.9764 19.5871L15.9651 19.5648L15.9483 19.5491L15.9258 19.5425H15.9066L15.8919 19.5391L15.8818 19.5201L15.8806 19.5001L15.8828 19.47L15.8884 19.441L15.8976 19.4264L15.9122 19.4331L15.974 19.4878L15.9898 19.4576L15.9706 19.4388L15.9167 19.4163L15.901 19.3983L15.8883 19.3772L15.8805 19.3503L15.8749 19.2867L15.8772 19.27L15.8918 19.2634L15.9673 19.2555L15.9853 19.242L15.9841 19.2163L15.9673 19.1795L15.9819 19.1628L15.973 19.1428L15.9594 19.125L15.9605 19.1159L15.9819 19.1136L16.0021 19.1059L16.0189 19.0924L16.0281 19.0746L16.0247 19.0555L16.0143 19.0321L16.0098 19.0121L16.022 19.003L16.0279 18.9918L16.0291 18.9649L16.0279 18.9371L16.0245 18.9214L16.0402 18.9148L16.0493 18.8979L16.0504 18.8781L16.0425 18.859L15.9535 18.8892L15.9276 18.907L15.9029 18.9193H15.8689L15.8014 18.9047L15.7722 18.8937L15.7507 18.8803L15.7293 18.8701L15.6956 18.8657L15.6279 18.8724L15.5988 18.8646L15.5797 18.8366H15.6123L15.6437 18.8434L15.6765 18.8468L15.7081 18.8344L15.7227 18.8145L15.7159 18.7987L15.6956 18.7931L15.6698 18.8054L15.6664 18.7999L15.6642 18.7954L15.6619 18.7854L15.689 18.7709L15.672 18.7396L15.6224 18.6929H15.6415L15.6269 18.6615L15.5797 18.6169L15.5741 18.5812L15.6167 18.6079L15.6517 18.6414L15.7631 18.7932L15.7675 18.8066L15.7687 18.8201L15.7734 18.829L15.7914 18.8323L15.806 18.829L15.8139 18.8223L15.815 18.8121L15.8094 18.8022L15.8341 18.7653L15.8465 18.7598L15.8555 18.7809L15.8757 18.7621L15.8869 18.7553L15.9018 18.7486L15.8915 18.7285L15.9074 18.7184L15.9379 18.6872L15.9637 18.6749L15.9592 18.704L15.957 18.733L15.9626 18.7497L15.9728 18.7553L15.9828 18.7532L15.9851 18.7474L15.9952 18.7553H16.0009V18.7588L15.9896 18.772L15.9806 18.7776L15.966 18.7797L15.939 18.7786L15.9445 18.7843L15.9468 18.7899L15.9502 18.7943L15.9581 18.7987L15.9424 18.8145L15.8936 18.8411L15.9198 18.8592L15.9389 18.8525L15.967 18.8202L16.0538 18.7822L16.0684 18.771L16.0718 18.7375L16.1235 18.5813L16.1415 18.5578L16.146 18.5421L16.1497 18.5131L16.171 18.4462L16.2104 18.3691L16.2149 18.3568L16.2172 18.3234L16.2217 18.3066L16.2283 18.2943L16.243 18.2742L16.2554 18.2497L16.2599 18.2263L16.2486 18.2074L16.128 18.1593L16.1067 18.1393L16.0707 18.0979L16.0797 18.0855L16.0752 18.0711L16.0853 18.0276L16.0775 18.0041L16.0674 18.0176L16.0527 18.0253H16.0358L16.0236 18.0165L15.9795 18.0276L15.9493 18.0231L15.9245 18.0031L15.9019 17.9672L15.9233 17.9585L15.9289 17.9573L15.9401 17.9606L15.9446 17.9672L15.9457 17.9729L15.948 17.9763L15.9558 17.9797L15.966 17.9841L15.9761 17.9863L15.9839 17.9841L15.9874 17.9706L15.994 17.9651L16.0313 17.9617L16.1067 17.9628L16.1415 17.9529L16.137 17.9628L16.136 17.9684L16.1325 17.9741L16.1235 17.983L16.1575 17.9797L16.2115 17.9552L16.2418 17.9507L16.2655 17.9563L16.2848 17.9718L16.3028 17.9942L16.3186 18.0187L16.2904 18.0199L16.2915 18.0309L16.3264 18.0344L16.3557 18.0121L16.4571 17.858L16.5043 17.7688L16.5065 17.7732V17.7775L16.5088 17.7798L16.5144 17.7787L16.5359 17.7329L16.5449 17.7206L16.5584 17.7062L16.5607 17.6985L16.5595 17.6894L16.5573 17.6693L16.564 17.6101L16.5595 17.5933L16.5449 17.5823L16.5359 17.5866L16.5314 17.59L16.5292 17.5911L16.5314 17.5968L16.537 17.6023L16.5154 17.629L16.4514 17.658L16.438 17.6827L16.4368 17.7017L16.43 17.7218L16.4222 17.7396L16.4121 17.7508L16.396 17.7574V17.7496L16.4019 17.7363V17.7194L16.3871 17.6983L16.368 17.6825L16.3432 17.6725L16.314 17.6692L16.3018 17.6557L16.3269 17.6228L16.3809 17.5659L16.3596 17.5591L16.354 17.5446L16.3584 17.5279L16.3697 17.5158L16.3855 17.5124L16.4048 17.5169L16.4149 17.529L16.407 17.5436L16.4431 17.5347L16.4948 17.5112L16.5411 17.4801L16.5614 17.4477H16.5703L16.5793 17.4688L16.5727 17.5146L16.5816 17.5302L16.5783 17.5382L16.5737 17.5436L16.5692 17.5481L16.5647 17.5515L16.6131 17.566L16.6277 17.5593L16.6457 17.5291L16.6583 17.498L16.665 17.4722L16.6605 17.4511L16.6422 17.4353L16.6729 17.3862L16.6908 17.3627L16.7066 17.3617L16.7088 17.3839L16.6966 17.4096L16.6898 17.4364L16.709 17.4643L16.691 17.4889L16.6797 17.5136L16.6651 17.5693L16.6877 17.5581L16.7303 17.546L16.7516 17.5302L16.7969 17.4655L16.8182 17.441L16.8655 17.4097L16.879 17.3909L16.8519 17.335L16.8565 17.3082L16.8687 17.2814L16.8755 17.2546L16.8553 17.2188L16.8147 17.1721L16.7878 17.1318L16.8091 17.1117L16.8272 17.1218L16.8553 17.1407L16.8811 17.1519L16.8912 17.1363L16.8867 17.1129L16.8766 17.0961L16.8429 17.0704L16.8317 17.076L16.8272 17.0671L16.8317 17.0515L16.8429 17.0403L16.853 17.0336L16.8654 17.0437L16.8901 17.0805L16.8957 17.085L16.9117 17.0938L16.9174 17.0995L16.9207 17.1084L16.9218 17.1229L16.9252 17.1349L16.932 17.1405L16.9567 17.1418L16.9689 17.1507L16.9734 17.1675L16.9779 17.222L16.9869 17.2455L17.0003 17.2578L17.0229 17.2499L17.0467 17.2679L17.1899 17.183L17.2101 17.1764L17.255 17.1462L17.281 17.1393L17.3756 17.0848L17.37 17.049L17.3307 17.0166L17.2798 16.9999L17.2394 17.012L17.226 17.0244L17.2034 17.0378L17.1821 17.0389L17.1719 17.0143L17.1831 17.0108L17.2529 16.9752L17.2404 16.9473L17.2338 16.9361L17.2236 16.926L17.2147 16.9183L17.1866 16.9058L17.147 16.8814L17.1301 16.8759L17.1179 16.8903L17.1078 16.8925L17.0956 16.877V16.8669L17.1012 16.8301L17.1023 16.8145L17.0978 16.8L17.0921 16.7888L17.0529 16.7386L17.0416 16.7161L17.0348 16.6894L17.0326 16.6526L17.0484 16.6603L17.0551 16.6648L17.0607 16.6727L17.0775 16.6626L17.0956 16.6603L17.1136 16.6637L17.1294 16.676L17.1405 16.6893L17.145 16.6994L17.1473 16.7107L17.1541 16.7306L17.1563 16.743V16.753L17.1575 16.7619L17.1644 16.772L17.1712 16.7742L17.1891 16.7731L17.1971 16.7774L17.2117 16.7808L17.2274 16.7765L17.2408 16.7742L17.2464 16.7853L17.2589 16.821L17.3085 16.7853L17.3209 16.8132L17.313 16.8422L17.2939 16.8489L17.269 16.8523L17.2487 16.8724L17.2905 16.8645L17.3366 16.8443L17.4122 16.7954L17.3658 16.783L17.3479 16.772L17.3512 16.7507L17.3558 16.7373L17.3524 16.7261L17.3467 16.716L17.3457 16.7039L17.3502 16.6983L17.3592 16.6917L17.367 16.6827L17.3703 16.6682L17.3653 16.6571L17.3553 16.6617L17.344 16.6717L17.3339 16.675L17.3249 16.6639L17.3148 16.6415L17.307 16.6148L17.3046 16.5923H17.3125L17.3181 16.6047L17.3429 16.6426L17.3485 16.637L17.3607 16.6293L17.3686 16.6214L17.3877 16.6415L17.3967 16.6639L17.3934 16.685L17.381 16.7028L17.3877 16.7173L17.4284 16.7541L17.4363 16.7687L17.4374 16.7787L17.443 16.7821L17.4655 16.7743L17.4914 16.7564L17.5263 16.7118L17.5534 16.6972L17.5456 16.7183L17.5748 16.6982L17.5928 16.6893L17.6131 16.686H17.64L17.6502 16.6904L17.6446 16.706L17.6153 16.7563L17.6097 16.7742L17.6165 16.7841L17.6434 16.7875L17.6628 16.7841L17.6797 16.7774L17.6988 16.7731L17.7213 16.7742V16.7853H17.7134L17.6932 16.8032L17.6311 16.8121L17.6086 16.8254L17.6042 16.8478H17.6334L17.6955 16.8277L17.773 16.7887L17.8004 16.782L17.8172 16.7742L17.8679 16.743L17.8937 16.7385L17.9198 16.7506L17.9288 16.7741L17.9243 16.7975L17.9106 16.8087L17.8825 16.8164L17.6945 16.9203L17.6504 16.9538L17.6199 16.994L17.6593 16.975L17.7439 16.9192L17.8194 16.8913L17.8981 16.8243L18.0344 16.7875L18.1201 16.7406L18.2732 16.6311L18.226 16.6379L18.1755 16.659L17.9962 16.7697L17.9917 16.7742L17.9837 16.7774L17.9737 16.7785L17.9681 16.7764L17.9624 16.7674L17.9636 16.7618L17.9669 16.7551L17.9681 16.7305L17.9726 16.7171L17.9738 16.7015L17.9646 16.6837L18.1415 16.6112L18.1911 16.6035L18.252 16.6046L18.3118 16.599L18.3703 16.5824L18.4267 16.5533L18.5754 16.4483L18.662 16.3802L18.6858 16.3701L18.715 16.3657L18.7297 16.3557L18.7985 16.291L18.867 16.2071L18.9042 16.1849L18.9965 16.1057L19.0057 16.0867L19.0079 16.0654L19.0057 16.0408L18.9921 15.9784L18.9899 15.9459L19 15.9113L18.982 15.8735L18.9708 15.8611L18.9944 15.8723L19.0157 15.8745L19.0326 15.8824L19.0448 15.9102L19.0811 15.8868L19.1103 15.8623L19.1937 15.7584V15.7551L19.1915 15.7417L19.1927 15.7384L19.196 15.7372L19.2072 15.7384L19.2118 15.7372L19.2376 15.7161L19.2488 15.7026L19.2533 15.6837H19.2635L19.2848 15.6992L19.3041 15.6871L19.3187 15.657L19.3232 15.6247L19.3323 15.5945L19.3561 15.5867L19.3842 15.5924L19.4055 15.6058L19.4088 15.5989L19.4123 15.5968L19.4168 15.5956L19.4213 15.5934L19.3616 15.57L19.3436 15.5678L19.329 15.5577L19.2894 15.4974V15.5051L19.2872 15.5063H19.285V15.5129L19.2906 15.5174L19.2917 15.5286H19.258L19.2512 15.5084L19.249 15.484L19.2254 15.4694V15.4582L19.2445 15.4515L19.2625 15.4416L19.2771 15.4259L19.2861 15.4048L19.1872 15.3791L19.142 15.3534L19.1509 15.3133L19.1644 15.2976L19.1827 15.2707L19.1893 15.2452L19.1442 15.2238L19.1363 15.1993L19.1419 15.1715L19.1655 15.1524L19.1588 15.1391L19.1509 15.1335H19.1251L19.1105 15.1313L19.0992 15.1223L19.0779 15.0998L19.0847 15.092L19.1634 15.0909L19.2064 15.1144L19.2468 15.1478L19.2885 15.1647L19.3291 15.1345L19.3482 15.0832L19.3595 15.0352L19.3685 15.0207L19.3909 15.0062L19.4384 14.984L19.4676 14.9661L19.4789 14.9626L19.489 14.9682L19.4957 14.9962L19.507 15.0029L19.5329 15.0074L19.5384 15.023L19.5408 15.0465L19.5509 15.0732L19.5418 15.1068L19.5283 15.1792L19.5125 15.2338L19.4923 15.2841L19.4765 15.3076L19.463 15.3142L19.4439 15.3186L19.4293 15.3242L19.428 15.3365L19.4383 15.3486L19.4518 15.3543H19.4675L19.5361 15.342L19.7265 15.276H19.7501L19.7715 15.2839L19.7928 15.303L19.8202 15.3107L19.8393 15.2951L19.8505 15.2839L19.8528 15.305L19.845 15.3319L19.8292 15.3452L19.8054 15.3497L19.7401 15.3485L19.7279 15.3531L19.7133 15.3631L19.676 15.4066L19.6658 15.4132L19.6536 15.4212L19.639 15.4268L19.6075 15.4334L19.5749 15.4524L19.4723 15.5618L19.4622 15.5819L19.4678 15.5964L19.4993 15.6009L19.5263 15.5875L19.5906 15.5027L19.6367 15.4658L20.0478 15.2559L20.2023 15.189L20.3103 15.1209L20.3488 15.1007L20.4026 15.0818L20.4319 15.0762L20.5921 15.0718L20.6314 15.0796L20.6461 15.0785L20.6652 15.0507L20.6416 15.0059L20.5651 14.9268L20.5312 14.8731L20.539 14.8185L20.6336 14.6656L20.6449 14.6376L20.6482 14.6097L20.664 14.6018L20.698 14.5985L20.7238 14.5996L20.7475 14.5517L20.8196 14.4601L20.8093 14.4423L20.8104 14.4288L20.8252 14.3976L20.832 14.363L20.8297 14.3395L20.8242 14.3184L20.8196 14.2904L20.8163 14.2804L20.8014 14.2593L20.798 14.2448L20.7992 14.2269L20.8104 14.1967L20.8127 14.1822L20.8049 14.1486L20.7846 14.1275L20.7633 14.1107L20.7532 14.0884L20.7442 14.0225L20.7476 13.9936L20.7633 13.9589L20.7937 13.9177L20.8015 13.8964L20.8039 13.8685L20.8015 13.8575L20.7836 13.8127V13.8116L20.7814 13.7825L20.7768 13.7747L20.7668 13.7692L20.7622 13.7626L20.7611 13.7324L20.7713 13.7056L20.7892 13.6855L20.815 13.6766L20.8164 13.6607L20.831 13.585L20.8412 13.5604L20.8828 13.5236L20.8941 13.5013L20.9008 13.4289L20.9427 13.3396L20.9493 13.3139L20.9505 13.3005L20.9493 13.2826L20.9471 13.2658L20.9391 13.238L20.9367 13.2212L20.9401 13.2056L20.9516 13.1923L20.9696 13.1733L20.9775 13.1576L20.9786 13.1508L20.9674 13.1319L20.9572 13.1208L20.9346 13.0906L20.921 13.0572L20.9391 13.0403L20.9516 13.037L20.9865 13.0249L20.9955 13.017L21 13.0015L20.9936 12.9915Z" fill="#550000"/>
</svg>
