<svg width="26" height="26" viewBox="0 0 26 26" fill="none" xmlns="http://www.w3.org/2000/svg">
<circle cx="13" cy="13" r="13" fill="#F8F3ED"/>
<path d="M14.6806 4.82244L14.6604 5.01694L14.6423 5.21145L14.6244 5.40571L14.6066 5.60214L14.5864 5.79665L14.5686 5.99115L14.5504 6.18784L14.5323 6.3819L14.5144 6.57641L14.4943 6.77284L14.4764 6.9671L14.4583 7.16378L14.4381 7.35829L14.4203 7.55498L14.4021 7.74904L14.3842 7.94598L14.6728 7.97699L14.9616 8.00512L15.2483 8.03613L15.537 8.06444L15.826 8.0952L16.1145 8.12377L16.4033 8.15234L16.692 8.18066L16.9808 8.20629L17.2695 8.23461L17.5585 8.26075L17.845 8.28638L18.1358 8.31277L18.4223 8.3384L18.7133 8.36454L19 8.39068L18.9707 8.78149L18.9417 9.17512L18.9103 9.56593L18.879 9.95931L18.8499 10.3525L18.8188 10.7439L18.7872 11.1371L18.7582 11.5308L18.7266 11.9239L18.6975 12.3175L18.6664 12.7107L18.6351 13.1043L18.6061 13.4974L18.5747 13.8908L18.5454 14.2842L18.5143 14.68L18.483 15.0734L18.4537 15.4667L18.4223 15.8626L18.391 16.2559L18.3622 16.6515L18.3308 17.0473L18.2995 17.4407L18.2702 17.8365L18.2388 18.2323L18.2075 18.6281L18.1785 19.0215L18.1471 19.417L18.1158 19.8128L18.0867 20.2086L18.0556 20.6044L18.024 21L17.6479 20.9671L17.2719 20.9339L16.8958 20.8983L16.5176 20.8626L16.1414 20.8273L15.7655 20.7917L15.3893 20.7563L15.0134 20.7178L14.6373 20.68L14.2613 20.642L13.8852 20.6042L13.507 20.564L13.1308 20.5237L12.7549 20.4835L12.381 20.4406L12.0049 20.4002L11.629 20.3576L11.2528 20.315L10.8769 20.2726L10.5007 20.2277L10.1269 20.1824L9.75094 20.1376L9.37478 20.0927L8.99886 20.0479L8.625 20.0007L8.24885 19.9532L7.87293 19.9057L7.4998 19.8566L7.12364 19.8094L6.75002 19.7597L6.37386 19.7098L6 19.6577L6.05834 19.1648L6.11643 18.6743L6.17694 18.1813L6.23528 17.6906L6.2958 17.1977L6.35389 16.7071L6.41223 16.2168L6.47032 15.726L6.53083 15.2333L6.58917 14.7428L6.64968 14.2521L6.70778 13.7615L6.76587 13.2732L6.82397 12.7829L6.88448 12.2921L6.94258 11.8043L7.00067 11.3135L7.06118 10.8254L7.11928 10.3346L7.17737 9.84648L7.23571 9.35835L7.2938 8.87003L7.35432 8.38216L7.41265 7.89383L7.47075 7.4057L7.52884 6.92001L7.58718 6.43143L7.64769 5.94573L7.70579 5.46004L7.76388 4.9719L7.82222 4.48595L7.88031 4L8.30337 4.0567L8.72873 4.11385L9.15408 4.1708L9.57714 4.22533L10.0023 4.27716L10.4276 4.33193L10.853 4.38402L11.2783 4.43636L11.7014 4.48602L12.1267 4.53567L12.5521 4.58532L12.9772 4.63523L13.4026 4.6827L13.8279 4.73018L14.2533 4.77503L14.6807 4.82224L14.6806 4.82244Z" fill="#550000"/>
</svg>
