<svg width="26" height="26" viewBox="0 0 26 26" fill="none" xmlns="http://www.w3.org/2000/svg">
<circle cx="13" cy="13" r="13" fill="#F8F3ED"/>
<path d="M9.08906 5.36297L8.83308 5.43175L8.7584 5.45457L8.31997 5.57551L8.12799 5.62659V5.62147L8 5.71322L8.05864 5.81631L8.08537 5.88571L8.09606 5.95449L8.0793 6.03537L8.05258 6.06394L8.026 6.06968L8.00996 6.08692L8.02065 6.2015L8.06861 6.46636L8.05258 6.67844L8.06327 6.81599L8.08984 6.94842L8.13319 7.02931L8.22391 7.08613L8.2879 7.14963L8.30394 7.24139L8.27186 7.39043L8.23979 7.43064L8.20787 7.43639L8.1758 7.45362L8.15442 7.52876L8.15976 7.62052L8.17566 7.6435L8.21307 7.6612L8.29844 7.74146L8.33571 7.77018L8.36764 7.81676L8.38367 7.89128L8.36764 7.94857H8.33037L8.2983 7.91985L8.22361 7.81117H8.15962L8.11629 7.88569L8.12163 8.04095L8.19097 8.23067L8.19631 8.34012L8.13232 8.43188L8.18028 8.48916L8.21235 8.54645L8.22838 8.61523V8.67252L8.26031 8.66678L8.27634 8.76427L8.32965 8.91394L8.39898 9.04063L8.45229 9.09217L8.57493 9.10941L8.6294 9.2069L8.6187 9.33297L8.54821 9.44258L8.67735 9.59225L8.72532 9.684V9.78725L8.70928 9.88475L8.71462 9.98799L8.74134 10.0861L8.79465 10.1721L8.76807 10.0454L8.76273 9.87915L8.78411 9.74734L8.84276 9.73011L8.86933 9.81038L8.94936 10.2122L8.97074 10.2358L9.00281 10.2696L9.04008 10.3218L9.13615 10.5626L9.2013 10.7695L9.23857 10.8675L9.29201 10.942L9.3667 11.028L9.09902 11.5394L8.98158 11.6598L9.08819 11.9006L9.0775 12.6877L9.17356 12.9864L9.1896 12.9061L9.23857 12.831L9.27598 12.8144L9.32394 12.8546L9.32928 12.8661L9.34532 12.9521L9.35067 13.1011L9.44138 13.4865L9.49469 13.6126L9.56937 13.7329L9.6601 13.8304L9.70805 13.8992L9.74012 13.98L9.74546 14.0723L9.72957 14.2213L9.73477 14.3073L9.77811 14.3818L9.92257 14.4793L9.97587 14.5366L9.99725 14.6003L10.0452 14.8302L10.0666 14.7902V14.8474L9.95984 15.6454V15.7148L9.97053 15.8002L10.0078 15.9612L10.0399 16.0477L10.0832 16.1222L10.1367 16.1853L10.1527 16.2025H10.1687L10.1848 16.191L10.2381 16.1508L10.286 16.0878L10.3021 16.0533L10.3181 16.0188L10.3234 15.9723L10.3181 15.8347L10.3234 15.794L10.3395 15.7538L10.3607 15.7251L10.3874 15.7023L10.4204 15.6793L10.4578 15.6678L10.495 15.6563H10.5804L10.6238 15.6621L10.6612 15.6906L10.6931 15.7251L10.8264 15.9665L10.8851 16.0187L10.9172 16.0302L10.9758 16.0704L11.0303 16.117L11.0623 16.2775L11.0729 16.3348L11.1049 16.4844L11.1529 16.7257L11.2169 17.0353L11.2969 17.3976L11.3823 17.8052L11.473 18.2415L11.6608 19.1432L11.7515 19.5794L11.8368 19.9933L11.9114 20.3557L11.9754 20.6653L12.0235 20.9059L12.0556 21.0612L12.0716 21.1127L12.0823 21.1936L12.0984 21.3197V21.5918L12.2327 21.8165L12.3448 22L13.1249 21.8222L13.3874 21.7643L13.6487 21.707L13.91 21.6497L14.167 21.5861L14.4285 21.5288L14.6909 21.4721L14.9469 21.4085L15.2094 21.3512L15.4707 21.2939L15.732 21.2309L15.9892 21.1736L16.2505 21.1099L16.513 21.0526V21.0469L16.4276 20.8463L16.2879 20.7196L16.0052 20.542L15.9412 20.4726L15.8979 20.4096L15.8545 20.3299L15.8173 20.2199L15.7905 20.088L15.7959 19.9905L15.8119 19.9045L15.828 19.7893L15.7907 19.4621L15.796 19.3245L15.8761 19.2442L15.9882 19.1634L16.0095 19.0252L15.9509 18.6869L15.9455 18.25L15.9188 18.078L15.8441 17.894L15.8227 17.808L15.7794 17.4975L15.8061 17.4459L15.822 17.4057V17.3591L15.8113 17.3126L15.79 17.2953L15.7729 17.2838L15.7622 17.2661L15.7515 17.1686L15.7569 17.0878L15.7793 17.0075L15.8167 16.9272L15.8487 16.772L15.822 16.6052L15.7354 16.3295L15.4794 15.0719L15.4633 14.8701L15.4899 14.7496L15.6286 14.525L15.6719 14.3759L15.6826 14.2207L15.6559 13.9049L15.6126 13.6464L15.6286 13.5604L15.7407 13.4051L15.784 13.2904L15.9921 12.9574L16.0241 12.8249L16.0295 12.6697L16.0241 12.5028L15.9974 12.3423L15.9921 12.1817L16.0295 12.0092L16.2482 11.4177V11.3604L16.2048 11.3312L16.1462 11.2968L16.1088 11.2395L16.1141 11.1192L16.2368 10.648L16.2528 10.3958L16.2154 10.108L16.0607 9.47053L16.0127 9.08643L16.0607 8.79346L16.2154 8.58651L16.4618 8.46044L16.7178 8.40316L16.8351 8.34525L16.9151 8.24775L17.0336 7.97776L17.0922 7.88026L17.4709 7.46107L17.5947 7.36932L17.6212 7.28905L17.6747 7.11128L17.8134 6.90946L17.8774 6.7542L17.8506 6.62239L17.8073 6.49632V6.34666L17.8506 6.29511L17.9146 6.27742L17.9734 6.24931L18 6.16268L17.984 6.0939L17.9305 6.02513L17.8398 5.94486L17.5838 5.57225L17.5347 5.46854L17.4654 5.34822L17.3694 5.2737L17.2948 5.16983L17.268 4.98011L17.332 4.68777L17.4867 4.26858L17.6312 3.87253L17.6365 3.68327L17.5609 3.57956L17.4649 3.49355L17.3902 3.33302L17.3583 3.13756L17.3902 3.05154L17.4703 3L16.9625 3.1433L16.4559 3.29296L15.948 3.43626L15.4402 3.58531L14.9325 3.72861L14.4247 3.87253L13.9169 4.01645L13.4102 4.15975L12.9024 4.30367L12.3893 4.44759L11.8815 4.59089L11.3736 4.72844L10.3581 5.01566L9.84601 5.15322L9.37551 5.27991L9.33824 5.2914L9.17183 5.33797L9.08906 5.36297Z" fill="#550000"/>
</svg>
