<svg width="26" height="26" viewBox="0 0 26 26" fill="none" xmlns="http://www.w3.org/2000/svg">
<circle cx="13" cy="13" r="13" fill="#F8F3ED"/>
<path d="M22.2906 14.5545L22.2559 14.5892L22.2789 14.6194V14.6242L22.3185 14.6149L22.3626 14.6056L22.33 14.5267L22.2906 14.5545ZM22.0901 12.4789L22.0715 12.4813L22.0762 12.5022L22.1581 12.4765L22.186 12.4233L22.1836 12.3438L22.1603 12.2416L22.1436 12.2463L22.1343 12.3043L22.1367 12.3719L22.1295 12.437L22.0901 12.4789ZM22.321 11.8225L22.335 11.7528V11.681L22.3161 11.6855L22.302 11.7226L22.2649 11.8972V11.9136L22.2694 11.9369L22.2859 11.9322L22.321 11.8225ZM22.6192 9.84532L22.5518 9.86866L22.447 9.90816L22.3278 9.9498L22.2487 9.97999L22.146 10.0173L22.0879 10.0383L22.0763 10.0572L22.067 10.1062L22.0577 10.1549L22.0829 10.1618L22.0596 10.2013L22.0224 10.2247L21.9481 10.257L21.8968 10.306L21.8475 10.3666L21.852 10.3852L21.9106 10.3621H21.9852L22.0364 10.3873L22.055 10.4291L22.0434 10.4569L22.0502 10.4825L22.0667 10.5077L22.0945 10.531L22.0693 10.5429L22.011 10.5451L21.9948 10.5522L21.9854 10.5869L21.9948 10.6221L22.0134 10.6521L22.0413 10.673L21.9016 10.7241L21.8709 10.7172L21.8384 10.7011L21.8106 10.7032L21.7916 10.7472L21.8521 10.7867L21.8615 10.8264L21.8383 10.873L21.7964 10.9241L21.8012 10.9475L21.8521 10.9358L21.8615 10.952L21.7964 11.0662L21.7988 11.0918L21.824 11.1359L21.7683 11.1496L21.7242 11.1682L21.6938 11.2032L21.6776 11.2564L21.7265 11.2938L21.7013 11.3171L21.6524 11.3427L21.6146 11.3798L21.6502 11.3963L21.6526 11.4219L21.6337 11.4543L21.6053 11.4892L21.7151 11.5102L21.6663 11.5542L21.6263 11.6108L21.6053 11.685L21.617 11.7731L21.6639 11.7384L21.6896 11.75L21.6942 11.7847L21.6337 11.8337L21.6148 11.8825L21.6079 11.9407L21.6127 11.9942L21.6316 11.9895V11.9688L21.6408 11.964H21.6546L21.6594 11.9595L21.664 11.9895L21.6546 12.0313L21.6361 12.0732L21.6008 12.1036L21.6218 12.1407L21.6194 12.2014L21.596 12.3222L21.617 12.3082L21.6287 12.3036L21.664 12.3082L21.6316 12.355L21.6078 12.4318L21.6194 12.5039L21.6824 12.5479L21.6872 12.5665L21.6824 12.611L21.7663 12.6927L21.799 12.7508L21.8268 12.8157L21.864 12.8297L21.8995 12.8064L21.9205 12.7552V12.7274L21.9089 12.6157L21.9134 12.5831L21.9299 12.5457L21.9506 12.5272L21.9622 12.5364L21.9812 12.6691L22.0069 12.702L22.0603 12.6599L22.0396 12.6297L22.0139 12.5643L21.9977 12.5412L22.0093 12.4808V12.4062L21.9697 12.1272V12.0898L21.9766 12.0525L22.0114 11.969L22.0231 11.9272V11.9039L22.0138 11.8805L21.9976 11.8315L22 11.7918L22.0324 11.7175L22.0395 11.6924L22.0647 11.6643L22.2468 11.5899L22.221 11.5619L22.1862 11.5548L22.1484 11.5572L22.1134 11.5526L22.125 11.5039L22.1558 11.448L22.1906 11.4202L22.214 11.4549L22.2373 11.5061L22.2675 11.5363L22.3023 11.5595L22.3302 11.5924L22.3697 11.5341L22.4048 11.4597L22.4331 11.3779L22.4448 11.3035L22.4 11.2871L22.3931 11.206L22.4069 11.1059L22.4331 11.0057L22.4379 10.8904L22.5496 10.4505L22.6194 10.3271L22.6263 10.2759L22.5891 10.2201L22.6287 10.1949L22.6311 10.1764L22.6149 10.1575L22.6008 10.1228L22.5822 10.0484L22.5753 9.99911L22.5798 9.962L22.6078 9.92489L22.6428 9.89973L22.668 9.86715L22.6656 9.82746L22.6192 9.84532ZM22.9762 9.71236L22.96 9.71946L22.9552 9.73802L22.913 9.82174L22.8828 9.90092L22.8735 9.94042L22.8619 10.0477L22.8526 10.0755L22.8455 10.1104L22.8293 10.1338L22.8041 10.1499L22.7738 10.1592L22.7691 10.1732L22.7901 10.1942L22.8342 10.2337L22.8156 10.2498L22.7925 10.2638L22.7668 10.2708L22.7388 10.2755L22.7458 10.2989L22.8227 10.2755L22.8785 10.1987L22.9135 10.0967L23 9.70317L22.9762 9.71236ZM22.0715 13.8422L21.9668 13.6002L21.9038 13.5305L21.8428 13.5374L21.7801 13.5747L21.701 13.5933L21.5933 13.5747L21.4654 13.5909L21.2114 13.5514L21.1275 13.57L21.0875 13.6399L21.1039 13.6863L21.1347 13.6979L21.1509 13.7122L21.1275 13.7726V13.8073L21.1578 13.8422L21.216 13.8955L21.1742 13.8982L21.1275 13.8817L21.0946 13.8516L21.0923 13.8142L21.0317 13.7935L20.9619 13.7887L20.8921 13.8004L20.8287 13.8255L20.7822 13.8673L20.7427 13.9163L20.6962 13.9582L20.6332 13.9794L20.6263 13.9558L20.6868 13.8907L20.712 13.8488L20.7214 13.8162L20.6982 13.7791L20.668 13.7489L20.6563 13.7187L20.6911 13.6814L20.6887 13.6604L20.5186 13.609L20.479 13.5857L20.458 13.5788L20.437 13.5743L20.402 13.5788L20.3858 13.5696V13.551L20.3906 13.5441L20.4113 13.5208L20.4068 13.5022L20.2505 13.493L20.2064 13.4789L20.1812 13.4393L20.1393 13.2533L20.067 13.0809L20.0435 13.0531L20.0132 13.074L19.962 13.1718L19.9153 13.1906L19.8643 13.1673L19.7614 13.0902L19.7242 13.0789L19.4957 13.1255L19.4445 13.116L19.3373 13.0672L19.2787 13.0648L19.253 13.0416L19.2297 12.9835L19.1949 12.93L19.1367 12.9183L19.1178 12.9348L19.0573 13.0114L19.0316 13.0323L19.0056 13.0161L18.9804 12.991L18.964 12.977L18.7519 13.021L18.5796 12.9932L18.5544 13.0072L18.5428 13.0003L18.517 12.9979L18.4887 12.9887L18.4725 12.9492L18.5264 12.8721L18.5752 12.9139L18.6148 12.9232L18.7173 12.8981L18.7337 12.9026L18.7831 12.9215H18.8109L18.834 12.9144L18.8807 12.8842L18.911 12.8656L18.9341 12.8585L18.9551 12.8656L18.9854 12.8842L18.997 12.9027L19.023 12.938L19.0488 12.9658L19.0533 12.9496L19.065 12.9261L19.128 12.8469L19.1511 12.8283L19.1861 12.8307L19.2113 12.8493L19.3074 12.9541L19.3422 13.0029L19.3794 13.0285L19.4353 13.01L19.4749 12.9634L19.4959 12.9284L19.5004 12.8958L19.4818 12.8141L19.4842 12.7817L19.5052 12.7537L19.5261 12.8072L19.5378 12.8771L19.5545 12.9354L19.5917 12.9539L19.6289 12.9563L19.7289 12.9797L19.773 12.9818L19.794 12.9889L19.8129 13.012L19.8267 13.0422L19.8431 13.0631L19.871 13.0748L19.8803 13.0559L19.8827 13.0233L19.892 13.0002L19.9361 12.9769L20.0362 12.9467L20.0669 12.9187L20.1274 12.9467L20.181 13.0048L20.2158 13.0813L20.2113 13.1721L20.2323 13.191L20.2719 13.226L20.3326 13.27L20.3956 13.3002L20.4397 13.2886L20.6985 13.4332L20.7381 13.4706L20.7915 13.5845L20.8286 13.589L20.8641 13.5612L20.9199 13.4867L20.9502 13.4589L20.9921 13.4425L21.0526 13.4264L21.0946 13.4007L21.1182 13.3472L21.1253 13.282L21.1229 13.2171L21.1015 13.1307L21.0713 13.1167L20.976 13.1633L20.9319 13.1541L20.9552 13.11L21.0041 13.0611L21.0293 13.0425L21.0041 13.0009L20.9459 12.9659L20.8644 12.9333L20.862 12.9707L20.8337 12.9683L20.7986 12.9473L20.7755 12.9217L20.7686 12.8936L20.7639 12.8539V12.8191L20.7686 12.8123L20.7313 12.7797L20.6872 12.7866L20.5863 12.8285L20.5327 12.8261L20.4677 12.8123L20.3535 12.7683L20.1628 12.6629L19.9832 12.5233L19.9086 12.4396L19.8645 12.3975L19.7756 12.3652L19.6336 12.2047L19.6079 12.1954L19.5776 12.193L19.5524 12.1861L19.5381 12.1675L19.5334 12.1347V12.1021L19.5403 12.0788L19.5617 12.0648L19.713 12.1628L19.8159 12.286L19.8785 12.3417L19.939 12.3581L19.9832 12.3767L20.1835 12.5859L20.2045 12.5976H20.2371L20.2623 12.6023L20.295 12.6397L20.3722 12.6516L20.4816 12.7027L20.5328 12.7096L20.7194 12.6235L20.7265 12.6024L20.7056 12.565L20.6753 12.5279L20.6496 12.5094L20.6265 12.507L20.5493 12.5303L20.5445 12.5114L20.6101 12.4696L20.6196 12.4603L20.6103 12.4327L20.5941 12.4235L20.5752 12.4211L20.4985 12.3861L20.482 12.3628L20.4868 12.3275L20.5054 12.3044L20.5306 12.2973L20.5588 12.2997L20.5866 12.3068L20.5726 12.2835L20.5564 12.2578L20.533 12.2393L20.5028 12.2371L20.5192 12.1554L20.5726 12.1858L20.6779 12.3067L20.7243 12.3112L20.757 12.2879L20.7848 12.2765L20.801 12.3229L20.9295 12.4277L20.9597 12.4627L20.9738 12.4603L20.9621 12.3671L20.9831 12.1883L20.9642 12.0927L20.9316 12.0437L20.9037 12.0391L20.8734 12.0437L20.845 12.0296L20.8378 11.9973L20.8547 11.9602L20.8826 11.9276L20.906 11.9067L20.9012 11.8878L20.8171 11.832L20.7797 11.8343V11.9019L20.7635 11.9393L20.7054 11.9276L20.6103 11.8833H20.5565L20.5123 11.8672L20.5078 11.8415L20.5683 11.8042L20.6803 11.7694L20.7199 11.7438L20.7549 11.6997L20.6478 11.6881L20.5425 11.6997L20.4448 11.6881L20.368 11.6089L20.3354 11.6341L20.2837 11.646H20.1278L20.0837 11.6319L20.0437 11.6039L19.9946 11.5435L19.9598 11.4924L19.9505 11.469L19.9458 11.4645L19.9133 11.3782L19.8923 11.3597L19.8109 11.3061L19.7825 11.2966L19.6684 11.299L19.6638 11.2898L19.6591 11.2479L19.6546 11.2386L19.6429 11.2365L19.6336 11.241L19.6243 11.2434L19.5917 11.227L19.5307 11.2202L19.5169 11.2085L19.4866 11.1738L19.4726 11.169L19.4474 11.1505L19.3682 11.0596L19.3493 11.0292L19.3307 10.9735L19.3076 10.9502L19.2233 10.9364L19.1885 10.9248L19.1444 10.8996L19.1024 10.867L19.0653 10.8041L19.0373 10.7923L19.0066 10.7853L18.9787 10.7716L18.9485 10.7459L18.9392 10.7297L18.8811 10.5623L18.867 10.5459L18.8112 10.5062L18.7972 10.4924L18.7645 10.4691L18.5827 10.4622L18.5549 10.4457L18.5339 10.4248L18.5174 10.397L18.5082 10.3575L18.4939 10.3364L18.4753 10.3388L18.4472 10.36L18.3635 10.3647L18.3171 10.3555L18.2914 10.325L18.3054 10.2901L18.3519 10.2855L18.466 10.2901L18.5058 10.3017L18.5433 10.3388L18.5781 10.3833L18.6083 10.4156L18.6317 10.4064H18.7449L18.7873 10.4204L18.8223 10.4437L18.885 10.5063L18.9898 10.6577L19.015 10.6739L19.1273 10.7274L19.1807 10.8182L19.3465 10.8646L19.4022 10.953L19.5233 11.081L19.5611 11.1043L19.5961 11.1136L19.6285 11.102L19.6519 11.0649L19.6588 11.1112L19.6774 11.1371L19.7008 11.1509L19.726 11.158L19.7493 11.1228L19.7679 11.1347L19.7844 11.1625L19.8006 11.1834L19.8871 11.2252L19.9012 11.2414L19.9338 11.2971L20.0431 11.3882L20.0832 11.4322L20.09 11.4669L20.1203 11.5204L20.1575 11.5506L20.1947 11.5366L20.197 11.4205L20.2111 11.3739L20.2528 11.4158L20.2645 11.4415L20.2923 11.4762L20.3157 11.4972L20.325 11.4995L20.3347 11.481L20.365 11.4948L20.3976 11.5204L20.4114 11.5345L20.5559 11.5551L20.6285 11.553L20.6609 11.5019L20.6285 11.5111L20.6145 11.4926L20.5697 11.4531L20.5559 11.4252L20.5628 11.4019L20.5817 11.3857L20.5914 11.3646L20.5678 11.3251L20.5938 11.3296H20.6241L20.6519 11.3227L20.6708 11.3038L20.6594 11.2688L20.5681 11.2225L20.5402 11.1899L20.5423 11.1761L20.5588 11.1737H20.5774L20.5866 11.1668L20.5964 11.1223V11.0898L20.5917 11.062L20.5728 11.0179L20.5008 10.9273L20.4706 10.8714L20.4891 10.8389L20.5309 10.8505L20.6265 10.9156L20.6706 10.9108L20.6871 10.8642L20.6823 10.7898L20.6521 10.6621L20.6268 10.6319L20.5776 10.6086L20.5215 10.5922L20.2792 10.5548L20.1768 10.513L20.0483 10.4941L20.0181 10.4827L20.0367 10.4756L20.0507 10.4595L20.0645 10.4525L20.0393 10.4337L20.0114 10.4196L19.9811 10.4103H19.9509L19.867 10.4474L19.8532 10.4429L19.8415 10.4011L19.8368 10.3895L19.8601 10.3523L19.8577 10.3105L19.816 10.2775L19.72 10.238L19.6525 10.1964L19.6385 10.1847L19.6292 10.1196L19.6175 10.0986L19.5944 10.0941L19.5665 10.1057L19.5193 10.1309L19.4915 10.1378L19.4705 10.1333L19.4495 10.1216L19.4264 10.1124H19.3985L19.3775 10.1357L19.3287 10.1821L19.272 10.2099L19.2372 10.1821L19.2139 10.1471L19.172 10.1309L19.1231 10.1333L19.0719 10.1403L18.9716 10.1426L18.8412 10.1241L18.7359 10.0915L18.6871 10.0216L18.6895 10.0027L18.6919 9.98414L18.6847 9.96087L18.6616 9.93992L18.6359 9.93068L18.6107 9.92376L18.5897 9.91445L18.4566 9.82123L18.4428 9.81909L18.417 9.80507L18.3984 9.7889L18.4125 9.77727L18.4566 9.77016L18.4776 9.76324L18.4917 9.74921L18.506 9.70047L18.494 9.64933L18.4707 9.60272L18.4455 9.57492L18.3824 9.55373L18.3289 9.59147L18.2755 9.64952L18.1656 9.71204L18.0958 9.7867L18.0539 9.80979L17.8999 9.8635L17.7905 9.85425L17.6735 9.86589L17.669 9.84494L17.6942 9.83331L17.7761 9.82142L17.7995 9.80526L17.7902 9.78198L17.7528 9.75154L17.7276 9.72374L17.6247 9.65405L17.5899 9.62147L17.6223 9.59367L17.6573 9.60769L17.7183 9.66122L17.6735 9.55184V9.41485L17.6876 9.29402L17.6807 9.23553L17.6759 9.21244L17.6948 9.20081L17.7348 9.15898L17.7186 9.14734L17.7042 9.12879L17.6904 9.12426L17.7156 9.08476L17.7345 9.03337L17.7414 8.97745L17.7393 8.92846L17.7462 8.87971L17.774 8.84738L17.809 8.84027L17.83 8.86594L17.8438 8.91468L17.8603 8.93563L17.8855 8.92852L17.9226 8.90072L17.9484 8.87292L17.9669 8.8382L17.9622 8.80801L17.918 8.79373L17.8947 8.76593L17.8879 8.72882L17.9064 8.6936L17.946 8.67743L17.9484 8.71926L17.9646 8.73813L17.9835 8.73335L17.9859 8.67271L18.0045 8.6634L18.0297 8.66101L18.053 8.64485L18.0925 8.60302L18.1297 8.58208L18.1507 8.54975L18.1438 8.4727L18.0786 8.15852L18.0716 8.14475L18.053 8.11216L18.0414 8.096L17.9808 8.04015H17.9832L17.9548 8.01448L17.8455 7.95857L17.8315 7.94693L17.7943 7.91435L17.764 7.89793L17.6868 7.90032L17.5986 7.88869H17.5636L17.5264 7.87944L17.5031 7.84233L17.4823 7.79598L17.459 7.75622L17.3935 7.7122L17.3165 7.68867L17.235 7.68156L17.0182 7.70509L16.9531 7.68622L16.8502 7.61653L16.8061 7.59087L16.7665 7.55854L16.7431 7.51451L16.75 7.45859L16.8153 7.37248L16.8405 7.31896L16.8381 7.25606L16.8009 7.21417L16.7497 7.20253L16.6916 7.19775L16.6399 7.17662L16.5772 7.10932L16.547 7.09076L16.4328 7.08598L16.3209 7.06743H16.2745L16.1534 7.09309L16.1019 7.07906L16.0995 7.09309L16.0902 7.13278L16.0645 7.26524L16.0414 7.36751L16.0111 7.51904L15.9901 7.61653L15.9808 7.65842L15.9737 7.69811L15.9505 7.68383L15.9202 7.67005L15.7615 7.58873L15.6053 7.5074L15.447 7.42563L15.2883 7.34669L15.1299 7.26537L14.9735 7.18404L14.8149 7.10227L14.659 7.02095L14.6149 7L14.5842 7.02334L14.5611 7.08372L14.554 7.11605V7.14171L14.5611 7.1719L14.5939 7.26059L14.6011 7.29078L14.6035 7.32789V7.34644L14.5987 7.38141L14.5749 7.44658L14.5215 7.56527L14.5168 7.57929L14.5144 7.59546V7.60948L14.5168 7.62326L14.5215 7.63728L14.526 7.64917L14.5353 7.68131L14.5377 7.69798V7.71685L14.5308 7.76824V7.80774L14.5353 7.8239L14.5401 7.83793L14.5587 7.87957L14.5635 7.89359L14.5656 7.91001L14.5635 7.92139L14.554 7.93995L14.4958 8.05197L14.4145 8.14493L14.3399 8.2774L14.314 8.34967L14.3116 8.36369V8.37508L14.3161 8.38432L14.3208 8.39596V8.4076L14.3139 8.4354L14.2672 8.52622L14.2534 8.54264L14.2348 8.56151L14.1998 8.5822L14.1746 8.5917L14.1557 8.60315L14.144 8.61717L14.1347 8.64497L14.1207 8.70536L14.1069 8.73341L14.0974 8.74983L14.0812 8.76599L14.0295 8.80096L14.0109 8.81021L13.9971 8.81499L13.983 8.8126L13.9713 8.80807L13.9621 8.79882L13.9528 8.78694L13.9435 8.77769L13.9343 8.77291L13.9226 8.7753L13.911 8.78461L13.8714 8.87543L13.818 8.99865L13.7523 9.143L13.7034 9.2593L13.6918 9.27547L13.6804 9.28949L13.6615 9.2871L13.5662 9.24546L13.447 9.19175L13.3655 9.15678L13.3539 9.15917L13.3424 9.17319L13.2673 9.32918L13.2535 9.35937L13.2487 9.38717V9.40359L13.244 9.42214L13.2371 9.44523L13.2069 9.51303L13.2 9.54083L13.1976 9.55939L13.207 9.73607L13.2046 9.75009L13.1953 9.76412L13.1791 9.78268L13.1465 9.81287L13.1255 9.83639L13.1047 9.86658L13.0907 9.90608L13.0838 9.92942L13.0814 9.95011L13.0766 10.055L13.0745 10.0643V10.0899L13.058 10.2015L13.0511 10.2364L13.0395 10.2664L13.0064 10.3342L12.9623 10.4271L12.8992 10.5622L12.8899 10.5737L12.8782 10.5832L12.8597 10.5853L12.6986 10.5644L12.5637 10.5482L12.4446 10.5318L12.3235 10.5154L12.3166 10.5132L12.3118 10.5108L12.3142 10.4992L12.319 10.4741V10.4531L12.3166 10.4483L12.3073 10.4346L12.1812 10.2836L12.1717 10.2741L12.1625 10.2693L12.1555 10.2669L11.9387 10.2298L11.9225 10.2322L11.9108 10.2484L11.9016 10.274L11.8944 10.33L11.8968 10.3604L11.8992 10.3837L11.9037 10.3999L11.9061 10.4184L11.9037 10.4349L11.8968 10.46L11.8641 10.5321V10.5856L11.8851 10.7136L11.883 10.7324L11.8758 10.7531L11.8455 10.8116L11.8386 10.8416L11.8293 10.9372L11.8225 10.9557L11.7991 10.9767L11.7572 11.0018L11.7479 11.0135L11.7434 11.032L11.7386 11.0625L11.7293 11.0903L11.7104 11.1255L11.701 11.1486L11.7034 11.1788L11.7104 11.1976L11.7247 11.2254L11.7318 11.2392L11.7363 11.2532L11.7318 11.2742L11.7247 11.2951L11.6918 11.3465L11.6429 11.3931L11.6243 11.4183L11.5824 11.4927L11.4869 11.6185L11.4823 11.6346L11.4799 11.6513L11.4847 11.6765L11.4963 11.7043V11.7252L11.473 11.9069L11.4352 12.0278L11.3816 12.1999L11.3211 12.3022L11.2139 12.4791L11.1296 12.6142L11.0621 12.7281L10.9785 12.8627L10.9761 12.8746L10.9692 12.9493L10.9644 12.9724L10.9174 13.1141L10.8569 13.2958L10.8522 13.3281L10.8569 13.3398L10.8615 13.3469L10.8663 13.3514L10.9034 13.3747L10.9314 13.3887L11.011 13.412L11.0226 13.4213L11.0343 13.4374L11.0411 13.4657L11.039 13.4843L11.0342 13.5005L11.0132 13.5261L10.9691 13.5656L10.9313 13.5934L10.9175 13.6051L10.901 13.6236L10.8803 13.6541L10.8731 13.6771L10.8708 13.6981L10.8731 13.7124L10.8779 13.7261L10.8848 13.7378L10.8964 13.7471L10.9291 13.7611L10.941 13.7727L10.9458 13.8051L10.941 13.8236L10.9312 13.84L10.661 14.0612L10.598 14.1401L10.5863 14.1539L10.5725 14.161L10.5608 14.1634H10.5467L10.535 14.1589L10.5234 14.1515L10.5141 14.1401L10.5072 14.126L10.5048 14.1099L10.5003 14.0842L10.4955 14.0726L10.491 14.0611L10.4793 14.0516L10.4535 14.0495L10.4349 14.0516L10.3787 14.068L10.323 14.0982L10.2298 14.1634L10.12 14.2402L10.0199 14.3263L9.91982 14.4122L9.91056 14.4193L9.89165 14.4285H9.88188L9.87255 14.4264L9.86568 14.4193L9.8585 14.4076L9.84917 14.3981L9.83752 14.3912L9.82605 14.3888L9.77935 14.3867L9.76788 14.3819L9.76076 14.3727L9.75622 14.3475L9.75149 14.3404L9.74223 14.3359L9.73297 14.3335L9.66074 14.3311L9.63982 14.3335L9.61619 14.3404L9.58354 14.359L9.56734 14.3754L9.55569 14.3891L9.54882 14.408L9.54642 14.4244L9.54403 14.443L9.54642 14.4592L9.54882 14.4756L9.55569 14.492L9.60453 14.55L9.60907 14.5665V14.5895L9.5998 14.6245L9.58833 14.6431L9.57907 14.6592L9.4323 14.7829L9.4161 14.7898H9.40204L9.35988 14.7665H9.34098L9.31785 14.7736L9.25483 14.8199L9.23391 14.8292L8.98441 14.9058L8.8002 15.0456L8.77499 15.0572L8.76781 15.0549L8.76087 15.0503L8.75401 15.0411L8.73995 15.0225L8.73302 15.0109L8.72136 15.0038L8.69798 14.9898L8.55335 14.9291L8.54169 14.9222L8.5231 14.9082L8.46254 14.8478L8.45088 14.8385L8.43468 14.8316H8.41376L8.38111 14.8385L8.36252 14.8547L8.35326 14.8687L8.34847 14.8827L8.33921 14.9362L8.33228 14.9596L8.32301 14.9874L8.29919 15.0271L8.28028 15.0456L8.26409 15.0572L8.1688 15.085L8.13137 15.1015L8.11246 15.1152L8.09866 15.1293L7.99335 15.2876L7.97716 15.3038L7.96071 15.3154L7.90254 15.3295L7.74864 15.3409L7.71833 15.3363L7.6485 15.3014L7.55322 15.2712L7.53916 15.2642L7.51534 15.2454L7.47362 15.2013L7.46196 15.1921L7.45031 15.1826L7.43411 15.1757L7.42005 15.1712L7.39674 15.1664L7.34096 15.1688L7.30832 15.1757L7.27542 15.1781L7.26591 15.1757L7.23345 15.1641L7.20774 15.1455L7.19847 15.1362L7.18915 15.1246L7.15651 15.0713L7.14724 15.0597L7.13584 15.0481L7.11006 15.0319L6.97708 14.969L6.96543 14.9597L6.95616 14.9481L6.94684 14.934L6.94444 14.9176L6.93965 14.9014L6.93751 14.8247L6.93512 14.8085L6.93272 14.7923L6.92585 14.7759L6.91866 14.7621L6.91179 14.7505L6.90253 14.741L6.89087 14.7341L6.79319 14.6923L6.78153 14.6829L6.7746 14.6711L6.77221 14.657L6.777 14.6409L6.78153 14.6292L6.8351 14.5736V14.5712L6.8375 14.5643V14.5502L6.83964 14.5341L6.8351 14.5155L6.83037 14.5015L6.82105 14.4877L6.81178 14.478L6.78657 14.4594L6.66747 14.599L6.48301 14.8109L6.35268 14.9643L6.14748 15.2016L5.96095 15.4155L5.90732 15.4645L5.7422 15.5808L5.56014 15.7087L5.31782 15.8785L5.21069 15.981L5.17067 16.0322L5.15422 16.0648L5.15662 16.0857L5.17281 16.1323L5.18687 16.1996V16.237L5.18208 16.2555L5.17521 16.2695L5.16828 16.2833L5.14489 16.3045L4.9426 16.4462L4.88847 16.4998L4.86748 16.5299L4.85815 16.5582L4.86502 16.607L4.86981 16.6232L4.87668 16.6579L4.87908 16.7045V16.7207L4.87429 16.7371L4.87214 16.7535L4.86496 16.7673L4.8557 16.7813L4.82091 16.8064L4.67886 16.8882L4.53391 16.9719L4.42678 16.9905L4.41058 16.9974L4.39842 17.0069L4.35651 17.0673L4.32412 17.1742L4.31246 17.2044L4.28725 17.2418L4.28253 17.2531V17.265L4.29179 17.2928L4.29419 17.3093L4.29179 17.323L4.27773 17.3373L4.25883 17.3511L4.00939 17.4303L3.76469 17.5534L3.67388 17.6234L3.64602 17.6559L3.62983 17.6697L3.60361 17.6814L3.36627 17.7417L3.15869 17.8562L3.14249 17.8607L3.09554 17.8909L3 18L3.26116 17.9629L3.52231 17.9258L4.04437 17.849L4.30553 17.8116L4.56643 17.7719L4.82759 17.7324L5.08874 17.6929L5.34965 17.6534L5.61144 17.6142L5.87259 17.5746L6.13375 17.5351L6.39213 17.493L6.65329 17.4535L6.91444 17.4117L7.1756 17.3722L7.29691 17.3512L7.31544 17.3398L7.36214 17.2837L7.38312 17.2743L7.40411 17.2698L7.5766 17.2486L7.78847 17.2208L8.02385 17.1906L8.04484 17.223L8.0565 17.2301L8.07541 17.2323L8.13117 17.223L8.56671 17.1533L9.00514 17.086L9.44118 17.0139L9.87672 16.9416L10.3151 16.8719L10.7512 16.7997L11.187 16.7252L11.623 16.6508L12.059 16.5766L12.4946 16.502L12.9307 16.4252L13.3667 16.3486L13.8028 16.2716L14.2383 16.1924L14.6744 16.1134L15.1104 16.0342L15.5439 15.9551L15.9799 15.874L16.4136 15.7927L16.8492 15.7109L17.2852 15.6269L17.7191 15.5435L18.1523 15.4595L18.5883 15.3734L19.022 15.2875L19.4554 15.2012L19.8891 15.1151L20.3247 15.0271L20.7583 14.9386L21.1922 14.8501L21.6254 14.7621L21.9917 14.6829L22.057 14.6686L22.0429 14.6434L22.0267 14.6225L22.0103 14.5992L21.9989 14.5573L22.1035 14.6596L22.2179 14.6365L22.2133 14.6317L22.1575 14.4688L22.1221 14.1481L22.1269 14.1131L22.1552 14.1109L22.1879 14.1247L22.2086 14.1387L22.2319 14.1692L22.332 14.3737L22.3482 14.3923L22.3856 14.4251L22.4018 14.4461L22.4087 14.4832L22.4064 14.5181L22.4111 14.5531L22.4325 14.5902L22.4651 14.5833L22.4999 14.5765L22.4464 14.4554L22.0715 13.8422Z" fill="#550000"/>
</svg>
