<svg width="26" height="26" viewBox="0 0 26 26" fill="none" xmlns="http://www.w3.org/2000/svg">
<circle cx="13" cy="13" r="13" fill="#F8F3ED"/>
<path d="M8.38327 8.45902L8.31618 8.44326L8.29292 8.45227L8.2768 8.46595L8.27442 8.47497L8.29054 8.49306L8.2953 8.5065L8.3022 8.51343L8.30458 8.52919L8.28822 8.5633L8.2953 8.56796L8.29981 8.56563L8.30671 8.55661L8.34157 8.53821L8.37643 8.50644L8.38095 8.49533L8.37643 8.493L8.36954 8.48398L8.37643 8.46589L8.38327 8.45902ZM8.23962 8.74265L8.27687 8.72223L8.30195 8.68371L8.30646 8.63617L8.28796 8.59072L8.24621 8.61807L8.22113 8.60881L8.20714 8.57262L8.20953 8.52459L8.23724 8.43412L8.24414 8.38192L8.22326 8.30027L8.20263 8.30236L8.14219 8.33879L8.13297 8.35456L8.11899 8.37523L8.11422 8.40234L8.12131 8.43412L8.08645 8.44546L8.05159 8.47932L8.02858 8.52686V8.57949L8.05867 8.60642L8.10726 8.62709L8.13523 8.64985L8.11197 8.69738L8.23962 8.74265ZM8.04475 7.97358L8.02387 7.98033L7.96368 8.02112L7.94732 8.03455L7.94042 8.06424L7.94519 8.087L7.96368 8.12993L7.98669 8.15938L8.00776 8.14128L8.02387 8.10025L8.03309 8.06172L8.04707 8.04829L8.07033 8.06639L8.10043 8.10491L8.10733 8.1346L8.10971 8.16845L8.12131 8.20023L8.15379 8.21832L8.21649 8.22734L8.24658 8.22292L8.27906 8.20483L8.20959 8.02535L8.22332 8.00492L8.2257 7.98916L8.22332 7.97106L8.22809 7.93929L8.24207 7.91653L8.26533 7.91212L8.28383 7.92788L8.28834 7.95291L8.28621 7.98444L8.29994 8.06859L8.3348 8.15925L8.35091 8.1887L8.37179 8.20238H8.39738L8.40897 8.18637L8.41587 8.16827L8.42747 8.15251L8.53199 8.11399L8.54811 8.10472L8.56422 8.0797L8.35323 7.90531L8.27216 7.87795L8.2257 7.8712L8.20062 7.87354L8.07071 7.96628L8.04475 7.97358ZM8.21636 9.81112L8.22113 9.85216L8.23724 9.9135L8.2652 9.96337L8.30671 9.97239L8.33468 9.92945L8.34157 9.85688L8.33468 9.78432L8.31831 9.70709L8.30458 9.69133L8.2837 9.68667L8.25812 9.69801L8.28608 9.74322L8.29743 9.80211L8.28822 9.84572L8.25574 9.84106L8.25122 9.8202L8.25812 9.75923L8.2489 9.73647L8.22802 9.73414L8.21881 9.7569L8.21636 9.81112ZM8.25335 7.72847H8.24646L8.25122 7.74656L8.26044 7.75558L8.25335 7.75791L8.26044 7.76466L8.27442 7.77367L8.27894 7.76926L8.27442 7.76251H8.28132L8.2906 7.77594L8.31618 7.78496L8.29292 7.74877L8.2837 7.7511L8.26734 7.73509L8.28822 7.72834L8.30671 7.73068L8.33229 7.74178L8.3138 7.7216L8.28608 7.70792L8.25574 7.71025L8.25122 7.71927L8.25812 7.72601V7.73068L8.25335 7.72847ZM7.98663 8.26862V8.28414L8.05397 8.32094L8.07033 8.31401L8.07485 8.298L8.08193 8.28899L8.08883 8.28224H8.10043L8.11416 8.28666H8.12363L8.13053 8.28433L8.14451 8.27758L8.15824 8.25482L8.15611 8.23231L8.13974 8.22765H8.12357L8.1141 8.23231L8.11197 8.24574L8.10275 8.24807L8.09798 8.23464L8.10275 8.22096L8.10037 8.21421L8.0608 8.1982L8.04469 8.18011L7.96813 8.18913L7.94305 8.18471L7.93829 8.19373L7.94537 8.20507L7.97045 8.21409L7.97735 8.22084L7.99585 8.25703V8.26629L7.98663 8.26862ZM8.72887 8.89042L8.70561 8.89484L8.67789 8.91526L8.64303 8.92201L8.58729 8.91091L8.54792 8.96752L8.30207 9.25324L8.28119 9.30753L8.29047 9.38058L8.30445 9.40334L8.32747 9.42788L8.35305 9.45063L8.37393 9.45965L8.38553 9.47541L8.42039 9.57074L8.48058 9.55006L8.52704 9.55473L8.55475 9.58908L8.55713 9.65937L8.49218 9.80898V9.85443L8.51989 9.91356L8.50848 9.9611L8.52459 10.0244L8.55256 10.0812L8.57764 10.1086L8.59162 10.1357L8.60773 10.1541L8.6357 10.1608L8.66128 10.1541L8.70987 10.1197L8.73758 10.1221L8.7653 10.1541L8.7769 10.2107V10.2787L8.77 10.3404L8.77928 10.3559H8.80963L8.8606 10.347L8.86982 10.3559L8.86743 10.374V10.3897L8.88142 10.3946L8.89302 10.3877L8.90436 10.3696L8.91835 10.3582L8.9717 10.3014L8.98569 10.2926L8.9949 10.2812L8.99252 10.2492L8.9833 10.2017V10.1335L8.96004 10.0792L8.81163 9.9381L8.78154 9.89731L8.75595 9.84952L8.71658 9.80873L8.68887 9.83634L8.67727 9.90197L8.69338 9.9676L8.654 10.0289L8.61914 10.0403L8.60303 10.0035L8.61463 9.86063L8.63971 9.702V9.56798L8.63281 9.5021L8.60955 9.44781L8.56786 9.41837L8.54466 9.40702L8.50077 9.36832L8.47305 9.35697L8.40358 9.36163L8.37324 9.35028L8.35236 9.30925L8.48227 9.31158L8.51713 9.29581L8.53111 9.26171L8.54484 9.20975L8.56121 9.19135L8.57971 9.25723L8.6029 9.21871L8.63751 9.17577L8.67476 9.15768L8.70962 9.19387L8.7305 9.23239L8.76298 9.25281H8.79784L8.83245 9.23006L8.85126 9.15099L8.73984 9.02623L8.74906 8.96709L8.74216 8.95575V8.92397L8.72887 8.89042ZM8.84242 8.00983L8.83552 8.00081L8.80781 7.99848L8.79144 7.99174L8.80781 8.00983L8.8495 8.05761L8.87276 8.05087L8.88198 8.00983L8.87722 7.99174L8.86348 7.97806L8.86562 7.9848V8.00983L8.85872 8.01241L8.84242 8.00983ZM8.74975 7.99848L8.70805 7.90108L8.67557 7.88065L8.65708 7.91917L8.65946 7.94861L8.68247 7.97573L8.72203 8.04136L8.74711 8.09841L8.75871 8.11883L8.79828 8.16428L8.82129 8.1868L8.83978 8.18238V8.15269L8.83289 8.12092L8.82367 8.09356L8.81207 8.07338L8.79119 8.04835L8.76348 8.02099L8.74975 7.99848ZM8.63833 8.21857L8.67106 8.25476L8.70805 8.27752L8.71044 8.25298L8.70805 8.23255L8.69883 8.21888L8.65495 8.21446L8.63833 8.21857ZM8.62698 8.30481L8.61751 8.27979L8.5945 8.25936L8.56654 8.26629L8.54353 8.29322L8.53193 8.33002L8.54353 8.41841L8.55964 8.44117L8.5829 8.44583H8.60378L8.61751 8.43681L8.62911 8.40946L8.64761 8.39136L8.65946 8.38235L8.65469 8.36891L8.62911 8.32597L8.62698 8.30481ZM8.42289 11.8718L8.39042 11.8762L8.36715 11.9033L8.35794 11.942L8.36245 11.9805L8.41129 11.9578L8.49475 11.9056L8.59695 11.8872L8.61306 11.8895L8.57582 11.851L8.53883 11.8259L8.50873 11.7944L8.48992 11.7399V11.7104L8.49914 11.6513L8.50152 11.6198L8.48992 11.5922L8.47381 11.5741L8.46929 11.5539L8.48992 11.5175L8.45506 11.5242L8.40647 11.5539L8.36477 11.5898L8.34389 11.6221L8.2837 11.8327L8.2721 11.8487L8.25329 11.8694L8.23956 11.8939L8.24194 11.9257L8.25567 11.9551L8.26966 11.9735L8.28364 11.9803L8.30213 11.9689L8.31612 11.9485L8.32753 11.9214L8.33938 11.8648L8.35311 11.8485L8.37869 11.8393L8.4249 11.8302L8.41355 11.808H8.45054L8.45976 11.8325L8.44816 11.8601L8.42289 11.8718ZM8.28608 11.1751L8.29743 11.1955H8.32753L8.36026 11.2092L8.39274 11.2792L8.43895 11.2976L8.46691 11.2724L8.48779 11.2589L8.47142 11.2476L8.46453 11.2339V11.1954L8.45976 11.1796L8.46453 11.1592L8.44572 11.1295L8.46453 11.1272L8.47851 11.1181L8.50152 11.1003L8.48302 11.075L8.47851 11.0296L8.48773 10.9345L8.47851 10.9141L8.46214 10.8913L8.44127 10.8709L8.42039 10.8598L8.39712 10.864L8.39023 10.8867L8.38546 10.9164L8.37148 10.9435L8.32527 10.982L8.31605 10.998L8.31129 11.041L8.31367 11.0725L8.32527 11.1001L8.31367 11.1316L8.28608 11.1751ZM7.75483 12.3187L7.72473 12.3163L7.70862 12.3389L7.68981 12.3641L7.66893 12.3731L7.64805 12.3822L7.65043 12.4114L7.65965 12.416L7.68291 12.4525L7.69903 12.4682L7.71539 12.4842L7.72699 12.4866L7.7547 12.4752L7.78956 12.4525L7.80806 12.4091L7.81728 12.3822L7.81515 12.3478L7.79634 12.3297L7.75483 12.3187ZM7.45118 11.9986L7.46039 11.9715L7.49525 11.9578L7.51613 11.924L7.48817 11.9353L7.4718 11.9397L7.4303 11.9487L7.40917 11.9601L7.37694 11.9533L7.35813 11.9759L7.34201 12.0144L7.31643 12.0645L7.30954 12.087L7.32565 12.1214L7.35123 12.1552L7.36045 12.1826L7.36283 12.2053L7.3676 12.2438V12.2684L7.37895 12.2841L7.41619 12.2616L7.44867 12.2208L7.45788 12.1823L7.46478 12.1459L7.45105 12.1076L7.43224 12.0708L7.44384 12.0346L7.45118 11.9986ZM4.52197 13.7457L4.50561 13.7684L4.53119 13.8002L4.57057 13.9045L4.58693 13.8774L4.59834 13.8477L4.61471 13.7797L4.60994 13.7547L4.57771 13.7139L4.57295 13.6752V13.6641L4.56818 13.637L4.54969 13.6504L4.52881 13.6662L4.53332 13.6938L4.53119 13.7209L4.52197 13.7457ZM7.65959 7.94855L7.68755 7.96432L7.70367 7.98033L7.77101 8.00486L7.77314 8.00253L7.76862 7.99578L7.76173 7.99345L7.75013 7.98002L7.72687 7.96867L7.69677 7.95291L7.68517 7.94598L7.66429 7.93696L7.65959 7.94855ZM7.94713 7.86716L7.94023 7.91009L7.94945 7.91684L8.00989 7.89875L8.0213 7.88531L8.02369 7.87163L8.0329 7.8171L8.02601 7.80109H7.96556L7.95183 7.81244L7.91935 7.82612L7.90299 7.83747L7.94023 7.86249L7.94713 7.86716ZM7.71765 8.03694L7.65031 8.03927L7.59933 8.07608L7.59457 8.13496L7.59219 8.1484L7.59006 8.23679L7.59695 8.32794L7.60385 8.35045L7.62021 8.38455L7.63633 8.40498L7.66191 8.42774L7.68749 8.4435L7.7105 8.45252L7.75696 8.45926L7.76618 8.4662L7.78706 8.48638L7.80317 8.50913L7.81264 8.53189L7.82875 8.54999L7.85672 8.56366L7.88919 8.566L7.91427 8.56366L7.93754 8.566L7.96525 8.58642L7.97001 8.56833L7.93515 8.5433L7.91904 8.52962L7.90506 8.51153L7.8818 8.43688L7.87728 8.42786L7.89101 8.39375L7.905 8.39609L7.92111 8.40743L7.94456 8.39842L7.97917 8.37106L7.98607 8.35505L7.93509 8.32119L7.905 8.24396L7.84004 8.20103L7.80756 8.1625L7.77985 8.1173L7.76825 8.07859L7.71765 8.03694ZM20.7404 9.28489L20.2672 9.21227L19.794 9.13989L19.3208 9.06499L18.8478 8.98985L18.3768 8.91287L17.9038 8.83564L17.4306 8.75633L16.9598 8.67702L16.4866 8.59728L16.0161 8.51564L15.5429 8.43399L15.0721 8.3521L14.6013 8.26838L14.1302 8.18232L13.6599 8.09607L13.1891 8.00977L12.7183 7.92389L12.2475 7.83532L11.7767 7.74442L11.3056 7.65584L10.8371 7.56537L10.3663 7.47182L9.89797 7.37896L9.42929 7.28621L8.95847 7.19089L8.74749 7.14795L8.76385 7.19782L8.77307 7.25211L8.67802 7.21592L8.62704 7.21358L8.59457 7.23634V7.28854L8.70115 7.30694L8.71727 7.36374L8.70567 7.37718L8.68241 7.39085L8.65733 7.41128L8.64096 7.43839L8.64335 7.47691L8.65971 7.50893L8.7384 7.60168L8.75238 7.63578V7.68124L8.7268 7.7492L8.75476 7.7151L8.78962 7.74454L8.82185 7.79925L8.83107 7.83986L8.82185 7.85354L8.78486 7.87648L8.77564 7.88991L8.77326 7.92402L8.78486 7.95346L8.80097 7.96922L8.82655 7.96248L8.91239 7.87182L8.95628 7.83538L9.00274 7.82636L9.04212 7.84213L9.09071 7.87856L9.12795 7.92402L9.13955 7.97389L9.07221 8.05087L9.05371 8.09607L9.0976 8.12809L9.09547 8.14153L9.09071 8.21851L9.09547 8.25028L9.10946 8.27739L9.12557 8.29107L9.14168 8.30242L9.15805 8.32082L9.17441 8.38437L9.16965 8.45L9.14407 8.49987L9.09547 8.51122L9.06061 8.48846L8.98882 8.40473L8.94713 8.38198H8.90067L8.91916 8.41142L8.99334 8.48172L9.01215 8.52692L9.02349 8.57262L9.02588 8.6204L9.01666 8.69738V8.72683L9.01904 8.74492L9.01428 8.76302L8.99127 8.78553L8.9633 8.79246L8.93559 8.77878L8.91233 8.75425L8.87295 8.68395L8.84022 8.65218L8.81038 8.66119L8.79401 8.73609L8.77075 8.68389L8.74987 8.602L8.71739 8.54747L8.65244 8.57507L8.62234 8.57974L8.58754 8.57035H8.55745L8.54585 8.60188L8.55983 8.62028L8.58754 8.63144L8.61313 8.65647L8.61551 8.70843L8.59914 8.73345L8.57356 8.74689L8.55745 8.76983L8.56905 8.82203L8.58993 8.84656L8.62002 8.86233L8.65727 8.86466L8.69188 8.85791L8.71069 8.84423L8.7569 8.79878L8.77571 8.79203L8.79658 8.79878L8.82668 8.8127L8.83828 8.83521L8.80104 8.85797L8.79652 8.87864L8.81978 8.91042L8.84486 8.99414L8.86574 9.01457L8.9006 9.02383L8.9307 9.03935L8.95628 9.06002L8.99566 9.11891L9.05371 9.16669L9.11159 9.23926L9.12105 9.25735L9.12557 9.28011V9.31164L9.13033 9.32765L9.08644 9.38009L9.07246 9.4072L9.07723 9.43898L9.04926 9.448L9.0329 9.42524L9.02155 9.39371L9.00067 9.36611L8.96819 9.355L8.9265 9.34807L8.84756 9.355L8.7942 9.38236L8.75934 9.43432L8.74084 9.5002V9.57577L8.76172 9.65066L8.7942 9.70728L8.95183 9.86615L8.96581 9.88682L8.99591 9.95478L9.01678 9.97932L9.05403 9.98606L9.02845 9.88657L9.00525 9.83437L8.97515 9.8091L8.94744 9.7907L8.91496 9.75451L8.887 9.71372L8.87088 9.68219L8.86399 9.63674L8.86612 9.58245L8.88248 9.54117L8.93107 9.52074L8.93816 9.46186L8.95427 9.43732L8.97277 9.43499L8.98913 9.44401L8.99835 9.46002L9.00763 9.46903L9.09108 9.52099L9.09798 9.58938L9.07497 9.67777L9.06575 9.78444L9.09347 9.88669L9.14914 9.97042L9.27667 10.1133L9.31837 10.0864L9.34847 10.0931L9.36007 10.1065L9.37405 10.1179L9.37643 10.1313L9.36458 10.1406L9.35085 10.1496L9.33687 10.1586L9.32313 10.1994L9.30677 10.2356L9.25818 10.2516L9.23711 10.263H9.15604L9.13516 10.272L9.11667 10.2856L9.06782 10.3058L9.04933 10.3172L9.03534 10.3378L9.02845 10.365L8.99835 10.4014L8.98437 10.4443L8.96587 10.5053L8.9265 10.5463L8.85232 10.5825L8.82436 10.612L8.8011 10.6463L8.78022 10.6915L8.76411 10.7461L8.771 10.7938L8.78981 10.8275L8.78743 10.8752L8.78505 10.923L8.77107 10.9525L8.72486 10.9954L8.70605 11.0158L8.69683 11.0409L8.68285 11.0587L8.65513 11.061L8.64592 11.0724L8.65043 11.1023L8.6668 11.1315L8.68529 11.1496L8.77351 11.2064L8.79677 11.2472L8.80129 11.2857L8.78994 11.3309L8.76649 11.3877L8.75037 11.3585L8.73664 11.3128L8.71783 11.2787H8.68774L8.65288 11.3063L8.63676 11.3242L8.63438 11.3518L8.65049 11.4877L8.65758 11.5216L8.67369 11.5645L8.67608 11.5986L8.64811 11.7234L8.6552 11.7598L8.69909 11.8457L8.7083 11.8865L8.70141 11.9412L8.68053 11.982L8.65018 12.0065L8.57601 12.0112L8.5298 12.0223L8.48591 12.0384L8.45343 12.059L8.43017 12.0859V12.1112L8.44628 12.1357L8.47901 12.1675L8.43255 12.1925L8.39769 12.1993L8.36759 12.1835L8.30025 12.1037L8.23291 12.0449L8.20069 12.0084L8.17962 12.1153L8.12864 12.2127L8.06369 12.2991L7.83615 12.4955L7.75032 12.5475L7.65978 12.5748L7.65739 12.5431L7.64366 12.5066L7.62278 12.4772L7.57394 12.4433L7.56021 12.4113L7.54836 12.3754L7.53676 12.3454L7.49977 12.3139L7.48604 12.3273L7.47657 12.373V12.382L7.45337 12.3909L7.41638 12.3999L7.38628 12.3978L7.40716 12.38L7.42114 12.357L7.42804 12.3317L7.42114 12.3005L7.32132 12.3478L7.29574 12.38L7.28885 12.4136L7.29123 12.4547L7.28414 12.4885L7.25167 12.5113L7.26088 12.5475L7.26797 12.5904L7.26088 12.6203L7.23079 12.6111L7.21229 12.5835L7.20991 12.5155L7.19592 12.4793L7.21473 12.4548L7.22633 12.4253L7.22872 12.3933L7.22163 12.3641L7.18464 12.4255L7.13341 12.4663L7.07767 12.482L7.0267 12.4663L7.07316 12.4503L7.10802 12.4257L7.24007 12.278L7.25888 12.2395L7.23561 12.2237L7.17066 12.2917L7.15906 12.2986L7.14508 12.301L6.93409 12.3868L6.88763 12.3958L6.92011 12.3551L6.96657 12.3481L7.01046 12.3458L7.04056 12.3277V12.2848L6.99886 12.2757L6.9455 12.2871L6.90851 12.2987L6.94074 12.26L7.00118 12.2463L7.12163 12.2396L7.18658 12.2057L7.23304 12.151L7.34421 11.9492L7.36302 11.9311H7.40001L7.42798 11.9265L7.46735 11.9105L7.53005 11.8722L7.5604 11.8242L7.62749 11.6929L7.66686 11.6561L7.64837 11.6948L7.65313 11.7176L7.66686 11.7356L7.67846 11.7584L7.68084 11.8013V11.8239L7.66473 11.9036L7.64592 11.9558L7.61821 11.9966L7.57175 12.0056L7.55802 12.0736L7.56491 12.2123L7.60191 12.3143L7.67846 12.2735L7.68323 12.2551L7.68084 12.235L7.67608 12.2165L7.67395 12.2098L7.68555 12.2008L7.69928 12.1871L7.71088 12.1827L7.70875 12.1964L7.72724 12.1759L7.74336 12.1644L7.75044 12.1483L7.7132 12.0556L7.71081 12.0127L7.72931 11.9741L7.7732 11.9333L7.78718 11.9104L7.79408 11.8833L7.80568 11.8608L7.82204 11.854L7.84292 11.8492L7.86142 11.8355L7.8823 11.8174L7.90318 11.804L7.98469 11.7856L8.01955 11.7628L8.04726 11.7132L8.0425 11.7856L8.01027 11.8285L7.96832 11.8629L7.94324 11.9078L7.91528 11.9422L7.88067 11.9603L7.86882 11.9848L7.91528 12.0347L8.07077 12.1369L8.10325 12.1437L8.14024 12.0891L8.14263 12.0416L8.10777 11.9282L8.14946 11.9259L8.18194 11.9147L8.2099 11.8894L8.23498 11.8535L8.20727 11.7828L8.23053 11.7218L8.27223 11.6604L8.30471 11.5921L8.33242 11.5424L8.37411 11.4879L8.3881 11.438L8.33712 11.4063L8.32765 11.3633L8.3395 11.2905L8.32765 11.2383L8.24897 11.2628L8.19561 11.2925L8.13774 11.315L8.0171 11.3396L8.03322 11.3125L8.08419 11.283L8.11215 11.2559L8.13774 11.2241V11.2174L8.12137 11.2151L8.05403 11.1608L8.04005 11.1402L8.03554 11.0996L8.04005 11.0606L8.05165 11.0312L8.07046 11.0066L8.09134 10.9862L8.13993 11.1632L8.18382 11.2357L8.24401 11.2221L8.23241 11.1975L8.25122 11.1818L8.23241 10.8911L8.22552 10.8707L8.2094 10.8482L8.19304 10.8298L8.18144 10.807L8.18382 10.7708L8.2047 10.7685L8.30213 10.9096L8.33938 10.898L8.38089 10.8639L8.41123 10.821L8.41361 10.7871L8.45061 10.7894L8.55043 10.83H8.57344L8.5829 10.8187L8.59902 10.8032L8.61751 10.7802L8.62228 10.7464L8.61306 10.7213L8.59695 10.7009L8.57582 10.6851L8.55732 10.6761L8.59902 10.6374L8.59689 10.6059L8.57808 10.5783L8.57118 10.5468L8.57808 10.447L8.58497 10.4041L8.57576 10.3315L8.53187 10.2768L8.41807 10.1794L8.41568 10.2065L8.44127 10.2863L8.44578 10.3064L8.45286 10.4495L8.45048 10.5154L8.43199 10.556L8.3881 10.5382L8.38333 10.5132L8.39518 10.4904V10.4676L8.36032 10.4519L8.33474 10.4565L8.30677 10.4723L8.03322 10.7061L8.00312 10.7469L7.94525 10.867L7.92418 10.9014L7.89409 10.9195L7.83835 10.9352L7.66222 10.9603L7.51174 11.0145L7.47688 11.0236L7.2728 11.2029L7.14288 11.3731L7.1178 11.4002L7.04363 11.4615L7.00877 11.5L6.99478 11.5386L7.02726 11.616L7.1131 11.6339L7.29186 11.5998L7.46328 11.5384L7.5562 11.5203L7.61639 11.5454L7.53294 11.5927L7.44948 11.6203L7.05052 11.6882L6.9277 11.6748L6.86964 11.6135L6.88362 11.5722L6.96469 11.4679L7.01805 11.3682L7.06689 11.3314L7.12025 11.3022L7.16175 11.2681L7.26866 11.1208L7.30352 11.0821L7.5167 10.9191L7.54654 10.9054L7.57451 10.901L7.59538 10.8894L7.62335 10.8281L7.66956 10.7921L7.70442 10.733L7.75088 10.6741L7.80875 10.647L7.78367 10.5558L7.77891 10.5016L7.7858 10.4564L7.81828 10.4134L7.83709 10.4338L7.83922 10.4881L7.83001 10.5449L7.8739 10.5245L7.89239 10.4723L7.90637 10.418L7.93885 10.386L7.93196 10.4927L7.91039 10.5756L7.83383 10.7505L7.79659 10.8006L7.79207 10.8321L7.82455 10.853H7.84963L7.8776 10.846L7.89847 10.8276L7.91221 10.7984L7.92857 10.753L7.95415 10.7031L8.01685 10.6057L8.05861 10.5554L8.17692 10.4671L8.2025 10.44L8.23022 10.3899L8.25323 10.3674H8.27436L8.34145 10.3787L8.36026 10.3697L8.35549 10.3332L8.26966 10.179L8.26514 10.1545L8.27204 10.091L8.26966 10.068L8.26044 10.0476L8.2232 10.0158L8.20946 9.9933L8.14902 9.8321L8.14451 9.7869L8.13974 9.76629L8.12363 9.74175L8.11416 9.70998L8.12363 9.67145L8.14212 9.65778L8.20019 9.64201L8.2232 9.63042L8.19548 9.55319L8.14212 9.54418L8.07479 9.55994L8.00061 9.56227L7.97052 9.57386L7.9428 9.60564L7.92644 9.64643L7.92882 9.68286L7.99591 9.78493L8.01472 9.83014L7.96136 9.90988L7.9265 9.93264L7.88481 9.92798L7.88957 9.90755L7.93816 9.88946L7.94055 9.83265L7.91967 9.76911L7.89647 9.72617L7.87089 9.71041L7.84763 9.70574L7.83389 9.68998L7.83628 9.64477L7.82919 9.61508L7.80148 9.60141L7.76662 9.59699L7.67156 9.5949L7.65069 9.62852L7.64592 9.7466L7.62084 9.74218L7.57915 9.71274L7.55356 9.6652L7.58366 9.60141L7.5488 9.51743L7.50021 9.44947L7.43751 9.40193L7.35644 9.37224L7.36095 9.34948H7.39343L7.42591 9.34065L7.45149 9.32464L7.4676 9.29029L7.37945 9.31998L7.20784 9.40855L7.12915 9.42432L6.77665 9.33157L6.73709 9.30164L6.74185 9.28821L6.76273 9.28588L6.78123 9.28379L6.80449 9.27704L6.64686 9.26312L6.60749 9.24968L6.51457 9.19522L6.38227 9.1862L6.32208 9.19755L6.2896 9.17301L6.24101 9.11596L6.16897 9.08468L6.01059 9.06051L5.69082 8.97194L5.41494 8.83583L5.37557 8.80872L5.32672 8.70665L5.28973 8.66586L5.13424 8.55919L5.08803 8.53858L4.98821 8.52956L4.95335 8.51147L4.91165 8.45485L4.89316 8.44117L4.74688 8.36879L4.67741 8.28672L4.3666 8.05547L4.26679 8.00308L4.15324 7.96922L4.13926 8.01002L4.14634 8.04872L4.19493 8.12129L4.23663 8.17115L4.24371 8.1825L4.22973 8.20961L4.18804 8.2458L4.17405 8.27083L4.15079 8.37541L4.14158 8.38909L4.11831 8.40486L4.11142 8.41829L4.10903 8.43197L4.11825 8.45473L4.11374 8.47049L4.07888 8.5614L4.05116 8.59992L4.0116 8.61126L4 8.63402L4.03938 8.79031L4.01875 8.8949L4.00476 8.99917V9.10817L4.01636 9.22159L4.03486 9.32618L4.08132 9.46437L4.09505 9.48038L4.15079 9.50081L4.17405 9.51657L4.19255 9.537L4.29475 9.70262L4.31325 9.75923L4.32246 9.8613L4.33406 9.89774L4.35494 9.92049L4.38052 9.93417L4.39902 9.95227L4.39664 10.0541L4.4362 10.2357L4.43858 10.2858L4.40824 10.5217L4.41062 10.6418L4.36673 11.082L4.38309 11.1004L4.42698 11.1206L4.44805 11.141L4.43169 11.1616L4.42247 11.1932L4.42485 11.2226L4.44097 11.2407L4.46893 11.252L4.48028 11.2725L4.50586 11.3747L4.52223 11.5039V11.6222L4.49426 11.8583L4.49664 11.9895L4.48956 12.0531L4.42937 12.2527L4.41539 12.2822L4.40404 12.2956L4.39476 12.3274L4.39237 12.3617L4.40159 12.3822L4.41771 12.3754L4.50824 12.3072L4.52223 12.3049L4.53144 12.2956L4.52668 12.2752L4.51508 12.2457V12.2323L4.51984 12.1778L4.51063 12.13V12.1077L4.54072 12.069L4.59646 12.0577L4.65665 12.0621L4.7055 12.0779L4.74487 12.1078L4.77497 12.1528L4.78895 12.2096L4.78657 12.271L4.80268 12.312L4.86074 12.3298L4.97429 12.3412L4.96978 12.3596L4.96288 12.3643L4.95103 12.3779L5.08571 12.3958L5.15305 12.4162L5.19926 12.4526L5.02313 12.4617L4.84676 12.4979L4.77258 12.5252L4.73772 12.532L4.68913 12.5273L4.64976 12.541L4.62417 12.5795L4.62656 12.6115L4.66593 12.6023L4.67991 12.6387L4.68913 12.6658L4.68437 12.6908L4.66136 12.7159L4.64737 12.7089L4.62179 12.6864L4.58931 12.6635L4.55684 12.6611V12.6136L4.52436 12.5501L4.54317 12.5183L4.5268 12.448L4.47583 12.4774L4.45946 12.5115L4.47106 12.6252V12.7454L4.45733 12.945L4.46655 12.9858L4.49426 13.0103L4.57082 13.0331L4.60781 13.0375L4.62662 13.0444L4.6475 13.0651L4.66361 13.0873L4.68211 13.0987L4.71484 13.0873L4.68687 13.0581L4.69164 13.0397L4.80042 13.0873L4.83315 13.0808L4.86087 13.058L4.87936 13.0467L4.90262 13.0511L4.9351 13.0717L4.98608 13.1308L5.02094 13.1964L5.06031 13.2531L5.12765 13.2781L5.09279 13.3026L5.04658 13.3142L5.01172 13.3003L5.00464 13.2618L5.00012 13.2075L4.96526 13.1871L4.88827 13.1853L4.80676 13.199L4.76506 13.2623L4.7603 13.3482L4.79039 13.4326L4.75816 13.4187L4.70694 13.3644L4.66995 13.346L4.68368 13.4005L4.72092 13.4845L4.73942 13.5638L4.74631 13.5798L4.7487 13.6L4.74418 13.639L4.73496 13.6659L4.72098 13.6865L4.70249 13.6979L4.64675 13.7026L4.63276 13.723L4.63063 13.7568L4.63276 13.7886L4.63985 13.8044L4.65126 13.8204L4.66524 13.8341L4.67684 13.8387L4.68136 13.8476L4.67923 13.8773V13.8933L4.71409 13.9248L4.7603 13.9566L4.79039 13.9951L4.76531 14.0473L4.73522 14.0065L4.65371 13.9249L4.64211 13.8957L4.62361 13.8933L4.60273 13.959L4.56104 14.0156L4.50768 14.0473L4.452 14.0383L4.42642 13.9931L4.41482 13.9203L4.4172 13.7661L4.43119 13.6891L4.49852 13.4735L4.49614 13.4052L4.47978 13.3507L4.47765 13.3032L4.51702 13.251L4.45432 13.2647L4.41946 13.3737L4.34529 13.8568L4.31281 13.9794L4.27111 14.0632L4.27801 14.1017L4.27111 14.1314L4.2434 14.1813L4.20616 14.2336L4.18108 14.2652L4.16001 14.2836L4.17882 14.3061L4.1997 14.313L4.24829 14.3037L4.25989 14.3084L4.26679 14.3198L4.27387 14.3267L4.29475 14.313L4.28999 14.3083L4.2876 14.2903V14.2675L4.29237 14.2541L4.33626 14.229L4.37563 14.2314L4.41288 14.2541L4.44297 14.2857L4.53119 14.4241L4.57765 14.4561L4.63552 14.4651L4.68412 14.4447L4.72801 14.4173L4.78136 14.3995L4.80694 14.4039L4.87403 14.4378H4.89748L4.93209 14.4194L5.00395 14.4126L5.02953 14.3901L5.05041 14.3808L5.07599 14.4216L5.08289 14.449V14.474L5.08765 14.4965L5.21305 14.5533L5.49614 14.5645L5.55884 14.5874L5.60743 14.626L5.61665 14.6873L5.61903 14.7418L5.64674 14.7894L5.79095 14.9529L5.82794 14.9823L5.88839 15.0028H5.94174L6.04833 14.9782L6.10407 14.9873L6.2501 14.9917L6.28948 15.0121L6.31506 15.0439L6.38002 15.1142L6.40773 15.1369L6.47269 15.1622L6.53764 15.2051L6.59808 15.2573L6.64668 15.3093L6.67677 15.364L6.70185 15.4296L6.71822 15.5001V15.6159L6.74148 15.6544L6.77157 15.6882L6.79477 15.7316L6.79716 15.7815L6.78794 15.9155L6.80644 16.0241L6.79245 16.0763L6.76919 16.1329L6.75546 16.1988L6.79032 16.2897L6.79245 16.3191L6.78324 16.3509L6.76236 16.4054L6.75314 16.4371L6.73916 16.5505V16.6188L6.75076 16.6711L6.78085 16.7187L6.82474 16.7683L6.87359 16.8091L7.04049 16.875L7.13555 16.8729L7.16802 16.8796L7.23298 16.9297L7.34201 16.9796L7.39989 17.0272L7.58799 17.0678L7.75489 17.1654L7.79878 17.1633L7.84267 17.1473L8.01905 17.1339L8.4454 17.0725L8.54522 17.0387L8.7216 16.9501L8.82355 16.9207L8.8885 16.9228L9.04851 16.9865L9.38709 16.9956L10.0388 17.1818L10.1384 17.2361L10.1756 17.279L10.1893 17.3266L10.1985 17.381L10.2149 17.4469L10.2498 17.481L10.3007 17.4854L10.5139 17.4402H10.5255L10.5741 17.4513L10.5973 17.4627L10.6089 17.465L10.6831 17.4763L10.7064 17.4831L10.7364 17.5035L10.8294 17.5309L10.9289 17.5239L10.959 17.5286L10.973 17.5263L11.0844 17.472L11.1029 17.4697H11.2677L11.3789 17.4492L11.3929 17.4286L11.4113 17.4152L11.4763 17.3902H11.5014L11.8262 17.5105L11.8517 17.5126L11.9098 17.4992H11.9304L12.0419 17.5377L12.0674 17.54L12.1229 17.531L12.2204 17.4992L12.2436 17.4969L12.2785 17.5036L12.3412 17.5287L12.376 17.531L12.4434 17.5173L12.5083 17.4879L12.587 17.438L12.6335 17.422L12.7401 17.4243L13.0903 17.3561L13.7142 17.3652L13.8208 17.313L13.8982 17.2493L13.9378 17.238L13.998 17.2403L14.1511 17.2742H14.4688L15.023 17.36L15.139 17.3329L15.2504 17.2492L15.2713 17.2513L15.3735 17.2697L15.661 17.3172L15.9485 17.3648L16.2361 17.4126L16.5212 17.4578L16.8088 17.5055L17.3839 17.5985L17.6715 17.6437L17.9593 17.6894L18.2468 17.7346L18.5343 17.7801L18.8219 17.823L19.1094 17.8685L19.397 17.9114L19.6845 17.9548L19.9884 18L19.9559 17.8613L19.8609 17.7048L19.8517 17.6709L19.9303 17.6141L19.9628 17.5779L19.9953 17.5211L20.0045 17.4598L19.9675 17.3739L19.9651 17.2287L19.9443 17.1628L19.8885 17.0357L19.8027 16.8947L19.7935 16.8492L19.8096 16.797L19.8584 16.7111L19.87 16.6272L19.9419 16.1668L20.0139 15.7083L20.0834 15.2477L20.1556 14.7896L20.2253 14.3316L20.2972 13.8754L20.3669 13.4169L20.4388 12.961L20.5082 12.505L20.578 12.0491L20.6498 11.5927L20.7193 11.1388L20.789 10.6848L20.8611 10.2309L20.9305 9.77702L21 9.32544L20.7404 9.28489ZM8.14695 7.02276L8.02864 7V7.01368L8.01942 7.05913L8.11899 7.04337L8.14695 7.02276ZM7.61332 7.89875L7.6273 7.892L7.62492 7.87623L7.60642 7.86489L7.60404 7.85795L7.6204 7.86262L7.64128 7.87838L7.65501 7.88071L7.66661 7.86936L7.66448 7.85569L7.65739 7.84667L7.6505 7.84434L7.62724 7.85335L7.61325 7.85102L7.59024 7.8306L7.58786 7.82176L7.57626 7.80575L7.54378 7.79183L7.5229 7.79901L7.52742 7.81943L7.61332 7.89875ZM8.70573 8.50662L8.7453 8.51588L8.79627 8.50662L8.81477 8.50895L8.83088 8.52705H8.84486L8.84963 8.50662V8.47951L8.76592 8.39805L8.74291 8.34793L8.72655 8.33892L8.71495 8.35934L8.70805 8.38437L8.71257 8.39805L8.68956 8.46368L8.70573 8.50662Z" fill="#550000"/>
</svg>
