<svg width="26" height="26" viewBox="0 0 26 26" fill="none" xmlns="http://www.w3.org/2000/svg">
<circle cx="13" cy="13" r="13" fill="#F8F3ED"/>
<path d="M14.7295 8.43665L15.1061 10.7156L15.1162 10.7294L15.1327 10.7263L15.1627 10.7021L15.1991 10.6654L15.5189 10.2452L15.5457 10.2317L15.6811 10.1777L15.7075 10.1607L15.7173 10.1403L15.7402 10.0389L15.7568 9.99495L15.7932 9.94057L15.8756 9.84573L16.0186 9.72736L16.0348 9.7139L16.0449 9.69349L16.0747 9.6294L16.1308 9.56816L16.1406 9.55122L16.1504 9.53429L16.1572 9.51424L16.1636 9.50078L16.1835 9.37857L16.19 9.35852L16.2002 9.33463L16.2167 9.31769L16.3328 9.22669L16.3591 9.21598L16.3889 9.21287L16.4514 9.22669L16.5139 9.24674L16.5899 9.29764L16.6294 9.3111H16.6562L16.686 9.30414L16.7191 9.28061L16.7387 9.2602L16.7488 9.24015L16.7756 9.1789L16.937 8.92523L16.97 8.86115L16.9899 8.79331L16.9998 8.77638L17.0102 8.75944L17.0234 8.74598L17.0366 8.73216L17.0532 8.72209L17.1093 8.69819L17.1292 8.68474L17.1356 8.67155L17.1292 8.66121L17.1127 8.63768L17.1059 8.62075L17.1028 8.59685L17.1059 8.56985L17.1127 8.5498L17.1484 8.46155L17.1585 8.42108L17.1683 8.38447L17.1717 8.36716L17.1814 8.35023L17.1913 8.34327H17.2078L17.2375 8.36021L17.2507 8.37751L17.2865 8.40452L17.3294 8.42456L17.3394 8.43802V8.44837L17.3229 8.45843L17.2966 8.48233L17.2932 8.49267L17.2864 8.50613V8.52307L17.2898 8.53964L17.2932 8.55309V8.56005L17.3 8.56353L17.3229 8.58706L17.3327 8.59402L17.3459 8.60061L17.4786 8.63457L17.5444 8.66506L17.561 8.6754L17.5809 8.6851L17.6697 8.69856L17.954 8.68849L17.9608 8.67192L18.0695 8.61068L18.3207 8.59411L18.41 8.49579L18.4199 8.44489L18.3969 8.42795L18.3243 8.41788V8.35316L18.377 8.32267L18.4428 8.30922L18.483 8.28569L18.3638 8.1708L18.3935 8.14031L18.4233 8.13024H18.4932L18.5229 8.12017L18.602 8.05545L18.6678 8.02844H18.8097L18.8766 8.01489L18.8995 7.98743L18.9458 7.89588L18.9786 7.85542L19.0546 7.70968L19.0775 7.68615L19.1073 7.66226L19.1437 7.64221L19.3224 7.61832L19.497 7.68926L19.8077 7.90284L19.8838 7.93296L19.9634 7.94678L20.0394 7.93296L20.0857 7.8925L20.1185 7.87245L20.2209 7.87904L20.2374 7.8621L20.2472 7.82549L20.2868 7.80855H20.3371L20.3728 7.81551L20.4353 7.873L20.4319 7.94395L20.3792 8.01215L20.2988 8.05234L20.3286 8.09664L20.4116 8.25227L20.4316 8.24568V8.20174L20.4414 8.15084L20.4613 8.11724L20.4941 8.12383L20.5238 8.16778L20.5208 8.20513L20.5043 8.23213L20.5077 8.26262L20.5604 8.30656L20.6097 8.29649L20.6658 8.26573L20.7259 8.24916L20.7327 8.27965L20.6891 8.30006L20.6725 8.34025L20.6824 8.3884L20.7161 8.43857L20.6526 8.51025L20.7062 8.54385L20.8744 8.5812L20.9207 8.64867L20.9173 8.73317L20.9075 8.82142L20.9274 8.9028L20.9932 8.97723H21L20.9966 8.99764L20.9834 9.05541L20.9469 9.24821L20.9142 9.39706L20.8713 9.61759L20.8415 9.75949L20.8283 9.82046L20.8182 9.87823L20.7855 9.85745L20.7426 9.8374L20.5177 9.71903L20.2961 9.60066L20.0719 9.48165L19.847 9.36676L19.6224 9.24839L19.4009 9.13002L19.176 9.01101L18.9551 8.89264L18.8926 8.86215L18.849 8.89612L18.8162 8.984L18.806 9.03106V9.06841L18.8162 9.11235L18.8628 9.24143L18.8729 9.28537L18.8763 9.33938V9.36639L18.8695 9.41729L18.8358 9.51213L18.7601 9.68488L18.7533 9.7053L18.7499 9.72882V9.74924L18.7533 9.76929L18.7601 9.7897L18.7665 9.807L18.7797 9.85369L18.783 9.87795V9.90542L18.7732 9.98021V10.0377L18.7797 10.0612L18.7864 10.0816L18.8128 10.1422L18.8196 10.1627L18.8226 10.1866L18.8196 10.2031L18.8061 10.2301L18.7237 10.3932L18.6085 10.5285L18.5029 10.7213L18.466 10.8265L18.4627 10.8469V10.8634L18.4691 10.8769L18.4759 10.8938V10.9108L18.466 10.9512L18.3999 11.0834L18.3803 11.1073L18.3539 11.1348L18.3043 11.1649L18.2686 11.1787L18.2422 11.1954L18.2257 11.2158L18.2126 11.2563L18.1926 11.3442L18.1731 11.385L18.1596 11.4089L18.1366 11.4324L18.0634 11.4833L18.037 11.4969L18.0175 11.5038L17.9976 11.5003L17.981 11.4937L17.9679 11.4803L17.9547 11.463L17.9416 11.4495L17.9283 11.4426L17.9118 11.446L17.8953 11.4595L17.8392 11.5917L17.7635 11.771L17.6703 11.9811L17.6011 12.1504L17.5845 12.1739L17.5684 12.1943L17.5416 12.1909L17.4065 12.1303L17.2376 12.0521L17.1221 12.0012L17.1056 12.0047L17.0893 12.0251L16.983 12.2521L16.9634 12.2961L16.9566 12.3365V12.3604L16.9499 12.3874L16.9401 12.421L16.8972 12.5197L16.8874 12.5602L16.884 12.5872L16.8972 12.8443L16.8938 12.8647L16.8807 12.8852L16.8577 12.9122L16.8115 12.9561L16.7817 12.9903L16.7523 13.0343L16.7324 13.0918L16.7226 13.1257L16.7193 13.1559L16.7125 13.3085L16.7095 13.3219V13.3593L16.6861 13.5216L16.6763 13.5725L16.6598 13.6161L16.6128 13.7147L16.5503 13.8501L16.461 14.0467L16.4477 14.0634L16.4312 14.0772L16.4049 14.0803L16.1766 14.0498L15.9854 14.0263L15.8166 14.0024L15.645 13.9785L15.6352 13.9754L15.6285 13.9719L15.6319 13.955L15.6387 13.9183V13.8879L15.6353 13.8809L15.6222 13.8609L15.4435 13.6411L15.43 13.6273L15.4168 13.6204L15.407 13.6169L15.0996 13.5629L15.0767 13.5664L15.0601 13.5899L15.047 13.6272L15.0369 13.7085L15.0403 13.7528L15.0437 13.7868L15.0501 13.8103L15.0535 13.8373L15.0501 13.8612L15.0404 13.8978L14.9941 14.0028V14.0807L15.0239 14.2669L15.0208 14.2943L15.0108 14.3244L14.9679 14.4096L14.9581 14.4532L14.9448 14.5923L14.9351 14.6193L14.902 14.6498L14.8426 14.6864L14.8294 14.7034L14.823 14.7308L14.8162 14.7751L14.803 14.8156L14.7762 14.8669L14.763 14.9005L14.7664 14.9444L14.7762 14.9719L14.7965 15.0123L14.8067 15.0324L14.8131 15.0528L14.8067 15.0833L14.7965 15.1138L14.7498 15.1886L14.6806 15.2564L14.6543 15.293L14.5949 15.4013L14.4595 15.5844L14.4531 15.6079L14.4497 15.6322L14.4564 15.6688L14.473 15.7093V15.7398L14.4399 16.0042L14.3863 16.1801L14.3103 16.4307L14.2245 16.5795L14.0727 16.837L13.9531 17.0337L13.8575 17.1995L13.739 17.3954L13.7356 17.4127L13.7258 17.5213L13.719 17.5549L13.6524 17.7612L13.5667 18.0257L13.56 18.0727L13.5667 18.0897L13.5731 18.1L13.5798 18.1066L13.6325 18.1405L13.672 18.1609L13.7848 18.1948L13.8013 18.2084L13.8179 18.2319L13.8277 18.2731L13.8247 18.3001L13.8179 18.3236L13.7881 18.361L13.7256 18.4185L13.672 18.459L13.6524 18.4759L13.6291 18.5029L13.5998 18.5472L13.5897 18.5808L13.5863 18.6113L13.5897 18.6321L13.5964 18.6521L13.6063 18.669L13.6228 18.6826L13.6691 18.703L13.6859 18.7199L13.6926 18.767L13.6859 18.794L13.6721 18.8179L13.2891 19.1398L13.1998 19.2547L13.1832 19.2747L13.1637 19.2851L13.1472 19.2885H13.1272L13.1107 19.282L13.0942 19.2712L13.0811 19.2546L13.0712 19.2342L13.0678 19.2106L13.0614 19.1733L13.0546 19.1563L13.0482 19.1397L13.0317 19.1259L12.9952 19.1228L12.9689 19.1259L12.8891 19.1498L12.8101 19.1937L12.678 19.2885L12.5224 19.4003L12.3805 19.5256L12.2387 19.6506L12.2255 19.661L12.1992 19.6744H12.1853L12.1721 19.6713L12.1623 19.661L12.1521 19.644L12.139 19.6302L12.1225 19.6201L12.1063 19.6166L12.0402 19.6112L12.0239 19.6042L12.0139 19.5907L12.0074 19.5541L12.0007 19.5438L11.9876 19.5372L11.9745 19.5337L11.8721 19.5302L11.8424 19.5337L11.8089 19.5437L11.7627 19.5707L11.7397 19.5946L11.7232 19.6146L11.7134 19.6421L11.71 19.666L11.7066 19.693L11.71 19.7165L11.7134 19.7404L11.7232 19.7643L11.7924 19.8488L11.7989 19.8727V19.9063L11.7857 19.9572L11.7695 19.9842L11.7562 20.0077L11.5482 20.1877L11.5253 20.1978H11.5053L11.4456 20.1638H11.4188L11.3861 20.1742L11.2968 20.2416L11.2671 20.2552L10.9135 20.3667L10.6524 20.5702L10.6167 20.5871L10.6065 20.5836L10.5967 20.5771L10.5869 20.5635L10.5669 20.5365L10.5571 20.5196L10.5406 20.5092L10.5075 20.4888L10.3021 20.4006L10.2856 20.3905L10.2592 20.3701L10.1735 20.2822L10.157 20.2687L10.134 20.2587H10.1043L10.058 20.2687L10.0316 20.2923L10.0185 20.3127L10.0117 20.3331L9.99859 20.411L9.98876 20.445L9.97554 20.4854L9.94178 20.5432L9.91543 20.5702L9.89247 20.5871L9.75742 20.6276L9.70436 20.6515L9.67801 20.6715L9.65845 20.6919L9.5092 20.9225L9.48624 20.946L9.46293 20.9629L9.38057 20.9833L9.16245 21L9.11958 20.9934L9.02061 20.9425L8.88556 20.8986L8.86564 20.8885L8.83187 20.861L8.77274 20.797L8.75622 20.7835L8.7397 20.7697L8.71674 20.7596L8.69682 20.753L8.66368 20.746L8.58463 20.7495L8.53836 20.7596L8.49174 20.7631L8.47825 20.7596L8.43234 20.7427L8.3959 20.7152L8.38276 20.7017L8.36955 20.6848L8.32328 20.6073L8.31015 20.5903L8.29398 20.5734L8.25745 20.5499L8.06898 20.4583L8.05246 20.4448L8.03933 20.4278L8.02611 20.4074L8.0228 20.3835L8.01602 20.36L8.01298 20.2482L8.00958 20.2247L8.00619 20.2012L7.99636 20.1773L7.98627 20.1572L7.97645 20.1403L7.96331 20.1265L7.94679 20.1164L7.80834 20.0555L7.79182 20.0421L7.782 20.0248L7.7786 20.0043L7.78539 19.9808L7.79182 19.9639L7.86783 19.8829V19.8794L7.87122 19.8693V19.8489L7.87426 19.8254L7.86783 19.7984L7.86104 19.7779L7.84791 19.7579L7.83478 19.7437L7.79905 19.7167L7.72911 19.6897L7.68964 19.6932L7.58736 19.7336L7.54779 19.7371L7.25366 19.6932L7.2006 19.6762L7.17425 19.6527L7.17086 19.6285V19.6014L7.16103 19.5814L7.15121 19.561L7.13468 19.544L7.10164 19.517L6.97899 19.4325H6.94889L6.93237 19.4426L6.91915 19.453L6.90933 19.446L6.83028 19.3612L6.79044 19.3307L6.76105 19.3173L6.73131 19.3072L6.58545 19.2767L6.5524 19.2629L6.53284 19.239L6.50649 19.1749L6.43047 19.0365L6.42369 19.0126L6.42065 18.9887L6.38751 18.9448L6.33481 18.8905L6.07685 18.6977L6.06703 18.6808L6.05381 18.6607L6.03728 18.6164L5.9978 18.4773L5.98771 18.4468L5.96806 18.4198L5.93501 18.3758L5.91206 18.3558L5.88839 18.3388L5.73002 18.2578L5.7101 18.237L5.70367 18.2135L5.70671 18.2001L5.73984 18.1219L5.74663 18.1015V18.0849L5.73654 18.0645L5.72002 18.0305L5.69706 18.007L5.68393 17.9935L5.46581 17.8513L5.43606 17.8238L5.41275 17.7865L5.38301 17.7252L5.36005 17.6886L5.03957 17.3532L5.01321 17.3165L5.00643 17.2961V17.2595L5.01321 17.2494L5.02304 17.2356L5.07574 17.1781L5.09905 17.1445L5.10549 17.1241L5.10888 17.1068V17.0833L5.09236 17.0085V16.9838L5.09575 16.9634L5.10218 16.9499L5.11871 16.9398L5.16158 16.9263L5.17543 16.9128L5.18212 16.8959L5.17873 16.8724L5.17533 16.8485L5.16891 16.8249L5.15809 16.7775L5.15167 16.6757V16.6176L5.14184 16.5736L5.12192 16.5231L5.03608 16.3949L5.01956 16.3607L5.01652 16.3506L5.01313 16.3337L5.00973 16.2147L5.00304 16.1642L5 16.1372L5.00304 16.1403L5.13505 16.1776L5.28734 16.1372L5.56531 15.9811L5.81898 15.917L5.87838 15.8827L5.91554 15.7949L5.92876 15.7138L5.94189 15.3075L5.96824 15.2022L6.00781 15.1551L6.17939 15.1517L6.25201 15.1242L6.2956 15.0428L6.29221 14.9958L6.27157 14.9383L6.24861 14.8839L6.20574 14.8095L6.20235 14.762L6.21548 14.6942L6.18573 14.5858L6.14625 14.5149L6.10668 14.4605L6.07096 14.3861L6.06417 14.2809L6.11383 14.2168L6.17296 14.1624L6.19619 14.0506L6.22897 13.9659L6.23915 13.9219L6.23236 13.7361L6.2655 13.5866L6.33874 13.4007L6.42753 13.2242L6.5231 13.1235L6.60581 13.1097L6.67879 13.1437L6.73819 13.1841L6.85368 13.2112L6.90977 13.2589L6.95265 13.323L6.97899 13.3909L6.99552 13.4113L7.00874 13.4348L7.01919 13.4653L7.01213 13.4888L6.999 13.5057L6.98248 13.5158L6.97569 13.5294V13.5902L6.96247 13.6207L6.95908 13.6415L6.99221 13.6886L7.06215 13.709L7.13138 13.6581L7.18747 13.5733L7.21722 13.5024L7.22704 13.3909L7.23723 13.3366L7.27 13.3061L7.31627 13.3162L7.3855 13.3705L7.42908 13.3809L7.49161 13.3466L7.48152 13.2961L7.43864 13.2314L7.40291 13.1604L7.3955 12.9984L7.37523 12.9205L7.32556 12.893L7.30261 12.8864L7.27286 12.8691L7.24312 12.8417L7.22659 12.8147L7.20025 12.7607V12.7437L7.22016 12.7402L7.38157 12.6388L7.4022 12.591L7.3955 12.4899L7.3553 12.3279L7.35227 12.2704L7.36853 12.1956L7.50126 11.972L7.531 11.8128L7.59683 11.7792L7.67927 11.7622L7.75189 11.7214L7.77869 11.7484L7.80504 11.7214L7.82156 11.7111L7.84488 11.7146L7.87766 11.7315L7.9074 11.6706L7.90097 11.4948L7.91714 11.4103L8.13562 11.1157L8.18492 11.0779L8.33016 11.0544L8.36964 11.0849L8.4126 11.1562L8.472 11.2306L8.54837 11.2711L8.62768 11.2441L8.73005 11.1122L8.79588 11.0713L8.86582 11.0509L8.93504 11.0173L9.00087 10.973L9.04714 10.9291L9.12618 10.8038L9.17924 10.7432L9.30519 10.6684L9.34476 10.5902L9.40076 10.4279L9.49008 10.2856L9.82057 9.9132L10.0323 9.73395L10.029 9.69001L10.0489 9.5612V9.53731L10.0357 9.48952V9.46947L10.0455 9.44906L10.0951 9.39157L10.0982 9.30368L10.0752 9.24619L10.0323 9.20188L9.96572 9.15135L9.93892 9.10008L9.95857 9.05651L10.0255 8.99563L10.0353 8.94821V8.85666L10.0387 8.80924L10.0518 8.75486L10.0681 8.71055L10.1177 8.61956L10.1211 8.58221L10.0978 8.53826L10.0715 8.48773L10.0549 8.44342L10.0583 8.37247H10.0948L10.1441 8.38941L10.187 8.37595L10.2001 8.32817L10.1904 8.28798L10.1704 8.25374L10.1606 8.22325L10.1704 8.14223L10.1938 8.08447L10.2099 8.017L10.2035 7.91557L10.167 7.73247L10.164 7.64422L10.1836 7.52933L10.2298 7.36006L10.2465 7.27529L10.2431 7.11261L10.2562 7.00459L10.2991 6.81802L10.3259 6.77755L10.4025 6.68601L10.419 6.65552L10.4288 6.50978L10.4387 6.48278L10.4221 6.42501L10.3827 6.32705L10.3793 6.30664L10.3762 6.25922L10.3695 6.23917L10.35 6.22571L10.326 6.21876H10.2933L10.2798 6.11732L10.3196 5.93075V5.82611L10.2963 5.76524L10.2534 5.69044L10.1514 5.55514L10.016 5.42294L9.97644 5.352L9.99635 5.25715L10.0491 5.19966L10.1315 5.15572L10.2172 5.13531L10.2798 5.1592L10.4125 5.02353L10.4622 5V5.00348V5.01355H10.4652V5.02014L10.5277 5.37598L10.5871 5.73146L10.6496 6.08656L10.7122 6.4424L10.7753 6.79788L10.8378 7.15372L10.8973 7.50919L10.9599 7.86814L11.0126 8.17656L11.0687 8.48462L11.1222 8.79587L11.1749 9.10356L11.6207 9.02254L12.0635 8.94116L12.5093 8.85675L12.9527 8.77537L13.3985 8.6906L13.8409 8.6061L14.2837 8.5216L14.7295 8.43646V8.43665Z" fill="#550000"/>
</svg>
