<svg width="26" height="26" viewBox="0 0 26 26" fill="none" xmlns="http://www.w3.org/2000/svg">
<circle cx="13" cy="13" r="13" fill="#F8F3ED"/>
<path d="M9.8794 6.05624L9.88719 6.11152L9.92289 6.12668L10.0266 6.04339L10.1579 5.99839L10.1853 5.94284L10.1423 5.94026L10.1625 5.90015L10.2186 5.85004L10.2765 5.82482L10.3398 5.81224L10.3776 5.7896V5.75425L10.3321 5.70666L10.2842 5.71923L10.1504 5.79504L10.1253 5.82509L10.1 5.86778L9.92316 5.98601L9.8794 6.05624ZM10.3174 5.54831L10.3603 5.55063L10.4033 5.56089L10.441 5.58809L10.426 5.5405L10.4336 5.50555L10.4563 5.4755L10.479 5.45007L10.4764 5.40248L10.4384 5.40017L10.3451 5.4377L10.2264 5.47577L10.1991 5.49556L10.1632 5.55341L10.186 5.57116L10.3174 5.54831ZM9.41473 5.48277L9.45508 5.46299L9.4853 5.41724L9.50288 5.37202L9.46253 5.33191L9.43723 5.36455L9.37179 5.41982V5.45272L9.41473 5.48277ZM18.9988 11.6138L18.9378 11.6015L18.8845 11.5586L18.8012 11.4555L18.718 11.4028L18.6645 11.4429L18.6189 11.4881L18.5558 11.4581L18.4726 11.566L18.4372 11.5964L18.4447 11.5382L18.3811 11.5408L18.3155 11.5866L18.2599 11.6493L18.2221 11.702L18.1489 11.8452L18.0853 12.0113L18.1127 12.0589L18.0925 12.1165L18.0571 12.1697L18.0395 12.2101L18.0142 12.2427L17.845 12.3329L17.7434 12.4239L17.693 12.4841L17.6777 12.5445L17.6627 12.6224L17.6123 12.6625L17.5461 12.6749L17.4854 12.6674L17.4375 12.6448L17.3845 12.6047L17.3517 12.5646L17.3768 12.5445L17.3869 12.4437L17.3895 12.3707L17.3995 12.3407L17.4148 12.3155L17.4324 12.2702L17.4476 12.2577L17.4551 12.2402L17.4349 12.1921L17.4297 12.1746L17.44 12.0942L17.4501 12.0616L17.4728 12.0238L17.5232 11.9711L17.5483 11.9385L17.5561 11.9007V11.8631L17.5641 11.82L17.5768 11.7799L17.5894 11.7472L17.7104 11.5814L17.7432 11.4881L17.7055 11.3978L17.7685 11.3022L17.8779 11.2441L18.0925 11.1714L18.1435 11.1436L18.1841 11.111L18.2092 11.0606L18.2118 10.9902L18.2017 10.9222L18.1991 10.8844L18.2043 10.8572L18.2596 10.7541L18.2648 10.7318L18.126 10.696L18.0799 10.6688L18.0724 10.6534L18.0572 10.6333L18.0269 10.6033L17.9638 10.5557L17.9209 10.5128L17.9007 10.4856L17.8955 10.4632V10.3573L17.9007 10.3172L17.9335 10.1789L17.9814 10.0403L17.9967 10.0103L18.0295 9.96759L18.0396 9.9472V9.92973L18.0344 9.91198L18.0139 9.88703L17.9911 9.85902L17.9735 9.84155L17.956 9.83434H17.9407L17.9255 9.83896L17.7533 9.94978L17.7357 9.95746L17.7181 9.96005H17.698L17.6398 9.94978L17.6196 9.95236L17.6043 9.95753L17.577 9.97759L17.5565 9.98275L17.5337 9.98017L17.4934 9.9627L17.4755 9.9423L17.4654 9.92191L17.468 9.90212L17.4885 9.83169L17.4911 9.80878V9.78158L17.481 9.7412L17.4784 9.71625L17.4836 9.69619L17.4936 9.68103L17.5673 9.61576L17.5775 9.60264L17.5876 9.58775L17.6028 9.55539L17.613 9.5199L17.6153 9.50243V9.49243L17.613 9.46979L17.5825 9.37162L17.5517 9.30866L17.5491 9.27861L17.5597 9.26345L17.5775 9.25598L17.5902 9.24829L17.6028 9.23592L17.6104 9.21552L17.613 9.19057L17.6078 9.14536L17.6002 9.12272L17.5902 9.10498L17.5416 9.04454L17.5188 9.01163L17.5165 8.98668L17.5188 8.96894L17.5442 8.94398L17.5517 8.93399L17.5569 8.91393V8.90394L17.5517 8.89367L17.5341 8.87878L17.4961 8.84615L17.4633 8.81324L17.4359 8.79577L17.3728 8.76314L17.3601 8.75029L17.3247 8.71507L17.3146 8.70249L17.2996 8.69502L17.2844 8.68754L17.2639 8.68495L17.1553 8.68754L17.1123 8.67986L17.0971 8.67496L17.0821 8.66497L17.0695 8.6549L17.0366 8.62227L17.0292 8.6171L17.0165 8.61479H17.0039L16.9555 8.63716L16.9149 8.64484H16.8947L16.8544 8.63967L16.814 8.62968L16.776 8.61479L16.7555 8.59963L16.7281 8.57189L16.7181 8.54925V8.52661L16.723 8.50887L16.7282 8.4914L16.7761 8.41838L16.7838 8.40322L16.7913 8.38316L16.7887 8.35311L16.7786 8.33047L16.6998 8.20735L16.677 8.18695L16.6545 8.17458L16.6139 8.16458L16.5963 8.15942L16.5307 8.11672L16.5105 8.11155L16.4903 8.11414L16.4549 8.12413L16.4347 8.12671H16.4142L16.3687 8.11672L16.3232 8.09666L16.303 8.0915H16.2828L16.197 8.09918L16.1567 8.0966L16.1409 8.09401L16.0729 8.05132L16.0501 8.04384L16.0274 8.04125L15.9795 8.06165H15.934L15.8451 8.02643L15.8249 8.02154L15.8071 8.02412L15.7921 8.0316L15.772 8.03418L15.7466 8.02902L15.7036 8.00407L15.6757 7.9938L15.6506 7.98605H15.6304L15.6126 7.99142L15.595 7.99632L15.5668 8.01637L15.549 8.02154H15.5314L15.5112 8.01895H15.4934L15.4784 8.02643L15.4277 8.06913L15.4075 8.0743L15.3802 8.07171L15.2913 8.03908L15.2357 8.02908L15.1953 8.0142L15.17 8.00882H15.1449L15.1271 8.01141L15.0792 8.03684L15.0591 8.03915L15.0337 8.03684L15.0135 8.02167L14.9954 8.01651L14.9775 8.01909L14.9424 8.02908L14.9246 8.03167H14.8917L14.8312 8.00645L14.6766 7.94349L14.5225 7.88053L14.3707 7.81778L14.2192 7.75503L14.1636 7.73497L14.0747 7.71981L14.0473 7.71723L13.9739 7.70465L13.8598 7.68691L13.7083 7.66427L13.5312 7.63653L13.3342 7.6039L13.1216 7.57126L12.9014 7.53863L12.6837 7.50341L12.4717 7.46847L12.2742 7.43814L12.0971 7.40782L11.9481 7.38518L11.8312 7.36513L11.7581 7.35486L11.7307 7.34996L11.6599 7.33739L11.6472 7.32481L11.6371 7.30734L11.6115 7.24438L11.5637 7.15906L11.4853 7.02567L11.4374 6.93776L11.4071 6.88507L11.3743 6.84958L11.3389 6.81695L11.313 6.80464L11.2879 6.79948H11.2652L11.2349 6.79179L11.2147 6.77922L11.1893 6.75916L11.164 6.75399L11.1188 6.7491L11.1035 6.73652L11.0733 6.69131L11.0554 6.68383L11.0399 6.68641L10.997 6.71646L10.9817 6.72394L10.9616 6.72653L10.9342 6.72394L10.9164 6.71646L10.9037 6.70389L10.8913 6.67125L10.8735 6.61081L10.8812 6.59334L10.8205 6.64093L10.7726 6.64351L10.6632 6.59592L10.4838 6.5705L10.2485 6.46743L10.0535 6.31935L10.0005 6.29393L10.0183 6.30419L10.0713 6.35457H10.0434L10.0183 6.36205L9.99565 6.37204L9.97288 6.3872L9.97547 6.40726L10.0613 6.39958L10.0207 6.46756L9.96016 6.51563L9.67678 6.65392L9.60839 6.67397L9.54001 6.64875L9.56538 6.58076L9.60053 6.5157L9.74051 6.32534L9.75056 6.28522L9.73559 6.25517L9.71507 6.22485L9.70242 6.19453V6.13694L9.71247 6.06651L9.73524 6.00607L9.77819 5.97575L9.81594 5.94053L9.86661 5.78987L9.90176 5.74228L9.88678 5.71169L9.87898 5.69911L9.93513 5.66647L9.92501 5.64125L9.89164 5.6212L9.87112 5.60114L9.85587 5.53839L9.83078 5.52064L9.75761 5.53064L9.74495 5.52316L9.73723 5.5031L9.7323 5.48026L9.72711 5.46789L9.70461 5.45762L9.68184 5.45272L9.63397 5.45014L9.61585 5.46299L9.60812 5.48536L9.6032 5.51058L9.598 5.52574L9.5755 5.53574L9.5476 5.54573L9.4972 5.55321L9.47703 5.55063L9.43901 5.54063L9.42403 5.53832L9.40126 5.5458L9.38601 5.56096L9.37596 5.57585L9.36844 5.58584L9.26682 5.63853L9.24172 5.66369L9.2314 5.68408L9.22907 5.70672L9.22388 5.7242L9.2037 5.73419L9.15584 5.73936L9.13566 5.74704L9.11515 5.76193L9.08232 5.83753L9.05155 5.86472L9.00368 5.8395L9.00601 5.81945L9.00368 5.81197L9.00109 5.80707L8.99849 5.79191L8.95554 5.8446L8.90255 5.86724L8.86712 5.85208L8.87977 5.77933L8.81139 5.80197L8.69733 5.90994L8.51816 6.03843L8.4065 6.15401L8.37107 6.12879L8.19396 6.21438L8.00215 6.25477L7.47341 6.48592L7.11919 6.56404H7.06079L6.9018 6.50108L6.86378 6.4934L6.8209 6.47334L6.7573 6.42575L6.70171 6.37048L6.68413 6.34043L6.65131 6.35532L6.61329 6.38564L6.59831 6.418L6.58074 6.47327L6.57301 6.48585L6.56036 6.49585L6.52261 6.50842L6.50682 6.51611L6.49677 6.5261L6.48664 6.54126L6.47912 6.55873L6.47652 6.57879L6.4716 6.66207L6.46647 6.67696L6.46155 6.68465L6.45382 6.69702L6.44117 6.7047L6.40602 6.71728L6.36547 6.72217H6.32095L6.28553 6.71218L6.27548 6.7096L6.27028 6.72217L6.27548 6.79261L6.28813 6.99874L6.30311 7.20515L6.31576 7.40877L6.331 7.61491L6.34366 7.82105L6.35863 8.02745L6.37388 8.23359L6.38653 8.43973L6.39146 8.48732L6.39665 8.59297L6.35111 8.60555L6.32089 8.63077L6.29066 8.6683L6.26789 8.71351L6.26009 8.75872L6.23732 8.78904H6.18145L6.11806 8.78156H6.07512L6.03997 8.8142L5.9921 8.90258L5.95668 8.92264L5.85533 8.93011L5.83256 8.94011L5.81499 8.95527L5.79974 8.97274L5.79222 8.98022L5.78962 8.9879L5.76425 9.03549L5.7518 9.05093L5.73395 9.0633L5.67084 9.07588L5.54152 9.16426L5.49858 9.17684L5.42541 9.21695L5.35921 9.30227L5.27339 9.48584L5.29097 9.57864L5.22785 9.67967L5.02797 9.88812L5.00779 9.9285L5.0026 9.98405L5 10.2326L5.05559 10.3434L5.16214 10.3609L5.28858 10.3509L5.385 10.3786L5.41522 10.4262L5.4607 10.5499L5.48319 10.5949L5.52867 10.6453L5.57654 10.688L5.61428 10.736L5.62953 10.7988L5.62434 10.8567L5.55869 10.9747L5.54864 11.0503L5.53852 11.1107L5.50829 11.151L5.47287 11.1837L5.44004 11.2266L5.42247 11.2813L5.41755 11.3419L5.42507 11.4877L5.41242 11.5581L5.40982 11.5959L5.42247 11.6134L5.47287 11.7193L5.48059 11.7924L5.47054 11.8579L5.44004 11.9055L5.39218 11.9259L5.35881 11.9611L5.38158 12.0313L5.44996 12.1747L5.48278 12.313L5.5033 12.4513L5.49557 12.4739L5.46535 12.532L5.46042 12.5669L5.48059 12.67L5.48552 12.7108L5.47547 12.8013L5.38472 13.012L5.45529 13.065L5.61688 13.1478L5.80152 13.3062L5.84938 13.3316L5.86723 13.3588L5.87988 13.3891L5.89233 13.4066L6.0066 13.4646L6.39829 13.4993L6.48931 13.5247L6.57821 13.5849L6.6563 13.6656L6.73207 13.8039L6.75484 13.8391L6.78274 13.8641L6.81844 13.8766L7.11447 13.9044L7.25076 13.9422L7.65825 14.2465L7.76452 14.3951L7.97965 14.7318L8.03265 14.7923L8.13351 14.8272L8.44452 15.0563L8.47501 15.0714L8.50839 15.0763L8.75067 15.0589L8.76592 15.0638L8.91793 15.1645L8.93551 15.1717L8.95828 15.1769H9.05162L9.08239 15.1895L9.10024 15.2046L9.11262 15.2224L9.12034 15.2424L9.12787 15.2674L9.14804 15.3129L9.21109 15.3781L9.23386 15.4208L9.34505 15.4511L9.38102 15.4683L9.40837 15.4938L9.42595 15.5238L9.4412 15.5593L9.45877 15.6395L9.4665 15.7151L9.46882 15.8107L9.47142 15.841L9.47894 15.8682L9.49159 15.8935L9.50685 15.9161L9.54459 15.9536L9.56244 15.9763L9.57249 16.0066L9.58747 16.0695L9.59267 16.1323L9.57509 16.3133L9.57742 16.3439L9.60532 16.4292L9.60764 16.4641L9.60532 16.5675L9.61024 16.6127L9.63349 16.6957L9.64101 16.7384L9.63869 16.7811L9.63089 16.859V16.9071L9.63609 16.9469L9.64614 16.985L9.66139 17.0202L9.70174 17.0852L9.71671 17.1155L9.72683 17.1505L9.74735 17.2415L9.76984 17.2741L9.80034 17.2942L10.0255 17.3622L10.0935 17.4323L10.1088 17.556L10.0684 17.6588L9.94976 17.8475L9.92959 17.9657L9.96241 18.1969L9.98976 18.3074L9.99982 18.4282L10.0073 18.466L10.0226 18.5035L10.0378 18.6547L10.058 18.7274L10.0908 18.7801L10.1689 18.8608L10.2 18.9058L10.2205 18.964L10.2381 19.1045L10.2533 19.1652L10.3516 19.3235L10.387 19.3636L10.4501 19.4014L10.5644 19.4395L11.0089 19.4871L11.1281 19.5197L11.1888 19.5223L11.2519 19.5375L11.2949 19.5825L11.3559 19.7134L11.3812 19.7514L11.4544 19.8391L11.4798 19.8867L11.4772 19.9242L11.4498 20H11.4547L11.4573 19.9977H11.4599L11.9153 19.9648L12.3703 19.9296L12.8233 19.8915L13.2758 19.8565L13.7313 19.8187L14.1867 19.7812L14.6392 19.7408L15.0922 19.703L15.5446 19.6629L16.0002 19.62L16.4532 19.5799L16.9057 19.5372L17.3586 19.4945L17.8137 19.449L18.2667 19.4038L18.7119 19.3609L18.6661 19.1094L18.6684 19.077L18.6762 19.0392V19.0017L18.6483 18.9464L18.6408 18.9056L18.6358 18.8606V18.8277L18.6508 18.765L18.6942 18.6544L18.6968 18.4279L18.6862 18.3678L18.6482 18.2998L18.5272 18.1767L18.4967 18.1315L18.4843 18.0988L18.4463 17.8322L18.4189 17.7569L18.3677 17.6914L18.2945 17.6788L18.2718 17.6384L18.2795 17.578L18.3172 17.4548L18.3198 17.4271L18.3172 17.3867L18.3046 17.3693L18.2516 17.334L18.2366 17.304L18.2389 17.2284L18.2516 17.1757L18.2542 17.1204L18.2268 17.0448L18.1989 16.9872L18.1839 16.952L18.1686 16.8335L18.2116 16.577L18.2191 16.4742L18.3455 16.1524L18.368 16.0187L18.3303 15.9159L18.3352 15.8355L18.3557 15.7675L18.4798 15.4857L18.5277 15.3248L18.5049 15.3048L18.5176 15.2667L18.5124 15.2567L18.4971 15.2343L18.515 15.1988L18.5199 15.1665L18.515 15.1359L18.5023 15.0984L18.4367 15.0104L18.4292 14.9956L18.4059 14.9601L18.3933 14.8747L18.3884 14.6229L18.3907 14.5882L18.4292 14.5126L18.4315 14.4823V14.3992L18.4418 14.3288L18.5401 14.0247L18.5729 13.9643L18.6057 13.9317L18.7425 13.8433L18.7855 13.7929L18.8206 13.7325L18.846 13.6623L18.8511 13.5919L18.8283 13.5418L18.7121 13.4158L18.6813 13.305V13.2677L18.6971 13.1998L18.7046 13.1468L18.7326 13.074L18.7374 13.0388L18.7326 12.963L18.7628 12.5885L18.7956 12.4401L18.846 12.3118L18.9471 12.1535L18.9647 12.088L18.9929 12.0278L18.9981 12.0101V11.9725L19.003 11.9347L19.0562 11.7108L19.051 11.6378L18.9988 11.6138ZM10.0065 5.601L10.0517 5.57095L10.0745 5.54831L10.067 5.51568L10.0289 5.4653L10.0114 5.45504L9.9659 5.43756L9.9408 5.42499L9.93308 5.45272L9.92555 5.47557L9.9155 5.49794L9.89971 5.52058L9.97855 5.57095L10.0065 5.601ZM10.7498 5.15576L10.7293 5.04752L10.7345 5.03515L10.7396 5.02516L10.7419 5.01516V5L10.6661 5.00748L10.6209 5.06792L10.6004 5.16358V5.27154L10.7014 5.21858L10.7498 5.15576ZM19.9698 9.71285L19.9847 9.65988L20 9.60182L19.9948 9.54655L19.962 9.51161L19.9167 9.51392L19.8712 9.53656L19.8283 9.54655L19.7898 9.50902L19.7624 9.48638L19.7423 9.51161L19.7347 9.5643V9.61753L19.7549 9.69775L19.7498 9.73039L19.7195 9.7656L19.7449 9.77818L19.7751 9.77302L19.8361 9.75296L19.9927 9.75554L19.9775 9.72549L19.9698 9.71285ZM19.7092 10.0473L19.704 10.0195L19.7117 9.99234L19.7192 9.94686L19.699 9.93938L19.6385 9.95712L19.5627 9.9646L19.5316 9.95434L19.4939 9.92714L19.4812 9.95236L19.4737 9.975L19.4711 10.0027L19.4737 10.0328L19.4686 10.0503L19.4481 10.0605L19.4253 10.0654L19.4103 10.0754L19.3876 10.2238L19.385 10.2693L19.3697 10.3019L19.289 10.342L19.2738 10.3746L19.2611 10.4098L19.2201 10.4124L19.1722 10.4024L19.1394 10.3999L19.1091 10.4351L19.0886 10.4903L19.0785 10.5559V10.6613L19.071 10.6965L19.0437 10.7494V10.7646L19.0512 10.8024V10.815L19.0411 10.8201L19.0109 10.8176L19.0008 10.8201L18.8765 11.0083L18.8286 11.1317L18.8108 11.2749L18.8436 11.4009L18.9219 11.5191L19.021 11.5871L19.1222 11.5739L19.1603 11.5382L19.2616 11.3674L19.2768 11.3345L19.282 11.2693L19.2921 11.2415L19.3126 11.2189L19.363 11.1863L19.3835 11.1613L19.3178 11.1086L19.338 11.0024L19.4316 10.8168L19.4466 10.7461L19.4592 10.7132L19.4845 10.6983L19.5047 10.7032L19.5275 10.7109L19.548 10.7158L19.5555 10.7032L19.5454 10.643L19.548 10.6279L19.5606 10.5978L19.5708 10.5853L19.5909 10.5829L19.6111 10.5729L19.6238 10.5452L19.5172 10.4648L19.4893 10.424L19.5198 10.4065L19.5529 10.4091L19.6264 10.4317L19.6163 10.4017L19.5858 10.359L19.5783 10.3264V10.2937L19.5959 10.1881L19.5835 10.1677L19.5634 10.1499L19.5556 10.1348L19.5885 10.1199L19.6138 10.1248L19.7172 10.1731L19.74 10.1024L19.7224 10.0747L19.7092 10.0473Z" fill="#550000"/>
</svg>
