<svg width="26" height="26" viewBox="0 0 26 26" fill="none" xmlns="http://www.w3.org/2000/svg">
<circle cx="13" cy="13" r="13" fill="#F8F3ED"/>
<path d="M19.823 13.4691L19.8129 13.8141L19.8009 14.1575L19.7908 14.5025L19.7786 14.8476L19.7664 15.1926L19.7563 15.5382L19.7441 15.8832L19.7343 16.2305L19.7221 16.5755L19.712 16.9205L19.7 17.2678L19.6899 17.6131L19.6777 17.9604L19.6676 18.3077L19.6557 18.655L19.6435 19L19.3157 18.9876L18.9886 18.975L18.6612 18.9622L18.332 18.9476L18.0047 18.9331L17.6773 18.9183L17.3499 18.9016L17.0226 18.8871L16.6954 18.8704L16.3677 18.8535L16.0406 18.8348L15.7132 18.8179L15.3838 18.799L15.0564 18.7802L14.729 18.7614L14.4021 18.7413L14.0748 18.7223L13.7476 18.7015L13.4199 18.6805L13.0927 18.6575L12.765 18.6367L12.4379 18.6136L12.1107 18.591L11.7834 18.5658L11.456 18.5427L11.1305 18.5179L10.8034 18.4924L10.4756 18.4674L10.1487 18.4424L9.82096 18.4153L9.49382 18.3881L9.16646 18.361L8.90766 18.3379L8.64497 18.3148L8.38638 18.2922L8.12386 18.2689L7.86528 18.2463L7.60445 18.2232L7.34379 18.1982L7.08312 18.1756L6.82251 18.1506L6.56185 18.1253L6.30141 18.1001L6.04058 18.073L5.77991 18.048L5.52111 18.0206L5.26045 17.9958L5 17.9684L5.01611 17.7945L5.0325 17.6232L5.04861 17.4496L5.0668 17.2778L5.08319 17.1042L5.09931 16.9327L5.1175 16.7593L5.13361 16.5876L5.15 16.4163L5.16638 16.2426L5.1825 16.0709L5.20069 15.8992L5.2168 15.7258L5.23292 15.5543L5.2493 15.3826L5.26749 15.2108L5.30797 14.7801L5.34822 14.3511L5.39078 13.9223L5.43333 13.4933L5.47359 13.0643L5.51384 12.6353L5.5564 12.2067L5.59687 11.7796L5.63942 11.3509L5.67968 10.9242L5.71994 10.4971L5.76249 10.0703L5.80297 9.64364L5.84344 9.21893L5.88578 8.79206L5.92603 8.36735L5.93406 8.28607L5.94215 8.20203L5.95018 8.11843L5.95821 8.03675L5.96645 7.95316L5.97454 7.87149L5.98257 7.78981L5.99082 7.70639L5.9989 7.62471L6.00693 7.54111L6.01496 7.45944L6.02304 7.37585L6.03107 7.29417L6.03927 7.20916L6.04752 7.12766L6.0556 7.04383L6.05975 7L6.16053 7.01046L6.37471 7.03309L6.59096 7.05407L6.80722 7.07715L7.02347 7.09791L7.23973 7.11906L7.45391 7.13982L7.67016 7.16075L7.8862 7.18173L8.10245 7.20266L8.31871 7.22149L8.53496 7.24248L8.751 7.26108L8.96518 7.28207L9.18143 7.30113L9.39768 7.31974L9.61394 7.33857L9.82998 7.3578L10.0462 7.37641L10.2623 7.39502L10.4785 7.41199L10.6948 7.4306L10.911 7.44756L11.1273 7.46425L11.3435 7.48308L11.5598 7.49977L11.776 7.51646L11.9921 7.53122L12.2083 7.54768L12.4246 7.56436L12.6408 7.57912L12.8571 7.59609L13.0734 7.6104L13.2896 7.62516L13.5056 7.6397L13.7217 7.65446L13.9379 7.66922L14.1542 7.68376L14.3704 7.6983L14.5889 7.71091L14.805 7.72545L15.0192 7.73806L15.2373 7.75259L15.4535 7.76543L15.6698 7.77782L15.886 7.79021L16.1023 7.80282L16.3185 7.81306L16.5367 7.82612L16.7529 7.83851L16.9692 7.84875L17.1854 7.85921L17.4017 7.87182L17.6179 7.88251L17.836 7.89298L18.0523 7.90327L18.2685 7.91159L18.4846 7.92205L18.7008 7.93251L18.9171 7.94089L19.1352 7.95135L19.3515 7.95966L19.5677 7.96798L19.784 7.97629L20 7.98461L19.9899 8.32572L19.9777 8.66684L19.9678 9.00988L19.9577 9.351L19.9455 9.69234L19.9354 10.0352L19.9235 10.3784L19.9134 10.7193L19.9033 11.0623L19.8913 11.4056L19.8812 11.7488L19.869 12.0918L19.8589 12.4372L19.8469 12.7802L19.8366 13.1232L19.8244 13.4686L19.823 13.4691Z" fill="#550000"/>
</svg>
