<svg width="15" height="15" viewBox="0 0 15 15" fill="none" xmlns="http://www.w3.org/2000/svg">
<path d="M6.56267 10.6244L3.75 7.81156L4.68733 6.87439L6.56267 8.74873L10.312 4.99939L11.25 5.93722L6.56267 10.6231V10.6244Z" fill="#1A237E"/>
<path fill-rule="evenodd" clip-rule="evenodd" d="M0.625 7.49969C0.625 3.70282 3.70312 0.624695 7.5 0.624695C11.2969 0.624695 14.375 3.70282 14.375 7.49969C14.375 11.2966 11.2969 14.3747 7.5 14.3747C3.70312 14.3747 0.625 11.2966 0.625 7.49969ZM7.5 13.1247C6.76131 13.1247 6.02986 12.9792 5.34741 12.6965C4.66495 12.4138 4.04485 11.9995 3.52252 11.4772C3.00019 10.9548 2.58586 10.3347 2.30318 9.65229C2.02049 8.96983 1.875 8.23838 1.875 7.49969C1.875 6.76101 2.02049 6.02956 2.30318 5.3471C2.58586 4.66464 3.00019 4.04455 3.52252 3.52222C4.04485 2.99989 4.66495 2.58556 5.34741 2.30287C6.02986 2.02019 6.76131 1.87469 7.5 1.87469C8.99184 1.87469 10.4226 2.46733 11.4775 3.52222C12.5324 4.57711 13.125 6.00785 13.125 7.49969C13.125 8.99154 12.5324 10.4223 11.4775 11.4772C10.4226 12.5321 8.99184 13.1247 7.5 13.1247Z" fill="#1A237E"/>
</svg>
