<svg width="12" height="12" viewBox="0 0 12 12" fill="none" xmlns="http://www.w3.org/2000/svg">
<path d="M11.9604 4.64336C11.9136 4.5027 11.8235 4.37865 11.7017 4.28732C11.58 4.19598 11.4322 4.14158 11.2775 4.13118L7.99124 3.87846L6.72474 0.962075C6.66565 0.825377 6.5652 0.708469 6.43613 0.626197C6.30707 0.543925 6.15522 0.5 5.99986 0.5C5.8445 0.5 5.69265 0.543925 5.56359 0.626197C5.43452 0.708469 5.33407 0.825377 5.27498 0.962075L4.00848 3.87742L0.722243 4.13118C0.567434 4.14166 0.419522 4.19621 0.297735 4.28774C0.175949 4.37927 0.0859222 4.50354 0.0393598 4.6444C-0.00917714 4.78488 -0.0129084 4.93589 0.0286363 5.07839C0.070181 5.22088 0.155142 5.34849 0.272805 5.44511L2.7818 7.50059L2.01819 10.5752C1.98236 10.7191 1.99221 10.8699 2.04648 11.0085C2.10076 11.147 2.19702 11.2672 2.32309 11.3536C2.4476 11.4414 2.59707 11.4913 2.75192 11.4969C2.90677 11.5024 3.05977 11.4634 3.19088 11.3848L5.99986 9.74184L8.81321 11.3874C8.94431 11.466 9.09731 11.505 9.25216 11.4995C9.40701 11.4939 9.55648 11.444 9.68099 11.3562C9.80706 11.2697 9.90333 11.1496 9.9576 11.0111C10.0119 10.8725 10.0217 10.7217 9.98589 10.5778L9.22228 7.50318L11.7269 5.44511C11.8448 5.3484 11.9299 5.22062 11.9714 5.07792C12.013 4.93521 12.0091 4.78398 11.9604 4.64336ZM11.2982 4.97392L8.64249 7.15342C8.59717 7.19062 8.56345 7.23893 8.54499 7.2931C8.52652 7.34726 8.52402 7.40521 8.53776 7.46063L9.34937 10.719C9.35648 10.7436 9.3553 10.7697 9.346 10.7936C9.33671 10.8175 9.31976 10.8381 9.29755 10.8524C9.27742 10.8672 9.25294 10.8756 9.22752 10.8765C9.2021 10.8775 9.177 10.8708 9.15574 10.8575L6.17113 9.1129C6.1196 9.08279 6.06032 9.06686 5.99986 9.06686C5.9394 9.06686 5.88012 9.08279 5.82859 9.1129L2.84398 10.857C2.82272 10.8703 2.79762 10.877 2.7722 10.876C2.74678 10.8751 2.7223 10.8666 2.70217 10.8518C2.67947 10.8379 2.66197 10.8175 2.65217 10.7936C2.64238 10.7696 2.64079 10.7433 2.64762 10.7185L3.45923 7.46011C3.47297 7.40469 3.47047 7.34674 3.45201 7.29258C3.43354 7.23841 3.39982 7.1901 3.35451 7.1529L0.698789 4.9734C0.677954 4.95726 0.662923 4.93534 0.655787 4.91069C0.648651 4.88605 0.649764 4.8599 0.658973 4.83588C0.666087 4.81221 0.680788 4.79123 0.701027 4.77589C0.721265 4.76054 0.746033 4.75158 0.771877 4.75026L4.25829 4.48249C4.31837 4.47785 4.37593 4.45751 4.42463 4.42373C4.47333 4.38994 4.51127 4.34401 4.53428 4.29101L5.87768 1.19819C5.88705 1.17529 5.90346 1.15562 5.92478 1.14176C5.94609 1.12789 5.97131 1.12047 5.99713 1.12047C6.02295 1.12047 6.04817 1.12789 6.06949 1.14176C6.0908 1.15562 6.10722 1.17529 6.11658 1.19819L7.45999 4.29101C7.48299 4.34401 7.52094 4.38994 7.56964 4.42373C7.61834 4.45751 7.6759 4.47785 7.73598 4.48249L11.2224 4.75026C11.2482 4.75158 11.273 4.76054 11.2932 4.77589C11.3135 4.79123 11.3282 4.81221 11.3353 4.83588C11.3449 4.85971 11.3465 4.8858 11.3399 4.91053C11.3333 4.93527 11.3187 4.95742 11.2982 4.97392Z" fill="#333333"/>
</svg>
