<svg width="18" height="14" viewBox="0 0 18 14" fill="none" xmlns="http://www.w3.org/2000/svg">
        <path d="M17.5091 10.2439H16.6909V1.87805C16.6909 1.37996 16.5013 0.90227 16.1637 0.550068C15.8261 0.197865 15.3683 0 14.8909 0H3.10909C2.6317 0 2.17386 0.197865 1.8363 0.550068C1.49873 0.90227 1.30909 1.37996 1.30909 1.87805V10.2439H0.490909C0.360712 10.2439 0.235847 10.2979 0.143784 10.3939C0.0517206 10.49 0 10.6203 0 10.7561V12.122C0 12.62 0.189642 13.0977 0.527208 13.4499C0.864773 13.8021 1.32261 14 1.8 14H16.2C16.6774 14 17.1352 13.8021 17.4728 13.4499C17.8104 13.0977 18 12.62 18 12.122V10.7561C18 10.6203 17.9483 10.49 17.8562 10.3939C17.7642 10.2979 17.6393 10.2439 17.5091 10.2439ZM2.29091 1.87805C2.29091 1.65164 2.37711 1.43451 2.53055 1.27442C2.68399 1.11433 2.8921 1.02439 3.10909 1.02439H14.8909C15.1079 1.02439 15.316 1.11433 15.4695 1.27442C15.6229 1.43451 15.7091 1.65164 15.7091 1.87805V10.2439H2.29091V1.87805ZM17.0182 12.122C17.0182 12.3484 16.932 12.5655 16.7785 12.7256C16.6251 12.8857 16.417 12.9756 16.2 12.9756H1.8C1.583 12.9756 1.3749 12.8857 1.22146 12.7256C1.06802 12.5655 0.981818 12.3484 0.981818 12.122V11.2683H17.0182V12.122ZM10.8 3.2439C10.8 3.37975 10.7483 3.51002 10.6562 3.60608C10.5642 3.70213 10.4393 3.7561 10.3091 3.7561H7.69091C7.56071 3.7561 7.43585 3.70213 7.34378 3.60608C7.25172 3.51002 7.2 3.37975 7.2 3.2439C7.2 3.10806 7.25172 2.97778 7.34378 2.88173C7.43585 2.78567 7.56071 2.73171 7.69091 2.73171H10.3091C10.4393 2.73171 10.5642 2.78567 10.6562 2.88173C10.7483 2.97778 10.8 3.10806 10.8 3.2439Z" fill="#1A237E"/>
    </svg>