<svg width="14" height="18" viewBox="0 0 14 18" fill="none" xmlns="http://www.w3.org/2000/svg">
<path d="M7.71931 0.292786C7.53178 0.105315 7.27747 0 7.01231 0C6.74714 0 6.49283 0.105315 6.30531 0.292786L0.648306 5.94979C0.552796 6.04203 0.476613 6.15238 0.424204 6.27438C0.371795 6.39639 0.344209 6.52761 0.343055 6.66039C0.341902 6.79316 0.367203 6.92484 0.417484 7.04774C0.467765 7.17064 0.542018 7.28229 0.635911 7.37618C0.729804 7.47007 0.841455 7.54433 0.964352 7.59461C1.08725 7.64489 1.21893 7.67019 1.35171 7.66904C1.48449 7.66788 1.61571 7.6403 1.73771 7.58789C1.85971 7.53548 1.97006 7.4593 2.06231 7.36379L6.01231 3.41379V16.6568C6.01231 16.922 6.11766 17.1764 6.3052 17.3639C6.49274 17.5514 6.74709 17.6568 7.01231 17.6568C7.27752 17.6568 7.53188 17.5514 7.71941 17.3639C7.90695 17.1764 8.01231 16.922 8.01231 16.6568V3.41379L11.9623 7.36379C12.1509 7.54594 12.4035 7.64674 12.6657 7.64446C12.9279 7.64218 13.1787 7.53701 13.3641 7.3516C13.5495 7.1662 13.6547 6.91538 13.657 6.65319C13.6593 6.39099 13.5585 6.13839 13.3763 5.94979L7.71931 0.292786Z" fill="#808080"/>
</svg>
