<svg width="14" height="14" viewBox="0 0 14 14" fill="none" xmlns="http://www.w3.org/2000/svg">
<path d="M13.9538 5.3967C13.8992 5.23046 13.7941 5.08386 13.652 4.97592C13.51 4.86798 13.3375 4.80369 13.1571 4.79139L9.32311 4.49272L7.84553 1.04609C7.77659 0.884537 7.6594 0.746373 7.50882 0.649142C7.35825 0.551911 7.18109 0.5 6.99984 0.5C6.81859 0.5 6.64143 0.551911 6.49085 0.649142C6.34028 0.746373 6.22308 0.884537 6.15414 1.04609L4.67656 4.4915L0.842617 4.79139C0.662007 4.80378 0.489442 4.86825 0.347358 4.97642C0.205274 5.08459 0.100243 5.23146 0.0459198 5.39793C-0.0107067 5.56395 -0.0150598 5.74241 0.033409 5.91082C0.0818778 6.07922 0.180998 6.23003 0.318273 6.34422L3.24543 8.77342L2.35456 12.4071C2.31276 12.5772 2.32424 12.7553 2.38756 12.9191C2.45088 13.0828 2.56319 13.2248 2.71027 13.327C2.85554 13.4307 3.02992 13.4898 3.21058 13.4963C3.39123 13.5029 3.56973 13.4567 3.72269 13.3638L6.99984 11.4222L10.2821 13.3669C10.435 13.4598 10.6135 13.506 10.7942 13.4994C10.9748 13.4928 11.1492 13.4338 11.2945 13.3301C11.4416 13.2279 11.5539 13.0859 11.6172 12.9222C11.6805 12.7584 11.692 12.5802 11.6502 12.4102L10.7593 8.77649L13.6814 6.34422C13.8189 6.22993 13.9182 6.07892 13.9667 5.91026C14.0152 5.74161 14.0107 5.56289 13.9538 5.3967ZM13.1812 5.78736L10.0829 8.36314C10.03 8.4071 9.99069 8.46419 9.96915 8.5282C9.94761 8.59222 9.94469 8.6607 9.96072 8.7262L10.9076 12.577C10.9159 12.606 10.9145 12.6369 10.9037 12.6652C10.8928 12.6934 10.8731 12.7177 10.8471 12.7346C10.8237 12.7521 10.7951 12.7621 10.7654 12.7632C10.7358 12.7643 10.7065 12.7564 10.6817 12.7407L7.19965 10.6789C7.13954 10.6433 7.07038 10.6245 6.99984 10.6245C6.9293 10.6245 6.86014 10.6433 6.80003 10.6789L3.31798 12.7401C3.29317 12.7558 3.26389 12.7637 3.23423 12.7626C3.20457 12.7615 3.17601 12.7515 3.15253 12.734C3.12604 12.7175 3.10563 12.6934 3.0942 12.6651C3.08277 12.6368 3.08092 12.6058 3.0889 12.5764L4.03577 8.72558C4.0518 8.66008 4.04888 8.59161 4.02734 8.52759C4.0058 8.46358 3.96646 8.40649 3.91359 8.36252L0.815254 5.78675C0.790946 5.76767 0.77341 5.74177 0.765084 5.71264C0.756759 5.68351 0.758058 5.65261 0.768801 5.62423C0.777101 5.59625 0.794253 5.57146 0.817865 5.55332C0.841476 5.53518 0.870372 5.52459 0.900524 5.52303L4.96801 5.20658C5.03809 5.2011 5.10525 5.17706 5.16206 5.13713C5.21888 5.0972 5.26315 5.04292 5.28999 4.98028L6.8573 1.32513C6.86822 1.29807 6.88737 1.27483 6.91224 1.25844C6.93711 1.24205 6.96653 1.23328 6.99665 1.23328C7.02678 1.23328 7.0562 1.24205 7.08107 1.25844C7.10594 1.27483 7.12509 1.29807 7.13601 1.32513L8.70332 4.98028C8.73016 5.04292 8.77443 5.0972 8.83125 5.13713C8.88806 5.17706 8.95522 5.2011 9.0253 5.20658L13.0928 5.52303C13.1229 5.52459 13.1518 5.53518 13.1754 5.55332C13.1991 5.57146 13.2162 5.59625 13.2245 5.62423C13.2358 5.65238 13.2376 5.68321 13.2299 5.71245C13.2221 5.74168 13.2051 5.76786 13.1812 5.78736Z" fill="#F44336"/>
</svg>
