<svg width="18" height="14" viewBox="0 0 18 14" fill="none" xmlns="http://www.w3.org/2000/svg">
<path d="M0.931036 8.90909H1.24138V2.22727C1.24138 1.63656 1.47026 1.07005 1.87766 0.652353C2.28507 0.234659 2.83763 0 3.41379 0H14.5862C15.1624 0 15.7149 0.234659 16.1223 0.652353C16.5297 1.07005 16.7586 1.63656 16.7586 2.22727V8.90909H17.069C17.3159 8.90909 17.5527 9.00966 17.7273 9.18867C17.9019 9.36768 18 9.61047 18 9.86364V11.7727C18 12.3634 17.7711 12.93 17.3637 13.3476C16.9563 13.7653 16.4037 14 15.8276 14H2.17241C1.59625 14 1.04369 13.7653 0.636286 13.3476C0.228878 12.93 0 12.3634 0 11.7727V9.86364C0 9.61047 0.0980911 9.36768 0.272696 9.18867C0.447298 9.00966 0.684109 8.90909 0.931036 8.90909ZM14.8966 2.22727C14.8966 2.14289 14.8639 2.06195 14.8057 2.00228C14.7475 1.94261 14.6685 1.90909 14.5862 1.90909H3.41379C3.33148 1.90909 3.25255 1.94261 3.19435 2.00228C3.13615 2.06195 3.10345 2.14289 3.10345 2.22727V8.90909H14.8966V2.22727ZM1.86207 11.7727C1.86207 11.8571 1.89477 11.938 1.95297 11.9977C2.01117 12.0574 2.09011 12.0909 2.17241 12.0909H15.8276C15.9099 12.0909 15.9888 12.0574 16.047 11.9977C16.1052 11.938 16.1379 11.8571 16.1379 11.7727V10.8182H1.86207V11.7727ZM6.82759 4.13636C6.82759 4.38952 6.92568 4.63232 7.10028 4.81133C7.27488 4.99034 7.5117 5.09091 7.75862 5.09091H10.2414C10.4883 5.09091 10.7251 4.99034 10.8997 4.81133C11.0743 4.63232 11.1724 4.38952 11.1724 4.13636C11.1724 3.8832 11.0743 3.64041 10.8997 3.4614C10.7251 3.28239 10.4883 3.18182 10.2414 3.18182H7.75862C7.5117 3.18182 7.27488 3.28239 7.10028 3.4614C6.92568 3.64041 6.82759 3.8832 6.82759 4.13636Z" fill="#1976D2"/>
</svg>
