<svg width="15" height="14" viewBox="0 0 15 14" fill="none" xmlns="http://www.w3.org/2000/svg">
<path fill-rule="evenodd" clip-rule="evenodd" d="M8.09415 0.371435C8.04178 0.260545 7.95799 0.166632 7.85269 0.100807C7.7474 0.034982 7.62501 0 7.5 0C7.37499 0 7.2526 0.034982 7.14731 0.100807C7.04201 0.166632 6.95822 0.260545 6.90585 0.371435L5.02786 4.3477L0.577622 4.86359C0.453459 4.87791 0.336095 4.92669 0.23942 5.00414C0.142745 5.08159 0.0708065 5.18448 0.0321177 5.30063C-0.00657102 5.41678 -0.01039 5.54132 0.0211128 5.65953C0.0526155 5.77773 0.118121 5.88464 0.209877 5.96761L3.50126 8.94022L2.6277 13.2361C2.60344 13.3559 2.61478 13.4799 2.66039 13.5936C2.70599 13.7072 2.78395 13.8057 2.88505 13.8775C2.98615 13.9492 3.10616 13.9912 3.2309 13.9984C3.35564 14.0056 3.47988 13.9778 3.58894 13.9182L7.5 11.7792L11.4111 13.9182C11.5202 13.978 11.6446 14.0061 11.7695 13.9989C11.8944 13.9918 12.0147 13.9498 12.1159 13.8779C12.2171 13.8061 12.2952 13.7073 12.3407 13.5935C12.3863 13.4796 12.3975 13.3554 12.373 13.2355L11.4994 8.94086L14.7901 5.96761C14.8819 5.88464 14.9474 5.77773 14.9789 5.65953C15.0104 5.54132 15.0066 5.41678 14.9679 5.30063C14.9292 5.18448 14.8573 5.08159 14.7606 5.00414C14.6639 4.92669 14.5465 4.87791 14.4224 4.86359L9.97148 4.34706L8.09415 0.371435Z" fill="#F44336"/>
</svg>
